<svg xmlns:inkscape="http://www.inkscape.org/namespaces/inkscape" xmlns:sodipodi="http://sodipodi.sourceforge.net/DTD/sodipodi-0.dtd" xmlns="http://www.w3.org/2000/svg" xmlns:svg="http://www.w3.org/2000/svg" width="76.798889mm" height="58.353371mm" viewBox="0 0 76.798889 58.353371" version="1.1" id="svg1" inkscape:version="1.3 (0e150ed, 2023-07-21)" sodipodi:docname="figure3.svg">
  <sodipodi:namedview id="namedview1" pagecolor="#ffffff" bordercolor="currentColor" borderopacity="0.25" inkscape:showpageshadow="2" inkscape:pageopacity="0.0" inkscape:pagecheckerboard="0" inkscape:deskcolor="#d1d1d1" inkscape:document-units="mm" inkscape:zoom="4.7572176" inkscape:cx="218.19477" inkscape:cy="47.086347" inkscape:window-width="1472" inkscape:window-height="841" inkscape:window-x="0" inkscape:window-y="25" inkscape:window-maximized="0" inkscape:current-layer="g647"/>
  <defs id="defs1">
    <clipPath id="clip_8">
      <path transform="matrix(0.50987,0,0,-0.50987,72.284,513.16506)" d="M 0,0 H 426.96696 V 324.41825 H 0 Z" id="path1"/>
    </clipPath>
    <clipPath id="clip_10">
      <path transform="matrix(0.50987,0,0,-0.50987,72.284,513.16506)" d="M 55.996877,51.10625 H 413.11689 V 317.21827 H 55.996877 Z" id="path26"/>
    </clipPath>
    <clipPath id="clip_11">
      <path transform="matrix(0.50987,0,0,-0.50987,109.1117,357.59236)" d="M -8.804226,-8.236068 H 8.804226 V 9 H -8.804226 Z" id="path27"/>
    </clipPath>
    <clipPath id="clip_12">
      <path transform="matrix(0.50987,0,0,-0.50987,118.38147,366.62455)" d="M -8.804226,-8.236068 H 8.804226 V 9 H -8.804226 Z" id="path28"/>
    </clipPath>
    <clipPath id="clip_13">
      <path transform="matrix(0.50987,0,0,-0.50987,125.30069,369.95143)" d="M -8.804226,-8.236068 H 8.804226 V 9 H -8.804226 Z" id="path29"/>
    </clipPath>
    <clipPath id="clip_14">
      <path transform="matrix(0.50987,0,0,-0.50987,133.11379,371.60963)" d="M -8.804226,-8.236068 H 8.804226 V 9 H -8.804226 Z" id="path30"/>
    </clipPath>
    <clipPath id="clip_15">
      <path transform="matrix(0.50987,0,0,-0.50987,142.54909,382.06147)" d="M -8.804226,-8.236068 H 8.804226 V 9 H -8.804226 Z" id="path31"/>
    </clipPath>
    <clipPath id="clip_16">
      <path transform="matrix(0.50987,0,0,-0.50987,150.41184,383.39909)" d="M -8.804226,-8.236068 H 8.804226 V 9 H -8.804226 Z" id="path32"/>
    </clipPath>
    <clipPath id="clip_17">
      <path transform="matrix(0.50987,0,0,-0.50987,158.90361,376.82737)" d="M -8.804226,-8.236068 H 8.804226 V 9 H -8.804226 Z" id="path33"/>
    </clipPath>
    <clipPath id="clip_18">
      <path transform="matrix(0.50987,0,0,-0.50987,175.32434,380.99977)" d="M -8.804226,-8.236068 H 8.804226 V 9 H -8.804226 Z" id="path34"/>
    </clipPath>
    <clipPath id="clip_19">
      <path transform="matrix(0.50987,0,0,-0.50987,191.96027,394.93354)" d="M -8.804226,-8.236068 H 8.804226 V 9 H -8.804226 Z" id="path35"/>
    </clipPath>
    <clipPath id="clip_20">
      <path transform="matrix(0.50987,0,0,-0.50987,208.43067,402.31797)" d="M -8.804226,-8.236068 H 8.804226 V 9 H -8.804226 Z" id="path36"/>
    </clipPath>
    <clipPath id="clip_21">
      <path transform="matrix(0.50987,0,0,-0.50987,225.14936,400.58518)" d="M -8.804226,-8.236068 H 8.804226 V 9 H -8.804226 Z" id="path37"/>
    </clipPath>
    <clipPath id="clip_22">
      <path transform="matrix(0.50987,0,0,-0.50987,241.53699,412.16288)" d="M -8.804226,-8.236068 H 8.804226 V 9 H -8.804226 Z" id="path38"/>
    </clipPath>
    <clipPath id="clip_23">
      <path transform="matrix(0.50987,0,0,-0.50987,258.09016,432.53419)" d="M -8.804226,-8.236068 H 8.804226 V 9 H -8.804226 Z" id="path39"/>
    </clipPath>
    <clipPath id="clip_24">
      <path transform="matrix(0.50987,0,0,-0.50987,274.6433,475.33168)" d="M -8.804226,-8.236068 H 8.804226 V 9 H -8.804226 Z" id="path40"/>
    </clipPath>
    <clipPath id="clip_25">
      <path transform="matrix(0.50987,0,0,-0.50987,72.284,513.16506)" d="M 55.996877,51.10625 H 413.11689 V 317.21827 H 55.996877 Z" id="path41"/>
    </clipPath>
    <clipPath id="clip_26">
      <path transform="matrix(0.50987,0,0,-0.50987,109.1117,376.06837)" d="M -9,-9 H 9 V 9 H -9 Z" id="path42"/>
    </clipPath>
    <clipPath id="clip_27">
      <path transform="matrix(0.50987,0,0,-0.50987,118.38147,370.98783)" d="M -9,-9 H 9 V 9 H -9 Z" id="path43"/>
    </clipPath>
    <clipPath id="clip_28">
      <path transform="matrix(0.50987,0,0,-0.50987,125.30069,382.33738)" d="M -9,-9 H 9 V 9 H -9 Z" id="path44"/>
    </clipPath>
    <clipPath id="clip_29">
      <path transform="matrix(0.50987,0,0,-0.50987,133.11379,376.2339)" d="M -9,-9 H 9 V 9 H -9 Z" id="path45"/>
    </clipPath>
    <clipPath id="clip_30">
      <path transform="matrix(0.50987,0,0,-0.50987,142.54909,386.73048)" d="M -9,-9 H 9 V 9 H -9 Z" id="path46"/>
    </clipPath>
    <clipPath id="clip_31">
      <path transform="matrix(0.50987,0,0,-0.50987,150.41184,386.91093)" d="M -9,-9 H 9 V 9 H -9 Z" id="path47"/>
    </clipPath>
    <clipPath id="clip_32">
      <path transform="matrix(0.50987,0,0,-0.50987,158.90361,393.32609)" d="M -9,-9 H 9 V 9 H -9 Z" id="path48"/>
    </clipPath>
    <clipPath id="clip_33">
      <path transform="matrix(0.50987,0,0,-0.50987,175.32434,394.9664)" d="M -9,-9 H 9 V 9 H -9 Z" id="path49"/>
    </clipPath>
    <clipPath id="clip_34">
      <path transform="matrix(0.50987,0,0,-0.50987,191.96027,400.99235)" d="M -9,-9 H 9 V 9 H -9 Z" id="path50"/>
    </clipPath>
    <clipPath id="clip_35">
      <path transform="matrix(0.50987,0,0,-0.50987,208.43067,401.79908)" d="M -9,-9 H 9 V 9 H -9 Z" id="path51"/>
    </clipPath>
    <clipPath id="clip_36">
      <path transform="matrix(0.50987,0,0,-0.50987,225.14936,405.6941)" d="M -9,-9 H 9 V 9 H -9 Z" id="path52"/>
    </clipPath>
    <clipPath id="clip_37">
      <path transform="matrix(0.50987,0,0,-0.50987,241.53699,415.89094)" d="M -9,-9 H 9 V 9 H -9 Z" id="path53"/>
    </clipPath>
    <clipPath id="clip_38">
      <path transform="matrix(0.50987,0,0,-0.50987,258.09016,434.88438)" d="M -9,-9 H 9 V 9 H -9 Z" id="path54"/>
    </clipPath>
    <clipPath id="clip_39">
      <path transform="matrix(0.50987,0,0,-0.50987,274.6433,480.94013)" d="M -9,-9 H 9 V 9 H -9 Z" id="path55"/>
    </clipPath>
  </defs>
  <g inkscape:label="Calque 1" inkscape:groupmode="layer" id="layer1" transform="translate(-66.145833,-119.32709)" color="rgb(209, 209, 209)">
    <g id="g648" transform="matrix(0.35277777,0,0,0.35277777,40.645645,-3.3527667)" color="rgb(209, 209, 209)">
      <g clip-path="url(#clip_8)" id="g647" color="rgb(209, 209, 209)">
        <path transform="matrix(0.50987,0,0,-0.50987,72.284,513.16506)" d="m 72.2296,51.10625 v -3.5" id="path505" style="fill:currentColor;fill-opacity:1"/>
        <path transform="matrix(0.50987,0,0,-0.50987,72.284,513.16506)" stroke-width="0.8" stroke-linecap="butt" stroke-linejoin="round" fill="none" stroke="currentColor" d="m 72.2296,51.10625 v -3.5" id="path506" style="fill:currentColor;fill-opacity:1"/>
        <g id="use506" transform="matrix(8.15792,0,0,-8.15792,102.63875,496.8747)" style="fill:currentColor;fill-opacity:1" color="rgb(209, 209, 209)">
          <path transform="matrix(0.001,0,0,0.001,0,0)" d="m 318,664 c -51,0 -89,-25 -115,-75 -26,-50 -38,-125 -38,-225 0,-100 12,-175 38,-225 26,-50 64,-75 115,-75 51,0 89,25 115,75 25,50 38,125 38,225 0,100 -13,175 -38,225 -26,50 -64,75 -115,75 m 0,78 c 81,0 143,-33 187,-97 43,-65 65,-159 65,-281 C 570,241 548,147 505,83 461,19 399,-13 318,-13 236,-13 173,19 130,83 87,147 66,241 66,364 c 0,122 21,216 64,281 43,64 106,97 188,97" id="path130" style="fill:currentColor;fill-opacity:1"/>
        </g>
        <g id="use507" transform="matrix(8.15792,0,0,-8.15792,107.82718,496.8747)" style="fill:currentColor;fill-opacity:1" color="rgb(209, 209, 209)">
          <path transform="matrix(0.001,0,0,0.001,0,0)" d="m 727,321 c -28,0 -51,-12 -67,-36 -16,-24 -24,-58 -24,-101 0,-42 8,-76 24,-100 16,-24 39,-36 67,-36 28,0 50,12 66,36 16,24 24,58 24,100 0,42 -8,76 -24,100 -16,24 -38,37 -66,37 m 0,62 c 51,0 92,-18 122,-54 30,-36 46,-85 46,-145 C 895,123 879,75 849,40 819,4 778,-13 727,-13 c -52,0 -94,17 -124,53 -30,35 -45,83 -45,144 0,61 15,109 45,145 30,36 72,54 124,54 M 223,680 c -28,0 -50,-13 -66,-37 -16,-24 -24,-57 -24,-99 0,-44 8,-77 24,-101 16,-24 38,-36 66,-36 28,0 51,12 67,36 16,24 24,57 24,101 0,42 -9,75 -25,99 -16,24 -38,37 -66,37 m 441,62 h 78 L 286,-13 h -78 l 456,755 m -441,0 c 51,0 92,-18 123,-54 30,-36 46,-84 46,-144 0,-62 -16,-110 -46,-146 -30,-36 -71,-53 -123,-53 -52,0 -93,17 -123,53 -30,36 -45,84 -45,146 0,60 15,108 45,144 30,36 71,54 123,54" id="path123" style="fill:currentColor;fill-opacity:1"/>
        </g>
        <path transform="matrix(0.50987,0,0,-0.50987,72.284,513.16506)" d="m 137.1605,51.10625 v -3.5" id="path507" style="fill:currentColor;fill-opacity:1"/>
        <path transform="matrix(0.50987,0,0,-0.50987,72.284,513.16506)" stroke-width="0.8" stroke-linecap="butt" stroke-linejoin="round" fill="none" stroke="currentColor" d="m 137.1605,51.10625 v -3.5" id="path508" style="fill:currentColor;fill-opacity:1"/>
        <g id="use508" transform="matrix(8.15792,0,0,-8.15792,133.14792,496.8747)" style="fill:currentColor;fill-opacity:1" color="rgb(209, 209, 209)">
          <path transform="matrix(0.001,0,0,0.001,0,0)" d="M 192,83 H 536 V 0 H 73 v 83 c 37,38 88,90 153,156 64,65 105,107 122,126 32,35 54,65 66,90 12,24 19,49 19,73 0,38 -14,70 -41,94 -27,24 -62,37 -106,37 -31,0 -64,-6 -98,-16 -34,-11 -71,-27 -110,-49 v 100 c 40,16 77,28 111,36 34,8 66,12 95,12 75,0 135,-19 180,-57 45,-38 68,-88 68,-151 0,-30 -6,-59 -17,-85 -11,-27 -31,-59 -61,-95 -8,-10 -34,-37 -78,-82 C 332,227 271,164 192,83" id="path121" style="fill:currentColor;fill-opacity:1"/>
        </g>
        <g id="use509" transform="matrix(8.15792,0,0,-8.15792,138.33635,496.8747)" style="fill:currentColor;fill-opacity:1" color="rgb(209, 209, 209)">
          <path transform="matrix(0.001,0,0,0.001,0,0)" d="m 318,664 c -51,0 -89,-25 -115,-75 -26,-50 -38,-125 -38,-225 0,-100 12,-175 38,-225 26,-50 64,-75 115,-75 51,0 89,25 115,75 25,50 38,125 38,225 0,100 -13,175 -38,225 -26,50 -64,75 -115,75 m 0,78 c 81,0 143,-33 187,-97 43,-65 65,-159 65,-281 C 570,241 548,147 505,83 461,19 399,-13 318,-13 236,-13 173,19 130,83 87,147 66,241 66,364 c 0,122 21,216 64,281 43,64 106,97 188,97" id="path131" style="fill:currentColor;fill-opacity:1"/>
        </g>
        <g id="use510" transform="matrix(8.15792,0,0,-8.15792,143.52478,496.8747)" style="fill:currentColor;fill-opacity:1" color="rgb(209, 209, 209)">
          <path transform="matrix(0.001,0,0,0.001,0,0)" d="m 727,321 c -28,0 -51,-12 -67,-36 -16,-24 -24,-58 -24,-101 0,-42 8,-76 24,-100 16,-24 39,-36 67,-36 28,0 50,12 66,36 16,24 24,58 24,100 0,42 -8,76 -24,100 -16,24 -38,37 -66,37 m 0,62 c 51,0 92,-18 122,-54 30,-36 46,-85 46,-145 C 895,123 879,75 849,40 819,4 778,-13 727,-13 c -52,0 -94,17 -124,53 -30,35 -45,83 -45,144 0,61 15,109 45,145 30,36 72,54 124,54 M 223,680 c -28,0 -50,-13 -66,-37 -16,-24 -24,-57 -24,-99 0,-44 8,-77 24,-101 16,-24 38,-36 66,-36 28,0 51,12 67,36 16,24 24,57 24,101 0,42 -9,75 -25,99 -16,24 -38,37 -66,37 m 441,62 h 78 L 286,-13 h -78 l 456,755 m -441,0 c 51,0 92,-18 123,-54 30,-36 46,-84 46,-144 0,-62 -16,-110 -46,-146 -30,-36 -71,-53 -123,-53 -52,0 -93,17 -123,53 -30,36 -45,84 -45,146 0,60 15,108 45,144 30,36 71,54 123,54" id="path124" style="fill:currentColor;fill-opacity:1"/>
        </g>
        <path transform="matrix(0.50987,0,0,-0.50987,72.284,513.16506)" d="m 202.09142,51.10625 v -3.5" id="path510" style="fill:currentColor;fill-opacity:1"/>
        <path transform="matrix(0.50987,0,0,-0.50987,72.284,513.16506)" stroke-width="0.8" stroke-linecap="butt" stroke-linejoin="round" fill="none" stroke="currentColor" d="m 202.09142,51.10625 v -3.5" id="path511" style="fill:currentColor;fill-opacity:1"/>
        <g id="use511" transform="matrix(8.15792,0,0,-8.15792,166.25424,496.8747)" style="fill:currentColor;fill-opacity:1" color="rgb(209, 209, 209)">
          <path transform="matrix(0.001,0,0,0.001,0,0)" d="M 378,643 129,254 h 249 v 389 m -26,86 H 476 V 254 H 580 V 172 H 476 V 0 H 378 V 172 H 49 v 95 l 303,462" id="path119" style="fill:currentColor;fill-opacity:1"/>
        </g>
        <g id="use512" transform="matrix(8.15792,0,0,-8.15792,171.44268,496.8747)" style="fill:currentColor;fill-opacity:1" color="rgb(209, 209, 209)">
          <path transform="matrix(0.001,0,0,0.001,0,0)" d="m 318,664 c -51,0 -89,-25 -115,-75 -26,-50 -38,-125 -38,-225 0,-100 12,-175 38,-225 26,-50 64,-75 115,-75 51,0 89,25 115,75 25,50 38,125 38,225 0,100 -13,175 -38,225 -26,50 -64,75 -115,75 m 0,78 c 81,0 143,-33 187,-97 43,-65 65,-159 65,-281 C 570,241 548,147 505,83 461,19 399,-13 318,-13 236,-13 173,19 130,83 87,147 66,241 66,364 c 0,122 21,216 64,281 43,64 106,97 188,97" id="path132" style="fill:currentColor;fill-opacity:1"/>
        </g>
        <g id="use513" transform="matrix(8.15792,0,0,-8.15792,176.6311,496.8747)" style="fill:currentColor;fill-opacity:1" color="rgb(209, 209, 209)">
          <path transform="matrix(0.001,0,0,0.001,0,0)" d="m 727,321 c -28,0 -51,-12 -67,-36 -16,-24 -24,-58 -24,-101 0,-42 8,-76 24,-100 16,-24 39,-36 67,-36 28,0 50,12 66,36 16,24 24,58 24,100 0,42 -8,76 -24,100 -16,24 -38,37 -66,37 m 0,62 c 51,0 92,-18 122,-54 30,-36 46,-85 46,-145 C 895,123 879,75 849,40 819,4 778,-13 727,-13 c -52,0 -94,17 -124,53 -30,35 -45,83 -45,144 0,61 15,109 45,145 30,36 72,54 124,54 M 223,680 c -28,0 -50,-13 -66,-37 -16,-24 -24,-57 -24,-99 0,-44 8,-77 24,-101 16,-24 38,-36 66,-36 28,0 51,12 67,36 16,24 24,57 24,101 0,42 -9,75 -25,99 -16,24 -38,37 -66,37 m 441,62 h 78 L 286,-13 h -78 l 456,755 m -441,0 c 51,0 92,-18 123,-54 30,-36 46,-84 46,-144 0,-62 -16,-110 -46,-146 -30,-36 -71,-53 -123,-53 -52,0 -93,17 -123,53 -30,36 -45,84 -45,146 0,60 15,108 45,144 30,36 71,54 123,54" id="path125" style="fill:currentColor;fill-opacity:1"/>
        </g>
        <path transform="matrix(0.50987,0,0,-0.50987,72.284,513.16506)" d="m 267.02235,51.10625 v -3.5" id="path513" style="fill:currentColor;fill-opacity:1"/>
        <path transform="matrix(0.50987,0,0,-0.50987,72.284,513.16506)" stroke-width="0.8" stroke-linecap="butt" stroke-linejoin="round" fill="none" stroke="currentColor" d="m 267.02235,51.10625 v -3.5" id="path514" style="fill:currentColor;fill-opacity:1"/>
        <g id="use514" transform="matrix(8.15792,0,0,-8.15792,199.36057,496.8747)" style="fill:currentColor;fill-opacity:1" color="rgb(209, 209, 209)">
          <path transform="matrix(0.001,0,0,0.001,0,0)" d="m 330,404 c -44,0 -79,-16 -105,-46 -26,-30 -39,-72 -39,-124 0,-53 13,-95 39,-125 26,-30 61,-45 105,-45 44,0 79,15 105,45 26,30 39,72 39,125 0,52 -13,94 -39,124 -26,30 -61,46 -105,46 m 196,309 v -90 c -25,12 -50,21 -75,27 -26,6 -51,9 -75,9 -66,0 -116,-22 -150,-66 -34,-44 -54,-111 -58,-199 19,28 43,50 72,65 29,15 61,23 96,23 73,0 131,-23 173,-67 42,-44 64,-105 64,-181 C 573,159 550,99 506,54 462,9 403,-13 330,-13 246,-13 181,19 137,83 92,147 70,241 70,364 c 0,115 27,207 82,275 54,68 128,103 220,103 24,0 49,-3 75,-7 25,-5 51,-12 79,-22" id="path114" style="fill:currentColor;fill-opacity:1"/>
        </g>
        <g id="use515" transform="matrix(8.15792,0,0,-8.15792,204.549,496.8747)" style="fill:currentColor;fill-opacity:1" color="rgb(209, 209, 209)">
          <path transform="matrix(0.001,0,0,0.001,0,0)" d="m 318,664 c -51,0 -89,-25 -115,-75 -26,-50 -38,-125 -38,-225 0,-100 12,-175 38,-225 26,-50 64,-75 115,-75 51,0 89,25 115,75 25,50 38,125 38,225 0,100 -13,175 -38,225 -26,50 -64,75 -115,75 m 0,78 c 81,0 143,-33 187,-97 43,-65 65,-159 65,-281 C 570,241 548,147 505,83 461,19 399,-13 318,-13 236,-13 173,19 130,83 87,147 66,241 66,364 c 0,122 21,216 64,281 43,64 106,97 188,97" id="path133" style="fill:currentColor;fill-opacity:1"/>
        </g>
        <g id="use516" transform="matrix(8.15792,0,0,-8.15792,209.73743,496.8747)" style="fill:currentColor;fill-opacity:1" color="rgb(209, 209, 209)">
          <path transform="matrix(0.001,0,0,0.001,0,0)" d="m 727,321 c -28,0 -51,-12 -67,-36 -16,-24 -24,-58 -24,-101 0,-42 8,-76 24,-100 16,-24 39,-36 67,-36 28,0 50,12 66,36 16,24 24,58 24,100 0,42 -8,76 -24,100 -16,24 -38,37 -66,37 m 0,62 c 51,0 92,-18 122,-54 30,-36 46,-85 46,-145 C 895,123 879,75 849,40 819,4 778,-13 727,-13 c -52,0 -94,17 -124,53 -30,35 -45,83 -45,144 0,61 15,109 45,145 30,36 72,54 124,54 M 223,680 c -28,0 -50,-13 -66,-37 -16,-24 -24,-57 -24,-99 0,-44 8,-77 24,-101 16,-24 38,-36 66,-36 28,0 51,12 67,36 16,24 24,57 24,101 0,42 -9,75 -25,99 -16,24 -38,37 -66,37 m 441,62 h 78 L 286,-13 h -78 l 456,755 m -441,0 c 51,0 92,-18 123,-54 30,-36 46,-84 46,-144 0,-62 -16,-110 -46,-146 -30,-36 -71,-53 -123,-53 -52,0 -93,17 -123,53 -30,36 -45,84 -45,146 0,60 15,108 45,144 30,36 71,54 123,54" id="path126" style="fill:currentColor;fill-opacity:1"/>
        </g>
        <path transform="matrix(0.50987,0,0,-0.50987,72.284,513.16506)" d="m 331.95326,51.10625 v -3.5" id="path516" style="fill:currentColor;fill-opacity:1"/>
        <path transform="matrix(0.50987,0,0,-0.50987,72.284,513.16506)" stroke-width="0.8" stroke-linecap="butt" stroke-linejoin="round" fill="none" stroke="currentColor" d="m 331.95326,51.10625 v -3.5" id="path517" style="fill:currentColor;fill-opacity:1"/>
        <g id="use517" transform="matrix(8.15792,0,0,-8.15792,232.46689,496.8747)" style="fill:currentColor;fill-opacity:1" color="rgb(209, 209, 209)">
          <path transform="matrix(0.001,0,0,0.001,0,0)" d="m 318,346 c -47,0 -84,-13 -111,-38 -27,-25 -40,-59 -40,-103 0,-44 13,-79 40,-104 27,-25 64,-37 111,-37 46,0 83,12 110,38 27,25 41,59 41,103 0,44 -14,78 -40,103 -27,25 -64,38 -111,38 m -99,42 c -42,10 -75,30 -99,59 -24,29 -35,64 -35,106 0,58 20,104 62,138 41,34 98,51 171,51 72,0 129,-17 171,-51 41,-34 62,-80 62,-138 0,-42 -12,-77 -36,-106 -24,-29 -56,-49 -98,-59 47,-11 84,-33 111,-65 26,-32 40,-72 40,-118 C 568,134 546,80 503,43 459,5 398,-13 318,-13 237,-13 175,5 132,43 89,80 68,134 68,205 c 0,46 13,86 40,118 26,32 63,54 111,65 m -36,156 c 0,-38 11,-68 35,-89 24,-21 57,-31 100,-31 42,0 75,10 99,31 24,21 36,51 36,89 0,38 -12,67 -36,88 -24,21 -57,32 -99,32 -43,0 -76,-11 -100,-32 -24,-21 -35,-50 -35,-88" id="path112" style="fill:currentColor;fill-opacity:1"/>
        </g>
        <g id="use518" transform="matrix(8.15792,0,0,-8.15792,237.65532,496.8747)" style="fill:currentColor;fill-opacity:1" color="rgb(209, 209, 209)">
          <path transform="matrix(0.001,0,0,0.001,0,0)" d="m 318,664 c -51,0 -89,-25 -115,-75 -26,-50 -38,-125 -38,-225 0,-100 12,-175 38,-225 26,-50 64,-75 115,-75 51,0 89,25 115,75 25,50 38,125 38,225 0,100 -13,175 -38,225 -26,50 -64,75 -115,75 m 0,78 c 81,0 143,-33 187,-97 43,-65 65,-159 65,-281 C 570,241 548,147 505,83 461,19 399,-13 318,-13 236,-13 173,19 130,83 87,147 66,241 66,364 c 0,122 21,216 64,281 43,64 106,97 188,97" id="path134" style="fill:currentColor;fill-opacity:1"/>
        </g>
        <g id="use519" transform="matrix(8.15792,0,0,-8.15792,242.84375,496.8747)" style="fill:currentColor;fill-opacity:1" color="rgb(209, 209, 209)">
          <path transform="matrix(0.001,0,0,0.001,0,0)" d="m 727,321 c -28,0 -51,-12 -67,-36 -16,-24 -24,-58 -24,-101 0,-42 8,-76 24,-100 16,-24 39,-36 67,-36 28,0 50,12 66,36 16,24 24,58 24,100 0,42 -8,76 -24,100 -16,24 -38,37 -66,37 m 0,62 c 51,0 92,-18 122,-54 30,-36 46,-85 46,-145 C 895,123 879,75 849,40 819,4 778,-13 727,-13 c -52,0 -94,17 -124,53 -30,35 -45,83 -45,144 0,61 15,109 45,145 30,36 72,54 124,54 M 223,680 c -28,0 -50,-13 -66,-37 -16,-24 -24,-57 -24,-99 0,-44 8,-77 24,-101 16,-24 38,-36 66,-36 28,0 51,12 67,36 16,24 24,57 24,101 0,42 -9,75 -25,99 -16,24 -38,37 -66,37 m 441,62 h 78 L 286,-13 h -78 l 456,755 m -441,0 c 51,0 92,-18 123,-54 30,-36 46,-84 46,-144 0,-62 -16,-110 -46,-146 -30,-36 -71,-53 -123,-53 -52,0 -93,17 -123,53 -30,36 -45,84 -45,146 0,60 15,108 45,144 30,36 71,54 123,54" id="path127" style="fill:currentColor;fill-opacity:1"/>
        </g>
        <path transform="matrix(0.50987,0,0,-0.50987,72.284,513.16506)" d="m 396.88417,51.10625 v -3.5" id="path519" style="fill:currentColor;fill-opacity:1"/>
        <path transform="matrix(0.50987,0,0,-0.50987,72.284,513.16506)" stroke-width="0.8" stroke-linecap="butt" stroke-linejoin="round" fill="none" stroke="currentColor" d="m 396.88417,51.10625 v -3.5" id="path520" style="fill:currentColor;fill-opacity:1"/>
        <g id="use520" transform="matrix(8.15792,0,0,-8.15792,262.97608,496.8747)" style="fill:currentColor;fill-opacity:1" color="rgb(209, 209, 209)">
          <path transform="matrix(0.001,0,0,0.001,0,0)" d="M 124,83 H 285 V 639 L 110,604 v 90 l 174,35 h 99 V 83 H 544 V 0 H 124 v 83" id="path110" style="fill:currentColor;fill-opacity:1"/>
        </g>
        <g id="use521" transform="matrix(8.15792,0,0,-8.15792,268.1645,496.8747)" style="fill:currentColor;fill-opacity:1" color="rgb(209, 209, 209)">
          <path transform="matrix(0.001,0,0,0.001,0,0)" d="m 318,664 c -51,0 -89,-25 -115,-75 -26,-50 -38,-125 -38,-225 0,-100 12,-175 38,-225 26,-50 64,-75 115,-75 51,0 89,25 115,75 25,50 38,125 38,225 0,100 -13,175 -38,225 -26,50 -64,75 -115,75 m 0,78 c 81,0 143,-33 187,-97 43,-65 65,-159 65,-281 C 570,241 548,147 505,83 461,19 399,-13 318,-13 236,-13 173,19 130,83 87,147 66,241 66,364 c 0,122 21,216 64,281 43,64 106,97 188,97" id="path135" style="fill:currentColor;fill-opacity:1"/>
        </g>
        <g id="use522" transform="matrix(8.15792,0,0,-8.15792,273.3529,496.8747)" style="fill:currentColor;fill-opacity:1" color="rgb(209, 209, 209)">
          <path transform="matrix(0.001,0,0,0.001,0,0)" d="m 318,664 c -51,0 -89,-25 -115,-75 -26,-50 -38,-125 -38,-225 0,-100 12,-175 38,-225 26,-50 64,-75 115,-75 51,0 89,25 115,75 25,50 38,125 38,225 0,100 -13,175 -38,225 -26,50 -64,75 -115,75 m 0,78 c 81,0 143,-33 187,-97 43,-65 65,-159 65,-281 C 570,241 548,147 505,83 461,19 399,-13 318,-13 236,-13 173,19 130,83 87,147 66,241 66,364 c 0,122 21,216 64,281 43,64 106,97 188,97" id="path136" style="fill:currentColor;fill-opacity:1"/>
        </g>
        <g id="use523" transform="matrix(8.15792,0,0,-8.15792,278.54139,496.8747)" style="fill:currentColor;fill-opacity:1" color="rgb(209, 209, 209)">
          <path transform="matrix(0.001,0,0,0.001,0,0)" d="m 727,321 c -28,0 -51,-12 -67,-36 -16,-24 -24,-58 -24,-101 0,-42 8,-76 24,-100 16,-24 39,-36 67,-36 28,0 50,12 66,36 16,24 24,58 24,100 0,42 -8,76 -24,100 -16,24 -38,37 -66,37 m 0,62 c 51,0 92,-18 122,-54 30,-36 46,-85 46,-145 C 895,123 879,75 849,40 819,4 778,-13 727,-13 c -52,0 -94,17 -124,53 -30,35 -45,83 -45,144 0,61 15,109 45,145 30,36 72,54 124,54 M 223,680 c -28,0 -50,-13 -66,-37 -16,-24 -24,-57 -24,-99 0,-44 8,-77 24,-101 16,-24 38,-36 66,-36 28,0 51,12 67,36 16,24 24,57 24,101 0,42 -9,75 -25,99 -16,24 -38,37 -66,37 m 441,62 h 78 L 286,-13 h -78 l 456,755 m -441,0 c 51,0 92,-18 123,-54 30,-36 46,-84 46,-144 0,-62 -16,-110 -46,-146 -30,-36 -71,-53 -123,-53 -52,0 -93,17 -123,53 -30,36 -45,84 -45,146 0,60 15,108 45,144 30,36 71,54 123,54" id="path128" style="fill:currentColor;fill-opacity:1"/>
        </g>
        <g id="use524" transform="matrix(9.17766,0,0,-9.17766,146.11667,507.58198)" style="fill:currentColor;fill-opacity:1" color="rgb(209, 209, 209)">
          <path transform="matrix(0.001,0,0,0.001,0,0)" d="M 98,729 H 559 V 646 H 197 V 430 H 544 V 347 H 197 V 83 H 568 V 0 H 98 v 729" id="path106" style="fill:currentColor;fill-opacity:1"/>
        </g>
        <g id="use525" transform="matrix(9.17766,0,0,-9.17766,151.91696,507.58198)" style="fill:currentColor;fill-opacity:1" color="rgb(209, 209, 209)">
          <path transform="matrix(0.001,0,0,0.001,0,0)" d="M 549,330 V 0 h -90 v 327 c 0,52 -11,90 -31,116 -20,26 -50,39 -90,39 -49,0 -87,-16 -115,-47 -28,-31 -42,-73 -42,-126 V 0 H 91 v 547 h 90 v -85 c 21,32 46,57 76,73 29,16 63,25 101,25 62,0 110,-20 142,-59 32,-39 49,-96 49,-171" id="path104" style="fill:currentColor;fill-opacity:1"/>
        </g>
        <g id="use526" transform="matrix(9.17766,0,0,-9.17766,157.7356,507.58198)" style="fill:currentColor;fill-opacity:1" color="rgb(209, 209, 209)">
          <path transform="matrix(0.001,0,0,0.001,0,0)" d="M 183,702 V 547 H 368 V 477 H 183 V 180 c 0,-45 6,-74 18,-86 12,-13 37,-19 75,-19 h 92 V 0 H 276 C 206,0 158,13 132,39 106,65 93,112 93,180 V 477 H 27 v 70 h 66 v 155 h 90" id="path101" style="fill:currentColor;fill-opacity:1"/>
        </g>
        <g id="use527" transform="matrix(9.17766,0,0,-9.17766,161.33324,507.58198)" style="fill:currentColor;fill-opacity:1" color="rgb(209, 209, 209)">
          <path transform="matrix(0.001,0,0,0.001,0,0)" d="m 94,547 h 90 V 0 H 94 v 547 m 0,213 h 90 V 646 H 94 v 114" id="path97" style="fill:currentColor;fill-opacity:1"/>
        </g>
        <g id="use528" transform="matrix(9.17766,0,0,-9.17766,163.88463,507.58198)" style="fill:currentColor;fill-opacity:1" color="rgb(209, 209, 209)">
          <path transform="matrix(0.001,0,0,0.001,0,0)" d="M 183,702 V 547 H 368 V 477 H 183 V 180 c 0,-45 6,-74 18,-86 12,-13 37,-19 75,-19 h 92 V 0 H 276 C 206,0 158,13 132,39 106,65 93,112 93,180 V 477 H 27 v 70 h 66 v 155 h 90" id="path102" style="fill:currentColor;fill-opacity:1"/>
        </g>
        <g id="use529" transform="matrix(9.17766,0,0,-9.17766,167.48227,507.58198)" style="fill:currentColor;fill-opacity:1" color="rgb(209, 209, 209)">
          <path transform="matrix(0.001,0,0,0.001,0,0)" d="m 322,-50 c -26,-64 -51,-107 -75,-127 -24,-20 -56,-30 -96,-30 H 79 v 75 h 53 c 24,0 43,6 57,18 14,12 29,39 46,83 L 251,9 30,547 h 95 L 296,119 467,547 h 95 L 322,-50" id="path96" style="fill:currentColor;fill-opacity:1"/>
        </g>
        <g id="use530" transform="matrix(9.17766,0,0,-9.17766,172.91545,507.58198)" color="rgb(209, 209, 209)"/>
        <g id="use531" transform="matrix(9.17766,0,0,-9.17766,175.83396,507.58198)" style="fill:currentColor;fill-opacity:1" color="rgb(209, 209, 209)">
          <path transform="matrix(0.001,0,0,0.001,0,0)" d="M 98,729 H 245 L 431,233 618,729 H 765 V 0 H 669 V 640 L 481,140 H 382 L 194,640 V 0 H 98 v 729" id="path95" style="fill:currentColor;fill-opacity:1"/>
        </g>
        <g id="use532" transform="matrix(9.17766,0,0,-9.17766,183.75428,507.58198)" style="fill:currentColor;fill-opacity:1" color="rgb(209, 209, 209)">
          <path transform="matrix(0.001,0,0,0.001,0,0)" d="m 343,275 c -73,0 -123,-9 -151,-25 -28,-17 -42,-45 -42,-85 0,-32 10,-58 31,-76 21,-19 50,-28 86,-28 50,0 90,17 120,53 30,35 45,82 45,141 v 20 h -89 m 179,37 V 0 H 432 V 83 C 411,49 385,25 355,10 325,-5 287,-13 243,-13 187,-13 142,2 109,33 76,64 60,106 60,159 c 0,61 20,107 62,139 41,31 102,47 184,47 h 126 v 9 c 0,41 -14,73 -41,96 -27,22 -65,34 -114,34 -32,0 -62,-4 -92,-12 -30,-8 -58,-19 -85,-33 v 83 c 32,12 64,22 95,28 31,6 61,10 91,10 79,0 138,-21 177,-62 39,-41 59,-103 59,-186" id="path92" style="fill:currentColor;fill-opacity:1"/>
        </g>
        <g id="use533" transform="matrix(9.17766,0,0,-9.17766,189.38016,507.58198)" style="fill:currentColor;fill-opacity:1" color="rgb(209, 209, 209)">
          <path transform="matrix(0.001,0,0,0.001,0,0)" d="m 443,531 v -85 c -26,12 -52,22 -79,29 -28,6 -56,10 -85,10 -45,0 -79,-7 -101,-21 -22,-14 -33,-34 -33,-61 0,-21 8,-37 24,-49 16,-12 48,-24 96,-34 l 31,-7 c 64,-14 109,-34 136,-58 26,-25 40,-60 40,-104 0,-51 -20,-91 -60,-120 -40,-30 -96,-44 -166,-44 -30,0 -60,3 -92,8 C 122,0 89,8 54,20 v 93 c 33,-18 66,-31 98,-39 32,-9 64,-13 96,-13 42,0 75,7 98,21 22,14 34,35 34,62 0,24 -9,43 -25,56 -16,13 -52,26 -108,38 l -31,7 c -56,12 -97,30 -121,54 -25,24 -37,57 -37,100 0,51 18,91 54,119 36,28 88,42 156,42 33,0 64,-3 94,-8 29,-5 56,-12 81,-21" id="path91" style="fill:currentColor;fill-opacity:1"/>
        </g>
        <g id="use534" transform="matrix(9.17766,0,0,-9.17766,194.16173,507.58198)" style="fill:currentColor;fill-opacity:1" color="rgb(209, 209, 209)">
          <path transform="matrix(0.001,0,0,0.001,0,0)" d="m 91,760 h 90 V 311 L 449,547 H 564 L 274,291 576,0 H 459 L 181,267 V 0 H 91 v 760" id="path89" style="fill:currentColor;fill-opacity:1"/>
        </g>
        <g id="use535" transform="matrix(9.17766,0,0,-9.17766,199.47559,507.58198)" style="fill:currentColor;fill-opacity:1" color="rgb(209, 209, 209)">
          <path transform="matrix(0.001,0,0,0.001,0,0)" d="m 94,547 h 90 V 0 H 94 v 547 m 0,213 h 90 V 646 H 94 v 114" id="path98" style="fill:currentColor;fill-opacity:1"/>
        </g>
        <g id="use536" transform="matrix(9.17766,0,0,-9.17766,202.02698,507.58198)" style="fill:currentColor;fill-opacity:1" color="rgb(209, 209, 209)">
          <path transform="matrix(0.001,0,0,0.001,0,0)" d="M 549,330 V 0 h -90 v 327 c 0,52 -11,90 -31,116 -20,26 -50,39 -90,39 -49,0 -87,-16 -115,-47 -28,-31 -42,-73 -42,-126 V 0 H 91 v 547 h 90 v -85 c 21,32 46,57 76,73 29,16 63,25 101,25 62,0 110,-20 142,-59 32,-39 49,-96 49,-171" id="path105" style="fill:currentColor;fill-opacity:1"/>
        </g>
        <g id="use537" transform="matrix(9.17766,0,0,-9.17766,207.84561,507.58198)" style="fill:currentColor;fill-opacity:1" color="rgb(209, 209, 209)">
          <path transform="matrix(0.001,0,0,0.001,0,0)" d="m 454,280 c 0,64 -14,115 -40,151 -27,36 -65,54 -113,54 -48,0 -86,-18 -113,-54 -27,-36 -40,-87 -40,-151 0,-65 13,-115 40,-151 27,-36 65,-54 113,-54 48,0 86,18 113,54 26,36 40,86 40,151 M 544,68 c 0,-92 -21,-161 -62,-207 -42,-45 -105,-68 -190,-68 -32,0 -61,3 -89,7 -28,5 -56,12 -82,22 v 87 c 26,-14 52,-24 78,-31 26,-7 52,-11 79,-11 58,0 102,16 132,46 29,31 44,77 44,139 V 96 C 435,64 411,40 382,24 353,8 319,0 279,0 211,0 157,25 116,76 75,127 55,195 55,280 c 0,84 20,152 61,203 41,51 95,77 163,77 40,0 74,-8 103,-24 29,-16 53,-40 72,-72 v 83 h 90 V 68" id="path88" style="fill:currentColor;fill-opacity:1"/>
        </g>
        <g id="use538" transform="matrix(9.17766,0,0,-9.17766,213.67343,507.58198)" color="rgb(209, 209, 209)"/>
        <g id="use539" transform="matrix(9.17766,0,0,-9.17766,216.59192,507.58198)" style="fill:currentColor;fill-opacity:1" color="rgb(209, 209, 209)">
          <path transform="matrix(0.001,0,0,0.001,0,0)" d="m 444,342 c 21,-8 42,-23 62,-46 20,-24 40,-56 60,-97 L 666,0 H 560 l -93,187 c -24,48 -48,81 -70,97 -23,16 -54,24 -93,24 H 197 V 0 H 98 v 729 h 223 c 83,0 145,-18 186,-52 41,-35 62,-88 62,-158 0,-46 -11,-85 -32,-115 -22,-30 -53,-51 -93,-62 M 197,648 V 389 h 124 c 47,0 83,11 107,33 24,22 37,54 37,97 0,42 -13,74 -37,96 -24,22 -60,33 -107,33 H 197" id="path84" style="fill:currentColor;fill-opacity:1"/>
        </g>
        <g id="use540" transform="matrix(9.17766,0,0,-9.17766,222.9704,507.58198)" style="fill:currentColor;fill-opacity:1" color="rgb(209, 209, 209)">
          <path transform="matrix(0.001,0,0,0.001,0,0)" d="m 343,275 c -73,0 -123,-9 -151,-25 -28,-17 -42,-45 -42,-85 0,-32 10,-58 31,-76 21,-19 50,-28 86,-28 50,0 90,17 120,53 30,35 45,82 45,141 v 20 h -89 m 179,37 V 0 H 432 V 83 C 411,49 385,25 355,10 325,-5 287,-13 243,-13 187,-13 142,2 109,33 76,64 60,106 60,159 c 0,61 20,107 62,139 41,31 102,47 184,47 h 126 v 9 c 0,41 -14,73 -41,96 -27,22 -65,34 -114,34 -32,0 -62,-4 -92,-12 -30,-8 -58,-19 -85,-33 v 83 c 32,12 64,22 95,28 31,6 61,10 91,10 79,0 138,-21 177,-62 39,-41 59,-103 59,-186" id="path93" style="fill:currentColor;fill-opacity:1"/>
        </g>
        <g id="use541" transform="matrix(9.17766,0,0,-9.17766,228.59632,507.58198)" style="fill:currentColor;fill-opacity:1" color="rgb(209, 209, 209)">
          <path transform="matrix(0.001,0,0,0.001,0,0)" d="M 183,702 V 547 H 368 V 477 H 183 V 180 c 0,-45 6,-74 18,-86 12,-13 37,-19 75,-19 h 92 V 0 H 276 C 206,0 158,13 132,39 106,65 93,112 93,180 V 477 H 27 v 70 h 66 v 155 h 90" id="path103" style="fill:currentColor;fill-opacity:1"/>
        </g>
        <g id="use542" transform="matrix(9.17766,0,0,-9.17766,232.19396,507.58198)" style="fill:currentColor;fill-opacity:1" color="rgb(209, 209, 209)">
          <path transform="matrix(0.001,0,0,0.001,0,0)" d="M 562,296 V 252 H 149 c 4,-62 22,-110 56,-142 33,-32 79,-48 139,-48 34,0 68,4 100,12 32,8 65,21 97,39 V 28 C 509,14 476,3 442,-3 408,-9 373,-13 339,-13 251,-13 182,12 131,62 80,112 55,181 55,268 c 0,89 24,160 72,213 48,52 114,79 196,79 74,0 132,-24 175,-71 42,-48 64,-112 64,-193 m -90,26 c -1,49 -15,88 -41,118 -27,29 -63,44 -107,44 -50,0 -90,-15 -120,-43 -30,-28 -48,-68 -52,-119 h 320" id="path83" style="fill:currentColor;fill-opacity:1"/>
        </g>
        <path transform="matrix(0.50987,0,0,-0.50987,72.284,513.16506)" d="m 55.996877,71.56681 h -3.5" id="path542" style="fill:currentColor;fill-opacity:1"/>
        <path transform="matrix(0.50987,0,0,-0.50987,72.284,513.16506)" stroke-width="0.8" stroke-linecap="butt" stroke-linejoin="round" fill="none" stroke="currentColor" d="m 55.996877,71.56681 h -3.5" id="path543" style="fill:currentColor;fill-opacity:1"/>
        <g id="use543" transform="matrix(8.15792,0,0,-8.15792,86.87743,479.77433)" style="fill:currentColor;fill-opacity:1" color="rgb(209, 209, 209)">
          <path transform="matrix(0.001,0,0,0.001,0,0)" d="m 330,404 c -44,0 -79,-16 -105,-46 -26,-30 -39,-72 -39,-124 0,-53 13,-95 39,-125 26,-30 61,-45 105,-45 44,0 79,15 105,45 26,30 39,72 39,125 0,52 -13,94 -39,124 -26,30 -61,46 -105,46 m 196,309 v -90 c -25,12 -50,21 -75,27 -26,6 -51,9 -75,9 -66,0 -116,-22 -150,-66 -34,-44 -54,-111 -58,-199 19,28 43,50 72,65 29,15 61,23 96,23 73,0 131,-23 173,-67 42,-44 64,-105 64,-181 C 573,159 550,99 506,54 462,9 403,-13 330,-13 246,-13 181,19 137,83 92,147 70,241 70,364 c 0,115 27,207 82,275 54,68 128,103 220,103 24,0 49,-3 75,-7 25,-5 51,-12 79,-22" id="path115" style="fill:currentColor;fill-opacity:1"/>
        </g>
        <g id="use544" transform="matrix(8.15792,0,0,-8.15792,92.06587,479.77433)" style="fill:currentColor;fill-opacity:1" color="rgb(209, 209, 209)">
          <path transform="matrix(0.001,0,0,0.001,0,0)" d="M 378,643 129,254 h 249 v 389 m -26,86 H 476 V 254 H 580 V 172 H 476 V 0 H 378 V 172 H 49 v 95 l 303,462" id="path120" style="fill:currentColor;fill-opacity:1"/>
        </g>
        <path transform="matrix(0.50987,0,0,-0.50987,72.284,513.16506)" d="m 55.996877,130.06023 h -3.5" id="path544" style="fill:currentColor;fill-opacity:1"/>
        <path transform="matrix(0.50987,0,0,-0.50987,72.284,513.16506)" stroke-width="0.8" stroke-linecap="butt" stroke-linejoin="round" fill="none" stroke="currentColor" d="m 55.996877,130.06023 h -3.5" id="path545" style="fill:currentColor;fill-opacity:1"/>
        <g id="use545" transform="matrix(8.15792,0,0,-8.15792,86.87743,449.9503)" style="fill:currentColor;fill-opacity:1" color="rgb(209, 209, 209)">
          <path transform="matrix(0.001,0,0,0.001,0,0)" d="m 330,404 c -44,0 -79,-16 -105,-46 -26,-30 -39,-72 -39,-124 0,-53 13,-95 39,-125 26,-30 61,-45 105,-45 44,0 79,15 105,45 26,30 39,72 39,125 0,52 -13,94 -39,124 -26,30 -61,46 -105,46 m 196,309 v -90 c -25,12 -50,21 -75,27 -26,6 -51,9 -75,9 -66,0 -116,-22 -150,-66 -34,-44 -54,-111 -58,-199 19,28 43,50 72,65 29,15 61,23 96,23 73,0 131,-23 173,-67 42,-44 64,-105 64,-181 C 573,159 550,99 506,54 462,9 403,-13 330,-13 246,-13 181,19 137,83 92,147 70,241 70,364 c 0,115 27,207 82,275 54,68 128,103 220,103 24,0 49,-3 75,-7 25,-5 51,-12 79,-22" id="path116" style="fill:currentColor;fill-opacity:1"/>
        </g>
        <g id="use546" transform="matrix(8.15792,0,0,-8.15792,92.06587,449.9503)" style="fill:currentColor;fill-opacity:1" color="rgb(209, 209, 209)">
          <path transform="matrix(0.001,0,0,0.001,0,0)" d="m 330,404 c -44,0 -79,-16 -105,-46 -26,-30 -39,-72 -39,-124 0,-53 13,-95 39,-125 26,-30 61,-45 105,-45 44,0 79,15 105,45 26,30 39,72 39,125 0,52 -13,94 -39,124 -26,30 -61,46 -105,46 m 196,309 v -90 c -25,12 -50,21 -75,27 -26,6 -51,9 -75,9 -66,0 -116,-22 -150,-66 -34,-44 -54,-111 -58,-199 19,28 43,50 72,65 29,15 61,23 96,23 73,0 131,-23 173,-67 42,-44 64,-105 64,-181 C 573,159 550,99 506,54 462,9 403,-13 330,-13 246,-13 181,19 137,83 92,147 70,241 70,364 c 0,115 27,207 82,275 54,68 128,103 220,103 24,0 49,-3 75,-7 25,-5 51,-12 79,-22" id="path117" style="fill:currentColor;fill-opacity:1"/>
        </g>
        <path transform="matrix(0.50987,0,0,-0.50987,72.284,513.16506)" d="m 55.996877,188.55365 h -3.5" id="path546" style="fill:currentColor;fill-opacity:1"/>
        <path transform="matrix(0.50987,0,0,-0.50987,72.284,513.16506)" stroke-width="0.8" stroke-linecap="butt" stroke-linejoin="round" fill="none" stroke="currentColor" d="m 55.996877,188.55365 h -3.5" id="path547" style="fill:currentColor;fill-opacity:1"/>
        <g id="use547" transform="matrix(8.15792,0,0,-8.15792,86.87743,420.12626)" style="fill:currentColor;fill-opacity:1" color="rgb(209, 209, 209)">
          <path transform="matrix(0.001,0,0,0.001,0,0)" d="m 330,404 c -44,0 -79,-16 -105,-46 -26,-30 -39,-72 -39,-124 0,-53 13,-95 39,-125 26,-30 61,-45 105,-45 44,0 79,15 105,45 26,30 39,72 39,125 0,52 -13,94 -39,124 -26,30 -61,46 -105,46 m 196,309 v -90 c -25,12 -50,21 -75,27 -26,6 -51,9 -75,9 -66,0 -116,-22 -150,-66 -34,-44 -54,-111 -58,-199 19,28 43,50 72,65 29,15 61,23 96,23 73,0 131,-23 173,-67 42,-44 64,-105 64,-181 C 573,159 550,99 506,54 462,9 403,-13 330,-13 246,-13 181,19 137,83 92,147 70,241 70,364 c 0,115 27,207 82,275 54,68 128,103 220,103 24,0 49,-3 75,-7 25,-5 51,-12 79,-22" id="path118" style="fill:currentColor;fill-opacity:1"/>
        </g>
        <g id="use548" transform="matrix(8.15792,0,0,-8.15792,92.06587,420.12626)" style="fill:currentColor;fill-opacity:1" color="rgb(209, 209, 209)">
          <path transform="matrix(0.001,0,0,0.001,0,0)" d="m 318,346 c -47,0 -84,-13 -111,-38 -27,-25 -40,-59 -40,-103 0,-44 13,-79 40,-104 27,-25 64,-37 111,-37 46,0 83,12 110,38 27,25 41,59 41,103 0,44 -14,78 -40,103 -27,25 -64,38 -111,38 m -99,42 c -42,10 -75,30 -99,59 -24,29 -35,64 -35,106 0,58 20,104 62,138 41,34 98,51 171,51 72,0 129,-17 171,-51 41,-34 62,-80 62,-138 0,-42 -12,-77 -36,-106 -24,-29 -56,-49 -98,-59 47,-11 84,-33 111,-65 26,-32 40,-72 40,-118 C 568,134 546,80 503,43 459,5 398,-13 318,-13 237,-13 175,5 132,43 89,80 68,134 68,205 c 0,46 13,86 40,118 26,32 63,54 111,65 m -36,156 c 0,-38 11,-68 35,-89 24,-21 57,-31 100,-31 42,0 75,10 99,31 24,21 36,51 36,89 0,38 -12,67 -36,88 -24,21 -57,32 -99,32 -43,0 -76,-11 -100,-32 -24,-21 -35,-50 -35,-88" id="path113" style="fill:currentColor;fill-opacity:1"/>
        </g>
        <path transform="matrix(0.50987,0,0,-0.50987,72.284,513.16506)" d="m 55.996877,247.04706 h -3.5" id="path548" style="fill:currentColor;fill-opacity:1"/>
        <path transform="matrix(0.50987,0,0,-0.50987,72.284,513.16506)" stroke-width="0.8" stroke-linecap="butt" stroke-linejoin="round" fill="none" stroke="currentColor" d="m 55.996877,247.04706 h -3.5" id="path549" style="fill:currentColor;fill-opacity:1"/>
        <g id="use549" transform="matrix(8.15792,0,0,-8.15792,86.87743,390.30223)" style="fill:currentColor;fill-opacity:1" color="rgb(209, 209, 209)">
          <path transform="matrix(0.001,0,0,0.001,0,0)" d="M 82,729 H 551 V 687 L 286,0 H 183 L 432,646 H 82 v 83" id="path81" style="fill:currentColor;fill-opacity:1"/>
        </g>
        <g id="use550" transform="matrix(8.15792,0,0,-8.15792,92.06587,390.30223)" style="fill:currentColor;fill-opacity:1" color="rgb(209, 209, 209)">
          <path transform="matrix(0.001,0,0,0.001,0,0)" d="m 318,664 c -51,0 -89,-25 -115,-75 -26,-50 -38,-125 -38,-225 0,-100 12,-175 38,-225 26,-50 64,-75 115,-75 51,0 89,25 115,75 25,50 38,125 38,225 0,100 -13,175 -38,225 -26,50 -64,75 -115,75 m 0,78 c 81,0 143,-33 187,-97 43,-65 65,-159 65,-281 C 570,241 548,147 505,83 461,19 399,-13 318,-13 236,-13 173,19 130,83 87,147 66,241 66,364 c 0,122 21,216 64,281 43,64 106,97 188,97" id="path137" style="fill:currentColor;fill-opacity:1"/>
        </g>
        <path transform="matrix(0.50987,0,0,-0.50987,72.284,513.16506)" d="m 55.996877,305.54048 h -3.5" id="path550" style="fill:currentColor;fill-opacity:1"/>
        <path transform="matrix(0.50987,0,0,-0.50987,72.284,513.16506)" stroke-width="0.8" stroke-linecap="butt" stroke-linejoin="round" fill="none" stroke="currentColor" d="m 55.996877,305.54048 h -3.5" id="path551" style="fill:currentColor;fill-opacity:1"/>
        <g id="use551" transform="matrix(8.15792,0,0,-8.15792,86.87743,360.47819)" style="fill:currentColor;fill-opacity:1" color="rgb(209, 209, 209)">
          <path transform="matrix(0.001,0,0,0.001,0,0)" d="M 82,729 H 551 V 687 L 286,0 H 183 L 432,646 H 82 v 83" id="path82" style="fill:currentColor;fill-opacity:1"/>
        </g>
        <g id="use552" transform="matrix(8.15792,0,0,-8.15792,92.06587,360.47819)" style="fill:currentColor;fill-opacity:1" color="rgb(209, 209, 209)">
          <path transform="matrix(0.001,0,0,0.001,0,0)" d="M 192,83 H 536 V 0 H 73 v 83 c 37,38 88,90 153,156 64,65 105,107 122,126 32,35 54,65 66,90 12,24 19,49 19,73 0,38 -14,70 -41,94 -27,24 -62,37 -106,37 -31,0 -64,-6 -98,-16 -34,-11 -71,-27 -110,-49 v 100 c 40,16 77,28 111,36 34,8 66,12 95,12 75,0 135,-19 180,-57 45,-38 68,-88 68,-151 0,-30 -6,-59 -17,-85 -11,-27 -31,-59 -61,-95 -8,-10 -34,-37 -78,-82 C 332,227 271,164 192,83" id="path122" style="fill:currentColor;fill-opacity:1"/>
        </g>
        <g id="use553" transform="matrix(0,-9.17766,-9.17766,0,82.92594,435.8888)" style="fill:currentColor;fill-opacity:1" color="rgb(209, 209, 209)">
          <path transform="matrix(0.001,0,0,0.001,0,0)" d="M 98,729 H 517 V 646 H 197 V 431 H 486 V 348 H 197 V 0 H 98 v 729" id="path80" style="fill:currentColor;fill-opacity:1"/>
        </g>
        <g id="use554" transform="matrix(0,-9.17766,-9.17766,0,82.92594,430.61164)" style="fill:currentColor;fill-opacity:1" color="rgb(209, 209, 209)">
          <path transform="matrix(0.001,0,0,0.001,0,0)" d="M 49,314 H 312 V 234 H 49 v 80" id="path78" style="fill:currentColor;fill-opacity:1"/>
        </g>
        <g id="use555" transform="matrix(0,-9.17766,-9.17766,0,82.92594,427.2985)" style="fill:currentColor;fill-opacity:1" color="rgb(209, 209, 209)">
          <path transform="matrix(0.001,0,0,0.001,0,0)" d="M 124,83 H 285 V 639 L 110,604 v 90 l 174,35 h 99 V 83 H 544 V 0 H 124 v 83" id="path111" style="fill:currentColor;fill-opacity:1"/>
        </g>
        <g id="use556" transform="matrix(0,-9.17766,-9.17766,0,82.92594,421.46153)" color="rgb(209, 209, 209)"/>
        <g id="use557" transform="matrix(0,-9.17766,-9.17766,0,82.92594,418.54304)" style="fill:currentColor;fill-opacity:1" color="rgb(209, 209, 209)">
          <path transform="matrix(0.001,0,0,0.001,0,0)" d="M 310,759 C 266,683 234,609 213,536 191,463 181,389 181,314 181,238 191,164 213,91 234,17 266,-56 310,-131 H 232 C 183,-54 146,20 122,94 98,168 86,241 86,314 c 0,72 12,145 36,219 24,74 60,149 110,226 h 78" id="path77" style="fill:currentColor;fill-opacity:1"/>
        </g>
        <g id="use558" transform="matrix(0,-9.17766,-9.17766,0,82.92594,414.9637)" style="fill:currentColor;fill-opacity:1" color="rgb(209, 209, 209)">
          <path transform="matrix(0.001,0,0,0.001,0,0)" d="m 727,321 c -28,0 -51,-12 -67,-36 -16,-24 -24,-58 -24,-101 0,-42 8,-76 24,-100 16,-24 39,-36 67,-36 28,0 50,12 66,36 16,24 24,58 24,100 0,42 -8,76 -24,100 -16,24 -38,37 -66,37 m 0,62 c 51,0 92,-18 122,-54 30,-36 46,-85 46,-145 C 895,123 879,75 849,40 819,4 778,-13 727,-13 c -52,0 -94,17 -124,53 -30,35 -45,83 -45,144 0,61 15,109 45,145 30,36 72,54 124,54 M 223,680 c -28,0 -50,-13 -66,-37 -16,-24 -24,-57 -24,-99 0,-44 8,-77 24,-101 16,-24 38,-36 66,-36 28,0 51,12 67,36 16,24 24,57 24,101 0,42 -9,75 -25,99 -16,24 -38,37 -66,37 m 441,62 h 78 L 286,-13 h -78 l 456,755 m -441,0 c 51,0 92,-18 123,-54 30,-36 46,-84 46,-144 0,-62 -16,-110 -46,-146 -30,-36 -71,-53 -123,-53 -52,0 -93,17 -123,53 -30,36 -45,84 -45,146 0,60 15,108 45,144 30,36 71,54 123,54" id="path129" style="fill:currentColor;fill-opacity:1"/>
        </g>
        <g id="use559" transform="matrix(0,-9.17766,-9.17766,0,82.92594,406.24494)" style="fill:currentColor;fill-opacity:1" color="rgb(209, 209, 209)">
          <path transform="matrix(0.001,0,0,0.001,0,0)" d="m 80,759 h 78 C 206,682 243,607 267,533 291,459 304,386 304,314 304,241 291,168 267,94 243,20 206,-54 158,-131 H 80 c 43,75 75,148 97,222 21,73 32,147 32,223 0,75 -11,149 -32,222 -22,73 -54,147 -97,223" id="path76" style="fill:currentColor;fill-opacity:1"/>
        </g>
        <g clip-path="url(#clip_10)" id="g588" color="rgb(209, 209, 209)">
          <path transform="matrix(0.50987,0,0,-0.50987,72.284,513.16506)" stroke-width="2.5" stroke-linecap="square" stroke-linejoin="round" fill="none" stroke="#1f77b4" d="m 72.2296,305.12226 18.180659,-17.71472 13.570561,-6.52496 15.32369,-3.25223 18.50531,-20.49902 15.42109,-2.62344 16.65479,12.88901 32.20572,-8.18321 32.62779,-27.32811 32.30314,-14.48298 32.7901,3.39847 32.14081,-22.70715 32.46544,-39.95393 32.46547,-83.938052" id="path559"/>
          <g clip-path="url(#clip_11)" id="g561" color="rgb(209, 209, 209)">
            <path transform="matrix(0.50987,0,0,-0.50987,109.1117,357.59236)" d="M 0,4 -0.898056,1.236068 h -2.90617 L -1.453085,-0.472136 -2.351141,-3.236068 0,-1.527864 2.351141,-3.236068 1.453085,-0.472136 3.804226,1.236068 h -2.90617 z" fill="#1f77b4" id="path560"/>
            <path transform="matrix(0.50987,0,0,-0.50987,109.1117,357.59236)" stroke-width="1" stroke-linecap="butt" stroke-linejoin="bevel" fill="none" stroke="#1f77b4" d="M 0,4 -0.898056,1.236068 h -2.90617 L -1.453085,-0.472136 -2.351141,-3.236068 0,-1.527864 2.351141,-3.236068 1.453085,-0.472136 3.804226,1.236068 h -2.90617 z" id="path561"/>
          </g>
          <g clip-path="url(#clip_12)" id="g563" color="rgb(209, 209, 209)">
            <path transform="matrix(0.50987,0,0,-0.50987,118.38147,366.62455)" d="M 0,4 -0.898056,1.236068 h -2.90617 L -1.453085,-0.472136 -2.351141,-3.236068 0,-1.527864 2.351141,-3.236068 1.453085,-0.472136 3.804226,1.236068 h -2.90617 z" fill="#1f77b4" id="path562"/>
            <path transform="matrix(0.50987,0,0,-0.50987,118.38147,366.62455)" stroke-width="1" stroke-linecap="butt" stroke-linejoin="bevel" fill="none" stroke="#1f77b4" d="M 0,4 -0.898056,1.236068 h -2.90617 L -1.453085,-0.472136 -2.351141,-3.236068 0,-1.527864 2.351141,-3.236068 1.453085,-0.472136 3.804226,1.236068 h -2.90617 z" id="path563"/>
          </g>
          <g clip-path="url(#clip_13)" id="g565" color="rgb(209, 209, 209)">
            <path transform="matrix(0.50987,0,0,-0.50987,125.30069,369.95143)" d="M 0,4 -0.898056,1.236068 h -2.90617 L -1.453085,-0.472136 -2.351141,-3.236068 0,-1.527864 2.351141,-3.236068 1.453085,-0.472136 3.804226,1.236068 h -2.90617 z" fill="#1f77b4" id="path564"/>
            <path transform="matrix(0.50987,0,0,-0.50987,125.30069,369.95143)" stroke-width="1" stroke-linecap="butt" stroke-linejoin="bevel" fill="none" stroke="#1f77b4" d="M 0,4 -0.898056,1.236068 h -2.90617 L -1.453085,-0.472136 -2.351141,-3.236068 0,-1.527864 2.351141,-3.236068 1.453085,-0.472136 3.804226,1.236068 h -2.90617 z" id="path565"/>
          </g>
          <g clip-path="url(#clip_14)" id="g567" color="rgb(209, 209, 209)">
            <path transform="matrix(0.50987,0,0,-0.50987,133.11379,371.60963)" d="M 0,4 -0.898056,1.236068 h -2.90617 L -1.453085,-0.472136 -2.351141,-3.236068 0,-1.527864 2.351141,-3.236068 1.453085,-0.472136 3.804226,1.236068 h -2.90617 z" fill="#1f77b4" id="path566"/>
            <path transform="matrix(0.50987,0,0,-0.50987,133.11379,371.60963)" stroke-width="1" stroke-linecap="butt" stroke-linejoin="bevel" fill="none" stroke="#1f77b4" d="M 0,4 -0.898056,1.236068 h -2.90617 L -1.453085,-0.472136 -2.351141,-3.236068 0,-1.527864 2.351141,-3.236068 1.453085,-0.472136 3.804226,1.236068 h -2.90617 z" id="path567"/>
          </g>
          <g clip-path="url(#clip_15)" id="g569" color="rgb(209, 209, 209)">
            <path transform="matrix(0.50987,0,0,-0.50987,142.54909,382.06147)" d="M 0,4 -0.898056,1.236068 h -2.90617 L -1.453085,-0.472136 -2.351141,-3.236068 0,-1.527864 2.351141,-3.236068 1.453085,-0.472136 3.804226,1.236068 h -2.90617 z" fill="#1f77b4" id="path568"/>
            <path transform="matrix(0.50987,0,0,-0.50987,142.54909,382.06147)" stroke-width="1" stroke-linecap="butt" stroke-linejoin="bevel" fill="none" stroke="#1f77b4" d="M 0,4 -0.898056,1.236068 h -2.90617 L -1.453085,-0.472136 -2.351141,-3.236068 0,-1.527864 2.351141,-3.236068 1.453085,-0.472136 3.804226,1.236068 h -2.90617 z" id="path569"/>
          </g>
          <g clip-path="url(#clip_16)" id="g571" color="rgb(209, 209, 209)">
            <path transform="matrix(0.50987,0,0,-0.50987,150.41184,383.39909)" d="M 0,4 -0.898056,1.236068 h -2.90617 L -1.453085,-0.472136 -2.351141,-3.236068 0,-1.527864 2.351141,-3.236068 1.453085,-0.472136 3.804226,1.236068 h -2.90617 z" fill="#1f77b4" id="path570"/>
            <path transform="matrix(0.50987,0,0,-0.50987,150.41184,383.39909)" stroke-width="1" stroke-linecap="butt" stroke-linejoin="bevel" fill="none" stroke="#1f77b4" d="M 0,4 -0.898056,1.236068 h -2.90617 L -1.453085,-0.472136 -2.351141,-3.236068 0,-1.527864 2.351141,-3.236068 1.453085,-0.472136 3.804226,1.236068 h -2.90617 z" id="path571"/>
          </g>
          <g clip-path="url(#clip_17)" id="g573" color="rgb(209, 209, 209)">
            <path transform="matrix(0.50987,0,0,-0.50987,158.90361,376.82737)" d="M 0,4 -0.898056,1.236068 h -2.90617 L -1.453085,-0.472136 -2.351141,-3.236068 0,-1.527864 2.351141,-3.236068 1.453085,-0.472136 3.804226,1.236068 h -2.90617 z" fill="#1f77b4" id="path572"/>
            <path transform="matrix(0.50987,0,0,-0.50987,158.90361,376.82737)" stroke-width="1" stroke-linecap="butt" stroke-linejoin="bevel" fill="none" stroke="#1f77b4" d="M 0,4 -0.898056,1.236068 h -2.90617 L -1.453085,-0.472136 -2.351141,-3.236068 0,-1.527864 2.351141,-3.236068 1.453085,-0.472136 3.804226,1.236068 h -2.90617 z" id="path573"/>
          </g>
          <g clip-path="url(#clip_18)" id="g575" color="rgb(209, 209, 209)">
            <path transform="matrix(0.50987,0,0,-0.50987,175.32434,380.99977)" d="M 0,4 -0.898056,1.236068 h -2.90617 L -1.453085,-0.472136 -2.351141,-3.236068 0,-1.527864 2.351141,-3.236068 1.453085,-0.472136 3.804226,1.236068 h -2.90617 z" fill="#1f77b4" id="path574"/>
            <path transform="matrix(0.50987,0,0,-0.50987,175.32434,380.99977)" stroke-width="1" stroke-linecap="butt" stroke-linejoin="bevel" fill="none" stroke="#1f77b4" d="M 0,4 -0.898056,1.236068 h -2.90617 L -1.453085,-0.472136 -2.351141,-3.236068 0,-1.527864 2.351141,-3.236068 1.453085,-0.472136 3.804226,1.236068 h -2.90617 z" id="path575"/>
          </g>
          <g clip-path="url(#clip_19)" id="g577" color="rgb(209, 209, 209)">
            <path transform="matrix(0.50987,0,0,-0.50987,191.96027,394.93354)" d="M 0,4 -0.898056,1.236068 h -2.90617 L -1.453085,-0.472136 -2.351141,-3.236068 0,-1.527864 2.351141,-3.236068 1.453085,-0.472136 3.804226,1.236068 h -2.90617 z" fill="#1f77b4" id="path576"/>
            <path transform="matrix(0.50987,0,0,-0.50987,191.96027,394.93354)" stroke-width="1" stroke-linecap="butt" stroke-linejoin="bevel" fill="none" stroke="#1f77b4" d="M 0,4 -0.898056,1.236068 h -2.90617 L -1.453085,-0.472136 -2.351141,-3.236068 0,-1.527864 2.351141,-3.236068 1.453085,-0.472136 3.804226,1.236068 h -2.90617 z" id="path577"/>
          </g>
          <g clip-path="url(#clip_20)" id="g579" color="rgb(209, 209, 209)">
            <path transform="matrix(0.50987,0,0,-0.50987,208.43067,402.31797)" d="M 0,4 -0.898056,1.236068 h -2.90617 L -1.453085,-0.472136 -2.351141,-3.236068 0,-1.527864 2.351141,-3.236068 1.453085,-0.472136 3.804226,1.236068 h -2.90617 z" fill="#1f77b4" id="path578"/>
            <path transform="matrix(0.50987,0,0,-0.50987,208.43067,402.31797)" stroke-width="1" stroke-linecap="butt" stroke-linejoin="bevel" fill="none" stroke="#1f77b4" d="M 0,4 -0.898056,1.236068 h -2.90617 L -1.453085,-0.472136 -2.351141,-3.236068 0,-1.527864 2.351141,-3.236068 1.453085,-0.472136 3.804226,1.236068 h -2.90617 z" id="path579"/>
          </g>
          <g clip-path="url(#clip_21)" id="g581" color="rgb(209, 209, 209)">
            <path transform="matrix(0.50987,0,0,-0.50987,225.14936,400.58518)" d="M 0,4 -0.898056,1.236068 h -2.90617 L -1.453085,-0.472136 -2.351141,-3.236068 0,-1.527864 2.351141,-3.236068 1.453085,-0.472136 3.804226,1.236068 h -2.90617 z" fill="#1f77b4" id="path580"/>
            <path transform="matrix(0.50987,0,0,-0.50987,225.14936,400.58518)" stroke-width="1" stroke-linecap="butt" stroke-linejoin="bevel" fill="none" stroke="#1f77b4" d="M 0,4 -0.898056,1.236068 h -2.90617 L -1.453085,-0.472136 -2.351141,-3.236068 0,-1.527864 2.351141,-3.236068 1.453085,-0.472136 3.804226,1.236068 h -2.90617 z" id="path581"/>
          </g>
          <g clip-path="url(#clip_22)" id="g583" color="rgb(209, 209, 209)">
            <path transform="matrix(0.50987,0,0,-0.50987,241.53699,412.16288)" d="M 0,4 -0.898056,1.236068 h -2.90617 L -1.453085,-0.472136 -2.351141,-3.236068 0,-1.527864 2.351141,-3.236068 1.453085,-0.472136 3.804226,1.236068 h -2.90617 z" fill="#1f77b4" id="path582"/>
            <path transform="matrix(0.50987,0,0,-0.50987,241.53699,412.16288)" stroke-width="1" stroke-linecap="butt" stroke-linejoin="bevel" fill="none" stroke="#1f77b4" d="M 0,4 -0.898056,1.236068 h -2.90617 L -1.453085,-0.472136 -2.351141,-3.236068 0,-1.527864 2.351141,-3.236068 1.453085,-0.472136 3.804226,1.236068 h -2.90617 z" id="path583"/>
          </g>
          <g clip-path="url(#clip_23)" id="g585" color="rgb(209, 209, 209)">
            <path transform="matrix(0.50987,0,0,-0.50987,258.09016,432.53419)" d="M 0,4 -0.898056,1.236068 h -2.90617 L -1.453085,-0.472136 -2.351141,-3.236068 0,-1.527864 2.351141,-3.236068 1.453085,-0.472136 3.804226,1.236068 h -2.90617 z" fill="#1f77b4" id="path584"/>
            <path transform="matrix(0.50987,0,0,-0.50987,258.09016,432.53419)" stroke-width="1" stroke-linecap="butt" stroke-linejoin="bevel" fill="none" stroke="#1f77b4" d="M 0,4 -0.898056,1.236068 h -2.90617 L -1.453085,-0.472136 -2.351141,-3.236068 0,-1.527864 2.351141,-3.236068 1.453085,-0.472136 3.804226,1.236068 h -2.90617 z" id="path585"/>
          </g>
          <g clip-path="url(#clip_24)" id="g587" color="rgb(209, 209, 209)">
            <path transform="matrix(0.50987,0,0,-0.50987,274.6433,475.33168)" d="M 0,4 -0.898056,1.236068 h -2.90617 L -1.453085,-0.472136 -2.351141,-3.236068 0,-1.527864 2.351141,-3.236068 1.453085,-0.472136 3.804226,1.236068 h -2.90617 z" fill="#1f77b4" id="path586"/>
            <path transform="matrix(0.50987,0,0,-0.50987,274.6433,475.33168)" stroke-width="1" stroke-linecap="butt" stroke-linejoin="bevel" fill="none" stroke="#1f77b4" d="M 0,4 -0.898056,1.236068 h -2.90617 L -1.453085,-0.472136 -2.351141,-3.236068 0,-1.527864 2.351141,-3.236068 1.453085,-0.472136 3.804226,1.236068 h -2.90617 z" id="path587"/>
          </g>
        </g>
        <g clip-path="url(#clip_25)" id="g617" color="rgb(209, 209, 209)">
          <path transform="matrix(0.50987,0,0,-0.50987,72.284,513.16506)" stroke-width="2.5" stroke-linecap="square" stroke-linejoin="round" fill="none" stroke="#ff7f0e" d="m 72.2296,268.8856 18.180659,9.96436 13.570561,-22.25968 15.32369,11.97067 18.50531,-20.58677 15.42109,-0.35388 16.65479,-12.58194 32.20572,-3.21713 32.62779,-11.8186 32.30314,-1.58225 32.7901,-7.63923 32.14081,-19.99891 32.46544,-37.25152 32.46547,-90.32847" id="path588"/>
          <g clip-path="url(#clip_26)" id="g590" color="rgb(209, 209, 209)">
            <path transform="matrix(0.50987,0,0,-0.50987,109.1117,376.06837)" d="M -4,0 H 4 M 0,-4 v 8" fill="#ff7f0e" id="path589"/>
            <path transform="matrix(0.50987,0,0,-0.50987,109.1117,376.06837)" stroke-width="1" stroke-linecap="butt" stroke-linejoin="round" fill="none" stroke="#ff7f0e" d="M -4,0 H 4 M 0,-4 v 8" id="path590"/>
          </g>
          <g clip-path="url(#clip_27)" id="g592" color="rgb(209, 209, 209)">
            <path transform="matrix(0.50987,0,0,-0.50987,118.38147,370.98783)" d="M -4,0 H 4 M 0,-4 v 8" fill="#ff7f0e" id="path591"/>
            <path transform="matrix(0.50987,0,0,-0.50987,118.38147,370.98783)" stroke-width="1" stroke-linecap="butt" stroke-linejoin="round" fill="none" stroke="#ff7f0e" d="M -4,0 H 4 M 0,-4 v 8" id="path592"/>
          </g>
          <g clip-path="url(#clip_28)" id="g594" color="rgb(209, 209, 209)">
            <path transform="matrix(0.50987,0,0,-0.50987,125.30069,382.33738)" d="M -4,0 H 4 M 0,-4 v 8" fill="#ff7f0e" id="path593"/>
            <path transform="matrix(0.50987,0,0,-0.50987,125.30069,382.33738)" stroke-width="1" stroke-linecap="butt" stroke-linejoin="round" fill="none" stroke="#ff7f0e" d="M -4,0 H 4 M 0,-4 v 8" id="path594"/>
          </g>
          <g clip-path="url(#clip_29)" id="g596" color="rgb(209, 209, 209)">
            <path transform="matrix(0.50987,0,0,-0.50987,133.11379,376.2339)" d="M -4,0 H 4 M 0,-4 v 8" fill="#ff7f0e" id="path595"/>
            <path transform="matrix(0.50987,0,0,-0.50987,133.11379,376.2339)" stroke-width="1" stroke-linecap="butt" stroke-linejoin="round" fill="none" stroke="#ff7f0e" d="M -4,0 H 4 M 0,-4 v 8" id="path596"/>
          </g>
          <g clip-path="url(#clip_30)" id="g598" color="rgb(209, 209, 209)">
            <path transform="matrix(0.50987,0,0,-0.50987,142.54909,386.73048)" d="M -4,0 H 4 M 0,-4 v 8" fill="#ff7f0e" id="path597"/>
            <path transform="matrix(0.50987,0,0,-0.50987,142.54909,386.73048)" stroke-width="1" stroke-linecap="butt" stroke-linejoin="round" fill="none" stroke="#ff7f0e" d="M -4,0 H 4 M 0,-4 v 8" id="path598"/>
          </g>
          <g clip-path="url(#clip_31)" id="g600" color="rgb(209, 209, 209)">
            <path transform="matrix(0.50987,0,0,-0.50987,150.41184,386.91093)" d="M -4,0 H 4 M 0,-4 v 8" fill="#ff7f0e" id="path599"/>
            <path transform="matrix(0.50987,0,0,-0.50987,150.41184,386.91093)" stroke-width="1" stroke-linecap="butt" stroke-linejoin="round" fill="none" stroke="#ff7f0e" d="M -4,0 H 4 M 0,-4 v 8" id="path600"/>
          </g>
          <g clip-path="url(#clip_32)" id="g602" color="rgb(209, 209, 209)">
            <path transform="matrix(0.50987,0,0,-0.50987,158.90361,393.32609)" d="M -4,0 H 4 M 0,-4 v 8" fill="#ff7f0e" id="path601"/>
            <path transform="matrix(0.50987,0,0,-0.50987,158.90361,393.32609)" stroke-width="1" stroke-linecap="butt" stroke-linejoin="round" fill="none" stroke="#ff7f0e" d="M -4,0 H 4 M 0,-4 v 8" id="path602"/>
          </g>
          <g clip-path="url(#clip_33)" id="g604" color="rgb(209, 209, 209)">
            <path transform="matrix(0.50987,0,0,-0.50987,175.32434,394.9664)" d="M -4,0 H 4 M 0,-4 v 8" fill="#ff7f0e" id="path603"/>
            <path transform="matrix(0.50987,0,0,-0.50987,175.32434,394.9664)" stroke-width="1" stroke-linecap="butt" stroke-linejoin="round" fill="none" stroke="#ff7f0e" d="M -4,0 H 4 M 0,-4 v 8" id="path604"/>
          </g>
          <g clip-path="url(#clip_34)" id="g606" color="rgb(209, 209, 209)">
            <path transform="matrix(0.50987,0,0,-0.50987,191.96027,400.99235)" d="M -4,0 H 4 M 0,-4 v 8" fill="#ff7f0e" id="path605"/>
            <path transform="matrix(0.50987,0,0,-0.50987,191.96027,400.99235)" stroke-width="1" stroke-linecap="butt" stroke-linejoin="round" fill="none" stroke="#ff7f0e" d="M -4,0 H 4 M 0,-4 v 8" id="path606"/>
          </g>
          <g clip-path="url(#clip_35)" id="g608" color="rgb(209, 209, 209)">
            <path transform="matrix(0.50987,0,0,-0.50987,208.43067,401.79908)" d="M -4,0 H 4 M 0,-4 v 8" fill="#ff7f0e" id="path607"/>
            <path transform="matrix(0.50987,0,0,-0.50987,208.43067,401.79908)" stroke-width="1" stroke-linecap="butt" stroke-linejoin="round" fill="none" stroke="#ff7f0e" d="M -4,0 H 4 M 0,-4 v 8" id="path608"/>
          </g>
          <g clip-path="url(#clip_36)" id="g610" color="rgb(209, 209, 209)">
            <path transform="matrix(0.50987,0,0,-0.50987,225.14936,405.6941)" d="M -4,0 H 4 M 0,-4 v 8" fill="#ff7f0e" id="path609"/>
            <path transform="matrix(0.50987,0,0,-0.50987,225.14936,405.6941)" stroke-width="1" stroke-linecap="butt" stroke-linejoin="round" fill="none" stroke="#ff7f0e" d="M -4,0 H 4 M 0,-4 v 8" id="path610"/>
          </g>
          <g clip-path="url(#clip_37)" id="g612" color="rgb(209, 209, 209)">
            <path transform="matrix(0.50987,0,0,-0.50987,241.53699,415.89094)" d="M -4,0 H 4 M 0,-4 v 8" fill="#ff7f0e" id="path611"/>
            <path transform="matrix(0.50987,0,0,-0.50987,241.53699,415.89094)" stroke-width="1" stroke-linecap="butt" stroke-linejoin="round" fill="none" stroke="#ff7f0e" d="M -4,0 H 4 M 0,-4 v 8" id="path612"/>
          </g>
          <g clip-path="url(#clip_38)" id="g614" color="rgb(209, 209, 209)">
            <path transform="matrix(0.50987,0,0,-0.50987,258.09016,434.88438)" d="M -4,0 H 4 M 0,-4 v 8" fill="#ff7f0e" id="path613"/>
            <path transform="matrix(0.50987,0,0,-0.50987,258.09016,434.88438)" stroke-width="1" stroke-linecap="butt" stroke-linejoin="round" fill="none" stroke="#ff7f0e" d="M -4,0 H 4 M 0,-4 v 8" id="path614"/>
          </g>
          <g clip-path="url(#clip_39)" id="g616" color="rgb(209, 209, 209)">
            <path transform="matrix(0.50987,0,0,-0.50987,274.6433,480.94013)" d="M -4,0 H 4 M 0,-4 v 8" fill="#ff7f0e" id="path615"/>
            <path transform="matrix(0.50987,0,0,-0.50987,274.6433,480.94013)" stroke-width="1" stroke-linecap="butt" stroke-linejoin="round" fill="none" stroke="#ff7f0e" d="M -4,0 H 4 M 0,-4 v 8" id="path616"/>
          </g>
        </g>
        <path transform="matrix(0.50987,0,0,-0.50987,72.284,513.16506)" stroke-width="0.8" stroke-linecap="square" stroke-miterlimit="10" stroke-linejoin="miter" fill="none" stroke="currentColor" d="M 55.996877,51.10625 V 317.21827" id="path617" style="fill:currentColor;fill-opacity:1"/>
        <path transform="matrix(0.50987,0,0,-0.50987,72.284,513.16506)" stroke-width="0.8" stroke-linecap="square" stroke-miterlimit="10" stroke-linejoin="miter" fill="none" stroke="currentColor" d="M 413.11689,51.10625 V 317.21827" id="path618" style="fill:currentColor;fill-opacity:1"/>
        <path transform="matrix(0.50987,0,0,-0.50987,72.284,513.16506)" stroke-width="0.8" stroke-linecap="square" stroke-miterlimit="10" stroke-linejoin="miter" fill="none" stroke="currentColor" d="M 55.996877,51.10625 H 413.11689" id="path619" style="fill:currentColor;fill-opacity:1"/>
        <path transform="matrix(0.50987,0,0,-0.50987,72.284,513.16506)" stroke-width="0.8" stroke-linecap="square" stroke-miterlimit="10" stroke-linejoin="miter" fill="none" stroke="currentColor" d="M 55.996877,317.21827 H 413.11689" id="path620" style="fill:currentColor;fill-opacity:1"/>
        <g id="g622" color="rgb(209, 209, 209)">
          <path transform="matrix(0.50987,0,0,-0.50987,72.284,513.16506)" stroke-width="1" stroke-linecap="butt" stroke-miterlimit="10" stroke-linejoin="miter" fill="none" stroke="#d5d6d5" stroke-opacity="0.8" d="m 248.07625,257.4495 h 153.84063 c 2.13332,0 3.20001,1.06668 3.20001,3.2 v 45.36876 c 0,2.13333 -1.06669,3.20001 -3.20001,3.20001 H 248.07625 c -2.13333,0 -3.2,-1.06668 -3.2,-3.20001 V 260.6495 c 0,-2.13332 1.06667,-3.2 3.2,-3.2 z" id="path622"/>
        </g>
        <path transform="matrix(0.50987,0,0,-0.50987,72.284,513.16506)" stroke-width="2.5" stroke-linecap="square" stroke-linejoin="round" fill="none" stroke="#1f77b4" d="m 251.27625,296.262 h 32.00001" id="path623"/>
        <path transform="matrix(0.50987,0,0,-0.50987,72.284,513.16506)" d="m 267.27626,300.262 -0.89806,-2.76391 h -2.90617 l 2.35113,-1.70822 -0.89806,-2.76392 2.35116,1.70819 2.35113,-1.70819 -0.89804,2.76392 2.35114,1.70822 h -2.90616 z" fill="#1f77b4" id="path624"/>
        <path transform="matrix(0.50987,0,0,-0.50987,72.284,513.16506)" stroke-width="1" stroke-linecap="butt" stroke-linejoin="bevel" fill="none" stroke="#1f77b4" d="m 267.27626,300.262 -0.89806,-2.76391 h -2.90617 l 2.35113,-1.70822 -0.89806,-2.76392 2.35116,1.70819 2.35113,-1.70819 -0.89804,2.76392 2.35114,1.70822 h -2.90616 z" id="path625"/>
        <g id="use625" transform="matrix(8.15792,0,0,-8.15792,223.2444,364.9652)" style="fill:currentColor;fill-opacity:1" color="rgb(209, 209, 209)">
          <path transform="matrix(0.001,0,0,0.001,0,0)" d="m 98,729 h 99 V 421 L 524,729 H 651 L 289,389 677,0 H 547 L 197,351 V 0 H 98 v 729" id="path75" style="fill:currentColor;fill-opacity:1"/>
        </g>
        <g id="use626" transform="matrix(8.15792,0,0,-8.15792,228.596,364.9652)" style="fill:currentColor;fill-opacity:1" color="rgb(209, 209, 209)">
          <path transform="matrix(0.001,0,0,0.001,0,0)" d="M 98,729 H 559 V 646 H 197 V 430 H 544 V 347 H 197 V 83 H 568 V 0 H 98 v 729" id="path107" style="fill:currentColor;fill-opacity:1"/>
        </g>
        <g id="use627" transform="matrix(8.15792,0,0,-8.15792,233.7518,364.9652)" style="fill:currentColor;fill-opacity:1" color="rgb(209, 209, 209)">
          <path transform="matrix(0.001,0,0,0.001,0,0)" d="M 197,648 V 374 h 124 c 46,0 81,11 106,35 25,24 38,58 38,102 0,44 -13,77 -38,101 -25,24 -60,36 -106,36 H 197 m -99,81 h 223 c 81,0 143,-19 185,-56 42,-37 63,-91 63,-162 C 569,439 548,384 506,348 464,311 402,293 321,293 H 197 V 0 H 98 v 729" id="path74" style="fill:currentColor;fill-opacity:1"/>
        </g>
        <g id="use628" transform="matrix(8.15792,0,0,-8.15792,238.67104,364.9652)" style="fill:currentColor;fill-opacity:1" color="rgb(209, 209, 209)">
          <path transform="matrix(0.001,0,0,0.001,0,0)" d="m 98,729 h 99 V 83 H 552 V 0 H 98 v 729" id="path73" style="fill:currentColor;fill-opacity:1"/>
        </g>
        <g id="use629" transform="matrix(8.15792,0,0,-8.15792,243.21498,364.9652)" style="fill:currentColor;fill-opacity:1" color="rgb(209, 209, 209)">
          <path transform="matrix(0.001,0,0,0.001,0,0)" d="M 98,729 H 559 V 646 H 197 V 430 H 544 V 347 H 197 V 83 H 568 V 0 H 98 v 729" id="path108" style="fill:currentColor;fill-opacity:1"/>
        </g>
        <g id="use630" transform="matrix(8.15792,0,0,-8.15792,248.37079,364.9652)" style="fill:currentColor;fill-opacity:1" color="rgb(209, 209, 209)">
          <path transform="matrix(0.001,0,0,0.001,0,0)" d="m 444,342 c 21,-8 42,-23 62,-46 20,-24 40,-56 60,-97 L 666,0 H 560 l -93,187 c -24,48 -48,81 -70,97 -23,16 -54,24 -93,24 H 197 V 0 H 98 v 729 h 223 c 83,0 145,-18 186,-52 41,-35 62,-88 62,-158 0,-46 -11,-85 -32,-115 -22,-30 -53,-51 -93,-62 M 197,648 V 389 h 124 c 47,0 83,11 107,33 24,22 37,54 37,97 0,42 -13,74 -37,96 -24,22 -60,33 -107,33 H 197" id="path85" style="fill:currentColor;fill-opacity:1"/>
        </g>
        <g id="use631" transform="matrix(8.15792,0,0,-8.15792,254.04055,364.9652)" style="fill:currentColor;fill-opacity:1" color="rgb(209, 209, 209)">
          <path transform="matrix(0.001,0,0,0.001,0,0)" d="M 49,314 H 312 V 234 H 49 v 80" id="path79" style="fill:currentColor;fill-opacity:1"/>
        </g>
        <g id="use632" transform="matrix(8.15792,0,0,-8.15792,256.98554,364.9652)" style="fill:currentColor;fill-opacity:1" color="rgb(209, 209, 209)">
          <path transform="matrix(0.001,0,0,0.001,0,0)" d="M 33,729 H 133 L 286,113 439,729 H 550 L 703,113 856,729 H 956 L 773,0 H 649 L 495,633 340,0 H 216 L 33,729" id="path72" style="fill:currentColor;fill-opacity:1"/>
        </g>
        <g id="use633" transform="matrix(8.15792,0,0,-8.15792,265.05375,364.9652)" style="fill:currentColor;fill-opacity:1" color="rgb(209, 209, 209)">
          <path transform="matrix(0.001,0,0,0.001,0,0)" d="m 94,547 h 90 V 0 H 94 v 547 m 0,213 h 90 V 646 H 94 v 114" id="path99" style="fill:currentColor;fill-opacity:1"/>
        </g>
        <g id="use634" transform="matrix(8.15792,0,0,-8.15792,267.32167,364.9652)" style="fill:currentColor;fill-opacity:1" color="rgb(209, 209, 209)">
          <path transform="matrix(0.001,0,0,0.001,0,0)" d="m 91,760 h 90 V 311 L 449,547 H 564 L 274,291 576,0 H 459 L 181,267 V 0 H 91 v 760" id="path90" style="fill:currentColor;fill-opacity:1"/>
        </g>
        <g id="use635" transform="matrix(8.15792,0,0,-8.15792,272.04508,364.9652)" style="fill:currentColor;fill-opacity:1" color="rgb(209, 209, 209)">
          <path transform="matrix(0.001,0,0,0.001,0,0)" d="m 94,547 h 90 V 0 H 94 v 547 m 0,213 h 90 V 646 H 94 v 114" id="path100" style="fill:currentColor;fill-opacity:1"/>
        </g>
        <path transform="matrix(0.50987,0,0,-0.50987,72.284,513.16506)" stroke-width="2.5" stroke-linecap="square" stroke-linejoin="round" fill="none" stroke="#ff7f0e" d="m 251.27625,272.77763 h 32.00001" id="path635"/>
        <path transform="matrix(0.50987,0,0,-0.50987,72.284,513.16506)" d="m 263.27626,272.77763 h 8 m -4,-4 v 8" fill="#ff7f0e" id="path636"/>
        <path transform="matrix(0.50987,0,0,-0.50987,72.284,513.16506)" stroke-width="1" stroke-linecap="butt" stroke-linejoin="round" fill="none" stroke="#ff7f0e" d="m 263.27626,272.77763 h 8 m -4,-4 v 8" id="path637"/>
        <g id="use637" transform="matrix(8.15792,0,0,-8.15792,223.2444,376.9392)" style="fill:currentColor;fill-opacity:1" color="rgb(209, 209, 209)">
          <path transform="matrix(0.001,0,0,0.001,0,0)" d="m 394,662 c -72,0 -129,-27 -171,-80 -42,-54 -63,-126 -63,-218 0,-92 21,-165 63,-218 42,-54 99,-80 171,-80 71,0 128,26 170,80 42,53 63,126 63,218 0,92 -21,164 -63,218 -42,53 -99,80 -170,80 m 0,80 C 496,742 577,707 639,639 700,571 731,479 731,364 731,248 700,157 639,89 577,21 496,-13 394,-13 291,-13 209,21 148,89 86,157 56,248 56,364 c 0,115 30,207 92,275 61,68 143,103 246,103" id="path71" style="fill:currentColor;fill-opacity:1"/>
        </g>
        <g id="use638" transform="matrix(8.15792,0,0,-8.15792,229.66469,376.9392)" style="fill:currentColor;fill-opacity:1" color="rgb(209, 209, 209)">
          <path transform="matrix(0.001,0,0,0.001,0,0)" d="m 85,216 v 331 h 90 V 219 c 0,-52 10,-90 30,-116 20,-26 50,-39 91,-39 48,0 87,15 115,46 28,31 42,73 42,127 v 310 h 90 V 0 H 453 V 84 C 431,50 405,26 377,10 348,-5 315,-13 277,-13 214,-13 166,6 134,45 101,83 85,140 85,216 m 226,344 v 0" id="path70" style="fill:currentColor;fill-opacity:1"/>
        </g>
        <g id="use639" transform="matrix(8.15792,0,0,-8.15792,234.8368,376.9392)" style="fill:currentColor;fill-opacity:1" color="rgb(209, 209, 209)">
          <path transform="matrix(0.001,0,0,0.001,0,0)" d="m 411,463 c -10,6 -21,10 -33,13 -12,2 -25,4 -39,4 -51,0 -90,-17 -117,-50 -28,-33 -41,-80 -41,-142 V 0 H 91 v 547 h 90 v -85 c 18,33 43,58 73,74 30,16 67,24 111,24 6,0 13,-1 21,-1 7,-1 15,-2 25,-4 v -92" id="path69" style="fill:currentColor;fill-opacity:1"/>
        </g>
        <g id="use640" transform="matrix(8.15792,0,0,-8.15792,238.18972,376.9392)" color="rgb(209, 209, 209)"/>
        <g id="use641" transform="matrix(8.15792,0,0,-8.15792,240.78394,376.9392)" style="fill:currentColor;fill-opacity:1" color="rgb(209, 209, 209)">
          <path transform="matrix(0.001,0,0,0.001,0,0)" d="m 444,342 c 21,-8 42,-23 62,-46 20,-24 40,-56 60,-97 L 666,0 H 560 l -93,187 c -24,48 -48,81 -70,97 -23,16 -54,24 -93,24 H 197 V 0 H 98 v 729 h 223 c 83,0 145,-18 186,-52 41,-35 62,-88 62,-158 0,-46 -11,-85 -32,-115 -22,-30 -53,-51 -93,-62 M 197,648 V 389 h 124 c 47,0 83,11 107,33 24,22 37,54 37,97 0,42 -13,74 -37,96 -24,22 -60,33 -107,33 H 197" id="path86" style="fill:currentColor;fill-opacity:1"/>
        </g>
        <g id="use642" transform="matrix(8.15792,0,0,-8.15792,246.45369,376.9392)" style="fill:currentColor;fill-opacity:1" color="rgb(209, 209, 209)">
          <path transform="matrix(0.001,0,0,0.001,0,0)" d="m 306,484 c -48,0 -86,-19 -114,-57 -28,-38 -42,-89 -42,-154 0,-66 13,-117 41,-155 28,-38 66,-56 115,-56 48,0 86,18 114,56 28,38 42,89 42,155 0,64 -14,116 -42,154 -28,38 -66,57 -114,57 m 0,76 c 78,0 139,-26 184,-76 44,-51 67,-121 67,-211 C 557,183 534,113 490,63 445,12 384,-13 306,-13 227,-13 165,12 121,63 77,113 55,183 55,273 c 0,90 22,160 66,211 44,50 106,76 185,76" id="path68" style="fill:currentColor;fill-opacity:1"/>
        </g>
        <g id="use643" transform="matrix(8.15792,0,0,-8.15792,251.44634,376.9392)" style="fill:currentColor;fill-opacity:1" color="rgb(209, 209, 209)">
          <path transform="matrix(0.001,0,0,0.001,0,0)" d="M 197,348 V 81 h 158 c 53,0 92,11 118,33 25,22 38,55 38,101 0,45 -13,78 -38,100 -26,22 -65,33 -118,33 H 197 m 0,300 V 428 h 146 c 48,0 83,9 107,27 24,18 36,45 36,83 0,36 -12,64 -36,82 -24,18 -59,28 -107,28 H 197 m -99,81 h 252 c 75,0 133,-16 174,-47 40,-32 61,-76 61,-133 0,-45 -11,-81 -32,-107 -21,-26 -51,-43 -91,-49 48,-11 86,-33 113,-66 26,-33 40,-74 40,-123 C 615,138 592,88 548,53 504,17 441,0 360,0 H 98 v 729" id="path67" style="fill:currentColor;fill-opacity:1"/>
        </g>
        <g id="use644" transform="matrix(8.15792,0,0,-8.15792,257.04267,376.9392)" style="fill:currentColor;fill-opacity:1" color="rgb(209, 209, 209)">
          <path transform="matrix(0.001,0,0,0.001,0,0)" d="M 98,729 H 559 V 646 H 197 V 430 H 544 V 347 H 197 V 83 H 568 V 0 H 98 v 729" id="path109" style="fill:currentColor;fill-opacity:1"/>
        </g>
        <g id="use645" transform="matrix(8.15792,0,0,-8.15792,262.1985,376.9392)" style="fill:currentColor;fill-opacity:1" color="rgb(209, 209, 209)">
          <path transform="matrix(0.001,0,0,0.001,0,0)" d="m 444,342 c 21,-8 42,-23 62,-46 20,-24 40,-56 60,-97 L 666,0 H 560 l -93,187 c -24,48 -48,81 -70,97 -23,16 -54,24 -93,24 H 197 V 0 H 98 v 729 h 223 c 83,0 145,-18 186,-52 41,-35 62,-88 62,-158 0,-46 -11,-85 -32,-115 -22,-30 -53,-51 -93,-62 M 197,648 V 389 h 124 c 47,0 83,11 107,33 24,22 37,54 37,97 0,42 -13,74 -37,96 -24,22 -60,33 -107,33 H 197" id="path87" style="fill:currentColor;fill-opacity:1"/>
        </g>
        <g id="use646" transform="matrix(8.15792,0,0,-8.15792,267.86824,376.9392)" style="fill:currentColor;fill-opacity:1" color="rgb(209, 209, 209)">
          <path transform="matrix(0.001,0,0,0.001,0,0)" d="M -2,729 H 614 V 646 H 355 V 0 H 256 V 646 H -2 v 83" id="path66" style="fill:currentColor;fill-opacity:1"/>
        </g>
        <g id="use647" transform="matrix(8.15792,0,0,-8.15792,272.85273,376.9392)" style="fill:currentColor;fill-opacity:1" color="rgb(209, 209, 209)">
          <path transform="matrix(0.001,0,0,0.001,0,0)" d="m 343,275 c -73,0 -123,-9 -151,-25 -28,-17 -42,-45 -42,-85 0,-32 10,-58 31,-76 21,-19 50,-28 86,-28 50,0 90,17 120,53 30,35 45,82 45,141 v 20 h -89 m 179,37 V 0 H 432 V 83 C 411,49 385,25 355,10 325,-5 287,-13 243,-13 187,-13 142,2 109,33 76,64 60,106 60,159 c 0,61 20,107 62,139 41,31 102,47 184,47 h 126 v 9 c 0,41 -14,73 -41,96 -27,22 -65,34 -114,34 -32,0 -62,-4 -92,-12 -30,-8 -58,-19 -85,-33 v 83 c 32,12 64,22 95,28 31,6 61,10 91,10 79,0 138,-21 177,-62 39,-41 59,-103 59,-186" id="path94" style="fill:currentColor;fill-opacity:1"/>
        </g>
      </g>
    </g>
  </g>
</svg>