<?xml version="1.0" encoding="UTF-8" standalone="no"?>
<!-- Created with Inkscape (http://www.inkscape.org/) -->

<svg
   width="71.608589mm"
   height="52.906445mm"
   viewBox="0 0 71.608589 52.906445"
   version="1.1"
   id="svg8133"
   inkscape:version="1.2.2 (b0a84865, 2022-12-01)"
   sodipodi:docname="figure3.svg"
   xmlns:inkscape="http://www.inkscape.org/namespaces/inkscape"
   xmlns:sodipodi="http://sodipodi.sourceforge.net/DTD/sodipodi-0.dtd"
   xmlns="http://www.w3.org/2000/svg"
   xmlns:svg="http://www.w3.org/2000/svg">
  <sodipodi:namedview
     id="namedview8135"
     pagecolor="#ffffff"
     bordercolor="#999999"
     borderopacity="1"
     inkscape:showpageshadow="0"
     inkscape:pageopacity="0"
     inkscape:pagecheckerboard="0"
     inkscape:deskcolor="#d1d1d1"
     inkscape:document-units="mm"
     showgrid="false"
     inkscape:zoom="0.914906"
     inkscape:cx="127.88199"
     inkscape:cy="520.81853"
     inkscape:window-width="1390"
     inkscape:window-height="1205"
     inkscape:window-x="0"
     inkscape:window-y="25"
     inkscape:window-maximized="0"
     inkscape:current-layer="layer1" />
  <defs
     id="defs8130">
    <clipPath
       id="clip_1">
      <path
         transform="matrix(0.38866,0,0,-0.38866,77.143,220.836)"
         d="M 0,0 H 522.26876 V 385.86689 H 0 Z"
         id="path2" />
    </clipPath>
    <clipPath
       id="clip_2">
      <path
         transform="matrix(0.38866,0,0,-0.38866,77.143,220.836)"
         d="M 68.66875,65.15312 H 515.0687 V 370.07313 H 68.66875 Z"
         id="path5" />
    </clipPath>
    <clipPath
       id="clip_4">
      <path
         transform="matrix(0.38866,0,0,-0.38866,77.143,220.836)"
         d="M 68.66875,65.15312 H 515.0687 V 370.07313 H 68.66875 Z"
         id="path17" />
    </clipPath>
    <clipPath
       id="clip_5">
      <path
         transform="matrix(0.38866,0,0,-0.38866,77.143,220.836)"
         d="M 68.66875,65.15312 H 515.0687 V 370.07313 H 68.66875 Z"
         id="path23" />
    </clipPath>
    <clipPath
       id="clip_6">
      <path
         transform="matrix(0.38866,0,0,-0.38866,77.143,220.836)"
         d="M 68.66875,65.15312 H 515.0687 V 370.07313 H 68.66875 Z"
         id="path29" />
    </clipPath>
    <clipPath
       id="clip_7">
      <path
         transform="matrix(0.38866,0,0,-0.38866,77.143,220.836)"
         d="M 68.66875,65.15312 H 515.0687 V 370.07313 H 68.66875 Z"
         id="path35" />
    </clipPath>
    <clipPath
       id="clip_8">
      <path
         transform="matrix(0.01010516,0,0,-0.01010516,219.24326,215.67533)"
         d="M -1016,-351 H 1660 V 1068 H -1016 Z"
         id="path75" />
    </clipPath>
    <clipPath
       id="clip_9">
      <path
         transform="matrix(0.38866,0,0,-0.38866,77.143,220.836)"
         d="M 68.66875,65.15312 H 515.0687 V 370.07313 H 68.66875 Z"
         id="path78" />
    </clipPath>
    <clipPath
       id="clip_10">
      <path
         transform="matrix(0.38866,0,0,-0.38866,77.143,220.836)"
         d="M 68.66875,65.15312 H 515.0687 V 370.07313 H 68.66875 Z"
         id="path84" />
    </clipPath>
    <clipPath
       id="clip_11">
      <path
         transform="matrix(0.38866,0,0,-0.38866,77.143,220.836)"
         d="M 68.66875,65.15312 H 515.0687 V 370.07313 H 68.66875 Z"
         id="path87" />
    </clipPath>
    <clipPath
       id="clip_12">
      <path
         transform="matrix(0.38866,0,0,-0.38866,77.143,220.836)"
         d="M 68.66875,65.15312 H 515.0687 V 370.07313 H 68.66875 Z"
         id="path90" />
    </clipPath>
    <clipPath
       id="clip_13">
      <path
         transform="matrix(0.38866,0,0,-0.38866,77.143,220.836)"
         d="M 68.66875,65.15312 H 515.0687 V 370.07313 H 68.66875 Z"
         id="path96" />
    </clipPath>
    <clipPath
       id="clip_14">
      <path
         transform="matrix(0.38866,0,0,-0.38866,77.143,220.836)"
         d="M 68.66875,65.15312 H 515.0687 V 370.07313 H 68.66875 Z"
         id="path99" />
    </clipPath>
    <clipPath
       id="clip_15">
      <path
         transform="matrix(0.38866,0,0,-0.38866,77.143,220.836)"
         d="M 68.66875,65.15312 H 515.0687 V 370.07313 H 68.66875 Z"
         id="path108" />
    </clipPath>
    <clipPath
       id="clip_16">
      <path
         transform="matrix(0.38866,0,0,-0.38866,77.143,220.836)"
         d="M 68.66875,65.15312 H 515.0687 V 370.07313 H 68.66875 Z"
         id="path111" />
    </clipPath>
    <clipPath
       id="clip_17">
      <path
         transform="matrix(0.38866,0,0,-0.38866,77.143,220.836)"
         d="M 68.66875,65.15312 H 515.0687 V 370.07313 H 68.66875 Z"
         id="path114" />
    </clipPath>
    <clipPath
       id="clip_18">
      <path
         transform="matrix(0.38866,0,0,-0.38866,77.143,220.836)"
         d="M 68.66875,65.15312 H 515.0687 V 370.07313 H 68.66875 Z"
         id="path117" />
    </clipPath>
    <clipPath
       id="clip_19">
      <path
         transform="matrix(0.38866,0,0,-0.38866,77.143,220.836)"
         d="M 68.66875,65.15312 H 515.0687 V 370.07313 H 68.66875 Z"
         id="path120" />
    </clipPath>
    <clipPath
       id="clip_20">
      <path
         transform="matrix(0.38866,0,0,-0.38866,111.71806,174.70047)"
         d="M -16.36396,-20.606602 H 16.36396 V 20.606602 H -16.36396 Z"
         id="path123" />
    </clipPath>
    <clipPath
       id="clip_21">
      <path
         transform="matrix(0.38866,0,0,-0.38866,151.14939,174.70047)"
         d="M -16.36396,-20.606602 H 16.36396 V 20.606602 H -16.36396 Z"
         id="path126" />
    </clipPath>
    <clipPath
       id="clip_22">
      <path
         transform="matrix(0.38866,0,0,-0.38866,190.5807,162.87886)"
         d="M -16.36396,-20.606602 H 16.36396 V 20.606602 H -16.36396 Z"
         id="path129" />
    </clipPath>
    <clipPath
       id="clip_23">
      <path
         transform="matrix(0.38866,0,0,-0.38866,230.01203,151.05725)"
         d="M -16.36396,-20.606602 H 16.36396 V 20.606602 H -16.36396 Z"
         id="path132" />
    </clipPath>
    <clipPath
       id="clip_24">
      <path
         transform="matrix(0.38866,0,0,-0.38866,269.44337,156.12366)"
         d="M -16.36396,-20.606602 H 16.36396 V 20.606602 H -16.36396 Z"
         id="path135" />
    </clipPath>
    <clipPath
       id="clip_25">
      <path
         transform="matrix(0.38866,0,0,-0.38866,77.143,220.836)"
         d="M 68.66875,65.15312 H 515.0687 V 370.07313 H 68.66875 Z"
         id="path138" />
    </clipPath>
    <clipPath
       id="clip_26">
      <path
         transform="matrix(0.38866,0,0,-0.38866,111.71806,125.30306)"
         d="M -16.36396,-20.606602 H 16.36396 V 20.606602 H -16.36396 Z"
         id="path141" />
    </clipPath>
    <clipPath
       id="clip_27">
      <path
         transform="matrix(0.38866,0,0,-0.38866,151.14939,128.68067)"
         d="M -16.36396,-20.606602 H 16.36396 V 20.606602 H -16.36396 Z"
         id="path144" />
    </clipPath>
    <clipPath
       id="clip_28">
      <path
         transform="matrix(0.38866,0,0,-0.38866,190.5807,125.72155)"
         d="M -16.36396,-20.606602 H 16.36396 V 20.606602 H -16.36396 Z"
         id="path147" />
    </clipPath>
    <clipPath
       id="clip_29">
      <path
         transform="matrix(0.38866,0,0,-0.38866,230.01203,124.88087)"
         d="M -16.36396,-20.606602 H 16.36396 V 20.606602 H -16.36396 Z"
         id="path150" />
    </clipPath>
    <clipPath
       id="clip_30">
      <path
         transform="matrix(0.38866,0,0,-0.38866,269.44337,116.85906)"
         d="M -16.36396,-20.606602 H 16.36396 V 20.606602 H -16.36396 Z"
         id="path153" />
    </clipPath>
    <clipPath
       id="clip_31">
      <path
         transform="matrix(0.38866,0,0,-0.38866,77.143,220.836)"
         d="M 68.66875,65.15312 H 515.0687 V 370.07313 H 68.66875 Z"
         id="path156" />
    </clipPath>
    <clipPath
       id="clip_32">
      <path
         transform="matrix(0.38866,0,0,-0.38866,111.71806,176.93245)"
         d="m -17.5,-17.5 h 35 v 35 h -35 z"
         id="path159" />
    </clipPath>
    <clipPath
       id="clip_33">
      <path
         transform="matrix(0.38866,0,0,-0.38866,151.14939,176.116)"
         d="m -17.5,-17.5 h 35 v 35 h -35 z"
         id="path162" />
    </clipPath>
    <clipPath
       id="clip_34">
      <path
         transform="matrix(0.38866,0,0,-0.38866,190.5807,174.74826)"
         d="m -17.5,-17.5 h 35 v 35 h -35 z"
         id="path165" />
    </clipPath>
    <clipPath
       id="clip_35">
      <path
         transform="matrix(0.38866,0,0,-0.38866,230.01203,173.77524)"
         d="m -17.5,-17.5 h 35 v 35 h -35 z"
         id="path168" />
    </clipPath>
    <clipPath
       id="clip_36">
      <path
         transform="matrix(0.38866,0,0,-0.38866,269.44337,176.18833)"
         d="m -17.5,-17.5 h 35 v 35 h -35 z"
         id="path171" />
    </clipPath>
    <clipPath
       id="clip_37">
      <path
         transform="matrix(0.38866,0,0,-0.38866,77.143,220.836)"
         d="M 68.66875,65.15312 H 515.0687 V 370.07313 H 68.66875 Z"
         id="path174" />
    </clipPath>
    <clipPath
       id="clip_38">
      <path
         transform="matrix(0.38866,0,0,-0.38866,111.71806,163.4854)"
         d="m -17.5,-17.5 h 35 v 35 h -35 z"
         id="path177" />
    </clipPath>
    <clipPath
       id="clip_39">
      <path
         transform="matrix(0.38866,0,0,-0.38866,151.14939,155.39746)"
         d="m -17.5,-17.5 h 35 v 35 h -35 z"
         id="path180" />
    </clipPath>
    <clipPath
       id="clip_40">
      <path
         transform="matrix(0.38866,0,0,-0.38866,190.5807,161.32335)"
         d="m -17.5,-17.5 h 35 v 35 h -35 z"
         id="path183" />
    </clipPath>
    <clipPath
       id="clip_41">
      <path
         transform="matrix(0.38866,0,0,-0.38866,230.01203,148.22896)"
         d="m -17.5,-17.5 h 35 v 35 h -35 z"
         id="path186" />
    </clipPath>
    <clipPath
       id="clip_42">
      <path
         transform="matrix(0.38866,0,0,-0.38866,269.44337,156.6968)"
         d="m -17.5,-17.5 h 35 v 35 h -35 z"
         id="path189" />
    </clipPath>
  </defs>
  <g
     inkscape:label="Layer 1"
     inkscape:groupmode="layer"
     id="layer1"
     transform="translate(-11.912357,-10.563331)">
    <g
       clip-path="url(#clip_1)"
       id="g768"
       transform="matrix(0.35277777,0,0,0.35277777,-15.301979,-14.436257)">
      <path
         transform="matrix(0.38866,0,0,-0.38866,77.143,220.836)"
         d="M 0,0 H 522.26876 V 385.86689 H 0 Z"
         fill="#ffffff"
         id="path356" />
      <path
         transform="matrix(0.38866,0,0,-0.38866,77.143,220.836)"
         d="M 68.66875,65.15312 H 515.0687 V 370.07313 H 68.66875 Z"
         fill="#eaeaf2"
         id="path358" />
      <g
         clip-path="url(#clip_2)"
         id="g362">
        <path
           transform="matrix(0.38866,0,0,-0.38866,77.143,220.836)"
           stroke-width="1"
           stroke-linecap="round"
           stroke-linejoin="round"
           fill="none"
           stroke="#ffffff"
           d="M 88.959659,65.15312 V 370.07313"
           id="path360" />
      </g>
      <g
         id="use364"
         style="fill:#333333"
         transform="matrix(9.327841,0,0,-9.327841,105.23533,204.91429)">
        <path
           transform="matrix(0.001,0,0,0.001,0,0)"
           d="m 42,353 c 0,84 8,152 26,204 17,52 43,92 77,120 34,28 78,42 130,42 38,0 72,-8 101,-24 28,-16 52,-38 71,-67 19,-29 34,-64 45,-106 10,-42 16,-99 16,-169 0,-84 -9,-152 -26,-204 C 465,97 439,58 405,30 371,2 327,-11 275,-11 205,-11 151,13 112,62 65,121 42,218 42,353 m 90,0 c 0,-118 13,-196 41,-235 27,-39 61,-58 102,-58 40,0 73,19 101,58 28,39 42,117 42,235 0,118 -14,196 -42,235 -28,38 -62,58 -102,58 -41,0 -73,-17 -97,-51 -30,-44 -45,-125 -45,-242"
           id="path9204" />
      </g>
      <g
         id="use366"
         style="fill:#333333"
         transform="matrix(9.327841,0,0,-9.327841,110.42162,204.91429)">
        <path
           transform="matrix(0.001,0,0,0.001,0,0)"
           d="M 91,0 V 100 H 191 V 0 H 91"
           id="path9544" />
      </g>
      <g
         id="use368"
         style="fill:#333333"
         transform="matrix(9.327841,0,0,-9.327841,113.01476,204.91429)">
        <path
           transform="matrix(0.001,0,0,0.001,0,0)"
           d="m 42,188 92,7 c 6,-45 22,-79 47,-101 25,-23 55,-34 90,-34 42,0 78,16 108,48 29,32 44,74 44,127 0,50 -15,89 -43,118 -28,29 -65,44 -110,44 -28,0 -54,-7 -77,-20 -23,-13 -41,-29 -53,-49 l -83,10 69,368 H 482 V 622 H 197 L 158,430 c 43,30 88,45 135,45 62,0 115,-22 158,-65 43,-44 65,-99 65,-167 C 516,178 497,122 459,75 413,17 351,-11 271,-11 206,-11 153,7 112,43 70,79 47,127 42,188"
           id="path9540" />
      </g>
      <g
         clip-path="url(#clip_4)"
         id="g372">
        <path
           transform="matrix(0.38866,0,0,-0.38866,77.143,220.836)"
           stroke-width="1"
           stroke-linecap="round"
           stroke-linejoin="round"
           fill="none"
           stroke="#ffffff"
           d="M 190.4142,65.15312 V 370.07313"
           id="path370" />
      </g>
      <g
         id="use374"
         style="fill:#333333"
         transform="matrix(9.327841,0,0,-9.327841,148.55629,204.91429)">
        <path
           transform="matrix(0.001,0,0,0.001,0,0)"
           d="m 373,0 h -88 v 560 c -22,-20 -50,-41 -84,-61 -34,-20 -65,-35 -92,-45 v 85 c 49,23 92,51 129,84 36,32 62,64 78,96 h 57 V 0"
           id="path9536" />
      </g>
      <g
         clip-path="url(#clip_5)"
         id="g378">
        <path
           transform="matrix(0.38866,0,0,-0.38866,77.143,220.836)"
           stroke-width="1"
           stroke-linecap="round"
           stroke-linejoin="round"
           fill="none"
           stroke="#ffffff"
           d="M 291.86875,65.15312 V 370.07313"
           id="path376" />
      </g>
      <g
         id="use380"
         style="fill:#333333"
         transform="matrix(9.327841,0,0,-9.327841,187.98761,204.91429)">
        <path
           transform="matrix(0.001,0,0,0.001,0,0)"
           d="M 503,84 V 0 H 30 c -1,21 3,41 11,61 12,32 31,63 57,95 26,31 65,67 115,109 78,63 130,113 158,151 27,37 41,72 41,106 0,34 -13,64 -38,88 -25,24 -57,36 -97,36 -42,0 -76,-13 -101,-38 -26,-26 -39,-61 -39,-106 l -90,10 c 6,67 29,118 69,154 40,35 95,53 163,53 68,0 123,-20 163,-58 40,-38 60,-85 60,-141 0,-29 -6,-57 -18,-85 C 472,407 453,378 426,348 399,317 354,275 291,222 238,178 204,148 189,132 174,116 162,100 152,84 h 351"
           id="path9520" />
      </g>
      <g
         clip-path="url(#clip_6)"
         id="g384">
        <path
           transform="matrix(0.38866,0,0,-0.38866,77.143,220.836)"
           stroke-width="1"
           stroke-linecap="round"
           stroke-linejoin="round"
           fill="none"
           stroke="#ffffff"
           d="M 393.3233,65.15312 V 370.07313"
           id="path382" />
      </g>
      <g
         id="use386"
         style="fill:#333333"
         transform="matrix(9.327841,0,0,-9.327841,227.41895,204.91429)">
        <path
           transform="matrix(0.001,0,0,0.001,0,0)"
           d="m 42,189 88,12 c 10,-50 27,-86 51,-108 24,-22 54,-33 89,-33 41,0 76,14 104,43 28,28 43,64 43,106 0,40 -14,74 -40,100 -26,26 -60,40 -100,40 -17,0 -38,-4 -62,-10 l 10,77 c 6,-1 10,-1 14,-1 37,0 71,9 101,29 30,20 45,50 45,91 0,32 -11,58 -33,79 -22,21 -50,32 -84,32 -34,0 -63,-11 -86,-32 -23,-22 -37,-54 -43,-96 l -88,15 c 10,59 35,105 73,137 38,32 85,49 142,49 39,0 75,-9 108,-26 32,-17 57,-40 75,-68 18,-29 27,-60 27,-92 0,-32 -9,-60 -25,-85 -17,-26 -42,-46 -74,-60 42,-10 74,-31 98,-61 24,-31 36,-70 36,-116 C 511,149 488,96 442,53 396,9 339,-12 270,-12 206,-12 154,6 113,44 71,81 48,129 42,189"
           id="path9516" />
      </g>
      <g
         clip-path="url(#clip_7)"
         id="g390">
        <path
           transform="matrix(0.38866,0,0,-0.38866,77.143,220.836)"
           stroke-width="1"
           stroke-linecap="round"
           stroke-linejoin="round"
           fill="none"
           stroke="#ffffff"
           d="M 494.77784,65.15312 V 370.07313"
           id="path388" />
      </g>
      <g
         id="use392"
         style="fill:#333333"
         transform="matrix(9.327841,0,0,-9.327841,266.85029,204.91429)">
        <path
           transform="matrix(0.001,0,0,0.001,0,0)"
           d="M 323,0 V 171 H 13 v 81 l 326,464 h 72 V 252 h 97 V 171 H 411 V 0 h -88 m 0,252 V 575 L 99,252 h 224"
           id="path9508" />
      </g>
      <g
         id="use394"
         style="fill:#333333"
         transform="matrix(10.105161,0,0,-10.105161,155.21265,215.67533)">
        <path
           transform="matrix(0.001,0,0,0.001,0,0)"
           d="m 45,230 89,8 c 4,-36 14,-66 30,-89 15,-23 39,-41 72,-55 32,-14 69,-21 110,-21 36,0 67,5 95,16 28,10 48,25 62,44 13,18 20,39 20,61 0,22 -7,42 -20,59 -13,16 -34,30 -64,42 -19,8 -61,19 -127,35 -66,16 -112,31 -138,45 -34,18 -60,40 -77,66 -17,26 -25,56 -25,90 0,36 10,69 31,101 20,31 50,55 90,71 39,16 83,25 131,25 53,0 100,-9 140,-26 40,-17 72,-42 94,-75 22,-34 33,-71 35,-113 l -91,-7 c -5,45 -21,79 -49,103 -28,23 -70,35 -125,35 -58,0 -99,-11 -125,-32 -26,-21 -39,-46 -39,-76 0,-26 9,-47 27,-63 18,-17 66,-34 143,-52 77,-18 130,-33 159,-45 41,-20 72,-44 92,-73 20,-30 30,-64 30,-102 C 615,164 604,128 582,94 560,60 528,34 488,16 447,-2 401,-11 350,-11 285,-11 231,-2 187,16 143,34 109,63 84,101 59,139 46,182 45,230"
           id="path9484" />
      </g>
      <g
         id="use396"
         style="fill:#333333"
         transform="matrix(10.105161,0,0,-10.105161,161.95272,215.67533)">
        <path
           transform="matrix(0.001,0,0,0.001,0,0)"
           d="m 404,190 87,-11 C 481,119 457,72 418,39 379,5 331,-11 275,-11 203,-11 146,12 103,58 60,104 39,170 39,257 c 0,56 9,105 28,147 18,42 46,73 84,94 38,21 79,32 124,32 56,0 102,-15 138,-43 36,-28 59,-69 69,-121 l -85,-13 c -8,34 -23,60 -43,78 -21,18 -46,27 -75,27 -45,0 -81,-16 -109,-48 -28,-32 -41,-82 -41,-150 0,-70 13,-121 40,-152 26,-32 61,-47 105,-47 34,0 63,10 86,31 23,21 38,54 44,98"
           id="path9472" />
      </g>
      <g
         id="use398"
         style="fill:#333333"
         transform="matrix(10.105161,0,0,-10.105161,167.0053,215.67533)">
        <path
           transform="matrix(0.001,0,0,0.001,0,0)"
           d="M 404,64 C 371,36 340,16 310,5 280,-5 247,-11 213,-11 156,-11 112,2 82,30 51,58 36,93 36,137 c 0,25 5,48 17,69 12,21 27,38 46,51 18,12 39,22 63,29 17,4 43,8 78,13 71,8 123,18 157,30 0,12 0,19 0,23 0,36 -8,61 -24,76 -23,20 -57,30 -101,30 -42,0 -72,-8 -92,-22 -20,-15 -34,-41 -43,-77 l -86,12 c 8,36 21,66 39,89 18,22 43,40 77,52 34,12 73,18 118,18 44,0 80,-6 108,-16 28,-10 48,-23 61,-39 13,-16 22,-35 27,-59 3,-16 5,-43 5,-82 V 217 c 0,-82 1,-133 5,-155 4,-22 11,-42 23,-62 h -92 c -10,18 -16,39 -18,64 m -7,196 c -32,-13 -80,-24 -144,-33 -36,-6 -62,-12 -77,-18 -15,-6 -26,-16 -34,-28 -8,-13 -12,-27 -12,-42 0,-24 8,-43 26,-59 18,-16 44,-23 78,-23 34,0 64,7 90,22 26,15 46,35 59,61 9,20 14,49 14,88 v 32"
           id="path9464" />
      </g>
      <g
         id="use400"
         style="fill:#333333"
         transform="matrix(10.105161,0,0,-10.105161,172.6253,215.67533)">
        <path
           transform="matrix(0.001,0,0,0.001,0,0)"
           d="m 64,0 v 716 h 88 V 0 H 64"
           id="path9460" />
      </g>
      <g
         id="use402"
         style="fill:#333333"
         transform="matrix(10.105161,0,0,-10.105161,174.87035,215.67533)">
        <path
           transform="matrix(0.001,0,0,0.001,0,0)"
           d="m 66,615 v 101 h 88 V 615 H 66 M 66,0 v 519 h 88 V 0 H 66"
           id="path9456" />
      </g>
      <g
         id="use404"
         style="fill:#333333"
         transform="matrix(10.105161,0,0,-10.105161,177.11539,215.67533)">
        <path
           transform="matrix(0.001,0,0,0.001,0,0)"
           d="m 66,0 v 519 h 79 v -74 c 38,56 93,85 165,85 31,0 60,-6 86,-17 26,-11 46,-26 59,-44 13,-18 22,-40 27,-65 3,-16 5,-45 5,-85 V 0 h -88 v 315 c 0,36 -4,62 -10,80 -7,18 -19,32 -36,43 -18,10 -38,16 -61,16 -38,0 -71,-12 -98,-36 -27,-24 -40,-69 -40,-135 V 0 H 66"
           id="path9452" />
      </g>
      <g
         id="use406"
         style="fill:#333333"
         transform="matrix(10.105161,0,0,-10.105161,182.7354,215.67533)">
        <path
           transform="matrix(0.001,0,0,0.001,0,0)"
           d="m 50,-42 85,-13 c 4,-26 14,-45 30,-57 22,-16 51,-25 89,-25 40,0 72,9 94,25 22,16 38,39 46,68 4,18 6,55 6,112 C 361,22 313,0 256,0 184,0 129,25 90,77 51,128 32,190 32,262 c 0,49 9,95 27,137 18,42 44,74 78,97 34,22 74,34 120,34 61,0 111,-25 151,-74 v 63 h 81 V 70 c 0,-80 -9,-136 -25,-170 -16,-34 -42,-60 -78,-80 -36,-19 -79,-29 -131,-29 -62,0 -112,14 -150,42 -38,28 -57,69 -55,125 m 73,311 c 0,-68 13,-118 40,-149 27,-32 61,-47 102,-47 40,0 73,15 101,46 27,31 41,80 41,147 0,63 -14,111 -42,143 -28,32 -62,49 -102,49 -39,0 -72,-16 -99,-48 -28,-32 -41,-79 -41,-141"
           id="path9448" />
      </g>
      <g
         id="use408"
         style="fill:#333333"
         transform="matrix(10.105161,0,0,-10.105161,188.35541,215.67533)" />
      <g
         id="use410"
         style="fill:#333333"
         transform="matrix(10.105161,0,0,-10.105161,191.16294,215.67533)">
        <path
           transform="matrix(0.001,0,0,0.001,0,0)"
           d="M 87,0 V 450 H 9 v 69 h 78 v 55 c 0,34 3,60 9,77 8,23 23,42 45,56 21,14 51,21 89,21 25,0 53,-3 83,-9 l -14,-76 c -18,2 -35,4 -51,4 -27,0 -46,-6 -57,-17 -12,-12 -17,-33 -17,-64 V 519 H 275 V 450 H 174 V 0 H 87"
           id="path9432" />
      </g>
      <g
         id="use412"
         style="fill:#333333"
         transform="matrix(10.105161,0,0,-10.105161,193.97048,215.67533)">
        <path
           transform="matrix(0.001,0,0,0.001,0,0)"
           d="M 404,64 C 371,36 340,16 310,5 280,-5 247,-11 213,-11 156,-11 112,2 82,30 51,58 36,93 36,137 c 0,25 5,48 17,69 12,21 27,38 46,51 18,12 39,22 63,29 17,4 43,8 78,13 71,8 123,18 157,30 0,12 0,19 0,23 0,36 -8,61 -24,76 -23,20 -57,30 -101,30 -42,0 -72,-8 -92,-22 -20,-15 -34,-41 -43,-77 l -86,12 c 8,36 21,66 39,89 18,22 43,40 77,52 34,12 73,18 118,18 44,0 80,-6 108,-16 28,-10 48,-23 61,-39 13,-16 22,-35 27,-59 3,-16 5,-43 5,-82 V 217 c 0,-82 1,-133 5,-155 4,-22 11,-42 23,-62 h -92 c -10,18 -16,39 -18,64 m -7,196 c -32,-13 -80,-24 -144,-33 -36,-6 -62,-12 -77,-18 -15,-6 -26,-16 -34,-28 -8,-13 -12,-27 -12,-42 0,-24 8,-43 26,-59 18,-16 44,-23 78,-23 34,0 64,7 90,22 26,15 46,35 59,61 9,20 14,49 14,88 v 32"
           id="path9468" />
      </g>
      <g
         id="use414"
         style="fill:#333333"
         transform="matrix(10.105161,0,0,-10.105161,199.59049,215.67533)">
        <path
           transform="matrix(0.001,0,0,0.001,0,0)"
           d="m 404,190 87,-11 C 481,119 457,72 418,39 379,5 331,-11 275,-11 203,-11 146,12 103,58 60,104 39,170 39,257 c 0,56 9,105 28,147 18,42 46,73 84,94 38,21 79,32 124,32 56,0 102,-15 138,-43 36,-28 59,-69 69,-121 l -85,-13 c -8,34 -23,60 -43,78 -21,18 -46,27 -75,27 -45,0 -81,-16 -109,-48 -28,-32 -41,-82 -41,-150 0,-70 13,-121 40,-152 26,-32 61,-47 105,-47 34,0 63,10 86,31 23,21 38,54 44,98"
           id="path9476" />
      </g>
      <g
         id="use416"
         style="fill:#333333"
         transform="matrix(10.105161,0,0,-10.105161,204.64307,215.67533)">
        <path
           transform="matrix(0.001,0,0,0.001,0,0)"
           d="M 258,79 271,1 C 245,-3 223,-6 204,-6 172,-6 147,-1 130,8 112,18 100,31 93,48 85,64 82,99 82,152 V 450 H 18 v 69 h 64 v 128 l 87,53 V 519 h 89 V 450 H 169 V 147 c 0,-26 1,-42 5,-49 3,-7 8,-13 15,-17 7,-4 17,-6 30,-6 10,0 23,1 39,4"
           id="path9428" />
      </g>
      <g
         id="use418"
         style="fill:#333333"
         transform="matrix(10.105161,0,0,-10.105161,207.4506,215.67533)">
        <path
           transform="matrix(0.001,0,0,0.001,0,0)"
           d="m 33,259 c 0,96 26,167 80,214 44,38 99,57 163,57 71,0 129,-24 175,-70 45,-47 68,-111 68,-193 C 519,200 509,147 489,109 469,71 439,41 401,20 363,0 321,-11 276,-11 203,-11 144,12 100,58 55,104 33,171 33,259 m 91,0 c 0,-66 14,-116 43,-149 28,-33 65,-49 109,-49 44,0 80,16 109,49 29,33 44,84 44,152 0,64 -15,112 -44,146 -30,33 -66,50 -109,50 -44,0 -81,-17 -109,-50 -29,-33 -43,-83 -43,-149"
           id="path9420" />
      </g>
      <g
         id="use420"
         style="fill:#333333"
         transform="matrix(10.105161,0,0,-10.105161,213.07062,215.67533)">
        <path
           transform="matrix(0.001,0,0,0.001,0,0)"
           d="m 65,0 v 519 h 79 v -79 c 20,36 38,60 56,72 17,12 36,18 56,18 30,0 60,-10 91,-28 l -31,-82 c -22,12 -43,19 -64,19 -20,0 -37,-6 -52,-17 -16,-12 -27,-28 -33,-48 -10,-32 -14,-66 -14,-103 V 0 H 65"
           id="path9412" />
      </g>
      <g
         id="use422"
         style="fill:#333333"
         transform="matrix(10.105161,0,0,-10.105161,216.4357,215.67533)" />
      <g
         clip-path="url(#clip_8)"
         id="g426">
        <path
           transform="matrix(0.01010516,0,0,-0.01010516,219.24326,215.67533)"
           d="m 409,254 1,113 c 0,76 -29,115 -87,116 -44,0 -79,-18 -105,-54 -34,-45 -57,-97 -68,-156 -14,-72 -13,-125 5,-159 18,-35 47,-52 87,-52 43,0 83,34 120,104 l 47,88 m -71,305 c 102,2 152,-50 151,-155 0,0 25,47 76,143 h 80 L 487,250 486,144 c 0,-16 4,-31 13,-44 10,-16 20,-24 31,-24 h 43 L 559,0 H 504 C 473,0 447,13 425,41 415,55 409,76 409,104 387,69 359,37 323,8 305,-5 273,-11 227,-11 151,-10 99,14 71,62 43,112 37,183 55,273 c 18,96 53,167 103,211 55,49 115,74 180,75"
           fill="#333333"
           id="path424" />
      </g>
      <g
         clip-path="url(#clip_9)"
         id="g430">
        <path
           transform="matrix(0.38866,0,0,-0.38866,77.143,220.836)"
           stroke-width="1"
           stroke-linecap="round"
           stroke-linejoin="round"
           fill="none"
           stroke="#ffffff"
           d="M 68.66875,85.8979 H 515.0687"
           id="path428" />
      </g>
      <g
         id="use432"
         style="fill:#333333"
         transform="matrix(9.327841,0,0,-9.327841,90.738819,190.79097)">
        <path
           transform="matrix(0.001,0,0,0.001,0,0)"
           d="m 177,388 c -37,13 -64,32 -82,57 -18,24 -26,54 -26,89 0,52 18,95 56,131 38,36 88,54 150,54 62,0 113,-19 151,-55 38,-36 57,-80 57,-132 0,-34 -9,-63 -26,-87 -18,-25 -44,-44 -80,-57 44,-14 77,-37 100,-69 23,-32 35,-70 35,-114 C 512,143 490,92 447,51 403,9 346,-11 276,-11 205,-11 148,9 105,51 62,92 41,144 41,207 c 0,46 11,85 35,117 23,31 57,52 101,64 m -18,149 c 0,-34 11,-62 33,-83 22,-22 50,-32 85,-32 34,0 61,10 83,32 22,21 33,47 33,78 0,32 -12,59 -34,81 -22,22 -50,33 -83,33 -34,0 -62,-11 -84,-32 -22,-22 -33,-47 -33,-77 M 131,207 c 0,-26 6,-50 18,-73 12,-24 29,-42 53,-55 23,-13 48,-19 75,-19 42,0 76,13 104,40 27,27 41,62 41,104 0,42 -14,76 -42,104 -28,28 -64,42 -106,42 -42,0 -76,-14 -103,-41 -27,-28 -40,-62 -40,-102"
           id="path9388" />
      </g>
      <g
         id="use434"
         style="fill:#333333"
         transform="matrix(9.327841,0,0,-9.327841,95.925098,190.79097)">
        <path
           transform="matrix(0.001,0,0,0.001,0,0)"
           d="m 42,353 c 0,84 8,152 26,204 17,52 43,92 77,120 34,28 78,42 130,42 38,0 72,-8 101,-24 28,-16 52,-38 71,-67 19,-29 34,-64 45,-106 10,-42 16,-99 16,-169 0,-84 -9,-152 -26,-204 C 465,97 439,58 405,30 371,2 327,-11 275,-11 205,-11 151,13 112,62 65,121 42,218 42,353 m 90,0 c 0,-118 13,-196 41,-235 27,-39 61,-58 102,-58 40,0 73,19 101,58 28,39 42,117 42,235 0,118 -14,196 -42,235 -28,38 -62,58 -102,58 -41,0 -73,-17 -97,-51 -30,-44 -45,-125 -45,-242"
           id="path9208" />
      </g>
      <g
         clip-path="url(#clip_10)"
         id="g438">
        <path
           transform="matrix(0.38866,0,0,-0.38866,77.143,220.836)"
           stroke-width="1"
           stroke-linecap="round"
           stroke-linejoin="round"
           fill="none"
           stroke="#ffffff"
           d="M 68.66875,142.73294 H 515.0687"
           id="path436" />
      </g>
      <g
         id="use440"
         style="fill:#333333"
         transform="matrix(9.327841,0,0,-9.327841,90.738819,168.70146)">
        <path
           transform="matrix(0.001,0,0,0.001,0,0)"
           d="m 177,388 c -37,13 -64,32 -82,57 -18,24 -26,54 -26,89 0,52 18,95 56,131 38,36 88,54 150,54 62,0 113,-19 151,-55 38,-36 57,-80 57,-132 0,-34 -9,-63 -26,-87 -18,-25 -44,-44 -80,-57 44,-14 77,-37 100,-69 23,-32 35,-70 35,-114 C 512,143 490,92 447,51 403,9 346,-11 276,-11 205,-11 148,9 105,51 62,92 41,144 41,207 c 0,46 11,85 35,117 23,31 57,52 101,64 m -18,149 c 0,-34 11,-62 33,-83 22,-22 50,-32 85,-32 34,0 61,10 83,32 22,21 33,47 33,78 0,32 -12,59 -34,81 -22,22 -50,33 -83,33 -34,0 -62,-11 -84,-32 -22,-22 -33,-47 -33,-77 M 131,207 c 0,-26 6,-50 18,-73 12,-24 29,-42 53,-55 23,-13 48,-19 75,-19 42,0 76,13 104,40 27,27 41,62 41,104 0,42 -14,76 -42,104 -28,28 -64,42 -106,42 -42,0 -76,-14 -103,-41 -27,-28 -40,-62 -40,-102"
           id="path9392" />
      </g>
      <g
         id="use442"
         style="fill:#333333"
         transform="matrix(9.327841,0,0,-9.327841,95.925098,168.70146)">
        <path
           transform="matrix(0.001,0,0,0.001,0,0)"
           d="M 503,84 V 0 H 30 c -1,21 3,41 11,61 12,32 31,63 57,95 26,31 65,67 115,109 78,63 130,113 158,151 27,37 41,72 41,106 0,34 -13,64 -38,88 -25,24 -57,36 -97,36 -42,0 -76,-13 -101,-38 -26,-26 -39,-61 -39,-106 l -90,10 c 6,67 29,118 69,154 40,35 95,53 163,53 68,0 123,-20 163,-58 40,-38 60,-85 60,-141 0,-29 -6,-57 -18,-85 C 472,407 453,378 426,348 399,317 354,275 291,222 238,178 204,148 189,132 174,116 162,100 152,84 h 351"
           id="path9524" />
      </g>
      <g
         clip-path="url(#clip_11)"
         id="g446">
        <path
           transform="matrix(0.38866,0,0,-0.38866,77.143,220.836)"
           stroke-width="1"
           stroke-linecap="round"
           stroke-linejoin="round"
           fill="none"
           stroke="#ffffff"
           d="M 68.66875,199.568 H 515.0687"
           id="path444" />
      </g>
      <g
         id="use448"
         style="fill:#333333"
         transform="matrix(9.327841,0,0,-9.327841,90.738819,146.61194)">
        <path
           transform="matrix(0.001,0,0,0.001,0,0)"
           d="m 177,388 c -37,13 -64,32 -82,57 -18,24 -26,54 -26,89 0,52 18,95 56,131 38,36 88,54 150,54 62,0 113,-19 151,-55 38,-36 57,-80 57,-132 0,-34 -9,-63 -26,-87 -18,-25 -44,-44 -80,-57 44,-14 77,-37 100,-69 23,-32 35,-70 35,-114 C 512,143 490,92 447,51 403,9 346,-11 276,-11 205,-11 148,9 105,51 62,92 41,144 41,207 c 0,46 11,85 35,117 23,31 57,52 101,64 m -18,149 c 0,-34 11,-62 33,-83 22,-22 50,-32 85,-32 34,0 61,10 83,32 22,21 33,47 33,78 0,32 -12,59 -34,81 -22,22 -50,33 -83,33 -34,0 -62,-11 -84,-32 -22,-22 -33,-47 -33,-77 M 131,207 c 0,-26 6,-50 18,-73 12,-24 29,-42 53,-55 23,-13 48,-19 75,-19 42,0 76,13 104,40 27,27 41,62 41,104 0,42 -14,76 -42,104 -28,28 -64,42 -106,42 -42,0 -76,-14 -103,-41 -27,-28 -40,-62 -40,-102"
           id="path9396" />
      </g>
      <g
         id="use450"
         style="fill:#333333"
         transform="matrix(9.327841,0,0,-9.327841,95.925098,146.61194)">
        <path
           transform="matrix(0.001,0,0,0.001,0,0)"
           d="M 323,0 V 171 H 13 v 81 l 326,464 h 72 V 252 h 97 V 171 H 411 V 0 h -88 m 0,252 V 575 L 99,252 h 224"
           id="path9512" />
      </g>
      <g
         clip-path="url(#clip_12)"
         id="g454">
        <path
           transform="matrix(0.38866,0,0,-0.38866,77.143,220.836)"
           stroke-width="1"
           stroke-linecap="round"
           stroke-linejoin="round"
           fill="none"
           stroke="#ffffff"
           d="M 68.66875,256.40306 H 515.0687"
           id="path452" />
      </g>
      <g
         id="use456"
         style="fill:#333333"
         transform="matrix(9.327841,0,0,-9.327841,90.738819,124.52244)">
        <path
           transform="matrix(0.001,0,0,0.001,0,0)"
           d="m 177,388 c -37,13 -64,32 -82,57 -18,24 -26,54 -26,89 0,52 18,95 56,131 38,36 88,54 150,54 62,0 113,-19 151,-55 38,-36 57,-80 57,-132 0,-34 -9,-63 -26,-87 -18,-25 -44,-44 -80,-57 44,-14 77,-37 100,-69 23,-32 35,-70 35,-114 C 512,143 490,92 447,51 403,9 346,-11 276,-11 205,-11 148,9 105,51 62,92 41,144 41,207 c 0,46 11,85 35,117 23,31 57,52 101,64 m -18,149 c 0,-34 11,-62 33,-83 22,-22 50,-32 85,-32 34,0 61,10 83,32 22,21 33,47 33,78 0,32 -12,59 -34,81 -22,22 -50,33 -83,33 -34,0 -62,-11 -84,-32 -22,-22 -33,-47 -33,-77 M 131,207 c 0,-26 6,-50 18,-73 12,-24 29,-42 53,-55 23,-13 48,-19 75,-19 42,0 76,13 104,40 27,27 41,62 41,104 0,42 -14,76 -42,104 -28,28 -64,42 -106,42 -42,0 -76,-14 -103,-41 -27,-28 -40,-62 -40,-102"
           id="path9400" />
      </g>
      <g
         id="use458"
         style="fill:#333333"
         transform="matrix(9.327841,0,0,-9.327841,95.925098,124.52244)">
        <path
           transform="matrix(0.001,0,0,0.001,0,0)"
           d="m 498,541 -88,-7 c -8,34 -19,59 -33,75 -24,24 -54,37 -88,37 -28,0 -53,-8 -74,-23 -28,-20 -49,-50 -65,-88 -16,-39 -25,-94 -25,-166 21,32 47,55 78,71 30,16 62,24 96,24 58,0 108,-22 149,-65 41,-43 62,-99 62,-167 0,-45 -10,-87 -29,-125 C 461,68 435,39 401,19 367,-1 329,-11 286,-11 212,-11 153,15 107,69 61,122 38,211 38,335 c 0,138 25,238 76,302 44,54 104,82 180,82 56,0 103,-16 139,-48 36,-32 57,-75 65,-130 M 139,232 c 0,-30 6,-59 19,-87 12,-28 30,-49 54,-63 23,-15 47,-22 73,-22 36,0 68,15 95,45 26,30 40,70 40,122 0,49 -14,88 -40,117 -26,28 -59,43 -99,43 -40,0 -73,-15 -101,-43 -28,-29 -41,-66 -41,-112"
           id="path9384" />
      </g>
      <g
         clip-path="url(#clip_13)"
         id="g462">
        <path
           transform="matrix(0.38866,0,0,-0.38866,77.143,220.836)"
           stroke-width="1"
           stroke-linecap="round"
           stroke-linejoin="round"
           fill="none"
           stroke="#ffffff"
           d="M 68.66875,313.23808 H 515.0687"
           id="path460" />
      </g>
      <g
         id="use464"
         style="fill:#333333"
         transform="matrix(9.327841,0,0,-9.327841,90.738819,102.43294)">
        <path
           transform="matrix(0.001,0,0,0.001,0,0)"
           d="m 177,388 c -37,13 -64,32 -82,57 -18,24 -26,54 -26,89 0,52 18,95 56,131 38,36 88,54 150,54 62,0 113,-19 151,-55 38,-36 57,-80 57,-132 0,-34 -9,-63 -26,-87 -18,-25 -44,-44 -80,-57 44,-14 77,-37 100,-69 23,-32 35,-70 35,-114 C 512,143 490,92 447,51 403,9 346,-11 276,-11 205,-11 148,9 105,51 62,92 41,144 41,207 c 0,46 11,85 35,117 23,31 57,52 101,64 m -18,149 c 0,-34 11,-62 33,-83 22,-22 50,-32 85,-32 34,0 61,10 83,32 22,21 33,47 33,78 0,32 -12,59 -34,81 -22,22 -50,33 -83,33 -34,0 -62,-11 -84,-32 -22,-22 -33,-47 -33,-77 M 131,207 c 0,-26 6,-50 18,-73 12,-24 29,-42 53,-55 23,-13 48,-19 75,-19 42,0 76,13 104,40 27,27 41,62 41,104 0,42 -14,76 -42,104 -28,28 -64,42 -106,42 -42,0 -76,-14 -103,-41 -27,-28 -40,-62 -40,-102"
           id="path9404" />
      </g>
      <g
         id="use466"
         style="fill:#333333"
         transform="matrix(9.327841,0,0,-9.327841,95.925098,102.43294)">
        <path
           transform="matrix(0.001,0,0,0.001,0,0)"
           d="m 177,388 c -37,13 -64,32 -82,57 -18,24 -26,54 -26,89 0,52 18,95 56,131 38,36 88,54 150,54 62,0 113,-19 151,-55 38,-36 57,-80 57,-132 0,-34 -9,-63 -26,-87 -18,-25 -44,-44 -80,-57 44,-14 77,-37 100,-69 23,-32 35,-70 35,-114 C 512,143 490,92 447,51 403,9 346,-11 276,-11 205,-11 148,9 105,51 62,92 41,144 41,207 c 0,46 11,85 35,117 23,31 57,52 101,64 m -18,149 c 0,-34 11,-62 33,-83 22,-22 50,-32 85,-32 34,0 61,10 83,32 22,21 33,47 33,78 0,32 -12,59 -34,81 -22,22 -50,33 -83,33 -34,0 -62,-11 -84,-32 -22,-22 -33,-47 -33,-77 M 131,207 c 0,-26 6,-50 18,-73 12,-24 29,-42 53,-55 23,-13 48,-19 75,-19 42,0 76,13 104,40 27,27 41,62 41,104 0,42 -14,76 -42,104 -28,28 -64,42 -106,42 -42,0 -76,-14 -103,-41 -27,-28 -40,-62 -40,-102"
           id="path9408" />
      </g>
      <g
         clip-path="url(#clip_14)"
         id="g470">
        <path
           transform="matrix(0.38866,0,0,-0.38866,77.143,220.836)"
           stroke-width="1"
           stroke-linecap="round"
           stroke-linejoin="round"
           fill="none"
           stroke="#ffffff"
           d="M 68.66875,370.07313 H 515.0687"
           id="path468" />
      </g>
      <g
         id="use472"
         style="fill:#333333"
         transform="matrix(9.327841,0,0,-9.327841,90.738819,80.343418)">
        <path
           transform="matrix(0.001,0,0,0.001,0,0)"
           d="m 55,166 84,7 c 7,-40 21,-68 41,-86 20,-18 46,-27 78,-27 26,0 50,6 70,18 20,12 37,29 50,50 13,20 24,48 33,84 9,35 14,71 14,107 0,4 -1,10 -1,18 -18,-28 -42,-51 -72,-68 -30,-18 -63,-26 -99,-26 -59,0 -109,21 -150,64 -41,43 -61,100 -61,170 0,72 21,131 64,175 42,44 96,67 161,67 46,0 88,-13 127,-38 38,-25 68,-61 88,-107 20,-47 30,-114 30,-201 C 512,281 502,208 482,154 462,100 433,59 394,31 354,3 308,-11 256,-11 200,-11 154,4 118,35 82,65 61,109 55,166 m 360,315 c 0,50 -14,90 -41,120 -27,30 -59,45 -97,45 -39,0 -73,-16 -102,-48 -29,-32 -43,-74 -43,-124 0,-46 13,-83 41,-111 27,-29 61,-43 102,-43 40,0 74,14 100,43 26,28 40,68 40,118"
           id="path9380" />
      </g>
      <g
         id="use474"
         style="fill:#333333"
         transform="matrix(9.327841,0,0,-9.327841,95.925098,80.343418)">
        <path
           transform="matrix(0.001,0,0,0.001,0,0)"
           d="m 42,353 c 0,84 8,152 26,204 17,52 43,92 77,120 34,28 78,42 130,42 38,0 72,-8 101,-24 28,-16 52,-38 71,-67 19,-29 34,-64 45,-106 10,-42 16,-99 16,-169 0,-84 -9,-152 -26,-204 C 465,97 439,58 405,30 371,2 327,-11 275,-11 205,-11 151,13 112,62 65,121 42,218 42,353 m 90,0 c 0,-118 13,-196 41,-235 27,-39 61,-58 102,-58 40,0 73,19 101,58 28,39 42,117 42,235 0,118 -14,196 -42,235 -28,38 -62,58 -102,58 -41,0 -73,-17 -97,-51 -30,-44 -45,-125 -45,-242"
           id="path9212" />
      </g>
      <g
         id="use476"
         style="fill:#333333"
         transform="matrix(0,-10.105161,-10.105161,0,87.17407,149.46077)">
        <path
           transform="matrix(0.001,0,0,0.001,0,0)"
           d="m 45,230 89,8 c 4,-36 14,-66 30,-89 15,-23 39,-41 72,-55 32,-14 69,-21 110,-21 36,0 67,5 95,16 28,10 48,25 62,44 13,18 20,39 20,61 0,22 -7,42 -20,59 -13,16 -34,30 -64,42 -19,8 -61,19 -127,35 -66,16 -112,31 -138,45 -34,18 -60,40 -77,66 -17,26 -25,56 -25,90 0,36 10,69 31,101 20,31 50,55 90,71 39,16 83,25 131,25 53,0 100,-9 140,-26 40,-17 72,-42 94,-75 22,-34 33,-71 35,-113 l -91,-7 c -5,45 -21,79 -49,103 -28,23 -70,35 -125,35 -58,0 -99,-11 -125,-32 -26,-21 -39,-46 -39,-76 0,-26 9,-47 27,-63 18,-17 66,-34 143,-52 77,-18 130,-33 159,-45 41,-20 72,-44 92,-73 20,-30 30,-64 30,-102 C 615,164 604,128 582,94 560,60 528,34 488,16 447,-2 401,-11 350,-11 285,-11 231,-2 187,16 143,34 109,63 84,101 59,139 46,182 45,230"
           id="path9488" />
      </g>
      <g
         id="use478"
         style="fill:#333333"
         transform="matrix(0,-10.105161,-10.105161,0,87.17407,142.72064)">
        <path
           transform="matrix(0.001,0,0,0.001,0,0)"
           d="m 404,190 87,-11 C 481,119 457,72 418,39 379,5 331,-11 275,-11 203,-11 146,12 103,58 60,104 39,170 39,257 c 0,56 9,105 28,147 18,42 46,73 84,94 38,21 79,32 124,32 56,0 102,-15 138,-43 36,-28 59,-69 69,-121 l -85,-13 c -8,34 -23,60 -43,78 -21,18 -46,27 -75,27 -45,0 -81,-16 -109,-48 -28,-32 -41,-82 -41,-150 0,-70 13,-121 40,-152 26,-32 61,-47 105,-47 34,0 63,10 86,31 23,21 38,54 44,98"
           id="path9480" />
      </g>
      <g
         id="use480"
         style="fill:#333333"
         transform="matrix(0,-10.105161,-10.105161,0,87.17407,137.66806)">
        <path
           transform="matrix(0.001,0,0,0.001,0,0)"
           d="m 33,259 c 0,96 26,167 80,214 44,38 99,57 163,57 71,0 129,-24 175,-70 45,-47 68,-111 68,-193 C 519,200 509,147 489,109 469,71 439,41 401,20 363,0 321,-11 276,-11 203,-11 144,12 100,58 55,104 33,171 33,259 m 91,0 c 0,-66 14,-116 43,-149 28,-33 65,-49 109,-49 44,0 80,16 109,49 29,33 44,84 44,152 0,64 -15,112 -44,146 -30,33 -66,50 -109,50 -44,0 -81,-17 -109,-50 -29,-33 -43,-83 -43,-149"
           id="path9424" />
      </g>
      <g
         id="use482"
         style="fill:#333333"
         transform="matrix(0,-10.105161,-10.105161,0,87.17407,132.04958)">
        <path
           transform="matrix(0.001,0,0,0.001,0,0)"
           d="m 65,0 v 519 h 79 v -79 c 20,36 38,60 56,72 17,12 36,18 56,18 30,0 60,-10 91,-28 l -31,-82 c -22,12 -43,19 -64,19 -20,0 -37,-6 -52,-17 -16,-12 -27,-28 -33,-48 -10,-32 -14,-66 -14,-103 V 0 H 65"
           id="path9416" />
      </g>
      <g
         id="use484"
         style="fill:#333333"
         transform="matrix(0,-10.105161,-10.105161,0,87.17407,128.68456)">
        <path
           transform="matrix(0.001,0,0,0.001,0,0)"
           d="m 421,167 91,-11 C 497,102 470,61 432,32 393,3 344,-11 284,-11 208,-11 147,12 103,58 59,104 37,170 37,255 c 0,87 22,155 67,203 44,48 103,72 175,72 69,0 126,-24 170,-71 44,-47 66,-113 66,-199 0,-6 -1,-13 -1,-23 H 127 c 3,-58 19,-101 48,-131 29,-30 65,-45 109,-45 32,0 60,8 83,25 22,16 40,43 54,81 M 132,309 h 290 c -4,44 -15,76 -33,98 -28,34 -65,51 -109,51 -41,0 -75,-14 -102,-41 -28,-27 -43,-63 -46,-108"
           id="path9376" />
      </g>
      <g
         clip-path="url(#clip_15)"
         id="g488">
        <path
           transform="matrix(0.38866,0,0,-0.38866,77.143,220.836)"
           d="M 88.959659,161.71923 V 75.6889 l 101.454541,24.13734 101.45455,11.56975 101.45455,62.60165 101.45454,-9.03278 v 3.07251 L 393.3233,185.07573 291.86875,186.84476 190.4142,137.5819 Z"
           fill="#4c72b0"
           fill-opacity="0.5"
           id="path486" />
      </g>
      <g
         clip-path="url(#clip_16)"
         id="g492">
        <path
           transform="matrix(0.38866,0,0,-0.38866,77.143,220.836)"
           d="M 88.959659,276.98338 V 214.6182 l 101.454541,-0.70475 101.45455,2.62121 101.45455,-1.0188 101.45454,33.13304 v 37.75565 L 393.3233,278.2583 291.86875,272.91343 190.4142,260.30735 Z"
           fill="#55a868"
           fill-opacity="0.5"
           id="path490" />
      </g>
      <g
         clip-path="url(#clip_17)"
         id="g496">
        <path
           transform="matrix(0.38866,0,0,-0.38866,77.143,220.836)"
           d="m 88.959659,119.70242 v -13.48219 l 101.454541,2.06024 101.45455,-7.37761 101.45455,-0.5047 101.45454,3.85185 v 21.25184 L 393.3233,141.77112 291.86875,136.25939 190.4142,121.84355 Z"
           fill="#c44e52"
           fill-opacity="0.5"
           id="path494" />
      </g>
      <g
         clip-path="url(#clip_18)"
         id="g500">
        <path
           transform="matrix(0.38866,0,0,-0.38866,77.143,220.836)"
           d="m 88.959659,152.63384 v -10.14801 l 101.454541,2.05261 101.45455,2.80498 101.45455,11.99513 101.45454,-1.71249 v 14.8009 L 393.3233,214.289 291.86875,158.90186 190.4142,192.2008 Z"
           fill="#8172b2"
           fill-opacity="0.5"
           id="path498" />
      </g>
      <g
         clip-path="url(#clip_19)"
         id="g534">
        <path
           transform="matrix(0.38866,0,0,-0.38866,77.143,220.836)"
           stroke-width="3"
           stroke-linecap="round"
           stroke-linejoin="round"
           fill="none"
           stroke="#4c72b0"
           d="M 88.959659,118.70406 H 190.4142 l 101.45455,30.41632 101.45455,30.4163 101.45454,-13.03556"
           id="path502" />
        <g
           clip-path="url(#clip_20)"
           id="g508">
          <path
             transform="matrix(0.38866,0,0,-0.38866,111.71806,174.70047)"
             d="M 0,-10.606602 6.363961,0 0,10.606602 -6.363961,0 Z"
             fill="#4c72b0"
             id="path504" />
          <path
             transform="matrix(0.38866,0,0,-0.38866,111.71806,174.70047)"
             stroke-width="2"
             stroke-linecap="butt"
             stroke-miterlimit="10"
             stroke-linejoin="miter"
             fill="none"
             stroke="#4c72b0"
             d="M 0,-10.606602 6.363961,0 0,10.606602 -6.363961,0 Z"
             id="path506" />
        </g>
        <g
           clip-path="url(#clip_21)"
           id="g514">
          <path
             transform="matrix(0.38866,0,0,-0.38866,151.14939,174.70047)"
             d="M 0,-10.606602 6.363961,0 0,10.606602 -6.363961,0 Z"
             fill="#4c72b0"
             id="path510" />
          <path
             transform="matrix(0.38866,0,0,-0.38866,151.14939,174.70047)"
             stroke-width="2"
             stroke-linecap="butt"
             stroke-miterlimit="10"
             stroke-linejoin="miter"
             fill="none"
             stroke="#4c72b0"
             d="M 0,-10.606602 6.363961,0 0,10.606602 -6.363961,0 Z"
             id="path512" />
        </g>
        <g
           clip-path="url(#clip_22)"
           id="g520">
          <path
             transform="matrix(0.38866,0,0,-0.38866,190.5807,162.87886)"
             d="M 0,-10.606602 6.363961,0 0,10.606602 -6.363961,0 Z"
             fill="#4c72b0"
             id="path516" />
          <path
             transform="matrix(0.38866,0,0,-0.38866,190.5807,162.87886)"
             stroke-width="2"
             stroke-linecap="butt"
             stroke-miterlimit="10"
             stroke-linejoin="miter"
             fill="none"
             stroke="#4c72b0"
             d="M 0,-10.606602 6.363961,0 0,10.606602 -6.363961,0 Z"
             id="path518" />
        </g>
        <g
           clip-path="url(#clip_23)"
           id="g526">
          <path
             transform="matrix(0.38866,0,0,-0.38866,230.01203,151.05725)"
             d="M 0,-10.606602 6.363961,0 0,10.606602 -6.363961,0 Z"
             fill="#4c72b0"
             id="path522" />
          <path
             transform="matrix(0.38866,0,0,-0.38866,230.01203,151.05725)"
             stroke-width="2"
             stroke-linecap="butt"
             stroke-miterlimit="10"
             stroke-linejoin="miter"
             fill="none"
             stroke="#4c72b0"
             d="M 0,-10.606602 6.363961,0 0,10.606602 -6.363961,0 Z"
             id="path524" />
        </g>
        <g
           clip-path="url(#clip_24)"
           id="g532">
          <path
             transform="matrix(0.38866,0,0,-0.38866,269.44337,156.12366)"
             d="M 0,-10.606602 6.363961,0 0,10.606602 -6.363961,0 Z"
             fill="#4c72b0"
             id="path528" />
          <path
             transform="matrix(0.38866,0,0,-0.38866,269.44337,156.12366)"
             stroke-width="2"
             stroke-linecap="butt"
             stroke-miterlimit="10"
             stroke-linejoin="miter"
             fill="none"
             stroke="#4c72b0"
             d="M 0,-10.606602 6.363961,0 0,10.606602 -6.363961,0 Z"
             id="path530" />
        </g>
      </g>
      <g
         clip-path="url(#clip_25)"
         id="g568">
        <path
           transform="matrix(0.38866,0,0,-0.38866,77.143,220.836)"
           stroke-width="3"
           stroke-linecap="round"
           stroke-linejoin="round"
           fill="none"
           stroke="#55a868"
           d="m 88.959659,245.80078 101.454541,-8.69036 101.45455,7.61363 101.45455,2.16302 101.45454,20.63963"
           id="path536" />
        <g
           clip-path="url(#clip_26)"
           id="g542">
          <path
             transform="matrix(0.38866,0,0,-0.38866,111.71806,125.30306)"
             d="M 0,-10.606602 6.363961,0 0,10.606602 -6.363961,0 Z"
             fill="#55a868"
             id="path538" />
          <path
             transform="matrix(0.38866,0,0,-0.38866,111.71806,125.30306)"
             stroke-width="2"
             stroke-linecap="butt"
             stroke-miterlimit="10"
             stroke-linejoin="miter"
             fill="none"
             stroke="#55a868"
             d="M 0,-10.606602 6.363961,0 0,10.606602 -6.363961,0 Z"
             id="path540" />
        </g>
        <g
           clip-path="url(#clip_27)"
           id="g548">
          <path
             transform="matrix(0.38866,0,0,-0.38866,151.14939,128.68067)"
             d="M 0,-10.606602 6.363961,0 0,10.606602 -6.363961,0 Z"
             fill="#55a868"
             id="path544" />
          <path
             transform="matrix(0.38866,0,0,-0.38866,151.14939,128.68067)"
             stroke-width="2"
             stroke-linecap="butt"
             stroke-miterlimit="10"
             stroke-linejoin="miter"
             fill="none"
             stroke="#55a868"
             d="M 0,-10.606602 6.363961,0 0,10.606602 -6.363961,0 Z"
             id="path546" />
        </g>
        <g
           clip-path="url(#clip_28)"
           id="g554">
          <path
             transform="matrix(0.38866,0,0,-0.38866,190.5807,125.72155)"
             d="M 0,-10.606602 6.363961,0 0,10.606602 -6.363961,0 Z"
             fill="#55a868"
             id="path550" />
          <path
             transform="matrix(0.38866,0,0,-0.38866,190.5807,125.72155)"
             stroke-width="2"
             stroke-linecap="butt"
             stroke-miterlimit="10"
             stroke-linejoin="miter"
             fill="none"
             stroke="#55a868"
             d="M 0,-10.606602 6.363961,0 0,10.606602 -6.363961,0 Z"
             id="path552" />
        </g>
        <g
           clip-path="url(#clip_29)"
           id="g560">
          <path
             transform="matrix(0.38866,0,0,-0.38866,230.01203,124.88087)"
             d="M 0,-10.606602 6.363961,0 0,10.606602 -6.363961,0 Z"
             fill="#55a868"
             id="path556" />
          <path
             transform="matrix(0.38866,0,0,-0.38866,230.01203,124.88087)"
             stroke-width="2"
             stroke-linecap="butt"
             stroke-miterlimit="10"
             stroke-linejoin="miter"
             fill="none"
             stroke="#55a868"
             d="M 0,-10.606602 6.363961,0 0,10.606602 -6.363961,0 Z"
             id="path558" />
        </g>
        <g
           clip-path="url(#clip_30)"
           id="g566">
          <path
             transform="matrix(0.38866,0,0,-0.38866,269.44337,116.85906)"
             d="M 0,-10.606602 6.363961,0 0,10.606602 -6.363961,0 Z"
             fill="#55a868"
             id="path562" />
          <path
             transform="matrix(0.38866,0,0,-0.38866,269.44337,116.85906)"
             stroke-width="2"
             stroke-linecap="butt"
             stroke-miterlimit="10"
             stroke-linejoin="miter"
             fill="none"
             stroke="#55a868"
             d="M 0,-10.606602 6.363961,0 0,10.606602 -6.363961,0 Z"
             id="path564" />
        </g>
      </g>
      <g
         clip-path="url(#clip_31)"
         id="g602">
        <path
           transform="matrix(0.38866,0,0,-0.38866,77.143,220.836)"
           stroke-width="3"
           stroke-linecap="round"
           stroke-linejoin="round"
           fill="none"
           stroke="#c44e52"
           d="m 88.959659,112.96133 101.454541,2.10068 101.45455,3.51911 101.45455,2.50352 101.45454,-6.20872"
           id="path570" />
        <g
           clip-path="url(#clip_32)"
           id="g576">
          <path
             transform="matrix(0.38866,0,0,-0.38866,111.71806,176.93245)"
             d="m -7.5,-7.5 15,15 m -15,0 15,-15"
             fill="#c44e52"
             id="path572" />
          <path
             transform="matrix(0.38866,0,0,-0.38866,111.71806,176.93245)"
             stroke-width="2"
             stroke-linecap="butt"
             stroke-linejoin="round"
             fill="none"
             stroke="#c44e52"
             d="m -7.5,-7.5 15,15 m -15,0 15,-15"
             id="path574" />
        </g>
        <g
           clip-path="url(#clip_33)"
           id="g582">
          <path
             transform="matrix(0.38866,0,0,-0.38866,151.14939,176.116)"
             d="m -7.5,-7.5 15,15 m -15,0 15,-15"
             fill="#c44e52"
             id="path578" />
          <path
             transform="matrix(0.38866,0,0,-0.38866,151.14939,176.116)"
             stroke-width="2"
             stroke-linecap="butt"
             stroke-linejoin="round"
             fill="none"
             stroke="#c44e52"
             d="m -7.5,-7.5 15,15 m -15,0 15,-15"
             id="path580" />
        </g>
        <g
           clip-path="url(#clip_34)"
           id="g588">
          <path
             transform="matrix(0.38866,0,0,-0.38866,190.5807,174.74826)"
             d="m -7.5,-7.5 15,15 m -15,0 15,-15"
             fill="#c44e52"
             id="path584" />
          <path
             transform="matrix(0.38866,0,0,-0.38866,190.5807,174.74826)"
             stroke-width="2"
             stroke-linecap="butt"
             stroke-linejoin="round"
             fill="none"
             stroke="#c44e52"
             d="m -7.5,-7.5 15,15 m -15,0 15,-15"
             id="path586" />
        </g>
        <g
           clip-path="url(#clip_35)"
           id="g594">
          <path
             transform="matrix(0.38866,0,0,-0.38866,230.01203,173.77524)"
             d="m -7.5,-7.5 15,15 m -15,0 15,-15"
             fill="#c44e52"
             id="path590" />
          <path
             transform="matrix(0.38866,0,0,-0.38866,230.01203,173.77524)"
             stroke-width="2"
             stroke-linecap="butt"
             stroke-linejoin="round"
             fill="none"
             stroke="#c44e52"
             d="m -7.5,-7.5 15,15 m -15,0 15,-15"
             id="path592" />
        </g>
        <g
           clip-path="url(#clip_36)"
           id="g600">
          <path
             transform="matrix(0.38866,0,0,-0.38866,269.44337,176.18833)"
             d="m -7.5,-7.5 15,15 m -15,0 15,-15"
             fill="#c44e52"
             id="path596" />
          <path
             transform="matrix(0.38866,0,0,-0.38866,269.44337,176.18833)"
             stroke-width="2"
             stroke-linecap="butt"
             stroke-linejoin="round"
             fill="none"
             stroke="#c44e52"
             d="m -7.5,-7.5 15,15 m -15,0 15,-15"
             id="path598" />
        </g>
      </g>
      <g
         clip-path="url(#clip_37)"
         id="g636">
        <path
           transform="matrix(0.38866,0,0,-0.38866,77.143,220.836)"
           stroke-width="3"
           stroke-linecap="round"
           stroke-linejoin="round"
           fill="none"
           stroke="#8172b2"
           d="M 88.959659,147.55983 190.4142,168.36963 291.86875,153.12264 393.3233,186.81378 494.77784,165.0265"
           id="path604" />
        <g
           clip-path="url(#clip_38)"
           id="g610">
          <path
             transform="matrix(0.38866,0,0,-0.38866,111.71806,163.4854)"
             d="m -7.5,-7.5 15,15 m -15,0 15,-15"
             fill="#8172b2"
             id="path606" />
          <path
             transform="matrix(0.38866,0,0,-0.38866,111.71806,163.4854)"
             stroke-width="2"
             stroke-linecap="butt"
             stroke-linejoin="round"
             fill="none"
             stroke="#8172b2"
             d="m -7.5,-7.5 15,15 m -15,0 15,-15"
             id="path608" />
        </g>
        <g
           clip-path="url(#clip_39)"
           id="g616">
          <path
             transform="matrix(0.38866,0,0,-0.38866,151.14939,155.39746)"
             d="m -7.5,-7.5 15,15 m -15,0 15,-15"
             fill="#8172b2"
             id="path612" />
          <path
             transform="matrix(0.38866,0,0,-0.38866,151.14939,155.39746)"
             stroke-width="2"
             stroke-linecap="butt"
             stroke-linejoin="round"
             fill="none"
             stroke="#8172b2"
             d="m -7.5,-7.5 15,15 m -15,0 15,-15"
             id="path614" />
        </g>
        <g
           clip-path="url(#clip_40)"
           id="g622">
          <path
             transform="matrix(0.38866,0,0,-0.38866,190.5807,161.32335)"
             d="m -7.5,-7.5 15,15 m -15,0 15,-15"
             fill="#8172b2"
             id="path618" />
          <path
             transform="matrix(0.38866,0,0,-0.38866,190.5807,161.32335)"
             stroke-width="2"
             stroke-linecap="butt"
             stroke-linejoin="round"
             fill="none"
             stroke="#8172b2"
             d="m -7.5,-7.5 15,15 m -15,0 15,-15"
             id="path620" />
        </g>
        <g
           clip-path="url(#clip_41)"
           id="g628">
          <path
             transform="matrix(0.38866,0,0,-0.38866,230.01203,148.22896)"
             d="m -7.5,-7.5 15,15 m -15,0 15,-15"
             fill="#8172b2"
             id="path624" />
          <path
             transform="matrix(0.38866,0,0,-0.38866,230.01203,148.22896)"
             stroke-width="2"
             stroke-linecap="butt"
             stroke-linejoin="round"
             fill="none"
             stroke="#8172b2"
             d="m -7.5,-7.5 15,15 m -15,0 15,-15"
             id="path626" />
        </g>
        <g
           clip-path="url(#clip_42)"
           id="g634">
          <path
             transform="matrix(0.38866,0,0,-0.38866,269.44337,156.6968)"
             d="m -7.5,-7.5 15,15 m -15,0 15,-15"
             fill="#8172b2"
             id="path630" />
          <path
             transform="matrix(0.38866,0,0,-0.38866,269.44337,156.6968)"
             stroke-width="2"
             stroke-linecap="butt"
             stroke-linejoin="round"
             fill="none"
             stroke="#8172b2"
             d="m -7.5,-7.5 15,15 m -15,0 15,-15"
             id="path632" />
        </g>
      </g>
      <g
         id="g642">
        <path
           transform="matrix(0.38866,0,0,-0.38866,77.143,220.836)"
           d="m 82.46875,301.67314 h 420.00001 c 2.39999,0 3.60001,1.20001 3.60001,3.6 v 52.19996 c 0,2.40005 -1.20002,3.60003 -3.60001,3.60003 H 82.46875 c -2.4,0 -3.6,-1.19998 -3.6,-3.60003 v -52.19996 c 0,-2.39999 1.2,-3.6 3.6,-3.6 z"
           fill="#eaeaf2"
           fill-opacity="0.85"
           id="path638" />
        <path
           transform="matrix(0.38866,0,0,-0.38866,77.143,220.836)"
           stroke-width="0.3"
           stroke-linecap="butt"
           stroke-miterlimit="10"
           stroke-linejoin="miter"
           fill="none"
           stroke="#d5d6d5"
           stroke-opacity="0.85"
           d="m 82.46875,301.67314 h 420.00001 c 2.39999,0 3.60001,1.20001 3.60001,3.6 v 52.19996 c 0,2.40005 -1.20002,3.60003 -3.60001,3.60003 H 82.46875 c -2.4,0 -3.6,-1.19998 -3.6,-3.60003 v -52.19996 c 0,-2.39999 1.2,-3.6 3.6,-3.6 z"
           id="path640" />
      </g>
      <path
         transform="matrix(0.38866,0,0,-0.38866,77.143,220.836)"
         stroke-width="3"
         stroke-linecap="round"
         stroke-linejoin="round"
         fill="none"
         stroke="#4c72b0"
         d="m 86.06875,346.17314 h 36"
         id="path644" />
      <path
         transform="matrix(0.38866,0,0,-0.38866,77.143,220.836)"
         d="m 104.06875,335.56654 6.36396,10.6066 -6.36396,10.60659 -6.36396,-10.60659 z"
         fill="#4c72b0"
         id="path646" />
      <path
         transform="matrix(0.38866,0,0,-0.38866,77.143,220.836)"
         stroke-width="2"
         stroke-linecap="butt"
         stroke-miterlimit="10"
         stroke-linejoin="miter"
         fill="none"
         stroke="#4c72b0"
         d="m 104.06875,335.56654 6.36396,10.6066 -6.36396,10.60659 -6.36396,-10.60659 z"
         id="path648" />
      <g
         id="use650"
         style="fill:#333333"
         transform="matrix(6.99588,0,0,-6.99588,130.18296,88.49192)">
        <path
           transform="matrix(0.001,0,0,0.001,0,0)"
           d="m 45,230 89,8 c 4,-36 14,-66 30,-89 15,-23 39,-41 72,-55 32,-14 69,-21 110,-21 36,0 67,5 95,16 28,10 48,25 62,44 13,18 20,39 20,61 0,22 -7,42 -20,59 -13,16 -34,30 -64,42 -19,8 -61,19 -127,35 -66,16 -112,31 -138,45 -34,18 -60,40 -77,66 -17,26 -25,56 -25,90 0,36 10,69 31,101 20,31 50,55 90,71 39,16 83,25 131,25 53,0 100,-9 140,-26 40,-17 72,-42 94,-75 22,-34 33,-71 35,-113 l -91,-7 c -5,45 -21,79 -49,103 -28,23 -70,35 -125,35 -58,0 -99,-11 -125,-32 -26,-21 -39,-46 -39,-76 0,-26 9,-47 27,-63 18,-17 66,-34 143,-52 77,-18 130,-33 159,-45 41,-20 72,-44 92,-73 20,-30 30,-64 30,-102 C 615,164 604,128 582,94 560,60 528,34 488,16 447,-2 401,-11 350,-11 285,-11 231,-2 187,16 143,34 109,63 84,101 59,139 46,182 45,230"
           id="path9492" />
      </g>
      <g
         id="use652"
         style="fill:#333333"
         transform="matrix(6.99588,0,0,-6.99588,134.84915,88.49192)">
        <path
           transform="matrix(0.001,0,0,0.001,0,0)"
           d="m 45,230 89,8 c 4,-36 14,-66 30,-89 15,-23 39,-41 72,-55 32,-14 69,-21 110,-21 36,0 67,5 95,16 28,10 48,25 62,44 13,18 20,39 20,61 0,22 -7,42 -20,59 -13,16 -34,30 -64,42 -19,8 -61,19 -127,35 -66,16 -112,31 -138,45 -34,18 -60,40 -77,66 -17,26 -25,56 -25,90 0,36 10,69 31,101 20,31 50,55 90,71 39,16 83,25 131,25 53,0 100,-9 140,-26 40,-17 72,-42 94,-75 22,-34 33,-71 35,-113 l -91,-7 c -5,45 -21,79 -49,103 -28,23 -70,35 -125,35 -58,0 -99,-11 -125,-32 -26,-21 -39,-46 -39,-76 0,-26 9,-47 27,-63 18,-17 66,-34 143,-52 77,-18 130,-33 159,-45 41,-20 72,-44 92,-73 20,-30 30,-64 30,-102 C 615,164 604,128 582,94 560,60 528,34 488,16 447,-2 401,-11 350,-11 285,-11 231,-2 187,16 143,34 109,63 84,101 59,139 46,182 45,230"
           id="path9496" />
      </g>
      <g
         id="use654"
         style="fill:#333333"
         transform="matrix(6.99588,0,0,-6.99588,139.51535,88.49192)">
        <path
           transform="matrix(0.001,0,0,0.001,0,0)"
           d="M 259,0 V 631 H 23 v 85 H 591 V 631 H 354 V 0 h -95"
           id="path9368" />
      </g>
      <g
         id="use656"
         style="fill:#333333"
         transform="matrix(6.99588,0,0,-6.99588,143.78871,88.49192)">
        <path
           transform="matrix(0.001,0,0,0.001,0,0)"
           d="m 32,215 v 88 H 302 V 215 H 32"
           id="path9360" />
      </g>
      <g
         id="use658"
         style="fill:#333333"
         transform="matrix(6.99588,0,0,-6.99588,146.1184,88.49192)">
        <path
           transform="matrix(0.001,0,0,0.001,0,0)"
           d="M 503,84 V 0 H 30 c -1,21 3,41 11,61 12,32 31,63 57,95 26,31 65,67 115,109 78,63 130,113 158,151 27,37 41,72 41,106 0,34 -13,64 -38,88 -25,24 -57,36 -97,36 -42,0 -76,-13 -101,-38 -26,-26 -39,-61 -39,-106 l -90,10 c 6,67 29,118 69,154 40,35 95,53 163,53 68,0 123,-20 163,-58 40,-38 60,-85 60,-141 0,-29 -6,-57 -18,-85 C 472,407 453,378 426,348 399,317 354,275 291,222 238,178 204,148 189,132 174,116 162,100 152,84 h 351"
           id="path9528" />
      </g>
      <g
         id="use660"
         style="fill:#333333"
         transform="matrix(6.99588,0,0,-6.99588,150.00917,88.49192)" />
      <g
         id="use662"
         style="fill:#333333"
         transform="matrix(6.99588,0,0,-6.99588,151.95285,88.49192)">
        <path
           transform="matrix(0.001,0,0,0.001,0,0)"
           d="M 234,-209 C 185,-148 144,-77 111,4 77,86 61,171 61,259 c 0,77 12,151 37,223 29,82 74,164 136,246 h 63 C 257,660 231,611 219,583 199,538 183,491 172,442 158,381 151,320 151,259 151,102 199,-53 297,-209 h -63"
           id="path9344" />
      </g>
      <g
         id="use664"
         style="fill:#333333"
         transform="matrix(6.99588,0,0,-6.99588,154.28253,88.49192)">
        <path
           transform="matrix(0.001,0,0,0.001,0,0)"
           d="m 169,729 h 99 L 208,422 591,729 H 722 L 289,381 606,0 H 486 L 195,355 126,0 H 27 l 142,729"
           id="path9328" />
      </g>
      <g
         id="use666"
         style="fill:#333333"
         transform="matrix(6.99588,0,0,-6.99588,160.23313,88.49192)">
        <path
           transform="matrix(0.001,0,0,0.001,0,0)"
           d="M 106,454 H 732 V 372 H 106 v 82 m 0,-199 H 732 V 172 H 106 v 83"
           id="path9312" />
      </g>
      <g
         id="use668"
         style="fill:#333333"
         transform="matrix(6.99588,0,0,-6.99588,167.45789,88.49192)">
        <path
           transform="matrix(0.001,0,0,0.001,0,0)"
           d="M 124,83 H 285 V 639 L 110,604 v 90 l 174,35 h 99 V 83 H 544 V 0 H 124 v 83"
           id="path9304" />
      </g>
      <g
         id="use670"
         style="fill:#333333"
         transform="matrix(6.99588,0,0,-6.99588,171.90888,88.49192)">
        <path
           transform="matrix(0.001,0,0,0.001,0,0)"
           d="m 318,664 c -51,0 -89,-25 -115,-75 -26,-50 -38,-125 -38,-225 0,-100 12,-175 38,-225 26,-50 64,-75 115,-75 51,0 89,25 115,75 25,50 38,125 38,225 0,100 -13,175 -38,225 -26,50 -64,75 -115,75 m 0,78 c 81,0 143,-33 187,-97 43,-65 65,-159 65,-281 C 570,241 548,147 505,83 461,19 399,-13 318,-13 236,-13 173,19 130,83 87,147 66,241 66,364 c 0,122 21,216 64,281 43,64 106,97 188,97"
           id="path9272" />
      </g>
      <g
         id="use672"
         style="fill:#333333"
         transform="matrix(6.99588,0,0,-6.99588,176.35987,88.49192)">
        <path
           transform="matrix(0.001,0,0,0.001,0,0)"
           d="m 318,664 c -51,0 -89,-25 -115,-75 -26,-50 -38,-125 -38,-225 0,-100 12,-175 38,-225 26,-50 64,-75 115,-75 51,0 89,25 115,75 25,50 38,125 38,225 0,100 -13,175 -38,225 -26,50 -64,75 -115,75 m 0,78 c 81,0 143,-33 187,-97 43,-65 65,-159 65,-281 C 570,241 548,147 505,83 461,19 399,-13 318,-13 236,-13 173,19 130,83 87,147 66,241 66,364 c 0,122 21,216 64,281 43,64 106,97 188,97"
           id="path9276" />
      </g>
      <g
         id="use674"
         style="fill:#333333"
         transform="matrix(6.99588,0,0,-6.99588,180.81085,88.49192)">
        <path
           transform="matrix(0.001,0,0,0.001,0,0)"
           d="M 124,-209 H 61 c 97,156 146,311 146,468 0,61 -7,122 -21,182 -12,48 -27,95 -47,141 -13,28 -39,77 -78,146 h 63 C 184,646 229,564 259,482 284,410 297,336 297,259 297,171 280,86 246,4 212,-77 172,-148 124,-209"
           id="path9256" />
      </g>
      <path
         transform="matrix(0.38866,0,0,-0.38866,77.143,220.836)"
         stroke-width="3"
         stroke-linecap="round"
         stroke-linejoin="round"
         fill="none"
         stroke="#55a868"
         d="m 86.06875,319.17314 h 36"
         id="path676" />
      <path
         transform="matrix(0.38866,0,0,-0.38866,77.143,220.836)"
         d="m 104.06875,308.56654 6.36396,10.6066 -6.36396,10.60659 -6.36396,-10.60659 z"
         fill="#55a868"
         id="path678" />
      <path
         transform="matrix(0.38866,0,0,-0.38866,77.143,220.836)"
         stroke-width="2"
         stroke-linecap="butt"
         stroke-miterlimit="10"
         stroke-linejoin="miter"
         fill="none"
         stroke="#55a868"
         d="m 104.06875,308.56654 6.36396,10.6066 -6.36396,10.60659 -6.36396,-10.60659 z"
         id="path680" />
      <g
         id="use682"
         style="fill:#333333"
         transform="matrix(6.99588,0,0,-6.99588,130.18296,98.98573)">
        <path
           transform="matrix(0.001,0,0,0.001,0,0)"
           d="m 45,230 89,8 c 4,-36 14,-66 30,-89 15,-23 39,-41 72,-55 32,-14 69,-21 110,-21 36,0 67,5 95,16 28,10 48,25 62,44 13,18 20,39 20,61 0,22 -7,42 -20,59 -13,16 -34,30 -64,42 -19,8 -61,19 -127,35 -66,16 -112,31 -138,45 -34,18 -60,40 -77,66 -17,26 -25,56 -25,90 0,36 10,69 31,101 20,31 50,55 90,71 39,16 83,25 131,25 53,0 100,-9 140,-26 40,-17 72,-42 94,-75 22,-34 33,-71 35,-113 l -91,-7 c -5,45 -21,79 -49,103 -28,23 -70,35 -125,35 -58,0 -99,-11 -125,-32 -26,-21 -39,-46 -39,-76 0,-26 9,-47 27,-63 18,-17 66,-34 143,-52 77,-18 130,-33 159,-45 41,-20 72,-44 92,-73 20,-30 30,-64 30,-102 C 615,164 604,128 582,94 560,60 528,34 488,16 447,-2 401,-11 350,-11 285,-11 231,-2 187,16 143,34 109,63 84,101 59,139 46,182 45,230"
           id="path9500" />
      </g>
      <g
         id="use684"
         style="fill:#333333"
         transform="matrix(6.99588,0,0,-6.99588,134.84915,98.98573)">
        <path
           transform="matrix(0.001,0,0,0.001,0,0)"
           d="m 45,230 89,8 c 4,-36 14,-66 30,-89 15,-23 39,-41 72,-55 32,-14 69,-21 110,-21 36,0 67,5 95,16 28,10 48,25 62,44 13,18 20,39 20,61 0,22 -7,42 -20,59 -13,16 -34,30 -64,42 -19,8 -61,19 -127,35 -66,16 -112,31 -138,45 -34,18 -60,40 -77,66 -17,26 -25,56 -25,90 0,36 10,69 31,101 20,31 50,55 90,71 39,16 83,25 131,25 53,0 100,-9 140,-26 40,-17 72,-42 94,-75 22,-34 33,-71 35,-113 l -91,-7 c -5,45 -21,79 -49,103 -28,23 -70,35 -125,35 -58,0 -99,-11 -125,-32 -26,-21 -39,-46 -39,-76 0,-26 9,-47 27,-63 18,-17 66,-34 143,-52 77,-18 130,-33 159,-45 41,-20 72,-44 92,-73 20,-30 30,-64 30,-102 C 615,164 604,128 582,94 560,60 528,34 488,16 447,-2 401,-11 350,-11 285,-11 231,-2 187,16 143,34 109,63 84,101 59,139 46,182 45,230"
           id="path9504" />
      </g>
      <g
         id="use686"
         style="fill:#333333"
         transform="matrix(6.99588,0,0,-6.99588,139.51535,98.98573)">
        <path
           transform="matrix(0.001,0,0,0.001,0,0)"
           d="M 259,0 V 631 H 23 v 85 H 591 V 631 H 354 V 0 h -95"
           id="path9372" />
      </g>
      <g
         id="use688"
         style="fill:#333333"
         transform="matrix(6.99588,0,0,-6.99588,143.78871,98.98573)">
        <path
           transform="matrix(0.001,0,0,0.001,0,0)"
           d="m 32,215 v 88 H 302 V 215 H 32"
           id="path9364" />
      </g>
      <g
         id="use690"
         style="fill:#333333"
         transform="matrix(6.99588,0,0,-6.99588,146.1184,98.98573)">
        <path
           transform="matrix(0.001,0,0,0.001,0,0)"
           d="M 503,84 V 0 H 30 c -1,21 3,41 11,61 12,32 31,63 57,95 26,31 65,67 115,109 78,63 130,113 158,151 27,37 41,72 41,106 0,34 -13,64 -38,88 -25,24 -57,36 -97,36 -42,0 -76,-13 -101,-38 -26,-26 -39,-61 -39,-106 l -90,10 c 6,67 29,118 69,154 40,35 95,53 163,53 68,0 123,-20 163,-58 40,-38 60,-85 60,-141 0,-29 -6,-57 -18,-85 C 472,407 453,378 426,348 399,317 354,275 291,222 238,178 204,148 189,132 174,116 162,100 152,84 h 351"
           id="path9532" />
      </g>
      <g
         id="use692"
         style="fill:#333333"
         transform="matrix(6.99588,0,0,-6.99588,150.00917,98.98573)" />
      <g
         id="use694"
         style="fill:#333333"
         transform="matrix(6.99588,0,0,-6.99588,151.95285,98.98573)">
        <path
           transform="matrix(0.001,0,0,0.001,0,0)"
           d="M 234,-209 C 185,-148 144,-77 111,4 77,86 61,171 61,259 c 0,77 12,151 37,223 29,82 74,164 136,246 h 63 C 257,660 231,611 219,583 199,538 183,491 172,442 158,381 151,320 151,259 151,102 199,-53 297,-209 h -63"
           id="path9348" />
      </g>
      <g
         id="use696"
         style="fill:#333333"
         transform="matrix(6.99588,0,0,-6.99588,154.28253,98.98573)">
        <path
           transform="matrix(0.001,0,0,0.001,0,0)"
           d="m 169,729 h 99 L 208,422 591,729 H 722 L 289,381 606,0 H 486 L 195,355 126,0 H 27 l 142,729"
           id="path9332" />
      </g>
      <g
         id="use698"
         style="fill:#333333"
         transform="matrix(6.99588,0,0,-6.99588,160.23313,98.98573)">
        <path
           transform="matrix(0.001,0,0,0.001,0,0)"
           d="M 106,454 H 732 V 372 H 106 v 82 m 0,-199 H 732 V 172 H 106 v 83"
           id="path9316" />
      </g>
      <g
         id="use700"
         style="fill:#333333"
         transform="matrix(6.99588,0,0,-6.99588,167.45789,98.98573)">
        <path
           transform="matrix(0.001,0,0,0.001,0,0)"
           d="M 108,729 H 495 V 646 H 198 V 467 c 14,5 29,9 43,11 14,2 29,4 43,4 81,0 145,-23 193,-67 48,-45 72,-105 72,-181 C 549,155 524,94 475,51 426,8 357,-13 269,-13 c -31,0 -62,3 -94,7 -32,5 -64,12 -98,23 v 99 c 29,-16 59,-28 91,-36 31,-8 64,-11 99,-11 56,0 101,14 134,44 32,30 49,70 49,121 0,50 -17,90 -49,120 -33,30 -78,45 -134,45 -26,0 -53,-3 -79,-9 -26,-6 -53,-15 -80,-27 v 366"
           id="path9248" />
      </g>
      <g
         id="use702"
         style="fill:#333333"
         transform="matrix(6.99588,0,0,-6.99588,171.90888,98.98573)">
        <path
           transform="matrix(0.001,0,0,0.001,0,0)"
           d="m 318,664 c -51,0 -89,-25 -115,-75 -26,-50 -38,-125 -38,-225 0,-100 12,-175 38,-225 26,-50 64,-75 115,-75 51,0 89,25 115,75 25,50 38,125 38,225 0,100 -13,175 -38,225 -26,50 -64,75 -115,75 m 0,78 c 81,0 143,-33 187,-97 43,-65 65,-159 65,-281 C 570,241 548,147 505,83 461,19 399,-13 318,-13 236,-13 173,19 130,83 87,147 66,241 66,364 c 0,122 21,216 64,281 43,64 106,97 188,97"
           id="path9280" />
      </g>
      <g
         id="use704"
         style="fill:#333333"
         transform="matrix(6.99588,0,0,-6.99588,176.35987,98.98573)">
        <path
           transform="matrix(0.001,0,0,0.001,0,0)"
           d="m 318,664 c -51,0 -89,-25 -115,-75 -26,-50 -38,-125 -38,-225 0,-100 12,-175 38,-225 26,-50 64,-75 115,-75 51,0 89,25 115,75 25,50 38,125 38,225 0,100 -13,175 -38,225 -26,50 -64,75 -115,75 m 0,78 c 81,0 143,-33 187,-97 43,-65 65,-159 65,-281 C 570,241 548,147 505,83 461,19 399,-13 318,-13 236,-13 173,19 130,83 87,147 66,241 66,364 c 0,122 21,216 64,281 43,64 106,97 188,97"
           id="path9284" />
      </g>
      <g
         id="use706"
         style="fill:#333333"
         transform="matrix(6.99588,0,0,-6.99588,180.81085,98.98573)">
        <path
           transform="matrix(0.001,0,0,0.001,0,0)"
           d="M 124,-209 H 61 c 97,156 146,311 146,468 0,61 -7,122 -21,182 -12,48 -27,95 -47,141 -13,28 -39,77 -78,146 h 63 C 184,646 229,564 259,482 284,410 297,336 297,259 297,171 280,86 246,4 212,-77 172,-148 124,-209"
           id="path9260" />
      </g>
      <path
         transform="matrix(0.38866,0,0,-0.38866,77.143,220.836)"
         stroke-width="3"
         stroke-linecap="round"
         stroke-linejoin="round"
         fill="none"
         stroke="#c44e52"
         d="m 309.46876,346.17314 h 36"
         id="path708" />
      <path
         transform="matrix(0.38866,0,0,-0.38866,77.143,220.836)"
         d="m 319.96876,338.67314 15,15 m -15,0 15,-15"
         fill="#c44e52"
         id="path710" />
      <path
         transform="matrix(0.38866,0,0,-0.38866,77.143,220.836)"
         stroke-width="2"
         stroke-linecap="butt"
         stroke-linejoin="round"
         fill="none"
         stroke="#c44e52"
         d="m 319.96876,338.67314 15,15 m -15,0 15,-15"
         id="path712" />
      <g
         id="use714"
         style="fill:#333333"
         transform="matrix(6.99588,0,0,-6.99588,217.00959,88.49192)">
        <path
           transform="matrix(0.001,0,0,0.001,0,0)"
           d="M 74,0 V 716 H 217 L 386,209 c 16,-48 27,-83 34,-106 8,26 21,64 38,115 L 630,716 H 757 V 0 H 666 V 599 L 458,0 H 373 L 166,609 V 0 H 74"
           id="path9240" />
      </g>
      <g
         id="use716"
         style="fill:#333333"
         transform="matrix(6.99588,0,0,-6.99588,222.8372,88.49192)">
        <path
           transform="matrix(0.001,0,0,0.001,0,0)"
           d="m 79,0 v 716 h 317 c 64,0 112,-7 145,-20 33,-13 60,-36 80,-68 20,-32 30,-68 30,-107 0,-52 -17,-95 -50,-129 -33,-35 -84,-57 -152,-66 25,-12 44,-24 57,-36 28,-26 54,-57 79,-95 L 709,0 H 590 l -94,149 c -28,42 -51,75 -69,98 -18,23 -34,39 -48,48 -14,9 -29,15 -43,19 -11,2 -29,4 -53,4 H 173 V 0 H 79 m 94,400 h 204 c 43,0 77,4 101,13 24,9 43,23 56,43 12,20 19,41 19,65 0,33 -13,61 -37,83 -25,22 -64,33 -116,33 H 173 V 400"
           id="path9232" />
      </g>
      <g
         id="use718"
         style="fill:#333333"
         transform="matrix(6.99588,0,0,-6.99588,227.8894,88.49192)">
        <path
           transform="matrix(0.001,0,0,0.001,0,0)"
           d="m 77,0 v 716 h 270 c 47,0 83,-3 109,-7 35,-6 64,-18 88,-34 24,-16 43,-39 58,-69 14,-30 22,-62 22,-97 C 624,447 604,396 565,354 526,312 456,291 355,291 H 172 V 0 H 77 m 95,375 h 185 c 61,0 104,11 130,34 26,23 39,55 39,97 0,30 -8,55 -23,77 -16,21 -36,35 -60,42 -16,4 -46,6 -88,6 H 172 V 375"
           id="path9224" />
      </g>
      <g
         id="use720"
         style="fill:#333333"
         transform="matrix(6.99588,0,0,-6.99588,232.5556,88.49192)">
        <path
           transform="matrix(0.001,0,0,0.001,0,0)"
           d="m 588,251 95,-24 C 663,149 627,89 575,49 523,9 460,-11 386,-11 309,-11 246,4 198,35 149,66 112,111 87,171 62,231 50,295 50,363 c 0,74 14,139 42,195 28,56 69,98 122,127 52,28 110,43 174,43 71,0 131,-19 180,-55 49,-36 83,-87 102,-153 l -93,-22 c -17,52 -41,89 -72,113 -32,24 -71,36 -119,36 -56,0 -102,-14 -139,-40 -37,-26 -63,-62 -78,-106 -15,-44 -22,-90 -22,-137 0,-62 9,-115 27,-160 18,-46 45,-80 83,-102 37,-22 77,-33 121,-33 53,0 98,15 135,46 36,30 61,76 75,136"
           id="path9216" />
      </g>
      <g
         id="use722"
         style="fill:#333333"
         transform="matrix(6.99588,0,0,-6.99588,237.6078,88.49192)" />
      <g
         id="use724"
         style="fill:#333333"
         transform="matrix(6.99588,0,0,-6.99588,239.55149,88.49192)">
        <path
           transform="matrix(0.001,0,0,0.001,0,0)"
           d="M 234,-209 C 185,-148 144,-77 111,4 77,86 61,171 61,259 c 0,77 12,151 37,223 29,82 74,164 136,246 h 63 C 257,660 231,611 219,583 199,538 183,491 172,442 158,381 151,320 151,259 151,102 199,-53 297,-209 h -63"
           id="path9352" />
      </g>
      <g
         id="use726"
         style="fill:#333333"
         transform="matrix(6.99588,0,0,-6.99588,241.88117,88.49192)">
        <path
           transform="matrix(0.001,0,0,0.001,0,0)"
           d="m 169,729 h 99 L 208,422 591,729 H 722 L 289,381 606,0 H 486 L 195,355 126,0 H 27 l 142,729"
           id="path9336" />
      </g>
      <g
         id="use728"
         style="fill:#333333"
         transform="matrix(6.99588,0,0,-6.99588,247.83176,88.49192)">
        <path
           transform="matrix(0.001,0,0,0.001,0,0)"
           d="M 106,454 H 732 V 372 H 106 v 82 m 0,-199 H 732 V 172 H 106 v 83"
           id="path9320" />
      </g>
      <g
         id="use730"
         style="fill:#333333"
         transform="matrix(6.99588,0,0,-6.99588,255.05652,88.49192)">
        <path
           transform="matrix(0.001,0,0,0.001,0,0)"
           d="M 124,83 H 285 V 639 L 110,604 v 90 l 174,35 h 99 V 83 H 544 V 0 H 124 v 83"
           id="path9308" />
      </g>
      <g
         id="use732"
         style="fill:#333333"
         transform="matrix(6.99588,0,0,-6.99588,259.5075,88.49192)">
        <path
           transform="matrix(0.001,0,0,0.001,0,0)"
           d="m 318,664 c -51,0 -89,-25 -115,-75 -26,-50 -38,-125 -38,-225 0,-100 12,-175 38,-225 26,-50 64,-75 115,-75 51,0 89,25 115,75 25,50 38,125 38,225 0,100 -13,175 -38,225 -26,50 -64,75 -115,75 m 0,78 c 81,0 143,-33 187,-97 43,-65 65,-159 65,-281 C 570,241 548,147 505,83 461,19 399,-13 318,-13 236,-13 173,19 130,83 87,147 66,241 66,364 c 0,122 21,216 64,281 43,64 106,97 188,97"
           id="path9288" />
      </g>
      <g
         id="use734"
         style="fill:#333333"
         transform="matrix(6.99588,0,0,-6.99588,263.9585,88.49192)">
        <path
           transform="matrix(0.001,0,0,0.001,0,0)"
           d="m 318,664 c -51,0 -89,-25 -115,-75 -26,-50 -38,-125 -38,-225 0,-100 12,-175 38,-225 26,-50 64,-75 115,-75 51,0 89,25 115,75 25,50 38,125 38,225 0,100 -13,175 -38,225 -26,50 -64,75 -115,75 m 0,78 c 81,0 143,-33 187,-97 43,-65 65,-159 65,-281 C 570,241 548,147 505,83 461,19 399,-13 318,-13 236,-13 173,19 130,83 87,147 66,241 66,364 c 0,122 21,216 64,281 43,64 106,97 188,97"
           id="path9292" />
      </g>
      <g
         id="use736"
         style="fill:#333333"
         transform="matrix(6.99588,0,0,-6.99588,268.4095,88.49192)">
        <path
           transform="matrix(0.001,0,0,0.001,0,0)"
           d="M 124,-209 H 61 c 97,156 146,311 146,468 0,61 -7,122 -21,182 -12,48 -27,95 -47,141 -13,28 -39,77 -78,146 h 63 C 184,646 229,564 259,482 284,410 297,336 297,259 297,171 280,86 246,4 212,-77 172,-148 124,-209"
           id="path9264" />
      </g>
      <path
         transform="matrix(0.38866,0,0,-0.38866,77.143,220.836)"
         stroke-width="3"
         stroke-linecap="round"
         stroke-linejoin="round"
         fill="none"
         stroke="#8172b2"
         d="m 309.46876,319.17314 h 36"
         id="path738" />
      <path
         transform="matrix(0.38866,0,0,-0.38866,77.143,220.836)"
         d="m 319.96876,311.67314 15,15 m -15,0 15,-15"
         fill="#8172b2"
         id="path740" />
      <path
         transform="matrix(0.38866,0,0,-0.38866,77.143,220.836)"
         stroke-width="2"
         stroke-linecap="butt"
         stroke-linejoin="round"
         fill="none"
         stroke="#8172b2"
         d="m 319.96876,311.67314 15,15 m -15,0 15,-15"
         id="path742" />
      <g
         id="use744"
         style="fill:#333333"
         transform="matrix(6.99588,0,0,-6.99588,217.00959,98.98573)">
        <path
           transform="matrix(0.001,0,0,0.001,0,0)"
           d="M 74,0 V 716 H 217 L 386,209 c 16,-48 27,-83 34,-106 8,26 21,64 38,115 L 630,716 H 757 V 0 H 666 V 599 L 458,0 H 373 L 166,609 V 0 H 74"
           id="path9244" />
      </g>
      <g
         id="use746"
         style="fill:#333333"
         transform="matrix(6.99588,0,0,-6.99588,222.8372,98.98573)">
        <path
           transform="matrix(0.001,0,0,0.001,0,0)"
           d="m 79,0 v 716 h 317 c 64,0 112,-7 145,-20 33,-13 60,-36 80,-68 20,-32 30,-68 30,-107 0,-52 -17,-95 -50,-129 -33,-35 -84,-57 -152,-66 25,-12 44,-24 57,-36 28,-26 54,-57 79,-95 L 709,0 H 590 l -94,149 c -28,42 -51,75 -69,98 -18,23 -34,39 -48,48 -14,9 -29,15 -43,19 -11,2 -29,4 -53,4 H 173 V 0 H 79 m 94,400 h 204 c 43,0 77,4 101,13 24,9 43,23 56,43 12,20 19,41 19,65 0,33 -13,61 -37,83 -25,22 -64,33 -116,33 H 173 V 400"
           id="path9236" />
      </g>
      <g
         id="use748"
         style="fill:#333333"
         transform="matrix(6.99588,0,0,-6.99588,227.8894,98.98573)">
        <path
           transform="matrix(0.001,0,0,0.001,0,0)"
           d="m 77,0 v 716 h 270 c 47,0 83,-3 109,-7 35,-6 64,-18 88,-34 24,-16 43,-39 58,-69 14,-30 22,-62 22,-97 C 624,447 604,396 565,354 526,312 456,291 355,291 H 172 V 0 H 77 m 95,375 h 185 c 61,0 104,11 130,34 26,23 39,55 39,97 0,30 -8,55 -23,77 -16,21 -36,35 -60,42 -16,4 -46,6 -88,6 H 172 V 375"
           id="path9228" />
      </g>
      <g
         id="use750"
         style="fill:#333333"
         transform="matrix(6.99588,0,0,-6.99588,232.5556,98.98573)">
        <path
           transform="matrix(0.001,0,0,0.001,0,0)"
           d="m 588,251 95,-24 C 663,149 627,89 575,49 523,9 460,-11 386,-11 309,-11 246,4 198,35 149,66 112,111 87,171 62,231 50,295 50,363 c 0,74 14,139 42,195 28,56 69,98 122,127 52,28 110,43 174,43 71,0 131,-19 180,-55 49,-36 83,-87 102,-153 l -93,-22 c -17,52 -41,89 -72,113 -32,24 -71,36 -119,36 -56,0 -102,-14 -139,-40 -37,-26 -63,-62 -78,-106 -15,-44 -22,-90 -22,-137 0,-62 9,-115 27,-160 18,-46 45,-80 83,-102 37,-22 77,-33 121,-33 53,0 98,15 135,46 36,30 61,76 75,136"
           id="path9220" />
      </g>
      <g
         id="use752"
         style="fill:#333333"
         transform="matrix(6.99588,0,0,-6.99588,237.6078,98.98573)" />
      <g
         id="use754"
         style="fill:#333333"
         transform="matrix(6.99588,0,0,-6.99588,239.55149,98.98573)">
        <path
           transform="matrix(0.001,0,0,0.001,0,0)"
           d="M 234,-209 C 185,-148 144,-77 111,4 77,86 61,171 61,259 c 0,77 12,151 37,223 29,82 74,164 136,246 h 63 C 257,660 231,611 219,583 199,538 183,491 172,442 158,381 151,320 151,259 151,102 199,-53 297,-209 h -63"
           id="path9356" />
      </g>
      <g
         id="use756"
         style="fill:#333333"
         transform="matrix(6.99588,0,0,-6.99588,241.88117,98.98573)">
        <path
           transform="matrix(0.001,0,0,0.001,0,0)"
           d="m 169,729 h 99 L 208,422 591,729 H 722 L 289,381 606,0 H 486 L 195,355 126,0 H 27 l 142,729"
           id="path9340" />
      </g>
      <g
         id="use758"
         style="fill:#333333"
         transform="matrix(6.99588,0,0,-6.99588,247.83176,98.98573)">
        <path
           transform="matrix(0.001,0,0,0.001,0,0)"
           d="M 106,454 H 732 V 372 H 106 v 82 m 0,-199 H 732 V 172 H 106 v 83"
           id="path9324" />
      </g>
      <g
         id="use760"
         style="fill:#333333"
         transform="matrix(6.99588,0,0,-6.99588,255.05652,98.98573)">
        <path
           transform="matrix(0.001,0,0,0.001,0,0)"
           d="M 108,729 H 495 V 646 H 198 V 467 c 14,5 29,9 43,11 14,2 29,4 43,4 81,0 145,-23 193,-67 48,-45 72,-105 72,-181 C 549,155 524,94 475,51 426,8 357,-13 269,-13 c -31,0 -62,3 -94,7 -32,5 -64,12 -98,23 v 99 c 29,-16 59,-28 91,-36 31,-8 64,-11 99,-11 56,0 101,14 134,44 32,30 49,70 49,121 0,50 -17,90 -49,120 -33,30 -78,45 -134,45 -26,0 -53,-3 -79,-9 -26,-6 -53,-15 -80,-27 v 366"
           id="path9252" />
      </g>
      <g
         id="use762"
         style="fill:#333333"
         transform="matrix(6.99588,0,0,-6.99588,259.5075,98.98573)">
        <path
           transform="matrix(0.001,0,0,0.001,0,0)"
           d="m 318,664 c -51,0 -89,-25 -115,-75 -26,-50 -38,-125 -38,-225 0,-100 12,-175 38,-225 26,-50 64,-75 115,-75 51,0 89,25 115,75 25,50 38,125 38,225 0,100 -13,175 -38,225 -26,50 -64,75 -115,75 m 0,78 c 81,0 143,-33 187,-97 43,-65 65,-159 65,-281 C 570,241 548,147 505,83 461,19 399,-13 318,-13 236,-13 173,19 130,83 87,147 66,241 66,364 c 0,122 21,216 64,281 43,64 106,97 188,97"
           id="path9296" />
      </g>
      <g
         id="use764"
         style="fill:#333333"
         transform="matrix(6.99588,0,0,-6.99588,263.9585,98.98573)">
        <path
           transform="matrix(0.001,0,0,0.001,0,0)"
           d="m 318,664 c -51,0 -89,-25 -115,-75 -26,-50 -38,-125 -38,-225 0,-100 12,-175 38,-225 26,-50 64,-75 115,-75 51,0 89,25 115,75 25,50 38,125 38,225 0,100 -13,175 -38,225 -26,50 -64,75 -115,75 m 0,78 c 81,0 143,-33 187,-97 43,-65 65,-159 65,-281 C 570,241 548,147 505,83 461,19 399,-13 318,-13 236,-13 173,19 130,83 87,147 66,241 66,364 c 0,122 21,216 64,281 43,64 106,97 188,97"
           id="path9300" />
      </g>
      <g
         id="use766"
         style="fill:#333333"
         transform="matrix(6.99588,0,0,-6.99588,268.4095,98.98573)">
        <path
           transform="matrix(0.001,0,0,0.001,0,0)"
           d="M 124,-209 H 61 c 97,156 146,311 146,468 0,61 -7,122 -21,182 -12,48 -27,95 -47,141 -13,28 -39,77 -78,146 h 63 C 184,646 229,564 259,482 284,410 297,336 297,259 297,171 280,86 246,4 212,-77 172,-148 124,-209"
           id="path9268" />
      </g>
    </g>
  </g>
</svg>
