<?xml version="1.0" encoding="UTF-8" standalone="no"?>
<!-- Created with Inkscape (http://www.inkscape.org/) -->

<svg
   width="72.341492mm"
   height="33.08144mm"
   viewBox="0 0 72.341492 33.08144"
   version="1.1"
   id="svg6282"
   inkscape:version="1.2.2 (b0a8486, 2022-12-01)"
   sodipodi:docname="RWKV_figure5.svg"
   xmlns:inkscape="http://www.inkscape.org/namespaces/inkscape"
   xmlns:sodipodi="http://sodipodi.sourceforge.net/DTD/sodipodi-0.dtd"
   xmlns="http://www.w3.org/2000/svg"
   xmlns:svg="http://www.w3.org/2000/svg">
  <sodipodi:namedview
     id="namedview6284"
     pagecolor="#ffffff"
     bordercolor="#000000"
     borderopacity="0.25"
     inkscape:showpageshadow="2"
     inkscape:pageopacity="0.0"
     inkscape:pagecheckerboard="0"
     inkscape:deskcolor="#d1d1d1"
     inkscape:document-units="mm"
     showgrid="false"
     inkscape:zoom="0.2102413"
     inkscape:cx="28.538636"
     inkscape:cy="171.23182"
     inkscape:window-width="1463"
     inkscape:window-height="456"
     inkscape:window-x="0"
     inkscape:window-y="25"
     inkscape:window-maximized="0"
     inkscape:current-layer="layer1" />
  <defs
     id="defs6279">
    <clipPath
       id="clip_14">
      <path
         transform="matrix(0.60631,0,0,-0.60631,70.866,474.75404)"
         d="M 0,0 H 360 V 180 H 0 Z"
         id="path64" />
    </clipPath>
    <clipPath
       id="clip_16">
      <path
         transform="matrix(0.60631,0,0,-0.60631,70.866,474.75404)"
         d="M 44.06418,45.6 H 349.2 V 169.2 H 44.06418 Z"
         id="path113" />
    </clipPath>
    <clipPath
       id="clip_17">
      <path
         transform="matrix(0.60631,0,0,-0.60631,70.866,474.75404)"
         d="M 44.06418,45.6 H 349.2 V 169.2 H 44.06418 Z"
         id="path116" />
    </clipPath>
    <clipPath
       id="clip_18">
      <path
         transform="matrix(0.60631,0,0,-0.60631,70.866,474.75404)"
         d="M 44.06418,45.6 H 349.2 V 169.2 H 44.06418 Z"
         id="path131" />
    </clipPath>
    <clipPath
       id="clip_19">
      <path
         transform="matrix(0.60631,0,0,-0.60631,105.99196,375.57276)"
         d="M -8,-8 H 8 V 8 H -8 Z"
         id="path134" />
    </clipPath>
    <clipPath
       id="clip_20">
      <path
         transform="matrix(0.60631,0,0,-0.60631,120.00763,386.26637)"
         d="M -8,-8 H 8 V 8 H -8 Z"
         id="path137" />
    </clipPath>
    <clipPath
       id="clip_21">
      <path
         transform="matrix(0.60631,0,0,-0.60631,134.0233,396.5902)"
         d="M -8,-8 H 8 V 8 H -8 Z"
         id="path140" />
    </clipPath>
    <clipPath
       id="clip_22">
      <path
         transform="matrix(0.60631,0,0,-0.60631,148.03897,407.0573)"
         d="M -8,-8 H 8 V 8 H -8 Z"
         id="path143" />
    </clipPath>
    <clipPath
       id="clip_23">
      <path
         transform="matrix(0.60631,0,0,-0.60631,162.05464,417.3868)"
         d="M -8,-8 H 8 V 8 H -8 Z"
         id="path146" />
    </clipPath>
    <clipPath
       id="clip_24">
      <path
         transform="matrix(0.60631,0,0,-0.60631,176.07032,424.78117)"
         d="M -8,-8 H 8 V 8 H -8 Z"
         id="path149" />
    </clipPath>
    <clipPath
       id="clip_25">
      <path
         transform="matrix(0.60631,0,0,-0.60631,190.08599,429.3623)"
         d="M -8,-8 H 8 V 8 H -8 Z"
         id="path152" />
    </clipPath>
    <clipPath
       id="clip_26">
      <path
         transform="matrix(0.60631,0,0,-0.60631,204.10166,431.95954)"
         d="M -8,-8 H 8 V 8 H -8 Z"
         id="path155" />
    </clipPath>
    <clipPath
       id="clip_27">
      <path
         transform="matrix(0.60631,0,0,-0.60631,218.11733,434.85209)"
         d="M -8,-8 H 8 V 8 H -8 Z"
         id="path158" />
    </clipPath>
    <clipPath
       id="clip_28">
      <path
         transform="matrix(0.60631,0,0,-0.60631,232.133,437.2207)"
         d="M -8,-8 H 8 V 8 H -8 Z"
         id="path161" />
    </clipPath>
    <clipPath
       id="clip_29">
      <path
         transform="matrix(0.60631,0,0,-0.60631,246.14867,436.8502)"
         d="M -8,-8 H 8 V 8 H -8 Z"
         id="path164" />
    </clipPath>
    <clipPath
       id="clip_30">
      <path
         transform="matrix(0.60631,0,0,-0.60631,260.16435,439.02473)"
         d="M -8,-8 H 8 V 8 H -8 Z"
         id="path167" />
    </clipPath>
    <clipPath
       id="clip_31">
      <path
         transform="matrix(0.60631,0,0,-0.60631,274.18003,440.77583)"
         d="M -8,-8 H 8 V 8 H -8 Z"
         id="path170" />
    </clipPath>
    <clipPath
       id="clip_32">
      <path
         transform="matrix(0.60631,0,0,-0.60631,70.866,474.75404)"
         d="M 44.06418,45.6 H 349.2 V 169.2 H 44.06418 Z"
         id="path173" />
    </clipPath>
    <clipPath
       id="clip_33">
      <path
         transform="matrix(0.60631,0,0,-0.60631,105.99196,375.72398)"
         d="M -8,-8 H 8 V 8 H -8 Z"
         id="path176" />
    </clipPath>
    <clipPath
       id="clip_34">
      <path
         transform="matrix(0.60631,0,0,-0.60631,120.00763,386.787)"
         d="M -8,-8 H 8 V 8 H -8 Z"
         id="path179" />
    </clipPath>
    <clipPath
       id="clip_35">
      <path
         transform="matrix(0.60631,0,0,-0.60631,134.0233,397.44984)"
         d="M -8,-8 H 8 V 8 H -8 Z"
         id="path182" />
    </clipPath>
    <clipPath
       id="clip_36">
      <path
         transform="matrix(0.60631,0,0,-0.60631,148.03897,408.34437)"
         d="M -8,-8 H 8 V 8 H -8 Z"
         id="path185" />
    </clipPath>
    <clipPath
       id="clip_37">
      <path
         transform="matrix(0.60631,0,0,-0.60631,162.05464,419.0154)"
         d="M -8,-8 H 8 V 8 H -8 Z"
         id="path188" />
    </clipPath>
    <clipPath
       id="clip_38">
      <path
         transform="matrix(0.60631,0,0,-0.60631,176.07032,426.8823)"
         d="M -8,-8 H 8 V 8 H -8 Z"
         id="path191" />
    </clipPath>
    <clipPath
       id="clip_39">
      <path
         transform="matrix(0.60631,0,0,-0.60631,190.08599,431.77824)"
         d="M -8,-8 H 8 V 8 H -8 Z"
         id="path194" />
    </clipPath>
    <clipPath
       id="clip_40">
      <path
         transform="matrix(0.60631,0,0,-0.60631,204.10166,434.1097)"
         d="M -8,-8 H 8 V 8 H -8 Z"
         id="path197" />
    </clipPath>
    <clipPath
       id="clip_41">
      <path
         transform="matrix(0.60631,0,0,-0.60631,218.11733,437.34773)"
         d="M -8,-8 H 8 V 8 H -8 Z"
         id="path200" />
    </clipPath>
    <clipPath
       id="clip_42">
      <path
         transform="matrix(0.60631,0,0,-0.60631,232.133,439.84956)"
         d="M -8,-8 H 8 V 8 H -8 Z"
         id="path203" />
    </clipPath>
    <clipPath
       id="clip_43">
      <path
         transform="matrix(0.60631,0,0,-0.60631,246.14867,439.25733)"
         d="M -8,-8 H 8 V 8 H -8 Z"
         id="path206" />
    </clipPath>
    <clipPath
       id="clip_44">
      <path
         transform="matrix(0.60631,0,0,-0.60631,260.16435,441.65446)"
         d="M -8,-8 H 8 V 8 H -8 Z"
         id="path209" />
    </clipPath>
    <clipPath
       id="clip_45">
      <path
         transform="matrix(0.60631,0,0,-0.60631,274.18003,443.69999)"
         d="M -8,-8 H 8 V 8 H -8 Z"
         id="path212" />
    </clipPath>
  </defs>
  <g
     inkscape:label="Calque 1"
     inkscape:groupmode="layer"
     id="layer1"
     transform="translate(-26.752983,-103.01436)">
    <g
       clip-path="url(#clip_14)"
       id="g969"
       transform="matrix(0.35277777,0,0,0.35277777,-0.68235888,-28.192107)">
      <path
         transform="matrix(0.60631,0,0,-0.60631,70.866,474.75404)"
         d="M 44.06418,45.6 H 349.2 V 169.2 H 44.06418 Z"
         fill="#ffffff"
         id="path625" />
      <path
         transform="matrix(0.60631,0,0,-0.60631,70.866,474.75404)"
         d="M 81.05034,45.6 V 42.1"
         id="path627" />
      <path
         transform="matrix(0.60631,0,0,-0.60631,70.866,474.75404)"
         stroke-width="0.8"
         stroke-linecap="butt"
         stroke-linejoin="round"
         fill="none"
         stroke="#000000"
         d="M 81.05034,45.6 V 42.1"
         id="path629" />
      <g
         id="use631"
         transform="matrix(6.0631,0,0,-6.0631,116.36977,455.91578)">
        <path
           transform="matrix(0.001,0,0,0.001,0,0)"
           d="M 192,83 H 536 V 0 H 73 v 83 c 37,38 88,90 153,156 64,65 105,107 122,126 32,35 54,65 66,90 12,24 19,49 19,73 0,38 -14,70 -41,94 -27,24 -62,37 -106,37 -31,0 -64,-6 -98,-16 -34,-11 -71,-27 -110,-49 v 100 c 40,16 77,28 111,36 34,8 66,12 95,12 75,0 135,-19 180,-57 45,-38 68,-88 68,-151 0,-30 -6,-59 -17,-85 -11,-27 -31,-59 -61,-95 -8,-10 -34,-37 -78,-82 C 332,227 271,164 192,83 Z"
           id="path7345" />
      </g>
      <g
         id="use633"
         transform="matrix(4.24417,0,0,-4.24417,120.28533,453.59477)">
        <path
           transform="matrix(0.001,0,0,0.001,0,0)"
           d="M 124,83 H 285 V 639 L 110,604 v 90 l 174,35 h 99 V 83 H 544 V 0 H 124 Z"
           id="path7325" />
      </g>
      <path
         transform="matrix(0.60631,0,0,-0.60631,70.866,474.75404)"
         d="M 127.28304,45.6 V 42.1"
         id="path635" />
      <path
         transform="matrix(0.60631,0,0,-0.60631,70.866,474.75404)"
         stroke-width="0.8"
         stroke-linecap="butt"
         stroke-linejoin="round"
         fill="none"
         stroke="#000000"
         d="M 127.28304,45.6 V 42.1"
         id="path637" />
      <g
         id="use639"
         transform="matrix(6.0631,0,0,-6.0631,144.40113,455.56147)">
        <path
           transform="matrix(0.001,0,0,0.001,0,0)"
           d="M 192,83 H 536 V 0 H 73 v 83 c 37,38 88,90 153,156 64,65 105,107 122,126 32,35 54,65 66,90 12,24 19,49 19,73 0,38 -14,70 -41,94 -27,24 -62,37 -106,37 -31,0 -64,-6 -98,-16 -34,-11 -71,-27 -110,-49 v 100 c 40,16 77,28 111,36 34,8 66,12 95,12 75,0 135,-19 180,-57 45,-38 68,-88 68,-151 0,-30 -6,-59 -17,-85 -11,-27 -31,-59 -61,-95 -8,-10 -34,-37 -78,-82 C 332,227 271,164 192,83 Z"
           id="path7349" />
      </g>
      <g
         id="use641"
         transform="matrix(4.24417,0,0,-4.24417,148.31668,453.24046)">
        <path
           transform="matrix(0.001,0,0,0.001,0,0)"
           d="m 406,393 c 47,-10 84,-31 110,-63 26,-32 40,-72 40,-118 C 556,140 531,84 482,45 432,6 362,-13 271,-13 c -31,0 -63,3 -95,9 -32,5 -66,14 -100,26 v 95 c 27,-16 57,-28 90,-36 32,-8 66,-12 102,-12 62,0 109,12 141,36 32,24 49,60 49,107 0,42 -15,76 -45,100 -30,24 -72,37 -126,37 h -85 v 81 h 89 c 48,0 85,9 111,29 26,19 39,47 39,84 0,37 -14,66 -40,86 -27,20 -65,30 -114,30 -27,0 -56,-3 -87,-9 -31,-6 -65,-15 -102,-27 v 88 c 37,10 72,18 105,23 32,5 63,8 93,8 74,0 133,-17 177,-51 44,-34 66,-80 66,-138 0,-40 -12,-74 -35,-102 -23,-28 -56,-48 -98,-58 z"
           id="path7321" />
      </g>
      <path
         transform="matrix(0.60631,0,0,-0.60631,70.866,474.75404)"
         d="M 173.51575,45.6 V 42.1"
         id="path643" />
      <path
         transform="matrix(0.60631,0,0,-0.60631,70.866,474.75404)"
         stroke-width="0.8"
         stroke-linecap="butt"
         stroke-linejoin="round"
         fill="none"
         stroke="#000000"
         d="M 173.51575,45.6 V 42.1"
         id="path645" />
      <g
         id="use647"
         transform="matrix(6.0631,0,0,-6.0631,172.43247,455.91578)">
        <path
           transform="matrix(0.001,0,0,0.001,0,0)"
           d="M 192,83 H 536 V 0 H 73 v 83 c 37,38 88,90 153,156 64,65 105,107 122,126 32,35 54,65 66,90 12,24 19,49 19,73 0,38 -14,70 -41,94 -27,24 -62,37 -106,37 -31,0 -64,-6 -98,-16 -34,-11 -71,-27 -110,-49 v 100 c 40,16 77,28 111,36 34,8 66,12 95,12 75,0 135,-19 180,-57 45,-38 68,-88 68,-151 0,-30 -6,-59 -17,-85 -11,-27 -31,-59 -61,-95 -8,-10 -34,-37 -78,-82 C 332,227 271,164 192,83 Z"
           id="path7353" />
      </g>
      <g
         id="use649"
         transform="matrix(4.24417,0,0,-4.24417,176.34803,453.59477)">
        <path
           transform="matrix(0.001,0,0,0.001,0,0)"
           d="M 108,729 H 495 V 646 H 198 V 467 c 14,5 29,9 43,11 14,2 29,4 43,4 81,0 145,-23 193,-67 48,-45 72,-105 72,-181 C 549,155 524,94 475,51 426,8 357,-13 269,-13 c -31,0 -62,3 -94,7 -32,5 -64,12 -98,23 v 99 c 29,-16 59,-28 91,-36 31,-8 64,-11 99,-11 56,0 101,14 134,44 32,30 49,70 49,121 0,50 -17,90 -49,120 -33,30 -78,45 -134,45 -26,0 -53,-3 -79,-9 -26,-6 -53,-15 -80,-27 z"
           id="path7317" />
      </g>
      <path
         transform="matrix(0.60631,0,0,-0.60631,70.866,474.75404)"
         d="M 219.74845,45.6 V 42.1"
         id="path651" />
      <path
         transform="matrix(0.60631,0,0,-0.60631,70.866,474.75404)"
         stroke-width="0.8"
         stroke-linecap="butt"
         stroke-linejoin="round"
         fill="none"
         stroke="#000000"
         d="M 219.74845,45.6 V 42.1"
         id="path653" />
      <g
         id="use655"
         transform="matrix(6.0631,0,0,-6.0631,200.46382,455.91578)">
        <path
           transform="matrix(0.001,0,0,0.001,0,0)"
           d="M 192,83 H 536 V 0 H 73 v 83 c 37,38 88,90 153,156 64,65 105,107 122,126 32,35 54,65 66,90 12,24 19,49 19,73 0,38 -14,70 -41,94 -27,24 -62,37 -106,37 -31,0 -64,-6 -98,-16 -34,-11 -71,-27 -110,-49 v 100 c 40,16 77,28 111,36 34,8 66,12 95,12 75,0 135,-19 180,-57 45,-38 68,-88 68,-151 0,-30 -6,-59 -17,-85 -11,-27 -31,-59 -61,-95 -8,-10 -34,-37 -78,-82 C 332,227 271,164 192,83 Z"
           id="path7357" />
      </g>
      <g
         id="use657"
         transform="matrix(4.24417,0,0,-4.24417,204.37938,453.59477)">
        <path
           transform="matrix(0.001,0,0,0.001,0,0)"
           d="M 82,729 H 551 V 687 L 286,0 H 183 L 432,646 H 82 Z"
           id="path7309" />
      </g>
      <path
         transform="matrix(0.60631,0,0,-0.60631,70.866,474.75404)"
         d="M 265.98115,45.6 V 42.1"
         id="path659" />
      <path
         transform="matrix(0.60631,0,0,-0.60631,70.866,474.75404)"
         stroke-width="0.8"
         stroke-linecap="butt"
         stroke-linejoin="round"
         fill="none"
         stroke="#000000"
         d="M 265.98115,45.6 V 42.1"
         id="path661" />
      <g
         id="use663"
         transform="matrix(6.0631,0,0,-6.0631,228.49517,455.56147)">
        <path
           transform="matrix(0.001,0,0,0.001,0,0)"
           d="M 192,83 H 536 V 0 H 73 v 83 c 37,38 88,90 153,156 64,65 105,107 122,126 32,35 54,65 66,90 12,24 19,49 19,73 0,38 -14,70 -41,94 -27,24 -62,37 -106,37 -31,0 -64,-6 -98,-16 -34,-11 -71,-27 -110,-49 v 100 c 40,16 77,28 111,36 34,8 66,12 95,12 75,0 135,-19 180,-57 45,-38 68,-88 68,-151 0,-30 -6,-59 -17,-85 -11,-27 -31,-59 -61,-95 -8,-10 -34,-37 -78,-82 C 332,227 271,164 192,83 Z"
           id="path7361" />
      </g>
      <g
         id="use665"
         transform="matrix(4.24417,0,0,-4.24417,232.41072,453.24046)">
        <path
           transform="matrix(0.001,0,0,0.001,0,0)"
           d="m 110,15 v 90 c 24,-12 49,-21 75,-27 25,-6 50,-9 75,-9 64,0 114,21 148,65 34,44 54,110 60,200 -20,-28 -44,-50 -72,-65 -29,-15 -61,-22 -96,-22 -74,0 -132,22 -174,66 -42,44 -63,104 -63,181 0,74 22,134 66,180 44,45 103,68 177,68 84,0 149,-33 193,-97 44,-65 67,-159 67,-281 C 566,248 538,157 484,89 429,21 356,-13 264,-13 c -25,0 -50,3 -75,7 -26,4 -52,11 -79,21 z m 196,309 c 44,0 79,15 105,45 26,30 39,72 39,125 0,52 -13,94 -39,124 -26,30 -61,46 -105,46 -44,0 -79,-16 -105,-46 -26,-30 -39,-72 -39,-124 0,-53 13,-95 39,-125 26,-30 61,-45 105,-45 z"
           id="path7305" />
      </g>
      <path
         transform="matrix(0.60631,0,0,-0.60631,70.866,474.75404)"
         d="M 312.21385,45.6 V 42.1"
         id="path667" />
      <path
         transform="matrix(0.60631,0,0,-0.60631,70.866,474.75404)"
         stroke-width="0.8"
         stroke-linecap="butt"
         stroke-linejoin="round"
         fill="none"
         stroke="#000000"
         d="M 312.21385,45.6 V 42.1"
         id="path669" />
      <g
         id="use671"
         transform="matrix(6.0631,0,0,-6.0631,255.31389,455.91578)">
        <path
           transform="matrix(0.001,0,0,0.001,0,0)"
           d="M 192,83 H 536 V 0 H 73 v 83 c 37,38 88,90 153,156 64,65 105,107 122,126 32,35 54,65 66,90 12,24 19,49 19,73 0,38 -14,70 -41,94 -27,24 -62,37 -106,37 -31,0 -64,-6 -98,-16 -34,-11 -71,-27 -110,-49 v 100 c 40,16 77,28 111,36 34,8 66,12 95,12 75,0 135,-19 180,-57 45,-38 68,-88 68,-151 0,-30 -6,-59 -17,-85 -11,-27 -31,-59 -61,-95 -8,-10 -34,-37 -78,-82 C 332,227 271,164 192,83 Z"
           id="path7365" />
      </g>
      <g
         id="use673"
         transform="matrix(4.24417,0,0,-4.24417,259.22944,453.59477)">
        <path
           transform="matrix(0.001,0,0,0.001,0,0)"
           d="M 124,83 H 285 V 639 L 110,604 v 90 l 174,35 h 99 V 83 H 544 V 0 H 124 Z"
           id="path7329" />
      </g>
      <g
         id="use675"
         transform="matrix(4.24417,0,0,-4.24417,261.92973,453.59477)">
        <path
           transform="matrix(0.001,0,0,0.001,0,0)"
           d="M 124,83 H 285 V 639 L 110,604 v 90 l 174,35 h 99 V 83 H 544 V 0 H 124 Z"
           id="path7333" />
      </g>
      <g
         id="use677"
         transform="matrix(6.0631,0,0,-6.0631,166.74308,464.44297)">
        <path
           transform="matrix(0.001,0,0,0.001,0,0)"
           d="M 644,673 V 569 c -34,30 -69,53 -107,69 -38,15 -77,23 -119,23 -84,0 -148,-26 -192,-77 -44,-51 -66,-124 -66,-220 0,-96 22,-170 66,-221 44,-51 108,-76 192,-76 42,0 81,7 119,23 38,15 73,38 107,69 V 56 C 609,32 572,15 534,4 496,-7 455,-13 412,-13 302,-13 215,20 151,87 87,154 56,246 56,364 c 0,117 31,209 95,277 64,67 151,101 261,101 44,0 85,-6 123,-17 38,-12 75,-29 109,-52 z"
           id="path7301" />
      </g>
      <g
         id="use679"
         transform="matrix(6.0631,0,0,-6.0631,170.97512,464.44297)">
        <path
           transform="matrix(0.001,0,0,0.001,0,0)"
           d="m 306,484 c -48,0 -86,-19 -114,-57 -28,-38 -42,-89 -42,-154 0,-66 13,-117 41,-155 28,-38 66,-56 115,-56 48,0 86,18 114,56 28,38 42,89 42,155 0,64 -14,116 -42,154 -28,38 -66,57 -114,57 z m 0,76 c 78,0 139,-26 184,-76 44,-51 67,-121 67,-211 C 557,183 534,113 490,63 445,12 384,-13 306,-13 227,-13 165,12 121,63 77,113 55,183 55,273 c 0,90 22,160 66,211 44,50 106,76 185,76 z"
           id="path7293" />
      </g>
      <g
         id="use681"
         transform="matrix(6.0631,0,0,-6.0631,174.68573,464.44297)">
        <path
           transform="matrix(0.001,0,0,0.001,0,0)"
           d="M 549,330 V 0 h -90 v 327 c 0,52 -11,90 -31,116 -20,26 -50,39 -90,39 -49,0 -87,-16 -115,-47 -28,-31 -42,-73 -42,-126 V 0 H 91 v 547 h 90 v -85 c 21,32 46,57 76,73 29,16 63,25 101,25 62,0 110,-20 142,-59 32,-39 49,-96 49,-171 z"
           id="path7285" />
      </g>
      <g
         id="use683"
         transform="matrix(6.0631,0,0,-6.0631,178.52974,464.44297)">
        <path
           transform="matrix(0.001,0,0,0.001,0,0)"
           d="M 183,702 V 547 H 368 V 477 H 183 V 180 c 0,-45 6,-74 18,-86 12,-13 37,-19 75,-19 h 92 V 0 H 276 C 206,0 158,13 132,39 106,65 93,112 93,180 V 477 H 27 v 70 h 66 v 155 z"
           id="path7265" />
      </g>
      <g
         id="use685"
         transform="matrix(6.0631,0,0,-6.0631,180.90648,464.44297)">
        <path
           transform="matrix(0.001,0,0,0.001,0,0)"
           d="M 562,296 V 252 H 149 c 4,-62 22,-110 56,-142 33,-32 79,-48 139,-48 34,0 68,4 100,12 32,8 65,21 97,39 V 28 C 509,14 476,3 442,-3 408,-9 373,-13 339,-13 251,-13 182,12 131,62 80,112 55,181 55,268 c 0,89 24,160 72,213 48,52 114,79 196,79 74,0 132,-24 175,-71 42,-48 64,-112 64,-193 z m -90,26 c -1,49 -15,88 -41,118 -27,29 -63,44 -107,44 -50,0 -90,-15 -120,-43 -30,-28 -48,-68 -52,-119 z"
           id="path7249" />
      </g>
      <g
         id="use687"
         transform="matrix(6.0631,0,0,-6.0631,184.53107,464.44297)">
        <path
           transform="matrix(0.001,0,0,0.001,0,0)"
           d="M 549,547 351,281 559,0 H 453 L 294,215 135,0 H 29 L 241,286 47,547 H 153 L 298,352 443,547 Z"
           id="path7245" />
      </g>
      <g
         id="use689"
         transform="matrix(6.0631,0,0,-6.0631,188.12042,464.44297)">
        <path
           transform="matrix(0.001,0,0,0.001,0,0)"
           d="M 183,702 V 547 H 368 V 477 H 183 V 180 c 0,-45 6,-74 18,-86 12,-13 37,-19 75,-19 h 92 V 0 H 276 C 206,0 158,13 132,39 106,65 93,112 93,180 V 477 H 27 v 70 h 66 v 155 z"
           id="path7269" />
      </g>
      <g
         id="use691"
         transform="matrix(6.0631,0,0,-6.0631,190.49716,464.44297)" />
      <g
         id="use693"
         transform="matrix(6.0631,0,0,-6.0631,192.42523,464.44297)">
        <path
           transform="matrix(0.001,0,0,0.001,0,0)"
           d="m 98,729 h 99 V 83 H 552 V 0 H 98 Z"
           id="path7231" />
      </g>
      <g
         id="use695"
         transform="matrix(6.0631,0,0,-6.0631,195.69817,464.44297)">
        <path
           transform="matrix(0.001,0,0,0.001,0,0)"
           d="M 562,296 V 252 H 149 c 4,-62 22,-110 56,-142 33,-32 79,-48 139,-48 34,0 68,4 100,12 32,8 65,21 97,39 V 28 C 509,14 476,3 442,-3 408,-9 373,-13 339,-13 251,-13 182,12 131,62 80,112 55,181 55,268 c 0,89 24,160 72,213 48,52 114,79 196,79 74,0 132,-24 175,-71 42,-48 64,-112 64,-193 z m -90,26 c -1,49 -15,88 -41,118 -27,29 -63,44 -107,44 -50,0 -90,-15 -120,-43 -30,-28 -48,-68 -52,-119 z"
           id="path7253" />
      </g>
      <g
         id="use697"
         transform="matrix(6.0631,0,0,-6.0631,199.42697,464.44297)">
        <path
           transform="matrix(0.001,0,0,0.001,0,0)"
           d="M 549,330 V 0 h -90 v 327 c 0,52 -11,90 -31,116 -20,26 -50,39 -90,39 -49,0 -87,-16 -115,-47 -28,-31 -42,-73 -42,-126 V 0 H 91 v 547 h 90 v -85 c 21,32 46,57 76,73 29,16 63,25 101,25 62,0 110,-20 142,-59 32,-39 49,-96 49,-171 z"
           id="path7289" />
      </g>
      <g
         id="use699"
         transform="matrix(6.0631,0,0,-6.0631,203.27098,464.44297)">
        <path
           transform="matrix(0.001,0,0,0.001,0,0)"
           d="m 454,280 c 0,64 -14,115 -40,151 -27,36 -65,54 -113,54 -48,0 -86,-18 -113,-54 -27,-36 -40,-87 -40,-151 0,-65 13,-115 40,-151 27,-36 65,-54 113,-54 48,0 86,18 113,54 26,36 40,86 40,151 z M 544,68 c 0,-92 -21,-161 -62,-207 -42,-45 -105,-68 -190,-68 -32,0 -61,3 -89,7 -28,5 -56,12 -82,22 v 87 c 26,-14 52,-24 78,-31 26,-7 52,-11 79,-11 58,0 102,16 132,46 29,31 44,77 44,139 V 96 C 435,64 411,40 382,24 353,8 319,0 279,0 211,0 157,25 116,76 75,127 55,195 55,280 c 0,84 20,152 61,203 41,51 95,77 163,77 40,0 74,-8 103,-24 29,-16 53,-40 72,-72 v 83 h 90 z"
           id="path7227" />
      </g>
      <g
         id="use701"
         transform="matrix(6.0631,0,0,-6.0631,207.12105,464.44297)">
        <path
           transform="matrix(0.001,0,0,0.001,0,0)"
           d="M 183,702 V 547 H 368 V 477 H 183 V 180 c 0,-45 6,-74 18,-86 12,-13 37,-19 75,-19 h 92 V 0 H 276 C 206,0 158,13 132,39 106,65 93,112 93,180 V 477 H 27 v 70 h 66 v 155 z"
           id="path7273" />
      </g>
      <g
         id="use703"
         transform="matrix(6.0631,0,0,-6.0631,209.49777,464.44297)">
        <path
           transform="matrix(0.001,0,0,0.001,0,0)"
           d="M 549,330 V 0 h -90 v 327 c 0,52 -11,90 -31,116 -20,26 -50,39 -90,39 -49,0 -87,-16 -115,-47 -28,-31 -42,-73 -42,-126 V 0 H 91 v 760 h 90 V 462 c 21,32 46,57 76,73 29,16 63,25 101,25 62,0 110,-20 142,-59 32,-39 49,-96 49,-171 z"
           id="path7223" />
      </g>
      <g
         clip-path="url(#clip_16)"
         id="g707">
        <path
           transform="matrix(0.60631,0,0,-0.60631,70.866,474.75404)"
           stroke-width="0.8"
           stroke-linecap="square"
           stroke-linejoin="round"
           fill="none"
           stroke="#bebebe"
           d="M 44.06418,71.79775 H 349.2"
           id="path705" />
      </g>
      <path
         transform="matrix(0.60631,0,0,-0.60631,70.866,474.75404)"
         d="m 44.06418,71.79775 h -3.5"
         id="path709" />
      <path
         transform="matrix(0.60631,0,0,-0.60631,70.866,474.75404)"
         stroke-width="0.8"
         stroke-linecap="butt"
         stroke-linejoin="round"
         fill="none"
         stroke="#000000"
         d="m 44.06418,71.79775 h -3.5"
         id="path711" />
      <g
         id="use713"
         transform="matrix(6.0631,0,0,-6.0631,86.06266,433.48558)">
        <path
           transform="matrix(0.001,0,0,0.001,0,0)"
           d="M 192,83 H 536 V 0 H 73 v 83 c 37,38 88,90 153,156 64,65 105,107 122,126 32,35 54,65 66,90 12,24 19,49 19,73 0,38 -14,70 -41,94 -27,24 -62,37 -106,37 -31,0 -64,-6 -98,-16 -34,-11 -71,-27 -110,-49 v 100 c 40,16 77,28 111,36 34,8 66,12 95,12 75,0 135,-19 180,-57 45,-38 68,-88 68,-151 0,-30 -6,-59 -17,-85 -11,-27 -31,-59 -61,-95 -8,-10 -34,-37 -78,-82 C 332,227 271,164 192,83 Z"
           id="path7369" />
      </g>
      <g
         id="use715"
         transform="matrix(4.24417,0,0,-4.24417,89.97822,431.16456)">
        <path
           transform="matrix(0.001,0,0,0.001,0,0)"
           d="M 124,83 H 285 V 639 L 110,604 v 90 l 174,35 h 99 V 83 H 544 V 0 H 124 Z"
           id="path7337" />
      </g>
      <g
         clip-path="url(#clip_17)"
         id="g719">
        <path
           transform="matrix(0.60631,0,0,-0.60631,70.866,474.75404)"
           stroke-width="0.8"
           stroke-linecap="square"
           stroke-linejoin="round"
           fill="none"
           stroke="#bebebe"
           d="M 44.06418,132.00516 H 349.2"
           id="path717" />
      </g>
      <path
         transform="matrix(0.60631,0,0,-0.60631,70.866,474.75404)"
         d="m 44.06418,132.00516 h -3.5"
         id="path721" />
      <path
         transform="matrix(0.60631,0,0,-0.60631,70.866,474.75404)"
         stroke-width="0.8"
         stroke-linecap="butt"
         stroke-linejoin="round"
         fill="none"
         stroke="#000000"
         d="m 44.06418,132.00516 h -3.5"
         id="path723" />
      <g
         id="use725"
         transform="matrix(6.0631,0,0,-6.0631,86.06266,396.52745)">
        <path
           transform="matrix(0.001,0,0,0.001,0,0)"
           d="M 192,83 H 536 V 0 H 73 v 83 c 37,38 88,90 153,156 64,65 105,107 122,126 32,35 54,65 66,90 12,24 19,49 19,73 0,38 -14,70 -41,94 -27,24 -62,37 -106,37 -31,0 -64,-6 -98,-16 -34,-11 -71,-27 -110,-49 v 100 c 40,16 77,28 111,36 34,8 66,12 95,12 75,0 135,-19 180,-57 45,-38 68,-88 68,-151 0,-30 -6,-59 -17,-85 -11,-27 -31,-59 -61,-95 -8,-10 -34,-37 -78,-82 C 332,227 271,164 192,83 Z"
           id="path7373" />
      </g>
      <g
         id="use727"
         transform="matrix(4.24417,0,0,-4.24417,89.97822,394.20643)">
        <path
           transform="matrix(0.001,0,0,0.001,0,0)"
           d="M 192,83 H 536 V 0 H 73 v 83 c 37,38 88,90 153,156 64,65 105,107 122,126 32,35 54,65 66,90 12,24 19,49 19,73 0,38 -14,70 -41,94 -27,24 -62,37 -106,37 -31,0 -64,-6 -98,-16 -34,-11 -71,-27 -110,-49 v 100 c 40,16 77,28 111,36 34,8 66,12 95,12 75,0 135,-19 180,-57 45,-38 68,-88 68,-151 0,-30 -6,-59 -17,-85 -11,-27 -31,-59 -61,-95 -8,-10 -34,-37 -78,-82 C 332,227 271,164 192,83 Z"
           id="path7377" />
      </g>
      <g
         id="use729"
         transform="matrix(0,-6.0631,-6.0631,0,82.37743,428.56459)">
        <path
           transform="matrix(0.001,0,0,0.001,0,0)"
           d="M 197,648 V 374 h 124 c 46,0 81,11 106,35 25,24 38,58 38,102 0,44 -13,77 -38,101 -25,24 -60,36 -106,36 z m -99,81 h 223 c 81,0 143,-19 185,-56 42,-37 63,-91 63,-162 C 569,439 548,384 506,348 464,311 402,293 321,293 H 197 V 0 H 98 Z"
           id="path7219" />
      </g>
      <g
         id="use731"
         transform="matrix(0,-6.0631,-6.0631,0,82.37743,425.04118)">
        <path
           transform="matrix(0.001,0,0,0.001,0,0)"
           d="m 94,547 h 90 V 0 H 94 Z m 0,213 h 90 V 646 H 94 Z"
           id="path7215" />
      </g>
      <g
         id="use733"
         transform="matrix(0,-6.0631,-6.0631,0,82.37743,423.35563)">
        <path
           transform="matrix(0.001,0,0,0.001,0,0)"
           d="m 94,760 h 90 V 0 H 94 Z"
           id="path7207" />
      </g>
      <g
         id="use735"
         transform="matrix(0,-6.0631,-6.0631,0,82.37743,421.67008)">
        <path
           transform="matrix(0.001,0,0,0.001,0,0)"
           d="M 562,296 V 252 H 149 c 4,-62 22,-110 56,-142 33,-32 79,-48 139,-48 34,0 68,4 100,12 32,8 65,21 97,39 V 28 C 509,14 476,3 442,-3 408,-9 373,-13 339,-13 251,-13 182,12 131,62 80,112 55,181 55,268 c 0,89 24,160 72,213 48,52 114,79 196,79 74,0 132,-24 175,-71 42,-48 64,-112 64,-193 z m -90,26 c -1,49 -15,88 -41,118 -27,29 -63,44 -107,44 -50,0 -90,-15 -120,-43 -30,-28 -48,-68 -52,-119 z"
           id="path7257" />
      </g>
      <g
         id="use737"
         transform="matrix(0,-6.0631,-6.0631,0,82.37743,417.94126)" />
      <g
         id="use739"
         transform="matrix(0,-6.0631,-6.0631,0,82.37743,416.01319)">
        <path
           transform="matrix(0.001,0,0,0.001,0,0)"
           d="M 183,702 V 547 H 368 V 477 H 183 V 180 c 0,-45 6,-74 18,-86 12,-13 37,-19 75,-19 h 92 V 0 H 276 C 206,0 158,13 132,39 106,65 93,112 93,180 V 477 H 27 v 70 h 66 v 155 z"
           id="path7277" />
      </g>
      <g
         id="use741"
         transform="matrix(0,-6.0631,-6.0631,0,82.37743,413.63648)">
        <path
           transform="matrix(0.001,0,0,0.001,0,0)"
           d="M 562,296 V 252 H 149 c 4,-62 22,-110 56,-142 33,-32 79,-48 139,-48 34,0 68,4 100,12 32,8 65,21 97,39 V 28 C 509,14 476,3 442,-3 408,-9 373,-13 339,-13 251,-13 182,12 131,62 80,112 55,181 55,268 c 0,89 24,160 72,213 48,52 114,79 196,79 74,0 132,-24 175,-71 42,-48 64,-112 64,-193 z m -90,26 c -1,49 -15,88 -41,118 -27,29 -63,44 -107,44 -50,0 -90,-15 -120,-43 -30,-28 -48,-68 -52,-119 z"
           id="path7261" />
      </g>
      <g
         id="use743"
         transform="matrix(0,-6.0631,-6.0631,0,82.37743,409.90766)">
        <path
           transform="matrix(0.001,0,0,0.001,0,0)"
           d="m 443,531 v -85 c -26,12 -52,22 -79,29 -28,6 -56,10 -85,10 -45,0 -79,-7 -101,-21 -22,-14 -33,-34 -33,-61 0,-21 8,-37 24,-49 16,-12 48,-24 96,-34 l 31,-7 c 64,-14 109,-34 136,-58 26,-25 40,-60 40,-104 0,-51 -20,-91 -60,-120 -40,-30 -96,-44 -166,-44 -30,0 -60,3 -92,8 C 122,0 89,8 54,20 v 93 c 33,-18 66,-31 98,-39 32,-9 64,-13 96,-13 42,0 75,7 98,21 22,14 34,35 34,62 0,24 -9,43 -25,56 -16,13 -52,26 -108,38 l -31,7 c -56,12 -97,30 -121,54 -25,24 -37,57 -37,100 0,51 18,91 54,119 36,28 88,42 156,42 33,0 64,-3 94,-8 29,-5 56,-12 81,-21 z"
           id="path7195" />
      </g>
      <g
         id="use745"
         transform="matrix(0,-6.0631,-6.0631,0,82.37743,406.74879)">
        <path
           transform="matrix(0.001,0,0,0.001,0,0)"
           d="M 183,702 V 547 H 368 V 477 H 183 V 180 c 0,-45 6,-74 18,-86 12,-13 37,-19 75,-19 h 92 V 0 H 276 C 206,0 158,13 132,39 106,65 93,112 93,180 V 477 H 27 v 70 h 66 v 155 z"
           id="path7281" />
      </g>
      <g
         id="use747"
         transform="matrix(0,-6.0631,-6.0631,0,82.37743,404.37205)" />
      <g
         id="use749"
         transform="matrix(0,-6.0631,-6.0631,0,82.37743,402.44398)">
        <path
           transform="matrix(0.001,0,0,0.001,0,0)"
           d="m 94,760 h 90 V 0 H 94 Z"
           id="path7211" />
      </g>
      <g
         id="use751"
         transform="matrix(0,-6.0631,-6.0631,0,82.37743,400.75846)">
        <path
           transform="matrix(0.001,0,0,0.001,0,0)"
           d="m 306,484 c -48,0 -86,-19 -114,-57 -28,-38 -42,-89 -42,-154 0,-66 13,-117 41,-155 28,-38 66,-56 115,-56 48,0 86,18 114,56 28,38 42,89 42,155 0,64 -14,116 -42,154 -28,38 -66,57 -114,57 z m 0,76 c 78,0 139,-26 184,-76 44,-51 67,-121 67,-211 C 557,183 534,113 490,63 445,12 384,-13 306,-13 227,-13 165,12 121,63 77,113 55,183 55,273 c 0,90 22,160 66,211 44,50 106,76 185,76 z"
           id="path7297" />
      </g>
      <g
         id="use753"
         transform="matrix(0,-6.0631,-6.0631,0,82.37743,397.04783)">
        <path
           transform="matrix(0.001,0,0,0.001,0,0)"
           d="m 443,531 v -85 c -26,12 -52,22 -79,29 -28,6 -56,10 -85,10 -45,0 -79,-7 -101,-21 -22,-14 -33,-34 -33,-61 0,-21 8,-37 24,-49 16,-12 48,-24 96,-34 l 31,-7 c 64,-14 109,-34 136,-58 26,-25 40,-60 40,-104 0,-51 -20,-91 -60,-120 -40,-30 -96,-44 -166,-44 -30,0 -60,3 -92,8 C 122,0 89,8 54,20 v 93 c 33,-18 66,-31 98,-39 32,-9 64,-13 96,-13 42,0 75,7 98,21 22,14 34,35 34,62 0,24 -9,43 -25,56 -16,13 -52,26 -108,38 l -31,7 c -56,12 -97,30 -121,54 -25,24 -37,57 -37,100 0,51 18,91 54,119 36,28 88,42 156,42 33,0 64,-3 94,-8 29,-5 56,-12 81,-21 z"
           id="path7199" />
      </g>
      <g
         id="use755"
         transform="matrix(0,-6.0631,-6.0631,0,82.37743,393.88896)">
        <path
           transform="matrix(0.001,0,0,0.001,0,0)"
           d="m 443,531 v -85 c -26,12 -52,22 -79,29 -28,6 -56,10 -85,10 -45,0 -79,-7 -101,-21 -22,-14 -33,-34 -33,-61 0,-21 8,-37 24,-49 16,-12 48,-24 96,-34 l 31,-7 c 64,-14 109,-34 136,-58 26,-25 40,-60 40,-104 0,-51 -20,-91 -60,-120 -40,-30 -96,-44 -166,-44 -30,0 -60,3 -92,8 C 122,0 89,8 54,20 v 93 c 33,-18 66,-31 98,-39 32,-9 64,-13 96,-13 42,0 75,7 98,21 22,14 34,35 34,62 0,24 -9,43 -25,56 -16,13 -52,26 -108,38 l -31,7 c -56,12 -97,30 -121,54 -25,24 -37,57 -37,100 0,51 18,91 54,119 36,28 88,42 156,42 33,0 64,-3 94,-8 29,-5 56,-12 81,-21 z"
           id="path7203" />
      </g>
      <g
         clip-path="url(#clip_18)"
         id="g837">
        <path
           transform="matrix(0.60631,0,0,-0.60631,70.866,474.75404)"
           stroke-width="1.5"
           stroke-linecap="butt"
           stroke-dasharray="5.55, 2.4"
           stroke-linejoin="round"
           fill="none"
           stroke="#1f77b4"
           d="m 57.93399,163.58182 23.11635,-17.63718 23.11635,-17.02734 23.11635,-17.2636 23.11635,-17.03668 23.11636,-12.19564 23.11635,-7.555791 23.11635,-4.283669 23.11634,-4.77075 23.11636,-3.9066 23.11635,0.611087 23.11635,-3.586521 23.11635,-2.888126"
           id="path757" />
        <g
           clip-path="url(#clip_19)"
           id="g763">
          <path
             transform="matrix(0.60631,0,0,-0.60631,105.99196,375.57276)"
             d="m 0,-3 c 0.795609,0 1.55874,0.316099 2.12132,0.87868 C 2.683901,-1.55874 3,-0.795609 3,0 3,0.795609 2.683901,1.55874 2.12132,2.12132 1.55874,2.683901 0.795609,3 0,3 -0.795609,3 -1.55874,2.683901 -2.12132,2.12132 -2.683901,1.55874 -3,0.795609 -3,0 -3,-0.795609 -2.683901,-1.55874 -2.12132,-2.12132 -1.55874,-2.683901 -0.795609,-3 0,-3 Z"
             fill="#1f77b4"
             id="path759" />
          <path
             transform="matrix(0.60631,0,0,-0.60631,105.99196,375.57276)"
             stroke-width="1"
             stroke-linecap="butt"
             stroke-linejoin="round"
             fill="none"
             stroke="#1f77b4"
             d="m 0,-3 c 0.795609,0 1.55874,0.316099 2.12132,0.87868 C 2.683901,-1.55874 3,-0.795609 3,0 3,0.795609 2.683901,1.55874 2.12132,2.12132 1.55874,2.683901 0.795609,3 0,3 -0.795609,3 -1.55874,2.683901 -2.12132,2.12132 -2.683901,1.55874 -3,0.795609 -3,0 -3,-0.795609 -2.683901,-1.55874 -2.12132,-2.12132 -1.55874,-2.683901 -0.795609,-3 0,-3 Z"
             id="path761" />
        </g>
        <g
           clip-path="url(#clip_20)"
           id="g769">
          <path
             transform="matrix(0.60631,0,0,-0.60631,120.00763,386.26637)"
             d="m 0,-3 c 0.795609,0 1.55874,0.316099 2.12132,0.87868 C 2.683901,-1.55874 3,-0.795609 3,0 3,0.795609 2.683901,1.55874 2.12132,2.12132 1.55874,2.683901 0.795609,3 0,3 -0.795609,3 -1.55874,2.683901 -2.12132,2.12132 -2.683901,1.55874 -3,0.795609 -3,0 -3,-0.795609 -2.683901,-1.55874 -2.12132,-2.12132 -1.55874,-2.683901 -0.795609,-3 0,-3 Z"
             fill="#1f77b4"
             id="path765" />
          <path
             transform="matrix(0.60631,0,0,-0.60631,120.00763,386.26637)"
             stroke-width="1"
             stroke-linecap="butt"
             stroke-linejoin="round"
             fill="none"
             stroke="#1f77b4"
             d="m 0,-3 c 0.795609,0 1.55874,0.316099 2.12132,0.87868 C 2.683901,-1.55874 3,-0.795609 3,0 3,0.795609 2.683901,1.55874 2.12132,2.12132 1.55874,2.683901 0.795609,3 0,3 -0.795609,3 -1.55874,2.683901 -2.12132,2.12132 -2.683901,1.55874 -3,0.795609 -3,0 -3,-0.795609 -2.683901,-1.55874 -2.12132,-2.12132 -1.55874,-2.683901 -0.795609,-3 0,-3 Z"
             id="path767" />
        </g>
        <g
           clip-path="url(#clip_21)"
           id="g775">
          <path
             transform="matrix(0.60631,0,0,-0.60631,134.0233,396.5902)"
             d="m 0,-3 c 0.795609,0 1.55874,0.316099 2.12132,0.87868 C 2.683901,-1.55874 3,-0.795609 3,0 3,0.795609 2.683901,1.55874 2.12132,2.12132 1.55874,2.683901 0.795609,3 0,3 -0.795609,3 -1.55874,2.683901 -2.12132,2.12132 -2.683901,1.55874 -3,0.795609 -3,0 -3,-0.795609 -2.683901,-1.55874 -2.12132,-2.12132 -1.55874,-2.683901 -0.795609,-3 0,-3 Z"
             fill="#1f77b4"
             id="path771" />
          <path
             transform="matrix(0.60631,0,0,-0.60631,134.0233,396.5902)"
             stroke-width="1"
             stroke-linecap="butt"
             stroke-linejoin="round"
             fill="none"
             stroke="#1f77b4"
             d="m 0,-3 c 0.795609,0 1.55874,0.316099 2.12132,0.87868 C 2.683901,-1.55874 3,-0.795609 3,0 3,0.795609 2.683901,1.55874 2.12132,2.12132 1.55874,2.683901 0.795609,3 0,3 -0.795609,3 -1.55874,2.683901 -2.12132,2.12132 -2.683901,1.55874 -3,0.795609 -3,0 -3,-0.795609 -2.683901,-1.55874 -2.12132,-2.12132 -1.55874,-2.683901 -0.795609,-3 0,-3 Z"
             id="path773" />
        </g>
        <g
           clip-path="url(#clip_22)"
           id="g781">
          <path
             transform="matrix(0.60631,0,0,-0.60631,148.03897,407.0573)"
             d="m 0,-3 c 0.795609,0 1.55874,0.316099 2.12132,0.87868 C 2.683901,-1.55874 3,-0.795609 3,0 3,0.795609 2.683901,1.55874 2.12132,2.12132 1.55874,2.683901 0.795609,3 0,3 -0.795609,3 -1.55874,2.683901 -2.12132,2.12132 -2.683901,1.55874 -3,0.795609 -3,0 -3,-0.795609 -2.683901,-1.55874 -2.12132,-2.12132 -1.55874,-2.683901 -0.795609,-3 0,-3 Z"
             fill="#1f77b4"
             id="path777" />
          <path
             transform="matrix(0.60631,0,0,-0.60631,148.03897,407.0573)"
             stroke-width="1"
             stroke-linecap="butt"
             stroke-linejoin="round"
             fill="none"
             stroke="#1f77b4"
             d="m 0,-3 c 0.795609,0 1.55874,0.316099 2.12132,0.87868 C 2.683901,-1.55874 3,-0.795609 3,0 3,0.795609 2.683901,1.55874 2.12132,2.12132 1.55874,2.683901 0.795609,3 0,3 -0.795609,3 -1.55874,2.683901 -2.12132,2.12132 -2.683901,1.55874 -3,0.795609 -3,0 -3,-0.795609 -2.683901,-1.55874 -2.12132,-2.12132 -1.55874,-2.683901 -0.795609,-3 0,-3 Z"
             id="path779" />
        </g>
        <g
           clip-path="url(#clip_23)"
           id="g787">
          <path
             transform="matrix(0.60631,0,0,-0.60631,162.05464,417.3868)"
             d="m 0,-3 c 0.795609,0 1.55874,0.316099 2.12132,0.87868 C 2.683901,-1.55874 3,-0.795609 3,0 3,0.795609 2.683901,1.55874 2.12132,2.12132 1.55874,2.683901 0.795609,3 0,3 -0.795609,3 -1.55874,2.683901 -2.12132,2.12132 -2.683901,1.55874 -3,0.795609 -3,0 -3,-0.795609 -2.683901,-1.55874 -2.12132,-2.12132 -1.55874,-2.683901 -0.795609,-3 0,-3 Z"
             fill="#1f77b4"
             id="path783" />
          <path
             transform="matrix(0.60631,0,0,-0.60631,162.05464,417.3868)"
             stroke-width="1"
             stroke-linecap="butt"
             stroke-linejoin="round"
             fill="none"
             stroke="#1f77b4"
             d="m 0,-3 c 0.795609,0 1.55874,0.316099 2.12132,0.87868 C 2.683901,-1.55874 3,-0.795609 3,0 3,0.795609 2.683901,1.55874 2.12132,2.12132 1.55874,2.683901 0.795609,3 0,3 -0.795609,3 -1.55874,2.683901 -2.12132,2.12132 -2.683901,1.55874 -3,0.795609 -3,0 -3,-0.795609 -2.683901,-1.55874 -2.12132,-2.12132 -1.55874,-2.683901 -0.795609,-3 0,-3 Z"
             id="path785" />
        </g>
        <g
           clip-path="url(#clip_24)"
           id="g793">
          <path
             transform="matrix(0.60631,0,0,-0.60631,176.07032,424.78117)"
             d="m 0,-3 c 0.795609,0 1.55874,0.316099 2.12132,0.87868 C 2.683901,-1.55874 3,-0.795609 3,0 3,0.795609 2.683901,1.55874 2.12132,2.12132 1.55874,2.683901 0.795609,3 0,3 -0.795609,3 -1.55874,2.683901 -2.12132,2.12132 -2.683901,1.55874 -3,0.795609 -3,0 -3,-0.795609 -2.683901,-1.55874 -2.12132,-2.12132 -1.55874,-2.683901 -0.795609,-3 0,-3 Z"
             fill="#1f77b4"
             id="path789" />
          <path
             transform="matrix(0.60631,0,0,-0.60631,176.07032,424.78117)"
             stroke-width="1"
             stroke-linecap="butt"
             stroke-linejoin="round"
             fill="none"
             stroke="#1f77b4"
             d="m 0,-3 c 0.795609,0 1.55874,0.316099 2.12132,0.87868 C 2.683901,-1.55874 3,-0.795609 3,0 3,0.795609 2.683901,1.55874 2.12132,2.12132 1.55874,2.683901 0.795609,3 0,3 -0.795609,3 -1.55874,2.683901 -2.12132,2.12132 -2.683901,1.55874 -3,0.795609 -3,0 -3,-0.795609 -2.683901,-1.55874 -2.12132,-2.12132 -1.55874,-2.683901 -0.795609,-3 0,-3 Z"
             id="path791" />
        </g>
        <g
           clip-path="url(#clip_25)"
           id="g799">
          <path
             transform="matrix(0.60631,0,0,-0.60631,190.08599,429.3623)"
             d="m 0,-3 c 0.795609,0 1.55874,0.316099 2.12132,0.87868 C 2.683901,-1.55874 3,-0.795609 3,0 3,0.795609 2.683901,1.55874 2.12132,2.12132 1.55874,2.683901 0.795609,3 0,3 -0.795609,3 -1.55874,2.683901 -2.12132,2.12132 -2.683901,1.55874 -3,0.795609 -3,0 -3,-0.795609 -2.683901,-1.55874 -2.12132,-2.12132 -1.55874,-2.683901 -0.795609,-3 0,-3 Z"
             fill="#1f77b4"
             id="path795" />
          <path
             transform="matrix(0.60631,0,0,-0.60631,190.08599,429.3623)"
             stroke-width="1"
             stroke-linecap="butt"
             stroke-linejoin="round"
             fill="none"
             stroke="#1f77b4"
             d="m 0,-3 c 0.795609,0 1.55874,0.316099 2.12132,0.87868 C 2.683901,-1.55874 3,-0.795609 3,0 3,0.795609 2.683901,1.55874 2.12132,2.12132 1.55874,2.683901 0.795609,3 0,3 -0.795609,3 -1.55874,2.683901 -2.12132,2.12132 -2.683901,1.55874 -3,0.795609 -3,0 -3,-0.795609 -2.683901,-1.55874 -2.12132,-2.12132 -1.55874,-2.683901 -0.795609,-3 0,-3 Z"
             id="path797" />
        </g>
        <g
           clip-path="url(#clip_26)"
           id="g805">
          <path
             transform="matrix(0.60631,0,0,-0.60631,204.10166,431.95954)"
             d="m 0,-3 c 0.795609,0 1.55874,0.316099 2.12132,0.87868 C 2.683901,-1.55874 3,-0.795609 3,0 3,0.795609 2.683901,1.55874 2.12132,2.12132 1.55874,2.683901 0.795609,3 0,3 -0.795609,3 -1.55874,2.683901 -2.12132,2.12132 -2.683901,1.55874 -3,0.795609 -3,0 -3,-0.795609 -2.683901,-1.55874 -2.12132,-2.12132 -1.55874,-2.683901 -0.795609,-3 0,-3 Z"
             fill="#1f77b4"
             id="path801" />
          <path
             transform="matrix(0.60631,0,0,-0.60631,204.10166,431.95954)"
             stroke-width="1"
             stroke-linecap="butt"
             stroke-linejoin="round"
             fill="none"
             stroke="#1f77b4"
             d="m 0,-3 c 0.795609,0 1.55874,0.316099 2.12132,0.87868 C 2.683901,-1.55874 3,-0.795609 3,0 3,0.795609 2.683901,1.55874 2.12132,2.12132 1.55874,2.683901 0.795609,3 0,3 -0.795609,3 -1.55874,2.683901 -2.12132,2.12132 -2.683901,1.55874 -3,0.795609 -3,0 -3,-0.795609 -2.683901,-1.55874 -2.12132,-2.12132 -1.55874,-2.683901 -0.795609,-3 0,-3 Z"
             id="path803" />
        </g>
        <g
           clip-path="url(#clip_27)"
           id="g811">
          <path
             transform="matrix(0.60631,0,0,-0.60631,218.11733,434.85209)"
             d="m 0,-3 c 0.795609,0 1.55874,0.316099 2.12132,0.87868 C 2.683901,-1.55874 3,-0.795609 3,0 3,0.795609 2.683901,1.55874 2.12132,2.12132 1.55874,2.683901 0.795609,3 0,3 -0.795609,3 -1.55874,2.683901 -2.12132,2.12132 -2.683901,1.55874 -3,0.795609 -3,0 -3,-0.795609 -2.683901,-1.55874 -2.12132,-2.12132 -1.55874,-2.683901 -0.795609,-3 0,-3 Z"
             fill="#1f77b4"
             id="path807" />
          <path
             transform="matrix(0.60631,0,0,-0.60631,218.11733,434.85209)"
             stroke-width="1"
             stroke-linecap="butt"
             stroke-linejoin="round"
             fill="none"
             stroke="#1f77b4"
             d="m 0,-3 c 0.795609,0 1.55874,0.316099 2.12132,0.87868 C 2.683901,-1.55874 3,-0.795609 3,0 3,0.795609 2.683901,1.55874 2.12132,2.12132 1.55874,2.683901 0.795609,3 0,3 -0.795609,3 -1.55874,2.683901 -2.12132,2.12132 -2.683901,1.55874 -3,0.795609 -3,0 -3,-0.795609 -2.683901,-1.55874 -2.12132,-2.12132 -1.55874,-2.683901 -0.795609,-3 0,-3 Z"
             id="path809" />
        </g>
        <g
           clip-path="url(#clip_28)"
           id="g817">
          <path
             transform="matrix(0.60631,0,0,-0.60631,232.133,437.2207)"
             d="m 0,-3 c 0.795609,0 1.55874,0.316099 2.12132,0.87868 C 2.683901,-1.55874 3,-0.795609 3,0 3,0.795609 2.683901,1.55874 2.12132,2.12132 1.55874,2.683901 0.795609,3 0,3 -0.795609,3 -1.55874,2.683901 -2.12132,2.12132 -2.683901,1.55874 -3,0.795609 -3,0 -3,-0.795609 -2.683901,-1.55874 -2.12132,-2.12132 -1.55874,-2.683901 -0.795609,-3 0,-3 Z"
             fill="#1f77b4"
             id="path813" />
          <path
             transform="matrix(0.60631,0,0,-0.60631,232.133,437.2207)"
             stroke-width="1"
             stroke-linecap="butt"
             stroke-linejoin="round"
             fill="none"
             stroke="#1f77b4"
             d="m 0,-3 c 0.795609,0 1.55874,0.316099 2.12132,0.87868 C 2.683901,-1.55874 3,-0.795609 3,0 3,0.795609 2.683901,1.55874 2.12132,2.12132 1.55874,2.683901 0.795609,3 0,3 -0.795609,3 -1.55874,2.683901 -2.12132,2.12132 -2.683901,1.55874 -3,0.795609 -3,0 -3,-0.795609 -2.683901,-1.55874 -2.12132,-2.12132 -1.55874,-2.683901 -0.795609,-3 0,-3 Z"
             id="path815" />
        </g>
        <g
           clip-path="url(#clip_29)"
           id="g823">
          <path
             transform="matrix(0.60631,0,0,-0.60631,246.14867,436.8502)"
             d="m 0,-3 c 0.795609,0 1.55874,0.316099 2.12132,0.87868 C 2.683901,-1.55874 3,-0.795609 3,0 3,0.795609 2.683901,1.55874 2.12132,2.12132 1.55874,2.683901 0.795609,3 0,3 -0.795609,3 -1.55874,2.683901 -2.12132,2.12132 -2.683901,1.55874 -3,0.795609 -3,0 -3,-0.795609 -2.683901,-1.55874 -2.12132,-2.12132 -1.55874,-2.683901 -0.795609,-3 0,-3 Z"
             fill="#1f77b4"
             id="path819" />
          <path
             transform="matrix(0.60631,0,0,-0.60631,246.14867,436.8502)"
             stroke-width="1"
             stroke-linecap="butt"
             stroke-linejoin="round"
             fill="none"
             stroke="#1f77b4"
             d="m 0,-3 c 0.795609,0 1.55874,0.316099 2.12132,0.87868 C 2.683901,-1.55874 3,-0.795609 3,0 3,0.795609 2.683901,1.55874 2.12132,2.12132 1.55874,2.683901 0.795609,3 0,3 -0.795609,3 -1.55874,2.683901 -2.12132,2.12132 -2.683901,1.55874 -3,0.795609 -3,0 -3,-0.795609 -2.683901,-1.55874 -2.12132,-2.12132 -1.55874,-2.683901 -0.795609,-3 0,-3 Z"
             id="path821" />
        </g>
        <g
           clip-path="url(#clip_30)"
           id="g829">
          <path
             transform="matrix(0.60631,0,0,-0.60631,260.16435,439.02473)"
             d="m 0,-3 c 0.795609,0 1.55874,0.316099 2.12132,0.87868 C 2.683901,-1.55874 3,-0.795609 3,0 3,0.795609 2.683901,1.55874 2.12132,2.12132 1.55874,2.683901 0.795609,3 0,3 -0.795609,3 -1.55874,2.683901 -2.12132,2.12132 -2.683901,1.55874 -3,0.795609 -3,0 -3,-0.795609 -2.683901,-1.55874 -2.12132,-2.12132 -1.55874,-2.683901 -0.795609,-3 0,-3 Z"
             fill="#1f77b4"
             id="path825" />
          <path
             transform="matrix(0.60631,0,0,-0.60631,260.16435,439.02473)"
             stroke-width="1"
             stroke-linecap="butt"
             stroke-linejoin="round"
             fill="none"
             stroke="#1f77b4"
             d="m 0,-3 c 0.795609,0 1.55874,0.316099 2.12132,0.87868 C 2.683901,-1.55874 3,-0.795609 3,0 3,0.795609 2.683901,1.55874 2.12132,2.12132 1.55874,2.683901 0.795609,3 0,3 -0.795609,3 -1.55874,2.683901 -2.12132,2.12132 -2.683901,1.55874 -3,0.795609 -3,0 -3,-0.795609 -2.683901,-1.55874 -2.12132,-2.12132 -1.55874,-2.683901 -0.795609,-3 0,-3 Z"
             id="path827" />
        </g>
        <g
           clip-path="url(#clip_31)"
           id="g835">
          <path
             transform="matrix(0.60631,0,0,-0.60631,274.18003,440.77583)"
             d="m 0,-3 c 0.795609,0 1.55874,0.316099 2.12132,0.87868 C 2.683901,-1.55874 3,-0.795609 3,0 3,0.795609 2.683901,1.55874 2.12132,2.12132 1.55874,2.683901 0.795609,3 0,3 -0.795609,3 -1.55874,2.683901 -2.12132,2.12132 -2.683901,1.55874 -3,0.795609 -3,0 -3,-0.795609 -2.683901,-1.55874 -2.12132,-2.12132 -1.55874,-2.683901 -0.795609,-3 0,-3 Z"
             fill="#1f77b4"
             id="path831" />
          <path
             transform="matrix(0.60631,0,0,-0.60631,274.18003,440.77583)"
             stroke-width="1"
             stroke-linecap="butt"
             stroke-linejoin="round"
             fill="none"
             stroke="#1f77b4"
             d="m 0,-3 c 0.795609,0 1.55874,0.316099 2.12132,0.87868 C 2.683901,-1.55874 3,-0.795609 3,0 3,0.795609 2.683901,1.55874 2.12132,2.12132 1.55874,2.683901 0.795609,3 0,3 -0.795609,3 -1.55874,2.683901 -2.12132,2.12132 -2.683901,1.55874 -3,0.795609 -3,0 -3,-0.795609 -2.683901,-1.55874 -2.12132,-2.12132 -1.55874,-2.683901 -0.795609,-3 0,-3 Z"
             id="path833" />
        </g>
      </g>
      <g
         clip-path="url(#clip_32)"
         id="g919">
        <path
           transform="matrix(0.60631,0,0,-0.60631,70.866,474.75404)"
           stroke-width="1.5"
           stroke-linecap="butt"
           stroke-dasharray="5.55, 2.4"
           stroke-linejoin="round"
           fill="none"
           stroke="#ff7f0e"
           d="m 57.93399,163.33237 23.11635,-18.24647 23.11635,-17.58643 23.11635,-17.96857 23.11635,-17.59999 23.11636,-12.97502 23.11635,-8.075 23.11635,-3.84536 23.11634,-5.340491 23.11636,-4.126309 23.11635,0.976777 23.11635,-3.953607 23.11635,-3.37372"
           id="path839" />
        <g
           clip-path="url(#clip_33)"
           id="g845">
          <path
             transform="matrix(0.60631,0,0,-0.60631,105.99196,375.72398)"
             d="m 0,-3 c 0.795609,0 1.55874,0.316099 2.12132,0.87868 C 2.683901,-1.55874 3,-0.795609 3,0 3,0.795609 2.683901,1.55874 2.12132,2.12132 1.55874,2.683901 0.795609,3 0,3 -0.795609,3 -1.55874,2.683901 -2.12132,2.12132 -2.683901,1.55874 -3,0.795609 -3,0 -3,-0.795609 -2.683901,-1.55874 -2.12132,-2.12132 -1.55874,-2.683901 -0.795609,-3 0,-3 Z"
             fill="#ff7f0e"
             id="path841" />
          <path
             transform="matrix(0.60631,0,0,-0.60631,105.99196,375.72398)"
             stroke-width="1"
             stroke-linecap="butt"
             stroke-linejoin="round"
             fill="none"
             stroke="#ff7f0e"
             d="m 0,-3 c 0.795609,0 1.55874,0.316099 2.12132,0.87868 C 2.683901,-1.55874 3,-0.795609 3,0 3,0.795609 2.683901,1.55874 2.12132,2.12132 1.55874,2.683901 0.795609,3 0,3 -0.795609,3 -1.55874,2.683901 -2.12132,2.12132 -2.683901,1.55874 -3,0.795609 -3,0 -3,-0.795609 -2.683901,-1.55874 -2.12132,-2.12132 -1.55874,-2.683901 -0.795609,-3 0,-3 Z"
             id="path843" />
        </g>
        <g
           clip-path="url(#clip_34)"
           id="g851">
          <path
             transform="matrix(0.60631,0,0,-0.60631,120.00763,386.787)"
             d="m 0,-3 c 0.795609,0 1.55874,0.316099 2.12132,0.87868 C 2.683901,-1.55874 3,-0.795609 3,0 3,0.795609 2.683901,1.55874 2.12132,2.12132 1.55874,2.683901 0.795609,3 0,3 -0.795609,3 -1.55874,2.683901 -2.12132,2.12132 -2.683901,1.55874 -3,0.795609 -3,0 -3,-0.795609 -2.683901,-1.55874 -2.12132,-2.12132 -1.55874,-2.683901 -0.795609,-3 0,-3 Z"
             fill="#ff7f0e"
             id="path847" />
          <path
             transform="matrix(0.60631,0,0,-0.60631,120.00763,386.787)"
             stroke-width="1"
             stroke-linecap="butt"
             stroke-linejoin="round"
             fill="none"
             stroke="#ff7f0e"
             d="m 0,-3 c 0.795609,0 1.55874,0.316099 2.12132,0.87868 C 2.683901,-1.55874 3,-0.795609 3,0 3,0.795609 2.683901,1.55874 2.12132,2.12132 1.55874,2.683901 0.795609,3 0,3 -0.795609,3 -1.55874,2.683901 -2.12132,2.12132 -2.683901,1.55874 -3,0.795609 -3,0 -3,-0.795609 -2.683901,-1.55874 -2.12132,-2.12132 -1.55874,-2.683901 -0.795609,-3 0,-3 Z"
             id="path849" />
        </g>
        <g
           clip-path="url(#clip_35)"
           id="g857">
          <path
             transform="matrix(0.60631,0,0,-0.60631,134.0233,397.44984)"
             d="m 0,-3 c 0.795609,0 1.55874,0.316099 2.12132,0.87868 C 2.683901,-1.55874 3,-0.795609 3,0 3,0.795609 2.683901,1.55874 2.12132,2.12132 1.55874,2.683901 0.795609,3 0,3 -0.795609,3 -1.55874,2.683901 -2.12132,2.12132 -2.683901,1.55874 -3,0.795609 -3,0 -3,-0.795609 -2.683901,-1.55874 -2.12132,-2.12132 -1.55874,-2.683901 -0.795609,-3 0,-3 Z"
             fill="#ff7f0e"
             id="path853" />
          <path
             transform="matrix(0.60631,0,0,-0.60631,134.0233,397.44984)"
             stroke-width="1"
             stroke-linecap="butt"
             stroke-linejoin="round"
             fill="none"
             stroke="#ff7f0e"
             d="m 0,-3 c 0.795609,0 1.55874,0.316099 2.12132,0.87868 C 2.683901,-1.55874 3,-0.795609 3,0 3,0.795609 2.683901,1.55874 2.12132,2.12132 1.55874,2.683901 0.795609,3 0,3 -0.795609,3 -1.55874,2.683901 -2.12132,2.12132 -2.683901,1.55874 -3,0.795609 -3,0 -3,-0.795609 -2.683901,-1.55874 -2.12132,-2.12132 -1.55874,-2.683901 -0.795609,-3 0,-3 Z"
             id="path855" />
        </g>
        <g
           clip-path="url(#clip_36)"
           id="g863">
          <path
             transform="matrix(0.60631,0,0,-0.60631,148.03897,408.34437)"
             d="m 0,-3 c 0.795609,0 1.55874,0.316099 2.12132,0.87868 C 2.683901,-1.55874 3,-0.795609 3,0 3,0.795609 2.683901,1.55874 2.12132,2.12132 1.55874,2.683901 0.795609,3 0,3 -0.795609,3 -1.55874,2.683901 -2.12132,2.12132 -2.683901,1.55874 -3,0.795609 -3,0 -3,-0.795609 -2.683901,-1.55874 -2.12132,-2.12132 -1.55874,-2.683901 -0.795609,-3 0,-3 Z"
             fill="#ff7f0e"
             id="path859" />
          <path
             transform="matrix(0.60631,0,0,-0.60631,148.03897,408.34437)"
             stroke-width="1"
             stroke-linecap="butt"
             stroke-linejoin="round"
             fill="none"
             stroke="#ff7f0e"
             d="m 0,-3 c 0.795609,0 1.55874,0.316099 2.12132,0.87868 C 2.683901,-1.55874 3,-0.795609 3,0 3,0.795609 2.683901,1.55874 2.12132,2.12132 1.55874,2.683901 0.795609,3 0,3 -0.795609,3 -1.55874,2.683901 -2.12132,2.12132 -2.683901,1.55874 -3,0.795609 -3,0 -3,-0.795609 -2.683901,-1.55874 -2.12132,-2.12132 -1.55874,-2.683901 -0.795609,-3 0,-3 Z"
             id="path861" />
        </g>
        <g
           clip-path="url(#clip_37)"
           id="g869">
          <path
             transform="matrix(0.60631,0,0,-0.60631,162.05464,419.0154)"
             d="m 0,-3 c 0.795609,0 1.55874,0.316099 2.12132,0.87868 C 2.683901,-1.55874 3,-0.795609 3,0 3,0.795609 2.683901,1.55874 2.12132,2.12132 1.55874,2.683901 0.795609,3 0,3 -0.795609,3 -1.55874,2.683901 -2.12132,2.12132 -2.683901,1.55874 -3,0.795609 -3,0 -3,-0.795609 -2.683901,-1.55874 -2.12132,-2.12132 -1.55874,-2.683901 -0.795609,-3 0,-3 Z"
             fill="#ff7f0e"
             id="path865" />
          <path
             transform="matrix(0.60631,0,0,-0.60631,162.05464,419.0154)"
             stroke-width="1"
             stroke-linecap="butt"
             stroke-linejoin="round"
             fill="none"
             stroke="#ff7f0e"
             d="m 0,-3 c 0.795609,0 1.55874,0.316099 2.12132,0.87868 C 2.683901,-1.55874 3,-0.795609 3,0 3,0.795609 2.683901,1.55874 2.12132,2.12132 1.55874,2.683901 0.795609,3 0,3 -0.795609,3 -1.55874,2.683901 -2.12132,2.12132 -2.683901,1.55874 -3,0.795609 -3,0 -3,-0.795609 -2.683901,-1.55874 -2.12132,-2.12132 -1.55874,-2.683901 -0.795609,-3 0,-3 Z"
             id="path867" />
        </g>
        <g
           clip-path="url(#clip_38)"
           id="g875">
          <path
             transform="matrix(0.60631,0,0,-0.60631,176.07032,426.8823)"
             d="m 0,-3 c 0.795609,0 1.55874,0.316099 2.12132,0.87868 C 2.683901,-1.55874 3,-0.795609 3,0 3,0.795609 2.683901,1.55874 2.12132,2.12132 1.55874,2.683901 0.795609,3 0,3 -0.795609,3 -1.55874,2.683901 -2.12132,2.12132 -2.683901,1.55874 -3,0.795609 -3,0 -3,-0.795609 -2.683901,-1.55874 -2.12132,-2.12132 -1.55874,-2.683901 -0.795609,-3 0,-3 Z"
             fill="#ff7f0e"
             id="path871" />
          <path
             transform="matrix(0.60631,0,0,-0.60631,176.07032,426.8823)"
             stroke-width="1"
             stroke-linecap="butt"
             stroke-linejoin="round"
             fill="none"
             stroke="#ff7f0e"
             d="m 0,-3 c 0.795609,0 1.55874,0.316099 2.12132,0.87868 C 2.683901,-1.55874 3,-0.795609 3,0 3,0.795609 2.683901,1.55874 2.12132,2.12132 1.55874,2.683901 0.795609,3 0,3 -0.795609,3 -1.55874,2.683901 -2.12132,2.12132 -2.683901,1.55874 -3,0.795609 -3,0 -3,-0.795609 -2.683901,-1.55874 -2.12132,-2.12132 -1.55874,-2.683901 -0.795609,-3 0,-3 Z"
             id="path873" />
        </g>
        <g
           clip-path="url(#clip_39)"
           id="g881">
          <path
             transform="matrix(0.60631,0,0,-0.60631,190.08599,431.77824)"
             d="m 0,-3 c 0.795609,0 1.55874,0.316099 2.12132,0.87868 C 2.683901,-1.55874 3,-0.795609 3,0 3,0.795609 2.683901,1.55874 2.12132,2.12132 1.55874,2.683901 0.795609,3 0,3 -0.795609,3 -1.55874,2.683901 -2.12132,2.12132 -2.683901,1.55874 -3,0.795609 -3,0 -3,-0.795609 -2.683901,-1.55874 -2.12132,-2.12132 -1.55874,-2.683901 -0.795609,-3 0,-3 Z"
             fill="#ff7f0e"
             id="path877" />
          <path
             transform="matrix(0.60631,0,0,-0.60631,190.08599,431.77824)"
             stroke-width="1"
             stroke-linecap="butt"
             stroke-linejoin="round"
             fill="none"
             stroke="#ff7f0e"
             d="m 0,-3 c 0.795609,0 1.55874,0.316099 2.12132,0.87868 C 2.683901,-1.55874 3,-0.795609 3,0 3,0.795609 2.683901,1.55874 2.12132,2.12132 1.55874,2.683901 0.795609,3 0,3 -0.795609,3 -1.55874,2.683901 -2.12132,2.12132 -2.683901,1.55874 -3,0.795609 -3,0 -3,-0.795609 -2.683901,-1.55874 -2.12132,-2.12132 -1.55874,-2.683901 -0.795609,-3 0,-3 Z"
             id="path879" />
        </g>
        <g
           clip-path="url(#clip_40)"
           id="g887">
          <path
             transform="matrix(0.60631,0,0,-0.60631,204.10166,434.1097)"
             d="m 0,-3 c 0.795609,0 1.55874,0.316099 2.12132,0.87868 C 2.683901,-1.55874 3,-0.795609 3,0 3,0.795609 2.683901,1.55874 2.12132,2.12132 1.55874,2.683901 0.795609,3 0,3 -0.795609,3 -1.55874,2.683901 -2.12132,2.12132 -2.683901,1.55874 -3,0.795609 -3,0 -3,-0.795609 -2.683901,-1.55874 -2.12132,-2.12132 -1.55874,-2.683901 -0.795609,-3 0,-3 Z"
             fill="#ff7f0e"
             id="path883" />
          <path
             transform="matrix(0.60631,0,0,-0.60631,204.10166,434.1097)"
             stroke-width="1"
             stroke-linecap="butt"
             stroke-linejoin="round"
             fill="none"
             stroke="#ff7f0e"
             d="m 0,-3 c 0.795609,0 1.55874,0.316099 2.12132,0.87868 C 2.683901,-1.55874 3,-0.795609 3,0 3,0.795609 2.683901,1.55874 2.12132,2.12132 1.55874,2.683901 0.795609,3 0,3 -0.795609,3 -1.55874,2.683901 -2.12132,2.12132 -2.683901,1.55874 -3,0.795609 -3,0 -3,-0.795609 -2.683901,-1.55874 -2.12132,-2.12132 -1.55874,-2.683901 -0.795609,-3 0,-3 Z"
             id="path885" />
        </g>
        <g
           clip-path="url(#clip_41)"
           id="g893">
          <path
             transform="matrix(0.60631,0,0,-0.60631,218.11733,437.34773)"
             d="m 0,-3 c 0.795609,0 1.55874,0.316099 2.12132,0.87868 C 2.683901,-1.55874 3,-0.795609 3,0 3,0.795609 2.683901,1.55874 2.12132,2.12132 1.55874,2.683901 0.795609,3 0,3 -0.795609,3 -1.55874,2.683901 -2.12132,2.12132 -2.683901,1.55874 -3,0.795609 -3,0 -3,-0.795609 -2.683901,-1.55874 -2.12132,-2.12132 -1.55874,-2.683901 -0.795609,-3 0,-3 Z"
             fill="#ff7f0e"
             id="path889" />
          <path
             transform="matrix(0.60631,0,0,-0.60631,218.11733,437.34773)"
             stroke-width="1"
             stroke-linecap="butt"
             stroke-linejoin="round"
             fill="none"
             stroke="#ff7f0e"
             d="m 0,-3 c 0.795609,0 1.55874,0.316099 2.12132,0.87868 C 2.683901,-1.55874 3,-0.795609 3,0 3,0.795609 2.683901,1.55874 2.12132,2.12132 1.55874,2.683901 0.795609,3 0,3 -0.795609,3 -1.55874,2.683901 -2.12132,2.12132 -2.683901,1.55874 -3,0.795609 -3,0 -3,-0.795609 -2.683901,-1.55874 -2.12132,-2.12132 -1.55874,-2.683901 -0.795609,-3 0,-3 Z"
             id="path891" />
        </g>
        <g
           clip-path="url(#clip_42)"
           id="g899">
          <path
             transform="matrix(0.60631,0,0,-0.60631,232.133,439.84956)"
             d="m 0,-3 c 0.795609,0 1.55874,0.316099 2.12132,0.87868 C 2.683901,-1.55874 3,-0.795609 3,0 3,0.795609 2.683901,1.55874 2.12132,2.12132 1.55874,2.683901 0.795609,3 0,3 -0.795609,3 -1.55874,2.683901 -2.12132,2.12132 -2.683901,1.55874 -3,0.795609 -3,0 -3,-0.795609 -2.683901,-1.55874 -2.12132,-2.12132 -1.55874,-2.683901 -0.795609,-3 0,-3 Z"
             fill="#ff7f0e"
             id="path895" />
          <path
             transform="matrix(0.60631,0,0,-0.60631,232.133,439.84956)"
             stroke-width="1"
             stroke-linecap="butt"
             stroke-linejoin="round"
             fill="none"
             stroke="#ff7f0e"
             d="m 0,-3 c 0.795609,0 1.55874,0.316099 2.12132,0.87868 C 2.683901,-1.55874 3,-0.795609 3,0 3,0.795609 2.683901,1.55874 2.12132,2.12132 1.55874,2.683901 0.795609,3 0,3 -0.795609,3 -1.55874,2.683901 -2.12132,2.12132 -2.683901,1.55874 -3,0.795609 -3,0 -3,-0.795609 -2.683901,-1.55874 -2.12132,-2.12132 -1.55874,-2.683901 -0.795609,-3 0,-3 Z"
             id="path897" />
        </g>
        <g
           clip-path="url(#clip_43)"
           id="g905">
          <path
             transform="matrix(0.60631,0,0,-0.60631,246.14867,439.25733)"
             d="m 0,-3 c 0.795609,0 1.55874,0.316099 2.12132,0.87868 C 2.683901,-1.55874 3,-0.795609 3,0 3,0.795609 2.683901,1.55874 2.12132,2.12132 1.55874,2.683901 0.795609,3 0,3 -0.795609,3 -1.55874,2.683901 -2.12132,2.12132 -2.683901,1.55874 -3,0.795609 -3,0 -3,-0.795609 -2.683901,-1.55874 -2.12132,-2.12132 -1.55874,-2.683901 -0.795609,-3 0,-3 Z"
             fill="#ff7f0e"
             id="path901" />
          <path
             transform="matrix(0.60631,0,0,-0.60631,246.14867,439.25733)"
             stroke-width="1"
             stroke-linecap="butt"
             stroke-linejoin="round"
             fill="none"
             stroke="#ff7f0e"
             d="m 0,-3 c 0.795609,0 1.55874,0.316099 2.12132,0.87868 C 2.683901,-1.55874 3,-0.795609 3,0 3,0.795609 2.683901,1.55874 2.12132,2.12132 1.55874,2.683901 0.795609,3 0,3 -0.795609,3 -1.55874,2.683901 -2.12132,2.12132 -2.683901,1.55874 -3,0.795609 -3,0 -3,-0.795609 -2.683901,-1.55874 -2.12132,-2.12132 -1.55874,-2.683901 -0.795609,-3 0,-3 Z"
             id="path903" />
        </g>
        <g
           clip-path="url(#clip_44)"
           id="g911">
          <path
             transform="matrix(0.60631,0,0,-0.60631,260.16435,441.65446)"
             d="m 0,-3 c 0.795609,0 1.55874,0.316099 2.12132,0.87868 C 2.683901,-1.55874 3,-0.795609 3,0 3,0.795609 2.683901,1.55874 2.12132,2.12132 1.55874,2.683901 0.795609,3 0,3 -0.795609,3 -1.55874,2.683901 -2.12132,2.12132 -2.683901,1.55874 -3,0.795609 -3,0 -3,-0.795609 -2.683901,-1.55874 -2.12132,-2.12132 -1.55874,-2.683901 -0.795609,-3 0,-3 Z"
             fill="#ff7f0e"
             id="path907" />
          <path
             transform="matrix(0.60631,0,0,-0.60631,260.16435,441.65446)"
             stroke-width="1"
             stroke-linecap="butt"
             stroke-linejoin="round"
             fill="none"
             stroke="#ff7f0e"
             d="m 0,-3 c 0.795609,0 1.55874,0.316099 2.12132,0.87868 C 2.683901,-1.55874 3,-0.795609 3,0 3,0.795609 2.683901,1.55874 2.12132,2.12132 1.55874,2.683901 0.795609,3 0,3 -0.795609,3 -1.55874,2.683901 -2.12132,2.12132 -2.683901,1.55874 -3,0.795609 -3,0 -3,-0.795609 -2.683901,-1.55874 -2.12132,-2.12132 -1.55874,-2.683901 -0.795609,-3 0,-3 Z"
             id="path909" />
        </g>
        <g
           clip-path="url(#clip_45)"
           id="g917">
          <path
             transform="matrix(0.60631,0,0,-0.60631,274.18003,443.69999)"
             d="m 0,-3 c 0.795609,0 1.55874,0.316099 2.12132,0.87868 C 2.683901,-1.55874 3,-0.795609 3,0 3,0.795609 2.683901,1.55874 2.12132,2.12132 1.55874,2.683901 0.795609,3 0,3 -0.795609,3 -1.55874,2.683901 -2.12132,2.12132 -2.683901,1.55874 -3,0.795609 -3,0 -3,-0.795609 -2.683901,-1.55874 -2.12132,-2.12132 -1.55874,-2.683901 -0.795609,-3 0,-3 Z"
             fill="#ff7f0e"
             id="path913" />
          <path
             transform="matrix(0.60631,0,0,-0.60631,274.18003,443.69999)"
             stroke-width="1"
             stroke-linecap="butt"
             stroke-linejoin="round"
             fill="none"
             stroke="#ff7f0e"
             d="m 0,-3 c 0.795609,0 1.55874,0.316099 2.12132,0.87868 C 2.683901,-1.55874 3,-0.795609 3,0 3,0.795609 2.683901,1.55874 2.12132,2.12132 1.55874,2.683901 0.795609,3 0,3 -0.795609,3 -1.55874,2.683901 -2.12132,2.12132 -2.683901,1.55874 -3,0.795609 -3,0 -3,-0.795609 -2.683901,-1.55874 -2.12132,-2.12132 -1.55874,-2.683901 -0.795609,-3 0,-3 Z"
             id="path915" />
        </g>
      </g>
      <path
         transform="matrix(0.60631,0,0,-0.60631,70.866,474.75404)"
         stroke-width="0.8"
         stroke-linecap="square"
         stroke-miterlimit="10"
         stroke-linejoin="miter"
         fill="none"
         stroke="#000000"
         d="M 44.06418,45.6 V 169.2"
         id="path921" />
      <path
         transform="matrix(0.60631,0,0,-0.60631,70.866,474.75404)"
         stroke-width="0.8"
         stroke-linecap="square"
         stroke-miterlimit="10"
         stroke-linejoin="miter"
         fill="none"
         stroke="#000000"
         d="M 349.2,45.6 V 169.2"
         id="path923" />
      <path
         transform="matrix(0.60631,0,0,-0.60631,70.866,474.75404)"
         stroke-width="0.8"
         stroke-linecap="square"
         stroke-miterlimit="10"
         stroke-linejoin="miter"
         fill="none"
         stroke="#000000"
         d="M 44.06418,45.6 H 349.2"
         id="path925" />
      <path
         transform="matrix(0.60631,0,0,-0.60631,70.866,474.75404)"
         stroke-width="0.8"
         stroke-linecap="square"
         stroke-miterlimit="10"
         stroke-linejoin="miter"
         fill="none"
         stroke="#000000"
         d="M 44.06418,169.2 H 349.2"
         id="path927" />
      <g
         id="g933">
        <path
           transform="matrix(0.60631,0,0,-0.60631,70.866,474.75404)"
           d="M 275.27815,131.85625 H 342.2 c 1.33334,0 2,0.66667 2,2 V 162.2 c 0,1.33334 -0.66666,2 -2,2 h -66.92185 c -1.33335,0 -2,-0.66666 -2,-2 v -28.34375 c 0,-1.33333 0.66665,-2 2,-2 z"
           fill="#ffffff"
           fill-opacity="0.8"
           id="path929" />
        <path
           transform="matrix(0.60631,0,0,-0.60631,70.866,474.75404)"
           stroke-width="1"
           stroke-linecap="butt"
           stroke-miterlimit="10"
           stroke-linejoin="miter"
           fill="none"
           stroke="#d5d6d5"
           stroke-opacity="0.8"
           d="M 275.27815,131.85625 H 342.2 c 1.33334,0 2,0.66667 2,2 V 162.2 c 0,1.33334 -0.66666,2 -2,2 h -66.92185 c -1.33335,0 -2,-0.66666 -2,-2 v -28.34375 c 0,-1.33333 0.66665,-2 2,-2 z"
           id="path931" />
      </g>
      <path
         transform="matrix(0.60631,0,0,-0.60631,70.866,474.75404)"
         stroke-width="1.5"
         stroke-linecap="butt"
         stroke-dasharray="5.55, 2.4"
         stroke-linejoin="round"
         fill="none"
         stroke="#1f77b4"
         d="m 277.27815,156.10625 h 10 10"
         id="path935" />
      <path
         transform="matrix(0.60631,0,0,-0.60631,70.866,474.75404)"
         d="m 287.27815,153.10625 c 0.79559,0 1.55871,0.3161 2.1213,0.87868 0.5626,0.56259 0.8787,1.32571 0.8787,2.12132 0,0.79561 -0.3161,1.55875 -0.8787,2.12132 -0.56259,0.56258 -1.32571,0.87868 -2.1213,0.87868 -0.79565,0 -1.55875,-0.3161 -2.12135,-0.87868 -0.56255,-0.56257 -0.87865,-1.32571 -0.87865,-2.12132 0,-0.79561 0.3161,-1.55873 0.87865,-2.12132 0.5626,-0.56258 1.3257,-0.87868 2.12135,-0.87868 z"
         fill="#1f77b4"
         id="path937" />
      <path
         transform="matrix(0.60631,0,0,-0.60631,70.866,474.75404)"
         stroke-width="1"
         stroke-linecap="butt"
         stroke-linejoin="round"
         fill="none"
         stroke="#1f77b4"
         d="m 287.27815,153.10625 c 0.79559,0 1.55871,0.3161 2.1213,0.87868 0.5626,0.56259 0.8787,1.32571 0.8787,2.12132 0,0.79561 -0.3161,1.55875 -0.8787,2.12132 -0.56259,0.56258 -1.32571,0.87868 -2.1213,0.87868 -0.79565,0 -1.55875,-0.3161 -2.12135,-0.87868 -0.56255,-0.56257 -0.87865,-1.32571 -0.87865,-2.12132 0,-0.79561 0.3161,-1.55873 0.87865,-2.12132 0.5626,-0.56258 1.3257,-0.87868 2.12135,-0.87868 z"
         id="path939" />
      <g
         id="use941"
         transform="matrix(6.0631,0,0,-6.0631,255.95919,382.22734)">
        <path
           transform="matrix(0.001,0,0,0.001,0,0)"
           d="M 82,729 H 551 V 687 L 286,0 H 183 L 432,646 H 82 Z"
           id="path7313" />
      </g>
      <g
         id="use943"
         transform="matrix(6.0631,0,0,-6.0631,259.8153,382.22734)">
        <path
           transform="matrix(0.001,0,0,0.001,0,0)"
           d="M 197,348 V 81 h 158 c 53,0 92,11 118,33 25,22 38,55 38,101 0,45 -13,78 -38,100 -26,22 -65,33 -118,33 z m 0,300 V 428 h 146 c 48,0 83,9 107,27 24,18 36,45 36,83 0,36 -12,64 -36,82 -24,18 -59,28 -107,28 z m -99,81 h 252 c 75,0 133,-16 174,-47 40,-32 61,-76 61,-133 0,-45 -11,-81 -32,-107 -21,-26 -51,-43 -91,-49 48,-11 86,-33 113,-66 26,-33 40,-74 40,-123 C 615,138 592,88 548,53 504,17 441,0 360,0 H 98 Z"
           id="path7187" />
      </g>
      <g
         id="use945"
         transform="matrix(6.0631,0,0,-6.0631,263.9746,382.22734)" />
      <g
         id="use947"
         transform="matrix(6.0631,0,0,-6.0631,265.90269,382.22734)">
        <path
           transform="matrix(0.001,0,0,0.001,0,0)"
           d="m 318,346 c -47,0 -84,-13 -111,-38 -27,-25 -40,-59 -40,-103 0,-44 13,-79 40,-104 27,-25 64,-37 111,-37 46,0 83,12 110,38 27,25 41,59 41,103 0,44 -14,78 -40,103 -27,25 -64,38 -111,38 z m -99,42 c -42,10 -75,30 -99,59 -24,29 -35,64 -35,106 0,58 20,104 62,138 41,34 98,51 171,51 72,0 129,-17 171,-51 41,-34 62,-80 62,-138 0,-42 -12,-77 -36,-106 -24,-29 -56,-49 -98,-59 47,-11 84,-33 111,-65 26,-32 40,-72 40,-118 C 568,134 546,80 503,43 459,5 397,-13 317,-13 237,-13 175,5 132,43 89,80 68,134 68,205 c 0,46 13,86 40,118 26,32 63,54 111,65 z m -36,156 c 0,-38 11,-68 35,-89 24,-21 57,-31 100,-31 42,0 75,10 99,31 24,21 36,51 36,89 0,38 -12,67 -36,88 -24,21 -57,32 -99,32 -43,0 -76,-11 -100,-32 -24,-21 -35,-50 -35,-88 z"
           id="path7179" />
      </g>
      <g
         id="use949"
         transform="matrix(6.0631,0,0,-6.0631,269.7588,382.22734)">
        <path
           transform="matrix(0.001,0,0,0.001,0,0)"
           d="m 91,760 h 90 V 311 L 449,547 H 564 L 274,291 576,0 H 459 L 181,267 V 0 H 91 Z"
           id="path7171" />
      </g>
      <path
         transform="matrix(0.60631,0,0,-0.60631,70.866,474.75404)"
         stroke-width="1.5"
         stroke-linecap="butt"
         stroke-dasharray="5.55, 2.4"
         stroke-linejoin="round"
         fill="none"
         stroke="#ff7f0e"
         d="m 277.27815,141.43437 h 10 10"
         id="path951" />
      <path
         transform="matrix(0.60631,0,0,-0.60631,70.866,474.75404)"
         d="m 287.27815,138.43437 c 0.79559,0 1.55871,0.31611 2.1213,0.87868 0.5626,0.56259 0.8787,1.32572 0.8787,2.12132 0,0.79561 -0.3161,1.55875 -0.8787,2.12133 -0.56259,0.56257 -1.32571,0.87867 -2.1213,0.87867 -0.79565,0 -1.55875,-0.3161 -2.12135,-0.87867 -0.56255,-0.56258 -0.87865,-1.32572 -0.87865,-2.12133 0,-0.7956 0.3161,-1.55873 0.87865,-2.12132 0.5626,-0.56257 1.3257,-0.87868 2.12135,-0.87868 z"
         fill="#ff7f0e"
         id="path953" />
      <path
         transform="matrix(0.60631,0,0,-0.60631,70.866,474.75404)"
         stroke-width="1"
         stroke-linecap="butt"
         stroke-linejoin="round"
         fill="none"
         stroke="#ff7f0e"
         d="m 287.27815,138.43437 c 0.79559,0 1.55871,0.31611 2.1213,0.87868 0.5626,0.56259 0.8787,1.32572 0.8787,2.12132 0,0.79561 -0.3161,1.55875 -0.8787,2.12133 -0.56259,0.56257 -1.32571,0.87867 -2.1213,0.87867 -0.79565,0 -1.55875,-0.3161 -2.12135,-0.87867 -0.56255,-0.56258 -0.87865,-1.32572 -0.87865,-2.12133 0,-0.7956 0.3161,-1.55873 0.87865,-2.12132 0.5626,-0.56257 1.3257,-0.87868 2.12135,-0.87868 z"
         id="path955" />
      <g
         id="use957"
         transform="matrix(6.0631,0,0,-6.0631,255.95919,391.12306)">
        <path
           transform="matrix(0.001,0,0,0.001,0,0)"
           d="M 124,83 H 285 V 639 L 110,604 v 90 l 174,35 h 99 V 83 H 544 V 0 H 124 Z"
           id="path7341" />
      </g>
      <g
         id="use959"
         transform="matrix(6.0631,0,0,-6.0631,259.8153,391.12306)">
        <path
           transform="matrix(0.001,0,0,0.001,0,0)"
           d="M 378,643 129,254 h 249 z m -26,86 H 476 V 254 H 580 V 172 H 476 V 0 H 378 V 172 H 49 v 95 z"
           id="path7167" />
      </g>
      <g
         id="use961"
         transform="matrix(6.0631,0,0,-6.0631,263.67146,391.12306)">
        <path
           transform="matrix(0.001,0,0,0.001,0,0)"
           d="M 197,348 V 81 h 158 c 53,0 92,11 118,33 25,22 38,55 38,101 0,45 -13,78 -38,100 -26,22 -65,33 -118,33 z m 0,300 V 428 h 146 c 48,0 83,9 107,27 24,18 36,45 36,83 0,36 -12,64 -36,82 -24,18 -59,28 -107,28 z m -99,81 h 252 c 75,0 133,-16 174,-47 40,-32 61,-76 61,-133 0,-45 -11,-81 -32,-107 -21,-26 -51,-43 -91,-49 48,-11 86,-33 113,-66 26,-33 40,-74 40,-123 C 615,138 592,88 548,53 504,17 441,0 360,0 H 98 Z"
           id="path7191" />
      </g>
      <g
         id="use963"
         transform="matrix(6.0631,0,0,-6.0631,267.83076,391.12306)" />
      <g
         id="use965"
         transform="matrix(6.0631,0,0,-6.0631,269.7588,391.12306)">
        <path
           transform="matrix(0.001,0,0,0.001,0,0)"
           d="m 318,346 c -47,0 -84,-13 -111,-38 -27,-25 -40,-59 -40,-103 0,-44 13,-79 40,-104 27,-25 64,-37 111,-37 46,0 83,12 110,38 27,25 41,59 41,103 0,44 -14,78 -40,103 -27,25 -64,38 -111,38 z m -99,42 c -42,10 -75,30 -99,59 -24,29 -35,64 -35,106 0,58 20,104 62,138 41,34 98,51 171,51 72,0 129,-17 171,-51 41,-34 62,-80 62,-138 0,-42 -12,-77 -36,-106 -24,-29 -56,-49 -98,-59 47,-11 84,-33 111,-65 26,-32 40,-72 40,-118 C 568,134 546,80 503,43 459,5 397,-13 317,-13 237,-13 175,5 132,43 89,80 68,134 68,205 c 0,46 13,86 40,118 26,32 63,54 111,65 z m -36,156 c 0,-38 11,-68 35,-89 24,-21 57,-31 100,-31 42,0 75,10 99,31 24,21 36,51 36,89 0,38 -12,67 -36,88 -24,21 -57,32 -99,32 -43,0 -76,-11 -100,-32 -24,-21 -35,-50 -35,-88 z"
           id="path7183" />
      </g>
      <g
         id="use967"
         transform="matrix(6.0631,0,0,-6.0631,273.61494,391.12306)">
        <path
           transform="matrix(0.001,0,0,0.001,0,0)"
           d="m 91,760 h 90 V 311 L 449,547 H 564 L 274,291 576,0 H 459 L 181,267 V 0 H 91 Z"
           id="path7175" />
      </g>
    </g>
  </g>
</svg>
