<?xml version="1.0" encoding="UTF-8" standalone="no"?>
<!-- Created with Inkscape (http://www.inkscape.org/) -->

<svg
   width="41.073174mm"
   height="40.037094mm"
   viewBox="0 0 41.073174 40.037094"
   version="1.1"
   id="svg45789"
   inkscape:version="1.2.2 (b0a84865, 2022-12-01)"
   sodipodi:docname="figure4a.svg"
   xmlns:inkscape="http://www.inkscape.org/namespaces/inkscape"
   xmlns:sodipodi="http://sodipodi.sourceforge.net/DTD/sodipodi-0.dtd"
   xmlns="http://www.w3.org/2000/svg"
   xmlns:svg="http://www.w3.org/2000/svg">
  <sodipodi:namedview
     id="namedview45791"
     pagecolor="#ffffff"
     bordercolor="#999999"
     borderopacity="1"
     inkscape:showpageshadow="0"
     inkscape:pageopacity="0"
     inkscape:pagecheckerboard="0"
     inkscape:deskcolor="#d1d1d1"
     inkscape:document-units="mm"
     showgrid="false"
     inkscape:zoom="0.914906"
     inkscape:cx="28.41822"
     inkscape:cy="422.44777"
     inkscape:window-width="1390"
     inkscape:window-height="1205"
     inkscape:window-x="0"
     inkscape:window-y="25"
     inkscape:window-maximized="0"
     inkscape:current-layer="layer1" />
  <defs
     id="defs45786">
    <clipPath
       id="clip_2">
      <path
         transform="matrix(0.20978,0,0,-0.20978,108,207.51599)"
         d="M 0,0 H 555 V 541 H 0 Z"
         id="path37657" />
    </clipPath>
    <clipPath
       id="clip_3">
      <path
         transform="matrix(0.20978,0,0,-0.20978,-27.937439,261.0099)"
         d="M 0,0 H 1920 V 1080 H 0 Z"
         id="path37660" />
    </clipPath>
    <clipPath
       id="clip_4">
      <path
         transform="matrix(0.20978,0,0,-0.20978,-27.937439,261.0099)"
         d="M 0,0 H 1920 V 1080 H 0 Z"
         id="path37663" />
    </clipPath>
    <clipPath
       id="clip_5">
      <path
         transform="matrix(0.20978,0,0,-0.20978,-27.937439,261.0099)"
         d="m 637.2822,243.7125 h 579 v 563.30217 h -579 z"
         id="path37666" />
    </clipPath>
    <clipPath
       id="clip_6">
      <path
         transform="matrix(0.20978,0,0,-0.20978,-27.937439,261.0099)"
         d="m 718.511,325.5038 h 472.3683 V 794.8246 H 718.511 Z"
         id="path37669" />
    </clipPath>
    <clipPath
       id="clip_7">
      <path
         transform="matrix(0.20978,0,0,-0.20978,-27.937439,261.0099)"
         d="m 637.2822,243.7125 h 579 v 563.30217 h -579 z"
         id="path37672" />
    </clipPath>
    <clipPath
       id="clip_9">
      <path
         transform="matrix(0.20978,0,0,-0.20978,-27.937439,261.0099)"
         d="m 718.511,325.5038 h 472.3683 V 794.8246 H 718.511 Z"
         id="path37676" />
    </clipPath>
    <clipPath
       id="clip_10">
      <path
         transform="matrix(0.20978,0,0,-0.20978,-27.937439,261.0099)"
         d="m 637.2822,243.7125 h 579 v 563.30217 h -579 z"
         id="path37679" />
    </clipPath>
    <clipPath
       id="clip_11">
      <path
         transform="matrix(0.20978,0,0,-0.20978,-27.937439,261.0099)"
         d="m 718.511,325.5038 h 472.3683 V 794.8246 H 718.511 Z"
         id="path37683" />
    </clipPath>
    <clipPath
       id="clip_12">
      <path
         transform="matrix(0.20978,0,0,-0.20978,-27.937439,261.0099)"
         d="m 637.2822,243.7125 h 579 v 563.30217 h -579 z"
         id="path37686" />
    </clipPath>
    <clipPath
       id="clip_13">
      <path
         transform="matrix(0.20978,0,0,-0.20978,-27.937439,261.0099)"
         d="m 718.511,325.5038 h 472.3683 V 794.8246 H 718.511 Z"
         id="path37690" />
    </clipPath>
    <clipPath
       id="clip_14">
      <path
         transform="matrix(0.20978,0,0,-0.20978,-27.937439,261.0099)"
         d="m 637.2822,243.7125 h 579 v 563.30217 h -579 z"
         id="path37693" />
    </clipPath>
    <clipPath
       id="clip_16">
      <path
         transform="matrix(0.20978,0,0,-0.20978,-27.937439,261.0099)"
         d="m 718.511,325.5038 h 472.3683 V 794.8246 H 718.511 Z"
         id="path37712" />
    </clipPath>
    <clipPath
       id="clip_17">
      <path
         transform="matrix(0.20978,0,0,-0.20978,-27.937439,261.0099)"
         d="m 637.2822,243.7125 h 579 v 563.30217 h -579 z"
         id="path37715" />
    </clipPath>
    <clipPath
       id="clip_18">
      <path
         transform="matrix(0.20978,0,0,-0.20978,-27.937439,261.0099)"
         d="m 718.511,325.5038 h 472.3683 V 794.8246 H 718.511 Z"
         id="path37719" />
    </clipPath>
    <clipPath
       id="clip_19">
      <path
         transform="matrix(0.20978,0,0,-0.20978,-27.937439,261.0099)"
         d="m 637.2822,243.7125 h 579 v 563.30217 h -579 z"
         id="path37722" />
    </clipPath>
    <clipPath
       id="clip_20">
      <path
         transform="matrix(0.20978,0,0,-0.20978,-27.937439,261.0099)"
         d="m 718.511,325.5038 h 472.3683 V 794.8246 H 718.511 Z"
         id="path37726" />
    </clipPath>
    <clipPath
       id="clip_21">
      <path
         transform="matrix(0.20978,0,0,-0.20978,-27.937439,261.0099)"
         d="m 637.2822,243.7125 h 579 v 563.30217 h -579 z"
         id="path37729" />
    </clipPath>
    <clipPath
       id="clip_22">
      <path
         transform="matrix(0.20978,0,0,-0.20978,-27.937439,261.0099)"
         d="m 718.511,325.5038 h 472.3683 V 794.8246 H 718.511 Z"
         id="path37733" />
    </clipPath>
    <clipPath
       id="clip_23">
      <path
         transform="matrix(0.20978,0,0,-0.20978,-27.937439,261.0099)"
         d="m 637.2822,243.7125 h 579 v 563.30217 h -579 z"
         id="path37736" />
    </clipPath>
    <clipPath
       id="clip_24">
      <path
         transform="matrix(0.20978,0,0,-0.20978,-27.937439,261.0099)"
         d="m 718.511,325.5038 h 472.3683 V 794.8246 H 718.511 Z"
         id="path37739" />
    </clipPath>
    <clipPath
       id="clip_25">
      <path
         transform="matrix(0.20978,0,0,-0.20978,-27.937439,261.0099)"
         d="m 637.2822,243.7125 h 579 v 563.30217 h -579 z"
         id="path37742" />
    </clipPath>
    <clipPath
       id="clip_26">
      <path
         transform="matrix(0.20978,0,0,-0.20978,-27.937439,261.0099)"
         d="m 718.511,325.5038 h 472.3683 V 794.8246 H 718.511 Z"
         id="path37753" />
    </clipPath>
    <clipPath
       id="clip_27">
      <path
         transform="matrix(0.20978,0,0,-0.20978,-27.937439,261.0099)"
         d="m 731.3748,344.9126 h 18.62388 v 18.62385 H 731.3748 Z"
         id="path37756" />
    </clipPath>
    <clipPath
       id="clip_28">
      <path
         transform="matrix(0.20978,0,0,-0.20978,-27.937439,261.0099)"
         d="m 762.7836,547.1583 h 18.6239 v 18.62389 h -18.6239 z"
         id="path37759" />
    </clipPath>
    <clipPath
       id="clip_29">
      <path
         transform="matrix(0.20978,0,0,-0.20978,-27.937439,261.0099)"
         d="m 946.904,611.803 h 18.62386 v 18.6238 H 946.904 Z"
         id="path37762" />
    </clipPath>
    <clipPath
       id="clip_30">
      <path
         transform="matrix(0.20978,0,0,-0.20978,-27.937439,261.0099)"
         d="m 1163.516,631.1965 h 18.6239 v 18.6238 h -18.6239 z"
         id="path37765" />
    </clipPath>
    <clipPath
       id="clip_31">
      <path
         transform="matrix(0.20978,0,0,-0.20978,-27.937439,261.0099)"
         d="m 718.511,325.5038 h 472.3683 V 794.8246 H 718.511 Z"
         id="path37768" />
    </clipPath>
    <clipPath
       id="clip_32">
      <path
         transform="matrix(0.20978,0,0,-0.20978,-27.937439,261.0099)"
         d="m 741.1223,475.1256 h 18.62388 v 18.62386 H 741.1223 Z"
         id="path37771" />
    </clipPath>
    <clipPath
       id="clip_33">
      <path
         transform="matrix(0.20978,0,0,-0.20978,-27.937439,261.0099)"
         d="m 802.4958,621.9615 h 18.6238 v 18.6238 h -18.6238 z"
         id="path37774" />
    </clipPath>
    <clipPath
       id="clip_34">
      <path
         transform="matrix(0.20978,0,0,-0.20978,-27.937439,261.0099)"
         d="m 915.1342,638.5844 h 18.62388 v 18.62388 H 915.1342 Z"
         id="path37777" />
    </clipPath>
    <clipPath
       id="clip_35">
      <path
         transform="matrix(0.20978,0,0,-0.20978,-27.937439,261.0099)"
         d="m 1099.977,675.5243 h 18.6238 v 18.62386 h -18.6238 z"
         id="path37780" />
    </clipPath>
    <clipPath
       id="clip_36">
      <path
         transform="matrix(0.20978,0,0,-0.20978,-27.937439,261.0099)"
         d="m 718.511,325.5038 h 472.3683 V 794.8246 H 718.511 Z"
         id="path37783" />
    </clipPath>
    <clipPath
       id="clip_37">
      <path
         transform="matrix(0.20978,0,0,-0.20978,-27.937439,261.0099)"
         d="m 730.8332,413.2513 h 18.62386 v 18.62386 H 730.8332 Z"
         id="path37786" />
    </clipPath>
    <clipPath
       id="clip_38">
      <path
         transform="matrix(0.20978,0,0,-0.20978,-27.937439,261.0099)"
         d="m 746.5376,585.9451 h 18.62386 V 604.569 H 746.5376 Z"
         id="path37789" />
    </clipPath>
    <clipPath
       id="clip_39">
      <path
         transform="matrix(0.20978,0,0,-0.20978,-27.937439,261.0099)"
         d="m 838.5979,627.5025 h 18.62387 v 18.62387 H 838.5979 Z"
         id="path37792" />
    </clipPath>
    <clipPath
       id="clip_40">
      <path
         transform="matrix(0.20978,0,0,-0.20978,-27.937439,261.0099)"
         d="m 1007.555,621.9615 h 18.6238 v 18.6238 h -18.6238 z"
         id="path37795" />
    </clipPath>
    <clipPath
       id="clip_41">
      <path
         transform="matrix(0.20978,0,0,-0.20978,-27.937439,261.0099)"
         d="m 718.511,325.5038 h 472.3683 V 794.8246 H 718.511 Z"
         id="path37798" />
    </clipPath>
    <clipPath
       id="clip_42">
      <path
         transform="matrix(0.20978,0,0,-0.20978,-27.937439,261.0099)"
         d="m 718.511,325.5038 h 472.3683 V 794.8246 H 718.511 Z"
         id="path37801" />
    </clipPath>
    <clipPath
       id="clip_43">
      <path
         transform="matrix(0.20978,0,0,-0.20978,-27.937439,261.0099)"
         d="m 637.2822,243.7125 h 579 v 563.30217 h -579 z"
         id="path37804" />
    </clipPath>
    <clipPath
       id="clip_44">
      <path
         transform="matrix(0.20978,0,0,-0.20978,-27.937439,261.0099)"
         d="M 0,0 H 1920 V 1080 H 0 Z"
         id="path37807" />
    </clipPath>
  </defs>
  <g
     inkscape:label="Layer 1"
     inkscape:groupmode="layer"
     id="layer1"
     transform="translate(-38.169352,-36.663049)">
    <g
       clip-path="url(#clip_2)"
       id="g38469"
       transform="matrix(0.35277777,0,0,0.35277777,0.06935301,3.4931161)">
      <g
         clip-path="url(#clip_3)"
         id="g38467">
        <g
           clip-path="url(#clip_4)"
           id="g38141">
          <path
             transform="matrix(0.20978,0,0,-0.20978,-27.937439,261.0099)"
             d="M 0,0 H 1920 V 1080 H 0 Z"
             fill="#ffffff"
             id="path38139" />
        </g>
        <g
           clip-path="url(#clip_5)"
           id="g38147">
          <path
             transform="matrix(0.20978,0,0,-0.20978,-27.937439,261.0099)"
             d="m 637.2822,243.7125 h 579 v 563.30217 h -579 z"
             fill="#ffffff"
             id="path38143" />
          <path
             transform="matrix(0.20978,0,0,-0.20978,-27.937439,261.0099)"
             d="m 718.511,325.5038 h 472.3683 V 794.8246 H 718.511 Z"
             fill="#ffffff"
             id="path38145" />
        </g>
        <g
           clip-path="url(#clip_6)"
           id="g38151">
          <path
             transform="matrix(0.35517348,0,0,-0.35517348,105.75162,209.88388)"
             stroke-width="0.8"
             stroke-linecap="square"
             stroke-linejoin="round"
             fill="none"
             stroke="#b0b0b0"
             d="M 60.4352,48.30929 V 325.5093"
             id="path38149" />
        </g>
        <g
           clip-path="url(#clip_7)"
           id="g38159">
          <path
             transform="matrix(0.35517348,0,0,-0.35517348,105.75162,209.88388)"
             d="m 60.4352,48.30929 v -3.5"
             id="path38153" />
          <path
             transform="matrix(0.35517348,0,0,-0.35517348,105.75162,209.88388)"
             stroke-width="0.8"
             stroke-linecap="butt"
             stroke-linejoin="round"
             fill="none"
             stroke="#000000"
             d="m 60.4352,48.30929 v -3.5"
             id="path38155" />
          <path
             id="use38157"
             d="m 128.36707,197.33319 c 0,-0.4703 -0.0283,-0.92928 -0.23213,-1.35993 -0.23212,-0.47021 -0.63979,-0.59487 -0.91718,-0.59487 -0.32836,0 -0.73033,0.16431 -0.93982,0.63461 -0.15852,0.35696 -0.21519,0.70821 -0.21519,1.32019 0,0.5496 0.0397,0.96323 0.24353,1.36554 0.22072,0.43056 0.61137,0.56644 0.90578,0.56644 0.49258,0 0.77568,-0.29449 0.93982,-0.62311 0.20387,-0.42495 0.21519,-0.98025 0.21519,-1.30887 m -1.15501,1.81882 c -0.18116,0 -0.54917,-0.10203 -0.65672,-0.71962 -0.0623,-0.33994 -0.0623,-0.77058 -0.0623,-1.16719 0,-0.46468 0,-0.88393 0.0906,-1.21825 0.0962,-0.37959 0.38495,-0.5553 0.62839,-0.5553 0.21519,0 0.54355,0.13036 0.65111,0.61767 0.0736,0.32292 0.0736,0.77059 0.0736,1.15588 0,0.37959 0,0.81024 -0.0623,1.15587 -0.10755,0.6233 -0.46425,0.73094 -0.66242,0.73094 z"
             style="stroke-width:5.66154" />
        </g>
        <g
           clip-path="url(#clip_9)"
           id="g38163">
          <path
             transform="matrix(0.35517348,0,0,-0.35517348,105.75162,209.88388)"
             stroke-width="0.8"
             stroke-linecap="square"
             stroke-linejoin="round"
             fill="none"
             stroke="#b0b0b0"
             d="M 149.2825,48.30929 V 325.5093"
             id="path38161" />
        </g>
        <g
           clip-path="url(#clip_10)"
           id="g38171">
          <path
             transform="matrix(0.35517348,0,0,-0.35517348,105.75162,209.88388)"
             d="m 149.2825,48.30929 v -3.5"
             id="path38165" />
          <path
             transform="matrix(0.35517348,0,0,-0.35517348,105.75162,209.88388)"
             stroke-width="0.8"
             stroke-linecap="butt"
             stroke-linejoin="round"
             fill="none"
             stroke="#000000"
             d="m 149.2825,48.30929 v -3.5"
             id="path38167" />
          <path
             id="use38169"
             d="m 158.11155,195.90061 c 0.24344,0.0792 0.44161,0.0849 0.5039,0.0849 0.6397,0 1.04737,-0.47099 1.04737,-0.55064 0,-0.0226 -0.0113,-0.051 -0.0453,-0.051 -0.0113,0 -0.0226,0 -0.0736,0.0227 -0.31705,0.13684 -0.58883,0.1542 -0.73603,0.1542 -0.37363,0 -0.63979,-0.11463 -0.74735,-0.1599 -0.0396,-0.017 -0.051,-0.017 -0.0566,-0.017 -0.0453,0 -0.0453,0.034 -0.0453,0.12483 v 1.68181 c 0,0.10194 0,0.13589 0.0679,0.13589 0.0283,0 0.034,-0.006 0.0906,-0.0736 0.15852,-0.23204 0.4246,-0.36793 0.70769,-0.36793 0.30003,0 0.44723,0.27739 0.4925,0.37363 0.0962,0.22072 0.10194,0.49811 0.10194,0.71322 0,0.21511 0,0.53803 -0.15852,0.79382 -0.12457,0.20466 -0.34538,0.34676 -0.59443,0.34676 -0.37372,0 -0.74173,-0.25579 -0.84358,-0.67071 0.0282,0.0113 0.0623,0.017 0.0905,0.017 0.0962,0 0.24914,-0.0567 0.24914,-0.24914 0,-0.15852 -0.10755,-0.24914 -0.24914,-0.24914 -0.10185,0 -0.24906,0.051 -0.24906,0.27177 0,0.48231 0.38495,1.03303 1.01342,1.03303 0.63971,0 1.2002,-0.5394 1.2002,-1.25945 0,-0.67357 -0.45285,-1.23406 -1.04738,-1.23406 -0.32266,0 -0.5718,0.14159 -0.719,0.30003 z"
             style="stroke-width:5.66154" />
        </g>
        <g
           clip-path="url(#clip_11)"
           id="g38175">
          <path
             transform="matrix(0.35517348,0,0,-0.35517348,105.75162,209.88388)"
             stroke-width="0.8"
             stroke-linecap="square"
             stroke-linejoin="round"
             fill="none"
             stroke="#b0b0b0"
             d="M 238.1298,48.30929 V 325.5093"
             id="path38173" />
        </g>
        <g
           clip-path="url(#clip_12)"
           id="g38185">
          <path
             transform="matrix(0.35517348,0,0,-0.35517348,105.75162,209.88388)"
             d="m 238.1298,48.30929 v -3.5"
             id="path38177" />
          <path
             transform="matrix(0.35517348,0,0,-0.35517348,105.75162,209.88388)"
             stroke-width="0.8"
             stroke-linecap="butt"
             stroke-linejoin="round"
             fill="none"
             stroke="#000000"
             d="m 238.1298,48.30929 v -3.5"
             id="path38179" />
          <path
             id="use38181"
             d="m 189.18773,195.51419 c 0,-0.1301 0,-0.1358 -0.11325,-0.1358 -0.13589,0.15274 -0.4189,0.36111 -1.00211,0.36111 v 0.16413 c 0.13028,0 0.41329,0 0.72471,-0.14712 v 2.95103 c 0,0.20387 -0.017,0.27186 -0.51521,0.27186 h -0.17546 v 0.16414 c 0.15282,-0.0113 0.70199,-0.0113 0.88885,-0.0113 0.18677,0 0.73033,0 0.88315,0.0113 v -0.16414 h -0.17546 c -0.4982,0 -0.51522,-0.068 -0.51522,-0.27186 z"
             style="stroke-width:5.66154" />
          <path
             id="use38183"
             d="m 192.86209,197.33319 c 0,-0.4703 -0.0283,-0.92928 -0.23213,-1.35993 -0.23212,-0.47021 -0.63979,-0.59487 -0.91718,-0.59487 -0.32836,0 -0.73033,0.16431 -0.93982,0.63461 -0.15852,0.35696 -0.21519,0.70821 -0.21519,1.32019 0,0.5496 0.0396,0.96323 0.24353,1.36554 0.22072,0.43056 0.61137,0.56644 0.90578,0.56644 0.49258,0 0.77568,-0.29449 0.93982,-0.62311 0.20387,-0.42495 0.21519,-0.98025 0.21519,-1.30887 m -1.15501,1.81882 c -0.18116,0 -0.54917,-0.10203 -0.65672,-0.71962 -0.0623,-0.33994 -0.0623,-0.77058 -0.0623,-1.16719 0,-0.46468 0,-0.88393 0.0906,-1.21825 0.0962,-0.37959 0.38495,-0.5553 0.62839,-0.5553 0.21519,0 0.54355,0.13036 0.65111,0.61767 0.0736,0.32292 0.0736,0.77059 0.0736,1.15588 0,0.37959 0,0.81024 -0.0623,1.15587 -0.10755,0.6233 -0.46425,0.73094 -0.66242,0.73094 z"
             style="stroke-width:5.66154" />
        </g>
        <g
           clip-path="url(#clip_13)"
           id="g38189">
          <path
             transform="matrix(0.35517348,0,0,-0.35517348,105.75162,209.88388)"
             stroke-width="0.8"
             stroke-linecap="square"
             stroke-linejoin="round"
             fill="none"
             stroke="#b0b0b0"
             d="M 326.977,48.30929 V 325.5093"
             id="path38187" />
        </g>
        <g
           clip-path="url(#clip_14)"
           id="g38245">
          <path
             transform="matrix(0.35517348,0,0,-0.35517348,105.75162,209.88388)"
             d="m 326.977,48.30929 v -3.5"
             id="path38191" />
          <path
             transform="matrix(0.35517348,0,0,-0.35517348,105.75162,209.88388)"
             stroke-width="0.8"
             stroke-linecap="butt"
             stroke-linejoin="round"
             fill="none"
             stroke="#000000"
             d="m 326.977,48.30929 v -3.5"
             id="path38193" />
          <path
             id="use38195"
             d="m 220.74393,195.51419 c 0,-0.1301 0,-0.1358 -0.11325,-0.1358 -0.13589,0.15274 -0.4189,0.36111 -1.00211,0.36111 v 0.16413 c 0.13028,0 0.41329,0 0.72471,-0.14712 v 2.95103 c 0,0.20387 -0.017,0.27186 -0.51521,0.27186 h -0.17546 v 0.16414 c 0.15282,-0.0113 0.70199,-0.0113 0.88885,-0.0113 0.18677,0 0.73033,0 0.88315,0.0113 v -0.16414 h -0.17546 c -0.4982,0 -0.51522,-0.068 -0.51522,-0.27186 z"
             style="stroke-width:5.66154" />
          <path
             id="use38197"
             d="m 222.60656,195.90061 c 0.24344,0.0792 0.44161,0.0849 0.5039,0.0849 0.6397,0 1.04737,-0.47099 1.04737,-0.55064 0,-0.0226 -0.0113,-0.051 -0.0453,-0.051 -0.0113,0 -0.0226,0 -0.0736,0.0227 -0.31705,0.13684 -0.58883,0.1542 -0.73603,0.1542 -0.37363,0 -0.63979,-0.11463 -0.74735,-0.1599 -0.0396,-0.017 -0.051,-0.017 -0.0566,-0.017 -0.0453,0 -0.0453,0.034 -0.0453,0.12483 v 1.68181 c 0,0.10194 0,0.13589 0.0679,0.13589 0.0283,0 0.034,-0.006 0.0906,-0.0736 0.15852,-0.23204 0.4246,-0.36793 0.70769,-0.36793 0.30003,0 0.44723,0.27739 0.4925,0.37363 0.0962,0.22072 0.10194,0.49811 0.10194,0.71322 0,0.21511 0,0.53803 -0.15852,0.79382 -0.12457,0.20466 -0.34538,0.34676 -0.59443,0.34676 -0.37372,0 -0.74173,-0.25579 -0.84358,-0.67071 0.0282,0.0113 0.0623,0.017 0.0905,0.017 0.0962,0 0.24914,-0.0567 0.24914,-0.24914 0,-0.15852 -0.10755,-0.24914 -0.24914,-0.24914 -0.10185,0 -0.24906,0.051 -0.24906,0.27177 0,0.48231 0.38495,1.03303 1.01342,1.03303 0.63971,0 1.2002,-0.5394 1.2002,-1.25945 0,-0.67357 -0.45285,-1.23406 -1.04738,-1.23406 -0.32266,0 -0.5718,0.14159 -0.719,0.30003 z"
             style="stroke-width:5.66154" />
          <path
             id="use38199"
             d="m 143.53484,204.1224 v -0.33977 h -1.68146 v -1.44 h 0.73033 c 0.0679,0 0.13589,0.006 0.20379,0.006 h 0.97947 v -0.35661 h -2.40047 v 3.91961 h 0.48688 v -1.78884 z"
             style="stroke-width:5.66154" />
          <path
             id="use38201"
             d="m 144.89925,202.06316 h -0.48688 v 0.48697 h 0.48688 v -0.48697 m -0.034,1.33245 h -0.41898 v 2.51563 h 0.41898 z"
             style="stroke-width:5.66154" />
          <path
             id="use38203"
             d="m 147.70742,204.20671 c 0,-0.34546 -0.0736,-0.86639 -0.75866,-0.86639 -0.31705,0 -0.58882,0.14159 -0.80393,0.41337 v -0.38503 h -0.40196 v 2.54258 h 0.4303 v -1.41003 c 0,-0.35108 0.13018,-0.82112 0.56048,-0.82112 0.52645,0 0.54347,0.3681 0.54347,0.56627 v 1.66488 h 0.4303 z"
             style="stroke-width:5.66154" />
          <path
             id="use38205"
             d="m 150.45329,204.63572 c 0,-0.24345 -0.0226,-0.58805 -0.20388,-0.8873 -0.23213,-0.39039 -0.62839,-0.43574 -0.79261,-0.43574 -0.61146,0 -1.12098,0.58822 -1.12098,1.32304 0,0.7476 0.54356,1.33081 1.20028,1.33081 0.26046,0 0.5718,-0.0735 0.88315,-0.30003 0,-0.0226 -0.0169,-0.19817 -0.0169,-0.20949 -0.006,-0.006 -0.017,-0.13027 -0.017,-0.15299 -0.33398,0.28318 -0.66804,0.32283 -0.83788,0.32283 -0.43592,0 -0.80963,-0.39073 -0.82095,-0.99113 h 1.72682 m -1.69287,-0.30573 c 0.0963,-0.3783 0.3624,-0.67755 0.69638,-0.67755 0.17554,0 0.56619,0.079 0.66242,0.67755 z"
             style="stroke-width:5.66154" />
          <path
             id="use38207"
             d="m 152.14608,204.81877 v -0.32844 h -1.47206 v 0.32844 z"
             style="stroke-width:5.66154" />
          <path
             id="use38209"
             d="m 153.42556,203.72406 h 0.78129 v -0.32845 h -0.78129 v -0.71875 h -0.39065 v 0.71875 h -0.47557 v 0.32845 h 0.46425 v 1.52337 c 0,0.32845 0.0736,0.7191 0.46425,0.7191 0.37933,0 0.6398,-0.13019 0.81525,-0.22072 l -0.0849,-0.32845 c -0.19817,0.17554 -0.40758,0.19817 -0.50952,0.19817 -0.24914,0 -0.28309,-0.26616 -0.28309,-0.46433 z"
             style="stroke-width:5.66154" />
          <path
             id="use38211"
             d="m 156.85648,203.39561 h -0.4303 v 1.61961 c 0,0.43047 -0.30002,0.63997 -0.66804,0.63997 -0.39635,0 -0.43591,-0.14721 -0.43591,-0.39644 v -1.86314 h -0.4303 v 1.88577 c 0,0.40776 0.13018,0.68515 0.59443,0.68515 0.15853,0 0.60576,-0.0283 0.95114,-0.33968 v 0.28309 h 0.41898 z"
             style="stroke-width:5.66154" />
          <path
             id="use38213"
             d="m 159.69857,204.20671 c 0,-0.34546 -0.0736,-0.86639 -0.75866,-0.86639 -0.31705,0 -0.58882,0.14159 -0.80393,0.41337 v -0.38503 h -0.40196 v 2.54258 h 0.4303 v -1.41003 c 0,-0.35108 0.13018,-0.82112 0.56048,-0.82112 0.52645,0 0.54347,0.3681 0.54347,0.56627 v 1.66488 h 0.4303 z"
             style="stroke-width:5.66154" />
          <path
             id="use38215"
             d="m 162.44444,204.63572 c 0,-0.24345 -0.0226,-0.58805 -0.20388,-0.8873 -0.23213,-0.39039 -0.62839,-0.43574 -0.79261,-0.43574 -0.61146,0 -1.12098,0.58822 -1.12098,1.32304 0,0.7476 0.54356,1.33081 1.20028,1.33081 0.26046,0 0.5718,-0.0735 0.88315,-0.30003 0,-0.0226 -0.0169,-0.19817 -0.0169,-0.20949 -0.006,-0.006 -0.017,-0.13027 -0.017,-0.15299 -0.33398,0.28318 -0.66804,0.32283 -0.83788,0.32283 -0.43592,0 -0.80963,-0.39073 -0.82095,-0.99113 h 1.72682 m -1.69287,-0.30573 c 0.0963,-0.3783 0.3624,-0.67755 0.69638,-0.67755 0.17554,0 0.56619,0.079 0.66242,0.67755 z"
             style="stroke-width:5.66154" />
          <path
             id="use38217"
             d="m 164.99774,201.98023 h -0.4189 v 1.65451 c -0.26046,-0.21511 -0.55487,-0.29442 -0.79831,-0.29442 -0.53785,0 -0.97947,0.57742 -0.97947,1.31311 0,0.73006 0.41898,1.3131 0.95684,1.3131 0.20949,0 0.52653,-0.0679 0.80963,-0.3453 v 0.28871 h 0.43021 v -3.92971 m -0.43021,3.26185 c -0.13589,0.24335 -0.33407,0.38477 -0.58321,0.38477 -0.3453,0 -0.75296,-0.26599 -0.75296,-0.96772 0,-0.7527 0.48127,-0.97904 0.80963,-0.97904 0.22081,0 0.40196,0.11317 0.52654,0.29994 z"
             style="stroke-width:5.66154" />
          <path
             id="use38219"
             d="m 169.18954,204.2747 c 0.78129,0 1.31915,-0.56066 1.31915,-1.15 0,-0.60075 -0.54917,-1.14447 -1.31915,-1.14447 h -1.38144 v 3.93101 h 0.48689 v -1.63654 h 0.89455 m -0.11887,-1.97734 c 0.66242,0 0.99079,0.39661 0.99079,0.82164 0,0.44766 -0.34538,0.82734 -0.99079,0.82734 h -0.787 v -1.64898 z"
             style="stroke-width:5.66154" />
          <path
             id="use38221"
             d="m 172.87407,204.25155 c 0,-0.54261 -0.39064,-0.93887 -0.91718,-0.93887 -0.33968,0 -0.59444,0.0793 -0.87183,0.23783 l 0.034,0.37319 c 0.24914,-0.18089 0.50952,-0.28257 0.83788,-0.28257 0.26046,0 0.48688,0.20914 0.48688,0.62173 v 0.23178 c -0.25476,0.0113 -0.59443,0.0283 -0.93411,0.1416 -0.37933,0.13018 -0.60014,0.33959 -0.60014,0.62268 0,0.24906 0.1472,0.70761 0.62847,0.70761 0.31135,0 0.7077,-0.0905 0.9171,-0.26608 v 0.20949 h 0.41898 v -1.65839 m -0.4303,0.89982 c 0,0.11317 0,0.24906 -0.18677,0.36231 -0.15291,0.0962 -0.34538,0.11317 -0.4303,0.11317 -0.30573,0 -0.51522,-0.16414 -0.51522,-0.37363 0,-0.38495 0.787,-0.46987 1.13229,-0.46987 z"
             style="stroke-width:5.66154" />
          <path
             id="use38223"
             d="m 174.01658,204.67114 c 0,-0.57198 0.4303,-0.9457 0.93982,-0.9514 v -0.37942 c -0.51522,0.006 -0.81524,0.30582 -0.96815,0.52671 v -0.49837 h -0.39065 v 2.54258 h 0.41898 z"
             style="stroke-width:5.66154" />
          <path
             id="use38225"
             d="m 177.24931,204.25155 c 0,-0.54261 -0.39064,-0.93887 -0.91718,-0.93887 -0.33968,0 -0.59444,0.0793 -0.87183,0.23783 l 0.034,0.37319 c 0.24914,-0.18089 0.50952,-0.28257 0.83788,-0.28257 0.26046,0 0.48688,0.20914 0.48688,0.62173 v 0.23178 c -0.25476,0.0113 -0.59443,0.0283 -0.93411,0.1416 -0.37933,0.13018 -0.60014,0.33959 -0.60014,0.62268 0,0.24906 0.1472,0.70761 0.62847,0.70761 0.31135,0 0.7077,-0.0905 0.9171,-0.26608 v 0.20949 h 0.41898 v -1.65839 m -0.4303,0.89982 c 0,0.11317 0,0.24906 -0.18677,0.36231 -0.15291,0.0962 -0.34538,0.11317 -0.4303,0.11317 -0.30573,0 -0.51522,-0.16414 -0.51522,-0.37363 0,-0.38495 0.787,-0.46987 1.13229,-0.46987 z"
             style="stroke-width:5.66154" />
          <path
             id="use38227"
             d="m 181.63134,204.20671 c 0,-0.39073 -0.10185,-0.86639 -0.76427,-0.86639 -0.48127,0 -0.74735,0.33407 -0.83227,0.45864 -0.10194,-0.3567 -0.41328,-0.45864 -0.70769,-0.45864 -0.46425,0 -0.70769,0.30012 -0.80393,0.41899 v -0.39065 h -0.40196 v 2.54258 h 0.4303 v -1.41003 c 0,-0.3738 0.14711,-0.82112 0.56048,-0.82112 0.52084,0 0.54917,0.35678 0.54917,0.56627 v 1.66488 h 0.43022 v -1.41003 c 0,-0.3738 0.1472,-0.82112 0.56048,-0.82112 0.52093,0 0.54917,0.35678 0.54917,0.56627 v 1.66488 h 0.4303 z"
             style="stroke-width:5.66154" />
          <path
             id="use38229"
             d="m 184.37159,204.63572 c 0,-0.24345 -0.0226,-0.58805 -0.20388,-0.8873 -0.23213,-0.39039 -0.62839,-0.43574 -0.79261,-0.43574 -0.61146,0 -1.12098,0.58822 -1.12098,1.32304 0,0.7476 0.54356,1.33081 1.20028,1.33081 0.26046,0 0.5718,-0.0735 0.88315,-0.30003 0,-0.0226 -0.0169,-0.19817 -0.0169,-0.20949 -0.006,-0.006 -0.017,-0.13027 -0.017,-0.15299 -0.33398,0.28318 -0.66804,0.32283 -0.83788,0.32283 -0.43592,0 -0.80963,-0.39073 -0.82095,-0.99113 h 1.72682 m -1.69287,-0.30573 c 0.0963,-0.3783 0.3624,-0.67755 0.69638,-0.67755 0.17554,0 0.56619,0.079 0.66242,0.67755 z"
             style="stroke-width:5.66154" />
          <path
             id="use38231"
             d="m 185.49819,203.72406 h 0.78129 v -0.32845 h -0.78129 v -0.71875 h -0.39065 v 0.71875 h -0.47557 v 0.32845 h 0.46425 v 1.52337 c 0,0.32845 0.0736,0.7191 0.46425,0.7191 0.37933,0 0.6398,-0.13019 0.81525,-0.22072 l -0.0849,-0.32845 c -0.19817,0.17554 -0.40758,0.19817 -0.50952,0.19817 -0.24914,0 -0.28309,-0.26616 -0.28309,-0.46433 z"
             style="stroke-width:5.66154" />
          <path
             id="use38233"
             d="m 188.83287,204.63572 c 0,-0.24345 -0.0226,-0.58805 -0.20388,-0.8873 -0.23213,-0.39039 -0.62839,-0.43574 -0.79261,-0.43574 -0.61146,0 -1.12098,0.58822 -1.12098,1.32304 0,0.7476 0.54356,1.33081 1.20028,1.33081 0.26046,0 0.5718,-0.0735 0.88315,-0.30003 0,-0.0226 -0.0169,-0.19817 -0.0169,-0.20949 -0.006,-0.006 -0.017,-0.13027 -0.017,-0.15299 -0.33398,0.28318 -0.66804,0.32283 -0.83788,0.32283 -0.43592,0 -0.80963,-0.39073 -0.82095,-0.99113 h 1.72682 M 187.14,204.32999 c 0.0963,-0.3783 0.3624,-0.67755 0.69638,-0.67755 0.17554,0 0.56619,0.079 0.66242,0.67755 z"
             style="stroke-width:5.66154" />
          <path
             id="use38235"
             d="m 189.85191,204.67114 c 0,-0.57198 0.4303,-0.9457 0.93982,-0.9514 v -0.37942 c -0.51522,0.006 -0.81524,0.30582 -0.96815,0.52671 v -0.49837 h -0.39065 v 2.54258 h 0.41898 z"
             style="stroke-width:5.66154" />
          <path
             id="use38237"
             d="m 192.77331,203.48822 c -0.3624,-0.16984 -0.66813,-0.17554 -0.79831,-0.17554 -0.13019,0 -0.91719,0 -0.91719,0.73577 0,0.24888 0.13589,0.41864 0.22081,0.49785 0.20379,0.17537 0.34538,0.20362 0.67936,0.27152 0.18686,0.0397 0.51522,0.10756 0.51522,0.40741 0,0.3903 -0.44162,0.3903 -0.52084,0.3903 -0.22651,0 -0.55487,-0.0622 -0.8606,-0.28283 l -0.0679,0.38477 c 0.0283,0.017 0.41328,0.24906 0.93412,0.24906 0.73041,0 0.90587,-0.44153 0.90587,-0.77525 0,-0.28854 -0.17546,-0.46961 -0.19818,-0.49786 -0.2094,-0.21502 -0.37924,-0.24897 -0.72462,-0.31687 -0.20379,-0.0396 -0.49259,-0.0962 -0.49259,-0.37907 0,-0.35074 0.39635,-0.35074 0.46995,-0.35074 0.30003,0 0.53786,0.0679 0.78691,0.20932 z"
             style="stroke-width:5.66154" />
          <path
             id="use38239"
             d="m 196.34796,201.66508 c -0.8492,0.75866 -1.06439,1.90797 -1.06439,2.83077 0,0.99641 0.24344,2.10606 1.06439,2.8363 h 0.33968 c -0.22081,-0.20379 -0.5661,-0.64532 -0.76428,-1.28511 -0.15291,-0.50381 -0.20949,-1.03035 -0.20949,-1.54557 0,-1.67006 0.59444,-2.48531 0.97377,-2.83639 z"
             style="stroke-width:5.66154" />
          <path
             id="use38241"
             d="m 200.60551,201.87457 c 0.0396,-0.0679 0.0396,-0.0962 0.0396,-0.10185 0,-0.0736 -0.0566,-0.10764 -0.10186,-0.10764 -0.0283,0 -0.068,0 -0.12457,0.10194 l -2.40617,4.25238 c -0.0397,0.0679 -0.0397,0.0962 -0.0397,0.10185 0,0.0567 0.0454,0.10764 0.10756,0.10764 0.0623,0 0.0849,-0.0454 0.11325,-0.0962 l 2.41188,-4.25808 m 0.69629,3.21572 c 0,-0.67417 -0.36793,-1.14421 -0.76428,-1.14421 -0.39626,0 -0.77559,0.47004 -0.77559,1.1386 0,0.68549 0.38494,1.14421 0.77559,1.14421 0.40767,0 0.76428,-0.48706 0.76428,-1.1386 m -0.76428,0.79883 c -0.11325,0 -0.351,-0.0962 -0.351,-0.79883 0,-0.73084 0.24906,-0.80453 0.351,-0.80453 0.22081,0 0.36801,0.39099 0.36801,0.79892 0,0.42485 -0.1529,0.80444 -0.36801,0.80444 m -1.69848,-3.08069 c 0,-0.67348 -0.36801,-1.14335 -0.76428,-1.14335 -0.39635,0 -0.77568,0.46987 -0.77568,1.13774 0,0.68471 0.38503,1.14326 0.77568,1.14326 0.40767,0 0.76428,-0.4868 0.76428,-1.13765 m -0.76428,0.79797 c -0.11325,0 -0.35099,-0.0962 -0.35099,-0.79797 0,-0.73007 0.24905,-0.80358 0.35099,-0.80358 0.22081,0 0.36802,0.39047 0.36802,0.79797 0,0.42442 -0.15291,0.80358 -0.36802,0.80358 z"
             style="stroke-width:5.66154" />
          <path
             id="use38243"
             d="m 202.253,207.33215 c 0.84919,-0.75857 1.0643,-1.90788 1.0643,-2.83068 0,-0.9964 -0.24344,-2.10597 -1.0643,-2.83639 h -0.33977 c 0.22081,0.20388 0.56619,0.6455 0.76437,1.2852 0.15282,0.5039 0.20949,1.03035 0.20949,1.54557 0,1.67006 -0.59453,2.48531 -0.97386,2.8363 z"
             style="stroke-width:5.66154" />
        </g>
        <g
           clip-path="url(#clip_16)"
           id="g38249">
          <path
             transform="matrix(0.35517348,0,0,-0.35517348,105.75162,209.88388)"
             stroke-width="0.8"
             stroke-linecap="square"
             stroke-linejoin="round"
             fill="none"
             stroke="#b0b0b0"
             d="M 47.97704,98.0002 H 326.977"
             id="path38247" />
        </g>
        <g
           clip-path="url(#clip_17)"
           id="g38259">
          <path
             transform="matrix(0.35517348,0,0,-0.35517348,105.75162,209.88388)"
             d="m 47.97704,98.0002 h -3.5"
             id="path38251" />
          <path
             transform="matrix(0.35517348,0,0,-0.35517348,105.75162,209.88388)"
             stroke-width="0.8"
             stroke-linecap="butt"
             stroke-linejoin="round"
             fill="none"
             stroke="#000000"
             d="m 47.97704,98.0002 h -3.5"
             id="path38253" />
          <path
             id="use38255"
             d="m 116.39252,173.41329 c 0,-0.1301 0,-0.1358 -0.11325,-0.1358 -0.13589,0.15274 -0.4189,0.36111 -1.00211,0.36111 v 0.16413 c 0.13028,0 0.41329,0 0.72471,-0.14712 v 2.95103 c 0,0.20387 -0.017,0.27186 -0.51521,0.27186 h -0.17546 v 0.16414 c 0.15282,-0.0113 0.70199,-0.0113 0.88885,-0.0113 0.18677,0 0.73033,0 0.88315,0.0113 v -0.16414 h -0.17546 c -0.4982,0 -0.51522,-0.068 -0.51522,-0.27186 z"
             style="stroke-width:5.66154" />
          <path
             id="use38257"
             d="m 119.21761,174.99999 c 0.28309,-0.153 0.69637,-0.41363 0.69637,-0.88963 0,-0.49293 -0.47556,-0.83287 -0.9964,-0.83287 -0.56049,0 -1.0021,0.41354 -1.0021,0.9292 0,0.19264 0.0566,0.38529 0.2151,0.57793 0.0623,0.0737 0.068,0.0793 0.46425,0.35696 -0.54917,0.25502 -0.83226,0.63461 -0.83226,1.04823 0,0.60066 0.57189,0.97446 1.14931,0.97446 0.62847,0 1.15501,-0.46442 1.15501,-1.05938 0,-0.57802 -0.40767,-0.83295 -0.84928,-1.1049 m -0.76998,-0.50995 c -0.0736,-0.0511 -0.30003,-0.19835 -0.30003,-0.476 0,-0.36827 0.38495,-0.60066 0.76428,-0.60066 0.40766,0 0.76998,0.29467 0.76998,0.70268 0,0.34564 -0.24906,0.62321 -0.57742,0.80454 l -0.65681,-0.43056 m 0.26616,0.73093 0.68497,0.44758 c 0.14721,0.0963 0.40767,0.27203 0.40767,0.61767 0,0.43056 -0.43592,0.72523 -0.88885,0.72523 -0.48127,0 -0.89455,-0.35134 -0.89455,-0.82164 0,-0.44196 0.32275,-0.79891 0.69076,-0.96884 z"
             style="stroke-width:5.66154" />
        </g>
        <g
           clip-path="url(#clip_18)"
           id="g38263">
          <path
             transform="matrix(0.35517348,0,0,-0.35517348,105.75162,209.88388)"
             stroke-width="0.8"
             stroke-linecap="square"
             stroke-linejoin="round"
             fill="none"
             stroke="#b0b0b0"
             d="M 47.97704,152.5457 H 326.977"
             id="path38261" />
        </g>
        <g
           clip-path="url(#clip_19)"
           id="g38273">
          <path
             transform="matrix(0.35517348,0,0,-0.35517348,105.75162,209.88388)"
             d="m 47.97704,152.5457 h -3.5"
             id="path38265" />
          <path
             transform="matrix(0.35517348,0,0,-0.35517348,105.75162,209.88388)"
             stroke-width="0.8"
             stroke-linecap="butt"
             stroke-linejoin="round"
             fill="none"
             stroke="#000000"
             d="m 47.97704,152.5457 h -3.5"
             id="path38267" />
          <path
             id="use38269"
             d="m 116.39252,154.04016 c 0,-0.1301 0,-0.1358 -0.11325,-0.1358 -0.13589,0.15274 -0.4189,0.36111 -1.00211,0.36111 v 0.16413 c 0.13028,0 0.41329,0 0.72471,-0.14712 v 2.95103 c 0,0.20387 -0.017,0.27186 -0.51521,0.27186 h -0.17546 v 0.16414 c 0.15282,-0.0113 0.70199,-0.0113 0.88885,-0.0113 0.18677,0 0.73033,0 0.88315,0.0113 v -0.16414 h -0.17546 c -0.4982,0 -0.51522,-0.068 -0.51522,-0.27186 z"
             style="stroke-width:5.66154" />
          <path
             id="use38271"
             d="m 119.60264,156.02321 c 0,1.3353 -0.59452,1.61511 -0.9342,1.61511 -0.13589,0 -0.43592,-0.0172 -0.57742,-0.21761 h 0.034 c 0.0396,0.0115 0.24344,-0.0226 0.24344,-0.23204 0,-0.12457 -0.0849,-0.23212 -0.23213,-0.23212 -0.1472,0 -0.23782,0.0962 -0.23782,0.24344 0,0.35246 0.28309,0.59115 0.77568,0.59115 0.70769,0 1.39275,-0.75537 1.39275,-1.98321 0,-1.52406 -0.63409,-1.90357 -1.13238,-1.90357 -0.62277,0 -1.17194,0.52118 -1.17194,1.26905 0,0.74786 0.52654,1.25764 1.09272,1.25764 0.41899,0 0.63409,-0.30582 0.74735,-0.59479 v 0.18695 m -0.72471,0.29467 c -0.3567,0 -0.50952,-0.28897 -0.56049,-0.39661 -0.0906,-0.21528 -0.0906,-0.48723 -0.0906,-0.74216 0,-0.31731 0,-0.58926 0.14721,-0.82155 0.10193,-0.153 0.25484,-0.31731 0.56048,-0.31731 0.32275,0 0.48697,0.28335 0.54356,0.41363 0.11325,0.27765 0.11325,0.75918 0.11325,0.84418 0,0.47592 -0.21519,1.01982 -0.71339,1.01982 z"
             style="stroke-width:5.66154" />
        </g>
        <g
           clip-path="url(#clip_20)"
           id="g38277">
          <path
             transform="matrix(0.35517348,0,0,-0.35517348,105.75162,209.88388)"
             stroke-width="0.8"
             stroke-linecap="square"
             stroke-linejoin="round"
             fill="none"
             stroke="#b0b0b0"
             d="M 47.97704,207.0911 H 326.977"
             id="path38275" />
        </g>
        <g
           clip-path="url(#clip_21)"
           id="g38287">
          <path
             transform="matrix(0.35517348,0,0,-0.35517348,105.75162,209.88388)"
             d="m 47.97704,207.0911 h -3.5"
             id="path38279" />
          <path
             transform="matrix(0.35517348,0,0,-0.35517348,105.75162,209.88388)"
             stroke-width="0.8"
             stroke-linecap="butt"
             stroke-linejoin="round"
             fill="none"
             stroke="#000000"
             d="m 47.97704,207.0911 h -3.5"
             id="path38281" />
          <path
             id="use38283"
             d="m 117.25304,137.3458 h -0.12449 c -0.017,0.0961 -0.0623,0.40724 -0.11896,0.49777 -0.0396,0.0509 -0.36231,0.0509 -0.53215,0.0509 h -1.04737 c 0.15282,-0.13011 0.4982,-0.49216 0.64541,-0.62787 0.86051,-0.79201 1.17756,-1.08617 1.17756,-1.64639 0,-0.65215 -0.51514,-1.08893 -1.17195,-1.08893 -0.65672,0 -1.04167,0.5617 -1.04167,1.04927 0,0.28871 0.24906,0.28871 0.26608,0.28871 0.11887,0 0.26607,-0.0849 0.26607,-0.26607 0,-0.15852 -0.10755,-0.26608 -0.26607,-0.26608 -0.051,0 -0.0623,0 -0.0793,0.006 0.10764,-0.38615 0.41337,-0.6473 0.7813,-0.6473 0.48127,0 0.77568,0.40317 0.77568,0.9247 0,0.48101 -0.27739,0.89964 -0.60014,1.2617 l -1.14361,1.27872 v 0.1358 h 2.06641 z"
             style="stroke-width:5.66154" />
          <path
             id="use38285"
             d="m 120.06689,136.48607 c 0,-0.4703 -0.0283,-0.92928 -0.23213,-1.35993 -0.23212,-0.47021 -0.63979,-0.59487 -0.91718,-0.59487 -0.32836,0 -0.73033,0.16431 -0.93982,0.63461 -0.15852,0.35696 -0.21519,0.70821 -0.21519,1.32019 0,0.5496 0.0397,0.96323 0.24353,1.36554 0.22072,0.43056 0.61137,0.56644 0.90578,0.56644 0.49258,0 0.77568,-0.29449 0.93982,-0.62311 0.20387,-0.42495 0.21519,-0.98025 0.21519,-1.30887 m -1.15501,1.81882 c -0.18116,0 -0.54917,-0.10203 -0.65672,-0.71962 -0.0623,-0.33994 -0.0623,-0.77058 -0.0623,-1.16719 0,-0.46468 0,-0.88393 0.0906,-1.21825 0.0962,-0.37959 0.38495,-0.5553 0.62839,-0.5553 0.21519,0 0.54355,0.13036 0.65111,0.61767 0.0736,0.32292 0.0736,0.77059 0.0736,1.15588 0,0.37959 0,0.81024 -0.0623,1.15587 -0.10755,0.6233 -0.46425,0.73094 -0.66242,0.73094 z"
             style="stroke-width:5.66154" />
        </g>
        <g
           clip-path="url(#clip_22)"
           id="g38291">
          <path
             transform="matrix(0.35517348,0,0,-0.35517348,105.75162,209.88388)"
             stroke-width="0.8"
             stroke-linecap="square"
             stroke-linejoin="round"
             fill="none"
             stroke="#b0b0b0"
             d="M 47.97704,261.6366 H 326.977"
             id="path38289" />
        </g>
        <g
           clip-path="url(#clip_23)"
           id="g38301">
          <path
             transform="matrix(0.35517348,0,0,-0.35517348,105.75162,209.88388)"
             d="m 47.97704,261.6366 h -3.5"
             id="path38293" />
          <path
             transform="matrix(0.35517348,0,0,-0.35517348,105.75162,209.88388)"
             stroke-width="0.8"
             stroke-linecap="butt"
             stroke-linejoin="round"
             fill="none"
             stroke="#000000"
             d="m 47.97704,261.6366 h -3.5"
             id="path38295" />
          <path
             id="use38297"
             d="m 117.25304,117.9727 h -0.12449 c -0.017,0.0961 -0.0623,0.40724 -0.11896,0.49777 -0.0396,0.0509 -0.36231,0.0509 -0.53215,0.0509 h -1.04737 c 0.15282,-0.13011 0.4982,-0.49216 0.64541,-0.62787 0.86051,-0.79201 1.17756,-1.08617 1.17756,-1.64639 0,-0.65215 -0.51514,-1.08893 -1.17195,-1.08893 -0.65672,0 -1.04167,0.5617 -1.04167,1.04927 0,0.28871 0.24906,0.28871 0.26608,0.28871 0.11887,0 0.26607,-0.0849 0.26607,-0.26607 0,-0.15852 -0.10755,-0.26608 -0.26607,-0.26608 -0.051,0 -0.0623,0 -0.0793,0.006 0.10764,-0.38615 0.41337,-0.6473 0.7813,-0.6473 0.48127,0 0.77568,0.40317 0.77568,0.9247 0,0.48101 -0.27739,0.89964 -0.60014,1.2617 l -1.14361,1.27872 v 0.1358 h 2.06641 z"
             style="stroke-width:5.66154" />
          <path
             id="use38299"
             d="m 119.16102,115.29397 c 0,-0.1301 0,-0.1358 -0.11325,-0.1358 -0.13589,0.15274 -0.4189,0.36111 -1.00211,0.36111 v 0.16413 c 0.13028,0 0.41329,0 0.72471,-0.14712 v 2.95103 c 0,0.20387 -0.017,0.27186 -0.51521,0.27186 h -0.17546 v 0.16414 c 0.15282,-0.0113 0.70199,-0.0113 0.88885,-0.0113 0.18677,0 0.73033,0 0.88315,0.0113 v -0.16414 h -0.17546 c -0.4982,0 -0.51522,-0.068 -0.51522,-0.27186 z"
             style="stroke-width:5.66154" />
        </g>
        <g
           clip-path="url(#clip_24)"
           id="g38305">
          <path
             transform="matrix(0.35517348,0,0,-0.35517348,105.75162,209.88388)"
             stroke-width="0.8"
             stroke-linecap="square"
             stroke-linejoin="round"
             fill="none"
             stroke="#b0b0b0"
             d="M 47.97704,316.182 H 326.977"
             id="path38303" />
        </g>
        <g
           clip-path="url(#clip_25)"
           id="g38337">
          <path
             transform="matrix(0.35517348,0,0,-0.35517348,105.75162,209.88388)"
             d="m 47.97704,316.182 h -3.5"
             id="path38307" />
          <path
             transform="matrix(0.35517348,0,0,-0.35517348,105.75162,209.88388)"
             stroke-width="0.8"
             stroke-linecap="butt"
             stroke-linejoin="round"
             fill="none"
             stroke="#000000"
             d="m 47.97704,316.182 h -3.5"
             id="path38309" />
          <path
             id="use38311"
             d="m 117.25304,98.599623 h -0.12449 c -0.017,0.09615 -0.0623,0.407235 -0.11896,0.49777 -0.0396,0.05088 -0.36231,0.05088 -0.53215,0.05088 h -1.04737 c 0.15282,-0.130101 0.4982,-0.492154 0.64541,-0.62787 0.86051,-0.792008 1.17756,-1.08616 1.17756,-1.646388 0,-0.652145 -0.51514,-1.088925 -1.17195,-1.088925 -0.65672,0 -1.04167,0.561697 -1.04167,1.049273 0,0.28871 0.24906,0.28871 0.26608,0.28871 0.11887,0 0.26607,-0.08492 0.26607,-0.266077 0,-0.158522 -0.10755,-0.266076 -0.26607,-0.266076 -0.051,0 -0.0623,0 -0.0793,0.0057 0.10764,-0.386155 0.41337,-0.647307 0.7813,-0.647307 0.48127,0 0.77568,0.403174 0.77568,0.9247 0,0.48101 -0.27739,0.899648 -0.60014,1.261701 l -1.14361,1.278721 v 0.135802 h 2.06641 z"
             style="stroke-width:5.66154" />
          <path
             id="use38313"
             d="m 120.02154,98.599623 h -0.12449 c -0.017,0.09615 -0.0623,0.407235 -0.11896,0.49777 -0.0396,0.05088 -0.36231,0.05088 -0.53215,0.05088 h -1.04737 c 0.15282,-0.130101 0.4982,-0.492154 0.64541,-0.62787 0.86051,-0.792008 1.17756,-1.08616 1.17756,-1.646388 0,-0.652145 -0.51514,-1.088925 -1.17195,-1.088925 -0.65672,0 -1.04167,0.561697 -1.04167,1.049273 0,0.28871 0.24906,0.28871 0.26608,0.28871 0.11887,0 0.26607,-0.08492 0.26607,-0.266077 0,-0.158522 -0.10755,-0.266076 -0.26607,-0.266076 -0.051,0 -0.0623,0 -0.0793,0.0057 0.10764,-0.386155 0.41337,-0.647307 0.7813,-0.647307 0.48127,0 0.77568,0.403174 0.77568,0.9247 0,0.48101 -0.27739,0.899648 -0.60014,1.261701 l -1.14361,1.278721 v 0.135802 h 2.06641 z"
             style="stroke-width:5.66154" />
          <path
             id="use38315"
             d="m 110.16743,160.90539 -1.85795,-1.32485 v 0.52654 l 1.48406,1.03605 -1.48406,1.06439 v 0.57181 l 1.85795,-1.39837 2.07306,1.47197 v -0.52083 l -1.73321,-1.18897 1.73321,-1.22291 v -0.5661 z"
             style="stroke-width:5.66154" />
          <path
             id="use38317"
             d="m 108.47085,156.69887 c -0.12457,0.23213 -0.27748,0.51514 -0.27748,1.01904 0,0.75866 0.54364,1.25125 1.11009,1.25125 0.40222,0 0.66277,-0.24353 0.69111,-0.27178 0.28326,-0.27739 0.33423,-0.46995 0.42485,-0.83226 0.11896,-0.48127 0.14159,-0.56049 0.32854,-0.74165 0.10194,-0.0962 0.28327,-0.18115 0.48153,-0.18115 0.39082,0 0.75339,0.32266 0.75339,0.80954 0,0.41328 -0.16431,0.8549 -0.47021,1.18896 l 0.45881,0.0849 c 0.33976,-0.51522 0.39064,-1.01342 0.39064,-1.27388 0,-0.73033 -0.56057,-1.24555 -1.1893,-1.24555 -0.36257,0 -0.63444,0.17554 -0.77603,0.30012 -0.27756,0.26037 -0.33424,0.46986 -0.43056,0.84919 -0.0963,0.38504 -0.13027,0.52654 -0.24923,0.65111 -0.0793,0.0736 -0.22089,0.22643 -0.47583,0.22643 -0.34555,0 -0.67978,-0.31135 -0.67978,-0.80955 0,-0.48127 0.18694,-0.73603 0.36827,-0.93982 z"
             style="stroke-width:5.66154" />
          <path
             id="use38319"
             d="m 109.72486,153.80011 v 0.4303 h 1.61961 c 0.43047,0 0.63997,0.30002 0.63997,0.66804 0,0.39635 -0.14721,0.43591 -0.39644,0.43591 h -1.86314 v 0.4303 h 1.88577 c 0.40776,0 0.68515,-0.13018 0.68515,-0.59443 0,-0.15853 -0.0282,-0.60576 -0.33968,-0.95114 h 0.28309 v -0.41898 z"
             style="stroke-width:5.66154" />
          <path
             id="use38321"
             d="m 110.53596,149.41245 c -0.39073,0 -0.86639,0.10185 -0.86639,0.76427 0,0.48127 0.33407,0.74735 0.45864,0.83227 -0.3567,0.10194 -0.45864,0.41328 -0.45864,0.70769 0,0.46425 0.30012,0.70769 0.41899,0.80393 h -0.39065 v 0.40196 h 2.54258 v -0.4303 h -1.41003 c -0.3738,0 -0.82112,-0.14711 -0.82112,-0.56048 0,-0.52084 0.35678,-0.54917 0.56627,-0.54917 h 1.66488 v -0.43022 h -1.41003 c -0.3738,0 -0.82112,-0.1472 -0.82112,-0.56048 0,-0.52093 0.35678,-0.54917 0.56627,-0.54917 h 1.66488 v -0.4303 z"
             style="stroke-width:5.66154" />
          <path
             id="use38323"
             d="m 110.39273,144.82427 c -0.17554,-0.61707 -0.60575,-0.95113 -1.02465,-0.95113 -0.56602,0 -1.0586,0.60584 -1.0586,1.40407 v 1.33617 h 3.93101 v -0.47557 h -1.79688 v -0.88324 l 1.79688,-1.04737 v -0.48688 l -1.84776,1.10395 m -0.2888,1.31354 h -1.47732 v -0.79832 c 0,-0.68505 0.36222,-1.01903 0.74147,-1.01903 0.35099,0 0.73585,0.30573 0.73585,1.01903 z"
             style="stroke-width:5.66154" />
          <path
             id="use38325"
             d="m 110.28915,139.78553 c -1.20088,0 -2.09578,0.81525 -2.09578,1.73244 0,0.93981 0.91183,1.73813 2.09578,1.73813 1.19518,0 2.07297,-0.82095 2.07297,-1.73252 0,-0.93412 -0.8891,-1.73805 -2.07297,-1.73805 m 1.71636,1.73244 c 0,0.65672 -0.70812,1.25116 -1.80137,1.25116 -1.04227,0 -1.65969,-0.61707 -1.65969,-1.24555 0,-0.64541 0.63444,-1.25116 1.65969,-1.25116 1.11027,0 1.80137,0.61146 1.80137,1.24555 z"
             style="stroke-width:5.66154" />
          <path
             id="use38327"
             d="m 108.30948,136.21313 v 0.43022 h 2.61886 c 0.75961,0 1.11674,0.47557 1.11674,0.9285 0,0.44732 -0.35143,0.90587 -1.11674,0.90587 h -2.61886 v 0.48688 h 2.61324 c 0.8333,0 1.4394,-0.65102 1.4394,-1.38705 0,-0.73603 -0.61741,-1.36442 -1.4394,-1.36442 z"
             style="stroke-width:5.66154" />
          <path
             id="use38329"
             d="m 110.52404,132.38025 v 1.17194 h 0.34529 v -0.73603 h 0.95105 c 0.0566,0.23213 0.11326,0.46425 0.11326,0.74165 0,0.81533 -0.87745,1.2909 -1.66427,1.2909 -0.7584,0 -1.66954,-0.45864 -1.66954,-1.31915 0,-0.4303 0.13018,-0.70769 0.38486,-1.01912 l -0.46408,-0.0849 c -0.19247,0.37933 -0.27748,0.69067 -0.27748,1.12097 0,1.08141 1.01886,1.7891 2.02624,1.7891 1.01895,0 2.02088,-0.70769 2.02088,-1.80042 0,-0.39626 -0.0905,-0.79822 -0.27169,-1.15492 z"
             style="stroke-width:5.66154" />
          <path
             id="use38331"
             d="m 110.37174,129.18143 h -0.33968 v 1.83437 h -1.36018 v -0.76998 c 0,-0.0679 0.006,-0.13589 0.006,-0.20379 v -1.01912 h -0.35661 v 2.47977 h 3.91961 v -2.55338 h -0.38495 v 0.74173 c 0,0.0679 0.006,0.13589 0.006,0.20379 v 1.12098 h -1.48951 z"
             style="stroke-width:5.66154" />
          <path
             id="use38333"
             d="m 111.14802,127.17726 h -0.32844 v 1.47206 h 0.32844 z"
             style="stroke-width:5.66154" />
          <path
             id="use38335"
             d="m 111.88388,126.58846 h 0.35661 v -2.21362 h -0.38495 v 1.00772 c 0,0.0679 0.006,0.13589 0.006,0.20379 v 0.60584 c -0.15283,-0.1472 -0.67349,-0.67374 -1.00176,-1.04175 -0.36784,-0.41899 -0.71867,-0.7756 -1.23933,-0.7756 -0.62822,0 -1.20564,0.43592 -1.20564,1.18326 0,0.61146 0.40197,0.9228 0.92833,1.07571 0.22634,-0.18124 0.23766,-0.18124 0.30556,-0.23212 -0.6055,-0.14159 -0.8828,-0.35109 -0.8828,-0.76998 0,-0.48689 0.37916,-0.80402 0.86587,-0.80402 0.29424,0 0.62251,0.11896 0.99597,0.49829 z"
             style="stroke-width:5.66154" />
        </g>
        <g
           clip-path="url(#clip_26)"
           id="g38341">
          <path
             transform="matrix(0.35517348,0,0,-0.35517348,105.75162,209.88388)"
             stroke-width="3"
             stroke-linecap="square"
             stroke-linejoin="round"
             fill="none"
             stroke="#0000ff"
             d="M 61.0749,65.27292 79.62622,184.7275 188.3753,222.9093 316.3154,234.3638"
             id="path38339" />
        </g>
        <g
           clip-path="url(#clip_27)"
           id="g38347">
          <path
             transform="matrix(0.35517348,0,0,-0.35517348,127.44382,186.70069)"
             d="m 0,-5 c 1.326016,0 2.597899,0.526832 3.535534,1.464466 C 4.473168,-2.597899 5,-1.326016 5,0 5,1.326016 4.473168,2.597899 3.535534,3.535534 2.597899,4.473168 1.326016,5 0,5 -1.326016,5 -2.597899,4.473168 -3.535534,3.535534 -4.473168,2.597899 -5,1.326016 -5,0 -5,-1.326016 -4.473168,-2.597899 -3.535534,-3.535534 -2.597899,-4.473168 -1.326016,-5 0,-5 Z"
             fill="#0000ff"
             id="path38343" />
          <path
             transform="matrix(0.35517348,0,0,-0.35517348,127.44382,186.70069)"
             stroke-width="1"
             stroke-linecap="butt"
             stroke-linejoin="round"
             fill="none"
             stroke="#0000ff"
             d="m 0,-5 c 1.326016,0 2.597899,0.526832 3.535534,1.464466 C 4.473168,-2.597899 5,-1.326016 5,0 5,1.326016 4.473168,2.597899 3.535534,3.535534 2.597899,4.473168 1.326016,5 0,5 -1.326016,5 -2.597899,4.473168 -3.535534,3.535534 -4.473168,2.597899 -5,1.326016 -5,0 -5,-1.326016 -4.473168,-2.597899 -3.535534,-3.535534 -2.597899,-4.473168 -1.326016,-5 0,-5 Z"
             id="path38345" />
        </g>
        <g
           clip-path="url(#clip_28)"
           id="g38353">
          <path
             transform="matrix(0.35517348,0,0,-0.35517348,134.03276,144.27356)"
             d="m 0,-5 c 1.326016,0 2.597899,0.526832 3.535534,1.464466 C 4.473168,-2.597899 5,-1.326016 5,0 5,1.326016 4.473168,2.597899 3.535534,3.535534 2.597899,4.473168 1.326016,5 0,5 -1.326016,5 -2.597899,4.473168 -3.535534,3.535534 -4.473168,2.597899 -5,1.326016 -5,0 -5,-1.326016 -4.473168,-2.597899 -3.535534,-3.535534 -2.597899,-4.473168 -1.326016,-5 0,-5 Z"
             fill="#0000ff"
             id="path38349" />
          <path
             transform="matrix(0.35517348,0,0,-0.35517348,134.03276,144.27356)"
             stroke-width="1"
             stroke-linecap="butt"
             stroke-linejoin="round"
             fill="none"
             stroke="#0000ff"
             d="m 0,-5 c 1.326016,0 2.597899,0.526832 3.535534,1.464466 C 4.473168,-2.597899 5,-1.326016 5,0 5,1.326016 4.473168,2.597899 3.535534,3.535534 2.597899,4.473168 1.326016,5 0,5 -1.326016,5 -2.597899,4.473168 -3.535534,3.535534 -4.473168,2.597899 -5,1.326016 -5,0 -5,-1.326016 -4.473168,-2.597899 -3.535534,-3.535534 -2.597899,-4.473168 -1.326016,-5 0,-5 Z"
             id="path38351" />
        </g>
        <g
           clip-path="url(#clip_29)"
           id="g38359">
          <path
             transform="matrix(0.35517348,0,0,-0.35517348,172.65755,130.71239)"
             d="m 0,-5 c 1.326016,0 2.597899,0.526832 3.535534,1.464466 C 4.473168,-2.597899 5,-1.326016 5,0 5,1.326016 4.473168,2.597899 3.535534,3.535534 2.597899,4.473168 1.326016,5 0,5 -1.326016,5 -2.597899,4.473168 -3.535534,3.535534 -4.473168,2.597899 -5,1.326016 -5,0 -5,-1.326016 -4.473168,-2.597899 -3.535534,-3.535534 -2.597899,-4.473168 -1.326016,-5 0,-5 Z"
             fill="#0000ff"
             id="path38355" />
          <path
             transform="matrix(0.35517348,0,0,-0.35517348,172.65755,130.71239)"
             stroke-width="1"
             stroke-linecap="butt"
             stroke-linejoin="round"
             fill="none"
             stroke="#0000ff"
             d="m 0,-5 c 1.326016,0 2.597899,0.526832 3.535534,1.464466 C 4.473168,-2.597899 5,-1.326016 5,0 5,1.326016 4.473168,2.597899 3.535534,3.535534 2.597899,4.473168 1.326016,5 0,5 -1.326016,5 -2.597899,4.473168 -3.535534,3.535534 -4.473168,2.597899 -5,1.326016 -5,0 -5,-1.326016 -4.473168,-2.597899 -3.535534,-3.535534 -2.597899,-4.473168 -1.326016,-5 0,-5 Z"
             id="path38357" />
        </g>
        <g
           clip-path="url(#clip_30)"
           id="g38365">
          <path
             transform="matrix(0.35517348,0,0,-0.35517348,218.0984,126.64404)"
             d="m 0,-5 c 1.326016,0 2.597899,0.526832 3.535534,1.464466 C 4.473168,-2.597899 5,-1.326016 5,0 5,1.326016 4.473168,2.597899 3.535534,3.535534 2.597899,4.473168 1.326016,5 0,5 -1.326016,5 -2.597899,4.473168 -3.535534,3.535534 -4.473168,2.597899 -5,1.326016 -5,0 -5,-1.326016 -4.473168,-2.597899 -3.535534,-3.535534 -2.597899,-4.473168 -1.326016,-5 0,-5 Z"
             fill="#0000ff"
             id="path38361" />
          <path
             transform="matrix(0.35517348,0,0,-0.35517348,218.0984,126.64404)"
             stroke-width="1"
             stroke-linecap="butt"
             stroke-linejoin="round"
             fill="none"
             stroke="#0000ff"
             d="m 0,-5 c 1.326016,0 2.597899,0.526832 3.535534,1.464466 C 4.473168,-2.597899 5,-1.326016 5,0 5,1.326016 4.473168,2.597899 3.535534,3.535534 2.597899,4.473168 1.326016,5 0,5 -1.326016,5 -2.597899,4.473168 -3.535534,3.535534 -4.473168,2.597899 -5,1.326016 -5,0 -5,-1.326016 -4.473168,-2.597899 -3.535534,-3.535534 -2.597899,-4.473168 -1.326016,-5 0,-5 Z"
             id="path38363" />
        </g>
        <g
           clip-path="url(#clip_31)"
           id="g38369">
          <path
             transform="matrix(0.35517348,0,0,-0.35517348,105.75162,209.88388)"
             stroke-width="3"
             stroke-linecap="square"
             stroke-linejoin="round"
             fill="none"
             stroke="#ff0000"
             d="m 66.83221,142.182 36.24969,86.7273 66.5288,9.8182 109.1756,21.8182"
             id="path38367" />
        </g>
        <g
           clip-path="url(#clip_32)"
           id="g38375">
          <path
             transform="matrix(0.35517348,0,0,-0.35517348,129.48867,159.38459)"
             d="M 0,-5 5,5 H -5 Z"
             fill="#ff0000"
             id="path38371" />
          <path
             transform="matrix(0.35517348,0,0,-0.35517348,129.48867,159.38459)"
             stroke-width="1"
             stroke-linecap="butt"
             stroke-miterlimit="10"
             stroke-linejoin="miter"
             fill="none"
             stroke="#ff0000"
             d="M 0,-5 5,5 H -5 Z"
             id="path38373" />
        </g>
        <g
           clip-path="url(#clip_33)"
           id="g38381">
          <path
             transform="matrix(0.35517348,0,0,-0.35517348,142.36357,128.58136)"
             d="M 0,-5 5,5 H -5 Z"
             fill="#ff0000"
             id="path38377" />
          <path
             transform="matrix(0.35517348,0,0,-0.35517348,142.36357,128.58136)"
             stroke-width="1"
             stroke-linecap="butt"
             stroke-miterlimit="10"
             stroke-linejoin="miter"
             fill="none"
             stroke="#ff0000"
             d="M 0,-5 5,5 H -5 Z"
             id="path38379" />
        </g>
        <g
           clip-path="url(#clip_34)"
           id="g38387">
          <path
             transform="matrix(0.35517348,0,0,-0.35517348,165.99289,125.09421)"
             d="M 0,-5 5,5 H -5 Z"
             fill="#ff0000"
             id="path38383" />
          <path
             transform="matrix(0.35517348,0,0,-0.35517348,165.99289,125.09421)"
             stroke-width="1"
             stroke-linecap="butt"
             stroke-miterlimit="10"
             stroke-linejoin="miter"
             fill="none"
             stroke="#ff0000"
             d="M 0,-5 5,5 H -5 Z"
             id="path38385" />
        </g>
        <g
           clip-path="url(#clip_35)"
           id="g38393">
          <path
             transform="matrix(0.35517348,0,0,-0.35517348,204.76918,117.34496)"
             d="M 0,-5 5,5 H -5 Z"
             fill="#ff0000"
             id="path38389" />
          <path
             transform="matrix(0.35517348,0,0,-0.35517348,204.76918,117.34496)"
             stroke-width="1"
             stroke-linecap="butt"
             stroke-miterlimit="10"
             stroke-linejoin="miter"
             fill="none"
             stroke="#ff0000"
             d="M 0,-5 5,5 H -5 Z"
             id="path38391" />
        </g>
        <g
           clip-path="url(#clip_36)"
           id="g38397">
          <path
             transform="matrix(0.35517348,0,0,-0.35517348,105.75162,209.88388)"
             stroke-width="3"
             stroke-linecap="square"
             stroke-linejoin="round"
             fill="none"
             stroke="#008000"
             d="m 60.75505,105.6366 9.27566,102 54.37449,24.5454 99.7933,-3.2727"
             id="path38395" />
        </g>
        <g
           clip-path="url(#clip_37)"
           id="g38403">
          <path
             transform="matrix(0.35517348,0,0,-0.35517348,127.33022,172.36457)"
             d="M -5,-5 H 5 V 5 H -5 Z"
             fill="#008000"
             id="path38399" />
          <path
             transform="matrix(0.35517348,0,0,-0.35517348,127.33022,172.36457)"
             stroke-width="1"
             stroke-linecap="butt"
             stroke-miterlimit="10"
             stroke-linejoin="miter"
             fill="none"
             stroke="#008000"
             d="M -5,-5 H 5 V 5 H -5 Z"
             id="path38401" />
        </g>
        <g
           clip-path="url(#clip_38)"
           id="g38409">
          <path
             transform="matrix(0.35517348,0,0,-0.35517348,130.62468,136.13687)"
             d="M -5,-5 H 5 V 5 H -5 Z"
             fill="#008000"
             id="path38405" />
          <path
             transform="matrix(0.35517348,0,0,-0.35517348,130.62468,136.13687)"
             stroke-width="1"
             stroke-linecap="butt"
             stroke-miterlimit="10"
             stroke-linejoin="miter"
             fill="none"
             stroke="#008000"
             d="M -5,-5 H 5 V 5 H -5 Z"
             id="path38407" />
        </g>
        <g
           clip-path="url(#clip_39)"
           id="g38415">
          <path
             transform="matrix(0.35517348,0,0,-0.35517348,149.93708,127.41898)"
             d="M -5,-5 H 5 V 5 H -5 Z"
             fill="#008000"
             id="path38411" />
          <path
             transform="matrix(0.35517348,0,0,-0.35517348,149.93708,127.41898)"
             stroke-width="1"
             stroke-linecap="butt"
             stroke-miterlimit="10"
             stroke-linejoin="miter"
             fill="none"
             stroke="#008000"
             d="M -5,-5 H 5 V 5 H -5 Z"
             id="path38413" />
        </g>
        <g
           clip-path="url(#clip_40)"
           id="g38421">
          <path
             transform="matrix(0.35517348,0,0,-0.35517348,185.38092,128.58136)"
             d="M -5,-5 H 5 V 5 H -5 Z"
             fill="#008000"
             id="path38417" />
          <path
             transform="matrix(0.35517348,0,0,-0.35517348,185.38092,128.58136)"
             stroke-width="1"
             stroke-linecap="butt"
             stroke-miterlimit="10"
             stroke-linejoin="miter"
             fill="none"
             stroke="#008000"
             d="M -5,-5 H 5 V 5 H -5 Z"
             id="path38419" />
        </g>
        <g
           clip-path="url(#clip_41)"
           id="g38429">
          <path
             transform="matrix(0.35517348,0,0,-0.35517348,105.75162,209.88388)"
             stroke-width="3"
             stroke-linecap="square"
             stroke-linejoin="round"
             fill="none"
             stroke="#ff7f0e"
             d="M 61.85676,60.90929"
             id="path38423" />
          <path
             transform="matrix(0.35517348,0,0,-0.35517348,105.75162,209.88388)"
             d="m 61.85676,65.90929 -1.12257,-3.45492 h -3.63271 l 2.93892,-2.13525 -1.12257,-3.45492 2.93893,2.13526 2.93893,-2.13526 -1.12257,3.45492 2.93892,2.13525 h -3.63271 z"
             fill="#ff7f0e"
             id="path38425" />
          <path
             transform="matrix(0.35517348,0,0,-0.35517348,105.75162,209.88388)"
             stroke-width="1"
             stroke-linecap="butt"
             stroke-linejoin="bevel"
             fill="none"
             stroke="#ff7f0e"
             d="m 61.85676,65.90929 -1.12257,-3.45492 h -3.63271 l 2.93892,-2.13525 -1.12257,-3.45492 2.93893,2.13526 2.93893,-2.13526 -1.12257,3.45492 2.93892,2.13525 h -3.63271 z"
             id="path38427" />
        </g>
        <g
           clip-path="url(#clip_42)"
           id="g38433">
          <path
             transform="matrix(0.35517348,0,0,-0.35517348,105.75162,209.88388)"
             stroke-width="2"
             stroke-linecap="butt"
             stroke-dasharray="7.4, 3.2"
             stroke-linejoin="round"
             fill="none"
             stroke="#000000"
             d="M 46.20009,312.9093 H 342.981"
             id="path38431" />
        </g>
        <g
           clip-path="url(#clip_43)"
           id="g38443">
          <path
             transform="matrix(0.35517348,0,0,-0.35517348,105.75162,209.88388)"
             stroke-width="0.8"
             stroke-linecap="square"
             stroke-miterlimit="10"
             stroke-linejoin="miter"
             fill="none"
             stroke="#000000"
             d="M 47.97704,48.30929 V 325.5093"
             id="path38435" />
          <path
             transform="matrix(0.35517348,0,0,-0.35517348,105.75162,209.88388)"
             stroke-width="0.8"
             stroke-linecap="square"
             stroke-miterlimit="10"
             stroke-linejoin="miter"
             fill="none"
             stroke="#000000"
             d="M 326.977,48.30929 V 325.5093"
             id="path38437" />
          <path
             transform="matrix(0.35517348,0,0,-0.35517348,105.75162,209.88388)"
             stroke-width="0.8"
             stroke-linecap="square"
             stroke-miterlimit="10"
             stroke-linejoin="miter"
             fill="none"
             stroke="#000000"
             d="M 47.97704,48.30929 H 326.977"
             id="path38439" />
          <path
             transform="matrix(0.35517348,0,0,-0.35517348,105.75162,209.88388)"
             stroke-width="0.8"
             stroke-linecap="square"
             stroke-miterlimit="10"
             stroke-linejoin="miter"
             fill="none"
             stroke="#000000"
             d="M 47.97704,325.5093 H 326.977"
             id="path38441" />
        </g>
        <g
           clip-path="url(#clip_44)"
           id="g38465">
          <path
             id="use38445"
             d="m 127.08591,104.22553 -0.2822,0.78422 h -2.37642 v -0.11214 c 0.69906,-0.63699 1.19118,-1.15726 1.47635,-1.56082 0.28517,-0.40362 0.42775,-0.77277 0.42775,-1.10744 0,-0.2546 -0.0782,-0.46381 -0.23467,-0.62762 -0.15644,-0.16381 -0.34359,-0.24572 -0.56142,-0.24572 -0.19804,0 -0.37577,0.0574 -0.53321,0.17229 -0.15744,0.1148 -0.27378,0.28313 -0.34904,0.50499 h -0.10991 c 0.0495,-0.36543 0.17675,-0.6459 0.38171,-0.8414 0.20497,-0.19556 0.46093,-0.29334 0.76788,-0.29334 0.32676,0 0.59955,0.10496 0.81838,0.31488 0.21883,0.20991 0.32824,0.45746 0.32824,0.74263 0,0.20397 -0.0475,0.40795 -0.14258,0.61192 -0.14655,0.32082 -0.38419,0.66045 -0.71293,1.01889 -0.4931,0.53754 -0.80105,0.85935 -0.92383,0.96542 h 1.05157 c 0.21387,0 0.36388,-0.008 0.45003,-0.0238 0.0861,-0.0159 0.16387,-0.048 0.23319,-0.0966 0.0693,-0.0485 0.12971,-0.11733 0.1812,-0.20645 z"
             style="stroke-width:6.08362" />
          <path
             id="use38447"
             d="m 128.05132,101.37384 0.98027,-0.47529 h 0.098 v 3.39828 c 0,0.22576 0.009,0.36636 0.0282,0.42181 0.0188,0.0555 0.0579,0.098 0.11734,0.12773 0.0594,0.0297 0.18021,0.0465 0.3624,0.0505 v 0.11288 h -1.51496 v -0.11288 c 0.19011,-0.004 0.31289,-0.0203 0.36834,-0.049 0.0555,-0.0287 0.0941,-0.0673 0.11585,-0.11585 0.0218,-0.0485 0.0327,-0.19358 0.0327,-0.43518 v -2.17442 c 0,-0.29179 -0.01,-0.47906 -0.0297,-0.5618 -0.0139,-0.0631 -0.0391,-0.10954 -0.0757,-0.13925 -0.0366,-0.0297 -0.0807,-0.0446 -0.13219,-0.0446 -0.0733,0 -0.17526,0.0307 -0.30596,0.0921 z"
             style="stroke-width:6.08362" />
          <path
             id="use38449"
             d="m 131.14065,104.43347 c 0.0931,0 0.1713,0.0322 0.23467,0.0965 0.0634,0.0644 0.0951,0.14209 0.0951,0.23319 0,0.0911 -0.0322,0.16882 -0.0965,0.23318 -0.0644,0.0644 -0.14209,0.0965 -0.23319,0.0965 -0.0911,0 -0.16882,-0.0322 -0.23318,-0.0965 -0.0644,-0.0644 -0.0965,-0.14209 -0.0965,-0.23318 0,-0.0931 0.0322,-0.1713 0.0965,-0.23467 0.0644,-0.0634 0.14209,-0.0951 0.23318,-0.0951 z"
             style="stroke-width:6.08362" />
          <path
             id="use38451"
             d="m 132.22193,105.09292 v -0.11288 c 0.25744,-0.004 0.49706,-0.0637 0.71886,-0.17925 0.2218,-0.1156 0.43617,-0.3176 0.64312,-0.60598 0.20694,-0.28845 0.35101,-0.60692 0.43221,-0.9554 -0.31092,0.20194 -0.59212,0.3029 -0.84363,0.3029 -0.28319,0 -0.52578,-0.10941 -0.72778,-0.32824 -0.20199,-0.21883 -0.30299,-0.50944 -0.30299,-0.87185 0,-0.3525 0.101,-0.66638 0.30299,-0.94165 0.24359,-0.33468 0.56143,-0.50202 0.95354,-0.50202 0.33072,0 0.61391,0.13665 0.84957,0.40993 0.28913,0.33864 0.43369,0.7565 0.43369,1.25356 0,0.44756 -0.1099,0.86492 -0.32972,1.25208 -0.21982,0.38715 -0.52578,0.70847 -0.91789,0.96393 -0.31884,0.20992 -0.66639,0.31487 -1.04265,0.31487 h -0.16932 m 1.84172,-2.07277 c 0.0356,-0.25676 0.0535,-0.46216 0.0535,-0.61619 0,-0.19154 -0.0327,-0.39839 -0.098,-0.62056 -0.0653,-0.22224 -0.15793,-0.39258 -0.27774,-0.51103 -0.11982,-0.11851 -0.25596,-0.17776 -0.40845,-0.17776 -0.17625,0 -0.33072,0.079 -0.4634,0.23699 -0.13269,0.15799 -0.19903,0.39301 -0.19903,0.70503 0,0.41674 0.0881,0.7426 0.26438,0.97758 0.12872,0.16988 0.28715,0.25482 0.47528,0.25482 0.0911,0 0.19903,-0.0217 0.32379,-0.0652 0.12476,-0.0434 0.23467,-0.10468 0.32973,-0.18371 z"
             style="stroke-width:6.08362" />
          <path
             id="use38453"
             d="m 137.77382,103.52449 v 0.42181 h -0.54063 v 1.06345 h -0.49014 v -1.06345 h -1.70507 v -0.38022 l 1.86845,-2.66753 h 0.32676 v 2.62594 h 0.54063 m -1.03077,0 v -1.99804 l -1.41396,1.99804 z"
             style="stroke-width:6.08362" />
          <path
             id="use38455"
             d="m 201.0929,113.62633 -0.2822,0.78422 h -2.37642 v -0.11214 c 0.69906,-0.63699 1.19118,-1.15726 1.47635,-1.56082 0.28517,-0.40362 0.42775,-0.77277 0.42775,-1.10744 0,-0.2546 -0.0782,-0.46381 -0.23467,-0.62762 -0.15644,-0.16381 -0.34359,-0.24572 -0.56142,-0.24572 -0.19804,0 -0.37577,0.0574 -0.53321,0.17229 -0.15744,0.1148 -0.27378,0.28313 -0.34904,0.50499 h -0.10991 c 0.0495,-0.36543 0.17675,-0.6459 0.38171,-0.8414 0.20497,-0.19556 0.46093,-0.29334 0.76788,-0.29334 0.32676,0 0.59955,0.10496 0.81838,0.31488 0.21883,0.20991 0.32824,0.45746 0.32824,0.74263 0,0.20397 -0.0475,0.40795 -0.14258,0.61192 -0.14655,0.32082 -0.38419,0.66045 -0.71293,1.01889 -0.4931,0.53754 -0.80105,0.85935 -0.92383,0.96542 h 1.05157 c 0.21387,0 0.36388,-0.008 0.45003,-0.0238 0.0861,-0.0158 0.16387,-0.048 0.23319,-0.0965 0.0693,-0.0485 0.12971,-0.11733 0.1812,-0.20645 z"
             style="stroke-width:6.08362" />
          <path
             id="use38457"
             d="m 201.56521,112.4203 c 0,-0.45944 0.0693,-0.85501 0.20793,-1.18672 0.13863,-0.33171 0.3228,-0.57875 0.55252,-0.74114 0.17823,-0.12873 0.3624,-0.19309 0.55252,-0.19309 0.30893,0 0.58618,0.15744 0.83174,0.47232 0.30696,0.39012 0.46043,0.91888 0.46043,1.58625 0,0.46736 -0.0673,0.86442 -0.20199,1.19118 -0.13467,0.32676 -0.30646,0.5639 -0.51539,0.71144 -0.20892,0.14753 -0.41042,0.2213 -0.6045,0.2213 -0.38418,0 -0.70401,-0.22675 -0.95948,-0.68025 -0.21585,-0.3822 -0.32378,-0.84263 -0.32378,-1.38129 m 0.58222,0.0727 c 0,0.55406 0.0683,1.00623 0.20497,1.3565 0.11288,0.29483 0.2812,0.44224 0.50498,0.44224 0.10694,0 0.21784,-0.048 0.3327,-0.14398 0.11486,-0.096 0.202,-0.25676 0.26141,-0.48234 0.0911,-0.34031 0.13664,-0.82017 0.13664,-1.43958 0,-0.45907 -0.0475,-0.84196 -0.14258,-1.14866 -0.0713,-0.22756 -0.16338,-0.38883 -0.27626,-0.48383 -0.0812,-0.0653 -0.17922,-0.0979 -0.29408,-0.0979 -0.13467,0 -0.25448,0.0603 -0.35944,0.18101 -0.14258,0.16425 -0.23962,0.4225 -0.29111,0.77475 -0.0515,0.35219 -0.0772,0.69947 -0.0772,1.04182 z"
             style="stroke-width:6.08362" />
          <path
             id="use38459"
             d="m 205.14764,113.83427 c 0.0931,0 0.1713,0.0322 0.23467,0.0965 0.0634,0.0644 0.0951,0.14209 0.0951,0.23319 0,0.0911 -0.0322,0.16882 -0.0965,0.23318 -0.0644,0.0644 -0.14209,0.0965 -0.23319,0.0965 -0.0911,0 -0.16882,-0.0322 -0.23318,-0.0965 -0.0644,-0.0644 -0.0965,-0.14209 -0.0965,-0.23318 0,-0.0931 0.0322,-0.1713 0.0965,-0.23467 0.0644,-0.0634 0.14209,-0.0951 0.23318,-0.0951 z"
             style="stroke-width:6.08362" />
          <path
             id="use38461"
             d="m 206.22892,114.49372 v -0.11288 c 0.25744,-0.004 0.49706,-0.0637 0.71886,-0.17925 0.2218,-0.1156 0.43617,-0.3176 0.64312,-0.60598 0.20694,-0.28845 0.35101,-0.60692 0.43221,-0.9554 -0.31092,0.20194 -0.59212,0.3029 -0.84363,0.3029 -0.28319,0 -0.52578,-0.10941 -0.72778,-0.32824 -0.20199,-0.21883 -0.30299,-0.50944 -0.30299,-0.87185 0,-0.3525 0.101,-0.66638 0.30299,-0.94165 0.24359,-0.33468 0.56143,-0.50202 0.95354,-0.50202 0.33072,0 0.61391,0.13665 0.84957,0.40993 0.28913,0.33864 0.43369,0.7565 0.43369,1.25356 0,0.44756 -0.1099,0.86492 -0.32972,1.25208 -0.21982,0.38715 -0.52578,0.70847 -0.91789,0.96393 -0.31884,0.20992 -0.66639,0.31487 -1.04265,0.31487 h -0.16932 m 1.84172,-2.07277 c 0.0356,-0.25676 0.0535,-0.46216 0.0535,-0.61619 0,-0.19154 -0.0327,-0.39839 -0.098,-0.62056 -0.0653,-0.22224 -0.15793,-0.39258 -0.27774,-0.51103 -0.11982,-0.11851 -0.25596,-0.17776 -0.40845,-0.17776 -0.17625,0 -0.33072,0.079 -0.4634,0.23699 -0.13269,0.15799 -0.19903,0.39301 -0.19903,0.70503 0,0.41674 0.0881,0.7426 0.26438,0.97758 0.12872,0.16988 0.28715,0.25482 0.47528,0.25482 0.0911,0 0.19903,-0.0217 0.32379,-0.0652 0.12476,-0.0434 0.23467,-0.10468 0.32973,-0.18371 z"
             style="stroke-width:6.08362" />
          <path
             id="use38463"
             d="m 210.11731,112.38169 c -0.31883,-0.26141 -0.52429,-0.47133 -0.61638,-0.62975 -0.0921,-0.15843 -0.13813,-0.3228 -0.13813,-0.49311 0,-0.26141 0.101,-0.48667 0.30299,-0.67579 0.202,-0.18912 0.47034,-0.28369 0.80501,-0.28369 0.32478,0 0.58619,0.0881 0.78422,0.26438 0.19804,0.17625 0.29705,0.37726 0.29705,0.60301 0,0.15051 -0.0535,0.30399 -0.1604,0.46044 -0.10694,0.15644 -0.32973,0.34061 -0.66837,0.55251 0.34854,0.26933 0.57925,0.48123 0.69213,0.63569 0.15051,0.202 0.22576,0.41488 0.22576,0.63866 0,0.28319 -0.10793,0.52529 -0.32379,0.72629 -0.21586,0.20101 -0.49904,0.30151 -0.84957,0.30151 -0.3822,0 -0.68024,-0.11981 -0.89412,-0.35943 -0.17031,-0.19209 -0.25547,-0.40201 -0.25547,-0.62975 0,-0.17823 0.0599,-0.35498 0.17972,-0.53024 0.11981,-0.17526 0.32626,-0.36884 0.61935,-0.58073 m 0.46638,-0.31785 c 0.23764,-0.21468 0.38814,-0.38412 0.45151,-0.50833 0.0634,-0.12426 0.0951,-0.2649 0.0951,-0.4219 0,-0.20875 -0.0584,-0.37225 -0.17526,-0.49051 -0.11684,-0.11827 -0.27626,-0.1774 -0.47825,-0.1774 -0.202,0 -0.36637,0.0586 -0.49311,0.17591 -0.12674,0.11728 -0.19011,0.25445 -0.19011,0.41151 0,0.10335 0.0262,0.2067 0.0787,0.31005 0.0525,0.10335 0.12723,0.20175 0.22427,0.2952 l 0.48716,0.40547 m -0.32675,0.43073 c -0.16437,0.13819 -0.28616,0.28872 -0.36538,0.45161 -0.0792,0.16282 -0.11882,0.33898 -0.11882,0.52847 0,0.2546 0.0698,0.45839 0.20942,0.61137 0.13962,0.15298 0.31735,0.22947 0.53321,0.22947 0.21388,0 0.38518,-0.0602 0.5139,-0.18055 0.12872,-0.12043 0.19309,-0.26651 0.19309,-0.43824 0,-0.14215 -0.0376,-0.26948 -0.11288,-0.38199 -0.14061,-0.20924 -0.42479,-0.48262 -0.85254,-0.82014 z"
             style="stroke-width:6.08362" />
        </g>
      </g>
    </g>
  </g>
</svg>
