<?xml version="1.0" encoding="UTF-8" standalone="no"?>
<!-- Created with Inkscape (http://www.inkscape.org/) -->

<svg
   width="56.578434mm"
   height="34.820988mm"
   viewBox="0 0 56.578434 34.820988"
   version="1.1"
   id="svg33702"
   inkscape:version="1.2.2 (b0a84865, 2022-12-01)"
   sodipodi:docname="figure5a.svg"
   xmlns:inkscape="http://www.inkscape.org/namespaces/inkscape"
   xmlns:sodipodi="http://sodipodi.sourceforge.net/DTD/sodipodi-0.dtd"
   xmlns="http://www.w3.org/2000/svg"
   xmlns:svg="http://www.w3.org/2000/svg">
  <sodipodi:namedview
     id="namedview33704"
     pagecolor="#ffffff"
     bordercolor="#999999"
     borderopacity="1"
     inkscape:showpageshadow="0"
     inkscape:pageopacity="0"
     inkscape:pagecheckerboard="0"
     inkscape:deskcolor="#d1d1d1"
     inkscape:document-units="mm"
     showgrid="false"
     inkscape:zoom="0.914906"
     inkscape:cx="-53.557414"
     inkscape:cy="438.8429"
     inkscape:window-width="1390"
     inkscape:window-height="1205"
     inkscape:window-x="0"
     inkscape:window-y="25"
     inkscape:window-maximized="0"
     inkscape:current-layer="layer1" />
  <defs
     id="defs33699">
    <clipPath
       id="clip_2">
      <path
         transform="matrix(0.44496,0,0,-0.44496,116.51,180.56702)"
         d="M 0,0 H 360.43647 V 221.82929 H 0 Z"
         id="path25405" />
    </clipPath>
    <clipPath
       id="clip_3">
      <path
         transform="matrix(0.44496,0,0,-0.44496,116.51,180.56702)"
         d="M 67.92056,48.309289 H 346.92057 V 214.6293 H 67.92056 Z"
         id="path25408" />
    </clipPath>
    <clipPath
       id="clip_6">
      <path
         transform="matrix(0.44496,0,0,-0.44496,116.51,180.56702)"
         d="M 67.92056,48.309289 H 346.92057 V 214.6293 H 67.92056 Z"
         id="path25414" />
    </clipPath>
    <clipPath
       id="clip_7">
      <path
         transform="matrix(0.44496,0,0,-0.44496,116.51,180.56702)"
         d="M 67.92056,48.309289 H 346.92057 V 214.6293 H 67.92056 Z"
         id="path25418" />
    </clipPath>
    <clipPath
       id="clip_8">
      <path
         transform="matrix(0.44496,0,0,-0.44496,116.51,180.56702)"
         d="M 67.92056,48.309289 H 346.92057 V 214.6293 H 67.92056 Z"
         id="path25422" />
    </clipPath>
    <clipPath
       id="clip_9">
      <path
         transform="matrix(0.44496,0,0,-0.44496,116.51,180.56702)"
         d="M 67.92056,48.309289 H 346.92057 V 214.6293 H 67.92056 Z"
         id="path25426" />
    </clipPath>
    <clipPath
       id="clip_11">
      <path
         transform="matrix(0.44496,0,0,-0.44496,116.51,180.56702)"
         d="M 67.92056,48.309289 H 346.92057 V 214.6293 H 67.92056 Z"
         id="path25445" />
    </clipPath>
    <clipPath
       id="clip_12">
      <path
         transform="matrix(0.44496,0,0,-0.44496,116.51,180.56702)"
         d="M 67.92056,48.309289 H 346.92057 V 214.6293 H 67.92056 Z"
         id="path25448" />
    </clipPath>
    <clipPath
       id="clip_13">
      <path
         transform="matrix(0.44496,0,0,-0.44496,116.51,180.56702)"
         d="M 67.92056,48.309289 H 346.92057 V 214.6293 H 67.92056 Z"
         id="path25451" />
    </clipPath>
    <clipPath
       id="clip_14">
      <path
         transform="matrix(0.44496,0,0,-0.44496,116.51,180.56702)"
         d="M 67.92056,48.309289 H 346.92057 V 214.6293 H 67.92056 Z"
         id="path25454" />
    </clipPath>
    <clipPath
       id="clip_15">
      <path
         transform="matrix(0.44496,0,0,-0.44496,116.51,180.56702)"
         d="M 67.92056,48.309289 H 346.92057 V 214.6293 H 67.92056 Z"
         id="path25457" />
    </clipPath>
    <clipPath
       id="clip_16">
      <path
         transform="matrix(0.44496,0,0,-0.44496,116.51,180.56702)"
         d="M 67.92056,48.309289 H 346.92057 V 214.6293 H 67.92056 Z"
         id="path25468" />
    </clipPath>
    <clipPath
       id="clip_17">
      <path
         transform="matrix(0.44496,0,0,-0.44496,166.0546,144.49443)"
         d="m -5.5,-5.5 h 11 v 11 h -11 z"
         id="path25471" />
    </clipPath>
    <clipPath
       id="clip_18">
      <path
         transform="matrix(0.44496,0,0,-0.44496,229.89348,148.45195)"
         d="m -5.5,-5.5 h 11 v 11 h -11 z"
         id="path25474" />
    </clipPath>
    <clipPath
       id="clip_19">
      <path
         transform="matrix(0.44496,0,0,-0.44496,116.51,180.56702)"
         d="M 67.92056,48.309289 H 346.92057 V 214.6293 H 67.92056 Z"
         id="path25477" />
    </clipPath>
    <clipPath
       id="clip_20">
      <path
         transform="matrix(0.44496,0,0,-0.44496,116.51,180.56702)"
         d="M 67.92056,48.309289 H 346.92057 V 214.6293 H 67.92056 Z"
         id="path25480" />
    </clipPath>
    <clipPath
       id="clip_21">
      <path
         transform="matrix(0.44496,0,0,-0.44496,116.51,180.56702)"
         d="M 67.92056,48.309289 H 346.92057 V 214.6293 H 67.92056 Z"
         id="path25483" />
    </clipPath>
    <clipPath
       id="clip_22">
      <path
         transform="matrix(0.44496,0,0,-0.44496,152.37483,131.30268)"
         d="m -5.5,-5.5 h 11 v 11 h -11 z"
         id="path25486" />
    </clipPath>
    <clipPath
       id="clip_23">
      <path
         transform="matrix(0.44496,0,0,-0.44496,194.5541,110.19586)"
         d="m -5.5,-5.5 h 11 v 11 h -11 z"
         id="path25489" />
    </clipPath>
    <clipPath
       id="clip_24">
      <path
         transform="matrix(0.44496,0,0,-0.44496,265.23286,93.04658)"
         d="m -5.5,-5.5 h 11 v 11 h -11 z"
         id="path25492" />
    </clipPath>
    <clipPath
       id="clip_25">
      <path
         transform="matrix(0.44496,0,0,-0.44496,116.51,180.56702)"
         d="M 67.92056,48.309289 H 346.92057 V 214.6293 H 67.92056 Z"
         id="path25495" />
    </clipPath>
  </defs>
  <g
     inkscape:label="Layer 1"
     inkscape:groupmode="layer"
     id="layer1"
     transform="translate(-59.914289,-32.3305)">
    <g
       id="g26103"
       transform="matrix(0.35277777,0,0,0.35277777,18.812151,3.4514558)">
      <g
         clip-path="url(#clip_2)"
         id="g26101">
        <path
           transform="matrix(0.44496,0,0,-0.44496,116.51,180.56702)"
           d="M 0,0 H 360.43647 V 221.82929 H 0 Z"
           fill="#ffffff"
           id="path25791" />
        <path
           transform="matrix(0.44496,0,0,-0.44496,116.51,180.56702)"
           d="M 67.92056,48.309289 H 346.92057 V 214.62929 H 67.92056 Z"
           fill="#ffffff"
           id="path25793" />
        <g
           clip-path="url(#clip_3)"
           id="g25797">
          <path
             transform="matrix(0.44496,0,0,-0.44496,116.51,180.56702)"
             stroke-width="0.8"
             stroke-linecap="square"
             stroke-linejoin="round"
             fill="none"
             stroke="#bebebe"
             d="M 83.16436,48.309289 V 214.62929"
             id="path25795" />
        </g>
        <path
           transform="matrix(0.44496,0,0,-0.44496,116.51,180.56702)"
           d="m 83.16436,48.309289 v -3.5"
           id="path25799" />
        <path
           transform="matrix(0.44496,0,0,-0.44496,116.51,180.56702)"
           stroke-width="0.8"
           stroke-linecap="butt"
           stroke-linejoin="round"
           fill="none"
           stroke="#000000"
           d="m 83.16436,48.309289 v -3.5"
           id="path25801" />
        <path
           id="use25803"
           d="m 152.19851,165.92063 h -0.15595 c -0.0213,0.12046 -0.078,0.51018 -0.14903,0.6236 -0.0496,0.0637 -0.4539,0.0637 -0.66668,0.0637 h -1.31214 c 0.19145,-0.16299 0.62414,-0.61657 0.80856,-0.78659 1.07805,-0.99223 1.47524,-1.36074 1.47524,-2.06259 0,-0.81701 -0.64535,-1.3642 -1.4682,-1.3642 -0.82274,0 -1.305,0.70369 -1.305,1.31452 0,0.3617 0.31202,0.3617 0.33334,0.3617 0.14892,0 0.33333,-0.10639 0.33333,-0.33334 0,-0.1986 -0.13474,-0.33334 -0.33333,-0.33334 -0.0639,0 -0.078,0 -0.0994,0.007 0.13485,-0.48378 0.51787,-0.81095 0.97881,-0.81095 0.60293,0 0.97177,0.5051 0.97177,1.15847 0,0.6026 -0.34752,1.12707 -0.75185,1.58065 l -1.43271,1.60198 v 0.17013 h 2.58879 z"
           style="stroke-width:7.09276" />
        <path
           id="use25805"
           d="m 153.85525,166.77119 c 0,-0.20574 -0.17024,-0.34763 -0.34048,-0.34763 -0.20563,0 -0.34752,0.17024 -0.34752,0.34048 0,0.20574 0.17024,0.34752 0.34048,0.34752 0.20564,0 0.34752,-0.17013 0.34752,-0.34037 z"
           style="stroke-width:7.09276" />
        <path
           id="use25807"
           d="m 155.3872,163.04883 c 0.30498,0.0992 0.55325,0.10639 0.63129,0.10639 0.80142,0 1.31214,-0.59006 1.31214,-0.68984 0,-0.0284 -0.0142,-0.0639 -0.0567,-0.0639 -0.0142,0 -0.0284,0 -0.0922,0.0285 -0.3972,0.17144 -0.73768,0.19319 -0.9221,0.19319 -0.46808,0 -0.80153,-0.14362 -0.93627,-0.20033 -0.0496,-0.0213 -0.0639,-0.0213 -0.0709,-0.0213 -0.0567,0 -0.0567,0.0426 -0.0567,0.15639 v 2.10696 c 0,0.12771 0,0.17024 0.0851,0.17024 0.0355,0 0.0425,-0.007 0.11353,-0.0922 0.1986,-0.29069 0.53194,-0.46093 0.8866,-0.46093 0.37587,0 0.56029,0.34751 0.617,0.46808 0.12056,0.27652 0.12771,0.62403 0.12771,0.89352 0,0.26949 0,0.67404 -0.1986,0.9945 -0.15605,0.25639 -0.43268,0.43442 -0.7447,0.43442 -0.46819,0 -0.92924,-0.32046 -1.05684,-0.84027 0.0354,0.0142 0.078,0.0213 0.11343,0.0213 0.12056,0 0.31212,-0.071 0.31212,-0.31213 0,-0.1986 -0.13474,-0.31213 -0.31212,-0.31213 -0.1276,0 -0.31202,0.0639 -0.31202,0.34048 0,0.60424 0.48226,1.29418 1.26961,1.29418 0.80142,0 1.50359,-0.67577 1.50359,-1.57784 0,-0.84384 -0.56732,-1.54602 -1.31214,-1.54602 -0.40423,0 -0.71635,0.17738 -0.90077,0.37587 z"
           style="stroke-width:7.09276" />
        <g
           clip-path="url(#clip_6)"
           id="g25811">
          <path
             transform="matrix(0.44496,0,0,-0.44496,116.51,180.56702)"
             stroke-width="0.8"
             stroke-linecap="square"
             stroke-linejoin="round"
             fill="none"
             stroke="#bebebe"
             d="M 147.21395,48.309289 V 214.62929"
             id="path25809" />
        </g>
        <path
           transform="matrix(0.44496,0,0,-0.44496,116.51,180.56702)"
           d="m 147.21395,48.309289 v -3.5"
           id="path25813" />
        <path
           transform="matrix(0.44496,0,0,-0.44496,116.51,180.56702)"
           stroke-width="0.8"
           stroke-linecap="butt"
           stroke-linejoin="round"
           fill="none"
           stroke="#000000"
           d="m 147.21395,48.309289 v -3.5"
           id="path25815" />
        <path
           id="use25817"
           d="m 178.4851,163.04883 c 0.30498,0.0992 0.55325,0.10639 0.63129,0.10639 0.80142,0 1.31214,-0.59006 1.31214,-0.68984 0,-0.0284 -0.0142,-0.0639 -0.0567,-0.0639 -0.0142,0 -0.0284,0 -0.0922,0.0285 -0.3972,0.17144 -0.73768,0.19319 -0.9221,0.19319 -0.46808,0 -0.80153,-0.14362 -0.93627,-0.20033 -0.0496,-0.0213 -0.0639,-0.0213 -0.0709,-0.0213 -0.0567,0 -0.0567,0.0426 -0.0567,0.15639 v 2.10696 c 0,0.12771 0,0.17024 0.0851,0.17024 0.0355,0 0.0425,-0.007 0.11353,-0.0922 0.1986,-0.29069 0.53194,-0.46093 0.8866,-0.46093 0.37587,0 0.56029,0.34751 0.617,0.46808 0.12056,0.27652 0.12771,0.62403 0.12771,0.89352 0,0.26949 0,0.67404 -0.1986,0.9945 -0.15605,0.25639 -0.43268,0.43442 -0.7447,0.43442 -0.46819,0 -0.92924,-0.32046 -1.05684,-0.84027 0.0354,0.0142 0.078,0.0213 0.11343,0.0213 0.12056,0 0.31212,-0.071 0.31212,-0.31213 0,-0.1986 -0.13474,-0.31213 -0.31212,-0.31213 -0.1276,0 -0.31202,0.0639 -0.31202,0.34048 0,0.60424 0.48226,1.29418 1.26961,1.29418 0.80142,0 1.50359,-0.67577 1.50359,-1.57784 0,-0.84384 -0.56732,-1.54602 -1.31214,-1.54602 -0.40423,0 -0.71635,0.17738 -0.90077,0.37587 z"
           style="stroke-width:7.09276" />
        <path
           id="use25819"
           d="m 182.35475,166.77119 c 0,-0.20574 -0.17024,-0.34763 -0.34048,-0.34763 -0.20563,0 -0.34752,0.17024 -0.34752,0.34048 0,0.20574 0.17024,0.34752 0.34048,0.34752 0.20564,0 0.34752,-0.17013 0.34752,-0.34037 z"
           style="stroke-width:7.09276" />
        <path
           id="use25821"
           d="m 186.15642,164.84356 c 0,-0.58919 -0.0355,-1.1642 -0.2908,-1.70371 -0.29081,-0.58908 -0.80153,-0.74525 -1.14905,-0.74525 -0.41137,0 -0.91495,0.20584 -1.1774,0.79503 -0.1986,0.4472 -0.26959,0.88725 -0.26959,1.65393 0,0.68854 0.0497,1.20673 0.30509,1.71074 0.27652,0.5394 0.76592,0.70964 1.13476,0.70964 0.61711,0 0.97177,-0.36894 1.1774,-0.78064 0.25542,-0.53237 0.26959,-1.22805 0.26959,-1.63974 m -1.44699,2.27861 c -0.22695,0 -0.688,-0.12782 -0.82274,-0.90153 -0.078,-0.42588 -0.078,-0.96539 -0.078,-1.46226 0,-0.58215 0,-1.10738 0.11353,-1.52622 0.12056,-0.47554 0.48226,-0.69568 0.78724,-0.69568 0.26959,0 0.68096,0.16332 0.81571,0.77382 0.0922,0.40456 0.0922,0.96539 0.0922,1.44808 0,0.47555 0,1.01506 -0.078,1.44808 -0.13474,0.78086 -0.58161,0.91571 -0.82988,0.91571 z"
           style="stroke-width:7.09276" />
        <g
           clip-path="url(#clip_7)"
           id="g25825">
          <path
             transform="matrix(0.44496,0,0,-0.44496,116.51,180.56702)"
             stroke-width="0.8"
             stroke-linecap="square"
             stroke-linejoin="round"
             fill="none"
             stroke="#bebebe"
             d="M 211.26354,48.309289 V 214.62929"
             id="path25823" />
        </g>
        <path
           transform="matrix(0.44496,0,0,-0.44496,116.51,180.56702)"
           d="m 211.26354,48.309289 v -3.5"
           id="path25827" />
        <path
           transform="matrix(0.44496,0,0,-0.44496,116.51,180.56702)"
           stroke-width="0.8"
           stroke-linecap="butt"
           stroke-linejoin="round"
           fill="none"
           stroke="#000000"
           d="m 211.26354,48.309289 v -3.5"
           id="path25829" />
        <path
           id="use25831"
           d="m 209.44578,162.71019 v -0.16321 h -1.70934 c -0.85824,0 -0.87242,-0.0937 -0.90077,-0.22858 h -0.15607 l -0.21991,1.42027 h 0.15606 c 0.0213,-0.12771 0.0852,-0.56744 0.17738,-0.64547 0.0567,-0.0425 0.58865,-0.0425 0.688,-0.0425 h 1.5036 l -0.75185,1.07815 c -0.19146,0.27663 -0.90781,1.43996 -0.90781,2.77343 0,0.078 0,0.36169 0.29081,0.36169 0.29784,0 0.29784,-0.27652 0.29784,-0.36883 v -0.35466 c 0,-1.05684 0.17024,-1.87969 0.50358,-2.35491 z"
           style="stroke-width:7.09276" />
        <path
           id="use25833"
           d="m 210.85426,166.77119 c 0,-0.20574 -0.17024,-0.34763 -0.34048,-0.34763 -0.20563,0 -0.34752,0.17024 -0.34752,0.34048 0,0.20574 0.17024,0.34752 0.34048,0.34752 0.20564,0 0.34752,-0.17013 0.34752,-0.34037 z"
           style="stroke-width:7.09276" />
        <path
           id="use25835"
           d="m 212.38621,163.04883 c 0.30498,0.0992 0.55325,0.10639 0.63129,0.10639 0.80142,0 1.31214,-0.59006 1.31214,-0.68984 0,-0.0284 -0.0142,-0.0639 -0.0567,-0.0639 -0.0142,0 -0.0284,0 -0.0922,0.0285 -0.3972,0.17144 -0.73768,0.19319 -0.9221,0.19319 -0.46808,0 -0.80153,-0.14362 -0.93627,-0.20033 -0.0496,-0.0213 -0.0639,-0.0213 -0.0709,-0.0213 -0.0567,0 -0.0567,0.0426 -0.0567,0.15639 v 2.10696 c 0,0.12771 0,0.17024 0.0851,0.17024 0.0355,0 0.0425,-0.007 0.11353,-0.0922 0.1986,-0.29069 0.53194,-0.46093 0.8866,-0.46093 0.37587,0 0.56029,0.34751 0.617,0.46808 0.12056,0.27652 0.12771,0.62403 0.12771,0.89352 0,0.26949 0,0.67404 -0.1986,0.9945 -0.15605,0.25639 -0.43268,0.43442 -0.7447,0.43442 -0.46819,0 -0.92924,-0.32046 -1.05684,-0.84027 0.0354,0.0142 0.078,0.0213 0.11343,0.0213 0.12056,0 0.31212,-0.071 0.31212,-0.31213 0,-0.1986 -0.13474,-0.31213 -0.31212,-0.31213 -0.1276,0 -0.31202,0.0639 -0.31202,0.34048 0,0.60424 0.48226,1.29418 1.26961,1.29418 0.80142,0 1.50359,-0.67577 1.50359,-1.57784 0,-0.84384 -0.56732,-1.54602 -1.31214,-1.54602 -0.40423,0 -0.71635,0.17738 -0.90077,0.37587 z"
           style="stroke-width:7.09276" />
        <g
           clip-path="url(#clip_8)"
           id="g25839">
          <path
             transform="matrix(0.44496,0,0,-0.44496,116.51,180.56702)"
             stroke-width="0.8"
             stroke-linecap="square"
             stroke-linejoin="round"
             fill="none"
             stroke="#bebebe"
             d="M 275.3131,48.309289 V 214.62929"
             id="path25837" />
        </g>
        <path
           transform="matrix(0.44496,0,0,-0.44496,116.51,180.56702)"
           d="m 275.3131,48.309289 v -3.5"
           id="path25841" />
        <path
           transform="matrix(0.44496,0,0,-0.44496,116.51,180.56702)"
           stroke-width="0.8"
           stroke-linecap="butt"
           stroke-linejoin="round"
           fill="none"
           stroke="#000000"
           d="m 275.3131,48.309289 v -3.5"
           id="path25843" />
        <path
           id="use25845"
           d="m 234.88274,162.56473 c 0,-0.16299 0,-0.17013 -0.14189,-0.17013 -0.17024,0.19134 -0.52479,0.45239 -1.25543,0.45239 v 0.20563 c 0.1632,0 0.51776,0 0.90791,-0.18431 v 3.69703 c 0,0.25541 -0.0213,0.34059 -0.64546,0.34059 h -0.21981 v 0.20563 c 0.19145,-0.0142 0.87945,-0.0142 1.11355,-0.0142 0.23398,0 0.91495,0 1.1064,0.0142 v -0.20563 h -0.21981 c -0.62414,0 -0.64546,-0.0852 -0.64546,-0.34059 z"
           style="stroke-width:7.09276" />
        <path
           id="use25847"
           d="m 239.48595,164.84356 c 0,-0.58919 -0.0355,-1.1642 -0.2908,-1.70371 -0.29081,-0.58908 -0.80153,-0.74525 -1.14905,-0.74525 -0.41137,0 -0.91495,0.20584 -1.1774,0.79503 -0.1986,0.4472 -0.26959,0.88725 -0.26959,1.65393 0,0.68854 0.0497,1.20673 0.30509,1.71074 0.27652,0.5394 0.76592,0.70964 1.13476,0.70964 0.61711,0 0.97177,-0.36894 1.1774,-0.78064 0.25542,-0.53237 0.26959,-1.22805 0.26959,-1.63974 m -1.44699,2.27861 c -0.22695,0 -0.688,-0.12782 -0.82274,-0.90153 -0.078,-0.42588 -0.078,-0.96539 -0.078,-1.46226 0,-0.58215 0,-1.10738 0.11353,-1.52622 0.12056,-0.47554 0.48226,-0.69568 0.78724,-0.69568 0.26959,0 0.68096,0.16332 0.81571,0.77382 0.0922,0.40456 0.0922,0.96539 0.0922,1.44808 0,0.47555 0,1.01506 -0.078,1.44808 -0.13474,0.78086 -0.58161,0.91571 -0.82988,0.91571 z"
           style="stroke-width:7.09276" />
        <path
           id="use25849"
           d="m 241.08998,166.77119 c 0,-0.20574 -0.17024,-0.34763 -0.34048,-0.34763 -0.20563,0 -0.34752,0.17024 -0.34752,0.34048 0,0.20574 0.17024,0.34752 0.34048,0.34752 0.20564,0 0.34752,-0.17013 0.34752,-0.34037 z"
           style="stroke-width:7.09276" />
        <path
           id="use25851"
           d="m 244.89167,164.84356 c 0,-0.58919 -0.0355,-1.1642 -0.2908,-1.70371 -0.29081,-0.58908 -0.80153,-0.74525 -1.14905,-0.74525 -0.41137,0 -0.91495,0.20584 -1.1774,0.79503 -0.1986,0.4472 -0.26959,0.88725 -0.26959,1.65393 0,0.68854 0.0497,1.20673 0.30509,1.71074 0.27652,0.5394 0.76592,0.70964 1.13476,0.70964 0.61711,0 0.97177,-0.36894 1.1774,-0.78064 0.25542,-0.53237 0.26959,-1.22805 0.26959,-1.63974 m -1.44699,2.27861 c -0.22695,0 -0.688,-0.12782 -0.82274,-0.90153 -0.078,-0.42588 -0.078,-0.96539 -0.078,-1.46226 0,-0.58215 0,-1.10738 0.11353,-1.52622 0.12056,-0.47554 0.48226,-0.69568 0.78724,-0.69568 0.26959,0 0.68096,0.16332 0.81571,0.77382 0.0922,0.40456 0.0922,0.96539 0.0922,1.44808 0,0.47555 0,1.01506 -0.078,1.44808 -0.13474,0.78086 -0.58161,0.91571 -0.82988,0.91571 z"
           style="stroke-width:7.09276" />
        <g
           clip-path="url(#clip_9)"
           id="g25855">
          <path
             transform="matrix(0.44496,0,0,-0.44496,116.51,180.56702)"
             stroke-width="0.8"
             stroke-linecap="square"
             stroke-linejoin="round"
             fill="none"
             stroke="#bebebe"
             d="M 339.3627,48.309289 V 214.62929"
             id="path25853" />
        </g>
        <path
           transform="matrix(0.44496,0,0,-0.44496,116.51,180.56702)"
           d="m 339.3627,48.309289 v -3.5"
           id="path25857" />
        <path
           transform="matrix(0.44496,0,0,-0.44496,116.51,180.56702)"
           stroke-width="0.8"
           stroke-linecap="butt"
           stroke-linejoin="round"
           fill="none"
           stroke="#000000"
           d="m 339.3627,48.309289 v -3.5"
           id="path25859" />
        <path
           id="use25861"
           d="m 263.38226,162.56473 c 0,-0.16299 0,-0.17013 -0.14189,-0.17013 -0.17024,0.19134 -0.52479,0.45239 -1.25543,0.45239 v 0.20563 c 0.1632,0 0.51776,0 0.90791,-0.18431 v 3.69703 c 0,0.25541 -0.0213,0.34059 -0.64546,0.34059 h -0.21981 v 0.20563 c 0.19145,-0.0142 0.87945,-0.0142 1.11355,-0.0142 0.23398,0 0.91495,0 1.1064,0.0142 v -0.20563 h -0.21981 c -0.62414,0 -0.64546,-0.0852 -0.64546,-0.34059 z"
           style="stroke-width:7.09276" />
        <path
           id="use25863"
           d="m 267.92865,165.92063 h -0.15595 c -0.0213,0.12046 -0.078,0.51018 -0.14903,0.6236 -0.0496,0.0637 -0.4539,0.0637 -0.66668,0.0637 h -1.31214 c 0.19145,-0.16299 0.62414,-0.61657 0.80856,-0.78659 1.07805,-0.99223 1.47524,-1.36074 1.47524,-2.06259 0,-0.81701 -0.64535,-1.3642 -1.4682,-1.3642 -0.82274,0 -1.305,0.70369 -1.305,1.31452 0,0.3617 0.31202,0.3617 0.33334,0.3617 0.14892,0 0.33333,-0.10639 0.33333,-0.33334 0,-0.1986 -0.13474,-0.33334 -0.33333,-0.33334 -0.0639,0 -0.078,0 -0.0994,0.007 0.13485,-0.48378 0.51787,-0.81095 0.97881,-0.81095 0.60293,0 0.97177,0.5051 0.97177,1.15847 0,0.6026 -0.34752,1.12707 -0.75185,1.58065 l -1.43271,1.60198 v 0.17013 h 2.58879 z"
           style="stroke-width:7.09276" />
        <path
           id="use25865"
           d="m 269.5895,166.77119 c 0,-0.20574 -0.17024,-0.34763 -0.34048,-0.34763 -0.20563,0 -0.34752,0.17024 -0.34752,0.34048 0,0.20574 0.17024,0.34752 0.34048,0.34752 0.20564,0 0.34752,-0.17013 0.34752,-0.34037 z"
           style="stroke-width:7.09276" />
        <path
           id="use25867"
           d="m 271.12144,163.04883 c 0.30498,0.0992 0.55325,0.10639 0.63129,0.10639 0.80142,0 1.31214,-0.59006 1.31214,-0.68984 0,-0.0284 -0.0142,-0.0639 -0.0567,-0.0639 -0.0142,0 -0.0284,0 -0.0922,0.0285 -0.3972,0.17144 -0.73768,0.19319 -0.9221,0.19319 -0.46808,0 -0.80153,-0.14362 -0.93627,-0.20033 -0.0496,-0.0213 -0.0639,-0.0213 -0.0709,-0.0213 -0.0567,0 -0.0567,0.0426 -0.0567,0.15639 v 2.10696 c 0,0.12771 0,0.17024 0.0851,0.17024 0.0355,0 0.0425,-0.007 0.11353,-0.0922 0.1986,-0.29069 0.53194,-0.46093 0.8866,-0.46093 0.37587,0 0.56029,0.34751 0.617,0.46808 0.12056,0.27652 0.12771,0.62403 0.12771,0.89352 0,0.26949 0,0.67404 -0.1986,0.9945 -0.15605,0.25639 -0.43268,0.43442 -0.7447,0.43442 -0.46819,0 -0.92924,-0.32046 -1.05684,-0.84027 0.0354,0.0142 0.078,0.0213 0.11343,0.0213 0.12056,0 0.31212,-0.071 0.31212,-0.31213 0,-0.1986 -0.13474,-0.31213 -0.31212,-0.31213 -0.1276,0 -0.31202,0.0639 -0.31202,0.34048 0,0.60424 0.48226,1.29418 1.26961,1.29418 0.80142,0 1.50359,-0.67577 1.50359,-1.57784 0,-0.84384 -0.56732,-1.54602 -1.31214,-1.54602 -0.40423,0 -0.71635,0.17738 -0.90077,0.37587 z"
           style="stroke-width:7.09276" />
        <path
           id="use25869"
           d="m 172.71876,173.34906 v -0.42565 h -2.10653 v -1.80404 h 0.91495 c 0.0851,0 0.17024,0.007 0.25531,0.007 h 1.22708 v -0.44676 h -3.00731 v 4.91047 h 0.60997 v -2.24106 z"
           style="stroke-width:7.09276" />
        <path
           id="use25871"
           d="m 174.42809,170.76926 h -0.60997 v 0.61007 h 0.60997 v -0.61007 m -0.0425,1.66929 h -0.5249 v 3.15157 h 0.5249 z"
           style="stroke-width:7.09276" />
        <path
           id="use25873"
           d="m 177.94615,173.45469 c 0,-0.4328 -0.0922,-1.0854 -0.95045,-1.0854 -0.39719,0 -0.73767,0.17738 -1.00716,0.51786 v -0.48237 h -0.50358 v 3.18534 h 0.53908 v -1.76648 c 0,-0.43983 0.1631,-1.0287 0.70218,-1.0287 0.65953,0 0.68085,0.46116 0.68085,0.70943 v 2.08575 h 0.53908 z"
           style="stroke-width:7.09276" />
        <path
           id="use25875"
           d="m 181.38616,173.99215 c 0,-0.30498 -0.0284,-0.7367 -0.25542,-1.1116 -0.2908,-0.48908 -0.78724,-0.5459 -0.99298,-0.5459 -0.76603,0 -1.40435,0.73692 -1.40435,1.6575 0,0.9366 0.68096,1.66724 1.5037,1.66724 0.32631,0 0.71636,-0.0921 1.10641,-0.37588 0,-0.0284 -0.0212,-0.24827 -0.0212,-0.26245 -0.007,-0.007 -0.0213,-0.1632 -0.0213,-0.19167 -0.4184,0.35477 -0.83692,0.40445 -1.04969,0.40445 -0.54611,0 -1.0143,-0.48951 -1.02848,-1.24169 h 2.16335 m -2.12082,-0.38302 c 0.12068,-0.47392 0.45401,-0.84882 0.87242,-0.84882 0.21992,0 0.70932,0.099 0.82988,0.84882 z"
           style="stroke-width:7.09276" />
        <path
           id="use25877"
           d="M 183.50688,174.22148 V 173.81 h -1.84419 v 0.41148 z"
           style="stroke-width:7.09276" />
        <path
           id="use25879"
           d="m 185.10979,172.85003 h 0.97881 v -0.41148 h -0.97881 v -0.90045 h -0.4894 v 0.90045 h -0.59579 v 0.41148 h 0.58161 v 1.90847 c 0,0.41148 0.0922,0.90089 0.58161,0.90089 0.47523,0 0.80153,-0.1631 1.02134,-0.27652 l -0.10639,-0.41148 c -0.24827,0.21991 -0.51061,0.24827 -0.63832,0.24827 -0.31212,0 -0.35466,-0.33345 -0.35466,-0.58172 z"
           style="stroke-width:7.09276" />
        <path
           id="use25881"
           d="m 189.40806,172.43855 h -0.53908 v 2.02904 c 0,0.53929 -0.37587,0.80175 -0.83691,0.80175 -0.49655,0 -0.54612,-0.18442 -0.54612,-0.49666 v -2.33413 h -0.53908 v 2.36249 c 0,0.51083 0.1631,0.85835 0.74471,0.85835 0.1986,0 0.75889,-0.0354 1.19158,-0.42555 v 0.35466 h 0.5249 z"
           style="stroke-width:7.09276" />
        <path
           id="use25883"
           d="m 192.96862,173.45469 c 0,-0.4328 -0.0922,-1.0854 -0.95045,-1.0854 -0.39719,0 -0.73767,0.17738 -1.00716,0.51786 v -0.48237 h -0.50358 v 3.18534 h 0.53908 v -1.76648 c 0,-0.43983 0.1631,-1.0287 0.70218,-1.0287 0.65953,0 0.68085,0.46116 0.68085,0.70943 v 2.08575 h 0.53908 z"
           style="stroke-width:7.09276" />
        <path
           id="use25885"
           d="m 196.40862,173.99215 c 0,-0.30498 -0.0284,-0.7367 -0.25542,-1.1116 -0.2908,-0.48908 -0.78724,-0.5459 -0.99298,-0.5459 -0.76603,0 -1.40435,0.73692 -1.40435,1.6575 0,0.9366 0.68096,1.66724 1.5037,1.66724 0.32631,0 0.71636,-0.0921 1.10641,-0.37588 0,-0.0284 -0.0212,-0.24827 -0.0212,-0.26245 -0.007,-0.007 -0.0213,-0.1632 -0.0213,-0.19167 -0.4184,0.35477 -0.83692,0.40445 -1.04969,0.40445 -0.54611,0 -1.0143,-0.48951 -1.02848,-1.24169 h 2.16335 m -2.12082,-0.38302 c 0.12068,-0.47392 0.45401,-0.84882 0.87242,-0.84882 0.21992,0 0.70932,0.099 0.82988,0.84882 z"
           style="stroke-width:7.09276" />
        <path
           id="use25887"
           d="m 199.6074,170.66536 h -0.52479 v 2.07276 c -0.32631,-0.26948 -0.69514,-0.36883 -1.00013,-0.36883 -0.67382,0 -1.22708,0.72338 -1.22708,1.64505 0,0.91462 0.52491,1.64505 1.19873,1.64505 0.26245,0 0.65964,-0.0851 1.0143,-0.43259 v 0.3617 h 0.53897 v -4.92314 m -0.53897,4.08643 c -0.17024,0.30488 -0.41851,0.48205 -0.73064,0.48205 -0.43258,0 -0.94331,-0.33323 -0.94331,-1.21236 0,-0.94298 0.60294,-1.22654 1.01431,-1.22654 0.27662,0 0.50358,0.14178 0.65964,0.37577 z"
           style="stroke-width:7.09276" />
        <path
           id="use25889"
           d="m 204.8588,173.53987 c 0.97881,0 1.65263,-0.70239 1.65263,-1.44072 0,-0.75261 -0.688,-1.43379 -1.65263,-1.43379 h -1.73065 v 4.92476 h 0.60996 v -2.05025 h 1.12069 m -0.14892,-2.47721 c 0.82989,0 1.24126,0.49687 1.24126,1.02935 0,0.56083 -0.43269,1.03649 -1.24126,1.03649 h -0.98594 v -2.06584 z"
           style="stroke-width:7.09276" />
        <path
           id="use25891"
           d="m 209.47478,173.51086 c 0,-0.67977 -0.4894,-1.17621 -1.14905,-1.17621 -0.42555,0 -0.74471,0.0994 -1.09222,0.29795 l 0.0425,0.46754 c 0.31213,-0.22663 0.63832,-0.35401 1.04969,-0.35401 0.32631,0 0.60997,0.26202 0.60997,0.77891 v 0.29037 c -0.31916,0.0142 -0.74471,0.0355 -1.17026,0.17739 -0.47522,0.1631 -0.75185,0.42544 -0.75185,0.7801 0,0.31202 0.18442,0.88649 0.78735,0.88649 0.39005,0 0.88659,-0.11343 1.14894,-0.33334 v 0.26245 h 0.5249 v -2.07764 m -0.53908,1.1273 c 0,0.14177 0,0.31201 -0.23399,0.4539 -0.19156,0.12056 -0.43269,0.14178 -0.53908,0.14178 -0.38301,0 -0.64546,-0.20563 -0.64546,-0.46808 0,-0.48226 0.98595,-0.58865 1.41853,-0.58865 z"
           style="stroke-width:7.09276" />
        <path
           id="use25893"
           d="m 210.90612,174.03652 c 0,-0.71657 0.53908,-1.18476 1.1774,-1.1919 v -0.47533 c -0.64547,0.007 -1.02134,0.38312 -1.2129,0.65986 v -0.62437 h -0.4894 v 3.18534 h 0.5249 z"
           style="stroke-width:7.09276" />
        <path
           id="use25895"
           d="m 214.95607,173.51086 c 0,-0.67977 -0.4894,-1.17621 -1.14905,-1.17621 -0.42555,0 -0.74471,0.0994 -1.09222,0.29795 l 0.0425,0.46754 c 0.31213,-0.22663 0.63832,-0.35401 1.04969,-0.35401 0.32631,0 0.60997,0.26202 0.60997,0.77891 v 0.29037 c -0.31916,0.0142 -0.74471,0.0355 -1.17026,0.17739 -0.47522,0.1631 -0.75185,0.42544 -0.75185,0.7801 0,0.31202 0.18442,0.88649 0.78735,0.88649 0.39005,0 0.88659,-0.11343 1.14894,-0.33334 v 0.26245 h 0.5249 v -2.07764 m -0.53908,1.1273 c 0,0.14177 0,0.31201 -0.23399,0.4539 -0.19156,0.12056 -0.43269,0.14178 -0.53908,0.14178 -0.38301,0 -0.64546,-0.20563 -0.64546,-0.46808 0,-0.48226 0.98595,-0.58865 1.41853,-0.58865 z"
           style="stroke-width:7.09276" />
        <path
           id="use25897"
           d="m 220.44587,173.45469 c 0,-0.48951 -0.1276,-1.0854 -0.95748,-1.0854 -0.60294,0 -0.93627,0.41851 -1.04266,0.57457 -0.12771,-0.44687 -0.51776,-0.57457 -0.8866,-0.57457 -0.58161,0 -0.88659,0.37598 -1.00716,0.5249 v -0.48941 h -0.50358 v 3.18534 h 0.53908 v -1.76648 c 0,-0.4683 0.18431,-1.0287 0.70218,-1.0287 0.6525,0 0.688,0.44698 0.688,0.70943 v 2.08575 h 0.53897 v -1.76648 c 0,-0.4683 0.18442,-1.0287 0.70217,-1.0287 0.65261,0 0.688,0.44698 0.688,0.70943 v 2.08575 h 0.53908 z"
           style="stroke-width:7.09276" />
        <path
           id="use25899"
           d="m 223.87881,173.99215 c 0,-0.30498 -0.0284,-0.7367 -0.25542,-1.1116 -0.2908,-0.48908 -0.78724,-0.5459 -0.99298,-0.5459 -0.76603,0 -1.40435,0.73692 -1.40435,1.6575 0,0.9366 0.68096,1.66724 1.5037,1.66724 0.32631,0 0.71636,-0.0921 1.10641,-0.37588 0,-0.0284 -0.0212,-0.24827 -0.0212,-0.26245 -0.007,-0.007 -0.0213,-0.1632 -0.0213,-0.19167 -0.4184,0.35477 -0.83692,0.40445 -1.04969,0.40445 -0.54611,0 -1.0143,-0.48951 -1.02848,-1.24169 h 2.16335 m -2.12082,-0.38302 c 0.12068,-0.47392 0.45401,-0.84882 0.87242,-0.84882 0.21992,0 0.70932,0.099 0.82988,0.84882 z"
           style="stroke-width:7.09276" />
        <path
           id="use25901"
           d="m 225.29022,172.85003 h 0.97881 v -0.41148 h -0.97881 v -0.90045 h -0.4894 v 0.90045 h -0.59579 v 0.41148 h 0.58161 v 1.90847 c 0,0.41148 0.0922,0.90089 0.58161,0.90089 0.47523,0 0.80153,-0.1631 1.02134,-0.27652 l -0.10639,-0.41148 c -0.24827,0.21991 -0.51061,0.24827 -0.63832,0.24827 -0.31212,0 -0.35466,-0.33345 -0.35466,-0.58172 z"
           style="stroke-width:7.09276" />
        <path
           id="use25903"
           d="m 229.46792,173.99215 c 0,-0.30498 -0.0284,-0.7367 -0.25542,-1.1116 -0.2908,-0.48908 -0.78724,-0.5459 -0.99298,-0.5459 -0.76603,0 -1.40435,0.73692 -1.40435,1.6575 0,0.9366 0.68096,1.66724 1.5037,1.66724 0.32631,0 0.71636,-0.0921 1.10641,-0.37588 0,-0.0284 -0.0212,-0.24827 -0.0212,-0.26245 -0.007,-0.007 -0.0213,-0.1632 -0.0213,-0.19167 -0.4184,0.35477 -0.83692,0.40445 -1.04969,0.40445 -0.54611,0 -1.0143,-0.48951 -1.02848,-1.24169 h 2.16335 m -2.12082,-0.38302 c 0.12068,-0.47392 0.45401,-0.84882 0.87242,-0.84882 0.21992,0 0.70932,0.099 0.82988,0.84882 z"
           style="stroke-width:7.09276" />
        <path
           id="use25905"
           d="m 230.74455,174.03652 c 0,-0.71657 0.53908,-1.18476 1.1774,-1.1919 v -0.47533 c -0.64547,0.007 -1.02134,0.38312 -1.2129,0.65986 v -0.62437 h -0.4894 v 3.18534 h 0.5249 z"
           style="stroke-width:7.09276" />
        <path
           id="use25907"
           d="m 234.40446,172.55457 c -0.45401,-0.21277 -0.83703,-0.21992 -1.00013,-0.21992 -0.1631,0 -1.14904,0 -1.14904,0.92177 0,0.3118 0.17024,0.52447 0.27662,0.62371 0.25531,0.2197 0.4327,0.25509 0.8511,0.34016 0.2341,0.0497 0.64547,0.13474 0.64547,0.5104 0,0.48897 -0.55326,0.48897 -0.6525,0.48897 -0.28377,0 -0.69514,-0.0779 -1.07816,-0.35434 l -0.0851,0.48205 c 0.0355,0.0213 0.51776,0.31202 1.17026,0.31202 0.91506,0 1.13487,-0.55315 1.13487,-0.97123 0,-0.36148 -0.21981,-0.58833 -0.24827,-0.62372 -0.26235,-0.26937 -0.47512,-0.31191 -0.90781,-0.39697 -0.25531,-0.0496 -0.61711,-0.12046 -0.61711,-0.4749 0,-0.4394 0.49654,-0.4394 0.58875,-0.4394 0.37588,0 0.67382,0.0851 0.98584,0.26223 z"
           style="stroke-width:7.09276" />
        <path
           id="use25909"
           d="m 238.88268,170.27055 c -1.06387,0.95045 -1.33346,2.3903 -1.33346,3.54638 0,1.24829 0.30498,2.63846 1.33346,3.55331 h 0.42555 c -0.27663,-0.25531 -0.70921,-0.80846 -0.95748,-1.60999 -0.19156,-0.63118 -0.26245,-1.29082 -0.26245,-1.93629 0,-2.09224 0.74471,-3.11358 1.21993,-3.55341 z"
           style="stroke-width:7.09276" />
        <path
           id="use25911"
           d="m 244.21651,170.533 c 0.0496,-0.0851 0.0496,-0.12057 0.0496,-0.1276 0,-0.0922 -0.0709,-0.13485 -0.1276,-0.13485 -0.0355,0 -0.0852,0 -0.15607,0.12771 l -3.01444,5.32736 c -0.0497,0.0851 -0.0497,0.12057 -0.0497,0.1276 0,0.071 0.0568,0.13485 0.13474,0.13485 0.078,0 0.10639,-0.0568 0.14189,-0.12056 l 3.02159,-5.33451 m 0.8723,4.02864 c 0,-0.8446 -0.46093,-1.43347 -0.95748,-1.43347 -0.49644,0 -0.97166,0.58887 -0.97166,1.42643 0,0.85879 0.48226,1.43347 0.97166,1.43347 0.51072,0 0.95748,-0.61018 0.95748,-1.42643 m -0.95748,1.00077 c -0.14188,0 -0.43972,-0.12056 -0.43972,-1.00077 0,-0.9156 0.31201,-1.00792 0.43972,-1.00792 0.27663,0 0.46105,0.48984 0.46105,1.00088 0,0.53226 -0.19156,1.00781 -0.46105,1.00781 m -2.12785,-3.85948 c 0,-0.84374 -0.46105,-1.43238 -0.95748,-1.43238 -0.49655,0 -0.97177,0.58864 -0.97177,1.42535 0,0.8578 0.48236,1.43227 0.97177,1.43227 0.51072,0 0.95748,-0.60986 0.95748,-1.42524 m -0.95748,0.99969 c -0.14189,0 -0.43973,-0.12056 -0.43973,-0.99969 0,-0.91462 0.31202,-1.00672 0.43973,-1.00672 0.27663,0 0.46104,0.48918 0.46104,0.99969 0,0.53172 -0.19156,1.00672 -0.46104,1.00672 z"
           style="stroke-width:7.09276" />
        <path
           id="use25913"
           d="m 246.28049,177.37024 c 1.06387,-0.95034 1.33336,-2.3902 1.33336,-3.54628 0,-1.24829 -0.30498,-2.63835 -1.33336,-3.55341 h -0.42565 c 0.27663,0.25541 0.70932,0.80867 0.95759,1.61009 0.19145,0.63129 0.26245,1.29082 0.26245,1.93629 0,2.09224 -0.74482,3.11358 -1.22004,3.55331 z"
           style="stroke-width:7.09276" />
        <g
           clip-path="url(#clip_11)"
           id="g25917">
          <path
             transform="matrix(0.44496,0,0,-0.44496,116.51,180.56702)"
             stroke-width="0.8"
             stroke-linecap="square"
             stroke-linejoin="round"
             fill="none"
             stroke="#bebebe"
             d="M 67.92056,49.939878 H 346.92057"
             id="path25915" />
        </g>
        <path
           transform="matrix(0.44496,0,0,-0.44496,116.51,180.56702)"
           d="m 67.92056,49.939878 h -3.5"
           id="path25919" />
        <path
           transform="matrix(0.44496,0,0,-0.44496,116.51,180.56702)"
           stroke-width="0.8"
           stroke-linecap="butt"
           stroke-linejoin="round"
           fill="none"
           stroke="#000000"
           d="m 67.92056,49.939878 h -3.5"
           id="path25921" />
        <path
           id="use25923"
           d="m 130.91894,159.61761 h -0.15595 c -0.0213,0.12046 -0.078,0.51018 -0.14903,0.6236 -0.0496,0.0637 -0.4539,0.0637 -0.66668,0.0637 h -1.31214 c 0.19145,-0.16299 0.62414,-0.61657 0.80856,-0.78659 1.07805,-0.99223 1.47524,-1.36074 1.47524,-2.06259 0,-0.81701 -0.64535,-1.3642 -1.4682,-1.3642 -0.82274,0 -1.305,0.70369 -1.305,1.31452 0,0.3617 0.31202,0.3617 0.33334,0.3617 0.14892,0 0.33333,-0.10639 0.33333,-0.33334 0,-0.1986 -0.13474,-0.33334 -0.33333,-0.33334 -0.0639,0 -0.078,0 -0.0994,0.007 0.13485,-0.48378 0.51787,-0.81095 0.97881,-0.81095 0.60293,0 0.97177,0.5051 0.97177,1.15847 0,0.6026 -0.34752,1.12707 -0.75185,1.58065 l -1.43271,1.60198 v 0.17013 h 2.58879 z"
           style="stroke-width:7.09276" />
        <path
           id="use25925"
           d="m 134.44413,158.54054 c 0,-0.58919 -0.0355,-1.1642 -0.2908,-1.70371 -0.29081,-0.58908 -0.80153,-0.74525 -1.14905,-0.74525 -0.41137,0 -0.91495,0.20584 -1.1774,0.79503 -0.1986,0.4472 -0.26959,0.88725 -0.26959,1.65393 0,0.68854 0.0497,1.20673 0.30509,1.71074 0.27652,0.5394 0.76592,0.70964 1.13476,0.70964 0.61711,0 0.97177,-0.36894 1.1774,-0.78064 0.25542,-0.53237 0.26959,-1.22805 0.26959,-1.63974 m -1.44699,2.27861 c -0.22695,0 -0.688,-0.12782 -0.82274,-0.90153 -0.078,-0.42588 -0.078,-0.96539 -0.078,-1.46226 0,-0.58215 0,-1.10738 0.11353,-1.52622 0.12056,-0.47554 0.48226,-0.69568 0.78724,-0.69568 0.26959,0 0.68096,0.16332 0.81571,0.77382 0.0922,0.40456 0.0922,0.96539 0.0922,1.44808 0,0.47555 0,1.01506 -0.078,1.44808 -0.13474,0.78086 -0.58161,0.91571 -0.82988,0.91571 z"
           style="stroke-width:7.09276" />
        <path
           id="use25927"
           d="m 136.04815,160.46817 c 0,-0.20574 -0.17024,-0.34763 -0.34048,-0.34763 -0.20563,0 -0.34752,0.17024 -0.34752,0.34048 0,0.20574 0.17024,0.34752 0.34048,0.34752 0.20564,0 0.34752,-0.17013 0.34752,-0.34037 z"
           style="stroke-width:7.09276" />
        <path
           id="use25929"
           d="m 139.79301,159.61761 h -0.15595 c -0.0213,0.12046 -0.078,0.51018 -0.14903,0.6236 -0.0496,0.0637 -0.4539,0.0637 -0.66668,0.0637 h -1.31214 c 0.19145,-0.16299 0.62414,-0.61657 0.80856,-0.78659 1.07805,-0.99223 1.47524,-1.36074 1.47524,-2.06259 0,-0.81701 -0.64535,-1.3642 -1.4682,-1.3642 -0.82274,0 -1.305,0.70369 -1.305,1.31452 0,0.3617 0.31202,0.3617 0.33334,0.3617 0.14892,0 0.33333,-0.10639 0.33333,-0.33334 0,-0.1986 -0.13474,-0.33334 -0.33333,-0.33334 -0.0639,0 -0.078,0 -0.0994,0.007 0.13485,-0.48378 0.51787,-0.81095 0.97881,-0.81095 0.60293,0 0.97177,0.5051 0.97177,1.15847 0,0.6026 -0.34752,1.12707 -0.75185,1.58065 l -1.43271,1.60198 v 0.17013 h 2.58879 z"
           style="stroke-width:7.09276" />
        <path
           id="use25931"
           d="m 141.04847,156.74581 c 0.30498,0.0992 0.55325,0.10639 0.63129,0.10639 0.80142,0 1.31214,-0.59006 1.31214,-0.68984 0,-0.0284 -0.0142,-0.0639 -0.0567,-0.0639 -0.0142,0 -0.0284,0 -0.0922,0.0285 -0.3972,0.17144 -0.73768,0.19319 -0.9221,0.19319 -0.46808,0 -0.80153,-0.14362 -0.93627,-0.20033 -0.0496,-0.0213 -0.0639,-0.0213 -0.0709,-0.0213 -0.0567,0 -0.0567,0.0426 -0.0567,0.15639 v 2.10696 c 0,0.12771 0,0.17024 0.0851,0.17024 0.0355,0 0.0425,-0.007 0.11353,-0.0922 0.1986,-0.29069 0.53194,-0.46093 0.8866,-0.46093 0.37587,0 0.56029,0.34751 0.617,0.46808 0.12056,0.27652 0.12771,0.62403 0.12771,0.89352 0,0.26949 0,0.67404 -0.1986,0.9945 -0.15605,0.25639 -0.43268,0.43442 -0.7447,0.43442 -0.46819,0 -0.92924,-0.32046 -1.05684,-0.84027 0.0354,0.0142 0.078,0.0213 0.11343,0.0213 0.12056,0 0.31212,-0.071 0.31212,-0.31213 0,-0.1986 -0.13474,-0.31213 -0.31212,-0.31213 -0.1276,0 -0.31202,0.0639 -0.31202,0.34048 0,0.60424 0.48226,1.29418 1.26961,1.29418 0.80142,0 1.50359,-0.67577 1.50359,-1.57784 0,-0.84384 -0.56732,-1.54602 -1.31214,-1.54602 -0.40423,0 -0.71635,0.17738 -0.90077,0.37587 z"
           style="stroke-width:7.09276" />
        <g
           clip-path="url(#clip_12)"
           id="g25935">
          <path
             transform="matrix(0.44496,0,0,-0.44496,116.51,180.56702)"
             stroke-width="0.8"
             stroke-linecap="square"
             stroke-linejoin="round"
             fill="none"
             stroke="#bebebe"
             d="M 67.92056,86.9987 H 346.92057"
             id="path25933" />
        </g>
        <path
           transform="matrix(0.44496,0,0,-0.44496,116.51,180.56702)"
           d="m 67.92056,86.9987 h -3.5"
           id="path25937" />
        <path
           transform="matrix(0.44496,0,0,-0.44496,116.51,180.56702)"
           stroke-width="0.8"
           stroke-linecap="butt"
           stroke-linejoin="round"
           fill="none"
           stroke="#000000"
           d="m 67.92056,86.9987 h -3.5"
           id="path25939" />
        <path
           id="use25941"
           d="m 130.91894,143.12791 h -0.15595 c -0.0213,0.12046 -0.078,0.51018 -0.14903,0.6236 -0.0496,0.0637 -0.4539,0.0637 -0.66668,0.0637 h -1.31214 c 0.19145,-0.16299 0.62414,-0.61657 0.80856,-0.78659 1.07805,-0.99223 1.47524,-1.36074 1.47524,-2.06259 0,-0.81701 -0.64535,-1.3642 -1.4682,-1.3642 -0.82274,0 -1.305,0.70369 -1.305,1.31452 0,0.3617 0.31202,0.3617 0.33334,0.3617 0.14892,0 0.33333,-0.10639 0.33333,-0.33334 0,-0.1986 -0.13474,-0.33334 -0.33333,-0.33334 -0.0639,0 -0.078,0 -0.0994,0.007 0.13485,-0.48378 0.51787,-0.81095 0.97881,-0.81095 0.60293,0 0.97177,0.5051 0.97177,1.15847 0,0.6026 -0.34752,1.12707 -0.75185,1.58065 l -1.43271,1.60198 v 0.17013 h 2.58879 z"
           style="stroke-width:7.09276" />
        <path
           id="use25943"
           d="m 134.44413,142.05084 c 0,-0.58919 -0.0355,-1.1642 -0.2908,-1.70371 -0.29081,-0.58908 -0.80153,-0.74525 -1.14905,-0.74525 -0.41137,0 -0.91495,0.20584 -1.1774,0.79503 -0.1986,0.4472 -0.26959,0.88725 -0.26959,1.65393 0,0.68854 0.0497,1.20673 0.30509,1.71074 0.27652,0.5394 0.76592,0.70964 1.13476,0.70964 0.61711,0 0.97177,-0.36894 1.1774,-0.78064 0.25542,-0.53237 0.26959,-1.22805 0.26959,-1.63974 m -1.44699,2.27861 c -0.22695,0 -0.688,-0.12782 -0.82274,-0.90153 -0.078,-0.42588 -0.078,-0.96539 -0.078,-1.46226 0,-0.58215 0,-1.10738 0.11353,-1.52622 0.12056,-0.47554 0.48226,-0.69568 0.78724,-0.69568 0.26959,0 0.68096,0.16332 0.81571,0.77382 0.0922,0.40456 0.0922,0.96539 0.0922,1.44808 0,0.47555 0,1.01506 -0.078,1.44808 -0.13474,0.78086 -0.58161,0.91571 -0.82988,0.91571 z"
           style="stroke-width:7.09276" />
        <path
           id="use25945"
           d="m 136.04815,143.97847 c 0,-0.20574 -0.17024,-0.34763 -0.34048,-0.34763 -0.20563,0 -0.34752,0.17024 -0.34752,0.34048 0,0.20574 0.17024,0.34752 0.34048,0.34752 0.20564,0 0.34752,-0.17013 0.34752,-0.34037 z"
           style="stroke-width:7.09276" />
        <path
           id="use25947"
           d="m 137.5801,140.25611 c 0.30498,0.0992 0.55325,0.10639 0.63129,0.10639 0.80142,0 1.31214,-0.59006 1.31214,-0.68984 0,-0.0284 -0.0142,-0.0639 -0.0567,-0.0639 -0.0142,0 -0.0284,0 -0.0922,0.0285 -0.3972,0.17144 -0.73768,0.19319 -0.9221,0.19319 -0.46808,0 -0.80153,-0.14362 -0.93627,-0.20033 -0.0496,-0.0213 -0.0639,-0.0213 -0.0709,-0.0213 -0.0567,0 -0.0567,0.0426 -0.0567,0.15639 v 2.10696 c 0,0.12771 0,0.17024 0.0851,0.17024 0.0355,0 0.0425,-0.007 0.11353,-0.0922 0.1986,-0.29069 0.53194,-0.46093 0.8866,-0.46093 0.37587,0 0.56029,0.34751 0.617,0.46808 0.12056,0.27652 0.12771,0.62403 0.12771,0.89352 0,0.26949 0,0.67404 -0.1986,0.9945 -0.15605,0.25639 -0.43268,0.43442 -0.7447,0.43442 -0.46819,0 -0.92924,-0.32046 -1.05684,-0.84027 0.0354,0.0142 0.078,0.0213 0.11343,0.0213 0.12056,0 0.31212,-0.071 0.31212,-0.31213 0,-0.1986 -0.13474,-0.31213 -0.31212,-0.31213 -0.1276,0 -0.31202,0.0639 -0.31202,0.34048 0,0.60424 0.48226,1.29418 1.26961,1.29418 0.80142,0 1.50359,-0.67577 1.50359,-1.57784 0,-0.84384 -0.56732,-1.54602 -1.31214,-1.54602 -0.40423,0 -0.71635,0.17738 -0.90077,0.37587 z"
           style="stroke-width:7.09276" />
        <path
           id="use25949"
           d="m 143.3182,142.05084 c 0,-0.58919 -0.0355,-1.1642 -0.2908,-1.70371 -0.29081,-0.58908 -0.80153,-0.74525 -1.14905,-0.74525 -0.41137,0 -0.91495,0.20584 -1.1774,0.79503 -0.1986,0.4472 -0.26959,0.88725 -0.26959,1.65393 0,0.68854 0.0497,1.20673 0.30509,1.71074 0.27652,0.5394 0.76592,0.70964 1.13476,0.70964 0.61711,0 0.97177,-0.36894 1.1774,-0.78064 0.25542,-0.53237 0.26959,-1.22805 0.26959,-1.63974 m -1.44699,2.27861 c -0.22695,0 -0.688,-0.12782 -0.82274,-0.90153 -0.078,-0.42588 -0.078,-0.96539 -0.078,-1.46226 0,-0.58215 0,-1.10738 0.11353,-1.52622 0.12056,-0.47554 0.48226,-0.69568 0.78724,-0.69568 0.26959,0 0.68096,0.16332 0.81571,0.77382 0.0922,0.40456 0.0922,0.96539 0.0922,1.44808 0,0.47555 0,1.01506 -0.078,1.44808 -0.13474,0.78086 -0.58161,0.91571 -0.82988,0.91571 z"
           style="stroke-width:7.09276" />
        <g
           clip-path="url(#clip_13)"
           id="g25953">
          <path
             transform="matrix(0.44496,0,0,-0.44496,116.51,180.56702)"
             stroke-width="0.8"
             stroke-linecap="square"
             stroke-linejoin="round"
             fill="none"
             stroke="#bebebe"
             d="M 67.92056,124.05753 H 346.92057"
             id="path25951" />
        </g>
        <path
           transform="matrix(0.44496,0,0,-0.44496,116.51,180.56702)"
           d="m 67.92056,124.05753 h -3.5"
           id="path25955" />
        <path
           transform="matrix(0.44496,0,0,-0.44496,116.51,180.56702)"
           stroke-width="0.8"
           stroke-linecap="butt"
           stroke-linejoin="round"
           fill="none"
           stroke="#000000"
           d="m 67.92056,124.05753 h -3.5"
           id="path25957" />
        <path
           id="use25959"
           d="m 130.91894,126.63822 h -0.15595 c -0.0213,0.12046 -0.078,0.51018 -0.14903,0.6236 -0.0496,0.0637 -0.4539,0.0637 -0.66668,0.0637 h -1.31214 c 0.19145,-0.16299 0.62414,-0.61657 0.80856,-0.78659 1.07805,-0.99223 1.47524,-1.36074 1.47524,-2.06259 0,-0.81701 -0.64535,-1.3642 -1.4682,-1.3642 -0.82274,0 -1.305,0.70369 -1.305,1.31452 0,0.3617 0.31202,0.3617 0.33334,0.3617 0.14892,0 0.33333,-0.10639 0.33333,-0.33334 0,-0.1986 -0.13474,-0.33334 -0.33333,-0.33334 -0.0639,0 -0.078,0 -0.0994,0.007 0.13485,-0.48378 0.51787,-0.81095 0.97881,-0.81095 0.60293,0 0.97177,0.5051 0.97177,1.15847 0,0.6026 -0.34752,1.12707 -0.75185,1.58065 l -1.43271,1.60198 v 0.17013 h 2.58879 z"
           style="stroke-width:7.09276" />
        <path
           id="use25961"
           d="m 134.44413,125.56115 c 0,-0.58919 -0.0355,-1.1642 -0.2908,-1.70371 -0.29081,-0.58908 -0.80153,-0.74525 -1.14905,-0.74525 -0.41137,0 -0.91495,0.20584 -1.1774,0.79503 -0.1986,0.4472 -0.26959,0.88725 -0.26959,1.65393 0,0.68854 0.0497,1.20673 0.30509,1.71074 0.27652,0.5394 0.76592,0.70964 1.13476,0.70964 0.61711,0 0.97177,-0.36894 1.1774,-0.78064 0.25542,-0.53237 0.26959,-1.22805 0.26959,-1.63974 m -1.44699,2.27861 c -0.22695,0 -0.688,-0.12782 -0.82274,-0.90153 -0.078,-0.42588 -0.078,-0.96539 -0.078,-1.46226 0,-0.58215 0,-1.10738 0.11353,-1.52622 0.12056,-0.47554 0.48226,-0.69568 0.78724,-0.69568 0.26959,0 0.68096,0.16332 0.81571,0.77382 0.0922,0.40456 0.0922,0.96539 0.0922,1.44808 0,0.47555 0,1.01506 -0.078,1.44808 -0.13474,0.78086 -0.58161,0.91571 -0.82988,0.91571 z"
           style="stroke-width:7.09276" />
        <path
           id="use25963"
           d="m 136.04815,127.48878 c 0,-0.20574 -0.17024,-0.34763 -0.34048,-0.34763 -0.20563,0 -0.34752,0.17024 -0.34752,0.34048 0,0.20574 0.17024,0.34752 0.34048,0.34752 0.20564,0 0.34752,-0.17013 0.34752,-0.34037 z"
           style="stroke-width:7.09276" />
        <path
           id="use25965"
           d="m 140.04129,123.42778 v -0.16321 h -1.70934 c -0.85824,0 -0.87242,-0.0937 -0.90077,-0.22858 h -0.15607 l -0.21991,1.42027 h 0.15606 c 0.0213,-0.12771 0.0852,-0.56744 0.17738,-0.64547 0.0567,-0.0425 0.58865,-0.0425 0.688,-0.0425 h 1.5036 l -0.75185,1.07815 c -0.19146,0.27663 -0.90781,1.43996 -0.90781,2.77343 0,0.078 0,0.36169 0.29081,0.36169 0.29784,0 0.29784,-0.27652 0.29784,-0.36883 v -0.35466 c 0,-1.05684 0.17024,-1.87969 0.50358,-2.35491 z"
           style="stroke-width:7.09276" />
        <path
           id="use25967"
           d="m 141.04847,123.76642 c 0.30498,0.0992 0.55325,0.10639 0.63129,0.10639 0.80142,0 1.31214,-0.59006 1.31214,-0.68984 0,-0.0284 -0.0142,-0.0639 -0.0567,-0.0639 -0.0142,0 -0.0284,0 -0.0922,0.0285 -0.3972,0.17144 -0.73768,0.19319 -0.9221,0.19319 -0.46808,0 -0.80153,-0.14362 -0.93627,-0.20033 -0.0496,-0.0213 -0.0639,-0.0213 -0.0709,-0.0213 -0.0567,0 -0.0567,0.0426 -0.0567,0.15639 v 2.10696 c 0,0.12771 0,0.17024 0.0851,0.17024 0.0355,0 0.0425,-0.007 0.11353,-0.0922 0.1986,-0.29069 0.53194,-0.46093 0.8866,-0.46093 0.37587,0 0.56029,0.34751 0.617,0.46808 0.12056,0.27652 0.12771,0.62403 0.12771,0.89352 0,0.26949 0,0.67404 -0.1986,0.9945 -0.15605,0.25639 -0.43268,0.43442 -0.7447,0.43442 -0.46819,0 -0.92924,-0.32046 -1.05684,-0.84027 0.0354,0.0142 0.078,0.0213 0.11343,0.0213 0.12056,0 0.31212,-0.071 0.31212,-0.31213 0,-0.1986 -0.13474,-0.31213 -0.31212,-0.31213 -0.1276,0 -0.31202,0.0639 -0.31202,0.34048 0,0.60424 0.48226,1.29418 1.26961,1.29418 0.80142,0 1.50359,-0.67577 1.50359,-1.57784 0,-0.84384 -0.56732,-1.54602 -1.31214,-1.54602 -0.40423,0 -0.71635,0.17738 -0.90077,0.37587 z"
           style="stroke-width:7.09276" />
        <g
           clip-path="url(#clip_14)"
           id="g25971">
          <path
             transform="matrix(0.44496,0,0,-0.44496,116.51,180.56702)"
             stroke-width="0.8"
             stroke-linecap="square"
             stroke-linejoin="round"
             fill="none"
             stroke="#bebebe"
             d="M 67.92056,161.11635 H 346.92057"
             id="path25969" />
        </g>
        <path
           transform="matrix(0.44496,0,0,-0.44496,116.51,180.56702)"
           d="m 67.92056,161.11635 h -3.5"
           id="path25973" />
        <path
           transform="matrix(0.44496,0,0,-0.44496,116.51,180.56702)"
           stroke-width="0.8"
           stroke-linecap="butt"
           stroke-linejoin="round"
           fill="none"
           stroke="#000000"
           d="m 67.92056,161.11635 h -3.5"
           id="path25975" />
        <path
           id="use25977"
           d="m 130.91894,110.14852 h -0.15595 c -0.0213,0.12046 -0.078,0.51018 -0.14903,0.6236 -0.0496,0.0637 -0.4539,0.0637 -0.66668,0.0637 h -1.31214 c 0.19145,-0.16299 0.62414,-0.61657 0.80856,-0.78659 1.07805,-0.99223 1.47524,-1.36074 1.47524,-2.06259 0,-0.81701 -0.64535,-1.3642 -1.4682,-1.3642 -0.82274,0 -1.305,0.70369 -1.305,1.31452 0,0.3617 0.31202,0.3617 0.33334,0.3617 0.14892,0 0.33333,-0.10639 0.33333,-0.33334 0,-0.1986 -0.13474,-0.33334 -0.33333,-0.33334 -0.0639,0 -0.078,0 -0.0994,0.007 0.13485,-0.48378 0.51787,-0.81095 0.97881,-0.81095 0.60293,0 0.97177,0.5051 0.97177,1.15847 0,0.6026 -0.34752,1.12707 -0.75185,1.58065 l -1.43271,1.60198 v 0.17013 h 2.58879 z"
           style="stroke-width:7.09276" />
        <path
           id="use25979"
           d="m 133.30927,106.79262 c 0,-0.16299 0,-0.17013 -0.14189,-0.17013 -0.17024,0.19134 -0.52479,0.45239 -1.25543,0.45239 v 0.20563 c 0.1632,0 0.51776,0 0.90791,-0.18431 v 3.69703 c 0,0.25541 -0.0213,0.34059 -0.64546,0.34059 h -0.21981 v 0.20563 c 0.19145,-0.0142 0.87945,-0.0142 1.11355,-0.0142 0.23398,0 0.91495,0 1.1064,0.0142 v -0.20563 h -0.21981 c -0.62414,0 -0.64546,-0.0852 -0.64546,-0.34059 z"
           style="stroke-width:7.09276" />
        <path
           id="use25981"
           d="m 136.04815,110.99908 c 0,-0.20574 -0.17024,-0.34763 -0.34048,-0.34763 -0.20563,0 -0.34752,0.17024 -0.34752,0.34048 0,0.20574 0.17024,0.34752 0.34048,0.34752 0.20564,0 0.34752,-0.17013 0.34752,-0.34037 z"
           style="stroke-width:7.09276" />
        <path
           id="use25983"
           d="m 139.84983,109.07145 c 0,-0.58919 -0.0355,-1.1642 -0.2908,-1.70371 -0.29081,-0.58908 -0.80153,-0.74525 -1.14905,-0.74525 -0.41137,0 -0.91495,0.20584 -1.1774,0.79503 -0.1986,0.4472 -0.26959,0.88725 -0.26959,1.65393 0,0.68854 0.0497,1.20673 0.30509,1.71074 0.27652,0.5394 0.76592,0.70964 1.13476,0.70964 0.61711,0 0.97177,-0.36894 1.1774,-0.78064 0.25542,-0.53237 0.26959,-1.22805 0.26959,-1.63974 m -1.44699,2.27861 c -0.22695,0 -0.688,-0.12782 -0.82274,-0.90153 -0.078,-0.42588 -0.078,-0.96539 -0.078,-1.46226 0,-0.58215 0,-1.10738 0.11353,-1.52622 0.12056,-0.47554 0.48226,-0.69568 0.78724,-0.69568 0.26959,0 0.68096,0.16332 0.81571,0.77382 0.0922,0.40456 0.0922,0.96539 0.0922,1.44808 0,0.47555 0,1.01506 -0.078,1.44808 -0.13474,0.78086 -0.58161,0.91571 -0.82988,0.91571 z"
           style="stroke-width:7.09276" />
        <path
           id="use25985"
           d="m 143.3182,109.07145 c 0,-0.58919 -0.0355,-1.1642 -0.2908,-1.70371 -0.29081,-0.58908 -0.80153,-0.74525 -1.14905,-0.74525 -0.41137,0 -0.91495,0.20584 -1.1774,0.79503 -0.1986,0.4472 -0.26959,0.88725 -0.26959,1.65393 0,0.68854 0.0497,1.20673 0.30509,1.71074 0.27652,0.5394 0.76592,0.70964 1.13476,0.70964 0.61711,0 0.97177,-0.36894 1.1774,-0.78064 0.25542,-0.53237 0.26959,-1.22805 0.26959,-1.63974 m -1.44699,2.27861 c -0.22695,0 -0.688,-0.12782 -0.82274,-0.90153 -0.078,-0.42588 -0.078,-0.96539 -0.078,-1.46226 0,-0.58215 0,-1.10738 0.11353,-1.52622 0.12056,-0.47554 0.48226,-0.69568 0.78724,-0.69568 0.26959,0 0.68096,0.16332 0.81571,0.77382 0.0922,0.40456 0.0922,0.96539 0.0922,1.44808 0,0.47555 0,1.01506 -0.078,1.44808 -0.13474,0.78086 -0.58161,0.91571 -0.82988,0.91571 z"
           style="stroke-width:7.09276" />
        <g
           clip-path="url(#clip_15)"
           id="g25989">
          <path
             transform="matrix(0.44496,0,0,-0.44496,116.51,180.56702)"
             stroke-width="0.8"
             stroke-linecap="square"
             stroke-linejoin="round"
             fill="none"
             stroke="#bebebe"
             d="M 67.92056,198.17517 H 346.92057"
             id="path25987" />
        </g>
        <path
           transform="matrix(0.44496,0,0,-0.44496,116.51,180.56702)"
           d="m 67.92056,198.17517 h -3.5"
           id="path25991" />
        <path
           transform="matrix(0.44496,0,0,-0.44496,116.51,180.56702)"
           stroke-width="0.8"
           stroke-linecap="butt"
           stroke-linejoin="round"
           fill="none"
           stroke="#000000"
           d="m 67.92056,198.17517 h -3.5"
           id="path25993" />
        <path
           id="use25995"
           d="m 130.91894,93.658829 h -0.15595 c -0.0213,0.120456 -0.078,0.510181 -0.14903,0.623603 -0.0496,0.06375 -0.4539,0.06375 -0.66668,0.06375 h -1.31214 c 0.19145,-0.16299 0.62414,-0.616569 0.80856,-0.786594 1.07805,-0.992224 1.47524,-1.360737 1.47524,-2.062589 0,-0.817005 -0.64535,-1.364201 -1.4682,-1.364201 -0.82274,0 -1.305,0.703692 -1.305,1.314525 0,0.361695 0.31202,0.361695 0.33334,0.361695 0.14892,0 0.33333,-0.106388 0.33333,-0.33334 0,-0.198596 -0.13474,-0.333339 -0.33333,-0.333339 -0.0639,0 -0.078,0 -0.0994,0.0071 0.13485,-0.483775 0.51787,-0.810945 0.97881,-0.810945 0.60293,0 0.97177,0.505095 0.97177,1.158461 0,0.602608 -0.34752,1.127076 -0.75185,1.580655 l -1.43271,1.601976 v 0.170133 h 2.58879 z"
           style="stroke-width:7.09276" />
        <path
           id="use25997"
           d="m 133.30927,90.302927 c 0,-0.16299 0,-0.170133 -0.14189,-0.170133 -0.17024,0.191346 -0.52479,0.452389 -1.25543,0.452389 v 0.205631 c 0.1632,0 0.51776,0 0.90791,-0.184311 v 3.697034 c 0,0.255415 -0.0213,0.34059 -0.64546,0.34059 h -0.21981 v 0.205631 c 0.19145,-0.01418 0.87945,-0.01418 1.11355,-0.01418 0.23398,0 0.91495,0 1.1064,0.01418 v -0.205631 h -0.21981 c -0.62414,0 -0.64546,-0.08517 -0.64546,-0.34059 z"
           style="stroke-width:7.09276" />
        <path
           id="use25999"
           d="m 136.04815,94.509384 c 0,-0.205739 -0.17024,-0.347625 -0.34048,-0.347625 -0.20563,0 -0.34752,0.170241 -0.34752,0.340482 0,0.20574 0.17024,0.347517 0.34048,0.347517 0.20564,0 0.34752,-0.170133 0.34752,-0.340374 z"
           style="stroke-width:7.09276" />
        <path
           id="use26001"
           d="m 139.79301,93.658829 h -0.15595 c -0.0213,0.120456 -0.078,0.510181 -0.14903,0.623603 -0.0496,0.06375 -0.4539,0.06375 -0.66668,0.06375 h -1.31214 c 0.19145,-0.16299 0.62414,-0.616569 0.80856,-0.786594 1.07805,-0.992224 1.47524,-1.360737 1.47524,-2.062589 0,-0.817005 -0.64535,-1.364201 -1.4682,-1.364201 -0.82274,0 -1.305,0.703692 -1.305,1.314525 0,0.361695 0.31202,0.361695 0.33334,0.361695 0.14892,0 0.33333,-0.106388 0.33333,-0.33334 0,-0.198596 -0.13474,-0.333339 -0.33333,-0.333339 -0.0639,0 -0.078,0 -0.0994,0.0071 0.13485,-0.483775 0.51787,-0.810945 0.97881,-0.810945 0.60293,0 0.97177,0.505095 0.97177,1.158461 0,0.602608 -0.34752,1.127076 -0.75185,1.580655 l -1.43271,1.601976 v 0.170133 h 2.58879 z"
           style="stroke-width:7.09276" />
        <path
           id="use26003"
           d="m 141.04847,90.787026 c 0.30498,0.09924 0.55325,0.106387 0.63129,0.106387 0.80142,0 1.31214,-0.590053 1.31214,-0.689838 0,-0.02836 -0.0142,-0.06386 -0.0567,-0.06386 -0.0142,0 -0.0284,0 -0.0922,0.02846 -0.3972,0.171432 -0.73768,0.193185 -0.9221,0.193185 -0.46808,0 -0.80153,-0.143617 -0.93627,-0.200328 -0.0496,-0.02132 -0.0639,-0.02132 -0.0709,-0.02132 -0.0567,0 -0.0567,0.04264 -0.0567,0.156387 v 2.106965 c 0,0.127708 0,0.170241 0.0851,0.170241 0.0355,0 0.0425,-0.0071 0.11353,-0.09221 0.1986,-0.290698 0.53194,-0.460939 0.8866,-0.460939 0.37587,0 0.56029,0.347517 0.617,0.468082 0.12056,0.27652 0.12771,0.624037 0.12771,0.893522 0,0.269485 0,0.674037 -0.1986,0.994497 -0.15605,0.25639 -0.43268,0.434423 -0.7447,0.434423 -0.46819,0 -0.92924,-0.32046 -1.05684,-0.840274 0.0354,0.01418 0.078,0.02132 0.11343,0.02132 0.12056,0 0.31212,-0.071 0.31212,-0.312127 0,-0.198597 -0.13474,-0.312127 -0.31212,-0.312127 -0.1276,0 -0.31202,0.06386 -0.31202,0.340482 0,0.604231 0.48226,1.294178 1.26961,1.294178 0.80142,0 1.50359,-0.67577 1.50359,-1.577841 0,-0.843846 -0.56732,-1.546022 -1.31214,-1.546022 -0.40423,0 -0.71635,0.177383 -0.90077,0.375872 z"
           style="stroke-width:7.09276" />
        <path
           id="use26005"
           d="m 122.04212,143.87553 -2.32764,-1.65977 v 0.65964 l 1.85923,1.29797 -1.85923,1.33346 v 0.71636 l 2.32764,-1.75187 2.59712,1.84408 v -0.6525 l -2.17136,-1.48953 2.17136,-1.53206 v -0.70921 z"
           style="stroke-width:7.09276" />
        <path
           id="use26007"
           d="m 119.91665,138.60561 c -0.15606,0.2908 -0.34763,0.64536 -0.34763,1.27664 0,0.95045 0.68108,1.56756 1.39072,1.56756 0.5039,0 0.83032,-0.30509 0.86582,-0.34048 0.35487,-0.34752 0.41873,-0.58875 0.53226,-1.04266 0.14902,-0.60293 0.17738,-0.70217 0.41158,-0.92913 0.12771,-0.12056 0.35488,-0.22695 0.60326,-0.22695 0.48962,0 0.94385,0.40423 0.94385,1.0142 0,0.51775 -0.20585,1.07101 -0.58908,1.48952 l 0.57479,0.10639 c 0.42566,-0.64546 0.4894,-1.26961 0.4894,-1.59591 0,-0.91495 -0.70228,-1.56042 -1.48996,-1.56042 -0.45423,0 -0.79482,0.21992 -0.9722,0.37598 -0.34773,0.3262 -0.41873,0.58865 -0.5394,1.06387 -0.12068,0.48237 -0.16321,0.65965 -0.31224,0.81571 -0.0994,0.0922 -0.27673,0.28366 -0.59611,0.28366 -0.43291,0 -0.85164,-0.39005 -0.85164,-1.01419 0,-0.60294 0.2342,-0.9221 0.46137,-1.1774 z"
           style="stroke-width:7.09276" />
        <path
           id="use26009"
           d="m 121.48767,134.97406 v 0.53908 h 2.02904 c 0.53929,0 0.80175,0.37587 0.80175,0.83691 0,0.49655 -0.18442,0.54612 -0.49666,0.54612 h -2.33413 v 0.53908 h 2.36249 c 0.51083,0 0.85835,-0.1631 0.85835,-0.74471 0,-0.1986 -0.0354,-0.75889 -0.42555,-1.19158 h 0.35466 v -0.5249 z"
           style="stroke-width:7.09276" />
        <path
           id="use26011"
           d="m 122.50381,129.4772 c -0.48951,0 -1.0854,0.1276 -1.0854,0.95748 0,0.60294 0.41851,0.93627 0.57457,1.04266 -0.44687,0.12771 -0.57457,0.51776 -0.57457,0.8866 0,0.58161 0.37598,0.88659 0.5249,1.00716 h -0.48941 v 0.50358 h 3.18534 v -0.53908 h -1.76648 c -0.4683,0 -1.0287,-0.18431 -1.0287,-0.70218 0,-0.6525 0.44698,-0.688 0.70943,-0.688 h 2.08575 v -0.53897 h -1.76648 c -0.4683,0 -1.0287,-0.18442 -1.0287,-0.70217 0,-0.65261 0.44698,-0.688 0.70943,-0.688 h 2.08575 v -0.53908 z"
           style="stroke-width:7.09276" />
        <path
           id="use26013"
           d="m 122.32437,123.72927 c -0.21991,-0.77306 -0.75888,-1.19158 -1.28368,-1.19158 -0.7091,0 -1.32621,0.759 -1.32621,1.75902 v 1.67394 h 4.92476 v -0.59579 h -2.25112 v -1.10651 l 2.25112,-1.31214 v -0.60997 l -2.31487,1.38303 m -0.3618,1.64559 h -1.85079 v -1.00012 c 0,-0.85824 0.4538,-1.27665 0.92891,-1.27665 0.43973,0 0.92188,0.38302 0.92188,1.27665 z"
           style="stroke-width:7.09276" />
        <path
           id="use26015"
           d="m 122.19461,117.41676 c -1.50446,0 -2.62559,1.02134 -2.62559,2.17039 0,1.1774 1.14234,2.17752 2.62559,2.17752 1.49732,0 2.59701,-1.02848 2.59701,-2.17049 0,-1.17026 -1.11387,-2.17742 -2.59701,-2.17742 m 2.15025,2.17039 c 0,0.82274 -0.88713,1.56745 -2.25675,1.56745 -1.30575,0 -2.07925,-0.77307 -2.07925,-1.56042 0,-0.80856 0.79482,-1.56745 2.07925,-1.56745 1.39094,0 2.25675,0.76603 2.25675,1.56042 z"
           style="stroke-width:7.09276" />
        <path
           id="use26017"
           d="m 119.71448,112.94125 v 0.53897 h 3.2809 c 0.95164,0 1.39905,0.59579 1.39905,1.16322 0,0.5604 -0.44027,1.13487 -1.39905,1.13487 h -3.2809 v 0.60997 h 3.27387 c 1.04395,0 1.80327,-0.8156 1.80327,-1.73769 0,-0.9221 -0.77349,-1.70934 -1.80327,-1.70934 z"
           style="stroke-width:7.09276" />
        <path
           id="use26019"
           d="m 122.48888,108.13944 v 1.4682 h 0.43258 v -0.92209 h 1.19147 c 0.0709,0.29081 0.14189,0.58161 0.14189,0.92913 0,1.02144 -1.09926,1.61723 -2.08499,1.61723 -0.95013,0 -2.0916,-0.57457 -2.0916,-1.65262 0,-0.53908 0.1631,-0.8866 0.48215,-1.27676 l -0.58139,-0.10638 c -0.24113,0.47522 -0.34763,0.86527 -0.34763,1.40435 0,1.35479 1.27643,2.24138 2.53847,2.24138 1.27653,0 2.53175,-0.88659 2.53175,-2.25556 0,-0.49643 -0.11342,-1.00001 -0.34038,-1.44688 z"
           style="stroke-width:7.09276" />
        <path
           id="use26021"
           d="m 122.29807,104.13196 h -0.42554 v 2.29809 h -1.70404 v -0.96463 c 0,-0.0851 0.007,-0.17024 0.007,-0.2553 v -1.27676 h -0.44676 v 3.10666 h 4.91047 v -3.19887 h -0.48226 v 0.92924 c 0,0.0851 0.007,0.17024 0.007,0.25531 v 1.40435 h -1.86605 z"
           style="stroke-width:7.09276" />
        <path
           id="use26023"
           d="m 123.2706,101.62115 h -0.41148 v 1.84419 h 0.41148 z"
           style="stroke-width:7.09276" />
        <path
           id="use26025"
           d="m 124.19248,100.88349 h 0.44676 v -2.773204 h -0.48226 v 1.262467 c 0,0.08507 0.007,0.170241 0.007,0.255308 v 0.758999 c -0.19145,-0.18442 -0.84373,-0.844066 -1.255,-1.305113 -0.46083,-0.5249 -0.90034,-0.971661 -1.55262,-0.971661 -0.78703,0 -1.51042,0.546112 -1.51042,1.482384 0,0.76603 0.50358,1.15608 1.16301,1.34764 0.28356,-0.22706 0.29773,-0.22706 0.3828,-0.2908 -0.75856,-0.17739 -1.10597,-0.43984 -1.10597,-0.96463 0,-0.609967 0.47501,-1.007269 1.08476,-1.007269 0.36862,0 0.77988,0.149029 1.24775,0.624254 z"
           style="stroke-width:7.09276" />
        <g
           clip-path="url(#clip_16)"
           id="g26041">
          <path
             transform="matrix(0.44496,0,0,-0.44496,116.51,180.56702)"
             stroke-width="2"
             stroke-linecap="square"
             stroke-linejoin="round"
             fill="none"
             stroke="#0000ff"
             d="M 111.34618,81.06929 254.81726,72.17517"
             id="path26027" />
          <g
             clip-path="url(#clip_17)"
             id="g26033">
            <path
               transform="matrix(0.44496,0,0,-0.44496,166.0546,144.49443)"
               d="m 0,-5 c 1.326016,0 2.597899,0.526832 3.535534,1.464466 C 4.473168,-2.597899 5,-1.326016 5,0 5,1.326016 4.473168,2.597899 3.535534,3.535534 2.597899,4.473168 1.326016,5 0,5 -1.326016,5 -2.597899,4.473168 -3.535534,3.535534 -4.473168,2.597899 -5,1.326016 -5,0 -5,-1.326016 -4.473168,-2.597899 -3.535534,-3.535534 -2.597899,-4.473168 -1.326016,-5 0,-5 Z"
               fill="#0000ff"
               id="path26029" />
            <path
               transform="matrix(0.44496,0,0,-0.44496,166.0546,144.49443)"
               stroke-width="1"
               stroke-linecap="butt"
               stroke-linejoin="round"
               fill="none"
               stroke="#0000ff"
               d="m 0,-5 c 1.326016,0 2.597899,0.526832 3.535534,1.464466 C 4.473168,-2.597899 5,-1.326016 5,0 5,1.326016 4.473168,2.597899 3.535534,3.535534 2.597899,4.473168 1.326016,5 0,5 -1.326016,5 -2.597899,4.473168 -3.535534,3.535534 -4.473168,2.597899 -5,1.326016 -5,0 -5,-1.326016 -4.473168,-2.597899 -3.535534,-3.535534 -2.597899,-4.473168 -1.326016,-5 0,-5 Z"
               id="path26031" />
          </g>
          <g
             clip-path="url(#clip_18)"
             id="g26039">
            <path
               transform="matrix(0.44496,0,0,-0.44496,229.89348,148.45195)"
               d="m 0,-5 c 1.326016,0 2.597899,0.526832 3.535534,1.464466 C 4.473168,-2.597899 5,-1.326016 5,0 5,1.326016 4.473168,2.597899 3.535534,3.535534 2.597899,4.473168 1.326016,5 0,5 -1.326016,5 -2.597899,4.473168 -3.535534,3.535534 -4.473168,2.597899 -5,1.326016 -5,0 -5,-1.326016 -4.473168,-2.597899 -3.535534,-3.535534 -2.597899,-4.473168 -1.326016,-5 0,-5 Z"
               fill="#0000ff"
               id="path26035" />
            <path
               transform="matrix(0.44496,0,0,-0.44496,229.89348,148.45195)"
               stroke-width="1"
               stroke-linecap="butt"
               stroke-linejoin="round"
               fill="none"
               stroke="#0000ff"
               d="m 0,-5 c 1.326016,0 2.597899,0.526832 3.535534,1.464466 C 4.473168,-2.597899 5,-1.326016 5,0 5,1.326016 4.473168,2.597899 3.535534,3.535534 2.597899,4.473168 1.326016,5 0,5 -1.326016,5 -2.597899,4.473168 -3.535534,3.535534 -4.473168,2.597899 -5,1.326016 -5,0 -5,-1.326016 -4.473168,-2.597899 -3.535534,-3.535534 -2.597899,-4.473168 -1.326016,-5 0,-5 Z"
               id="path26037" />
          </g>
        </g>
        <g
           clip-path="url(#clip_19)"
           id="g26053">
          <path
             transform="matrix(0.44496,0,0,-0.44496,116.51,180.56702)"
             stroke-width="2"
             stroke-linecap="square"
             stroke-linejoin="round"
             fill="none"
             stroke="#0000ff"
             d="M 111.34618,58.833997 254.81726,135.91635"
             id="path26043" />
          <path
             transform="matrix(0.44496,0,0,-0.44496,116.51,180.56702)"
             d="m 111.34618,53.833997 5,10 h -10 z"
             fill="#0000ff"
             id="path26045" />
          <path
             transform="matrix(0.44496,0,0,-0.44496,116.51,180.56702)"
             stroke-width="1"
             stroke-linecap="butt"
             stroke-miterlimit="10"
             stroke-linejoin="miter"
             fill="none"
             stroke="#0000ff"
             d="m 111.34618,53.833997 5,10 h -10 z"
             id="path26047" />
          <path
             transform="matrix(0.44496,0,0,-0.44496,116.51,180.56702)"
             d="m 254.81726,130.91635 5.00001,10 h -10.00001 z"
             fill="#0000ff"
             id="path26049" />
          <path
             transform="matrix(0.44496,0,0,-0.44496,116.51,180.56702)"
             stroke-width="1"
             stroke-linecap="butt"
             stroke-miterlimit="10"
             stroke-linejoin="miter"
             fill="none"
             stroke="#0000ff"
             d="m 254.81726,130.91635 5.00001,10 h -10.00001 z"
             id="path26051" />
        </g>
        <g
           clip-path="url(#clip_20)"
           id="g26061">
          <path
             transform="matrix(0.44496,0,0,-0.44496,116.51,180.56702)"
             stroke-width="2"
             stroke-linecap="square"
             stroke-linejoin="round"
             fill="none"
             stroke="#0000ff"
             d="M 203.57759,55.86929"
             id="path26055" />
          <path
             transform="matrix(0.44496,0,0,-0.44496,116.51,180.56702)"
             d="m 198.57759,50.86929 h 10 v 10 h -10 z"
             fill="#0000ff"
             id="path26057" />
          <path
             transform="matrix(0.44496,0,0,-0.44496,116.51,180.56702)"
             stroke-width="1"
             stroke-linecap="butt"
             stroke-miterlimit="10"
             stroke-linejoin="miter"
             fill="none"
             stroke="#0000ff"
             d="m 198.57759,50.86929 h 10 v 10 h -10 z"
             id="path26059" />
        </g>
        <g
           clip-path="url(#clip_21)"
           id="g26083">
          <path
             transform="matrix(0.44496,0,0,-0.44496,116.51,180.56702)"
             stroke-width="2"
             stroke-linecap="butt"
             stroke-dasharray="7.4, 3.2"
             stroke-linejoin="round"
             fill="none"
             stroke="#ff0000"
             d="m 80.60238,110.71635 94.79339,47.43529 158.84298,38.54119"
             id="path26063" />
          <g
             clip-path="url(#clip_22)"
             id="g26069">
            <path
               transform="matrix(0.44496,0,0,-0.44496,152.37483,131.30268)"
               d="M 0,-5 5,5 H -5 Z"
               fill="#ff0000"
               id="path26065" />
            <path
               transform="matrix(0.44496,0,0,-0.44496,152.37483,131.30268)"
               stroke-width="1"
               stroke-linecap="butt"
               stroke-miterlimit="10"
               stroke-linejoin="miter"
               fill="none"
               stroke="#ff0000"
               d="M 0,-5 5,5 H -5 Z"
               id="path26067" />
          </g>
          <g
             clip-path="url(#clip_23)"
             id="g26075">
            <path
               transform="matrix(0.44496,0,0,-0.44496,194.5541,110.19586)"
               d="M 0,-5 5,5 H -5 Z"
               fill="#ff0000"
               id="path26071" />
            <path
               transform="matrix(0.44496,0,0,-0.44496,194.5541,110.19586)"
               stroke-width="1"
               stroke-linecap="butt"
               stroke-miterlimit="10"
               stroke-linejoin="miter"
               fill="none"
               stroke="#ff0000"
               d="M 0,-5 5,5 H -5 Z"
               id="path26073" />
          </g>
          <g
             clip-path="url(#clip_24)"
             id="g26081">
            <path
               transform="matrix(0.44496,0,0,-0.44496,265.23286,93.04658)"
               d="M 0,-5 5,5 H -5 Z"
               fill="#ff0000"
               id="path26077" />
            <path
               transform="matrix(0.44496,0,0,-0.44496,265.23286,93.04658)"
               stroke-width="1"
               stroke-linecap="butt"
               stroke-miterlimit="10"
               stroke-linejoin="miter"
               fill="none"
               stroke="#ff0000"
               d="M 0,-5 5,5 H -5 Z"
               id="path26079" />
          </g>
        </g>
        <g
           clip-path="url(#clip_25)"
           id="g26091">
          <path
             transform="matrix(0.44496,0,0,-0.44496,116.51,180.56702)"
             stroke-width="2"
             stroke-linecap="butt"
             stroke-dasharray="7.4, 3.2"
             stroke-linejoin="round"
             fill="none"
             stroke="#ff0000"
             d="M 175.39577,207.06929"
             id="path26085" />
          <path
             transform="matrix(0.44496,0,0,-0.44496,116.51,180.56702)"
             d="m 170.39577,202.06929 h 10 v 10 h -10 z"
             fill="#ff0000"
             id="path26087" />
          <path
             transform="matrix(0.44496,0,0,-0.44496,116.51,180.56702)"
             stroke-width="1"
             stroke-linecap="butt"
             stroke-miterlimit="10"
             stroke-linejoin="miter"
             fill="none"
             stroke="#ff0000"
             d="m 170.39577,202.06929 h 10 v 10 h -10 z"
             id="path26089" />
        </g>
        <path
           transform="matrix(0.44496,0,0,-0.44496,116.51,180.56702)"
           stroke-width="0.8"
           stroke-linecap="square"
           stroke-miterlimit="10"
           stroke-linejoin="miter"
           fill="none"
           stroke="#000000"
           d="M 67.92056,48.309289 V 214.62929"
           id="path26093" />
        <path
           transform="matrix(0.44496,0,0,-0.44496,116.51,180.56702)"
           stroke-width="0.8"
           stroke-linecap="square"
           stroke-miterlimit="10"
           stroke-linejoin="miter"
           fill="none"
           stroke="#000000"
           d="M 346.92057,48.309289 V 214.62929"
           id="path26095" />
        <path
           transform="matrix(0.44496,0,0,-0.44496,116.51,180.56702)"
           stroke-width="0.8"
           stroke-linecap="square"
           stroke-miterlimit="10"
           stroke-linejoin="miter"
           fill="none"
           stroke="#000000"
           d="M 67.92056,48.309289 H 346.92057"
           id="path26097" />
        <path
           transform="matrix(0.44496,0,0,-0.44496,116.51,180.56702)"
           stroke-width="0.8"
           stroke-linecap="square"
           stroke-miterlimit="10"
           stroke-linejoin="miter"
           fill="none"
           stroke="#000000"
           d="M 67.92056,214.62929 H 346.92057"
           id="path26099" />
      </g>
    </g>
  </g>
</svg>
