<svg xmlns:inkscape="http://www.inkscape.org/namespaces/inkscape" xmlns:sodipodi="http://sodipodi.sourceforge.net/DTD/sodipodi-0.dtd" xmlns="http://www.w3.org/2000/svg" xmlns:svg="http://www.w3.org/2000/svg" width="26.542999mm" height="21.2344mm" viewBox="0 0 26.542999 21.2344" version="1.1" id="svg7647" inkscape:version="1.2.2 (b0a84865, 2022-12-01)" sodipodi:docname="figure3b.svg">
  <sodipodi:namedview id="namedview7649" pagecolor="#ffffff" bordercolor="#999999" borderopacity="1" inkscape:showpageshadow="0" inkscape:pageopacity="0" inkscape:pagecheckerboard="0" inkscape:deskcolor="#d1d1d1" inkscape:document-units="mm" showgrid="false" inkscape:zoom="0.914906" inkscape:cx="-146.46313" inkscape:cy="357.96027" inkscape:window-width="1390" inkscape:window-height="1205" inkscape:window-x="0" inkscape:window-y="25" inkscape:window-maximized="0" inkscape:current-layer="layer1"/>
  <defs id="defs7644">
    <clipPath id="clip_26">
      <path transform="matrix(0.15048,0,0,-0.15048,187.567,142.05402)" d="M 0,0 H 500 V 400 H 0 Z" id="path102"/>
    </clipPath>
    <clipPath id="clip_27">
      <path transform="matrix(0.15048,0,0,-0.15048,131.73892,210.52242)" d="M 0,0 H 1920 V 1080 H 0 Z" id="path105"/>
    </clipPath>
    <clipPath id="clip_28">
      <path transform="matrix(0.15048,0,0,-0.15048,131.73892,210.52242)" d="M 0,0 H 1920 V 1080 H 0 Z" id="path108"/>
    </clipPath>
    <clipPath id="clip_29">
      <path transform="matrix(0.15048,0,0,-0.15048,131.73892,210.52242)" d="m 393.6093,481.3935 h 274.7564 v 53.06826 H 393.6093 Z" id="path111"/>
    </clipPath>
    <clipPath id="clip_30">
      <path transform="matrix(0.15048,0,0,-0.15048,131.73892,210.52242)" d="m 393.6093,698.5677 h 274.7564 v 53.0682 H 393.6093 Z" id="path114"/>
    </clipPath>
    <clipPath id="clip_31">
      <path transform="matrix(0.15048,0,0,-0.15048,131.73892,210.52242)" d="m 408.8935,495.6723 h 28 v 22.6667 h -28 z" id="path117"/>
    </clipPath>
    <clipPath id="clip_33">
      <path transform="matrix(0.15048,0,0,-0.15048,131.73892,210.52242)" d="m 408.8935,712.1018 h 27.99439 v 33.08426 H 408.8935 Z" id="path121"/>
    </clipPath>
    <clipPath id="clip_35">
      <path transform="matrix(0.15048,0,0,-0.15048,131.73892,210.52242)" d="M 0,0 H 1920 V 1080 H 0 Z" id="path125"/>
    </clipPath>
    <clipPath id="clip_36">
      <path transform="matrix(0.15048,0,0,-0.15048,131.73892,210.52242)" d="m 394.7718,581.1999 h 272.43147 v 76.551 H 394.7718 Z" id="path128"/>
    </clipPath>
    <clipPath id="clip_37">
      <path transform="matrix(0.15048,0,0,-0.15048,131.73892,210.52242)" d="m 413.3728,602.2449 h 235.2294 v 34 H 413.3728 Z" id="path131"/>
    </clipPath>
    <clipPath id="clip_39">
      <path transform="matrix(0.15048,0,0,-0.15048,131.73892,210.52242)" d="M 0,0 H 1920 V 1080 H 0 Z" id="path144"/>
    </clipPath>
    <clipPath id="clip_40">
      <path transform="matrix(0.15048,0,0,-0.15048,131.73892,210.52242)" d="m 719.6589,621.7841 h 138.30829 v 33 H 719.6589 Z" id="path147"/>
    </clipPath>
    <clipPath id="clip_41">
      <path transform="matrix(0.15048,0,0,-0.15048,131.73892,210.52242)" d="M 0,0 H 1920 V 1080 H 0 Z" id="path155"/>
    </clipPath>
    <clipPath id="clip_42">
      <path transform="matrix(0.15048,0,0,-0.15048,131.73892,210.52242)" d="m 426.3857,802.1795 h 209.2037 v 34 H 426.3857 Z" id="path158"/>
    </clipPath>
    <clipPath id="clip_43">
      <path transform="matrix(0.15048,0,0,-0.15048,131.73892,210.52242)" d="m 745.6195,550.5 h 86.3871 v 26 h -86.3871 z" id="path167"/>
    </clipPath>
    <clipPath id="clip_46">
      <path transform="matrix(0.15048,0,0,-0.15048,131.73892,210.52242)" d="m 755.947,698.8148 h 55.1193 v 28.37028 H 755.947 Z" id="path175"/>
    </clipPath>
    <clipPath id="clip_49">
      <path transform="matrix(0.15048,0,0,-0.15048,131.73892,210.52242)" d="M 0,0 H 1920 V 1080 H 0 Z" id="path181"/>
    </clipPath>
  </defs>
  <g inkscape:label="Layer 1" inkscape:groupmode="layer" id="layer1" transform="translate(-84.475336,-53.872576)" color="rgb(209, 209, 209)">
    <g clip-path="url(#clip_26)" id="g984" transform="matrix(0.35277777,0,0,0.35277777,18.305868,24.993475)" color="rgb(209, 209, 209)">
      <g clip-path="url(#clip_27)" id="g982" color="rgb(209, 209, 209)">
        <g clip-path="url(#clip_28)" id="g798" color="rgb(209, 209, 209)">
          <path transform="matrix(0.15048,0,0,-0.15048,131.73892,210.52242)" d="M 0,0 H 1920 V 1080 H 0 Z" fill="#ffffff" id="path792"/>
          <path transform="matrix(0.15048,0,0,0.15048,227.19474,86.339969)" stroke-width="3" stroke-linecap="butt" stroke-miterlimit="4" stroke-linejoin="miter" fill="none" stroke="#000000" d="M 151.4404,231.7481 C 159.1041,94.18635 112.9878,17.50106 13.09173,1.692216 L 11.60347,1.499845" id="path794"/>
          <path transform="matrix(0.15048,0,0,-0.15048,131.73892,210.52242)" d="m 648.2793,830.0956 -13.9372,-4.8534 12.2451,-8.2377 z" id="path796"/>
        </g>
        <g clip-path="url(#clip_29)" id="g804" color="rgb(209, 209, 209)">
          <path transform="matrix(0.15048,0,0,-0.15048,131.73892,210.52242)" d="m 396.1093,483.8935 h 269.7564 v 48.06826 H 396.1093 Z" fill="#fedcbb" fill-opacity="0.5" id="path800"/>
          <path transform="matrix(0.15048,0,0,0.15048,191.34546,130.47283)" stroke-width="3" stroke-linecap="butt" stroke-miterlimit="4" stroke-linejoin="miter" fill="none" stroke="#000000" d="M 0,0 H 269.7564 V 48.06821 H 0 Z" id="path802"/>
        </g>
        <g clip-path="url(#clip_30)" id="g810" color="rgb(209, 209, 209)">
          <path transform="matrix(0.15048,0,0,-0.15048,131.73892,210.52242)" d="m 396.1093,701.0677 h 269.7564 v 48.0682 H 396.1093 Z" fill="#fedcbb" fill-opacity="0.5" id="path806"/>
          <path transform="matrix(0.15048,0,0,0.15048,191.34546,97.79244)" stroke-width="3" stroke-linecap="butt" stroke-miterlimit="4" stroke-linejoin="miter" fill="none" stroke="#000000" d="M 0,0 H 269.7564 V 48.06821 H 0 Z" id="path808"/>
        </g>
        <g clip-path="url(#clip_31)" id="g814" color="rgb(209, 209, 209)">
          <path id="use812" d="m 196.96079,132.93634 c -0.25903,0.0719 -0.38859,0.31656 -0.38859,0.49642 0,0.15833 0.12232,0.33105 0.35982,0.33105 0.25178,0 0.51805,-0.20873 0.51805,-0.56131 0,-0.38134 -0.38135,-0.63323 -0.82034,-0.63323 -0.41011,0 -0.67638,0.30953 -0.76993,0.43899 -0.17997,-0.30218 -0.58295,-0.43899 -0.99306,-0.43899 -0.90675,0 -1.39603,0.88512 -1.39603,1.12251 0,0.1008 0.10794,0.1008 0.17272,0.1008 0.0863,0 0.1367,0 0.16547,-0.0935 0.20874,-0.65475 0.72679,-0.87063 1.02183,-0.87063 0.27352,0 0.40297,0.12946 0.40297,0.35972 0,0.1367 -0.10069,0.53243 -0.16547,0.79156 l -0.24464,0.9857 c -0.10794,0.43888 -0.36707,0.65475 -0.61171,0.65475 -0.036,0 -0.20149,0 -0.34544,-0.10793 0.25913,-0.0719 0.38859,-0.31656 0.38859,-0.49642 0,-0.15833 -0.12232,-0.33105 -0.35982,-0.33105 -0.25178,0 -0.51805,0.20873 -0.51805,0.56131 0,0.38134 0.38134,0.63312 0.82033,0.63312 0.41023,0 0.67639,-0.30942 0.76994,-0.43888 0.17997,0.30217 0.58294,0.43888 0.99306,0.43888 0.90675,0 1.39603,-0.88501 1.39603,-1.1224 0,-0.1008 -0.10794,-0.1008 -0.17272,-0.1008 -0.0863,0 -0.13671,0 -0.16548,0.0935 -0.20862,0.65475 -0.72678,0.87062 -1.02182,0.87062 -0.27341,0 -0.40297,-0.12945 -0.40297,-0.35971 0,-0.15109 0.0936,-0.53243 0.15833,-0.7987 0.0504,-0.18711 0.21587,-0.86349 0.25189,-0.97856 0.10793,-0.43175 0.35971,-0.65476 0.6116,-0.65476 0.036,0 0.20149,0 0.34544,0.10794 z" style="stroke-width:7.19603"/>
        </g>
        <g clip-path="url(#clip_33)" id="g818" color="rgb(209, 209, 209)">
          <path id="use816" d="m 195.25184,98.770011 c 0.0275,-0.09609 0.0275,-0.109821 0.0275,-0.116737 0,-0.08928 -0.0755,-0.123653 -0.1511,-0.123653 -0.0275,0 -0.0343,0 -0.048,0.0069 l -0.886,0.04118 c -0.0961,0.0069 -0.21975,0.01373 -0.21975,0.206018 0,0.123653 0.12365,0.123653 0.17856,0.123653 0.0756,0 0.19921,0 0.28849,0.01373 l -0.98901,3.963598 c -0.007,0.0275 -0.0275,0.13046 -0.0275,0.15792 0,0.16483 0.13047,0.30902 0.32967,0.30902 0.0412,0 0.35021,0 0.44641,-0.38447 l 0.41204,-1.62751 c 0.0344,-0.13046 0.0344,-0.14419 0.13738,-0.28157 0.10982,-0.151 0.45322,-0.61795 1.02328,-0.61795 0.17856,0 0.34329,0.0686 0.34329,0.40512 0,0.39831 -0.30211,1.20174 -0.43257,1.53822 -0.0756,0.18538 -0.0962,0.23348 -0.0962,0.35021 0,0.39821 0.39831,0.61795 0.77608,0.61795 0.72798,0 1.07127,-0.93389 1.07127,-1.07117 0,-0.0962 -0.10301,-0.0962 -0.16473,-0.0962 -0.0825,0 -0.13057,0 -0.15802,0.0893 -0.21975,0.76224 -0.59741,0.83088 -0.70734,0.83088 -0.0481,0 -0.11674,0 -0.11674,-0.14419 0,-0.15111 0.0756,-0.33648 0.11674,-0.4463 0.13047,-0.33649 0.44641,-1.13991 0.44641,-1.5245 0,-0.63178 -0.52877,-0.79661 -1.02328,-0.79661 -0.15111,0 -0.57006,0 -1.03701,0.42587 z" style="stroke-width:6.86755"/>
        </g>
        <g clip-path="url(#clip_35)" id="g836" color="rgb(209, 209, 209)">
          <path transform="matrix(0.15048,0,0,-0.15048,131.73892,210.52242)" d="m 474.8133,519.5677 c 7.2207,-6.9379 7.2207,-18.1864 0,-25.1242 -7.2206,-6.9379 -18.9276,-6.9379 -26.1482,0 -7.2206,6.9378 -7.2206,18.1863 0,25.1242 7.2206,6.9379 18.9276,6.9379 26.1482,0 z m 0,0" fill="#ffffff" id="path820"/>
          <path transform="matrix(0.15048,0,0,0.15048,198.43912,131.55486)" stroke-width="3" stroke-linecap="butt" stroke-miterlimit="4" stroke-linejoin="miter" fill="none" stroke="#000000" d="m 31.56369,5.203402 c 7.22063,6.937868 7.22063,18.186378 0,25.124248 -7.22063,6.93786 -18.92758,6.93786 -26.148216,0 -7.220632,-6.93787 -7.220632,-18.18638 0,-25.124248 7.220636,-6.937869 18.927586,-6.937869 26.148216,0 z m 0,0" id="path822"/>
          <path transform="matrix(0.15048,0,0,-0.15048,131.73892,210.52242)" d="m 533.2294,519.5677 c 7.2206,-6.9379 7.2206,-18.1864 0,-25.1242 -7.2206,-6.9379 -18.9276,-6.9379 -26.1482,0 -7.2206,6.9378 -7.2206,18.1863 0,25.1242 7.2206,6.9379 18.9276,6.9379 26.1482,0 z m 0,0" fill="#ffffff" id="path824"/>
          <path transform="matrix(0.15048,0,0,0.15048,207.22959,131.55486)" stroke-width="3" stroke-linecap="butt" stroke-miterlimit="4" stroke-linejoin="miter" fill="none" stroke="#000000" d="m 31.56369,5.203402 c 7.22063,6.937868 7.22063,18.186378 0,25.124248 -7.22063,6.93786 -18.92758,6.93786 -26.148216,0 -7.220632,-6.93787 -7.220632,-18.18638 0,-25.124248 7.220636,-6.937869 18.927586,-6.937869 26.148216,0 z m 0,0" id="path826"/>
          <path transform="matrix(0.15048,0,0,-0.15048,131.73892,210.52242)" d="m 591.6455,519.5677 c 7.2206,-6.9379 7.2206,-18.1864 0,-25.1242 -7.2206,-6.9379 -18.9276,-6.9379 -26.1482,0 -7.2207,6.9378 -7.2207,18.1863 0,25.1242 7.2206,6.9379 18.9276,6.9379 26.1482,0 z m 0,0" fill="#ffffff" id="path828"/>
          <path transform="matrix(0.15048,0,0,0.15048,216.02002,131.55486)" stroke-width="3" stroke-linecap="butt" stroke-miterlimit="4" stroke-linejoin="miter" fill="none" stroke="#000000" d="m 31.56369,5.203402 c 7.22063,6.937868 7.22063,18.186378 0,25.124248 -7.22063,6.93786 -18.92758,6.93786 -26.148216,0 -7.220632,-6.93787 -7.220632,-18.18638 0,-25.124248 7.220636,-6.937869 18.927586,-6.937869 26.148216,0 z m 0,0" id="path830"/>
          <path transform="matrix(0.15048,0,0,-0.15048,131.73892,210.52242)" d="m 650.0615,520.5677 c 7.2206,-6.9379 7.2206,-18.1864 0,-25.1242 -7.2206,-6.9379 -18.9276,-6.9379 -26.1482,0 -7.2207,6.9378 -7.2207,18.1863 0,25.1242 7.2206,6.9379 18.9276,6.9379 26.1482,0 z m 0,0" fill="#ffffff" id="path832"/>
          <path transform="matrix(0.15048,0,0,0.15048,224.81047,131.40438)" stroke-width="3" stroke-linecap="butt" stroke-miterlimit="4" stroke-linejoin="miter" fill="none" stroke="#000000" d="m 31.56369,5.203402 c 7.22063,6.937868 7.22063,18.186378 0,25.124248 -7.22063,6.93786 -18.92758,6.93786 -26.148216,0 -7.220632,-6.93787 -7.220632,-18.18638 0,-25.124248 7.220636,-6.937869 18.927586,-6.937869 26.148216,0 z m 0,0" id="path834"/>
        </g>
        <g clip-path="url(#clip_36)" id="g842" color="rgb(209, 209, 209)">
          <path transform="matrix(0.15048,0,0,-0.15048,131.73892,210.52242)" d="m 413.6784,655.2509 h 234.6183 c 4.8145,0 7.7032,0 9.629,-0.804 2.7762,-1.0104 4.9632,-3.1974 5.9736,-5.9736 0.804,-1.9258 0.804,-4.8145 0.804,-9.629 v -38.7378 c 0,-4.8145 0,-7.7032 -0.804,-9.629 -1.0104,-2.7762 -3.1974,-4.9632 -5.9736,-5.9736 -1.9258,-0.804 -4.8145,-0.804 -9.629,-0.804 H 413.6784 c -4.8145,0 -7.7032,0 -9.629,0.804 -2.7763,1.0104 -4.9632,3.1974 -5.9736,5.9736 -0.804,1.9258 -0.804,4.8145 -0.804,9.629 v 38.7378 c 0,4.8145 0,7.7032 0.804,9.629 1.0104,2.7762 3.1973,4.9632 5.9736,5.9736 1.9258,0.804 4.8145,0.804 9.629,0.804 z m 0,0" fill="#a2d8f8" id="path838"/>
          <path transform="matrix(0.15048,0,0,0.15048,191.52039,111.92026)" stroke-width="3" stroke-linecap="butt" stroke-miterlimit="4" stroke-linejoin="miter" fill="none" stroke="#000000" d="M 16.40663,0 H 251.0249 c 4.8145,0 7.7032,0 9.629,0.8039981 2.7763,1.0104599 4.9632,3.1973919 5.9737,5.9736069 0.8039,1.925806 0.8039,4.814515 0.8039,9.629025 V 55.1444 c 0,4.81451 0,7.70322 -0.8039,9.62903 -1.0105,2.77621 -3.1974,4.96315 -5.9737,5.9736 -1.9258,0.804 -4.8145,0.804 -9.629,0.804 H 16.40663 c -4.81451,0 -7.703219,0 -9.629025,-0.804 C 4.00139,69.73658 1.814458,67.54964 0.8039981,64.77343 0,62.84762 0,59.95891 0,55.1444 V 16.40663 C 0,11.59212 0,8.703411 0.8039981,6.777605 1.814458,4.00139 4.00139,1.814458 6.777605,0.8039981 8.703411,0 11.59212,0 16.40663,0 Z m 0,0" id="path840"/>
        </g>
        <g clip-path="url(#clip_37)" id="g864" color="rgb(209, 209, 209)">
          <path id="use844" d="m 199.58399,117.42994 v -1.18151 h 0.8397 c 0.24376,0 0.42205,0.0504 0.53489,0.15107 0.11287,0.1007 0.16931,0.24727 0.16931,0.43968 0,0.19242 -0.0564,0.33974 -0.16931,0.44197 -0.11284,0.10217 -0.29113,0.15177 -0.53489,0.14879 h -0.8397 m -0.42887,-1.54301 v 3.22268 h 0.42887 v -1.31817 h 0.98415 c 0.32504,0.003 0.57107,-0.0797 0.73809,-0.24819 0.16703,-0.16849 0.25054,-0.40318 0.25054,-0.70407 0,-0.30088 -0.0835,-0.53481 -0.25054,-0.70179 -0.16702,-0.16697 -0.41305,-0.25046 -0.73809,-0.25046 z" style="stroke-width:4.5144"/>
          <path id="use846" d="m 202.08046,115.88693 v 3.22268 h 2.13527 v -0.3615 h -1.7064 v -2.86118 z" style="stroke-width:4.5144"/>
          <path id="use848" d="m 204.59947,115.88693 v 3.22268 h 0.40628 v -2.68104 h 0.009 l 1.00675,2.68104 h 0.36564 l 1.00674,-2.68104 h 0.009 v 2.68104 h 0.40628 v -3.22268 h -0.58689 l -1.02025,2.70811 -1.0157,-2.70811 z" style="stroke-width:4.5144"/>
          <path id="use850" d="M 208.17037,119.10961 Z" style="stroke-width:4.5144"/>
          <path id="use852" d="m 209.71427,116.77436 v 2.33525 h 0.38375 v -1.45394 c 0,-0.0452 0.0113,-0.10163 0.0338,-0.16932 0.0226,-0.0677 0.0587,-0.1332 0.10835,-0.19639 0.0497,-0.0632 0.1144,-0.11742 0.19412,-0.16256 0.0798,-0.0452 0.17533,-0.0678 0.28669,-0.0678 0.0873,0 0.15878,0.0128 0.21444,0.0384 0.0557,0.0256 0.10004,0.0617 0.13315,0.10836 0.0331,0.0466 0.0564,0.1016 0.07,0.16484 0.0136,0.0632 0.0203,0.13246 0.0203,0.20768 v 1.53075 h 0.38369 v -1.45394 c 0,-0.18061 0.0542,-0.32511 0.16249,-0.43349 0.10838,-0.10838 0.25736,-0.16257 0.44693,-0.16257 0.0933,0 0.16931,0.0135 0.228,0.0406 0.0587,0.0271 0.10459,0.064 0.1377,0.11063 0.0331,0.0466 0.0557,0.1016 0.0677,0.16484 0.012,0.0632 0.018,0.1309 0.018,0.20314 v 1.53074 h 0.38376 v -1.71191 c 0,-0.12046 -0.0188,-0.2236 -0.0564,-0.30943 -0.0376,-0.0858 -0.0903,-0.15584 -0.15802,-0.21003 -0.0677,-0.0542 -0.149,-0.0941 -0.24378,-0.11965 -0.0948,-0.0256 -0.20087,-0.0384 -0.31825,-0.0384 -0.15352,0 -0.29422,0.0346 -0.42212,0.10388 -0.12789,0.0692 -0.23097,0.16702 -0.30922,0.29345 -0.0482,-0.14448 -0.13095,-0.24681 -0.24833,-0.30702 -0.11733,-0.0602 -0.24823,-0.0903 -0.39271,-0.0903 -0.32807,0 -0.57938,0.13249 -0.75393,0.39747 h -0.009 v -0.34325 z" style="stroke-width:4.5144"/>
          <path id="use854" d="m 213.84501,117.94361 c 0,-0.14135 0.0188,-0.26689 0.0564,-0.37659 0.0376,-0.10976 0.0895,-0.20223 0.15575,-0.2774 0.0662,-0.0752 0.14372,-0.13231 0.23248,-0.17139 0.0888,-0.0391 0.18282,-0.0586 0.28215,-0.0586 0.0993,0 0.19339,0.0195 0.28215,0.0586 0.0888,0.0391 0.16627,0.0962 0.23249,0.17139 0.0662,0.0752 0.11814,0.16764 0.15575,0.2774 0.0376,0.1097 0.0564,0.23524 0.0564,0.37659 0,0.1413 -0.0188,0.26683 -0.0564,0.37659 -0.0376,0.10975 -0.0895,0.20146 -0.15575,0.27512 -0.0662,0.0737 -0.14372,0.13003 -0.23249,0.16911 -0.0888,0.0391 -0.18281,0.0586 -0.28215,0.0586 -0.0993,0 -0.19338,-0.0195 -0.28215,-0.0586 -0.0888,-0.0391 -0.16626,-0.0954 -0.23248,-0.16911 -0.0662,-0.0737 -0.11814,-0.16537 -0.15575,-0.27512 -0.0376,-0.10976 -0.0564,-0.23529 -0.0564,-0.37659 m -0.40635,6e-5 c 0,0.17153 0.0241,0.33104 0.0722,0.47854 0.0482,0.14746 0.12041,0.27614 0.21671,0.38603 0.0963,0.10985 0.21517,0.19563 0.35661,0.25735 0.14149,0.0617 0.30403,0.0925 0.48763,0.0925 0.18659,0 0.34984,-0.0308 0.48977,-0.0925 0.13997,-0.0617 0.25811,-0.1475 0.35441,-0.25735 0.0963,-0.10989 0.16852,-0.23857 0.21664,-0.38603 0.0482,-0.1475 0.0723,-0.30701 0.0723,-0.47854 0,-0.17156 -0.0241,-0.33183 -0.0723,-0.48081 -0.0481,-0.14902 -0.12034,-0.27845 -0.21664,-0.3883 -0.0963,-0.10985 -0.21444,-0.19636 -0.35441,-0.25955 -0.13993,-0.0632 -0.30318,-0.0949 -0.48977,-0.0949 -0.1836,0 -0.34614,0.0316 -0.48763,0.0949 -0.14144,0.0632 -0.26031,0.1497 -0.35661,0.25955 -0.0963,0.10985 -0.16854,0.23928 -0.21671,0.3883 -0.0481,0.14898 -0.0722,0.30925 -0.0722,0.48081 z" style="stroke-width:4.5144"/>
          <path id="use856" d="m 216.43627,117.96165 c 0,-0.11425 0.012,-0.2255 0.0361,-0.33374 0.0241,-0.10824 0.0632,-0.20445 0.11738,-0.28863 0.0542,-0.0842 0.12643,-0.15189 0.21671,-0.203 0.0903,-0.0511 0.20013,-0.0767 0.32954,-0.0767 0.1324,0 0.24526,0.0248 0.33857,0.0745 0.0933,0.0496 0.1693,0.11499 0.22794,0.19618 0.0587,0.0812 0.10158,0.1751 0.12867,0.28188 0.0271,0.10672 0.0407,0.21721 0.0407,0.33147 0,0.10824 -0.0128,0.21498 -0.0384,0.32024 -0.0256,0.10521 -0.067,0.19917 -0.12413,0.28187 -0.0572,0.0827 -0.13091,0.14955 -0.22119,0.20066 -0.0903,0.0511 -0.20013,0.0767 -0.32954,0.0767 -0.1234,0 -0.23099,-0.024 -0.32279,-0.0721 -0.0918,-0.0481 -0.16705,-0.11279 -0.22574,-0.19398 -0.0587,-0.0812 -0.10234,-0.17363 -0.13095,-0.27733 -0.0286,-0.10374 -0.0428,-0.20973 -0.0428,-0.31797 m 1.80573,1.14679 v -3.22151 h -0.38376 v 1.19893 h -0.009 c -0.0422,-0.0692 -0.0941,-0.12714 -0.15575,-0.1738 -0.0617,-0.0466 -0.12713,-0.0843 -0.19639,-0.11283 -0.0692,-0.0286 -0.13843,-0.0489 -0.20768,-0.061 -0.0692,-0.0121 -0.13391,-0.0181 -0.19412,-0.0181 -0.17754,0 -0.33328,0.0324 -0.46724,0.0971 -0.13391,0.0647 -0.24525,0.152 -0.33402,0.2619 -0.0888,0.10985 -0.15499,0.23852 -0.19866,0.38603 -0.0436,0.14745 -0.0654,0.30394 -0.0654,0.46944 0,0.16555 0.0226,0.32208 0.0677,0.46959 0.0451,0.14745 0.1121,0.27686 0.20087,0.38823 0.0888,0.11136 0.20018,0.20015 0.33409,0.26637 0.13391,0.0662 0.29117,0.0993 0.47179,0.0993 0.16252,0 0.31149,-0.0286 0.44692,-0.0857 0.13542,-0.0572 0.23473,-0.15044 0.29792,-0.27981 h 0.009 v 0.31584 z" style="stroke-width:4.5144"/>
          <path id="use858" d="m 220.76555,119.10851 v -2.33105 h -0.38375 v 1.31569 c 0,0.10512 -0.0143,0.202 -0.0429,0.29063 -0.0286,0.0886 -0.0714,0.16592 -0.12861,0.232 -0.0572,0.0661 -0.12865,0.11715 -0.21444,0.1532 -0.0858,0.0361 -0.18736,0.0541 -0.30474,0.0541 -0.14746,0 -0.26332,-0.042 -0.34759,-0.12613 -0.0843,-0.0841 -0.1264,-0.19829 -0.1264,-0.34249 v -1.57697 h -0.38376 v 1.53302 c 0,0.12625 0.0128,0.24121 0.0384,0.34491 0.0256,0.10369 0.07,0.19313 0.13315,0.2683 0.0632,0.0751 0.14601,0.13299 0.24833,0.17359 0.10232,0.0405 0.23023,0.0608 0.38375,0.0608 0.17153,0 0.32048,-0.0338 0.44686,-0.10139 0.12642,-0.0677 0.23028,-0.17361 0.31156,-0.3179 h 0.009 v 0.3697 z" style="stroke-width:4.5144"/>
          <path id="use860" d="m 221.36595,115.88693 v 3.22268 h 0.38376 v -3.22268 z" style="stroke-width:4.5144"/>
          <path id="use862" d="m 223.96627,117.7209 h -1.34076 c 0.006,-0.0906 0.0256,-0.1759 0.0587,-0.2559 0.0331,-0.08 0.0782,-0.15026 0.13542,-0.21065 0.0572,-0.0604 0.12565,-0.10794 0.20542,-0.14266 0.0798,-0.0347 0.16929,-0.0521 0.26857,-0.0521 0.0963,0 0.18434,0.0174 0.26411,0.0521 0.0798,0.0347 0.14899,0.0815 0.20768,0.14046 0.0587,0.0589 0.10533,0.12906 0.13991,0.21057 0.0346,0.0815 0.0549,0.16758 0.061,0.25818 m 0.37018,0.64807 h -0.3792 c -0.0331,0.15287 -0.10158,0.26679 -0.20542,0.34173 -0.10383,0.0749 -0.237,0.11235 -0.39953,0.11235 -0.12638,0 -0.23622,-0.0209 -0.32954,-0.0628 -0.0933,-0.0419 -0.17,-0.098 -0.23021,-0.16822 -0.0602,-0.0703 -0.10385,-0.15106 -0.13095,-0.24226 -0.0271,-0.0913 -0.0391,-0.18771 -0.0361,-0.28939 h 1.74705 c 0.006,-0.14185 -0.007,-0.29126 -0.0384,-0.44823 -0.0316,-0.15696 -0.0888,-0.30185 -0.17159,-0.43466 -0.0828,-0.1328 -0.1926,-0.24222 -0.32954,-0.32823 -0.13694,-0.0861 -0.30925,-0.12909 -0.51691,-0.12909 -0.15949,0 -0.30621,0.0301 -0.44017,0.0903 -0.13391,0.0602 -0.24977,0.1445 -0.34759,0.25287 -0.0978,0.10834 -0.17382,0.23625 -0.22801,0.38376 -0.0541,0.14746 -0.0812,0.30995 -0.0812,0.48749 0.006,0.17759 0.0324,0.34162 0.079,0.49211 0.0467,0.15049 0.11662,0.27992 0.20989,0.3883 0.0933,0.10833 0.20844,0.1926 0.34538,0.25281 0.13695,0.0602 0.29871,0.0903 0.48529,0.0903 0.26489,0 0.48461,-0.0661 0.65916,-0.19838 0.17455,-0.13231 0.28741,-0.32922 0.33856,-0.59075 z" style="stroke-width:4.5144"/>
        </g>
        <g clip-path="url(#clip_39)" id="g908" color="rgb(209, 209, 209)">
          <path transform="matrix(0.15048,0,0,-0.15048,131.73892,210.52242)" d="m 478.3003,736.8954 c 7.2207,-6.9379 7.2207,-18.1864 0,-25.1243 -7.2206,-6.9379 -18.9276,-6.9379 -26.1482,0 -7.2206,6.9379 -7.2206,18.1864 0,25.1243 7.2206,6.9378 18.9276,6.9378 26.1482,0 z m 0,0" fill="#ffffff" id="path866"/>
          <path transform="matrix(0.15048,0,0,0.15048,198.96384,98.85139)" stroke-width="3" stroke-linecap="butt" stroke-miterlimit="4" stroke-linejoin="miter" fill="none" stroke="#000000" d="m 31.56369,5.203402 c 7.22063,6.937868 7.22063,18.186378 0,25.124248 -7.22063,6.93786 -18.92758,6.93786 -26.148216,0 -7.220632,-6.93787 -7.220632,-18.18638 0,-25.124248 7.220636,-6.937869 18.927586,-6.937869 26.148216,0 z m 0,0" id="path868"/>
          <path transform="matrix(0.15048,0,0,-0.15048,131.73892,210.52242)" d="m 536.7164,736.8954 c 7.2206,-6.9379 7.2206,-18.1864 0,-25.1243 -7.2206,-6.9379 -18.9276,-6.9379 -26.1482,0 -7.2206,6.9379 -7.2206,18.1864 0,25.1243 7.2206,6.9378 18.9276,6.9378 26.1482,0 z m 0,0" fill="#ffffff" id="path870"/>
          <path transform="matrix(0.15048,0,0,0.15048,207.7543,98.85139)" stroke-width="3" stroke-linecap="butt" stroke-miterlimit="4" stroke-linejoin="miter" fill="none" stroke="#000000" d="m 31.56369,5.203402 c 7.22063,6.937868 7.22063,18.186378 0,25.124248 -7.22063,6.93786 -18.92758,6.93786 -26.148216,0 -7.220632,-6.93787 -7.220632,-18.18638 0,-25.124248 7.220636,-6.937869 18.927586,-6.937869 26.148216,0 z m 0,0" id="path872"/>
          <path transform="matrix(0.15048,0,0,-0.15048,131.73892,210.52242)" d="m 595.1325,736.8954 c 7.2206,-6.9379 7.2206,-18.1864 0,-25.1243 -7.2207,-6.9379 -18.9276,-6.9379 -26.1482,0 -7.2207,6.9379 -7.2207,18.1864 0,25.1243 7.2206,6.9378 18.9275,6.9378 26.1482,0 z m 0,0" fill="#ffffff" id="path874"/>
          <path transform="matrix(0.15048,0,0,0.15048,216.54476,98.85139)" stroke-width="3" stroke-linecap="butt" stroke-miterlimit="4" stroke-linejoin="miter" fill="none" stroke="#000000" d="m 31.56369,5.203402 c 7.22063,6.937868 7.22063,18.186378 0,25.124248 -7.22063,6.93786 -18.92758,6.93786 -26.148216,0 -7.220632,-6.93787 -7.220632,-18.18638 0,-25.124248 7.220636,-6.937869 18.927586,-6.937869 26.148216,0 z m 0,0" id="path876"/>
          <path transform="matrix(0.15048,0,0,-0.15048,131.73892,210.52242)" d="m 653.5485,737.8954 c 7.2206,-6.9379 7.2206,-18.1864 0,-25.1243 -7.2206,-6.9379 -18.9276,-6.9379 -26.1482,0 -7.2207,6.9379 -7.2207,18.1864 0,25.1243 7.2206,6.9378 18.9276,6.9378 26.1482,0 z m 0,0" fill="#ffffff" id="path878"/>
          <path transform="matrix(0.15048,0,0,0.15048,225.3352,98.700908)" stroke-width="3" stroke-linecap="butt" stroke-miterlimit="4" stroke-linejoin="miter" fill="none" stroke="#000000" d="m 31.56369,5.203402 c 7.22063,6.937868 7.22063,18.186378 0,25.124248 -7.22063,6.93786 -18.92758,6.93786 -26.148216,0 -7.220632,-6.93787 -7.220632,-18.18638 0,-25.124248 7.220636,-6.937869 18.927586,-6.937869 26.148216,0 z m 0,0" id="path880"/>
          <path transform="matrix(0.15048,0,0,0.15048,211.64192,122.9147)" stroke-width="3" stroke-linecap="butt" stroke-miterlimit="4" stroke-linejoin="miter" fill="none" stroke="#000000" d="M 6.665404e-6,48.72675 1.805648e-6,13.2 1.60046e-6,11.7" id="path882"/>
          <path transform="matrix(0.15048,0,0,-0.15048,131.73892,210.52242)" d="m 537.5875,568.9884 -6.6,13.2 -6.6,-13.2 z" id="path884"/>
          <path transform="matrix(0.15048,0,0,0.15048,211.64192,105.2506)" stroke-width="3" stroke-linecap="butt" stroke-miterlimit="4" stroke-linejoin="miter" fill="none" stroke="#000000" d="M 0,42.82251 4.279268e-6,13.2 l 2.1669e-7,-1.5" id="path886"/>
          <path transform="matrix(0.15048,0,0,-0.15048,131.73892,210.52242)" d="m 537.5875,686.3734 -6.6,13.2 -6.6,-13.2 z" id="path888"/>
          <path transform="matrix(0.15048,0,0,0.15048,211.64192,90.89673)" stroke-width="3" stroke-linecap="butt" stroke-miterlimit="4" stroke-linejoin="miter" fill="none" stroke="#000000" d="M 0,44.3248 C 0,33.94987 0,23.57493 0,13.2 v -1.5" id="path890"/>
          <path transform="matrix(0.15048,0,0,-0.15048,131.73892,210.52242)" d="m 537.5875,781.7607 -6.6,13.2 -6.6,-13.2 z" id="path892"/>
          <path transform="matrix(0.15048,0,0,-0.15048,131.73892,210.52242)" d="m 751.8774,684.487 -40.5652,57.0261 h 144.0969 l -47.4425,-57.0104 z m 0,0" fill="#ffe46d" id="path894"/>
          <path transform="matrix(0.15048,0,0,-0.15048,238.77719,107.52081)" stroke-width="3" stroke-linecap="butt" stroke-miterlimit="4" stroke-linejoin="miter" fill="none" stroke="#000000" d="M 40.56524,0 0,57.02613 H 144.0969 L 96.65436,0.01578622 Z m 0,0" id="path896"/>
          <path transform="matrix(0.15048,0,0,-0.15048,131.73892,210.52242)" d="m 751.8774,592.013 -40.5652,-57.0262 h 144.0969 l -47.4425,57.0104 z m 0,0" fill="#ffe46d" id="path898"/>
          <path transform="matrix(0.15048,0,0,0.15048,238.77719,121.4363)" stroke-width="3" stroke-linecap="butt" stroke-miterlimit="4" stroke-linejoin="miter" fill="none" stroke="#000000" d="M 40.56524,0 0,57.02613 H 144.0969 L 96.65436,0.01578622 Z m 0,0" id="path900"/>
          <path transform="matrix(0.15048,0,0,0.15048,187.81786,82.09941)" stroke-width="3" stroke-linecap="butt" stroke-miterlimit="4" stroke-linejoin="miter" fill="none" stroke="#000000" d="m 115.3463,0 h 265.135 c 33.8483,0 54.1573,0 67.6966,5.652482 19.5181,7.104008 34.8932,22.479158 41.9973,41.997248 5.6524,13.53932 5.6524,33.84829 5.6524,67.69657 V 280.651 c 0,33.8483 0,54.1573 -5.6524,67.6966 -7.1041,19.5181 -22.4792,34.8933 -41.9973,41.9973 -13.5393,5.6524 -33.8483,5.6524 -67.6966,5.6524 h -265.135 c -33.84828,0 -54.15725,0 -67.69657,-5.6524 C 28.13164,383.2409 12.75649,367.8657 5.652482,348.3476 0,334.8083 0,314.4993 0,280.651 V 115.3463 C 0,81.49802 0,61.18905 5.652482,47.64973 12.75649,28.13164 28.13164,12.75649 47.64973,5.652482 61.18905,0 81.49802,0 115.3463,0 Z m 0,0" id="path902"/>
          <path transform="matrix(0.15048,0,0,-0.15048,131.73892,210.52242)" d="m 722.3963,615.7159 h 132.83346 v 45.0682 H 722.3963 Z" fill="#ffe46d" id="path904"/>
          <path transform="matrix(0.15048,0,0,0.15048,240.44513,111.08762)" stroke-width="3" stroke-linecap="butt" stroke-miterlimit="4" stroke-linejoin="miter" fill="none" stroke="#000000" d="M 0,0 H 132.8334 V 45.06821 H 0 Z" id="path906"/>
        </g>
        <g clip-path="url(#clip_40)" id="g924" color="rgb(209, 209, 209)">
          <path id="use910" d="m 244.21189,114.03838 h 0.40628 c -0.006,-0.17754 -0.0399,-0.33025 -0.10161,-0.45815 -0.0617,-0.12794 -0.14594,-0.23407 -0.2528,-0.31838 -0.10682,-0.0844 -0.23095,-0.14613 -0.37239,-0.1853 -0.14144,-0.0392 -0.29494,-0.0588 -0.46049,-0.0588 -0.14746,0 -0.29118,0.0188 -0.43115,0.0564 -0.13993,0.0376 -0.26481,0.0948 -0.37466,0.17159 -0.1098,0.0767 -0.19781,0.17455 -0.26403,0.29345 -0.0662,0.11885 -0.0993,0.25951 -0.0993,0.42198 0,0.14746 0.0293,0.2701 0.088,0.36791 0.0587,0.0978 0.13694,0.17759 0.23476,0.23931 0.0978,0.0617 0.20842,0.11131 0.33181,0.14893 0.1234,0.0376 0.24904,0.0707 0.37694,0.0993 0.12789,0.0286 0.25354,0.0564 0.37693,0.0835 0.1234,0.0271 0.234,0.0625 0.33182,0.10609 0.0978,0.0436 0.17607,0.10006 0.23476,0.16931 0.0587,0.0692 0.088,0.15949 0.088,0.27086 0,0.11738 -0.0241,0.21368 -0.0723,0.2889 -0.0481,0.0752 -0.11132,0.13467 -0.18957,0.17834 -0.0782,0.0436 -0.16629,0.0745 -0.2641,0.0925 -0.0978,0.018 -0.19488,0.0271 -0.29118,0.0271 -0.12041,0 -0.23781,-0.015 -0.3522,-0.0451 -0.11435,-0.0301 -0.21441,-0.0767 -0.3002,-0.1399 -0.0857,-0.0632 -0.15494,-0.14376 -0.20762,-0.24158 -0.0527,-0.0978 -0.079,-0.21444 -0.079,-0.34986 h -0.40628 c 0,0.19563 0.0354,0.36492 0.10609,0.50788 0.0707,0.14296 0.16702,0.26038 0.2889,0.35228 0.12188,0.0918 0.26332,0.16036 0.42432,0.20555 0.16106,0.0452 0.33187,0.0679 0.51243,0.0679 0.14746,0 0.29568,-0.0173 0.44465,-0.0519 0.14898,-0.0346 0.28364,-0.0902 0.40401,-0.16698 0.12041,-0.0768 0.21898,-0.17611 0.29572,-0.29799 0.0767,-0.12188 0.1151,-0.26858 0.1151,-0.4401 0,-0.15954 -0.0293,-0.29196 -0.088,-0.39726 -0.0587,-0.10534 -0.13694,-0.19262 -0.23476,-0.26183 -0.0978,-0.0692 -0.20842,-0.12417 -0.33181,-0.16477 -0.12335,-0.0406 -0.249,-0.076 -0.37694,-0.10608 -0.12789,-0.0301 -0.25354,-0.058 -0.37693,-0.0836 -0.12335,-0.0256 -0.23393,-0.0579 -0.33175,-0.097 -0.0978,-0.0391 -0.17607,-0.0895 -0.23476,-0.1512 -0.0587,-0.0617 -0.088,-0.14225 -0.088,-0.24158 0,-0.1053 0.0203,-0.19331 0.0609,-0.26404 0.0406,-0.0708 0.0948,-0.1272 0.1625,-0.16931 0.0677,-0.0422 0.14523,-0.0723 0.23249,-0.0903 0.0873,-0.0181 0.17609,-0.0271 0.26637,-0.0271 0.22273,0 0.40557,0.0519 0.54853,0.15574 0.14295,0.10384 0.22646,0.27162 0.25053,0.50334 z" style="stroke-width:4.5144"/>
          <path id="use912" d="m 245.48952,115.15383 c 0,-0.14135 0.0188,-0.26689 0.0564,-0.37659 0.0376,-0.10976 0.0895,-0.20223 0.15575,-0.2774 0.0662,-0.0752 0.14372,-0.13231 0.23248,-0.17139 0.0888,-0.0391 0.18282,-0.0586 0.28215,-0.0586 0.0993,0 0.19339,0.0195 0.28215,0.0586 0.0888,0.0391 0.16627,0.0962 0.23249,0.17139 0.0662,0.0752 0.11814,0.16764 0.15575,0.2774 0.0376,0.1097 0.0564,0.23524 0.0564,0.37659 0,0.1413 -0.0188,0.26683 -0.0564,0.37659 -0.0376,0.10975 -0.0895,0.20146 -0.15575,0.27512 -0.0662,0.0737 -0.14372,0.13003 -0.23249,0.16911 -0.0888,0.0391 -0.18281,0.0586 -0.28215,0.0586 -0.0993,0 -0.19338,-0.0195 -0.28215,-0.0586 -0.0888,-0.0391 -0.16626,-0.0954 -0.23248,-0.16911 -0.0662,-0.0737 -0.11814,-0.16537 -0.15575,-0.27512 -0.0376,-0.10976 -0.0564,-0.23529 -0.0564,-0.37659 m -0.40635,6e-5 c 0,0.17153 0.0241,0.33104 0.0722,0.47854 0.0482,0.14746 0.12041,0.27614 0.21671,0.38603 0.0963,0.10985 0.21517,0.19563 0.35661,0.25735 0.14149,0.0617 0.30403,0.0925 0.48763,0.0925 0.18659,0 0.34984,-0.0308 0.48977,-0.0925 0.13997,-0.0617 0.25811,-0.1475 0.35441,-0.25735 0.0963,-0.10989 0.16852,-0.23857 0.21664,-0.38603 0.0482,-0.1475 0.0723,-0.30701 0.0723,-0.47854 0,-0.17156 -0.0241,-0.33183 -0.0723,-0.48081 -0.0481,-0.14902 -0.12034,-0.27845 -0.21664,-0.3883 -0.0963,-0.10985 -0.21444,-0.19636 -0.35441,-0.25955 -0.13993,-0.0632 -0.30318,-0.0949 -0.48977,-0.0949 -0.1836,0 -0.34614,0.0316 -0.48763,0.0949 -0.14144,0.0632 -0.26031,0.1497 -0.35661,0.25955 -0.0963,0.10985 -0.16854,0.23928 -0.21671,0.3883 -0.0481,0.14898 -0.0722,0.30925 -0.0722,0.48081 z" style="stroke-width:4.5144"/>
          <path id="use914" d="m 247.95886,114.32274 v 1.99709 h 0.38376 v -1.99709 h 0.45139 v -0.33946 h -0.45139 v -0.32231 c 0,-0.10145 0.0256,-0.17008 0.0767,-0.2059 0.0512,-0.0358 0.1234,-0.0537 0.21671,-0.0537 0.0331,0 0.0692,0.002 0.10829,0.007 0.0391,0.005 0.0752,0.0128 0.10835,0.0248 v -0.33485 c -0.0361,-0.0121 -0.0775,-0.0211 -0.12413,-0.0271 -0.0466,-0.006 -0.088,-0.009 -0.12413,-0.009 -0.21069,0 -0.37096,0.0487 -0.48081,0.1461 -0.10985,0.0974 -0.16477,0.24043 -0.16477,0.42922 v 0.34608 h -0.39278 v 0.33946 z" style="stroke-width:4.5144"/>
          <path id="use916" d="m 249.66984,113.98328 v -0.69656 h -0.38375 v 0.69656 h -0.39726 v 0.33946 h 0.39726 v 1.48652 c 0,0.10842 0.0105,0.19577 0.0316,0.26204 0.0211,0.0663 0.0534,0.11749 0.097,0.15368 0.0436,0.0361 0.1008,0.061 0.17153,0.0745 0.0707,0.0135 0.15574,0.0203 0.25507,0.0203 h 0.29345 v -0.33946 h -0.17607 c -0.0602,0 -0.10911,-0.002 -0.14672,-0.007 -0.0376,-0.005 -0.067,-0.0143 -0.088,-0.0293 -0.021,-0.0151 -0.0353,-0.0361 -0.0428,-0.0632 -0.008,-0.0271 -0.0113,-0.0633 -0.0113,-0.10843 v -1.44987 h 0.46497 v -0.33946 z" style="stroke-width:4.5144"/>
          <path id="use918" d="m 250.55914,113.98458 v 2.33525 h 0.38375 v -1.45394 c 0,-0.0452 0.0113,-0.10163 0.0338,-0.16932 0.0226,-0.0677 0.0587,-0.1332 0.10835,-0.19639 0.0497,-0.0632 0.1144,-0.11742 0.19412,-0.16256 0.0798,-0.0452 0.17533,-0.0678 0.28669,-0.0678 0.0873,0 0.15878,0.0128 0.21444,0.0384 0.0557,0.0256 0.10004,0.0617 0.13315,0.10836 0.0331,0.0466 0.0564,0.1016 0.07,0.16484 0.0135,0.0632 0.0203,0.13246 0.0203,0.20768 v 1.53075 h 0.38369 v -1.45394 c 0,-0.18061 0.0542,-0.32511 0.16249,-0.43349 0.10838,-0.10838 0.25736,-0.16257 0.44693,-0.16257 0.0933,0 0.16931,0.0135 0.228,0.0406 0.0587,0.0271 0.10459,0.064 0.1377,0.11063 0.0331,0.0466 0.0557,0.1016 0.0677,0.16484 0.012,0.0632 0.018,0.1309 0.018,0.20314 v 1.53074 h 0.38376 v -1.71191 c 0,-0.12046 -0.0188,-0.2236 -0.0564,-0.30943 -0.0376,-0.0858 -0.0903,-0.15584 -0.15802,-0.21003 -0.0677,-0.0542 -0.149,-0.0941 -0.24378,-0.11965 -0.0948,-0.0256 -0.20087,-0.0384 -0.31825,-0.0384 -0.15352,0 -0.29422,0.0346 -0.42212,0.10388 -0.12789,0.0692 -0.23097,0.16702 -0.30922,0.29345 -0.0482,-0.14448 -0.13095,-0.24681 -0.24833,-0.30702 -0.11733,-0.0602 -0.24823,-0.0903 -0.39271,-0.0903 -0.32807,0 -0.57938,0.13249 -0.75393,0.39747 h -0.009 v -0.34325 z" style="stroke-width:4.5144"/>
          <path id="use920" d="m 256.47753,116.30964 c -0.0662,0.0391 -0.15802,0.0587 -0.2754,0.0587 -0.0993,0 -0.17827,-0.0278 -0.23696,-0.0835 -0.0587,-0.0557 -0.088,-0.14677 -0.088,-0.2732 -0.10535,0.12643 -0.22801,0.21749 -0.36798,0.2732 -0.13993,0.0557 -0.29115,0.0835 -0.45368,0.0835 -0.10534,0 -0.20543,-0.012 -0.30026,-0.0361 -0.0948,-0.0241 -0.17678,-0.0617 -0.24599,-0.11283 -0.0692,-0.0512 -0.12413,-0.11809 -0.16477,-0.2008 -0.0406,-0.0828 -0.061,-0.1828 -0.061,-0.30013 0,-0.1324 0.0226,-0.2407 0.0677,-0.32493 0.0451,-0.0842 0.10457,-0.15264 0.17827,-0.20527 0.0738,-0.0527 0.15802,-0.0926 0.25281,-0.11965 0.0948,-0.0271 0.19191,-0.0497 0.29124,-0.0677 0.10535,-0.021 0.20541,-0.0368 0.3002,-0.0473 0.0948,-0.0106 0.17829,-0.0256 0.25053,-0.0452 0.0722,-0.0196 0.12941,-0.0481 0.17152,-0.0857 0.0422,-0.0376 0.0632,-0.0925 0.0632,-0.16477 0,-0.0842 -0.0158,-0.15191 -0.0474,-0.20307 -0.0316,-0.0512 -0.0722,-0.0903 -0.12193,-0.11731 -0.0496,-0.0271 -0.10532,-0.0451 -0.16704,-0.0541 -0.0617,-0.009 -0.12259,-0.0136 -0.18275,-0.0136 -0.16252,0 -0.29795,0.0307 -0.40628,0.0922 -0.10833,0.0615 -0.16702,0.1777 -0.17607,0.34862 h -0.38375 c 0.006,-0.14433 0.0361,-0.26612 0.0902,-0.36536 0.0542,-0.0992 0.12643,-0.17967 0.21671,-0.2413 0.0903,-0.0616 0.19336,-0.10597 0.30923,-0.13302 0.1159,-0.0271 0.24006,-0.0406 0.37245,-0.0406 0.10535,0 0.20994,0.008 0.31377,0.0226 0.10383,0.015 0.19788,0.0459 0.28215,0.0925 0.0843,0.0466 0.15198,0.11205 0.20314,0.19632 0.0512,0.0842 0.0767,0.19402 0.0767,0.3294 v 1.20031 c 0,0.0903 0.005,0.15648 0.0158,0.19859 0.0106,0.0421 0.046,0.0632 0.10615,0.0632 0.0331,0 0.0722,-0.007 0.11738,-0.0216 v 0.298 m -0.62299,-1.19639 c -0.0482,0.0361 -0.11138,0.0624 -0.18964,0.0789 -0.0782,0.0165 -0.1602,0.0301 -0.24598,0.0406 -0.0858,0.0105 -0.17233,0.0225 -0.25963,0.0361 -0.0873,0.0135 -0.16548,0.0353 -0.23469,0.0654 -0.0692,0.0301 -0.12564,0.0729 -0.16931,0.12854 -0.0436,0.0556 -0.0654,0.13152 -0.0654,0.22773 0,0.0631 0.0128,0.11653 0.0384,0.16016 0.0256,0.0436 0.0587,0.0789 0.0993,0.10594 0.0406,0.0271 0.088,0.0466 0.14217,0.0586 0.0542,0.012 0.11137,0.0181 0.17152,0.0181 0.12643,0 0.23478,-0.0173 0.32507,-0.0519 0.0903,-0.0346 0.16401,-0.0782 0.22119,-0.13074 0.0572,-0.0526 0.0993,-0.10976 0.1264,-0.17138 0.0271,-0.0617 0.0406,-0.11957 0.0406,-0.17366 z" style="stroke-width:4.5144"/>
          <path id="use922" d="m 257.46168,115.09286 -0.8758,1.22697 h 0.46497 l 0.65006,-0.96534 0.65006,0.96534 h 0.49211 l -0.90286,-1.25852 0.80353,-1.07363 h -0.46049 l -0.58235,0.81649 -0.55975,-0.81649 h -0.49211 z" style="stroke-width:4.5144"/>
        </g>
        <g clip-path="url(#clip_41)" id="g930" color="rgb(209, 209, 209)">
          <path transform="matrix(0.15048,0,0,-0.15048,131.73892,210.52242)" d="M 429.1232,796.4527 H 632.852 v 45.72677 H 429.1232 Z" fill="#ffe46d" id="path926"/>
          <path transform="matrix(0.15048,0,0,0.15048,196.31339,83.791248)" stroke-width="3" stroke-linecap="butt" stroke-miterlimit="4" stroke-linejoin="miter" fill="none" stroke="#000000" d="M 0,0 H 203.7288 V 45.72675 H 0 Z" id="path928"/>
        </g>
        <g clip-path="url(#clip_42)" id="g956" color="rgb(209, 209, 209)">
          <path id="use932" d="m 200.8999,88.620475 0.1129,0.40132 h 0.27085 v -1.695656 h -1.41302 v 0.361505 h 1.02927 c 0.006,0.147091 -0.0136,0.284446 -0.0587,0.412066 -0.0451,0.127574 -0.11212,0.238661 -0.20093,0.333262 -0.0888,0.09455 -0.19786,0.168858 -0.32727,0.222909 -0.12941,0.05401 -0.27839,0.08101 -0.44692,0.08101 -0.18057,0 -0.33933,-0.03536 -0.47627,-0.106081 -0.13694,-0.07072 -0.25207,-0.165506 -0.34539,-0.284355 -0.0933,-0.118848 -0.16399,-0.255744 -0.21216,-0.410688 -0.0481,-0.154989 -0.0722,-0.31673 -0.0722,-0.485221 0,-0.171522 0.0211,-0.339278 0.0632,-0.503268 0.0421,-0.163991 0.10762,-0.309934 0.19639,-0.437829 0.0888,-0.127895 0.20318,-0.230946 0.34311,-0.309152 0.13997,-0.07825 0.30775,-0.117379 0.50333,-0.117379 0.12041,0 0.23403,0.01431 0.34084,0.04291 0.10687,0.02856 0.20243,0.07146 0.2867,0.128676 0.0843,0.05717 0.15499,0.130145 0.21216,0.218914 0.0572,0.08877 0.0963,0.194851 0.11738,0.318245 h 0.42888 c -0.0301,-0.189615 -0.0865,-0.351378 -0.16932,-0.485289 -0.0828,-0.133912 -0.18507,-0.24454 -0.30695,-0.331885 -0.12188,-0.08739 -0.26034,-0.151408 -0.41537,-0.192049 -0.15499,-0.04069 -0.31976,-0.06103 -0.49432,-0.06103 -0.25579,0 -0.47925,0.04742 -0.67038,0.142246 -0.19108,0.09479 -0.35059,0.221946 -0.47854,0.381482 -0.12789,0.159536 -0.22419,0.345409 -0.2889,0.557619 -0.0647,0.212163 -0.097,0.435624 -0.097,0.670381 0,0.210694 0.0346,0.41388 0.1038,0.609557 0.0693,0.195632 0.17008,0.368692 0.30248,0.519181 0.13244,0.150489 0.29344,0.270141 0.48301,0.358956 0.18962,0.08877 0.40481,0.133154 0.64559,0.133154 0.18961,0 0.37771,-0.03683 0.5643,-0.110491 0.18658,-0.07366 0.34309,-0.194667 0.46951,-0.36302 z" style="stroke-width:4.5144"/>
          <path id="use934" d="m 203.92005,89.013253 c -0.0662,0.03913 -0.15802,0.05869 -0.2754,0.05869 -0.0993,0 -0.17827,-0.02783 -0.23696,-0.08349 -0.0587,-0.05571 -0.088,-0.14677 -0.088,-0.273195 -0.10535,0.126425 -0.22801,0.21749 -0.36798,0.273195 -0.13993,0.05566 -0.29115,0.08349 -0.45368,0.08349 -0.10534,0 -0.20543,-0.01203 -0.30026,-0.0361 -0.0948,-0.02406 -0.17678,-0.06167 -0.24599,-0.112832 -0.0692,-0.05116 -0.12413,-0.118091 -0.16477,-0.200798 -0.0406,-0.08275 -0.061,-0.182796 -0.061,-0.300129 0,-0.132395 0.0226,-0.240704 0.0677,-0.324927 0.0451,-0.08422 0.10457,-0.152648 0.17827,-0.205275 0.0738,-0.05267 0.15802,-0.09256 0.25281,-0.119652 0.0948,-0.0271 0.19191,-0.04967 0.29124,-0.06771 0.10535,-0.02103 0.20541,-0.03681 0.3002,-0.04732 0.0948,-0.01056 0.17829,-0.02562 0.25053,-0.04519 0.0722,-0.01956 0.12941,-0.04813 0.17152,-0.08569 0.0422,-0.03761 0.0632,-0.09254 0.0632,-0.164771 0,-0.08422 -0.0158,-0.151913 -0.0474,-0.203071 -0.0316,-0.05116 -0.0722,-0.09026 -0.12193,-0.11731 -0.0496,-0.0271 -0.10532,-0.04514 -0.16704,-0.05414 -0.0617,-0.009 -0.12259,-0.01357 -0.18275,-0.01357 -0.16252,0 -0.29795,0.03075 -0.40628,0.09224 -0.10833,0.06149 -0.16702,0.177699 -0.17607,0.348623 h -0.38375 c 0.006,-0.144336 0.0361,-0.266123 0.0902,-0.365362 0.0542,-0.09924 0.12643,-0.179673 0.21671,-0.241301 0.0903,-0.06163 0.19336,-0.105967 0.30923,-0.133016 0.1159,-0.0271 0.24006,-0.04064 0.37245,-0.04064 0.10535,0 0.20994,0.0075 0.31377,0.02259 0.10383,0.01502 0.19788,0.04585 0.28215,0.09251 0.0843,0.04661 0.15198,0.112052 0.20314,0.19632 0.0512,0.08422 0.0767,0.194024 0.0767,0.329405 v 1.200309 c 0,0.09029 0.005,0.156482 0.0158,0.198594 0.0106,0.04211 0.046,0.06317 0.10615,0.06317 0.0331,0 0.0722,-0.0072 0.11738,-0.02163 v 0.297993 m -0.62299,-1.196382 c -0.0482,0.0361 -0.11138,0.06241 -0.18964,0.07894 -0.0782,0.01653 -0.1602,0.03006 -0.24598,0.04057 -0.0858,0.01052 -0.17233,0.02255 -0.25963,0.0361 -0.0873,0.0135 -0.16548,0.03529 -0.23469,0.06537 -0.0692,0.03008 -0.12564,0.07292 -0.16931,0.128538 -0.0436,0.05561 -0.0654,0.131523 -0.0654,0.227731 0,0.06314 0.0128,0.11653 0.0384,0.160156 0.0256,0.04358 0.0587,0.0789 0.0993,0.105944 0.0406,0.02705 0.088,0.04659 0.14217,0.05862 0.0542,0.01203 0.11137,0.01805 0.17152,0.01805 0.12643,0 0.23478,-0.01729 0.32507,-0.05187 0.0903,-0.03458 0.16401,-0.07816 0.22119,-0.130743 0.0572,-0.05263 0.0993,-0.109755 0.1264,-0.171384 0.0271,-0.06167 0.0406,-0.11956 0.0406,-0.173657 z" style="stroke-width:4.5144"/>
          <path id="use936" d="m 204.8094,86.686893 v -0.696558 h -0.38375 v 0.696558 h -0.39726 v 0.339462 h 0.39726 v 1.486523 c 0,0.108424 0.0105,0.195769 0.0316,0.262036 0.0211,0.06627 0.0534,0.117493 0.097,0.15368 0.0436,0.03614 0.1008,0.06099 0.17153,0.07453 0.0707,0.01355 0.15574,0.02032 0.25507,0.02032 h 0.29345 v -0.339462 h -0.17607 c -0.0602,0 -0.10911,-0.0023 -0.14672,-0.0068 -0.0376,-0.0045 -0.067,-0.01433 -0.088,-0.02934 -0.021,-0.01506 -0.0353,-0.03614 -0.0428,-0.06324 -0.008,-0.02714 -0.0113,-0.06328 -0.0113,-0.108424 v -1.449876 h 0.46497 V 86.68684 Z" style="stroke-width:4.5144"/>
          <path id="use938" d="m 206.10504,86.272486 v -0.47172 h -0.38376 v 0.47172 h 0.38376 m -0.38376,0.417025 v 2.333937 h 0.38376 v -2.333937 z" style="stroke-width:4.5144"/>
          <path id="use940" d="m 206.70089,86.688202 v 2.335246 h 0.38375 v -1.318514 c 0,-0.105347 0.0143,-0.202428 0.0428,-0.291243 0.0286,-0.08881 0.0715,-0.166333 0.12868,-0.232553 0.0572,-0.06622 0.12865,-0.117379 0.21443,-0.153475 0.0858,-0.03614 0.18737,-0.05421 0.30475,-0.05421 0.14746,0 0.26332,0.04216 0.34759,0.126472 0.0843,0.08427 0.1264,0.198639 0.1264,0.343112 v 1.580413 h 0.38375 v -1.535775 c 0,-0.126471 -0.0128,-0.241646 -0.0384,-0.345524 -0.0256,-0.103877 -0.07,-0.19345 -0.13323,-0.268717 -0.0632,-0.07531 -0.14594,-0.134049 -0.24825,-0.176206 -0.10232,-0.04215 -0.23024,-0.06324 -0.38376,-0.06324 -0.34612,0 -0.59892,0.141534 -0.75841,0.424603 h -0.009 V 86.6882 Z" style="stroke-width:4.5144"/>
          <path id="use942" d="m 211.2243,88.824304 v -2.136102 h -0.36116 v 0.334158 h -0.004 c -0.0692,-0.129457 -0.1655,-0.226538 -0.2889,-0.291243 -0.12339,-0.06475 -0.25884,-0.09713 -0.40635,-0.09713 -0.20165,0 -0.3717,0.03839 -0.51015,0.115175 -0.13842,0.07674 -0.24976,0.174576 -0.33402,0.293516 -0.0843,0.11894 -0.14448,0.251427 -0.18062,0.397462 -0.0361,0.145989 -0.0541,0.288212 -0.0541,0.426669 0,0.159582 0.0218,0.310875 0.0654,0.453879 0.0437,0.143003 0.10913,0.267959 0.19639,0.374868 0.0873,0.106862 0.19565,0.191911 0.32506,0.255147 0.12941,0.06319 0.28139,0.09479 0.45595,0.09479 0.15044,0 0.29262,-0.03384 0.42653,-0.101535 0.13396,-0.06774 0.23404,-0.173841 0.30027,-0.318315 h 0.009 v 0.153474 c 0,0.129411 -0.0128,0.248213 -0.0384,0.356408 -0.0256,0.108194 -0.0669,0.200591 -0.12413,0.27719 -0.0572,0.0766 -0.12941,0.136666 -0.21671,0.180201 -0.0872,0.04358 -0.19409,0.06537 -0.32052,0.06537 -0.0632,0 -0.12938,-0.0068 -0.19859,-0.02032 -0.0692,-0.01355 -0.13315,-0.03538 -0.19184,-0.06551 -0.0587,-0.03008 -0.10836,-0.0692 -0.149,-0.117379 -0.0406,-0.04813 -0.0624,-0.106793 -0.0654,-0.175999 h -0.38375 c 0.006,0.12638 0.0391,0.233265 0.0993,0.320656 0.0602,0.08744 0.1362,0.158388 0.228,0.212853 0.0918,0.05446 0.19412,0.0938 0.30695,0.117999 0.11288,0.0242 0.22351,0.0363 0.33189,0.0363 0.37317,0 0.64703,-0.09485 0.82158,-0.284561 0.17455,-0.189661 0.26183,-0.475669 0.26183,-0.858023 m -1.07439,-0.113865 c -0.12642,0 -0.23177,-0.02631 -0.31604,-0.07894 -0.0842,-0.05263 -0.15194,-0.12181 -0.20314,-0.207548 -0.0512,-0.08574 -0.0873,-0.181235 -0.10835,-0.28649 -0.021,-0.105255 -0.0316,-0.210533 -0.0316,-0.315834 0,-0.111271 0.0128,-0.218042 0.0384,-0.320312 0.0256,-0.10227 0.0662,-0.192509 0.12186,-0.270715 0.0557,-0.07821 0.12718,-0.140616 0.21443,-0.187228 0.0873,-0.04661 0.19265,-0.06992 0.31605,-0.06992 0.12036,0 0.22268,0.02406 0.30694,0.07219 0.0843,0.04813 0.15272,0.112052 0.20535,0.191774 0.0527,0.07968 0.091,0.169157 0.1151,0.268442 0.0241,0.09924 0.0362,0.199994 0.0362,0.302265 0,0.108286 -0.0128,0.216572 -0.0384,0.324858 -0.0256,0.10824 -0.0655,0.205229 -0.11965,0.290967 -0.0541,0.08574 -0.12562,0.154921 -0.21444,0.207548 -0.0888,0.05263 -0.19634,0.07894 -0.32272,0.07894 z" style="stroke-width:4.5144"/>
          <path id="use944" d="M 211.51326,89.023448 Z" style="stroke-width:4.5144"/>
          <path id="use946" d="m 214.00968,87.043163 c -0.0361,-0.04514 -0.0722,-0.09029 -0.10835,-0.135427 -0.0361,-0.04514 -0.0692,-0.09104 -0.0993,-0.137699 -0.0301,-0.04666 -0.0549,-0.09405 -0.0745,-0.142177 -0.0196,-0.04817 -0.0293,-0.09635 -0.0293,-0.14452 0,-0.117378 0.0391,-0.203897 0.11738,-0.259556 0.0782,-0.0557 0.16252,-0.08356 0.2528,-0.08356 0.11435,0 0.20464,0.03387 0.27086,0.101604 0.0662,0.06774 0.0993,0.148239 0.0993,0.241508 0,0.06925 -0.0136,0.131707 -0.0406,0.187365 -0.0271,0.05566 -0.0617,0.106059 -0.10387,0.151202 -0.0421,0.04514 -0.0888,0.08578 -0.13991,0.121925 -0.0512,0.0361 -0.0993,0.06921 -0.14445,0.09933 m 0.82613,1.577174 0.34311,0.401802 h 0.50114 l -0.62754,-0.726385 c 0.0331,-0.07219 0.0617,-0.136092 0.0858,-0.191704 0.0241,-0.05566 0.0444,-0.112052 0.061,-0.16918 0.0166,-0.05717 0.0301,-0.119607 0.0406,-0.187297 0.0105,-0.06769 0.0203,-0.149662 0.0293,-0.245917 h -0.36564 c -0.009,0.16546 -0.0437,0.332413 -0.10387,0.500858 l -0.58235,-0.708337 c 0.0783,-0.04514 0.1535,-0.09552 0.22573,-0.151132 0.0722,-0.05566 0.13694,-0.118068 0.19412,-0.187228 0.0572,-0.06921 0.10231,-0.145162 0.13542,-0.227869 0.0331,-0.08271 0.0497,-0.172188 0.0497,-0.268442 0,-0.108286 -0.0218,-0.203783 -0.0655,-0.28649 -0.0436,-0.08275 -0.10156,-0.151936 -0.17379,-0.207548 -0.0722,-0.05566 -0.1557,-0.09701 -0.25054,-0.124061 -0.0948,-0.0271 -0.19184,-0.04064 -0.29117,-0.04064 -0.11738,0 -0.22121,0.01805 -0.31149,0.05414 -0.0903,0.0361 -0.16629,0.08498 -0.22801,0.146657 -0.0617,0.06167 -0.10831,0.132372 -0.13991,0.212094 -0.0316,0.07968 -0.0474,0.163141 -0.0474,0.250395 0,0.08119 0.01,0.15414 0.0293,0.218845 0.0196,0.06466 0.0466,0.126311 0.0812,0.184954 0.0346,0.05864 0.073,0.116553 0.11511,0.173727 0.0422,0.05713 0.0858,0.117286 0.13095,0.180476 -0.10232,0.05414 -0.19938,0.112052 -0.29118,0.173727 -0.0918,0.06163 -0.17157,0.130811 -0.2393,0.207548 -0.0677,0.07669 -0.12186,0.163164 -0.1625,0.259418 -0.0406,0.09625 -0.0609,0.207548 -0.0609,0.333882 0,0.06618 0.0113,0.148905 0.0338,0.24819 0.0226,0.09924 0.07,0.195494 0.14224,0.288763 0.0722,0.09322 0.17456,0.172922 0.30695,0.239097 0.13244,0.06618 0.307,0.09926 0.52366,0.09926 0.17759,0 0.34989,-0.03763 0.51691,-0.112902 0.16702,-0.07531 0.29868,-0.188215 0.39498,-0.338704 m -0.95253,-1.156498 0.74037,0.889365 c -0.0782,0.117379 -0.17531,0.210671 -0.29118,0.279877 -0.11586,0.06921 -0.24752,0.103808 -0.39498,0.103808 -0.0782,0 -0.15425,-0.01352 -0.22801,-0.04057 -0.0737,-0.02709 -0.13916,-0.06397 -0.19638,-0.110628 -0.0572,-0.04666 -0.10308,-0.103832 -0.1377,-0.171522 -0.0346,-0.06774 -0.0519,-0.142246 -0.0519,-0.22353 0,-0.0963 0.015,-0.179811 0.0451,-0.250532 0.0301,-0.07072 0.0708,-0.134669 0.12193,-0.191843 0.0512,-0.05717 0.11058,-0.108332 0.17827,-0.153474 0.0677,-0.04514 0.13922,-0.08879 0.21444,-0.130949 z" style="stroke-width:4.5144"/>
          <path id="use948" d="M 215.61234,89.023448 Z" style="stroke-width:4.5144"/>
          <path id="use950" d="m 217.77475,87.692053 0.54625,-1.503124 h 0.009 l 0.53716,1.503124 h -1.09244 m 0.32052,-1.891287 -1.255,3.222682 h 0.4379 l 0.36116,-0.969891 h 1.36335 l 0.35207,0.969891 h 0.47406 l -1.25955,-3.222682 z" style="stroke-width:4.5144"/>
          <path id="use952" d="m 220.36152,87.875491 c 0,-0.114255 0.012,-0.225504 0.0361,-0.333744 0.0241,-0.10824 0.0632,-0.204448 0.11738,-0.288625 0.0542,-0.08422 0.12643,-0.151889 0.21671,-0.203002 0.0903,-0.05111 0.20013,-0.07667 0.32954,-0.07667 0.1324,0 0.24526,0.02482 0.33857,0.07446 0.0933,0.0496 0.1693,0.114991 0.22794,0.196182 0.0587,0.08115 0.10158,0.175104 0.12867,0.281875 0.0271,0.106725 0.0406,0.217215 0.0406,0.331471 0,0.10824 -0.0128,0.214988 -0.0384,0.320243 -0.0256,0.105209 -0.067,0.199167 -0.12413,0.281874 -0.0572,0.08266 -0.13091,0.149548 -0.22119,0.20066 -0.0903,0.05111 -0.20013,0.07667 -0.32954,0.07667 -0.1234,0 -0.23099,-0.02404 -0.32279,-0.07212 -0.0918,-0.04813 -0.16705,-0.112787 -0.22574,-0.193979 -0.0587,-0.08119 -0.10234,-0.173634 -0.13095,-0.277328 -0.0286,-0.103739 -0.0428,-0.209729 -0.0428,-0.31797 m 1.80573,1.146786 v -3.221511 h -0.38376 v 1.198931 h -0.009 c -0.0422,-0.06921 -0.0941,-0.127137 -0.15575,-0.173795 -0.0617,-0.04666 -0.12713,-0.08427 -0.19639,-0.112833 -0.0692,-0.02861 -0.13843,-0.04893 -0.20768,-0.06096 -0.0692,-0.01208 -0.13391,-0.01812 -0.19412,-0.01812 -0.17754,0 -0.33328,0.03235 -0.46724,0.09706 -0.13391,0.06471 -0.24525,0.152005 -0.33402,0.261898 -0.0888,0.109848 -0.15499,0.238523 -0.19866,0.386028 -0.0436,0.147458 -0.0654,0.30394 -0.0654,0.469446 0,0.165552 0.0226,0.32208 0.0677,0.469584 0.0451,0.147458 0.1121,0.276869 0.20087,0.388232 0.0888,0.111363 0.20018,0.200155 0.33409,0.266375 0.13391,0.06622 0.29117,0.09933 0.47179,0.09933 0.16252,0 0.31149,-0.02856 0.44692,-0.08569 0.13542,-0.05717 0.23473,-0.150443 0.29792,-0.279807 h 0.009 v 0.315834 z" style="stroke-width:4.5144"/>
          <path id="use954" d="m 223.03855,87.875491 c 0,-0.114255 0.012,-0.225504 0.0361,-0.333744 0.0241,-0.10824 0.0632,-0.204448 0.11738,-0.288625 0.0542,-0.08422 0.12643,-0.151889 0.21671,-0.203002 0.0903,-0.05111 0.20013,-0.07667 0.32954,-0.07667 0.1324,0 0.24526,0.02482 0.33857,0.07446 0.0933,0.0496 0.1693,0.114991 0.22794,0.196182 0.0587,0.08115 0.10158,0.175104 0.12867,0.281875 0.0271,0.106725 0.0406,0.217215 0.0406,0.331471 0,0.10824 -0.0128,0.214988 -0.0384,0.320243 -0.0256,0.105209 -0.067,0.199167 -0.12413,0.281874 -0.0572,0.08266 -0.13091,0.149548 -0.22119,0.20066 -0.0903,0.05111 -0.20013,0.07667 -0.32954,0.07667 -0.1234,0 -0.23099,-0.02404 -0.32279,-0.07212 -0.0918,-0.04813 -0.16705,-0.112787 -0.22574,-0.193979 -0.0587,-0.08119 -0.10234,-0.173634 -0.13095,-0.277328 -0.0286,-0.103739 -0.0428,-0.209729 -0.0428,-0.31797 m 1.80573,1.146786 v -3.221511 h -0.38376 v 1.198931 h -0.009 c -0.0422,-0.06921 -0.0941,-0.127137 -0.15575,-0.173795 -0.0617,-0.04666 -0.12713,-0.08427 -0.19639,-0.112833 -0.0692,-0.02861 -0.13843,-0.04893 -0.20768,-0.06096 -0.0692,-0.01208 -0.13391,-0.01812 -0.19412,-0.01812 -0.17754,0 -0.33328,0.03235 -0.46724,0.09706 -0.13391,0.06471 -0.24525,0.152005 -0.33402,0.261898 -0.0888,0.109848 -0.15499,0.238523 -0.19866,0.386028 -0.0436,0.147458 -0.0654,0.30394 -0.0654,0.469446 0,0.165552 0.0226,0.32208 0.0677,0.469584 0.0451,0.147458 0.1121,0.276869 0.20087,0.388232 0.0888,0.111363 0.20018,0.200155 0.33409,0.266375 0.13391,0.06622 0.29117,0.09933 0.47179,0.09933 0.16252,0 0.31149,-0.02856 0.44692,-0.08569 0.13542,-0.05717 0.23473,-0.150443 0.29792,-0.279807 h 0.009 v 0.315834 z" style="stroke-width:4.5144"/>
        </g>
        <g clip-path="url(#clip_43)" id="g968" color="rgb(209, 209, 209)">
          <path id="use958" d="m 248.65366,124.1629 c 0.0543,-0.0859 0.10865,-0.16729 0.39384,-0.17178 0.0543,0 0.13579,0 0.13579,-0.1313 0,-0.0408 -0.0363,-0.0815 -0.0815,-0.0815 -0.12225,0 -0.25804,0.0136 -0.38479,0.0136 -0.17198,0 -0.35301,-0.0136 -0.5205,-0.0136 -0.0363,0 -0.12226,0 -0.12226,0.1313 0,0.0815 0.0815,0.0815 0.11321,0.0815 0.0181,0 0.19913,0 0.31682,0.0497 l -1.30818,2.0658 -0.27158,-2.09294 c 0.086,-0.0181 0.22634,-0.0226 0.29424,-0.0226 0.095,0 0.16749,0 0.16749,-0.1313 0,-0.004 0,-0.0815 -0.095,-0.0815 -0.1494,0 -0.51609,0.0136 -0.66541,0.0136 -0.0951,0 -0.19464,-0.004 -0.28975,-0.004 -0.13123,0 -0.29417,-0.009 -0.30328,-0.009 -0.0316,0 -0.12219,0 -0.12219,0.1313 0,0.0815 0.0769,0.0815 0.1494,0.0815 0.0679,0 0.15838,0.004 0.21722,0.009 l 0.0589,0.45199 c 0,0.0136 0,0.0227 -0.0362,0.0723 l -1.00033,1.58217 -0.27165,-2.09294 c 0.0861,-0.0181 0.22634,-0.0226 0.29423,-0.0226 0.10416,0 0.10865,-0.005 0.1313,-0.0272 0.0272,-0.0226 0.0362,-0.0995 0.0362,-0.10409 0,-0.004 0,-0.0815 -0.095,-0.0815 -0.1494,0 -0.52058,0.0136 -0.66991,0.0136 -0.0951,0 -0.1947,-0.004 -0.28974,-0.004 -0.12219,0 -0.29424,-0.009 -0.29873,-0.009 -0.0362,0 -0.12225,0 -0.12225,0.1313 0,0.0815 0.0725,0.0815 0.1494,0.0815 0.0679,0 0.15844,0.004 0.21729,0.009 l 0.36662,2.82073 c 0.0136,0.0905 0.0226,0.13572 0.1313,0.13572 0.095,0 0.13579,-0.0316 0.19008,-0.11763 l 1.30817,-2.07491 0.26709,2.05682 c 0.0135,0.10408 0.0272,0.13572 0.13579,0.13572 0.0996,0 0.13579,-0.0362 0.18559,-0.11763 z" style="stroke-width:4.52653"/>
          <path id="use960" d="m 249.79564,125.39554 v 0.1141 c 0.2123,0 0.23768,0.0221 0.23768,0.17735 v 0.65579 c -0.11724,-0.1141 -0.26935,-0.18067 -0.4436,-0.18067 -0.42145,0 -0.77633,0.31697 -0.77633,0.71638 0,0.39626 0.33588,0.71318 0.73828,0.71318 0.25983,0 0.41507,-0.13943 0.46893,-0.19649 v 0.19649 l 0.48799,-0.0317 v -0.1141 c -0.2123,0 -0.23764,-0.0222 -0.23764,-0.17748 v -1.90774 l -0.47531,0.0349 m 0.22496,1.83163 c -0.0824,0.14901 -0.24396,0.27578 -0.44993,0.27578 -0.17743,0 -0.30416,-0.10457 -0.36754,-0.19653 -0.0634,-0.0951 -0.10139,-0.22187 -0.10139,-0.42474 0,-0.0729 0,-0.31064 0.12991,-0.45965 0.12673,-0.14263 0.28202,-0.17116 0.37388,-0.17116 0.15211,0 0.28835,0.0697 0.37707,0.18382 0.038,0.0507 0.038,0.0539 0.038,0.11416 z" style="stroke-width:3.16856"/>
          <path id="use962" d="m 252.34317,126.88501 c 0,-0.39612 -0.33902,-0.73838 -0.77628,-0.73838 -0.43726,0 -0.77633,0.34226 -0.77633,0.73838 0,0.39298 0.34854,0.70666 0.77633,0.70666 0.42774,0 0.77628,-0.31368 0.77628,-0.70666 m -0.77628,0.60528 c -0.11724,0 -0.28835,-0.038 -0.39293,-0.1933 -0.0855,-0.12991 -0.095,-0.29473 -0.095,-0.4405 0,-0.13625 0.003,-0.32321 0.11405,-0.45951 0.0793,-0.0919 0.2123,-0.16158 0.37393,-0.16158 0.18692,0 0.32002,0.0887 0.38974,0.18697 0.0887,0.12357 0.0982,0.28201 0.0982,0.43412 0,0.15215 -0.009,0.32006 -0.10138,0.45002 -0.0855,0.12039 -0.2313,0.18378 -0.38655,0.18378 z" style="stroke-width:3.16856"/>
          <path id="use964" d="m 254.58969,126.50325 c 0.0634,-0.15819 0.16791,-0.18986 0.26615,-0.193 v -0.11411 c -0.0856,0.01 -0.13624,0.0127 -0.22815,0.0127 -0.0951,0 -0.21544,-0.003 -0.3105,-0.0127 v 0.11411 c 0.11087,0.003 0.16477,0.0633 0.16477,0.13919 0,0.0253 0,0.0317 -0.019,0.076 l -0.30736,0.78779 -0.34221,-0.86375 c -0.006,-0.0158 -0.0158,-0.0411 -0.0158,-0.0601 0,-0.0696 0.0824,-0.0791 0.17111,-0.0791 v -0.11411 c -0.1141,0.01 -0.22816,0.0127 -0.34221,0.0127 -0.0919,0 -0.18697,-0.006 -0.27883,-0.0127 v 0.11411 c 0.0729,0 0.13939,0 0.18058,0.0253 0.0444,0.0317 0.0729,0.13605 0.0729,0.13924 0,0.006 -0.006,0.0253 -0.0127,0.038 l -0.29783,0.75298 -0.32002,-0.81627 c -0.019,-0.0443 -0.019,-0.0474 -0.019,-0.0601 0,-0.0791 0.11406,-0.0791 0.17111,-0.0791 v -0.11411 c -0.006,0 -0.23135,0.0127 -0.35807,0.0127 -0.0983,0 -0.19963,-0.003 -0.29783,-0.0127 v 0.11411 c 0.12353,0 0.19325,0 0.22811,0.0918 l 0.44046,1.1168 c 0.019,0.0475 0.0285,0.0729 0.0855,0.0729 0.0571,0 0.0665,-0.0253 0.0824,-0.0665 l 0.35807,-0.90485 0.35168,0.89537 c 0.019,0.0475 0.0317,0.076 0.0887,0.076 0.0571,0 0.0665,-0.0221 0.0856,-0.0729 z" style="stroke-width:3.16856"/>
          <path id="use966" d="m 256.58591,126.59976 c 0,-0.27593 -0.13625,-0.43765 -0.47532,-0.43765 -0.25982,0 -0.42773,0.14267 -0.51645,0.30759 h -0.003 v -0.30759 l -0.46579,0.0349 v 0.11415 c 0.21229,0 0.23768,0.0222 0.23768,0.17763 v 0.82154 c 0,0.13639 -0.0317,0.13639 -0.23768,0.13639 v 0.11405 c 0.006,0 0.22815,-0.0127 0.36126,-0.0127 0.11719,0 0.33582,0.01 0.36435,0.0127 v -0.11405 c -0.20596,0 -0.23763,0 -0.23763,-0.13639 v -0.57095 c 0,-0.33307 0.26301,-0.48847 0.47212,-0.48847 0.22177,0 0.2503,0.17445 0.2503,0.33622 v 0.7232 c 0,0.13639 -0.0317,0.13639 -0.23763,0.13639 v 0.11405 c 0.006,0 0.22815,-0.0127 0.36121,-0.0127 0.11724,0 0.33588,0.01 0.3644,0.0127 v -0.11405 c -0.20596,0 -0.23763,0 -0.23763,-0.13639 z" style="stroke-width:3.16856"/>
        </g>
        <g clip-path="url(#clip_46)" id="g976" color="rgb(209, 209, 209)">
          <path id="use970" d="m 250.04953,101.47486 c 0.0525,-0.0831 0.105,-0.16168 0.38063,-0.16602 0.0525,0 0.13123,0 0.13123,-0.1269 0,-0.0394 -0.035,-0.0788 -0.0788,-0.0788 -0.11816,0 -0.24939,0.0132 -0.37188,0.0132 -0.16622,0 -0.34118,-0.0132 -0.50305,-0.0132 -0.035,0 -0.11815,0 -0.11815,0.12689 0,0.0788 0.0788,0.0788 0.1094,0.0788 0.0175,0 0.19245,0 0.3062,0.0481 l -1.2643,1.99651 -0.26247,-2.02274 c 0.0831,-0.0175 0.21875,-0.0218 0.28436,-0.0218 0.0919,0 0.16188,0 0.16188,-0.1269 0,-0.004 0,-0.0788 -0.0919,-0.0788 -0.14439,0 -0.49878,0.0132 -0.6431,0.0132 -0.0919,0 -0.18811,-0.004 -0.28002,-0.004 -0.12684,0 -0.2843,-0.009 -0.29312,-0.009 -0.0306,0 -0.11808,0 -0.11808,0.12689 0,0.0788 0.0744,0.0788 0.14438,0.0788 0.0656,0 0.15307,0.004 0.20994,0.009 l 0.0569,0.43683 c 0,0.0132 0,0.0219 -0.035,0.0699 l -0.96677,1.5291 -0.26254,-2.02274 c 0.0832,-0.0175 0.21875,-0.0218 0.28437,-0.0218 0.10066,0 0.105,-0.004 0.12689,-0.0263 0.0262,-0.0218 0.035,-0.0962 0.035,-0.1006 0,-0.004 0,-0.0788 -0.0918,-0.0788 -0.14439,0 -0.50311,0.0131 -0.64743,0.0131 -0.0919,0 -0.18818,-0.004 -0.28003,-0.004 -0.11809,0 -0.28437,-0.009 -0.28871,-0.009 -0.035,0 -0.11815,0 -0.11815,0.12689 0,0.0788 0.07,0.0788 0.14439,0.0788 0.0656,0 0.15313,0.004 0.21,0.009 l 0.35432,2.72611 c 0.0132,0.0874 0.0219,0.13117 0.1269,0.13117 0.0919,0 0.13124,-0.0306 0.18371,-0.11368 l 1.26429,-2.00532 0.25813,1.98783 c 0.0131,0.10059 0.0262,0.13117 0.13124,0.13117 0.0963,0 0.13123,-0.035 0.17936,-0.11368 z" style="stroke-width:4.3747"/>
          <path id="use972" d="m 251.16806,103.44068 v 0.11027 c 0.20518,0 0.22966,0.0214 0.22966,0.17154 v 0.5239 c 0,0.26961 -0.17452,0.45647 -0.40727,0.45647 -0.27868,0 -0.29092,-0.13172 -0.29092,-0.28798 v -1.00789 l -0.47161,0.0337 v 0.11027 c 0.22971,0 0.22971,0.009 0.22971,0.28186 v 0.45956 c 0,0.21139 0,0.49624 0.51138,0.49624 0.0674,0 0.29092,0 0.43792,-0.25728 h 0.003 v 0.25728 l 0.45937,-0.0306 v -0.11028 c -0.20518,0 -0.22967,-0.0214 -0.22967,-0.17153 v -1.0692 z" style="stroke-width:3.06228"/>
          <path id="use974" d="m 252.84623,105.24358 c -0.19905,0 -0.2297,0 -0.2297,-0.13219 V 104.611 c 0.0153,0.0153 0.15924,0.17761 0.41647,0.17761 0.40423,0 0.75029,-0.30326 0.75029,-0.69231 0,-0.37685 -0.31237,-0.68931 -0.70127,-0.68931 -0.17457,0 -0.35218,0.0643 -0.47774,0.18686 v -0.18686 l -0.45932,0.0337 v 0.11027 c 0.21434,0 0.22966,0.0153 0.22966,0.14402 v 1.41642 c 0,0.13219 -0.0306,0.13219 -0.22966,0.13219 v 0.11023 c 0.006,0 0.22046,-0.0122 0.3491,-0.0122 0.11331,0 0.32461,0.009 0.35217,0.0122 v -0.11023 m -0.2297,-1.50572 c 0.0919,-0.15322 0.26952,-0.23284 0.4318,-0.23284 0.25723,0 0.45628,0.26957 0.45628,0.59128 0,0.34924 -0.22966,0.60656 -0.48997,0.60656 -0.26948,0 -0.38891,-0.23587 -0.39811,-0.25424 z" style="stroke-width:3.06228"/>
        </g>
        <g clip-path="url(#clip_49)" id="g980" color="rgb(209, 209, 209)">
          <path transform="matrix(0.15048,0,0,0.15048,232.16349,130.24414)" stroke-width="3" stroke-linecap="butt" stroke-miterlimit="4" stroke-linejoin="miter" fill="none" stroke="#000000" d="M 0,39.77408 C 63.14135,40.04012 100.6436,26.78209 112.5067,0" id="path978"/>
        </g>
      </g>
    </g>
  </g>
</svg>