<?xml version="1.0" encoding="UTF-8" standalone="no"?>
<!-- Created with Inkscape (http://www.inkscape.org/) -->

<svg
   width="58.211464mm"
   height="34.805336mm"
   viewBox="0 0 58.211464 34.805336"
   version="1.1"
   id="svg35816"
   inkscape:version="1.2.2 (b0a84865, 2022-12-01)"
   sodipodi:docname="figure5b.svg"
   xmlns:inkscape="http://www.inkscape.org/namespaces/inkscape"
   xmlns:sodipodi="http://sodipodi.sourceforge.net/DTD/sodipodi-0.dtd"
   xmlns="http://www.w3.org/2000/svg"
   xmlns:svg="http://www.w3.org/2000/svg">
  <sodipodi:namedview
     id="namedview35818"
     pagecolor="#ffffff"
     bordercolor="#999999"
     borderopacity="1"
     inkscape:showpageshadow="0"
     inkscape:pageopacity="0"
     inkscape:pagecheckerboard="0"
     inkscape:deskcolor="#d1d1d1"
     inkscape:document-units="mm"
     showgrid="false"
     inkscape:zoom="0.914906"
     inkscape:cx="-193.4625"
     inkscape:cy="469.44713"
     inkscape:window-width="1390"
     inkscape:window-height="1205"
     inkscape:window-x="0"
     inkscape:window-y="25"
     inkscape:window-maximized="0"
     inkscape:current-layer="layer1" />
  <defs
     id="defs35813">
    <clipPath
       id="clip_26">
      <path
         transform="matrix(0.44476,0,0,-0.44476,309.653,180.56702)"
         d="M 0,0 H 371.00657 V 221.82929 H 0 Z"
         id="path25498" />
    </clipPath>
    <clipPath
       id="clip_27">
      <path
         transform="matrix(0.44476,0,0,-0.44476,309.653,180.56702)"
         d="M 60.116575,48.309289 H 339.11659 V 214.6293 H 60.116575 Z"
         id="path25501" />
    </clipPath>
    <clipPath
       id="clip_30">
      <path
         transform="matrix(0.44476,0,0,-0.44476,309.653,180.56702)"
         d="M 60.116575,48.309289 H 339.11659 V 214.6293 H 60.116575 Z"
         id="path25507" />
    </clipPath>
    <clipPath
       id="clip_31">
      <path
         transform="matrix(0.44476,0,0,-0.44476,309.653,180.56702)"
         d="M 60.116575,48.309289 H 339.11659 V 214.6293 H 60.116575 Z"
         id="path25511" />
    </clipPath>
    <clipPath
       id="clip_32">
      <path
         transform="matrix(0.44476,0,0,-0.44476,309.653,180.56702)"
         d="M 60.116575,48.309289 H 339.11659 V 214.6293 H 60.116575 Z"
         id="path25515" />
    </clipPath>
    <clipPath
       id="clip_33">
      <path
         transform="matrix(0.44476,0,0,-0.44476,309.653,180.56702)"
         d="M 60.116575,48.309289 H 339.11659 V 214.6293 H 60.116575 Z"
         id="path25519" />
    </clipPath>
    <clipPath
       id="clip_35">
      <path
         transform="matrix(0.44476,0,0,-0.44476,309.653,180.56702)"
         d="M 60.116575,48.309289 H 339.11659 V 214.6293 H 60.116575 Z"
         id="path25538" />
    </clipPath>
    <clipPath
       id="clip_36">
      <path
         transform="matrix(0.44476,0,0,-0.44476,309.653,180.56702)"
         d="M 60.116575,48.309289 H 339.11659 V 214.6293 H 60.116575 Z"
         id="path25542" />
    </clipPath>
    <clipPath
       id="clip_37">
      <path
         transform="matrix(0.44476,0,0,-0.44476,309.653,180.56702)"
         d="M 60.116575,48.309289 H 339.11659 V 214.6293 H 60.116575 Z"
         id="path25545" />
    </clipPath>
    <clipPath
       id="clip_38">
      <path
         transform="matrix(0.44476,0,0,-0.44476,309.653,180.56702)"
         d="M 60.116575,48.309289 H 339.11659 V 214.6293 H 60.116575 Z"
         id="path25549" />
    </clipPath>
    <clipPath
       id="clip_39">
      <path
         transform="matrix(0.44476,0,0,-0.44476,309.653,180.56702)"
         d="M 60.116575,48.309289 H 339.11659 V 214.6293 H 60.116575 Z"
         id="path25552" />
    </clipPath>
    <clipPath
       id="clip_40">
      <path
         transform="matrix(0.44476,0,0,-0.44476,309.653,180.56702)"
         d="M 60.116575,48.309289 H 339.11659 V 214.6293 H 60.116575 Z"
         id="path25561" />
    </clipPath>
    <clipPath
       id="clip_41">
      <path
         transform="matrix(0.44476,0,0,-0.44476,355.70445,140.43503)"
         d="m -5.5,-5.5 h 11 v 11 h -11 z"
         id="path25564" />
    </clipPath>
    <clipPath
       id="clip_42">
      <path
         transform="matrix(0.44476,0,0,-0.44476,419.51463,155.7186)"
         d="m -5.5,-5.5 h 11 v 11 h -11 z"
         id="path25567" />
    </clipPath>
    <clipPath
       id="clip_43">
      <path
         transform="matrix(0.44476,0,0,-0.44476,309.653,180.56702)"
         d="M 60.116575,48.309289 H 339.11659 V 214.6293 H 60.116575 Z"
         id="path25570" />
    </clipPath>
    <clipPath
       id="clip_44">
      <path
         transform="matrix(0.44476,0,0,-0.44476,309.653,180.56702)"
         d="M 60.116575,48.309289 H 339.11659 V 214.6293 H 60.116575 Z"
         id="path25573" />
    </clipPath>
    <clipPath
       id="clip_45">
      <path
         transform="matrix(0.44476,0,0,-0.44476,309.653,180.56702)"
         d="M 60.116575,48.309289 H 339.11659 V 214.6293 H 60.116575 Z"
         id="path25576" />
    </clipPath>
    <clipPath
       id="clip_46">
      <path
         transform="matrix(0.44476,0,0,-0.44476,342.03083,115.98131)"
         d="m -5.5,-5.5 h 11 v 11 h -11 z"
         id="path25579" />
    </clipPath>
    <clipPath
       id="clip_47">
      <path
         transform="matrix(0.44476,0,0,-0.44476,384.19114,94.584308)"
         d="m -5.5,-5.5 h 11 v 11 h -11 z"
         id="path25582" />
    </clipPath>
    <clipPath
       id="clip_48">
      <path
         transform="matrix(0.44476,0,0,-0.44476,454.83815,88.47088)"
         d="m -5.5,-5.5 h 11 v 11 h -11 z"
         id="path25585" />
    </clipPath>
    <clipPath
       id="clip_49">
      <path
         transform="matrix(0.44476,0,0,-0.44476,309.653,180.56702)"
         d="M 60.116575,48.309289 H 339.11659 V 214.6293 H 60.116575 Z"
         id="path25588" />
    </clipPath>
  </defs>
  <g
     inkscape:label="Layer 1"
     inkscape:groupmode="layer"
     id="layer1"
     transform="translate(-96.981901,-24.240955)">
    <g
       id="g26519"
       transform="matrix(0.35277777,0,0,0.35277777,-12.256794,-4.6537408)">
      <g
         clip-path="url(#clip_26)"
         id="g26517">
        <path
           transform="matrix(0.44476,0,0,-0.44476,309.653,180.56702)"
           d="M 0,0 H 371.00657 V 221.82929 H 0 Z"
           fill="#ffffff"
           id="path26105" />
        <path
           transform="matrix(0.44476,0,0,-0.44476,309.653,180.56702)"
           d="M 60.116575,48.309289 H 339.11659 V 214.62929 H 60.116575 Z"
           fill="#ffffff"
           id="path26107" />
        <g
           clip-path="url(#clip_27)"
           id="g26111">
          <path
             transform="matrix(0.44476,0,0,-0.44476,309.653,180.56702)"
             stroke-width="0.8"
             stroke-linecap="square"
             stroke-linejoin="round"
             fill="none"
             stroke="#bebebe"
             d="M 75.360378,48.309289 V 214.62929"
             id="path26109" />
        </g>
        <path
           transform="matrix(0.44476,0,0,-0.44476,309.653,180.56702)"
           d="m 75.360378,48.309289 v -3.5"
           id="path26113" />
        <path
           transform="matrix(0.44476,0,0,-0.44476,309.653,180.56702)"
           stroke-width="0.8"
           stroke-linecap="butt"
           stroke-linejoin="round"
           fill="none"
           stroke="#000000"
           d="m 75.360378,48.309289 v -3.5"
           id="path26115" />
        <path
           id="use26117"
           d="m 341.85459,165.92723 h -0.15588 c -0.0213,0.1204 -0.078,0.50995 -0.14896,0.62332 -0.0496,0.0637 -0.4537,0.0637 -0.66638,0.0637 h -1.31156 c 0.19137,-0.16292 0.62387,-0.6163 0.8082,-0.78624 1.07757,-0.99178 1.47458,-1.36013 1.47458,-2.06167 0,-0.81663 -0.64507,-1.36358 -1.46755,-1.36358 -0.82237,0 -1.30441,0.70337 -1.30441,1.31393 0,0.36153 0.31188,0.36153 0.33319,0.36153 0.14885,0 0.33319,-0.10634 0.33319,-0.33319 0,-0.1985 -0.13468,-0.33319 -0.33319,-0.33319 -0.0638,0 -0.078,0 -0.0993,0.007 0.13479,-0.48355 0.51764,-0.81058 0.97837,-0.81058 0.60266,0 0.97133,0.50487 0.97133,1.15794 0,0.60234 -0.34736,1.12657 -0.75151,1.57995 l -1.43207,1.60125 v 0.17006 h 2.58763 z"
           style="stroke-width:7.08957" />
        <path
           id="use26119"
           d="m 343.51057,166.7774 c 0,-0.20565 -0.17016,-0.34747 -0.34033,-0.34747 -0.20553,0 -0.34736,0.17016 -0.34736,0.34033 0,0.20565 0.17017,0.34736 0.34033,0.34736 0.20554,0 0.34736,-0.17006 0.34736,-0.34022 z"
           style="stroke-width:7.08957" />
        <path
           id="use26121"
           d="m 345.04184,163.05671 c 0.30485,0.0992 0.55301,0.10634 0.631,0.10634 0.80106,0 1.31156,-0.58978 1.31156,-0.68952 0,-0.0284 -0.0142,-0.0638 -0.0567,-0.0638 -0.0142,0 -0.0283,0 -0.0922,0.0285 -0.39701,0.17135 -0.73734,0.1931 -0.92168,0.1931 -0.46787,0 -0.80117,-0.14356 -0.93585,-0.20024 -0.0496,-0.0213 -0.0638,-0.0213 -0.0709,-0.0213 -0.0567,0 -0.0567,0.0426 -0.0567,0.15631 v 2.10602 c 0,0.12765 0,0.17017 0.085,0.17017 0.0355,0 0.0425,-0.007 0.11348,-0.0922 0.19851,-0.29057 0.5317,-0.46073 0.8862,-0.46073 0.3757,0 0.56004,0.34736 0.61672,0.46787 0.12051,0.27639 0.12765,0.62376 0.12765,0.89312 0,0.26936 0,0.67373 -0.1985,0.99405 -0.15599,0.25627 -0.43249,0.43423 -0.74437,0.43423 -0.46798,0 -0.92882,-0.32032 -1.05636,-0.8399 0.0354,0.0142 0.078,0.0213 0.11337,0.0213 0.12051,0 0.31198,-0.071 0.31198,-0.31198 0,-0.19851 -0.13468,-0.31199 -0.31198,-0.31199 -0.12754,0 -0.31188,0.0638 -0.31188,0.34033 0,0.60396 0.48204,1.29359 1.26904,1.29359 0.80106,0 1.50292,-0.67546 1.50292,-1.57713 0,-0.84346 -0.56707,-1.54532 -1.31155,-1.54532 -0.40405,0 -0.71603,0.1773 -0.90037,0.3757 z"
           style="stroke-width:7.08957" />
        <g
           clip-path="url(#clip_30)"
           id="g26125">
          <path
             transform="matrix(0.44476,0,0,-0.44476,309.653,180.56702)"
             stroke-width="0.8"
             stroke-linecap="square"
             stroke-linejoin="round"
             fill="none"
             stroke="#bebebe"
             d="M 139.40996,48.309289 V 214.62929"
             id="path26123" />
        </g>
        <path
           transform="matrix(0.44476,0,0,-0.44476,309.653,180.56702)"
           d="m 139.40996,48.309289 v -3.5"
           id="path26127" />
        <path
           transform="matrix(0.44476,0,0,-0.44476,309.653,180.56702)"
           stroke-width="0.8"
           stroke-linecap="butt"
           stroke-linejoin="round"
           fill="none"
           stroke="#000000"
           d="m 139.40996,48.309289 v -3.5"
           id="path26129" />
        <path
           id="use26131"
           d="m 368.12936,163.05671 c 0.30485,0.0992 0.55301,0.10634 0.631,0.10634 0.80106,0 1.31156,-0.58978 1.31156,-0.68952 0,-0.0284 -0.0142,-0.0638 -0.0567,-0.0638 -0.0142,0 -0.0283,0 -0.0922,0.0285 -0.39701,0.17135 -0.73734,0.1931 -0.92168,0.1931 -0.46787,0 -0.80117,-0.14356 -0.93585,-0.20024 -0.0496,-0.0213 -0.0638,-0.0213 -0.0709,-0.0213 -0.0567,0 -0.0567,0.0426 -0.0567,0.15631 v 2.10602 c 0,0.12765 0,0.17017 0.085,0.17017 0.0355,0 0.0425,-0.007 0.11348,-0.0922 0.19851,-0.29057 0.5317,-0.46073 0.8862,-0.46073 0.3757,0 0.56004,0.34736 0.61672,0.46787 0.12051,0.27639 0.12765,0.62376 0.12765,0.89312 0,0.26936 0,0.67373 -0.1985,0.99405 -0.15599,0.25627 -0.43249,0.43423 -0.74437,0.43423 -0.46798,0 -0.92882,-0.32032 -1.05636,-0.8399 0.0354,0.0142 0.078,0.0213 0.11337,0.0213 0.12051,0 0.31198,-0.071 0.31198,-0.31198 0,-0.19851 -0.13468,-0.31199 -0.31198,-0.31199 -0.12754,0 -0.31188,0.0638 -0.31188,0.34033 0,0.60396 0.48204,1.29359 1.26904,1.29359 0.80106,0 1.50292,-0.67546 1.50292,-1.57713 0,-0.84346 -0.56707,-1.54532 -1.31155,-1.54532 -0.40405,0 -0.71603,0.1773 -0.90037,0.3757 z"
           style="stroke-width:7.08957" />
        <path
           id="use26133"
           d="m 371.99726,166.7774 c 0,-0.20565 -0.17016,-0.34747 -0.34033,-0.34747 -0.20553,0 -0.34736,0.17016 -0.34736,0.34033 0,0.20565 0.17017,0.34736 0.34033,0.34736 0.20554,0 0.34736,-0.17006 0.34736,-0.34022 z"
           style="stroke-width:7.08957" />
        <path
           id="use26135"
           d="m 375.79725,164.85064 c 0,-0.58893 -0.0355,-1.16368 -0.29068,-1.70295 -0.29068,-0.58881 -0.80117,-0.74491 -1.14853,-0.74491 -0.41119,0 -0.91454,0.20575 -1.17687,0.79467 -0.19851,0.447 -0.26947,0.88685 -0.26947,1.65319 0,0.68823 0.0496,1.20618 0.30495,1.70997 0.2764,0.53916 0.76558,0.70933 1.13425,0.70933 0.61683,0 0.97133,-0.36878 1.17687,-0.7803 0.2553,-0.53212 0.26948,-1.22749 0.26948,-1.639 m -1.44635,2.27758 c -0.22685,0 -0.68769,-0.12776 -0.82237,-0.90112 -0.078,-0.42569 -0.078,-0.96495 -0.078,-1.4616 0,-0.58189 0,-1.10688 0.11348,-1.52553 0.12051,-0.47534 0.48205,-0.69537 0.78689,-0.69537 0.26947,0 0.68066,0.16324 0.81534,0.77347 0.0922,0.40437 0.0922,0.96495 0.0922,1.44743 0,0.47533 0,1.0146 -0.078,1.44742 -0.13468,0.78051 -0.58135,0.9153 -0.82951,0.9153 z"
           style="stroke-width:7.08957" />
        <g
           clip-path="url(#clip_31)"
           id="g26139">
          <path
             transform="matrix(0.44476,0,0,-0.44476,309.653,180.56702)"
             stroke-width="0.8"
             stroke-linecap="square"
             stroke-linejoin="round"
             fill="none"
             stroke="#bebebe"
             d="M 203.45955,48.309289 V 214.62929"
             id="path26137" />
        </g>
        <path
           transform="matrix(0.44476,0,0,-0.44476,309.653,180.56702)"
           d="m 203.45955,48.309289 v -3.5"
           id="path26141" />
        <path
           transform="matrix(0.44476,0,0,-0.44476,309.653,180.56702)"
           stroke-width="0.8"
           stroke-linecap="butt"
           stroke-linejoin="round"
           fill="none"
           stroke="#000000"
           d="m 203.45955,48.309289 v -3.5"
           id="path26143" />
        <path
           id="use26145"
           d="m 399.07614,162.71822 v -0.16313 h -1.70857 c -0.85785,0 -0.87202,-0.0937 -0.90036,-0.22847 h -0.156 l -0.21982,1.41962 h 0.156 c 0.0213,-0.12765 0.0851,-0.56718 0.1773,-0.64517 0.0567,-0.0425 0.58838,-0.0425 0.68769,-0.0425 h 1.50292 l -0.75151,1.07768 c -0.19137,0.2765 -0.9074,1.43931 -0.9074,2.77217 0,0.078 0,0.36154 0.29067,0.36154 0.29771,0 0.29771,-0.2764 0.29771,-0.36868 v -0.3545 c 0,-1.05636 0.17017,-1.87884 0.50335,-2.35385 z"
           style="stroke-width:7.08957" />
        <path
           id="use26147"
           d="m 400.48396,166.7774 c 0,-0.20565 -0.17016,-0.34747 -0.34033,-0.34747 -0.20553,0 -0.34736,0.17016 -0.34736,0.34033 0,0.20565 0.17017,0.34736 0.34033,0.34736 0.20554,0 0.34736,-0.17006 0.34736,-0.34022 z"
           style="stroke-width:7.08957" />
        <path
           id="use26149"
           d="m 402.01523,163.05671 c 0.30485,0.0992 0.55301,0.10634 0.631,0.10634 0.80106,0 1.31156,-0.58978 1.31156,-0.68952 0,-0.0284 -0.0142,-0.0638 -0.0567,-0.0638 -0.0142,0 -0.0283,0 -0.0922,0.0285 -0.39701,0.17135 -0.73734,0.1931 -0.92168,0.1931 -0.46787,0 -0.80117,-0.14356 -0.93585,-0.20024 -0.0495,-0.0213 -0.0638,-0.0213 -0.0709,-0.0213 -0.0567,0 -0.0567,0.0426 -0.0567,0.15631 v 2.10602 c 0,0.12765 0,0.17017 0.085,0.17017 0.0355,0 0.0425,-0.007 0.11348,-0.0922 0.19851,-0.29057 0.5317,-0.46073 0.8862,-0.46073 0.3757,0 0.56004,0.34736 0.61672,0.46787 0.12051,0.27639 0.12765,0.62376 0.12765,0.89312 0,0.26936 0,0.67373 -0.1985,0.99405 -0.15599,0.25627 -0.43249,0.43423 -0.74437,0.43423 -0.46798,0 -0.92882,-0.32032 -1.05636,-0.8399 0.0354,0.0142 0.078,0.0213 0.11337,0.0213 0.12051,0 0.31198,-0.071 0.31198,-0.31198 0,-0.19851 -0.13468,-0.31199 -0.31198,-0.31199 -0.12754,0 -0.31188,0.0638 -0.31188,0.34033 0,0.60396 0.48204,1.29359 1.26904,1.29359 0.80106,0 1.50292,-0.67546 1.50292,-1.57713 0,-0.84346 -0.56707,-1.54532 -1.31155,-1.54532 -0.40405,0 -0.71603,0.1773 -0.90037,0.3757 z"
           style="stroke-width:7.08957" />
        <g
           clip-path="url(#clip_32)"
           id="g26153">
          <path
             transform="matrix(0.44476,0,0,-0.44476,309.653,180.56702)"
             stroke-width="0.8"
             stroke-linecap="square"
             stroke-linejoin="round"
             fill="none"
             stroke="#bebebe"
             d="M 267.50914,48.309289 V 214.62929"
             id="path26151" />
        </g>
        <path
           transform="matrix(0.44476,0,0,-0.44476,309.653,180.56702)"
           d="m 267.50914,48.309289 v -3.5"
           id="path26155" />
        <path
           transform="matrix(0.44476,0,0,-0.44476,309.653,180.56702)"
           stroke-width="0.8"
           stroke-linecap="butt"
           stroke-linejoin="round"
           fill="none"
           stroke="#000000"
           d="m 267.50914,48.309289 v -3.5"
           id="path26157" />
        <path
           id="use26159"
           d="m 424.50166,162.57283 c 0,-0.16291 0,-0.17005 -0.14182,-0.17005 -0.17017,0.19126 -0.52456,0.45218 -1.25487,0.45218 v 0.20554 c 0.16313,0 0.51752,0 0.90751,-0.18423 v 3.69537 c 0,0.2553 -0.0213,0.34044 -0.64518,0.34044 h -0.21971 v 0.20554 c 0.19137,-0.0142 0.87906,-0.0142 1.11305,-0.0142 0.23388,0 0.91454,0 1.1059,0.0142 v -0.20554 h -0.21971 c -0.62386,0 -0.64517,-0.0851 -0.64517,-0.34044 z"
           style="stroke-width:7.08957" />
        <path
           id="use26161"
           d="m 429.10282,164.85064 c 0,-0.58893 -0.0355,-1.16368 -0.29068,-1.70295 -0.29068,-0.58881 -0.80117,-0.74491 -1.14853,-0.74491 -0.41119,0 -0.91454,0.20575 -1.17687,0.79467 -0.19851,0.447 -0.26947,0.88685 -0.26947,1.65319 0,0.68823 0.0497,1.20618 0.30495,1.70997 0.2764,0.53916 0.76558,0.70933 1.13425,0.70933 0.61683,0 0.97133,-0.36878 1.17687,-0.7803 0.2553,-0.53212 0.26948,-1.22749 0.26948,-1.639 m -1.44635,2.27758 c -0.22685,0 -0.68769,-0.12776 -0.82237,-0.90112 -0.078,-0.42569 -0.078,-0.96495 -0.078,-1.4616 0,-0.58189 0,-1.10688 0.11348,-1.52553 0.12051,-0.47534 0.48205,-0.69537 0.78689,-0.69537 0.26947,0 0.68066,0.16324 0.81534,0.77347 0.0922,0.40437 0.0922,0.96495 0.0922,1.44743 0,0.47533 0,1.0146 -0.078,1.44742 -0.13468,0.78051 -0.58135,0.9153 -0.82951,0.9153 z"
           style="stroke-width:7.08957" />
        <path
           id="use26163"
           d="m 430.70609,166.7774 c 0,-0.20565 -0.17016,-0.34747 -0.34033,-0.34747 -0.20553,0 -0.34736,0.17016 -0.34736,0.34033 0,0.20565 0.17017,0.34736 0.34033,0.34736 0.20554,0 0.34736,-0.17006 0.34736,-0.34022 z"
           style="stroke-width:7.08957" />
        <path
           id="use26165"
           d="m 434.50609,164.85064 c 0,-0.58893 -0.0355,-1.16368 -0.29068,-1.70295 -0.29068,-0.58881 -0.80117,-0.74491 -1.14853,-0.74491 -0.41119,0 -0.91454,0.20575 -1.17687,0.79467 -0.19851,0.447 -0.26947,0.88685 -0.26947,1.65319 0,0.68823 0.0496,1.20618 0.30495,1.70997 0.2764,0.53916 0.76558,0.70933 1.13425,0.70933 0.61683,0 0.97133,-0.36878 1.17687,-0.7803 0.2553,-0.53212 0.26948,-1.22749 0.26948,-1.639 m -1.44635,2.27758 c -0.22685,0 -0.68769,-0.12776 -0.82237,-0.90112 -0.078,-0.42569 -0.078,-0.96495 -0.078,-1.4616 0,-0.58189 0,-1.10688 0.11348,-1.52553 0.12051,-0.47534 0.48205,-0.69537 0.78689,-0.69537 0.26947,0 0.68066,0.16324 0.81534,0.77347 0.0922,0.40437 0.0922,0.96495 0.0922,1.44743 0,0.47533 0,1.0146 -0.078,1.44742 -0.13468,0.78051 -0.58135,0.9153 -0.82951,0.9153 z"
           style="stroke-width:7.08957" />
        <g
           clip-path="url(#clip_33)"
           id="g26169">
          <path
             transform="matrix(0.44476,0,0,-0.44476,309.653,180.56702)"
             stroke-width="0.8"
             stroke-linecap="square"
             stroke-linejoin="round"
             fill="none"
             stroke="#bebebe"
             d="M 331.55873,48.309289 V 214.62929"
             id="path26167" />
        </g>
        <path
           transform="matrix(0.44476,0,0,-0.44476,309.653,180.56702)"
           d="m 331.55873,48.309289 v -3.5"
           id="path26171" />
        <path
           transform="matrix(0.44476,0,0,-0.44476,309.653,180.56702)"
           stroke-width="0.8"
           stroke-linecap="butt"
           stroke-linejoin="round"
           fill="none"
           stroke="#000000"
           d="m 331.55873,48.309289 v -3.5"
           id="path26173" />
        <path
           id="use26175"
           d="m 452.98836,162.57283 c 0,-0.16291 0,-0.17005 -0.14182,-0.17005 -0.17017,0.19126 -0.52456,0.45218 -1.25487,0.45218 v 0.20554 c 0.16313,0 0.51752,0 0.90751,-0.18423 v 3.69537 c 0,0.2553 -0.0213,0.34044 -0.64518,0.34044 h -0.21971 v 0.20554 c 0.19137,-0.0142 0.87906,-0.0142 1.11305,-0.0142 0.23388,0 0.91454,0 1.1059,0.0142 v -0.20554 h -0.21971 c -0.62386,0 -0.64517,-0.0851 -0.64517,-0.34044 z"
           style="stroke-width:7.08957" />
        <path
           id="use26177"
           d="m 457.53272,165.92723 h -0.15588 c -0.0213,0.1204 -0.078,0.50995 -0.14896,0.62332 -0.0496,0.0637 -0.4537,0.0637 -0.66638,0.0637 h -1.31156 c 0.19137,-0.16292 0.62387,-0.6163 0.8082,-0.78624 1.07757,-0.99178 1.47458,-1.36013 1.47458,-2.06167 0,-0.81663 -0.64507,-1.36358 -1.46755,-1.36358 -0.82237,0 -1.30441,0.70337 -1.30441,1.31393 0,0.36153 0.31188,0.36153 0.33319,0.36153 0.14885,0 0.33319,-0.10634 0.33319,-0.33319 0,-0.1985 -0.13468,-0.33319 -0.33319,-0.33319 -0.0638,0 -0.078,0 -0.0993,0.007 0.13479,-0.48355 0.51764,-0.81058 0.97837,-0.81058 0.60266,0 0.97133,0.50487 0.97133,1.15794 0,0.60234 -0.34736,1.12657 -0.75151,1.57995 l -1.43207,1.60125 v 0.17006 h 2.58763 z"
           style="stroke-width:7.08957" />
        <path
           id="use26179"
           d="m 459.19279,166.7774 c 0,-0.20565 -0.17016,-0.34747 -0.34033,-0.34747 -0.20553,0 -0.34736,0.17016 -0.34736,0.34033 0,0.20565 0.17017,0.34736 0.34033,0.34736 0.20554,0 0.34736,-0.17006 0.34736,-0.34022 z"
           style="stroke-width:7.08957" />
        <path
           id="use26181"
           d="m 460.72406,163.05671 c 0.30485,0.0992 0.55301,0.10634 0.631,0.10634 0.80106,0 1.31156,-0.58978 1.31156,-0.68952 0,-0.0284 -0.0142,-0.0638 -0.0567,-0.0638 -0.0142,0 -0.0283,0 -0.0922,0.0285 -0.39701,0.17135 -0.73734,0.1931 -0.92168,0.1931 -0.46787,0 -0.80117,-0.14356 -0.93585,-0.20024 -0.0496,-0.0213 -0.0638,-0.0213 -0.0709,-0.0213 -0.0567,0 -0.0567,0.0426 -0.0567,0.15631 v 2.10602 c 0,0.12765 0,0.17017 0.085,0.17017 0.0355,0 0.0425,-0.007 0.11348,-0.0922 0.19851,-0.29057 0.5317,-0.46073 0.8862,-0.46073 0.3757,0 0.56004,0.34736 0.61672,0.46787 0.12051,0.27639 0.12765,0.62376 0.12765,0.89312 0,0.26936 0,0.67373 -0.1985,0.99405 -0.15599,0.25627 -0.43249,0.43423 -0.74437,0.43423 -0.46798,0 -0.92882,-0.32032 -1.05636,-0.8399 0.0354,0.0142 0.078,0.0213 0.11337,0.0213 0.12051,0 0.31198,-0.071 0.31198,-0.31198 0,-0.19851 -0.13468,-0.31199 -0.31198,-0.31199 -0.12754,0 -0.31188,0.0638 -0.31188,0.34033 0,0.60396 0.48204,1.29359 1.26904,1.29359 0.80106,0 1.50292,-0.67546 1.50292,-1.57713 0,-0.84346 -0.56707,-1.54532 -1.31155,-1.54532 -0.40405,0 -0.71603,0.1773 -0.90037,0.3757 z"
           style="stroke-width:7.08957" />
        <path
           id="use26183"
           d="m 362.36561,173.3523 v -0.42546 h -2.10558 v -1.80323 h 0.91454 c 0.085,0 0.17016,0.007 0.25519,0.007 h 1.22653 v -0.44656 h -3.00595 v 4.90827 h 0.60969 v -2.24005 z"
           style="stroke-width:7.08957" />
        <path
           id="use26185"
           d="m 364.07418,170.77366 h -0.60969 v 0.6098 h 0.60969 v -0.6098 m -0.0425,1.66854 H 363.507 v 3.15015 h 0.52466 z"
           style="stroke-width:7.08957" />
        <path
           id="use26187"
           d="m 367.59065,173.45788 c 0,-0.4326 -0.0922,-1.08492 -0.95002,-1.08492 -0.39702,0 -0.73734,0.17731 -1.00671,0.51764 v -0.48215 h -0.50335 v 3.1839 h 0.53883 v -1.76569 c 0,-0.43963 0.16303,-1.02823 0.70186,-1.02823 0.65924,0 0.68055,0.46095 0.68055,0.70911 v 2.08481 h 0.53884 z"
           style="stroke-width:7.08957" />
        <path
           id="use26189"
           d="m 371.0291,173.9951 c 0,-0.30485 -0.0283,-0.73637 -0.2553,-1.1111 -0.29068,-0.48886 -0.78689,-0.54565 -0.99254,-0.54565 -0.76568,0 -1.40372,0.73658 -1.40372,1.65675 0,0.93617 0.68066,1.66648 1.50303,1.66648 0.32616,0 0.71603,-0.0921 1.10591,-0.3757 0,-0.0283 -0.0212,-0.24816 -0.0212,-0.26233 -0.007,-0.007 -0.0213,-0.16313 -0.0213,-0.19159 -0.41821,0.35461 -0.83654,0.40427 -1.04922,0.40427 -0.54587,0 -1.01384,-0.48929 -1.02802,-1.24113 h 2.16238 m -2.11986,-0.38285 c 0.12062,-0.47371 0.45381,-0.84844 0.87202,-0.84844 0.21982,0 0.709,0.099 0.82951,0.84844 z"
           style="stroke-width:7.08957" />
        <path
           id="use26191"
           d="m 373.14889,174.22433 v -0.4113 h -1.84336 v 0.4113 z"
           style="stroke-width:7.08957" />
        <path
           id="use26193"
           d="m 374.75108,172.85349 h 0.97836 v -0.41129 h -0.97836 v -0.90005 h -0.48919 v 0.90005 h -0.59552 v 0.41129 h 0.58135 v 1.90762 c 0,0.41129 0.0922,0.90047 0.58135,0.90047 0.47501,0 0.80117,-0.16302 1.02088,-0.27639 l -0.10634,-0.4113 c -0.24816,0.21982 -0.51038,0.24817 -0.63803,0.24817 -0.31199,0 -0.3545,-0.3333 -0.3545,-0.58146 z"
           style="stroke-width:7.08957" />
        <path
           id="use26195"
           d="m 379.0474,172.4422 h -0.53884 v 2.02812 c 0,0.53906 -0.3757,0.80139 -0.83654,0.80139 -0.49632,0 -0.54587,-0.18434 -0.54587,-0.49643 v -2.33308 h -0.53883 v 2.36142 c 0,0.5106 0.16302,0.85796 0.74437,0.85796 0.19851,0 0.75855,-0.0354 1.19105,-0.42535 v 0.3545 h 0.52466 z"
           style="stroke-width:7.08957" />
        <path
           id="use26197"
           d="m 382.60635,173.45788 c 0,-0.4326 -0.0922,-1.08492 -0.95002,-1.08492 -0.39702,0 -0.73734,0.17731 -1.00671,0.51764 v -0.48215 h -0.50335 v 3.1839 h 0.53883 v -1.76569 c 0,-0.43963 0.16303,-1.02823 0.70186,-1.02823 0.65924,0 0.68055,0.46095 0.68055,0.70911 v 2.08481 h 0.53884 z"
           style="stroke-width:7.08957" />
        <path
           id="use26199"
           d="m 386.04481,173.9951 c 0,-0.30485 -0.0283,-0.73637 -0.2553,-1.1111 -0.29068,-0.48886 -0.78689,-0.54565 -0.99254,-0.54565 -0.76568,0 -1.40372,0.73658 -1.40372,1.65675 0,0.93617 0.68066,1.66648 1.50303,1.66648 0.32616,0 0.71603,-0.0921 1.10591,-0.3757 0,-0.0283 -0.0212,-0.24816 -0.0212,-0.26233 -0.007,-0.007 -0.0213,-0.16313 -0.0213,-0.19159 -0.41821,0.35461 -0.83654,0.40427 -1.04922,0.40427 -0.54587,0 -1.01384,-0.48929 -1.02802,-1.24113 h 2.16238 m -2.11986,-0.38285 c 0.12062,-0.47371 0.45381,-0.84844 0.87202,-0.84844 0.21982,0 0.709,0.099 0.82951,0.84844 z"
           style="stroke-width:7.08957" />
        <path
           id="use26201"
           d="m 389.24217,170.6698 h -0.52456 v 2.07184 c -0.32615,-0.26937 -0.69482,-0.36868 -0.99967,-0.36868 -0.67352,0 -1.22653,0.72307 -1.22653,1.64431 0,0.91422 0.52467,1.64431 1.19819,1.64431 0.26233,0 0.65934,-0.085 1.01384,-0.43238 v 0.36153 h 0.53873 v -4.92093 m -0.53873,4.0846 c -0.17016,0.30474 -0.41832,0.48183 -0.73031,0.48183 -0.43239,0 -0.94288,-0.33308 -0.94288,-1.21182 0,-0.94255 0.60266,-1.22598 1.01385,-1.22598 0.2765,0 0.50335,0.14171 0.65934,0.37559 z"
           style="stroke-width:7.08957" />
        <path
           id="use26203"
           d="m 394.4912,173.54302 c 0.97836,0 1.65188,-0.70208 1.65188,-1.44007 0,-0.75227 -0.68769,-1.43315 -1.65188,-1.43315 h -1.72988 v 4.92255 h 0.60969 v -2.04933 h 1.12019 m -0.14886,-2.47609 c 0.82951,0 1.2407,0.49664 1.2407,1.02888 0,0.56058 -0.4325,1.03602 -1.2407,1.03602 h -0.9855 v -2.0649 z"
           style="stroke-width:7.08957" />
        <path
           id="use26205"
           d="m 399.1051,173.51403 c 0,-0.67947 -0.48918,-1.17568 -1.14853,-1.17568 -0.42536,0 -0.74437,0.0993 -1.09173,0.29781 l 0.0425,0.46733 c 0.31199,-0.22652 0.63804,-0.35385 1.04922,-0.35385 0.32616,0 0.60969,0.2619 0.60969,0.77856 v 0.29024 c -0.31901,0.0142 -0.74437,0.0355 -1.16973,0.17731 -0.47501,0.16302 -0.75151,0.42525 -0.75151,0.77975 0,0.31187 0.18433,0.88608 0.787,0.88608 0.38987,0 0.88619,-0.11337 1.14842,-0.33319 v 0.26234 h 0.52466 v -2.0767 m -0.53883,1.12678 c 0,0.14172 0,0.31188 -0.23389,0.4537 -0.19147,0.12051 -0.43249,0.14172 -0.53883,0.14172 -0.38285,0 -0.64518,-0.20554 -0.64518,-0.46787 0,-0.48205 0.98551,-0.58839 1.4179,-0.58839 z"
           style="stroke-width:7.08957" />
        <path
           id="use26207"
           d="m 400.53579,174.03945 c 0,-0.71625 0.53884,-1.18423 1.17688,-1.19137 v -0.47512 c -0.64518,0.007 -1.02088,0.38295 -1.21236,0.65957 v -0.62408 h -0.48918 v 3.1839 h 0.52466 z"
           style="stroke-width:7.08957" />
        <path
           id="use26209"
           d="m 404.58392,173.51403 c 0,-0.67947 -0.48918,-1.17568 -1.14853,-1.17568 -0.42536,0 -0.74437,0.0993 -1.09173,0.29781 l 0.0425,0.46733 c 0.31199,-0.22652 0.63804,-0.35385 1.04922,-0.35385 0.32616,0 0.60969,0.2619 0.60969,0.77856 v 0.29024 c -0.31901,0.0142 -0.74437,0.0355 -1.16973,0.17731 -0.47501,0.16302 -0.75151,0.42525 -0.75151,0.77975 0,0.31187 0.18433,0.88608 0.787,0.88608 0.38987,0 0.88619,-0.11337 1.14842,-0.33319 v 0.26234 h 0.52466 v -2.0767 m -0.53883,1.12678 c 0,0.14172 0,0.31188 -0.23389,0.4537 -0.19147,0.12051 -0.43249,0.14172 -0.53883,0.14172 -0.38285,0 -0.64518,-0.20554 -0.64518,-0.46787 0,-0.48205 0.98551,-0.58839 1.4179,-0.58839 z"
           style="stroke-width:7.08957" />
        <path
           id="use26211"
           d="m 410.07126,173.45788 c 0,-0.48929 -0.12754,-1.08492 -0.95705,-1.08492 -0.60267,0 -0.93586,0.41833 -1.04219,0.57432 -0.12765,-0.44667 -0.51753,-0.57432 -0.8862,-0.57432 -0.58135,0 -0.8862,0.37581 -1.00671,0.52467 v -0.48918 h -0.50335 v 3.1839 h 0.53883 v -1.76569 c 0,-0.46808 0.18423,-1.02823 0.70186,-1.02823 0.65221,0 0.68769,0.44678 0.68769,0.70911 v 2.08481 h 0.53873 v -1.76569 c 0,-0.46808 0.18434,-1.02823 0.70186,-1.02823 0.65232,0 0.68769,0.44678 0.68769,0.70911 v 2.08481 h 0.53884 z"
           style="stroke-width:7.08957" />
        <path
           id="use26213"
           d="m 413.50267,173.9951 c 0,-0.30485 -0.0283,-0.73637 -0.2553,-1.1111 -0.29068,-0.48886 -0.78689,-0.54565 -0.99254,-0.54565 -0.76568,0 -1.40372,0.73658 -1.40372,1.65675 0,0.93617 0.68066,1.66648 1.50303,1.66648 0.32616,0 0.71603,-0.0921 1.10591,-0.3757 0,-0.0283 -0.0212,-0.24816 -0.0212,-0.26233 -0.007,-0.007 -0.0213,-0.16313 -0.0213,-0.19159 -0.41821,0.35461 -0.83654,0.40427 -1.04922,0.40427 -0.54587,0 -1.01384,-0.48929 -1.02802,-1.24113 h 2.16238 m -2.11986,-0.38285 c 0.12062,-0.47371 0.45381,-0.84844 0.87202,-0.84844 0.21982,0 0.709,0.099 0.82951,0.84844 z"
           style="stroke-width:7.08957" />
        <path
           id="use26215"
           d="m 414.91343,172.85349 h 0.97836 v -0.41129 h -0.97836 v -0.90005 h -0.48919 v 0.90005 h -0.59552 v 0.41129 h 0.58135 v 1.90762 c 0,0.41129 0.0922,0.90047 0.58135,0.90047 0.47501,0 0.80117,-0.16302 1.02088,-0.27639 l -0.10634,-0.4113 c -0.24816,0.21982 -0.51038,0.24817 -0.63803,0.24817 -0.31199,0 -0.3545,-0.3333 -0.3545,-0.58146 z"
           style="stroke-width:7.08957" />
        <path
           id="use26217"
           d="m 419.08924,173.9951 c 0,-0.30485 -0.0283,-0.73637 -0.2553,-1.1111 -0.29068,-0.48886 -0.78689,-0.54565 -0.99254,-0.54565 -0.76568,0 -1.40372,0.73658 -1.40372,1.65675 0,0.93617 0.68066,1.66648 1.50303,1.66648 0.32616,0 0.71603,-0.0921 1.10591,-0.3757 0,-0.0283 -0.0212,-0.24816 -0.0212,-0.26233 -0.007,-0.007 -0.0213,-0.16313 -0.0213,-0.19159 -0.41821,0.35461 -0.83654,0.40427 -1.04922,0.40427 -0.54587,0 -1.01384,-0.48929 -1.02802,-1.24113 h 2.16238 m -2.11986,-0.38285 c 0.12062,-0.47371 0.45381,-0.84844 0.87202,-0.84844 0.21982,0 0.709,0.099 0.82951,0.84844 z"
           style="stroke-width:7.08957" />
        <path
           id="use26219"
           d="m 420.36532,174.03945 c 0,-0.71625 0.53884,-1.18423 1.17688,-1.19137 v -0.47512 c -0.64518,0.007 -1.02088,0.38295 -1.21236,0.65957 v -0.62408 h -0.48918 v 3.1839 h 0.52466 z"
           style="stroke-width:7.08957" />
        <path
           id="use26221"
           d="m 424.02359,172.55816 c -0.45381,-0.21267 -0.83665,-0.21981 -0.99968,-0.21981 -0.16302,0 -1.14853,0 -1.14853,0.92135 0,0.31166 0.17017,0.52423 0.27651,0.62343 0.25519,0.2196 0.43249,0.25498 0.85071,0.34001 0.23399,0.0496 0.64517,0.13468 0.64517,0.51017 0,0.48875 -0.553,0.48875 -0.6522,0.48875 -0.28365,0 -0.69483,-0.0779 -1.07767,-0.35418 l -0.085,0.48183 c 0.0355,0.0213 0.51752,0.31187 1.16973,0.31187 0.91465,0 1.13436,-0.5529 1.13436,-0.97079 0,-0.36131 -0.21971,-0.58806 -0.24816,-0.62343 -0.26223,-0.26926 -0.47491,-0.31177 -0.9074,-0.3968 -0.2552,-0.0495 -0.61684,-0.1204 -0.61684,-0.47468 0,-0.43921 0.49633,-0.43921 0.58849,-0.43921 0.37571,0 0.67352,0.085 0.9854,0.26212 z"
           style="stroke-width:7.08957" />
        <path
           id="use26223"
           d="m 428.49976,170.27517 c -1.06339,0.95002 -1.33286,2.38923 -1.33286,3.54479 0,1.24773 0.30485,2.63728 1.33286,3.55171 h 0.42536 c -0.2765,-0.2552 -0.70889,-0.8081 -0.95705,-1.60926 -0.19148,-0.6309 -0.26233,-1.29025 -0.26233,-1.93542 0,-2.09131 0.74437,-3.11218 1.21938,-3.55182 z"
           style="stroke-width:7.08957" />
        <path
           id="use26225"
           d="m 433.8312,170.5375 c 0.0495,-0.085 0.0495,-0.12051 0.0495,-0.12754 0,-0.0922 -0.0709,-0.13479 -0.12754,-0.13479 -0.0355,0 -0.0851,0 -0.15599,0.12765 l -3.0131,5.32497 c -0.0496,0.085 -0.0496,0.12051 -0.0496,0.12754 0,0.071 0.0568,0.13479 0.13468,0.13479 0.078,0 0.10634,-0.0568 0.14182,-0.12051 l 3.02023,-5.33211 m 0.87192,4.02683 c 0,-0.84422 -0.46073,-1.43282 -0.95705,-1.43282 -0.49622,0 -0.97123,0.5886 -0.97123,1.42579 0,0.85839 0.48204,1.43282 0.97123,1.43282 0.51049,0 0.95705,-0.60991 0.95705,-1.42579 m -0.95705,1.00033 c -0.14183,0 -0.43953,-0.12051 -0.43953,-1.00033 0,-0.91519 0.31188,-1.00746 0.43953,-1.00746 0.2765,0 0.46084,0.48961 0.46084,1.00043 0,0.53202 -0.19148,1.00736 -0.46084,1.00736 m -2.1269,-3.85775 c 0,-0.84336 -0.46084,-1.43174 -0.95705,-1.43174 -0.49632,0 -0.97134,0.58838 -0.97134,1.42471 0,0.85742 0.48216,1.43163 0.97134,1.43163 0.51049,0 0.95705,-0.60959 0.95705,-1.4246 m -0.95705,0.99924 c -0.14182,0 -0.43953,-0.12051 -0.43953,-0.99924 0,-0.91422 0.31188,-1.00628 0.43953,-1.00628 0.2765,0 0.46084,0.48897 0.46084,0.99925 0,0.53148 -0.19148,1.00627 -0.46084,1.00627 z"
           style="stroke-width:7.08957" />
        <path
           id="use26227"
           d="m 435.89427,177.37167 c 1.06339,-0.94992 1.33276,-2.38912 1.33276,-3.54468 0,-1.24773 -0.30485,-2.63717 -1.33276,-3.55182 h -0.42547 c 0.27651,0.2553 0.70901,0.80831 0.95717,1.60937 0.19136,0.631 0.26233,1.29024 0.26233,1.93542 0,2.0913 -0.74448,3.11218 -1.2195,3.55171 z"
           style="stroke-width:7.08957" />
        <g
           clip-path="url(#clip_35)"
           id="g26231">
          <path
             transform="matrix(0.44476,0,0,-0.44476,309.653,180.56702)"
             stroke-width="0.8"
             stroke-linecap="square"
             stroke-linejoin="round"
             fill="none"
             stroke="#bebebe"
             d="M 60.116575,48.99656 H 339.11659"
             id="path26229" />
        </g>
        <path
           transform="matrix(0.44476,0,0,-0.44476,309.653,180.56702)"
           d="m 60.116575,48.99656 h -3.5"
           id="path26233" />
        <path
           transform="matrix(0.44476,0,0,-0.44476,309.653,180.56702)"
           stroke-width="0.8"
           stroke-linecap="butt"
           stroke-linejoin="round"
           fill="none"
           stroke="#000000"
           d="m 60.116575,48.99656 h -3.5"
           id="path26235" />
        <path
           id="use26237"
           d="m 322.24058,158.69261 c -0.12051,0.007 -0.14885,0.0142 -0.14885,0.078 0,0.0709 0.0355,0.0709 0.16303,0.0709 h 0.32615 c 0.60256,0 0.87203,0.49687 0.87203,1.17806 0,0.92969 -0.48215,1.17839 -0.82951,1.17839 -0.34033,0 -0.92168,-0.16346 -1.12722,-0.63252 0.22685,0.0356 0.4325,-0.0921 0.4325,-0.34736 0,-0.20554 -0.14897,-0.34736 -0.34747,-0.34736 -0.17017,0 -0.3545,0.0992 -0.3545,0.36867 0,0.63166 0.631,1.14994 1.418,1.14994 0.84368,0 1.46755,-0.64615 1.46755,-1.36262 0,-0.65285 -0.52467,-1.16389 -1.20522,-1.2844 0.61673,-0.17752 1.01374,-0.69645 1.01374,-1.25011 0,-0.55939 -0.58135,-0.97003 -1.26904,-0.97003 -0.70889,0 -1.23356,0.43184 -1.23356,0.94883 0,0.28353 0.21982,0.34022 0.32616,0.34022 0.14885,0 0.31902,-0.10634 0.31902,-0.31902 0,-0.22685 -0.17017,-0.32616 -0.32616,-0.32616 -0.0425,0 -0.0567,0 -0.078,0.007 0.26948,-0.48085 0.93585,-0.48085 0.97134,-0.48085 0.23388,0 0.69472,0.10612 0.69472,0.79987 0,0.13468 -0.0212,0.53235 -0.22685,0.83795 -0.21268,0.31285 -0.4537,0.33416 -0.64518,0.3413 z"
           style="stroke-width:7.08957" />
        <path
           id="use26239"
           d="m 325.31036,157.17605 c 0.30485,0.0992 0.55301,0.10634 0.631,0.10634 0.80106,0 1.31156,-0.58978 1.31156,-0.68952 0,-0.0284 -0.0142,-0.0638 -0.0567,-0.0638 -0.0142,0 -0.0283,0 -0.0922,0.0284 -0.39701,0.17135 -0.73734,0.1931 -0.92168,0.1931 -0.46787,0 -0.80117,-0.14356 -0.93585,-0.20024 -0.0496,-0.0213 -0.0638,-0.0213 -0.0709,-0.0213 -0.0567,0 -0.0567,0.0426 -0.0567,0.15631 v 2.10602 c 0,0.12765 0,0.17017 0.085,0.17017 0.0355,0 0.0425,-0.007 0.11348,-0.0922 0.19851,-0.29057 0.5317,-0.46073 0.8862,-0.46073 0.3757,0 0.56004,0.34736 0.61672,0.46787 0.12051,0.27639 0.12765,0.62376 0.12765,0.89312 0,0.26936 0,0.67373 -0.1985,0.99405 -0.15599,0.25627 -0.43249,0.43423 -0.74437,0.43423 -0.46798,0 -0.92882,-0.32032 -1.05636,-0.8399 0.0354,0.0142 0.078,0.0213 0.11337,0.0213 0.12051,0 0.31198,-0.071 0.31198,-0.31198 0,-0.19851 -0.13468,-0.31199 -0.31198,-0.31199 -0.12754,0 -0.31188,0.0638 -0.31188,0.34033 0,0.60396 0.48204,1.29359 1.26904,1.29359 0.80106,0 1.50292,-0.67546 1.50292,-1.57713 0,-0.84346 -0.56707,-1.54532 -1.31155,-1.54532 -0.40405,0 -0.71603,0.1773 -0.90037,0.3757 z"
           style="stroke-width:7.08957" />
        <path
           id="use26241"
           d="m 329.18238,160.89674 c 0,-0.20565 -0.17016,-0.34747 -0.34033,-0.34747 -0.20553,0 -0.34736,0.17016 -0.34736,0.34033 0,0.20565 0.17017,0.34736 0.34033,0.34736 0.20554,0 0.34736,-0.17006 0.34736,-0.34022 z"
           style="stroke-width:7.08957" />
        <path
           id="use26243"
           d="m 332.98237,158.96998 c 0,-0.58893 -0.0355,-1.16368 -0.29068,-1.70295 -0.29068,-0.58881 -0.80117,-0.74491 -1.14853,-0.74491 -0.41119,0 -0.91454,0.20575 -1.17687,0.79467 -0.19851,0.447 -0.26947,0.88685 -0.26947,1.65319 0,0.68823 0.0497,1.20618 0.30495,1.70997 0.2764,0.53916 0.76558,0.70933 1.13425,0.70933 0.61683,0 0.97133,-0.36878 1.17687,-0.7803 0.2553,-0.53212 0.26948,-1.22749 0.26948,-1.639 m -1.44635,2.27758 c -0.22685,0 -0.68769,-0.12776 -0.82237,-0.90112 -0.078,-0.42569 -0.078,-0.96495 -0.078,-1.4616 0,-0.58189 0,-1.10688 0.11348,-1.52553 0.12051,-0.47534 0.48205,-0.69537 0.78689,-0.69537 0.26947,0 0.68066,0.16324 0.81534,0.77347 0.0922,0.40437 0.0922,0.96495 0.0922,1.44743 0,0.47533 0,1.0146 -0.078,1.44742 -0.13468,0.78051 -0.58135,0.9153 -0.82951,0.9153 z"
           style="stroke-width:7.08957" />
        <g
           clip-path="url(#clip_36)"
           id="g26247">
          <path
             transform="matrix(0.44476,0,0,-0.44476,309.653,180.56702)"
             stroke-width="0.8"
             stroke-linecap="square"
             stroke-linejoin="round"
             fill="none"
             stroke="#bebebe"
             d="M 60.116575,83.3602 H 339.11659"
             id="path26245" />
        </g>
        <path
           transform="matrix(0.44476,0,0,-0.44476,309.653,180.56702)"
           d="m 60.116575,83.3602 h -3.5"
           id="path26249" />
        <path
           transform="matrix(0.44476,0,0,-0.44476,309.653,180.56702)"
           stroke-width="0.8"
           stroke-linecap="butt"
           stroke-linejoin="round"
           fill="none"
           stroke="#000000"
           d="m 60.116575,83.3602 h -3.5"
           id="path26251" />
        <path
           id="use26253"
           d="m 322.24058,143.40905 c -0.12051,0.007 -0.14885,0.0142 -0.14885,0.078 0,0.0709 0.0355,0.0709 0.16303,0.0709 h 0.32615 c 0.60256,0 0.87203,0.49687 0.87203,1.17806 0,0.92969 -0.48215,1.17839 -0.82951,1.17839 -0.34033,0 -0.92168,-0.16346 -1.12722,-0.63252 0.22685,0.0356 0.4325,-0.0921 0.4325,-0.34736 0,-0.20554 -0.14897,-0.34736 -0.34747,-0.34736 -0.17017,0 -0.3545,0.0992 -0.3545,0.36867 0,0.63166 0.631,1.14994 1.418,1.14994 0.84368,0 1.46755,-0.64615 1.46755,-1.36262 0,-0.65285 -0.52467,-1.16389 -1.20522,-1.2844 0.61673,-0.17752 1.01374,-0.69645 1.01374,-1.25011 0,-0.55939 -0.58135,-0.97003 -1.26904,-0.97003 -0.70889,0 -1.23356,0.43184 -1.23356,0.94883 0,0.28353 0.21982,0.34022 0.32616,0.34022 0.14885,0 0.31902,-0.10634 0.31902,-0.31902 0,-0.22685 -0.17017,-0.32616 -0.32616,-0.32616 -0.0425,0 -0.0567,0 -0.078,0.007 0.26948,-0.48085 0.93585,-0.48085 0.97134,-0.48085 0.23388,0 0.69472,0.10612 0.69472,0.79987 0,0.13468 -0.0212,0.53235 -0.22685,0.83795 -0.21268,0.31285 -0.4537,0.33416 -0.64518,0.3413 z"
           style="stroke-width:7.08957" />
        <path
           id="use26255"
           d="m 325.31036,141.89249 c 0.30485,0.0992 0.55301,0.10634 0.631,0.10634 0.80106,0 1.31156,-0.58978 1.31156,-0.68952 0,-0.0284 -0.0142,-0.0638 -0.0567,-0.0638 -0.0142,0 -0.0283,0 -0.0922,0.0285 -0.39701,0.17135 -0.73734,0.1931 -0.92168,0.1931 -0.46787,0 -0.80117,-0.14356 -0.93585,-0.20024 -0.0496,-0.0213 -0.0638,-0.0213 -0.0709,-0.0213 -0.0567,0 -0.0567,0.0426 -0.0567,0.15631 v 2.10602 c 0,0.12765 0,0.17017 0.085,0.17017 0.0355,0 0.0425,-0.007 0.11348,-0.0922 0.19851,-0.29057 0.5317,-0.46073 0.8862,-0.46073 0.3757,0 0.56004,0.34736 0.61672,0.46787 0.12051,0.27639 0.12765,0.62376 0.12765,0.89312 0,0.26936 0,0.67373 -0.1985,0.99405 -0.15599,0.25627 -0.43249,0.43423 -0.74437,0.43423 -0.46798,0 -0.92882,-0.32032 -1.05636,-0.8399 0.0354,0.0142 0.078,0.0213 0.11337,0.0213 0.12051,0 0.31198,-0.071 0.31198,-0.31198 0,-0.19851 -0.13468,-0.31199 -0.31198,-0.31199 -0.12754,0 -0.31188,0.0638 -0.31188,0.34033 0,0.60396 0.48204,1.29359 1.26904,1.29359 0.80106,0 1.50292,-0.67546 1.50292,-1.57713 0,-0.84346 -0.56707,-1.54532 -1.31155,-1.54532 -0.40405,0 -0.71603,0.1773 -0.90037,0.3757 z"
           style="stroke-width:7.08957" />
        <path
           id="use26257"
           d="m 329.18238,145.61318 c 0,-0.20565 -0.17016,-0.34747 -0.34033,-0.34747 -0.20553,0 -0.34736,0.17016 -0.34736,0.34033 0,0.20565 0.17017,0.34736 0.34033,0.34736 0.20554,0 0.34736,-0.17006 0.34736,-0.34022 z"
           style="stroke-width:7.08957" />
        <path
           id="use26259"
           d="m 330.71365,141.89249 c 0.30485,0.0992 0.55301,0.10634 0.631,0.10634 0.80106,0 1.31156,-0.58978 1.31156,-0.68952 0,-0.0284 -0.0142,-0.0638 -0.0567,-0.0638 -0.0142,0 -0.0283,0 -0.0922,0.0285 -0.39701,0.17135 -0.73734,0.1931 -0.92168,0.1931 -0.46787,0 -0.80117,-0.14356 -0.93585,-0.20024 -0.0495,-0.0213 -0.0638,-0.0213 -0.0709,-0.0213 -0.0567,0 -0.0567,0.0426 -0.0567,0.15631 v 2.10602 c 0,0.12765 0,0.17017 0.085,0.17017 0.0355,0 0.0425,-0.007 0.11348,-0.0922 0.19851,-0.29057 0.5317,-0.46073 0.8862,-0.46073 0.3757,0 0.56004,0.34736 0.61672,0.46787 0.12051,0.27639 0.12765,0.62376 0.12765,0.89312 0,0.26936 0,0.67373 -0.1985,0.99405 -0.15599,0.25627 -0.43249,0.43423 -0.74437,0.43423 -0.46798,0 -0.92882,-0.32032 -1.05636,-0.8399 0.0354,0.0142 0.078,0.0213 0.11337,0.0213 0.12051,0 0.31198,-0.071 0.31198,-0.31198 0,-0.19851 -0.13468,-0.31199 -0.31198,-0.31199 -0.12754,0 -0.31188,0.0638 -0.31188,0.34033 0,0.60396 0.48204,1.29359 1.26904,1.29359 0.80106,0 1.50292,-0.67546 1.50292,-1.57713 0,-0.84346 -0.56707,-1.54532 -1.31155,-1.54532 -0.40405,0 -0.71603,0.1773 -0.90037,0.3757 z"
           style="stroke-width:7.08957" />
        <g
           clip-path="url(#clip_37)"
           id="g26263">
          <path
             transform="matrix(0.44476,0,0,-0.44476,309.653,180.56702)"
             stroke-width="0.8"
             stroke-linecap="square"
             stroke-linejoin="round"
             fill="none"
             stroke="#bebebe"
             d="M 60.116575,117.72383 H 339.11659"
             id="path26261" />
        </g>
        <path
           transform="matrix(0.44476,0,0,-0.44476,309.653,180.56702)"
           d="m 60.116575,117.72383 h -3.5"
           id="path26265" />
        <path
           transform="matrix(0.44476,0,0,-0.44476,309.653,180.56702)"
           stroke-width="0.8"
           stroke-linecap="butt"
           stroke-linejoin="round"
           fill="none"
           stroke="#000000"
           d="m 60.116575,117.72383 h -3.5"
           id="path26267" />
        <path
           id="use26269"
           d="m 322.24058,128.12547 c -0.12051,0.007 -0.14885,0.0142 -0.14885,0.078 0,0.0709 0.0355,0.0709 0.16303,0.0709 h 0.32615 c 0.60256,0 0.87203,0.49687 0.87203,1.17806 0,0.92969 -0.48215,1.17839 -0.82951,1.17839 -0.34033,0 -0.92168,-0.16346 -1.12722,-0.63252 0.22685,0.0356 0.4325,-0.0921 0.4325,-0.34736 0,-0.20554 -0.14897,-0.34736 -0.34747,-0.34736 -0.17017,0 -0.3545,0.0992 -0.3545,0.36867 0,0.63166 0.631,1.14994 1.418,1.14994 0.84368,0 1.46755,-0.64615 1.46755,-1.36262 0,-0.65285 -0.52467,-1.16389 -1.20522,-1.2844 0.61673,-0.17752 1.01374,-0.69645 1.01374,-1.25011 0,-0.55939 -0.58135,-0.97003 -1.26904,-0.97003 -0.70889,0 -1.23356,0.43184 -1.23356,0.94883 0,0.28353 0.21982,0.34022 0.32616,0.34022 0.14885,0 0.31902,-0.10634 0.31902,-0.31902 0,-0.22685 -0.17017,-0.32616 -0.32616,-0.32616 -0.0425,0 -0.0567,0 -0.078,0.007 0.26948,-0.48085 0.93585,-0.48085 0.97134,-0.48085 0.23388,0 0.69472,0.10612 0.69472,0.79987 0,0.13468 -0.0212,0.53235 -0.22685,0.83795 -0.21268,0.31285 -0.4537,0.33416 -0.64518,0.3413 z"
           style="stroke-width:7.08957" />
        <path
           id="use26271"
           d="m 325.27488,128.20454 c 0,-1.79283 0.87202,-2.0794 1.25487,-2.0794 0.2553,0 0.51049,0.0789 0.64517,0.2937 -0.085,0 -0.3545,0 -0.3545,0.29068 0,0.15599 0.10634,0.29067 0.29068,0.29067 0.1773,0 0.29781,-0.10633 0.29781,-0.31187 0,-0.36976 -0.26947,-0.73334 -0.8862,-0.73334 -0.89333,0 -1.82918,0.91767 -1.82918,2.47663 0,1.95089 0.85082,2.39052 1.45337,2.39052 0.77283,0 1.43218,-0.67373 1.43218,-1.59606 0,-0.94353 -0.65935,-1.57486 -1.36835,-1.57486 -0.63101,0 -0.86489,0.54619 -0.93585,0.74492 v -0.19159 m 0.87202,2.42623 c -0.44656,0 -0.65924,-0.39723 -0.72306,-0.5463 -0.0638,-0.18445 -0.13468,-0.53202 -0.13468,-1.02867 0,-0.56036 0.25519,-1.26277 0.89323,-1.26277 0.38998,0 0.59552,0.26255 0.70186,0.50368 0.11348,0.26255 0.11348,0.61727 0.11348,0.92233 0,0.36175 0,0.68098 -0.13469,0.95056 -0.1773,0.34055 -0.43249,0.46117 -0.71614,0.46117 z"
           style="stroke-width:7.08957" />
        <path
           id="use26273"
           d="m 329.18238,130.3296 c 0,-0.20565 -0.17016,-0.34747 -0.34033,-0.34747 -0.20553,0 -0.34736,0.17016 -0.34736,0.34033 0,0.20565 0.17017,0.34736 0.34033,0.34736 0.20554,0 0.34736,-0.17006 0.34736,-0.34022 z"
           style="stroke-width:7.08957" />
        <path
           id="use26275"
           d="m 332.98237,128.40284 c 0,-0.58893 -0.0355,-1.16368 -0.29068,-1.70295 -0.29068,-0.58881 -0.80117,-0.74491 -1.14853,-0.74491 -0.41119,0 -0.91454,0.20575 -1.17687,0.79467 -0.19851,0.447 -0.26947,0.88685 -0.26947,1.65319 0,0.68823 0.0497,1.20618 0.30495,1.70997 0.2764,0.53916 0.76558,0.70933 1.13425,0.70933 0.61683,0 0.97133,-0.36878 1.17687,-0.7803 0.2553,-0.53212 0.26948,-1.22749 0.26948,-1.639 m -1.44635,2.27758 c -0.22685,0 -0.68769,-0.12776 -0.82237,-0.90112 -0.078,-0.42569 -0.078,-0.96495 -0.078,-1.4616 0,-0.58189 0,-1.10688 0.11348,-1.52553 0.12051,-0.47534 0.48205,-0.69537 0.78689,-0.69537 0.26947,0 0.68066,0.16324 0.81534,0.77347 0.0922,0.40437 0.0922,0.96495 0.0922,1.44743 0,0.47533 0,1.0146 -0.078,1.44742 -0.13468,0.78051 -0.58135,0.9153 -0.82951,0.9153 z"
           style="stroke-width:7.08957" />
        <g
           clip-path="url(#clip_38)"
           id="g26279">
          <path
             transform="matrix(0.44476,0,0,-0.44476,309.653,180.56702)"
             stroke-width="0.8"
             stroke-linecap="square"
             stroke-linejoin="round"
             fill="none"
             stroke="#bebebe"
             d="M 60.116575,152.08747 H 339.11659"
             id="path26277" />
        </g>
        <path
           transform="matrix(0.44476,0,0,-0.44476,309.653,180.56702)"
           d="m 60.116575,152.08747 h -3.5"
           id="path26281" />
        <path
           transform="matrix(0.44476,0,0,-0.44476,309.653,180.56702)"
           stroke-width="0.8"
           stroke-linecap="butt"
           stroke-linejoin="round"
           fill="none"
           stroke="#000000"
           d="m 60.116575,152.08747 h -3.5"
           id="path26283" />
        <path
           id="use26285"
           d="m 322.24058,112.8419 c -0.12051,0.007 -0.14885,0.0142 -0.14885,0.078 0,0.0709 0.0355,0.0709 0.16303,0.0709 h 0.32615 c 0.60256,0 0.87203,0.49687 0.87203,1.17806 0,0.92969 -0.48215,1.17839 -0.82951,1.17839 -0.34033,0 -0.92168,-0.16346 -1.12722,-0.63252 0.22685,0.0356 0.4325,-0.0921 0.4325,-0.34736 0,-0.20554 -0.14897,-0.34736 -0.34747,-0.34736 -0.17017,0 -0.3545,0.0992 -0.3545,0.36867 0,0.63166 0.631,1.14994 1.418,1.14994 0.84368,0 1.46755,-0.64615 1.46755,-1.36262 0,-0.65285 -0.52467,-1.16389 -1.20522,-1.2844 0.61673,-0.17752 1.01374,-0.69645 1.01374,-1.25011 0,-0.55939 -0.58135,-0.97003 -1.26904,-0.97003 -0.70889,0 -1.23356,0.43184 -1.23356,0.94883 0,0.28353 0.21982,0.34022 0.32616,0.34022 0.14885,0 0.31902,-0.10634 0.31902,-0.31902 0,-0.22685 -0.17017,-0.32616 -0.32616,-0.32616 -0.0425,0 -0.0567,0 -0.078,0.007 0.26948,-0.48085 0.93585,-0.48085 0.97134,-0.48085 0.23388,0 0.69472,0.10612 0.69472,0.79987 0,0.13468 -0.0212,0.53235 -0.22685,0.83795 -0.21268,0.31285 -0.4537,0.33416 -0.64518,0.3413 z"
           style="stroke-width:7.08957" />
        <path
           id="use26287"
           d="m 325.27488,112.92097 c 0,-1.79283 0.87202,-2.0794 1.25487,-2.0794 0.2553,0 0.51049,0.0789 0.64517,0.2937 -0.085,0 -0.3545,0 -0.3545,0.29068 0,0.15599 0.10634,0.29067 0.29068,0.29067 0.1773,0 0.29781,-0.10633 0.29781,-0.31187 0,-0.36976 -0.26947,-0.73334 -0.8862,-0.73334 -0.89333,0 -1.82918,0.91767 -1.82918,2.47663 0,1.95089 0.85082,2.39052 1.45337,2.39052 0.77283,0 1.43218,-0.67373 1.43218,-1.59606 0,-0.94353 -0.65935,-1.57486 -1.36835,-1.57486 -0.63101,0 -0.86489,0.54619 -0.93585,0.74492 v -0.19159 m 0.87202,2.42623 c -0.44656,0 -0.65924,-0.39723 -0.72306,-0.5463 -0.0638,-0.18445 -0.13468,-0.53202 -0.13468,-1.02867 0,-0.56036 0.25519,-1.26277 0.89323,-1.26277 0.38998,0 0.59552,0.26255 0.70186,0.50368 0.11348,0.26255 0.11348,0.61727 0.11348,0.92233 0,0.36175 0,0.68098 -0.13469,0.95056 -0.1773,0.34055 -0.43249,0.46117 -0.71614,0.46117 z"
           style="stroke-width:7.08957" />
        <path
           id="use26289"
           d="m 329.18238,115.04603 c 0,-0.20565 -0.17016,-0.34747 -0.34033,-0.34747 -0.20553,0 -0.34736,0.17016 -0.34736,0.34033 0,0.20565 0.17017,0.34736 0.34033,0.34736 0.20554,0 0.34736,-0.17006 0.34736,-0.34022 z"
           style="stroke-width:7.08957" />
        <path
           id="use26291"
           d="m 330.71365,111.32534 c 0.30485,0.0992 0.55301,0.10634 0.631,0.10634 0.80106,0 1.31156,-0.58978 1.31156,-0.68952 0,-0.0284 -0.0142,-0.0638 -0.0567,-0.0638 -0.0142,0 -0.0283,0 -0.0922,0.0284 -0.39701,0.17135 -0.73734,0.1931 -0.92168,0.1931 -0.46787,0 -0.80117,-0.14356 -0.93585,-0.20024 -0.0495,-0.0213 -0.0638,-0.0213 -0.0709,-0.0213 -0.0567,0 -0.0567,0.0426 -0.0567,0.15631 v 2.10602 c 0,0.12765 0,0.17017 0.085,0.17017 0.0355,0 0.0425,-0.007 0.11348,-0.0922 0.19851,-0.29057 0.5317,-0.46073 0.8862,-0.46073 0.3757,0 0.56004,0.34736 0.61672,0.46787 0.12051,0.27639 0.12765,0.62376 0.12765,0.89312 0,0.26936 0,0.67373 -0.1985,0.99405 -0.15599,0.25627 -0.43249,0.43423 -0.74437,0.43423 -0.46798,0 -0.92882,-0.32032 -1.05636,-0.8399 0.0354,0.0142 0.078,0.0213 0.11337,0.0213 0.12051,0 0.31198,-0.071 0.31198,-0.31198 0,-0.19851 -0.13468,-0.31199 -0.31198,-0.31199 -0.12754,0 -0.31188,0.0638 -0.31188,0.34033 0,0.60396 0.48204,1.29359 1.26904,1.29359 0.80106,0 1.50292,-0.67546 1.50292,-1.57713 0,-0.84346 -0.56707,-1.54532 -1.31155,-1.54532 -0.40405,0 -0.71603,0.1773 -0.90037,0.3757 z"
           style="stroke-width:7.08957" />
        <g
           clip-path="url(#clip_39)"
           id="g26295">
          <path
             transform="matrix(0.44476,0,0,-0.44476,309.653,180.56702)"
             stroke-width="0.8"
             stroke-linecap="square"
             stroke-linejoin="round"
             fill="none"
             stroke="#bebebe"
             d="M 60.116575,186.45111 H 339.11659"
             id="path26293" />
        </g>
        <path
           transform="matrix(0.44476,0,0,-0.44476,309.653,180.56702)"
           d="m 60.116575,186.45111 h -3.5"
           id="path26297" />
        <path
           transform="matrix(0.44476,0,0,-0.44476,309.653,180.56702)"
           stroke-width="0.8"
           stroke-linecap="butt"
           stroke-linejoin="round"
           fill="none"
           stroke="#000000"
           d="m 60.116575,186.45111 h -3.5"
           id="path26299" />
        <path
           id="use26301"
           d="m 322.24058,97.558336 c -0.12051,0.0071 -0.14885,0.01417 -0.14885,0.078 0,0.07086 0.0355,0.07086 0.16303,0.07086 h 0.32615 c 0.60256,0 0.87203,0.496863 0.87203,1.178062 0,0.929684 -0.48215,1.178382 -0.82951,1.178382 -0.34033,0 -0.92168,-0.163453 -1.12722,-0.632514 0.22685,0.03559 0.4325,-0.09206 0.4325,-0.347361 0,-0.205539 -0.14897,-0.347361 -0.34747,-0.347361 -0.17017,0 -0.3545,0.0992 -0.3545,0.368672 0,0.631653 0.631,1.149934 1.418,1.149934 0.84368,0 1.46755,-0.646148 1.46755,-1.362613 0,-0.652856 -0.52467,-1.163891 -1.20522,-1.284401 0.61673,-0.177524 1.01374,-0.696455 1.01374,-1.250112 0,-0.55939 -0.58135,-0.970035 -1.26904,-0.970035 -0.70889,0 -1.23356,0.431848 -1.23356,0.948833 0,0.283535 0.21982,0.34022 0.32616,0.34022 0.14885,0 0.31902,-0.106339 0.31902,-0.319018 0,-0.22685 -0.17017,-0.326158 -0.32616,-0.326158 -0.0425,0 -0.0567,0 -0.078,0.0071 0.26948,-0.480853 0.93585,-0.480853 0.97134,-0.480853 0.23388,0 0.69472,0.106123 0.69472,0.799871 0,0.134682 -0.0212,0.532345 -0.22685,0.837949 -0.21268,0.312851 -0.4537,0.334163 -0.64518,0.341302 z"
           style="stroke-width:7.08957" />
        <path
           id="use26303"
           d="m 327.77044,95.703294 v -0.163133 h -1.70857 c -0.85785,0 -0.87202,-0.09368 -0.90036,-0.228473 h -0.156 l -0.21982,1.419625 h 0.156 c 0.0213,-0.127651 0.0851,-0.567179 0.1773,-0.645176 0.0567,-0.04252 0.58838,-0.04252 0.68769,-0.04252 h 1.50292 l -0.75151,1.077675 c -0.19137,0.276503 -0.9074,1.439312 -0.9074,2.772177 0,0.078 0,0.361541 0.29067,0.361541 0.29771,0 0.29771,-0.276405 0.29771,-0.368681 v -0.3545 c 0,-1.056361 0.17017,-1.878841 0.50335,-2.353852 z"
           style="stroke-width:7.08957" />
        <path
           id="use26305"
           d="m 329.18238,99.762469 c 0,-0.205647 -0.17016,-0.347469 -0.34033,-0.347469 -0.20553,0 -0.34736,0.170165 -0.34736,0.340329 0,0.205647 0.17017,0.347361 0.34033,0.347361 0.20554,0 0.34736,-0.170056 0.34736,-0.340221 z"
           style="stroke-width:7.08957" />
        <path
           id="use26307"
           d="m 332.98237,97.835705 c 0,-0.588923 -0.0355,-1.163674 -0.29068,-1.702943 -0.29068,-0.588815 -0.80117,-0.744916 -1.14853,-0.744916 -0.41119,0 -0.91454,0.205755 -1.17687,0.794678 -0.19851,0.446993 -0.26947,0.886846 -0.26947,1.653181 0,0.688231 0.0497,1.206188 0.30495,1.709975 0.2764,0.53916 0.76558,0.70933 1.13425,0.70933 0.61683,0 0.97133,-0.368785 1.17687,-0.780295 0.2553,-0.532129 0.26948,-1.2275 0.26948,-1.63901 m -1.44635,2.277585 c -0.22685,0 -0.68769,-0.127757 -0.82237,-0.901124 -0.078,-0.425681 -0.078,-0.964951 -0.078,-1.461597 0,-0.581891 0,-1.106881 0.11348,-1.525531 0.12051,-0.475335 0.48205,-0.69537 0.78689,-0.69537 0.26947,0 0.68066,0.163241 0.81534,0.773475 0.0922,0.404371 0.0922,0.964951 0.0922,1.447426 0,0.475335 0,1.014604 -0.078,1.447426 -0.13468,0.780506 -0.58135,0.915295 -0.82951,0.915295 z"
           style="stroke-width:7.08957" />
        <path
           id="use26309"
           d="m 312.85605,135.75818 v 0.80831 h 4.92255 v -0.54598 h -4.37635 v -0.007 c 0.48236,-0.0993 3.51817,-1.24783 4.2275,-1.5172 v -0.51752 c -0.61002,-0.23399 -3.70262,-1.40373 -4.23464,-1.53138 v -0.007 h 4.38349 v -0.54597 h -4.92255 v 0.8082 l 2.18466,0.8082 c 0.99308,0.36867 1.73789,0.64517 2.06416,0.71614 v 0.007 c -0.12062,0.0213 -0.38306,0.11348 -0.65968,0.20565 -0.38306,0.12754 -0.39723,0.12754 -0.68801,0.24102 z"
           style="stroke-width:7.08957" />
        <path
           id="use26311"
           d="m 313.33106,128.5481 v -0.62387 c 0,-0.085 0.007,-0.17016 0.007,-0.25519 v -0.92871 h -0.44666 v 4.23248 h 0.44666 v -0.93585 c 0,-0.085 -0.007,-0.17017 -0.007,-0.2552 v -0.62397 h 4.44753 v -0.60969 z"
           style="stroke-width:7.08957" />
        <path
           id="use26313"
           d="m 312.85605,123.51894 h 4.92255 v -1.82919 c 0,-0.99956 -0.63804,-1.72977 -1.33297,-1.72977 -0.62398,0 -1.12744,0.61673 -1.24092,1.34693 -0.22685,-0.8294 -0.7024,-1.14842 -1.11402,-1.14842 -0.63879,0 -1.23464,0.72306 -1.23464,1.72274 v 1.63771 m 2.15016,-0.57432 h -1.75303 v -0.87202 c 0,-0.75855 0.37613,-1.36824 0.84454,-1.36824 0.49687,0 0.90849,0.60969 0.90849,1.36121 v 0.87905 m 2.37538,0 h -1.95003 v -0.94288 c 0,-0.91454 0.5106,-1.48172 1.00693,-1.48172 0.49643,0 0.9431,0.57421 0.9431,1.36824 z"
           style="stroke-width:7.08957" />
        <path
           id="use26315"
           d="m 312.85605,118.32931 v 0.60969 h 4.92255 v -2.81458 h -0.4537 c 0.0142,0.62397 0.0142,1.2407 0.0142,1.86456 v 0.34033 z"
           style="stroke-width:7.08957" />
        <path
           id="use26317"
           d="m 315.43849,112.28896 h -0.42536 v 2.29706 h -1.70327 v -0.96419 c 0,-0.085 0.007,-0.17017 0.007,-0.25519 v -1.27618 h -0.44656 v 3.10525 h 4.90827 v -3.19742 h -0.48204 v 0.92882 c 0,0.085 0.007,0.17016 0.007,0.25519 v 1.40372 h -1.86521 z"
           style="stroke-width:7.08957" />
        <path
           id="use26319"
           d="m 312.85605,107.617 v 0.53873 h 3.27943 c 0.95121,0 1.39842,0.59552 1.39842,1.1627 0,0.56015 -0.44007,1.13436 -1.39842,1.13436 h -3.27943 v 0.60969 h 3.2724 c 1.04349,0 1.80247,-0.81523 1.80247,-1.73691 0,-0.92168 -0.77316,-1.70857 -1.80247,-1.70857 z"
           style="stroke-width:7.08957" />
        <g
           clip-path="url(#clip_40)"
           id="g26335">
          <path
             transform="matrix(0.44476,0,0,-0.44476,309.653,180.56702)"
             stroke-width="2"
             stroke-linecap="square"
             stroke-linejoin="round"
             fill="none"
             stroke="#0000ff"
             d="M 103.54219,90.232929 247.01328,55.86929"
             id="path26321" />
          <g
             clip-path="url(#clip_41)"
             id="g26327">
            <path
               transform="matrix(0.44476,0,0,-0.44476,355.70445,140.43503)"
               d="m 0,-5 c 1.326016,0 2.597899,0.526832 3.535534,1.464466 C 4.473168,-2.597899 5,-1.326016 5,0 5,1.326016 4.473168,2.597899 3.535534,3.535534 2.597899,4.473168 1.326016,5 0,5 -1.326016,5 -2.597899,4.473168 -3.535534,3.535534 -4.473168,2.597899 -5,1.326016 -5,0 -5,-1.326016 -4.473168,-2.597899 -3.535534,-3.535534 -2.597899,-4.473168 -1.326016,-5 0,-5 Z"
               fill="#0000ff"
               id="path26323" />
            <path
               transform="matrix(0.44476,0,0,-0.44476,355.70445,140.43503)"
               stroke-width="1"
               stroke-linecap="butt"
               stroke-linejoin="round"
               fill="none"
               stroke="#0000ff"
               d="m 0,-5 c 1.326016,0 2.597899,0.526832 3.535534,1.464466 C 4.473168,-2.597899 5,-1.326016 5,0 5,1.326016 4.473168,2.597899 3.535534,3.535534 2.597899,4.473168 1.326016,5 0,5 -1.326016,5 -2.597899,4.473168 -3.535534,3.535534 -4.473168,2.597899 -5,1.326016 -5,0 -5,-1.326016 -4.473168,-2.597899 -3.535534,-3.535534 -2.597899,-4.473168 -1.326016,-5 0,-5 Z"
               id="path26325" />
          </g>
          <g
             clip-path="url(#clip_42)"
             id="g26333">
            <path
               transform="matrix(0.44476,0,0,-0.44476,419.51463,155.7186)"
               d="m 0,-5 c 1.326016,0 2.597899,0.526832 3.535534,1.464466 C 4.473168,-2.597899 5,-1.326016 5,0 5,1.326016 4.473168,2.597899 3.535534,3.535534 2.597899,4.473168 1.326016,5 0,5 -1.326016,5 -2.597899,4.473168 -3.535534,3.535534 -4.473168,2.597899 -5,1.326016 -5,0 -5,-1.326016 -4.473168,-2.597899 -3.535534,-3.535534 -2.597899,-4.473168 -1.326016,-5 0,-5 Z"
               fill="#0000ff"
               id="path26329" />
            <path
               transform="matrix(0.44476,0,0,-0.44476,419.51463,155.7186)"
               stroke-width="1"
               stroke-linecap="butt"
               stroke-linejoin="round"
               fill="none"
               stroke="#0000ff"
               d="m 0,-5 c 1.326016,0 2.597899,0.526832 3.535534,1.464466 C 4.473168,-2.597899 5,-1.326016 5,0 5,1.326016 4.473168,2.597899 3.535534,3.535534 2.597899,4.473168 1.326016,5 0,5 -1.326016,5 -2.597899,4.473168 -3.535534,3.535534 -4.473168,2.597899 -5,1.326016 -5,0 -5,-1.326016 -4.473168,-2.597899 -3.535534,-3.535534 -2.597899,-4.473168 -1.326016,-5 0,-5 Z"
               id="path26331" />
          </g>
        </g>
        <g
           clip-path="url(#clip_43)"
           id="g26347">
          <path
             transform="matrix(0.44476,0,0,-0.44476,309.653,180.56702)"
             stroke-width="2"
             stroke-linecap="square"
             stroke-linejoin="round"
             fill="none"
             stroke="#0000ff"
             d="M 103.54219,90.232929 247.01328,131.46929"
             id="path26337" />
          <path
             transform="matrix(0.44476,0,0,-0.44476,309.653,180.56702)"
             d="m 103.54219,85.232929 5,10 h -10 z"
             fill="#0000ff"
             id="path26339" />
          <path
             transform="matrix(0.44476,0,0,-0.44476,309.653,180.56702)"
             stroke-width="1"
             stroke-linecap="butt"
             stroke-miterlimit="10"
             stroke-linejoin="miter"
             fill="none"
             stroke="#0000ff"
             d="m 103.54219,85.232929 5,10 h -10 z"
             id="path26341" />
          <path
             transform="matrix(0.44476,0,0,-0.44476,309.653,180.56702)"
             d="m 247.01328,126.46929 5,10 h -10 z"
             fill="#0000ff"
             id="path26343" />
          <path
             transform="matrix(0.44476,0,0,-0.44476,309.653,180.56702)"
             stroke-width="1"
             stroke-linecap="butt"
             stroke-miterlimit="10"
             stroke-linejoin="miter"
             fill="none"
             stroke="#0000ff"
             d="m 247.01328,126.46929 5,10 h -10 z"
             id="path26345" />
        </g>
        <g
           clip-path="url(#clip_44)"
           id="g26355">
          <path
             transform="matrix(0.44476,0,0,-0.44476,309.653,180.56702)"
             stroke-width="2"
             stroke-linecap="square"
             stroke-linejoin="round"
             fill="none"
             stroke="#0000ff"
             d="M 195.7736,131.46929"
             id="path26349" />
          <path
             transform="matrix(0.44476,0,0,-0.44476,309.653,180.56702)"
             d="m 190.7736,126.46929 h 10 v 10 h -10 z"
             fill="#0000ff"
             id="path26351" />
          <path
             transform="matrix(0.44476,0,0,-0.44476,309.653,180.56702)"
             stroke-width="1"
             stroke-linecap="butt"
             stroke-miterlimit="10"
             stroke-linejoin="miter"
             fill="none"
             stroke="#0000ff"
             d="m 190.7736,126.46929 h 10 v 10 h -10 z"
             id="path26353" />
        </g>
        <g
           clip-path="url(#clip_45)"
           id="g26377">
          <path
             transform="matrix(0.44476,0,0,-0.44476,309.653,180.56702)"
             stroke-width="2"
             stroke-linecap="butt"
             stroke-dasharray="7.4, 3.2"
             stroke-linejoin="round"
             fill="none"
             stroke="#ff0000"
             d="m 72.79839,145.21474 94.79339,48.1091 158.84298,13.74545"
             id="path26357" />
          <g
             clip-path="url(#clip_46)"
             id="g26363">
            <path
               transform="matrix(0.44476,0,0,-0.44476,342.03083,115.98131)"
               d="M 0,-5 5,5 H -5 Z"
               fill="#ff0000"
               id="path26359" />
            <path
               transform="matrix(0.44476,0,0,-0.44476,342.03083,115.98131)"
               stroke-width="1"
               stroke-linecap="butt"
               stroke-miterlimit="10"
               stroke-linejoin="miter"
               fill="none"
               stroke="#ff0000"
               d="M 0,-5 5,5 H -5 Z"
               id="path26361" />
          </g>
          <g
             clip-path="url(#clip_47)"
             id="g26369">
            <path
               transform="matrix(0.44476,0,0,-0.44476,384.19114,94.584308)"
               d="M 0,-5 5,5 H -5 Z"
               fill="#ff0000"
               id="path26365" />
            <path
               transform="matrix(0.44476,0,0,-0.44476,384.19114,94.584308)"
               stroke-width="1"
               stroke-linecap="butt"
               stroke-miterlimit="10"
               stroke-linejoin="miter"
               fill="none"
               stroke="#ff0000"
               d="M 0,-5 5,5 H -5 Z"
               id="path26367" />
          </g>
          <g
             clip-path="url(#clip_48)"
             id="g26375">
            <path
               transform="matrix(0.44476,0,0,-0.44476,454.83815,88.47088)"
               d="M 0,-5 5,5 H -5 Z"
               fill="#ff0000"
               id="path26371" />
            <path
               transform="matrix(0.44476,0,0,-0.44476,454.83815,88.47088)"
               stroke-width="1"
               stroke-linecap="butt"
               stroke-miterlimit="10"
               stroke-linejoin="miter"
               fill="none"
               stroke="#ff0000"
               d="M 0,-5 5,5 H -5 Z"
               id="path26373" />
          </g>
        </g>
        <g
           clip-path="url(#clip_49)"
           id="g26385">
          <path
             transform="matrix(0.44476,0,0,-0.44476,309.653,180.56702)"
             stroke-width="2"
             stroke-linecap="butt"
             stroke-dasharray="7.4, 3.2"
             stroke-linejoin="round"
             fill="none"
             stroke="#ff0000"
             d="M 167.59178,152.08747"
             id="path26379" />
          <path
             transform="matrix(0.44476,0,0,-0.44476,309.653,180.56702)"
             d="m 162.59178,147.08747 h 10 v 10 h -10 z"
             fill="#ff0000"
             id="path26381" />
          <path
             transform="matrix(0.44476,0,0,-0.44476,309.653,180.56702)"
             stroke-width="1"
             stroke-linecap="butt"
             stroke-miterlimit="10"
             stroke-linejoin="miter"
             fill="none"
             stroke="#ff0000"
             d="m 162.59178,147.08747 h 10 v 10 h -10 z"
             id="path26383" />
        </g>
        <path
           transform="matrix(0.44476,0,0,-0.44476,309.653,180.56702)"
           stroke-width="0.8"
           stroke-linecap="square"
           stroke-miterlimit="10"
           stroke-linejoin="miter"
           fill="none"
           stroke="#000000"
           d="M 60.116575,48.309289 V 214.62929"
           id="path26387" />
        <path
           transform="matrix(0.44476,0,0,-0.44476,309.653,180.56702)"
           stroke-width="0.8"
           stroke-linecap="square"
           stroke-miterlimit="10"
           stroke-linejoin="miter"
           fill="none"
           stroke="#000000"
           d="M 339.11659,48.309289 V 214.62929"
           id="path26389" />
        <path
           transform="matrix(0.44476,0,0,-0.44476,309.653,180.56702)"
           stroke-width="0.8"
           stroke-linecap="square"
           stroke-miterlimit="10"
           stroke-linejoin="miter"
           fill="none"
           stroke="#000000"
           d="M 60.116575,48.309289 H 339.11659"
           id="path26391" />
        <path
           transform="matrix(0.44476,0,0,-0.44476,309.653,180.56702)"
           stroke-width="0.8"
           stroke-linecap="square"
           stroke-miterlimit="10"
           stroke-linejoin="miter"
           fill="none"
           stroke="#000000"
           d="M 60.116575,214.62929 H 339.11659"
           id="path26393" />
        <g
           id="g26399">
          <path
             transform="matrix(0.44476,0,0,-0.44476,309.653,180.56702)"
             d="m 261.70246,54.309289 h 99.70414 c 1.59997,0 2.39999,0.8 2.39999,2.400001 v 88.57584 c 0,1.6 -0.80002,2.40001 -2.39999,2.40001 h -99.70414 c -1.6,0 -2.39999,-0.80001 -2.39999,-2.40001 V 56.70929 c 0,-1.600001 0.79999,-2.400001 2.39999,-2.400001 z"
             fill="#ffffff"
             fill-opacity="0.8"
             id="path26395" />
          <path
             transform="matrix(0.44476,0,0,-0.44476,309.653,180.56702)"
             stroke-width="1"
             stroke-linecap="butt"
             stroke-miterlimit="10"
             stroke-linejoin="miter"
             fill="none"
             stroke="#d5d6d5"
             stroke-opacity="0.8"
             d="m 261.70246,54.309289 h 99.70414 c 1.59997,0 2.39999,0.8 2.39999,2.400001 v 88.57584 c 0,1.6 -0.80002,2.40001 -2.39999,2.40001 h -99.70414 c -1.6,0 -2.39999,-0.80001 -2.39999,-2.40001 V 56.70929 c 0,-1.600001 0.79999,-2.400001 2.39999,-2.400001 z"
             id="path26397" />
        </g>
        <path
           transform="matrix(0.44476,0,0,-0.44476,309.653,180.56702)"
           stroke-width="2"
           stroke-linecap="square"
           stroke-linejoin="round"
           fill="none"
           stroke="#0000ff"
           d="m 264.10246,138.11876 h 24"
           id="path26401" />
        <path
           transform="matrix(0.44476,0,0,-0.44476,309.653,180.56702)"
           d="m 276.10246,133.11876 c 1.32602,0 2.5979,0.52683 3.53554,1.46446 0.93763,0.93764 1.46446,2.20952 1.46446,3.53554 0,1.32601 -0.52683,2.5979 -1.46446,3.53552 -0.93764,0.93764 -2.20952,1.46448 -3.53554,1.46448 -1.32602,0 -2.5979,-0.52684 -3.53552,-1.46448 -0.93766,-0.93762 -1.46448,-2.20951 -1.46448,-3.53552 0,-1.32602 0.52682,-2.5979 1.46448,-3.53554 0.93762,-0.93763 2.2095,-1.46446 3.53552,-1.46446 z"
           fill="#0000ff"
           id="path26403" />
        <path
           transform="matrix(0.44476,0,0,-0.44476,309.653,180.56702)"
           stroke-width="1"
           stroke-linecap="butt"
           stroke-linejoin="round"
           fill="none"
           stroke="#0000ff"
           d="m 276.10246,133.11876 c 1.32602,0 2.5979,0.52683 3.53554,1.46446 0.93763,0.93764 1.46446,2.20952 1.46446,3.53554 0,1.32601 -0.52683,2.5979 -1.46446,3.53552 -0.93764,0.93764 -2.20952,1.46448 -3.53554,1.46448 -1.32602,0 -2.5979,-0.52684 -3.53552,-1.46448 -0.93766,-0.93762 -1.46448,-2.20951 -1.46448,-3.53552 0,-1.32602 0.52682,-2.5979 1.46448,-3.53554 0.93762,-0.93763 2.2095,-1.46446 3.53552,-1.46446 z"
           id="path26405" />
        <path
           id="use26407"
           d="m 443.84036,119.46831 c 0.73377,0 1.23891,-0.52656 1.23891,-1.08005 0,-0.5642 -0.51576,-1.07486 -1.23891,-1.07486 h -1.29741 v 3.69191 h 0.45727 v -1.537 h 0.84014 m -0.11164,-1.85707 c 0.62213,0 0.93052,0.37249 0.93052,0.77167 0,0.42043 -0.32437,0.77701 -0.93052,0.77701 h -0.73913 v -1.54868 z"
           style="stroke-width:5.31718" />
        <path
           id="use26409"
           d="m 446.17464,119.84064 c 0,-0.53719 0.40413,-0.88818 0.88266,-0.89353 v -0.35634 c -0.48388,0.005 -0.76566,0.28721 -0.90927,0.49467 v -0.46806 h -0.36689 v 2.38793 h 0.3935 z"
           style="stroke-width:5.31718" />
        <path
           id="use26411"
           d="m 449.29587,119.80737 c 0,-0.22863 -0.0213,-0.55228 -0.19148,-0.83332 -0.218,-0.36665 -0.59016,-0.40924 -0.7444,-0.40924 -0.57426,0 -1.05279,0.55244 -1.05279,1.24256 0,0.70213 0.51049,1.24987 1.12727,1.24987 0.24462,0 0.53703,-0.069 0.82943,-0.28178 0,-0.0213 -0.0159,-0.18612 -0.0159,-0.19675 -0.005,-0.005 -0.016,-0.12235 -0.016,-0.14369 -0.31367,0.26596 -0.62741,0.3032 -0.78692,0.3032 -0.4094,0 -0.76038,-0.36697 -0.77101,-0.93085 h 1.62178 m -1.5899,-0.28713 c 0.0905,-0.35529 0.34036,-0.63633 0.65402,-0.63633 0.16487,0 0.53175,0.0742 0.62214,0.63633 z"
           style="stroke-width:5.31718" />
        <path
           id="use26413"
           d="m 451.82147,117.30821 h -0.43066 v 0.43074 h 0.43066 v -0.43074 m -0.0159,1.33449 h -0.3935 v 2.36261 h 0.3935 v -2.36261 m -1.44102,0.30847 h 0.61151 v -0.30847 h -0.62214 v -0.64859 c 0,-0.31902 0.17014,-0.41467 0.31375,-0.41467 0.11699,0 0.23391,0.0425 0.30839,0.0956 v -0.36153 c -0.10637,-0.0425 -0.14361,-0.0531 -0.30839,-0.0531 -0.3935,0 -0.69653,0.37751 -0.69653,0.8932 v 0.48907 h -0.38823 v 0.30847 h 0.38823 v 2.05415 h 0.39341 z"
           style="stroke-width:5.31718" />
        <path
           id="use26415"
           d="m 453.57618,119.78676 0.94115,-1.14406 h -0.44664 l -0.67,0.86204 -0.69653,-0.86204 h -0.452 l 0.96776,1.14406 -0.99429,1.21855 h 0.44129 l 0.73377,-0.98967 0.75503,0.98967 h 0.44664 z"
           style="stroke-width:5.31718" />
        <path
           id="use26417"
           d="m 457.75219,117.01742 c -0.79754,0.71252 -0.99965,1.79192 -0.99965,2.65859 0,0.9358 0.22864,1.97796 0.99965,2.66379 h 0.31902 c -0.20738,-0.1914 -0.53167,-0.60607 -0.71779,-1.20695 -0.14361,-0.47317 -0.19675,-0.96768 -0.19675,-1.45156 0,-1.56848 0.55828,-2.33414 0.91454,-2.66387 z"
           style="stroke-width:5.31718" />
        <path
           id="use26419"
           d="m 460.43737,119.44657 c 0,-0.5096 -0.36689,-0.88176 -0.8614,-0.88176 -0.31901,0 -0.55828,0.0745 -0.8188,0.22336 l 0.0319,0.3505 c 0.23399,-0.1699 0.47852,-0.26539 0.78691,-0.26539 0.24462,0 0.45727,0.19642 0.45727,0.58392 v 0.21768 c -0.23926,0.0106 -0.55828,0.0266 -0.8773,0.13298 -0.35625,0.12227 -0.56363,0.31893 -0.56363,0.58481 0,0.23391 0.13825,0.66457 0.59025,0.66457 0.2924,0 0.66464,-0.085 0.86131,-0.2499 v 0.19675 h 0.3935 v -1.55752 m -0.40413,0.84509 c 0,0.10628 0,0.23391 -0.17541,0.34027 -0.1436,0.0904 -0.32437,0.10629 -0.40412,0.10629 -0.28714,0 -0.48389,-0.15416 -0.48389,-0.35091 0,-0.36153 0.73913,-0.44128 1.06342,-0.44128 z"
           style="stroke-width:5.31718" />
        <path
           id="use26421"
           d="m 461.75602,118.95117 h 0.73378 v -0.30847 h -0.73378 v -0.67504 h -0.36688 v 0.67504 h -0.44664 v 0.30847 h 0.43601 v 1.43071 c 0,0.30847 0.0691,0.67536 0.43601,0.67536 0.35626,0 0.60088,-0.12227 0.76566,-0.2073 l -0.0797,-0.30847 c -0.18612,0.16486 -0.38279,0.18612 -0.47853,0.18612 -0.23399,0 -0.26587,-0.24997 -0.26587,-0.43609 z"
           style="stroke-width:5.31718" />
        <path
           id="use26423"
           d="m 463.63301,118.95117 h 0.73378 v -0.30847 h -0.73378 v -0.67504 h -0.36688 v 0.67504 h -0.44664 v 0.30847 h 0.43601 v 1.43071 c 0,0.30847 0.0691,0.67536 0.43601,0.67536 0.35626,0 0.60088,-0.12227 0.76566,-0.2073 l -0.0798,-0.30847 c -0.18612,0.16486 -0.38279,0.18612 -0.47853,0.18612 -0.23399,0 -0.26587,-0.24997 -0.26587,-0.43609 z"
           style="stroke-width:5.31718" />
        <path
           id="use26425"
           d="m 466.85524,119.40446 c 0,-0.32445 -0.0691,-0.81369 -0.71251,-0.81369 -0.29776,0 -0.55301,0.13298 -0.75503,0.38823 v -0.36162 h -0.37752 v 2.38793 h 0.40413 v -1.32426 c 0,-0.32973 0.12227,-0.77118 0.52639,-0.77118 0.49443,0 0.51042,0.34571 0.51042,0.53183 v 1.56361 h 0.40412 z"
           style="stroke-width:5.31718" />
        <path
           id="use26427"
           d="m 467.87615,122.3398 c 0.79754,-0.71244 0.99957,-1.79184 0.99957,-2.65851 0,-0.9358 -0.22864,-1.97788 -0.99957,-2.66387 h -0.3191 c 0.20738,0.19148 0.53175,0.60624 0.71787,1.20703 0.14353,0.47325 0.19675,0.96768 0.19675,1.45156 0,1.56848 -0.55836,2.33414 -0.91462,2.66379 z"
           style="stroke-width:5.31718" />
        <path
           transform="matrix(0.44476,0,0,-0.44476,309.653,180.56702)"
           stroke-width="2"
           stroke-linecap="square"
           stroke-linejoin="round"
           fill="none"
           stroke="#0000ff"
           d="m 264.10246,120.16358 h 24"
           id="path26429" />
        <path
           transform="matrix(0.44476,0,0,-0.44476,309.653,180.56702)"
           d="m 276.10246,115.16358 5,10 h -10 z"
           fill="#0000ff"
           id="path26431" />
        <path
           transform="matrix(0.44476,0,0,-0.44476,309.653,180.56702)"
           stroke-width="1"
           stroke-linecap="butt"
           stroke-miterlimit="10"
           stroke-linejoin="miter"
           fill="none"
           stroke="#0000ff"
           d="m 276.10246,115.16358 5,10 h -10 z"
           id="path26433" />
        <path
           id="use26435"
           d="m 443.84036,127.45406 c 0.73377,0 1.23891,-0.52656 1.23891,-1.08005 0,-0.5642 -0.51576,-1.07486 -1.23891,-1.07486 h -1.29741 v 3.69191 h 0.45727 v -1.537 h 0.84014 m -0.11164,-1.85707 c 0.62213,0 0.93052,0.37249 0.93052,0.77167 0,0.42043 -0.32437,0.77701 -0.93052,0.77701 h -0.73913 v -1.54868 z"
           style="stroke-width:5.31718" />
        <path
           id="use26437"
           d="m 446.88395,125.29915 h -0.4679 l -1.33992,3.69191 h 0.39349 l 0.38815,-1.08005 h 1.49943 l 0.3935,1.08005 h 0.47317 l -1.33992,-3.69191 m -0.27651,0.38303 0.63812,1.93107 h -1.2708 z"
           style="stroke-width:5.31718" />
        <path
           id="use26439"
           d="m 451.5173,125.00318 c -0.79754,0.71251 -0.99965,1.79191 -0.99965,2.65859 0,0.93579 0.22864,1.97795 0.99965,2.66378 h 0.31902 c -0.20738,-0.1914 -0.53167,-0.60607 -0.71779,-1.20695 -0.14361,-0.47317 -0.19675,-0.96768 -0.19675,-1.45156 0,-1.56848 0.55828,-2.33414 0.91454,-2.66386 z"
           style="stroke-width:5.31718" />
        <path
           id="use26441"
           d="m 454.20245,127.43232 c 0,-0.5096 -0.36689,-0.88176 -0.8614,-0.88176 -0.31901,0 -0.55828,0.0745 -0.8188,0.22336 l 0.0319,0.3505 c 0.23399,-0.1699 0.47852,-0.26539 0.78691,-0.26539 0.24462,0 0.45727,0.19642 0.45727,0.58392 v 0.21768 c -0.23926,0.0106 -0.55828,0.0266 -0.8773,0.13298 -0.35625,0.12227 -0.56363,0.31893 -0.56363,0.58481 0,0.23391 0.13825,0.66457 0.59025,0.66457 0.2924,0 0.66464,-0.085 0.86131,-0.2499 v 0.19675 h 0.3935 v -1.55752 m -0.40413,0.84509 c 0,0.10628 0,0.23391 -0.17541,0.34027 -0.1436,0.0904 -0.32437,0.10629 -0.40412,0.10629 -0.28714,0 -0.48389,-0.15416 -0.48389,-0.35091 0,-0.36153 0.73913,-0.44128 1.06342,-0.44128 z"
           style="stroke-width:5.31718" />
        <path
           id="use26443"
           d="m 455.52113,126.93692 h 0.73378 v -0.30847 h -0.73378 v -0.67504 h -0.36688 v 0.67504 h -0.44664 v 0.30847 h 0.43601 v 1.43071 c 0,0.30847 0.0691,0.67536 0.43601,0.67536 0.35626,0 0.60088,-0.12227 0.76566,-0.2073 l -0.0797,-0.30847 c -0.18612,0.16486 -0.38279,0.18612 -0.47853,0.18612 -0.23399,0 -0.26587,-0.24997 -0.26587,-0.43609 z"
           style="stroke-width:5.31718" />
        <path
           id="use26445"
           d="m 457.39808,126.93692 h 0.73378 v -0.30847 h -0.73378 v -0.67504 h -0.36688 v 0.67504 h -0.44664 v 0.30847 h 0.43601 v 1.43071 c 0,0.30847 0.0691,0.67536 0.43601,0.67536 0.35626,0 0.60088,-0.12227 0.76566,-0.2073 l -0.0797,-0.30847 c -0.18612,0.16486 -0.38279,0.18612 -0.47853,0.18612 -0.23399,0 -0.26587,-0.24997 -0.26587,-0.43609 z"
           style="stroke-width:5.31718" />
        <path
           id="use26447"
           d="m 460.62031,127.39021 c 0,-0.32445 -0.0691,-0.81369 -0.71251,-0.81369 -0.29776,0 -0.55301,0.13298 -0.75503,0.38823 v -0.36162 h -0.37752 v 2.38793 h 0.40413 v -1.32426 c 0,-0.32973 0.12227,-0.77118 0.52639,-0.77118 0.49443,0 0.51042,0.34571 0.51042,0.53183 v 1.56361 h 0.40412 z"
           style="stroke-width:5.31718" />
        <path
           id="use26449"
           d="m 461.64125,130.32555 c 0.79754,-0.71244 0.99957,-1.79184 0.99957,-2.65851 0,-0.9358 -0.22864,-1.97788 -0.99957,-2.66386 h -0.3191 c 0.20738,0.19147 0.53175,0.60623 0.71787,1.20702 0.14353,0.47325 0.19675,0.96768 0.19675,1.45157 0,1.56847 -0.55836,2.33413 -0.91462,2.66378 z"
           style="stroke-width:5.31718" />
        <path
           transform="matrix(0.44476,0,0,-0.44476,309.653,180.56702)"
           stroke-width="2"
           stroke-linecap="square"
           stroke-linejoin="round"
           fill="none"
           stroke="#0000ff"
           d="m 264.10246,102.20842 h 24"
           id="path26451" />
        <path
           transform="matrix(0.44476,0,0,-0.44476,309.653,180.56702)"
           d="m 271.10246,97.20842 h 10 v 10 h -10 z"
           fill="#0000ff"
           id="path26453" />
        <path
           transform="matrix(0.44476,0,0,-0.44476,309.653,180.56702)"
           stroke-width="1"
           stroke-linecap="butt"
           stroke-miterlimit="10"
           stroke-linejoin="miter"
           fill="none"
           stroke="#0000ff"
           d="m 271.10246,97.20842 h 10 v 10 h -10 z"
           id="path26455" />
        <path
           id="use26457"
           d="m 442.99495,133.28488 h -0.45727 v 3.69191 h 2.11093 v -0.34027 c -0.46798,0.0106 -0.93052,0.0106 -1.39842,0.0106 h -0.25524 z"
           style="stroke-width:5.31718" />
        <path
           id="use26459"
           d="m 447.30723,135.80644 c 0,-0.71731 -0.52639,-1.27015 -1.1379,-1.27015 -0.6274,0 -1.14317,0.56347 -1.14317,1.27015 0,0.69604 0.53167,1.22228 1.13782,1.22228 0.62749,0 1.14325,-0.53687 1.14325,-1.22228 m -1.1379,0.89263 c -0.38287,0 -0.73913,-0.31878 -0.73913,-0.94578 0,-0.6429 0.39886,-0.8979 0.73378,-0.8979 0.36689,0 0.73913,0.27626 0.73913,0.8979 0,0.65354 -0.37752,0.94578 -0.73378,0.94578 z"
           style="stroke-width:5.31718" />
        <path
           id="use26461"
           d="m 449.63083,135.24142 c 0.57954,-0.16486 0.89328,-0.56891 0.89328,-0.96233 0,-0.53158 -0.56899,-0.99421 -1.31866,-0.99421 h -1.2549 v 3.69191 h 0.44664 v -1.68758 h 0.82951 l 0.98367,1.68758 h 0.45727 l -1.03681,-1.73537 m -1.23364,-0.27123 v -1.38747 h 0.74976 c 0.64339,0 0.95705,0.3402 0.95705,0.69637 0,0.32965 -0.28713,0.6911 -0.95705,0.6911 z"
           style="stroke-width:5.31718" />
        <path
           id="use26463"
           d="m 452.76789,133.28488 h -0.4679 l -1.33992,3.69191 h 0.39349 l 0.38815,-1.08005 h 1.49943 l 0.3935,1.08005 h 0.47317 l -1.33992,-3.69191 m -0.27651,0.38303 0.63812,1.93107 h -1.2708 z"
           style="stroke-width:5.31718" />
        <path
           id="use26465"
           d="m 457.40122,132.9889 c -0.79754,0.71252 -0.99965,1.79192 -0.99965,2.65859 0,0.9358 0.22864,1.97796 0.99965,2.66379 h 0.31902 c -0.20738,-0.1914 -0.53167,-0.60607 -0.71779,-1.20695 -0.14361,-0.47317 -0.19675,-0.96768 -0.19675,-1.45156 0,-1.56848 0.55828,-2.33414 0.91454,-2.66387 z"
           style="stroke-width:5.31718" />
        <path
           id="use26467"
           d="m 460.08643,135.41805 c 0,-0.5096 -0.36689,-0.88176 -0.8614,-0.88176 -0.31901,0 -0.55828,0.0745 -0.8188,0.22336 l 0.0319,0.3505 c 0.23399,-0.1699 0.47852,-0.26539 0.78691,-0.26539 0.24462,0 0.45727,0.19642 0.45727,0.58392 v 0.21768 c -0.23926,0.0106 -0.55828,0.0266 -0.8773,0.13298 -0.35625,0.12227 -0.56363,0.31893 -0.56363,0.58481 0,0.23391 0.13825,0.66457 0.59025,0.66457 0.2924,0 0.66464,-0.085 0.86131,-0.2499 v 0.19675 h 0.3935 v -1.55752 m -0.40413,0.84509 c 0,0.10628 0,0.23391 -0.17541,0.34027 -0.1436,0.0904 -0.32437,0.10629 -0.40412,0.10629 -0.28714,0 -0.48389,-0.15416 -0.48389,-0.35091 0,-0.36153 0.73913,-0.44128 1.06342,-0.44128 z"
           style="stroke-width:5.31718" />
        <path
           id="use26469"
           d="m 461.40508,134.92265 h 0.73378 v -0.30847 h -0.73378 v -0.67504 h -0.36688 v 0.67504 h -0.44664 v 0.30847 h 0.43601 v 1.43071 c 0,0.30847 0.0691,0.67536 0.43601,0.67536 0.35626,0 0.60088,-0.12227 0.76566,-0.2073 l -0.0797,-0.30847 c -0.18612,0.16486 -0.38279,0.18612 -0.47853,0.18612 -0.23399,0 -0.26587,-0.24997 -0.26587,-0.43609 z"
           style="stroke-width:5.31718" />
        <path
           id="use26471"
           d="m 463.28205,134.92265 h 0.73378 v -0.30847 h -0.73378 v -0.67504 h -0.36688 v 0.67504 h -0.44664 v 0.30847 h 0.43601 v 1.43071 c 0,0.30847 0.0691,0.67536 0.43601,0.67536 0.35626,0 0.60088,-0.12227 0.76566,-0.2073 l -0.0797,-0.30847 c -0.18612,0.16486 -0.38279,0.18612 -0.47853,0.18612 -0.23399,0 -0.26587,-0.24997 -0.26587,-0.43609 z"
           style="stroke-width:5.31718" />
        <path
           id="use26473"
           d="m 466.50429,135.37594 c 0,-0.32445 -0.0691,-0.81369 -0.71251,-0.81369 -0.29776,0 -0.55301,0.13298 -0.75503,0.38823 v -0.36162 h -0.37752 v 2.38793 h 0.40413 v -1.32426 c 0,-0.32973 0.12227,-0.77118 0.52639,-0.77118 0.49443,0 0.51042,0.34571 0.51042,0.53183 v 1.56361 h 0.40412 z"
           style="stroke-width:5.31718" />
        <path
           id="use26475"
           d="m 467.52523,138.31128 c 0.79754,-0.71244 0.99957,-1.79184 0.99957,-2.65851 0,-0.9358 -0.22864,-1.97788 -0.99957,-2.66387 h -0.3191 c 0.20738,0.19148 0.53175,0.60624 0.71787,1.20703 0.14353,0.47325 0.19675,0.96768 0.19675,1.45156 0,1.56848 -0.55836,2.33414 -0.91462,2.66379 z"
           style="stroke-width:5.31718" />
        <path
           transform="matrix(0.44476,0,0,-0.44476,309.653,180.56702)"
           stroke-width="2"
           stroke-linecap="butt"
           stroke-dasharray="7.4, 3.2"
           stroke-linejoin="round"
           fill="none"
           stroke="#ff0000"
           d="m 264.10246,84.25325 h 24"
           id="path26477" />
        <path
           transform="matrix(0.44476,0,0,-0.44476,309.653,180.56702)"
           d="m 276.10246,79.25325 5,10 h -10 z"
           fill="#ff0000"
           id="path26479" />
        <path
           transform="matrix(0.44476,0,0,-0.44476,309.653,180.56702)"
           stroke-width="1"
           stroke-linecap="butt"
           stroke-miterlimit="10"
           stroke-linejoin="miter"
           fill="none"
           stroke="#ff0000"
           d="m 276.10246,79.25325 5,10 h -10 z"
           id="path26481" />
        <path
           id="use26483"
           d="m 443.84036,143.42554 c 0.73377,0 1.23891,-0.52656 1.23891,-1.08005 0,-0.5642 -0.51576,-1.07486 -1.23891,-1.07486 h -1.29741 v 3.69191 h 0.45727 v -1.537 h 0.84014 m -0.11164,-1.85707 c 0.62213,0 0.93052,0.37249 0.93052,0.77167 0,0.42043 -0.32437,0.77701 -0.93052,0.77701 h -0.73913 v -1.54868 z"
           style="stroke-width:5.31718" />
        <path
           id="use26485"
           d="m 446.88395,141.27063 h -0.4679 l -1.33992,3.69191 h 0.39349 l 0.38815,-1.08005 h 1.49943 l 0.3935,1.08005 h 0.47317 l -1.33992,-3.69191 m -0.27651,0.38303 0.63812,1.93107 h -1.2708 z"
           style="stroke-width:5.31718" />
        <path
           id="use26487"
           d="m 451.5173,140.97465 c -0.79754,0.71252 -0.99965,1.79192 -0.99965,2.65859 0,0.9358 0.22864,1.97796 0.99965,2.66379 h 0.31902 c -0.20738,-0.1914 -0.53167,-0.60607 -0.71779,-1.20695 -0.14361,-0.47317 -0.19675,-0.96768 -0.19675,-1.45156 0,-1.56848 0.55828,-2.33414 0.91454,-2.66387 z"
           style="stroke-width:5.31718" />
        <path
           id="use26489"
           d="m 453.04329,142.9084 h 0.57427 v -0.30847 h -0.5849 v -0.63731 c 0,-0.37175 0.32438,-0.42482 0.47853,-0.42482 0.19148,0 0.35099,0.0584 0.42011,0.0849 v -0.35082 c -0.0639,-0.016 -0.22863,-0.0532 -0.41475,-0.0532 -0.48389,0 -0.86667,0.36688 -0.86667,0.90326 v 0.47796 h -0.38823 v 0.30847 h 0.38823 v 2.05414 h 0.39341 v -2.05414 m 1.44102,0 h 0.57418 v -0.30847 h -0.58489 v -0.63731 c 0,-0.37175 0.32437,-0.42482 0.47861,-0.42482 0.19139,0 0.3509,0.0584 0.42003,0.0849 v -0.35082 c -0.0638,-0.016 -0.22864,-0.0532 -0.41476,-0.0532 -0.48388,0 -0.86667,0.36688 -0.86667,0.90326 v 2.84057 h 0.3935 z"
           style="stroke-width:5.31718" />
        <path
           id="use26491"
           d="m 457.41406,143.36169 c 0,-0.32445 -0.0691,-0.81369 -0.71251,-0.81369 -0.29776,0 -0.55301,0.13298 -0.75503,0.38823 v -0.36162 H 455.569 v 2.38793 h 0.40413 v -1.32426 c 0,-0.32973 0.12227,-0.77118 0.52639,-0.77118 0.49443,0 0.51042,0.34571 0.51042,0.53183 v 1.56361 h 0.40412 z"
           style="stroke-width:5.31718" />
        <path
           id="use26493"
           d="m 458.43499,146.29703 c 0.79754,-0.71244 0.99957,-1.79184 0.99957,-2.65851 0,-0.9358 -0.22864,-1.97788 -0.99957,-2.66387 h -0.3191 c 0.20738,0.19148 0.53175,0.60624 0.71787,1.20703 0.14353,0.47325 0.19675,0.96768 0.19675,1.45156 0,1.56848 -0.55836,2.33414 -0.91462,2.66379 z"
           style="stroke-width:5.31718" />
        <path
           transform="matrix(0.44476,0,0,-0.44476,309.653,180.56702)"
           stroke-width="2"
           stroke-linecap="butt"
           stroke-dasharray="7.4, 3.2"
           stroke-linejoin="round"
           fill="none"
           stroke="#ff0000"
           d="m 264.10246,66.29808 h 24"
           id="path26495" />
        <path
           transform="matrix(0.44476,0,0,-0.44476,309.653,180.56702)"
           d="m 271.10246,61.29808 h 10 v 10 h -10 z"
           fill="#ff0000"
           id="path26497" />
        <path
           transform="matrix(0.44476,0,0,-0.44476,309.653,180.56702)"
           stroke-width="1"
           stroke-linecap="butt"
           stroke-miterlimit="10"
           stroke-linejoin="miter"
           fill="none"
           stroke="#ff0000"
           d="m 271.10246,61.29808 h 10 v 10 h -10 z"
           id="path26499" />
        <path
           id="use26501"
           d="m 442.99495,149.25637 h -0.45727 v 3.69191 h 2.11093 v -0.34027 c -0.46798,0.0106 -0.93052,0.0106 -1.39842,0.0106 h -0.25524 z"
           style="stroke-width:5.31718" />
        <path
           id="use26503"
           d="m 447.30723,151.77793 c 0,-0.71731 -0.52639,-1.27015 -1.1379,-1.27015 -0.6274,0 -1.14317,0.56347 -1.14317,1.27015 0,0.69604 0.53167,1.22228 1.13782,1.22228 0.62749,0 1.14325,-0.53687 1.14325,-1.22228 m -1.1379,0.89263 c -0.38287,0 -0.73913,-0.31878 -0.73913,-0.94578 0,-0.6429 0.39886,-0.8979 0.73378,-0.8979 0.36689,0 0.73913,0.27626 0.73913,0.8979 0,0.65354 -0.37752,0.94578 -0.73378,0.94578 z"
           style="stroke-width:5.31718" />
        <path
           id="use26505"
           d="m 449.63083,151.21291 c 0.57954,-0.16486 0.89328,-0.56891 0.89328,-0.96233 0,-0.53158 -0.56899,-0.99421 -1.31866,-0.99421 h -1.2549 v 3.69191 h 0.44664 v -1.68758 h 0.82951 l 0.98367,1.68758 h 0.45727 l -1.03681,-1.73537 m -1.23364,-0.27123 v -1.38747 h 0.74976 c 0.64339,0 0.95705,0.3402 0.95705,0.69637 0,0.32965 -0.28713,0.6911 -0.95705,0.6911 z"
           style="stroke-width:5.31718" />
        <path
           id="use26507"
           d="m 452.76789,149.25637 h -0.4679 l -1.33992,3.69191 h 0.39349 l 0.38815,-1.08005 h 1.49943 l 0.3935,1.08005 h 0.47317 l -1.33992,-3.69191 m -0.27651,0.38303 0.63812,1.93107 h -1.2708 z"
           style="stroke-width:5.31718" />
        <path
           id="use26509"
           d="m 457.40122,148.96039 c -0.79754,0.71252 -0.99965,1.79192 -0.99965,2.65859 0,0.9358 0.22864,1.97796 0.99965,2.66379 h 0.31902 c -0.20738,-0.1914 -0.53167,-0.60607 -0.71779,-1.20695 -0.14361,-0.47317 -0.19675,-0.96768 -0.19675,-1.45156 0,-1.56848 0.55828,-2.33414 0.91454,-2.66387 z"
           style="stroke-width:5.31718" />
        <path
           id="use26511"
           d="m 458.92727,150.89414 h 0.57427 v -0.30847 h -0.5849 v -0.63731 c 0,-0.37175 0.32438,-0.42482 0.47853,-0.42482 0.19148,0 0.35099,0.0584 0.42011,0.0849 v -0.35082 c -0.0638,-0.016 -0.22863,-0.0532 -0.41475,-0.0532 -0.48389,0 -0.86667,0.36688 -0.86667,0.90326 v 0.47796 h -0.38823 v 0.30847 h 0.38823 v 2.05414 h 0.39341 v -2.05414 m 1.44102,0 h 0.57418 v -0.30847 h -0.58489 v -0.63731 c 0,-0.37175 0.32437,-0.42482 0.47861,-0.42482 0.19139,0 0.3509,0.0584 0.42003,0.0849 v -0.35082 c -0.0638,-0.016 -0.22864,-0.0532 -0.41476,-0.0532 -0.48388,0 -0.86667,0.36688 -0.86667,0.90326 v 2.84057 h 0.3935 z"
           style="stroke-width:5.31718" />
        <path
           id="use26513"
           d="m 463.29805,151.34743 c 0,-0.32445 -0.0691,-0.81369 -0.71251,-0.81369 -0.29776,0 -0.55301,0.13298 -0.75503,0.38823 v -0.36162 h -0.37752 v 2.38793 h 0.40413 v -1.32426 c 0,-0.32973 0.12227,-0.77118 0.52639,-0.77118 0.49443,0 0.51042,0.34571 0.51042,0.53183 v 1.56361 h 0.40412 z"
           style="stroke-width:5.31718" />
        <path
           id="use26515"
           d="m 464.31893,154.28277 c 0.79754,-0.71244 0.99957,-1.79184 0.99957,-2.65851 0,-0.9358 -0.22864,-1.97788 -0.99957,-2.66387 h -0.3191 c 0.20738,0.19148 0.53175,0.60624 0.71787,1.20703 0.14353,0.47325 0.19675,0.96768 0.19675,1.45156 0,1.56848 -0.55836,2.33414 -0.91462,2.66379 z"
           style="stroke-width:5.31718" />
      </g>
    </g>
  </g>
</svg>
