<?xml version="1.0" encoding="UTF-8" standalone="no"?>
<!-- Created with Inkscape (http://www.inkscape.org/) -->

<svg
   width="41.073174mm"
   height="40.111099mm"
   viewBox="0 0 41.073174 40.111099"
   version="1.1"
   id="svg48144"
   inkscape:version="1.2.2 (b0a84865, 2022-12-01)"
   sodipodi:docname="figure4b.svg"
   xmlns:inkscape="http://www.inkscape.org/namespaces/inkscape"
   xmlns:sodipodi="http://sodipodi.sourceforge.net/DTD/sodipodi-0.dtd"
   xmlns="http://www.w3.org/2000/svg"
   xmlns:svg="http://www.w3.org/2000/svg">
  <sodipodi:namedview
     id="namedview48146"
     pagecolor="#ffffff"
     bordercolor="#999999"
     borderopacity="1"
     inkscape:showpageshadow="0"
     inkscape:pageopacity="0"
     inkscape:pagecheckerboard="0"
     inkscape:deskcolor="#d1d1d1"
     inkscape:document-units="mm"
     showgrid="false"
     inkscape:zoom="0.914906"
     inkscape:cx="-154.11419"
     inkscape:cy="401.68061"
     inkscape:window-width="1390"
     inkscape:window-height="1205"
     inkscape:window-x="0"
     inkscape:window-y="25"
     inkscape:window-maximized="0"
     inkscape:current-layer="layer1" />
  <defs
     id="defs48141">
    <clipPath
       id="clip_46">
      <path
         transform="matrix(0.20978,0,0,-0.20978,226.801,207.51599)"
         d="M 0,0 H 555 V 542 H 0 Z"
         id="path37817" />
    </clipPath>
    <clipPath
       id="clip_47">
      <path
         transform="matrix(0.20978,0,0,-0.20978,98.20586,254.50672)"
         d="M 0,0 H 1920 V 1080 H 0 Z"
         id="path37820" />
    </clipPath>
    <clipPath
       id="clip_48">
      <path
         transform="matrix(0.20978,0,0,-0.20978,98.20586,254.50672)"
         d="M 0,0 H 1920 V 1080 H 0 Z"
         id="path37823" />
    </clipPath>
    <clipPath
       id="clip_49">
      <path
         transform="matrix(0.20978,0,0,-0.20978,98.20586,254.50672)"
         d="m 601.881,212.3105 h 579 v 564.6158 h -579 z"
         id="path37826" />
    </clipPath>
    <clipPath
       id="clip_50">
      <path
         transform="matrix(0.20978,0,0,-0.20978,98.20586,254.50672)"
         d="m 686.7806,299.6485 h 468.2155 V 764.8432 H 686.7806 Z"
         id="path37829" />
    </clipPath>
    <clipPath
       id="clip_51">
      <path
         transform="matrix(0.20978,0,0,-0.20978,98.20586,254.50672)"
         d="m 601.881,212.3105 h 579 v 564.6158 h -579 z"
         id="path37832" />
    </clipPath>
    <clipPath
       id="clip_53">
      <path
         transform="matrix(0.20978,0,0,-0.20978,98.20586,254.50672)"
         d="m 686.7806,299.6485 h 468.2155 V 764.8432 H 686.7806 Z"
         id="path37836" />
    </clipPath>
    <clipPath
       id="clip_54">
      <path
         transform="matrix(0.20978,0,0,-0.20978,98.20586,254.50672)"
         d="m 601.881,212.3105 h 579 v 564.6158 h -579 z"
         id="path37839" />
    </clipPath>
    <clipPath
       id="clip_55">
      <path
         transform="matrix(0.20978,0,0,-0.20978,98.20586,254.50672)"
         d="m 686.7806,299.6485 h 468.2155 V 764.8432 H 686.7806 Z"
         id="path37843" />
    </clipPath>
    <clipPath
       id="clip_56">
      <path
         transform="matrix(0.20978,0,0,-0.20978,98.20586,254.50672)"
         d="m 601.881,212.3105 h 579 v 564.6158 h -579 z"
         id="path37846" />
    </clipPath>
    <clipPath
       id="clip_57">
      <path
         transform="matrix(0.20978,0,0,-0.20978,98.20586,254.50672)"
         d="m 686.7806,299.6485 h 468.2155 V 764.8432 H 686.7806 Z"
         id="path37850" />
    </clipPath>
    <clipPath
       id="clip_58">
      <path
         transform="matrix(0.20978,0,0,-0.20978,98.20586,254.50672)"
         d="m 601.881,212.3105 h 579 v 564.6158 h -579 z"
         id="path37853" />
    </clipPath>
    <clipPath
       id="clip_60">
      <path
         transform="matrix(0.20978,0,0,-0.20978,98.20586,254.50672)"
         d="m 686.7806,299.6485 h 468.2155 V 764.8432 H 686.7806 Z"
         id="path37872" />
    </clipPath>
    <clipPath
       id="clip_61">
      <path
         transform="matrix(0.20978,0,0,-0.20978,98.20586,254.50672)"
         d="m 601.881,212.3105 h 579 v 564.6158 h -579 z"
         id="path37875" />
    </clipPath>
    <clipPath
       id="clip_62">
      <path
         transform="matrix(0.20978,0,0,-0.20978,98.20586,254.50672)"
         d="m 686.7806,299.6485 h 468.2155 V 764.8432 H 686.7806 Z"
         id="path37880" />
    </clipPath>
    <clipPath
       id="clip_63">
      <path
         transform="matrix(0.20978,0,0,-0.20978,98.20586,254.50672)"
         d="m 601.881,212.3105 h 579 v 564.6158 h -579 z"
         id="path37883" />
    </clipPath>
    <clipPath
       id="clip_64">
      <path
         transform="matrix(0.20978,0,0,-0.20978,98.20586,254.50672)"
         d="m 686.7806,299.6485 h 468.2155 V 764.8432 H 686.7806 Z"
         id="path37887" />
    </clipPath>
    <clipPath
       id="clip_65">
      <path
         transform="matrix(0.20978,0,0,-0.20978,98.20586,254.50672)"
         d="m 601.881,212.3105 h 579 v 564.6158 h -579 z"
         id="path37890" />
    </clipPath>
    <clipPath
       id="clip_66">
      <path
         transform="matrix(0.20978,0,0,-0.20978,98.20586,254.50672)"
         d="m 686.7806,299.6485 h 468.2155 V 764.8432 H 686.7806 Z"
         id="path37894" />
    </clipPath>
    <clipPath
       id="clip_67">
      <path
         transform="matrix(0.20978,0,0,-0.20978,98.20586,254.50672)"
         d="m 601.881,212.3105 h 579 v 564.6158 h -579 z"
         id="path37897" />
    </clipPath>
    <clipPath
       id="clip_68">
      <path
         transform="matrix(0.20978,0,0,-0.20978,98.20586,254.50672)"
         d="m 686.7806,299.6485 h 468.2155 V 764.8432 H 686.7806 Z"
         id="path37900" />
    </clipPath>
    <clipPath
       id="clip_69">
      <path
         transform="matrix(0.20978,0,0,-0.20978,98.20586,254.50672)"
         d="m 601.881,212.3105 h 579 v 564.6158 h -579 z"
         id="path37903" />
    </clipPath>
    <clipPath
       id="clip_70">
      <path
         transform="matrix(0.20978,0,0,-0.20978,98.20586,254.50672)"
         d="m 686.7806,299.6485 h 468.2155 V 764.8432 H 686.7806 Z"
         id="path37907" />
    </clipPath>
    <clipPath
       id="clip_71">
      <path
         transform="matrix(0.20978,0,0,-0.20978,98.20586,254.50672)"
         d="m 601.881,212.3105 h 579 v 564.6158 h -579 z"
         id="path37910" />
    </clipPath>
    <clipPath
       id="clip_72">
      <path
         transform="matrix(0.20978,0,0,-0.20978,98.20586,254.50672)"
         d="m 686.7806,299.6485 h 468.2155 V 764.8432 H 686.7806 Z"
         id="path37919" />
    </clipPath>
    <clipPath
       id="clip_73">
      <path
         transform="matrix(0.20978,0,0,-0.20978,98.20586,254.50672)"
         d="m 699.5312,311.5637 h 18.4601 v 18.4601 h -18.4601 z"
         id="path37922" />
    </clipPath>
    <clipPath
       id="clip_74">
      <path
         transform="matrix(0.20978,0,0,-0.20978,98.20586,254.50672)"
         d="m 730.6639,623.366 h 18.46009 v 18.4601 H 730.6639 Z"
         id="path37925" />
    </clipPath>
    <clipPath
       id="clip_75">
      <path
         transform="matrix(0.20978,0,0,-0.20978,98.20586,254.50672)"
         d="m 913.1657,695.0447 h 18.4601 v 18.46009 h -18.4601 z"
         id="path37928" />
    </clipPath>
    <clipPath
       id="clip_76">
      <path
         transform="matrix(0.20978,0,0,-0.20978,98.20586,254.50672)"
         d="m 1127.874,709.3805 h 18.4601 v 18.4601 h -18.4601 z"
         id="path37931" />
    </clipPath>
    <clipPath
       id="clip_77">
      <path
         transform="matrix(0.20978,0,0,-0.20978,98.20586,254.50672)"
         d="m 686.7806,299.6485 h 468.2155 V 764.8432 H 686.7806 Z"
         id="path37934" />
    </clipPath>
    <clipPath
       id="clip_78">
      <path
         transform="matrix(0.20978,0,0,-0.20978,98.20586,254.50672)"
         d="m 709.1931,580.3588 h 18.4601 v 18.4601 h -18.4601 z"
         id="path37937" />
    </clipPath>
    <clipPath
       id="clip_79">
      <path
         transform="matrix(0.20978,0,0,-0.20978,98.20586,254.50672)"
         d="m 770.027,673.5411 h 18.46009 v 18.46009 H 770.027 Z"
         id="path37940" />
    </clipPath>
    <clipPath
       id="clip_80">
      <path
         transform="matrix(0.20978,0,0,-0.20978,98.20586,254.50672)"
         d="m 881.6752,698.6287 h 18.46008 v 18.4601 H 881.6752 Z"
         id="path37943" />
    </clipPath>
    <clipPath
       id="clip_81">
      <path
         transform="matrix(0.20978,0,0,-0.20978,98.20586,254.50672)"
         d="m 1064.893,712.9644 h 18.46 v 18.4601 h -18.46 z"
         id="path37946" />
    </clipPath>
    <clipPath
       id="clip_82">
      <path
         transform="matrix(0.20978,0,0,-0.20978,98.20586,254.50672)"
         d="m 686.7806,299.6485 h 468.2155 V 764.8432 H 686.7806 Z"
         id="path37949" />
    </clipPath>
    <clipPath
       id="clip_83">
      <path
         transform="matrix(0.20978,0,0,-0.20978,98.20586,254.50672)"
         d="m 698.9945,480.0086 h 18.4601 v 18.46013 h -18.4601 z"
         id="path37952" />
    </clipPath>
    <clipPath
       id="clip_84">
      <path
         transform="matrix(0.20978,0,0,-0.20978,98.20586,254.50672)"
         d="m 714.5608,659.2054 h 18.4601 v 18.46009 h -18.4601 z"
         id="path37955" />
    </clipPath>
    <clipPath
       id="clip_85">
      <path
         transform="matrix(0.20978,0,0,-0.20978,98.20586,254.50672)"
         d="m 805.8117,673.5411 h 18.4601 v 18.46009 h -18.4601 z"
         id="path37958" />
    </clipPath>
    <clipPath
       id="clip_86">
      <path
         transform="matrix(0.20978,0,0,-0.20978,98.20586,254.50672)"
         d="m 973.2839,655.6214 h 18.46008 v 18.4601 H 973.2839 Z"
         id="path37961" />
    </clipPath>
    <clipPath
       id="clip_87">
      <path
         transform="matrix(0.20978,0,0,-0.20978,98.20586,254.50672)"
         d="m 686.7806,299.6485 h 468.2155 V 764.8432 H 686.7806 Z"
         id="path37964" />
    </clipPath>
    <clipPath
       id="clip_88">
      <path
         transform="matrix(0.20978,0,0,-0.20978,98.20586,254.50672)"
         d="m 686.7806,299.6485 h 468.2155 V 764.8432 H 686.7806 Z"
         id="path37967" />
    </clipPath>
    <clipPath
       id="clip_89">
      <path
         transform="matrix(0.20978,0,0,-0.20978,98.20586,254.50672)"
         d="m 601.881,212.3105 h 579 v 564.6158 h -579 z"
         id="path37970" />
    </clipPath>
    <clipPath
       id="clip_90">
      <path
         transform="matrix(0.20978,0,0,-0.20978,98.20586,254.50672)"
         d="M 0,0 H 1920 V 1080 H 0 Z"
         id="path37981" />
    </clipPath>
  </defs>
  <g
     inkscape:label="Layer 1"
     inkscape:groupmode="layer"
     id="layer1"
     transform="translate(-86.464386,-42.120691)">
    <g
       clip-path="url(#clip_46)"
       id="g38919"
       transform="matrix(0.35277777,0,0,0.35277777,6.4540352,9.0247636)">
      <g
         clip-path="url(#clip_47)"
         id="g38917">
        <g
           clip-path="url(#clip_48)"
           id="g38473">
          <path
             transform="matrix(0.20978,0,0,-0.20978,98.20586,254.50672)"
             d="M 0,0 H 1920 V 1080 H 0 Z"
             fill="#ffffff"
             id="path38471" />
        </g>
        <g
           clip-path="url(#clip_49)"
           id="g38479">
          <path
             transform="matrix(0.20978,0,0,-0.20978,98.20586,254.50672)"
             d="m 601.881,212.3105 h 579 v 564.6158 h -579 z"
             fill="#ffffff"
             id="path38475" />
          <path
             transform="matrix(0.20978,0,0,-0.20978,98.20586,254.50672)"
             d="m 686.7806,299.6485 h 468.2155 V 764.8432 H 686.7806 Z"
             fill="#ffffff"
             id="path38477" />
        </g>
        <g
           clip-path="url(#clip_50)"
           id="g38483">
          <path
             transform="matrix(0.3520511,0,0,-0.3520511,224.46845,209.96822)"
             stroke-width="0.8"
             stroke-linecap="square"
             stroke-linejoin="round"
             fill="none"
             stroke="#b0b0b0"
             d="M 63.0481,52.04297 V 329.243"
             id="path38481" />
        </g>
        <g
           clip-path="url(#clip_51)"
           id="g38491">
          <path
             transform="matrix(0.3520511,0,0,-0.3520511,224.46845,209.96822)"
             d="m 63.0481,52.04297 v -3.5"
             id="path38485" />
          <path
             transform="matrix(0.3520511,0,0,-0.3520511,224.46845,209.96822)"
             stroke-width="0.8"
             stroke-linecap="butt"
             stroke-linejoin="round"
             fill="none"
             stroke="#000000"
             d="m 63.0481,52.04297 v -3.5"
             id="path38487" />
          <path
             id="use38489"
             d="m 247.86847,196.46691 c 0,-0.38504 -0.006,-1.04135 -0.27146,-1.54623 -0.23361,-0.44178 -0.60613,-0.59957 -0.93443,-0.59957 -0.30296,0 -0.6881,0.13891 -0.92807,0.59331 -0.25248,0.47328 -0.27772,1.06023 -0.27772,1.55249 0,0.35971 0.006,0.90871 0.20201,1.38835 0.27146,0.65005 0.75756,0.73838 1.00378,0.73838 0.29044,0 0.73232,-0.11993 0.99117,-0.71941 0.18948,-0.43552 0.21472,-0.94666 0.21472,-1.40732 m -1.20589,2.02578 c -0.40402,0 -0.64388,-0.34709 -0.73232,-0.82673 -0.0695,-0.37232 -0.0695,-0.91506 -0.0695,-1.2685 0,-0.4859 0,-0.88983 0.0821,-1.27477 0.11994,-0.53648 0.47348,-0.70053 0.7197,-0.70053 0.25885,0 0.59351,0.17041 0.71344,0.68791 0.0821,0.35971 0.0883,0.78251 0.0883,1.28739 0,0.41018 0,0.91506 -0.0757,1.28738 -0.13255,0.68791 -0.50507,0.80785 -0.72606,0.80785 z"
             style="stroke-width:6.31324" />
        </g>
        <g
           clip-path="url(#clip_53)"
           id="g38495">
          <path
             transform="matrix(0.3520511,0,0,-0.3520511,224.46845,209.96822)"
             stroke-width="0.8"
             stroke-linecap="square"
             stroke-linejoin="round"
             fill="none"
             stroke="#b0b0b0"
             d="M 151.8954,52.04297 V 329.243"
             id="path38493" />
        </g>
        <g
           clip-path="url(#clip_54)"
           id="g38503">
          <path
             transform="matrix(0.3520511,0,0,-0.3520511,224.46845,209.96822)"
             d="m 151.8954,52.04297 v -3.5"
             id="path38497" />
          <path
             transform="matrix(0.3520511,0,0,-0.3520511,224.46845,209.96822)"
             stroke-width="0.8"
             stroke-linecap="butt"
             stroke-linejoin="round"
             fill="none"
             stroke="#000000"
             d="m 151.8954,52.04297 v -3.5"
             id="path38499" />
          <path
             id="use38501"
             d="m 277.2154,194.79949 c 0.0631,0.0253 0.32194,0.10732 0.58705,0.10732 0.58715,0 0.90919,-0.31559 1.09222,-0.49746 0,-0.0505 0,-0.0821 -0.0379,-0.0821 -0.006,0 -0.019,0 -0.0695,0.0253 -0.22099,0.0947 -0.47983,0.16916 -0.79542,0.16916 -0.18948,0 -0.47357,-0.0249 -0.78289,-0.1629 -0.0695,-0.0316 -0.0821,-0.0316 -0.0883,-0.0316 -0.0316,0 -0.038,0.006 -0.038,0.13255 v 1.82984 c 0,0.11377 0,0.14537 0.0632,0.14537 0.0315,0 0.0441,-0.0126 0.0757,-0.0568 0.20201,-0.28457 0.47983,-0.40479 0.79551,-0.40479 0.22089,0 0.69446,0.1392 0.69446,1.22044 0,0.2021 0,0.56807 -0.18939,0.85784 -0.15788,0.25827 -0.40411,0.39053 -0.67557,0.39053 -0.41664,0 -0.83964,-0.28977 -0.95331,-0.7748 0.0252,0.006 0.0758,0.0189 0.10105,0.0189 0.0821,0 0.23987,-0.0442 0.23987,-0.23987 0,-0.17051 -0.11993,-0.23996 -0.23987,-0.23996 -0.14517,0 -0.23996,0.0884 -0.23996,0.2652 0,0.54852 0.43561,1.12199 1.10484,1.12199 0.65034,0 1.26898,-0.56095 1.26898,-1.37448 0,-0.75881 -0.49245,-1.34672 -1.10483,-1.34672 -0.32195,0 -0.59341,0.11993 -0.80804,0.34766 z"
             style="stroke-width:6.31324" />
        </g>
        <g
           clip-path="url(#clip_55)"
           id="g38507">
          <path
             transform="matrix(0.3520511,0,0,-0.3520511,224.46845,209.96822)"
             stroke-width="0.8"
             stroke-linecap="square"
             stroke-linejoin="round"
             fill="none"
             stroke="#b0b0b0"
             d="M 240.7427,52.04297 V 329.243"
             id="path38505" />
        </g>
        <g
           clip-path="url(#clip_56)"
           id="g38517">
          <path
             transform="matrix(0.3520511,0,0,-0.3520511,224.46845,209.96822)"
             d="m 240.7427,52.04297 v -3.5"
             id="path38509" />
          <path
             transform="matrix(0.3520511,0,0,-0.3520511,224.46845,209.96822)"
             stroke-width="0.8"
             stroke-linecap="butt"
             stroke-linejoin="round"
             fill="none"
             stroke="#000000"
             d="m 240.7427,52.04297 v -3.5"
             id="path38511" />
          <path
             id="use38513"
             d="m 308.00607,194.46002 c 0,-0.13256 -0.006,-0.13891 -0.0947,-0.13891 -0.24622,0.29603 -0.61864,0.39034 -0.97218,0.40296 -0.019,0 -0.0506,0 -0.0568,0.0126 -0.006,0.0126 -0.006,0.0252 -0.006,0.15779 0.19575,0 0.52405,-0.0379 0.77654,-0.18929 v 3.32886 c 0,0.22108 -0.0126,0.2969 -0.55555,0.2969 h -0.18939 v 0.16405 c 0.30306,-0.006 0.61865,-0.0126 0.92171,-0.0126 0.30306,0 0.61874,0.006 0.92171,0.0126 v -0.16405 h -0.18939 c -0.54293,0 -0.55555,-0.0696 -0.55555,-0.2969 z"
             style="stroke-width:6.31324" />
          <path
             id="use38515"
             d="m 311.86982,196.46691 c 0,-0.38504 -0.006,-1.04135 -0.27146,-1.54623 -0.23361,-0.44178 -0.60613,-0.59957 -0.93443,-0.59957 -0.30296,0 -0.6881,0.13891 -0.92807,0.59331 -0.25248,0.47328 -0.27772,1.06023 -0.27772,1.55249 0,0.35971 0.006,0.90871 0.20201,1.38835 0.27146,0.65005 0.75756,0.73838 1.00378,0.73838 0.29044,0 0.73232,-0.11993 0.99117,-0.71941 0.18948,-0.43552 0.21472,-0.94666 0.21472,-1.40732 m -1.20589,2.02578 c -0.40402,0 -0.64388,-0.34709 -0.73232,-0.82673 -0.0694,-0.37232 -0.0694,-0.91506 -0.0694,-1.2685 0,-0.4859 0,-0.88983 0.0821,-1.27477 0.11994,-0.53648 0.47348,-0.70053 0.7197,-0.70053 0.25885,0 0.59351,0.17041 0.71344,0.68791 0.0821,0.35971 0.0883,0.78251 0.0883,1.28739 0,0.41018 0,0.91506 -0.0757,1.28738 -0.13255,0.68791 -0.50507,0.80785 -0.72606,0.80785 z"
             style="stroke-width:6.31324" />
        </g>
        <g
           clip-path="url(#clip_57)"
           id="g38521">
          <path
             transform="matrix(0.3520511,0,0,-0.3520511,224.46845,209.96822)"
             stroke-width="0.8"
             stroke-linecap="square"
             stroke-linejoin="round"
             fill="none"
             stroke="#b0b0b0"
             d="M 329.5899,52.04297 V 329.243"
             id="path38519" />
        </g>
        <g
           clip-path="url(#clip_58)"
           id="g38577">
          <path
             transform="matrix(0.3520511,0,0,-0.3520511,224.46845,209.96822)"
             d="m 329.5899,52.04297 v -3.5"
             id="path38523" />
          <path
             transform="matrix(0.3520511,0,0,-0.3520511,224.46845,209.96822)"
             stroke-width="0.8"
             stroke-linecap="butt"
             stroke-linejoin="round"
             fill="none"
             stroke="#000000"
             d="m 329.5899,52.04297 v -3.5"
             id="path38525" />
          <path
             id="use38527"
             d="m 339.28487,194.46002 c 0,-0.13256 -0.006,-0.13891 -0.0947,-0.13891 -0.24622,0.29603 -0.61864,0.39034 -0.97218,0.40296 -0.019,0 -0.0506,0 -0.0568,0.0126 -0.006,0.0126 -0.006,0.0252 -0.006,0.15779 0.19575,0 0.52405,-0.0379 0.77654,-0.18929 v 3.32886 c 0,0.22108 -0.0126,0.2969 -0.55555,0.2969 h -0.18939 v 0.16405 c 0.30306,-0.006 0.61865,-0.0126 0.92171,-0.0126 0.30306,0 0.61874,0.006 0.92171,0.0126 v -0.16405 h -0.18939 c -0.54293,0 -0.55555,-0.0696 -0.55555,-0.2969 z"
             style="stroke-width:6.31324" />
          <path
             id="use38529"
             d="m 341.21678,194.79949 c 0.0631,0.0253 0.32194,0.10732 0.58705,0.10732 0.58715,0 0.90919,-0.31559 1.09222,-0.49746 0,-0.0505 0,-0.0821 -0.0379,-0.0821 -0.006,0 -0.019,0 -0.0695,0.0253 -0.22099,0.0947 -0.47983,0.16916 -0.79542,0.16916 -0.18948,0 -0.47357,-0.0249 -0.78289,-0.1629 -0.0695,-0.0316 -0.0821,-0.0316 -0.0883,-0.0316 -0.0316,0 -0.0379,0.006 -0.0379,0.13255 v 1.82984 c 0,0.11377 0,0.14537 0.0632,0.14537 0.0315,0 0.0441,-0.0126 0.0757,-0.0568 0.20201,-0.28457 0.47983,-0.40479 0.79551,-0.40479 0.22089,0 0.69446,0.1392 0.69446,1.22044 0,0.2021 0,0.56807 -0.18939,0.85784 -0.15788,0.25827 -0.40411,0.39053 -0.67557,0.39053 -0.41664,0 -0.83964,-0.28977 -0.95331,-0.7748 0.0252,0.006 0.0758,0.0189 0.10105,0.0189 0.0821,0 0.23987,-0.0442 0.23987,-0.23987 0,-0.17051 -0.11993,-0.23996 -0.23987,-0.23996 -0.14517,0 -0.23996,0.0884 -0.23996,0.2652 0,0.54852 0.43561,1.12199 1.10484,1.12199 0.65034,0 1.26898,-0.56095 1.26898,-1.37448 0,-0.75881 -0.49245,-1.34672 -1.10483,-1.34672 -0.32195,0 -0.59341,0.11993 -0.80804,0.34766 z"
             style="stroke-width:6.31324" />
          <path
             id="use38531"
             d="m 260.50955,203.86287 v -0.38504 h -1.79294 v -1.58419 h 0.77018 c 0.0758,0 0.15153,0.006 0.22725,0.006 h 1.04174 v -0.41028 h -2.56948 v 4.3708 h 0.53031 v -1.99755 z"
             style="stroke-width:6.31324" />
          <path
             id="use38533"
             d="m 261.96793,201.70502 h -0.53041 v 0.53041 h 0.53041 v -0.53041 m -0.0316,1.44268 h -0.46721 v 2.71272 h 0.46721 z"
             style="stroke-width:6.31324" />
          <path
             id="use38535"
             d="m 264.98567,204.01469 c 0,-0.39824 -0.0947,-0.92248 -0.80814,-0.92248 -0.40402,0 -0.66922,0.20837 -0.84599,0.42309 v -0.39149 h -0.46085 v 2.73661 h 0.47983 v -1.52966 c 0,-0.39824 0.15153,-0.85341 0.58079,-0.85341 0.55555,0 0.57452,0.373 0.57452,0.58791 v 1.79516 h 0.47984 z"
             style="stroke-width:6.31324" />
          <path
             id="use38537"
             d="m 267.92128,204.47526 c 0,-0.20837 -0.0126,-0.61229 -0.21463,-0.94686 -0.22098,-0.3598 -0.58078,-0.46085 -0.85225,-0.46085 -0.6566,0 -1.21215,0.61865 -1.21215,1.42033 0,0.78395 0.57443,1.42186 1.30049,1.42186 0.28408,0 0.63136,-0.082 0.94695,-0.30932 0,-0.0252 -0.0126,-0.16425 -0.0189,-0.17061 0,-0.0126 -0.019,-0.20856 -0.019,-0.23389 -0.30306,0.24661 -0.65025,0.32878 -0.90273,0.32878 -0.40412,0 -0.83973,-0.3414 -0.85862,-1.04944 h 1.8308 m -1.78032,-0.34728 c 0.0821,-0.34709 0.3598,-0.67529 0.71344,-0.67529 0.0947,0 0.53657,0.0126 0.65025,0.67529 z"
             style="stroke-width:6.31324" />
          <path
             id="use38539"
             d="m 269.7269,204.68536 v -0.36626 h -1.57831 v 0.36626 z"
             style="stroke-width:6.31324" />
          <path
             id="use38541"
             d="m 271.11579,203.51395 h 0.82076 v -0.36625 h -0.82076 v -0.77683 h -0.44823 v 0.77683 h -0.49872 v 0.36625 h 0.4861 v 1.59469 c 0,0.35932 0.0821,0.8011 0.49871,0.8011 0.31568,0 0.60613,-0.0883 0.88385,-0.23351 l -0.10095,-0.37223 c -0.15154,0.13246 -0.33466,0.20808 -0.53031,0.20808 -0.27783,0 -0.29045,-0.35306 -0.29045,-0.51056 z"
             style="stroke-width:6.31324" />
          <path
             id="use38543"
             d="m 274.78383,203.1477 h -0.47984 v 1.74024 c 0,0.46654 -0.34092,0.65564 -0.70072,0.65564 -0.41673,0 -0.45459,-0.13862 -0.45459,-0.39718 v -1.9987 h -0.47983 v 2.0303 c 0,0.49187 0.1705,0.73174 0.60612,0.73174 0.21463,0 0.70072,-0.0505 1.04164,-0.36616 v 0.31568 h 0.46722 z"
             style="stroke-width:6.31324" />
          <path
             id="use38545"
             d="m 277.8331,204.01469 c 0,-0.39824 -0.0947,-0.92248 -0.80814,-0.92248 -0.40402,0 -0.66922,0.20837 -0.84599,0.42309 v -0.39149 h -0.46085 v 2.73661 h 0.47983 v -1.52966 c 0,-0.39824 0.15153,-0.85341 0.58079,-0.85341 0.55555,0 0.57452,0.373 0.57452,0.58791 v 1.79516 h 0.47984 z"
             style="stroke-width:6.31324" />
          <path
             id="use38547"
             d="m 280.76875,204.47526 c 0,-0.20837 -0.0126,-0.61229 -0.21463,-0.94686 -0.22098,-0.3598 -0.58078,-0.46085 -0.85225,-0.46085 -0.6566,0 -1.21215,0.61865 -1.21215,1.42033 0,0.78395 0.57443,1.42186 1.30049,1.42186 0.28408,0 0.63136,-0.082 0.94695,-0.30932 0,-0.0252 -0.0126,-0.16425 -0.0189,-0.17061 0,-0.0126 -0.019,-0.20856 -0.019,-0.23389 -0.30306,0.24661 -0.65025,0.32878 -0.90273,0.32878 -0.40412,0 -0.83973,-0.3414 -0.85862,-1.04944 h 1.8308 m -1.78032,-0.34728 c 0.0821,-0.34709 0.3598,-0.67529 0.71344,-0.67529 0.0947,0 0.53657,0.0126 0.65025,0.67529 z"
             style="stroke-width:6.31324" />
          <path
             id="use38549"
             d="m 283.50867,201.47691 h -0.46712 v 1.93098 c -0.19575,-0.16415 -0.51769,-0.31568 -0.87123,-0.31568 -0.57453,0 -1.02912,0.62529 -1.02912,1.40877 0,0.78356 0.44824,1.40876 1.01014,1.40876 0.43562,0 0.72606,-0.23351 0.8775,-0.36616 v 0.31568 h 0.47983 v -4.38235 m -0.47983,3.53598 c 0,0.0884 0,0.18322 -0.19566,0.35383 -0.12629,0.10741 -0.27782,0.15798 -0.42299,0.15798 -0.34092,0 -0.78916,-0.25278 -0.78916,-1.01737 0,-0.79618 0.50507,-1.02998 0.85226,-1.02998 0.2336,0 0.42299,0.11377 0.55555,0.30335 z"
             style="stroke-width:6.31324" />
          <path
             id="use38551"
             d="m 288.03846,204.0355 c 0.75756,0 1.37631,-0.58734 1.37631,-1.28238 0,-0.68252 -0.59351,-1.27621 -1.41416,-1.27621 h -1.47736 v 4.38351 h 0.53031 v -1.82492 h 0.9849 m -0.17677,-2.20496 c 0.73232,0 1.05427,0.46124 1.05427,0.92258 0,0.42964 -0.29671,0.91622 -1.05427,0.91622 h -0.82075 v -1.8388 z"
             style="stroke-width:6.31324" />
          <path
             id="use38553"
             d="m 291.95202,204.07162 c 0,-0.59369 -0.423,-1.00407 -0.99117,-1.00407 -0.27782,0 -0.58078,0.0506 -0.92806,0.25258 l 0.0379,0.41674 c 0.15788,-0.11368 0.42935,-0.2968 0.88385,-0.2968 0.32203,0 0.51769,0.24632 0.51769,0.63781 v 0.24006 c -1.01005,0.0315 -1.64141,0.32195 -1.64141,0.82124 0,0.25913 0.15779,0.77056 0.68184,0.77056 0.0947,0 0.60603,-0.0126 0.97219,-0.28408 v 0.2336 h 0.46721 v -1.78764 m -0.47983,0.95379 c 0,0.11377 0,0.2654 -0.18939,0.37916 -0.16415,0.10751 -0.37242,0.12013 -0.46086,0.12013 -0.31568,0 -0.53031,-0.17696 -0.53031,-0.39814 0,-0.44246 0.98491,-0.48667 1.18056,-0.49303 z"
             style="stroke-width:6.31324" />
          <path
             id="use38555"
             d="m 293.19506,204.51427 c 0,-0.59418 0.43562,-0.99232 0.99126,-1.00504 v -0.41702 c -0.40411,0.006 -0.78289,0.20846 -1.01014,0.53715 v -0.50555 h -0.44824 v 2.73661 h 0.46712 z"
             style="stroke-width:6.31324" />
          <path
             id="use38557"
             d="m 296.64846,204.07162 c 0,-0.59369 -0.423,-1.00407 -0.99117,-1.00407 -0.27782,0 -0.58078,0.0506 -0.92806,0.25258 l 0.0379,0.41674 c 0.15788,-0.11368 0.42935,-0.2968 0.88385,-0.2968 0.32203,0 0.51769,0.24632 0.51769,0.63781 v 0.24006 c -1.01005,0.0315 -1.64141,0.32195 -1.64141,0.82124 0,0.25913 0.15779,0.77056 0.68184,0.77056 0.0947,0 0.60603,-0.0126 0.97219,-0.28408 v 0.2336 h 0.46721 v -1.78764 m -0.47983,0.95379 c 0,0.11377 0,0.2654 -0.18939,0.37916 -0.16415,0.10751 -0.37242,0.12013 -0.46086,0.12013 -0.31568,0 -0.53031,-0.17696 -0.53031,-0.39814 0,-0.44246 0.98491,-0.48667 1.18056,-0.49303 z"
             style="stroke-width:6.31324" />
          <path
             id="use38559"
             d="m 301.34553,204.01469 c 0,-0.42357 -0.10731,-0.92248 -0.81439,-0.92248 -0.47357,0 -0.75766,0.2968 -0.88395,0.47993 -0.11357,-0.33466 -0.37878,-0.47993 -0.75756,-0.47993 -0.42926,0 -0.70072,0.24623 -0.84599,0.42309 v -0.39149 h -0.46085 v 2.73661 h 0.47983 v -1.52966 c 0,-0.37291 0.13891,-0.85341 0.58714,-0.85341 0.57453,0 0.57453,0.40459 0.57453,0.58791 v 1.79516 h 0.47974 v -1.52966 c 0,-0.37291 0.13891,-0.85341 0.58714,-0.85341 0.57453,0 0.57453,0.40459 0.57453,0.58791 v 1.79516 h 0.47983 z"
             style="stroke-width:6.31324" />
          <path
             id="use38561"
             d="m 304.28746,204.47526 c 0,-0.20837 -0.0126,-0.61229 -0.21463,-0.94686 -0.22098,-0.3598 -0.58078,-0.46085 -0.85225,-0.46085 -0.6566,0 -1.21215,0.61865 -1.21215,1.42033 0,0.78395 0.57443,1.42186 1.30049,1.42186 0.28408,0 0.63136,-0.082 0.94695,-0.30932 0,-0.0252 -0.0126,-0.16425 -0.0189,-0.17061 0,-0.0126 -0.019,-0.20856 -0.019,-0.23389 -0.30306,0.24661 -0.65025,0.32878 -0.90273,0.32878 -0.40412,0 -0.83973,-0.3414 -0.85862,-1.04944 h 1.8308 m -1.78032,-0.34728 c 0.0821,-0.34709 0.3598,-0.67529 0.71344,-0.67529 0.0947,0 0.53657,0.0126 0.65025,0.67529 z"
             style="stroke-width:6.31324" />
          <path
             id="use38563"
             d="m 305.50593,203.51395 h 0.82076 v -0.36625 h -0.82076 v -0.77683 h -0.44823 v 0.77683 h -0.49872 v 0.36625 h 0.4861 v 1.59469 c 0,0.35932 0.0821,0.8011 0.49871,0.8011 0.31568,0 0.60613,-0.0883 0.88385,-0.23351 l -0.10095,-0.37223 c -0.15154,0.13246 -0.33466,0.20808 -0.53031,0.20808 -0.27783,0 -0.29045,-0.35306 -0.29045,-0.51056 z"
             style="stroke-width:6.31324" />
          <path
             id="use38565"
             d="m 309.06029,204.47526 c 0,-0.20837 -0.0126,-0.61229 -0.21463,-0.94686 -0.22098,-0.3598 -0.58078,-0.46085 -0.85225,-0.46085 -0.6566,0 -1.21215,0.61865 -1.21215,1.42033 0,0.78395 0.57443,1.42186 1.30049,1.42186 0.28408,0 0.63136,-0.082 0.94695,-0.30932 0,-0.0252 -0.0126,-0.16425 -0.0189,-0.17061 0,-0.0126 -0.019,-0.20856 -0.019,-0.23389 -0.30306,0.24661 -0.65025,0.32878 -0.90273,0.32878 -0.40412,0 -0.83973,-0.3414 -0.85862,-1.04944 h 1.8308 m -1.78032,-0.34728 c 0.0821,-0.34709 0.3598,-0.67529 0.71344,-0.67529 0.0947,0 0.53657,0.0126 0.65025,0.67529 z"
             style="stroke-width:6.31324" />
          <path
             id="use38567"
             d="m 310.16506,204.51427 c 0,-0.59418 0.43562,-0.99232 0.99126,-1.00504 v -0.41702 c -0.40411,0.006 -0.78289,0.20846 -1.01014,0.53715 v -0.50555 h -0.44824 v 2.73661 h 0.46712 z"
             style="stroke-width:6.31324" />
          <path
             id="use38569"
             d="m 313.27751,203.25703 c -0.37242,-0.17677 -0.66287,-0.18948 -0.85226,-0.18948 -0.44823,0 -0.9849,0.15789 -0.9849,0.7958 0,0.63801 0.69446,0.77692 0.88385,0.81488 0.29044,0.0568 0.61239,0.12003 0.61239,0.43581 0,0.39804 -0.4545,0.39804 -0.53657,0.39804 -0.25259,0 -0.59977,-0.0695 -0.91545,-0.29689 l -0.0758,0.42309 c 0.3599,0.20836 0.70708,0.27146 0.99753,0.27146 0.77653,0 0.97228,-0.47347 0.97228,-0.83356 0,-0.30952 -0.17677,-0.51798 -0.2967,-0.61277 -0.20837,-0.16425 -0.28418,-0.18313 -0.80188,-0.29054 -0.0883,-0.0126 -0.39766,-0.0822 -0.39766,-0.36645 0,-0.36 0.39766,-0.36 0.4861,-0.36 0.41037,0 0.66286,0.1263 0.83337,0.22109 z"
             style="stroke-width:6.31324" />
          <path
             id="use38571"
             d="m 317.08761,201.13165 c -0.34092,0.34728 -1.12381,1.15541 -1.12381,3.15046 0,2.00131 0.78289,2.80308 1.12381,3.15662 h 0.38504 c -0.77653,-0.80804 -1.02902,-1.93811 -1.02902,-3.15026 0,-1.20589 0.23987,-2.34233 1.02902,-3.15682 z"
             style="stroke-width:6.31324" />
          <path
             id="use38573"
             d="m 321.67096,201.34638 c 0.0379,-0.0632 0.0379,-0.0947 0.0379,-0.10106 0,-0.0694 -0.0567,-0.11367 -0.10732,-0.11367 -0.0695,0 -0.10096,0.0506 -0.13255,0.11367 l -2.5821,4.74862 c -0.0126,0.0252 -0.038,0.0631 -0.038,0.10105 0,0.0694 0.0568,0.11358 0.11368,0.11358 0.0568,0 0.0695,-0.0252 0.11993,-0.11358 l 2.58845,-4.74861 m 0.74494,3.59243 c 0,-0.73309 -0.3914,-1.26986 -0.82065,-1.26986 -0.423,0 -0.82711,0.52415 -0.82711,1.26986 0,0.74561 0.40411,1.26976 0.82711,1.26976 0.43561,0 0.82065,-0.53677 0.82065,-1.26976 m -0.82065,0.88462 c -0.13265,0 -0.34728,-0.12003 -0.34728,-0.88462 0,-0.75833 0.21463,-0.88482 0.34728,-0.88482 0.2336,0 0.3598,0.46134 0.3598,0.88482 0,0.42338 -0.1262,0.88462 -0.3598,0.88462 m -1.81828,-3.42308 c 0,-0.73213 -0.3914,-1.2687 -0.82065,-1.2687 -0.423,0 -0.82712,0.52395 -0.82712,1.2687 0,0.74465 0.40412,1.2686 0.82712,1.2686 0.43561,0 0.82065,-0.53657 0.82065,-1.2686 m -0.82065,0.88347 c -0.13265,0 -0.34728,-0.11994 -0.34728,-0.88347 0,-0.75737 0.21463,-0.88356 0.34728,-0.88356 0.23351,0 0.3598,0.46066 0.3598,0.88356 0,0.4228 -0.12629,0.88347 -0.3598,0.88347 z"
             style="stroke-width:6.31324" />
          <path
             id="use38575"
             d="m 323.45761,207.43873 c 0.34092,-0.34718 1.12382,-1.15531 1.12382,-3.15026 0,-2.00141 -0.7829,-2.80318 -1.12382,-3.15682 h -0.38514 c 0.77654,0.80823 1.02912,1.93831 1.02912,3.15046 0,1.20589 -0.23996,2.34223 -1.02912,3.15662 z"
             style="stroke-width:6.31324" />
        </g>
        <g
           clip-path="url(#clip_60)"
           id="g38581">
          <path
             transform="matrix(0.3520511,0,0,-0.3520511,224.46845,209.96822)"
             stroke-width="0.8"
             stroke-linecap="square"
             stroke-linejoin="round"
             fill="none"
             stroke="#b0b0b0"
             d="M 50.58994,75.32093 H 329.5899"
             id="path38579" />
        </g>
        <g
           clip-path="url(#clip_61)"
           id="g38591">
          <path
             transform="matrix(0.3520511,0,0,-0.3520511,224.46845,209.96822)"
             d="m 50.58994,75.32093 h -3.5"
             id="path38583" />
          <path
             transform="matrix(0.3520511,0,0,-0.3520511,224.46845,209.96822)"
             stroke-width="0.8"
             stroke-linecap="butt"
             stroke-linejoin="round"
             fill="none"
             stroke="#000000"
             d="m 50.58994,75.32093 h -3.5"
             id="path38585" />
          <path
             id="use38587"
             d="m 236.65616,184.66544 h -0.11367 c -0.0631,0.44794 -0.11357,0.52366 -0.13881,0.56142 -0.0316,0.0505 -0.48619,0.0505 -0.57453,0.0505 H 234.617 c 0.22725,-0.24603 0.66922,-0.69398 1.20579,-1.21128 0.38514,-0.36588 0.83337,-0.79484 0.83337,-1.41966 0,-0.74657 -0.5934,-1.17679 -1.25636,-1.17679 -0.69447,0 -1.11746,0.61383 -1.11746,1.18306 0,0.24622 0.18313,0.27782 0.25884,0.27782 0.0632,0 0.25259,-0.0379 0.25259,-0.25885 0,-0.19575 -0.16415,-0.25258 -0.25259,-0.25258 -0.0378,0 -0.0757,0.006 -0.10095,0.019 0.11993,-0.53821 0.48609,-0.80428 0.87123,-0.80428 0.54929,0 0.90909,0.43706 0.90909,1.01264 0,0.5491 -0.32194,1.02219 -0.68184,1.43227 l -1.25637,1.41966 v 0.14517 h 2.22229 z"
             style="stroke-width:6.31324" />
          <path
             id="use38589"
             d="m 237.58419,183.46369 c 0,-1.50972 0.70708,-1.84881 1.11745,-1.84881 0.13256,0 0.45459,0.025 0.58089,0.26963 -0.10106,0 -0.29045,0 -0.29045,0.22099 0,0.17051 0.13892,0.22725 0.22725,0.22725 0.0568,0 0.22725,-0.0252 0.22725,-0.23987 0,-0.39651 -0.31558,-0.62327 -0.7512,-0.62327 -0.7513,0 -1.54045,0.78116 -1.54045,2.17711 0,1.71674 0.71334,2.09542 1.21841,2.09542 0.61239,0 1.19327,-0.54909 1.19327,-1.39489 0,-0.78896 -0.51143,-1.3633 -1.15531,-1.3633 -0.38514,0 -0.66923,0.25249 -0.82711,0.69427 v -0.21453 m 0.78915,2.12702 c -0.77653,0 -0.77653,-1.16138 -0.77653,-1.39489 0,-0.4545 0.21472,-1.11091 0.80177,-1.11091 0.10741,0 0.41673,0 0.6251,0.43552 0.11358,0.24613 0.11358,0.50497 0.11358,0.82056 0,0.34082 0,0.59331 -0.13256,0.8457 -0.13891,0.25885 -0.34092,0.40402 -0.63136,0.40402 z"
             style="stroke-width:6.31324" />
        </g>
        <g
           clip-path="url(#clip_62)"
           id="g38595">
          <path
             transform="matrix(0.3520511,0,0,-0.3520511,224.46845,209.96822)"
             stroke-width="0.8"
             stroke-linecap="square"
             stroke-linejoin="round"
             fill="none"
             stroke="#b0b0b0"
             d="M 50.58994,118.0328 H 329.5899"
             id="path38593" />
        </g>
        <g
           clip-path="url(#clip_63)"
           id="g38605">
          <path
             transform="matrix(0.3520511,0,0,-0.3520511,224.46845,209.96822)"
             d="m 50.58994,118.0328 h -3.5"
             id="path38597" />
          <path
             transform="matrix(0.3520511,0,0,-0.3520511,224.46845,209.96822)"
             stroke-width="0.8"
             stroke-linecap="butt"
             stroke-linejoin="round"
             fill="none"
             stroke="#000000"
             d="m 50.58994,118.0328 h -3.5"
             id="path38599" />
          <path
             id="use38601"
             d="m 236.65616,169.62869 h -0.11367 c -0.0631,0.44794 -0.11357,0.52366 -0.13881,0.56142 -0.0316,0.0505 -0.48619,0.0505 -0.57453,0.0505 H 234.617 c 0.22725,-0.24603 0.66922,-0.69398 1.20579,-1.21128 0.38514,-0.36588 0.83337,-0.79484 0.83337,-1.41966 0,-0.74657 -0.5934,-1.17679 -1.25636,-1.17679 -0.69447,0 -1.11746,0.61383 -1.11746,1.18306 0,0.24622 0.18313,0.27782 0.25884,0.27782 0.0632,0 0.25259,-0.0379 0.25259,-0.25885 0,-0.19575 -0.16415,-0.25258 -0.25259,-0.25258 -0.0378,0 -0.0757,0.006 -0.10095,0.019 0.11993,-0.53821 0.48609,-0.80428 0.87123,-0.80428 0.54929,0 0.90909,0.43706 0.90909,1.01264 0,0.5491 -0.32194,1.02219 -0.68184,1.43227 l -1.25637,1.41966 v 0.14517 h 2.22229 z"
             style="stroke-width:6.31324" />
          <path
             id="use38603"
             d="m 238.63219,168.33253 c 0.39775,-0.20191 0.80177,-0.50488 0.80177,-0.99078 0,-0.57433 -0.55555,-0.90889 -1.06688,-0.90889 -0.57453,0 -1.0796,0.41663 -1.0796,0.99087 0,0.1578 0.0379,0.42916 0.28409,0.66894 0.0632,0.0632 0.3283,0.25248 0.49881,0.37242 -0.28419,0.14507 -0.94705,0.49216 -0.94705,1.18643 0,0.64995 0.61874,1.05387 1.23113,1.05387 0.67548,0 1.24365,-0.4859 1.24365,-1.12969 0,-0.57423 -0.38504,-0.83925 -0.63762,-1.00966 l -0.3283,-0.23351 m -0.82702,-0.55535 c -0.0505,-0.0316 -0.30306,-0.22716 -0.30306,-0.52376 0,-0.38504 0.39776,-0.67529 0.85235,-0.67529 0.49871,0 0.86487,0.35334 0.86487,0.76362 0,0.58686 -0.6566,0.92133 -0.6881,0.92133 -0.006,0 -0.0126,0 -0.0632,-0.0379 l -0.66287,-0.44804 m 1.16168,1.29374 c 0.0947,0.0694 0.39775,0.27763 0.39775,0.66258 0,0.46702 -0.46721,0.82046 -0.99752,0.82046 -0.57453,0 -1.01014,-0.41028 -1.01014,-0.9088 0,-0.49852 0.38513,-0.91506 0.82075,-1.11071 z"
             style="stroke-width:6.31324" />
        </g>
        <g
           clip-path="url(#clip_64)"
           id="g38609">
          <path
             transform="matrix(0.3520511,0,0,-0.3520511,224.46845,209.96822)"
             stroke-width="0.8"
             stroke-linecap="square"
             stroke-linejoin="round"
             fill="none"
             stroke="#b0b0b0"
             d="M 50.58994,160.7447 H 329.5899"
             id="path38607" />
        </g>
        <g
           clip-path="url(#clip_65)"
           id="g38619">
          <path
             transform="matrix(0.3520511,0,0,-0.3520511,224.46845,209.96822)"
             d="m 50.58994,160.7447 h -3.5"
             id="path38611" />
          <path
             transform="matrix(0.3520511,0,0,-0.3520511,224.46845,209.96822)"
             stroke-width="0.8"
             stroke-linecap="butt"
             stroke-linejoin="round"
             fill="none"
             stroke="#000000"
             d="m 50.58994,160.7447 h -3.5"
             id="path38613" />
          <path
             id="use38615"
             d="m 235.41877,153.42119 c 0.56191,0 0.80814,0.48609 0.80814,1.0481 0,0.75746 -0.40412,1.0479 -0.77028,1.0479 -0.33456,0 -0.87749,-0.16415 -1.048,-0.65024 0.0316,0.0127 0.0632,0.0127 0.0947,0.0127 0.15153,0 0.2652,-0.10105 0.2652,-0.2652 0,-0.18313 -0.13891,-0.26521 -0.2652,-0.26521 -0.10732,0 -0.27147,0.0506 -0.27147,0.28418 0,0.5807 0.56817,1.03519 1.23739,1.03519 0.70082,0 1.23739,-0.54909 1.23739,-1.19308 0,-0.61238 -0.50507,-1.05435 -1.10474,-1.12381 0.47974,-0.10105 0.94059,-0.53031 0.94059,-1.10484 0,-0.49158 -0.49871,-0.85081 -1.06688,-0.85081 -0.57453,0 -1.0796,0.35297 -1.0796,0.85717 0,0.22089 0.16415,0.25875 0.24623,0.25875 0.13255,0 0.24622,-0.082 0.24622,-0.24613 0,-0.16415 -0.11367,-0.24623 -0.24622,-0.24623 -0.0252,0 -0.0568,0 -0.0821,0.0126 0.18313,-0.41538 0.68184,-0.49091 0.90283,-0.49091 0.22099,0 0.63762,0.10693 0.63762,0.7119 0,0.17677 -0.0252,0.49236 -0.23986,0.77018 -0.18949,0.24623 -0.40412,0.25885 -0.61239,0.27773 -0.0316,0 -0.17687,0.0127 -0.2021,0.0127 -0.0441,0.006 -0.0695,0.0126 -0.0695,0.0567 0,0.0442 0.006,0.0506 0.13265,0.0506 z"
             style="stroke-width:6.31324" />
          <path
             id="use38617"
             d="m 239.56661,153.54189 c 0,-0.38504 -0.006,-1.04135 -0.27146,-1.54623 -0.23361,-0.44178 -0.60613,-0.59957 -0.93443,-0.59957 -0.30296,0 -0.6881,0.13891 -0.92807,0.59331 -0.25248,0.47328 -0.27772,1.06023 -0.27772,1.55249 0,0.35971 0.006,0.90871 0.20201,1.38835 0.27146,0.65005 0.75756,0.73838 1.00378,0.73838 0.29044,0 0.73232,-0.11993 0.99117,-0.71941 0.18948,-0.43552 0.21472,-0.94666 0.21472,-1.40732 m -1.20589,2.02578 c -0.40402,0 -0.64388,-0.34709 -0.73232,-0.82673 -0.0694,-0.37232 -0.0694,-0.91506 -0.0694,-1.2685 0,-0.4859 0,-0.88983 0.0821,-1.27477 0.11994,-0.53648 0.47348,-0.70053 0.7197,-0.70053 0.25885,0 0.59351,0.17041 0.71344,0.68791 0.0821,0.35971 0.0883,0.78251 0.0883,1.28739 0,0.41018 0,0.91506 -0.0757,1.28738 -0.13255,0.68791 -0.50507,0.80785 -0.72606,0.80785 z"
             style="stroke-width:6.31324" />
        </g>
        <g
           clip-path="url(#clip_66)"
           id="g38623">
          <path
             transform="matrix(0.3520511,0,0,-0.3520511,224.46845,209.96822)"
             stroke-width="0.8"
             stroke-linecap="square"
             stroke-linejoin="round"
             fill="none"
             stroke="#b0b0b0"
             d="M 50.58994,203.4565 H 329.5899"
             id="path38621" />
        </g>
        <g
           clip-path="url(#clip_67)"
           id="g38633">
          <path
             transform="matrix(0.3520511,0,0,-0.3520511,224.46845,209.96822)"
             d="m 50.58994,203.4565 h -3.5"
             id="path38625" />
          <path
             transform="matrix(0.3520511,0,0,-0.3520511,224.46845,209.96822)"
             stroke-width="0.8"
             stroke-linecap="butt"
             stroke-linejoin="round"
             fill="none"
             stroke="#000000"
             d="m 50.58994,203.4565 h -3.5"
             id="path38627" />
          <path
             id="use38629"
             d="m 235.41877,138.38441 c 0.56191,0 0.80814,0.48609 0.80814,1.0481 0,0.75746 -0.40412,1.0479 -0.77028,1.0479 -0.33456,0 -0.87749,-0.16415 -1.048,-0.65024 0.0316,0.0127 0.0632,0.0127 0.0947,0.0127 0.15153,0 0.2652,-0.10105 0.2652,-0.2652 0,-0.18313 -0.13891,-0.26521 -0.2652,-0.26521 -0.10732,0 -0.27147,0.0506 -0.27147,0.28418 0,0.5807 0.56817,1.03519 1.23739,1.03519 0.70082,0 1.23739,-0.54909 1.23739,-1.19308 0,-0.61238 -0.50507,-1.05435 -1.10474,-1.12381 0.47974,-0.10105 0.94059,-0.53031 0.94059,-1.10484 0,-0.49158 -0.49871,-0.85081 -1.06688,-0.85081 -0.57453,0 -1.0796,0.35297 -1.0796,0.85717 0,0.22089 0.16415,0.25875 0.24623,0.25875 0.13255,0 0.24622,-0.082 0.24622,-0.24613 0,-0.16415 -0.11367,-0.24623 -0.24622,-0.24623 -0.0252,0 -0.0568,0 -0.0821,0.0126 0.18313,-0.41538 0.68184,-0.49091 0.90283,-0.49091 0.22099,0 0.63762,0.10693 0.63762,0.7119 0,0.17677 -0.0252,0.49236 -0.23986,0.77018 -0.18949,0.24623 -0.40412,0.25885 -0.61239,0.27773 -0.0316,0 -0.17687,0.0127 -0.2021,0.0127 -0.0441,0.006 -0.0695,0.0126 -0.0695,0.0567 0,0.0442 0.006,0.0506 0.13265,0.0506 z"
             style="stroke-width:6.31324" />
          <path
             id="use38631"
             d="m 239.54763,139.55514 h -0.11367 c -0.0631,0.44794 -0.11357,0.52366 -0.13881,0.56142 -0.0316,0.0505 -0.48619,0.0505 -0.57453,0.0505 h -1.21215 c 0.22725,-0.24603 0.66922,-0.69398 1.20579,-1.21128 0.38514,-0.36588 0.83337,-0.79484 0.83337,-1.41966 0,-0.74657 -0.5934,-1.17679 -1.25636,-1.17679 -0.69447,0 -1.11746,0.61383 -1.11746,1.18306 0,0.24622 0.18313,0.27782 0.25884,0.27782 0.0632,0 0.25259,-0.0379 0.25259,-0.25885 0,-0.19575 -0.16415,-0.25258 -0.25259,-0.25258 -0.0378,0 -0.0757,0.006 -0.10095,0.019 0.11993,-0.53821 0.48609,-0.80428 0.87123,-0.80428 0.54929,0 0.90909,0.43706 0.90909,1.01264 0,0.5491 -0.32194,1.02219 -0.68184,1.43227 l -1.25637,1.41966 v 0.14517 h 2.22229 z"
             style="stroke-width:6.31324" />
        </g>
        <g
           clip-path="url(#clip_68)"
           id="g38637">
          <path
             transform="matrix(0.3520511,0,0,-0.3520511,224.46845,209.96822)"
             stroke-width="0.8"
             stroke-linecap="square"
             stroke-linejoin="round"
             fill="none"
             stroke="#b0b0b0"
             d="M 50.58994,246.1684 H 329.5899"
             id="path38635" />
        </g>
        <g
           clip-path="url(#clip_69)"
           id="g38647">
          <path
             transform="matrix(0.3520511,0,0,-0.3520511,224.46845,209.96822)"
             d="m 50.58994,246.1684 h -3.5"
             id="path38639" />
          <path
             transform="matrix(0.3520511,0,0,-0.3520511,224.46845,209.96822)"
             stroke-width="0.8"
             stroke-linecap="butt"
             stroke-linejoin="round"
             fill="none"
             stroke="#000000"
             d="m 50.58994,246.1684 h -3.5"
             id="path38641" />
          <path
             id="use38643"
             d="m 235.41877,123.34769 c 0.56191,0 0.80814,0.48609 0.80814,1.0481 0,0.75746 -0.40412,1.0479 -0.77028,1.0479 -0.33456,0 -0.87749,-0.16415 -1.048,-0.65024 0.0316,0.0127 0.0632,0.0127 0.0947,0.0127 0.15153,0 0.2652,-0.10105 0.2652,-0.2652 0,-0.18313 -0.13891,-0.26521 -0.2652,-0.26521 -0.10732,0 -0.27147,0.0506 -0.27147,0.28418 0,0.5807 0.56817,1.03519 1.23739,1.03519 0.70082,0 1.23739,-0.54909 1.23739,-1.19308 0,-0.61238 -0.50507,-1.05435 -1.10474,-1.12381 0.47974,-0.10105 0.94059,-0.53031 0.94059,-1.10484 0,-0.49158 -0.49871,-0.85081 -1.06688,-0.85081 -0.57453,0 -1.0796,0.35297 -1.0796,0.85717 0,0.22089 0.16415,0.25875 0.24623,0.25875 0.13255,0 0.24622,-0.082 0.24622,-0.24613 0,-0.16415 -0.11367,-0.24623 -0.24622,-0.24623 -0.0252,0 -0.0568,0 -0.0821,0.0126 0.18313,-0.41538 0.68184,-0.49091 0.90283,-0.49091 0.22099,0 0.63762,0.10693 0.63762,0.7119 0,0.17677 -0.0252,0.49236 -0.23986,0.77018 -0.18949,0.24623 -0.40412,0.25885 -0.61239,0.27773 -0.0316,0 -0.17687,0.0127 -0.2021,0.0127 -0.0441,0.006 -0.0695,0.0126 -0.0695,0.0567 0,0.0442 0.006,0.0506 0.13265,0.0506 z"
             style="stroke-width:6.31324" />
          <path
             id="use38645"
             d="m 239.0363,121.41218 c 0,-0.13256 -0.006,-0.13892 -0.12003,-0.13892 l -1.87501,2.98641 v 0.16405 h 1.62888 v 0.61846 c 0,0.22715 -0.0127,0.29025 -0.45459,0.29025 h -0.11994 v 0.16405 c 0.20201,-0.0126 0.54293,-0.0126 0.75756,-0.0126 0.21463,0 0.55555,0 0.75756,0.0126 v -0.16405 h -0.11993 c -0.44188,0 -0.4545,-0.0631 -0.4545,-0.29025 v -0.61846 h 0.64389 v -0.16405 h -0.64389 v -2.84749 m -0.34728,0.41673 v 2.43076 h -1.52147 z"
             style="stroke-width:6.31324" />
        </g>
        <g
           clip-path="url(#clip_70)"
           id="g38651">
          <path
             transform="matrix(0.3520511,0,0,-0.3520511,224.46845,209.96822)"
             stroke-width="0.8"
             stroke-linecap="square"
             stroke-linejoin="round"
             fill="none"
             stroke="#b0b0b0"
             d="M 50.58994,288.8803 H 329.5899"
             id="path38649" />
        </g>
        <g
           clip-path="url(#clip_71)"
           id="g38673">
          <path
             transform="matrix(0.3520511,0,0,-0.3520511,224.46845,209.96822)"
             d="m 50.58994,288.8803 h -3.5"
             id="path38653" />
          <path
             transform="matrix(0.3520511,0,0,-0.3520511,224.46845,209.96822)"
             stroke-width="0.8"
             stroke-linecap="butt"
             stroke-linejoin="round"
             fill="none"
             stroke="#000000"
             d="m 50.58994,288.8803 h -3.5"
             id="path38655" />
          <path
             id="use38657"
             d="m 235.41877,108.31091 c 0.56191,0 0.80814,0.48609 0.80814,1.0481 0,0.75746 -0.40412,1.0479 -0.77028,1.0479 -0.33456,0 -0.87749,-0.16415 -1.048,-0.65024 0.0316,0.0127 0.0632,0.0127 0.0947,0.0127 0.15153,0 0.2652,-0.10105 0.2652,-0.2652 0,-0.18313 -0.13891,-0.26521 -0.2652,-0.26521 -0.10732,0 -0.27147,0.0506 -0.27147,0.28418 0,0.5807 0.56817,1.03519 1.23739,1.03519 0.70082,0 1.23739,-0.54909 1.23739,-1.19308 0,-0.61238 -0.50507,-1.05435 -1.10474,-1.12381 0.47974,-0.10105 0.94059,-0.53031 0.94059,-1.10484 0,-0.49158 -0.49871,-0.85081 -1.06688,-0.85081 -0.57453,0 -1.0796,0.35297 -1.0796,0.85717 0,0.22089 0.16415,0.25875 0.24623,0.25875 0.13255,0 0.24622,-0.082 0.24622,-0.24613 0,-0.16415 -0.11367,-0.24623 -0.24622,-0.24623 -0.0252,0 -0.0568,0 -0.0821,0.0126 0.18313,-0.41538 0.68184,-0.49091 0.90283,-0.49091 0.22099,0 0.63762,0.10693 0.63762,0.7119 0,0.17677 -0.0252,0.49236 -0.23986,0.77018 -0.18949,0.24623 -0.40412,0.25885 -0.61239,0.27773 -0.0316,0 -0.17687,0.0127 -0.2021,0.0127 -0.0441,0.006 -0.0695,0.0126 -0.0695,0.0567 0,0.0442 0.006,0.0506 0.13265,0.0506 z"
             style="stroke-width:6.31324" />
          <path
             id="use38659"
             d="m 237.58419,108.27989 c 0,-1.50972 0.70708,-1.84881 1.11745,-1.84881 0.13256,0 0.45459,0.025 0.58089,0.26963 -0.10106,0 -0.29045,0 -0.29045,0.22099 0,0.17051 0.13892,0.22725 0.22725,0.22725 0.0568,0 0.22725,-0.0252 0.22725,-0.23987 0,-0.39651 -0.31558,-0.62327 -0.7512,-0.62327 -0.7513,0 -1.54045,0.78116 -1.54045,2.17711 0,1.71674 0.71334,2.09542 1.21841,2.09542 0.61239,0 1.19327,-0.54909 1.19327,-1.39489 0,-0.78896 -0.51143,-1.3633 -1.15531,-1.3633 -0.38514,0 -0.66923,0.25249 -0.82711,0.69427 v -0.21453 m 0.78915,2.12702 c -0.77653,0 -0.77653,-1.16138 -0.77653,-1.39489 0,-0.4545 0.21472,-1.11091 0.80177,-1.11091 0.10741,0 0.41673,0 0.6251,0.43552 0.11358,0.24613 0.11358,0.50497 0.11358,0.82056 0,0.34082 0,0.59331 -0.13256,0.8457 -0.13891,0.25885 -0.34092,0.40402 -0.63136,0.40402 z"
             style="stroke-width:6.31324" />
          <path
             id="use38661"
             d="m 229.03149,152.68563 0.8906,0.30306 c 0.16424,0.0505 0.67587,0.22089 0.87797,0.25884 v 0.006 c -0.12629,0.019 -0.25894,0.0568 -0.58108,0.15789 -0.18948,0.0567 -0.38533,0.11994 -0.56219,0.18303 l -2.6529,0.93443 v 0.73858 h 4.38351 v -0.49245 h -3.87189 v -0.006 c 0.006,0 0.28428,-0.0568 1.38959,-0.44198 l 2.38134,-0.83327 v -0.46721 l -2.11604,-0.7513 c -0.14527,-0.0505 -0.60631,-0.20837 -0.8274,-0.27773 -0.18948,-0.0632 -0.65689,-0.22098 -0.84011,-0.25884 v -0.006 h 3.88451 v -0.49871 h -4.38351 v 0.73232 z"
             style="stroke-width:6.31324" />
          <path
             id="use38663"
             d="m 227.42688,148.37996 v -0.52395 c 0,-0.0758 0.006,-0.15154 0.006,-0.22725 v -0.78916 h -0.41038 v 3.61112 h 0.41038 v -0.78915 c 0,-0.0757 -0.006,-0.15154 -0.006,-0.22725 v -0.52405 h 3.96052 v -0.53031 z"
             style="stroke-width:6.31324" />
          <path
             id="use38665"
             d="m 227.00389,144.08385 h 4.38351 v -1.57205 c 0,-0.85861 -0.56817,-1.48362 -1.18711,-1.48362 -0.47992,0 -0.96611,0.41038 -1.10502,1.14906 -0.23997,-0.82076 -0.72028,-0.98491 -0.99204,-0.98491 -0.56884,0 -1.09934,0.61875 -1.09934,1.48362 v 1.4079 m 1.91461,-0.51143 h -1.56098 v -0.72596 c 0,-0.65034 0.33495,-1.16167 0.75198,-1.16167 0.37926,0 0.809,0.40401 0.809,1.2185 v 0.66913 m 2.11536,0 h -1.73032 v -0.83963 c 0,-0.68185 0.42318,-1.2058 0.89049,-1.2058 0.42936,0 0.83983,0.46086 0.83983,1.16158 z"
             style="stroke-width:6.31324" />
          <path
             id="use38667"
             d="m 230.97712,139.05222 c 0,0.0757 0.006,0.15143 0.006,0.22725 v 0.33456 h -3.97949 v 0.53031 h 4.38351 v -2.40532 h -0.41028 z"
             style="stroke-width:6.31324" />
          <path
             id="use38669"
             d="m 230.95814,135.5609 c 0,0.50507 0,0.73241 0.006,0.84599 h -1.6548 v -1.95709 h -0.38504 v 1.95709 h -1.50404 v -0.81439 c 0,-0.0757 0.006,-0.15154 0.006,-0.22725 v -1.0796 h -0.41028 v 2.65155 h 4.3708 v -2.73363 h -0.43562 z"
             style="stroke-width:6.31324" />
          <path
             id="use38671"
             d="m 227.00389,130.44722 v 0.47983 h 2.91656 c 0.83963,0 1.21205,0.51133 1.21205,0.97854 0,0.47983 -0.39139,0.95957 -1.20569,0.95957 h -2.92292 v 0.53031 h 2.9103 c 0.90899,0 1.57185,-0.70072 1.57185,-1.48362 0,-0.78279 -0.66286,-1.46463 -1.57185,-1.46463 z"
             style="stroke-width:6.31324" />
        </g>
        <g
           clip-path="url(#clip_72)"
           id="g38677">
          <path
             transform="matrix(0.3520511,0,0,-0.3520511,224.46845,209.96822)"
             stroke-width="3"
             stroke-linecap="square"
             stroke-linejoin="round"
             fill="none"
             stroke="#0000ff"
             d="m 63.6878,64.64297 18.55131,185.79663 108.74909,42.7118 127.9401,8.5424"
             id="path38675" />
        </g>
        <g
           clip-path="url(#clip_73)"
           id="g38683">
          <path
             transform="matrix(0.3520511,0,0,-0.3520511,246.8898,187.2106)"
             d="m 0,-5 c 1.326016,0 2.597899,0.526832 3.535534,1.464466 C 4.473168,-2.597899 5,-1.326016 5,0 5,1.326016 4.473168,2.597899 3.535534,3.535534 2.597899,4.473168 1.326016,5 0,5 -1.326016,5 -2.597899,4.473168 -3.535534,3.535534 -4.473168,2.597899 -5,1.326016 -5,0 -5,-1.326016 -4.473168,-2.597899 -3.535534,-3.535534 -2.597899,-4.473168 -1.326016,-5 0,-5 Z"
             fill="#0000ff"
             id="path38679" />
          <path
             transform="matrix(0.3520511,0,0,-0.3520511,246.8898,187.2106)"
             stroke-width="1"
             stroke-linecap="butt"
             stroke-linejoin="round"
             fill="none"
             stroke="#0000ff"
             d="m 0,-5 c 1.326016,0 2.597899,0.526832 3.535534,1.464466 C 4.473168,-2.597899 5,-1.326016 5,0 5,1.326016 4.473168,2.597899 3.535534,3.535534 2.597899,4.473168 1.326016,5 0,5 -1.326016,5 -2.597899,4.473168 -3.535534,3.535534 -4.473168,2.597899 -5,1.326016 -5,0 -5,-1.326016 -4.473168,-2.597899 -3.535534,-3.535534 -2.597899,-4.473168 -1.326016,-5 0,-5 Z"
             id="path38681" />
        </g>
        <g
           clip-path="url(#clip_74)"
           id="g38689">
          <path
             transform="matrix(0.3520511,0,0,-0.3520511,253.4208,121.80071)"
             d="m 0,-5 c 1.326016,0 2.597899,0.526832 3.535534,1.464466 C 4.473168,-2.597899 5,-1.326016 5,0 5,1.326016 4.473168,2.597899 3.535534,3.535534 2.597899,4.473168 1.326016,5 0,5 -1.326016,5 -2.597899,4.473168 -3.535534,3.535534 -4.473168,2.597899 -5,1.326016 -5,0 -5,-1.326016 -4.473168,-2.597899 -3.535534,-3.535534 -2.597899,-4.473168 -1.326016,-5 0,-5 Z"
             fill="#0000ff"
             id="path38685" />
          <path
             transform="matrix(0.3520511,0,0,-0.3520511,253.4208,121.80071)"
             stroke-width="1"
             stroke-linecap="butt"
             stroke-linejoin="round"
             fill="none"
             stroke="#0000ff"
             d="m 0,-5 c 1.326016,0 2.597899,0.526832 3.535534,1.464466 C 4.473168,-2.597899 5,-1.326016 5,0 5,1.326016 4.473168,2.597899 3.535534,3.535534 2.597899,4.473168 1.326016,5 0,5 -1.326016,5 -2.597899,4.473168 -3.535534,3.535534 -4.473168,2.597899 -5,1.326016 -5,0 -5,-1.326016 -4.473168,-2.597899 -3.535534,-3.535534 -2.597899,-4.473168 -1.326016,-5 0,-5 Z"
             id="path38687" />
        </g>
        <g
           clip-path="url(#clip_75)"
           id="g38695">
          <path
             transform="matrix(0.3520511,0,0,-0.3520511,291.70603,106.76396)"
             d="m 0,-5 c 1.326016,0 2.597899,0.526832 3.535534,1.464466 C 4.473168,-2.597899 5,-1.326016 5,0 5,1.326016 4.473168,2.597899 3.535534,3.535534 2.597899,4.473168 1.326016,5 0,5 -1.326016,5 -2.597899,4.473168 -3.535534,3.535534 -4.473168,2.597899 -5,1.326016 -5,0 -5,-1.326016 -4.473168,-2.597899 -3.535534,-3.535534 -2.597899,-4.473168 -1.326016,-5 0,-5 Z"
             fill="#0000ff"
             id="path38691" />
          <path
             transform="matrix(0.3520511,0,0,-0.3520511,291.70603,106.76396)"
             stroke-width="1"
             stroke-linecap="butt"
             stroke-linejoin="round"
             fill="none"
             stroke="#0000ff"
             d="m 0,-5 c 1.326016,0 2.597899,0.526832 3.535534,1.464466 C 4.473168,-2.597899 5,-1.326016 5,0 5,1.326016 4.473168,2.597899 3.535534,3.535534 2.597899,4.473168 1.326016,5 0,5 -1.326016,5 -2.597899,4.473168 -3.535534,3.535534 -4.473168,2.597899 -5,1.326016 -5,0 -5,-1.326016 -4.473168,-2.597899 -3.535534,-3.535534 -2.597899,-4.473168 -1.326016,-5 0,-5 Z"
             id="path38693" />
        </g>
        <g
           clip-path="url(#clip_76)"
           id="g38701">
          <path
             transform="matrix(0.3520511,0,0,-0.3520511,336.74754,103.75661)"
             d="m 0,-5 c 1.326016,0 2.597899,0.526832 3.535534,1.464466 C 4.473168,-2.597899 5,-1.326016 5,0 5,1.326016 4.473168,2.597899 3.535534,3.535534 2.597899,4.473168 1.326016,5 0,5 -1.326016,5 -2.597899,4.473168 -3.535534,3.535534 -4.473168,2.597899 -5,1.326016 -5,0 -5,-1.326016 -4.473168,-2.597899 -3.535534,-3.535534 -2.597899,-4.473168 -1.326016,-5 0,-5 Z"
             fill="#0000ff"
             id="path38697" />
          <path
             transform="matrix(0.3520511,0,0,-0.3520511,336.74754,103.75661)"
             stroke-width="1"
             stroke-linecap="butt"
             stroke-linejoin="round"
             fill="none"
             stroke="#0000ff"
             d="m 0,-5 c 1.326016,0 2.597899,0.526832 3.535534,1.464466 C 4.473168,-2.597899 5,-1.326016 5,0 5,1.326016 4.473168,2.597899 3.535534,3.535534 2.597899,4.473168 1.326016,5 0,5 -1.326016,5 -2.597899,4.473168 -3.535534,3.535534 -4.473168,2.597899 -5,1.326016 -5,0 -5,-1.326016 -4.473168,-2.597899 -3.535534,-3.535534 -2.597899,-4.473168 -1.326016,-5 0,-5 Z"
             id="path38699" />
        </g>
        <g
           clip-path="url(#clip_77)"
           id="g38705">
          <path
             transform="matrix(0.3520511,0,0,-0.3520511,224.46845,209.96822)"
             stroke-width="3"
             stroke-linecap="square"
             stroke-linejoin="round"
             fill="none"
             stroke="#ff0000"
             d="m 69.4451,224.8125 36.2497,55.5254 66.5288,14.9491 109.1756,8.5424"
             id="path38703" />
        </g>
        <g
           clip-path="url(#clip_78)"
           id="g38711">
          <path
             transform="matrix(0.3520511,0,0,-0.3520511,248.91667,130.82276)"
             d="M 0,-5 5,5 H -5 Z"
             fill="#ff0000"
             id="path38707" />
          <path
             transform="matrix(0.3520511,0,0,-0.3520511,248.91667,130.82276)"
             stroke-width="1"
             stroke-linecap="butt"
             stroke-miterlimit="10"
             stroke-linejoin="miter"
             fill="none"
             stroke="#ff0000"
             d="M 0,-5 5,5 H -5 Z"
             id="path38709" />
        </g>
        <g
           clip-path="url(#clip_79)"
           id="g38717">
          <path
             transform="matrix(0.3520511,0,0,-0.3520511,261.6784,111.27498)"
             d="M 0,-5 5,5 H -5 Z"
             fill="#ff0000"
             id="path38713" />
          <path
             transform="matrix(0.3520511,0,0,-0.3520511,261.6784,111.27498)"
             stroke-width="1"
             stroke-linecap="butt"
             stroke-miterlimit="10"
             stroke-linejoin="miter"
             fill="none"
             stroke="#ff0000"
             d="M 0,-5 5,5 H -5 Z"
             id="path38715" />
        </g>
        <g
           clip-path="url(#clip_80)"
           id="g38723">
          <path
             transform="matrix(0.3520511,0,0,-0.3520511,285.09996,106.01212)"
             d="M 0,-5 5,5 H -5 Z"
             fill="#ff0000"
             id="path38719" />
          <path
             transform="matrix(0.3520511,0,0,-0.3520511,285.09996,106.01212)"
             stroke-width="1"
             stroke-linecap="butt"
             stroke-miterlimit="10"
             stroke-linejoin="miter"
             fill="none"
             stroke="#ff0000"
             d="M 0,-5 5,5 H -5 Z"
             id="path38721" />
        </g>
        <g
           clip-path="url(#clip_81)"
           id="g38729">
          <path
             transform="matrix(0.3520511,0,0,-0.3520511,323.5354,103.00475)"
             d="M 0,-5 5,5 H -5 Z"
             fill="#ff0000"
             id="path38725" />
          <path
             transform="matrix(0.3520511,0,0,-0.3520511,323.5354,103.00475)"
             stroke-width="1"
             stroke-linecap="butt"
             stroke-miterlimit="10"
             stroke-linejoin="miter"
             fill="none"
             stroke="#ff0000"
             d="M 0,-5 5,5 H -5 Z"
             id="path38727" />
        </g>
        <g
           clip-path="url(#clip_82)"
           id="g38733">
          <path
             transform="matrix(0.3520511,0,0,-0.3520511,224.46845,209.96822)"
             stroke-width="3"
             stroke-linecap="square"
             stroke-linejoin="round"
             fill="none"
             stroke="#008000"
             d="m 63.36795,165.0158 9.27566,106.7797 54.37449,8.5424 99.7933,-10.678"
             id="path38731" />
        </g>
        <g
           clip-path="url(#clip_83)"
           id="g38739">
          <path
             transform="matrix(0.3520511,0,0,-0.3520511,246.77719,151.87422)"
             d="M -5,-5 H 5 V 5 H -5 Z"
             fill="#008000"
             id="path38735" />
          <path
             transform="matrix(0.3520511,0,0,-0.3520511,246.77719,151.87422)"
             stroke-width="1"
             stroke-linecap="butt"
             stroke-miterlimit="10"
             stroke-linejoin="miter"
             fill="none"
             stroke="#008000"
             d="M -5,-5 H 5 V 5 H -5 Z"
             id="path38737" />
        </g>
        <g
           clip-path="url(#clip_84)"
           id="g38745">
          <path
             transform="matrix(0.3520511,0,0,-0.3520511,250.04271,114.28233)"
             d="M -5,-5 H 5 V 5 H -5 Z"
             fill="#008000"
             id="path38741" />
          <path
             transform="matrix(0.3520511,0,0,-0.3520511,250.04271,114.28233)"
             stroke-width="1"
             stroke-linecap="butt"
             stroke-miterlimit="10"
             stroke-linejoin="miter"
             fill="none"
             stroke="#008000"
             d="M -5,-5 H 5 V 5 H -5 Z"
             id="path38743" />
        </g>
        <g
           clip-path="url(#clip_85)"
           id="g38751">
          <path
             transform="matrix(0.3520511,0,0,-0.3520511,269.1853,111.27498)"
             d="M -5,-5 H 5 V 5 H -5 Z"
             fill="#008000"
             id="path38747" />
          <path
             transform="matrix(0.3520511,0,0,-0.3520511,269.1853,111.27498)"
             stroke-width="1"
             stroke-linecap="butt"
             stroke-miterlimit="10"
             stroke-linejoin="miter"
             fill="none"
             stroke="#008000"
             d="M -5,-5 H 5 V 5 H -5 Z"
             id="path38749" />
        </g>
        <g
           clip-path="url(#clip_86)"
           id="g38757">
          <path
             transform="matrix(0.3520511,0,0,-0.3520511,304.31764,115.03417)"
             d="M -5,-5 H 5 V 5 H -5 Z"
             fill="#008000"
             id="path38753" />
          <path
             transform="matrix(0.3520511,0,0,-0.3520511,304.31764,115.03417)"
             stroke-width="1"
             stroke-linecap="butt"
             stroke-miterlimit="10"
             stroke-linejoin="miter"
             fill="none"
             stroke="#008000"
             d="M -5,-5 H 5 V 5 H -5 Z"
             id="path38755" />
        </g>
        <g
           clip-path="url(#clip_87)"
           id="g38765">
          <path
             transform="matrix(0.3520511,0,0,-0.3520511,224.46845,209.96822)"
             stroke-width="3"
             stroke-linecap="square"
             stroke-linejoin="round"
             fill="none"
             stroke="#ff7f0e"
             d="M 64.46966,83.86331"
             id="path38759" />
          <path
             transform="matrix(0.3520511,0,0,-0.3520511,224.46845,209.96822)"
             d="m 64.46966,88.86331 -1.12257,-3.45492 h -3.63271 l 2.93892,-2.13525 -1.12257,-3.45492 2.93893,2.13526 2.93892,-2.13526 -1.12257,3.45492 2.93893,2.13525 h -3.63271 z"
             fill="#ff7f0e"
             id="path38761" />
          <path
             transform="matrix(0.3520511,0,0,-0.3520511,224.46845,209.96822)"
             stroke-width="1"
             stroke-linecap="butt"
             stroke-linejoin="bevel"
             fill="none"
             stroke="#ff7f0e"
             d="m 64.46966,88.86331 -1.12257,-3.45492 h -3.63271 l 2.93892,-2.13525 -1.12257,-3.45492 2.93893,2.13526 2.93892,-2.13526 -1.12257,3.45492 2.93893,2.13525 h -3.63271 z"
             id="path38763" />
        </g>
        <g
           clip-path="url(#clip_88)"
           id="g38769">
          <path
             transform="matrix(0.3520511,0,0,-0.3520511,224.46845,209.96822)"
             stroke-width="2"
             stroke-linecap="butt"
             stroke-dasharray="7.4, 3.2"
             stroke-linejoin="round"
             fill="none"
             stroke="#000000"
             d="M 48.81299,316.643 H 346.0142"
             id="path38767" />
        </g>
        <g
           clip-path="url(#clip_89)"
           id="g38897">
          <path
             transform="matrix(0.3520511,0,0,-0.3520511,224.46845,209.96822)"
             stroke-width="0.8"
             stroke-linecap="square"
             stroke-miterlimit="10"
             stroke-linejoin="miter"
             fill="none"
             stroke="#000000"
             d="M 50.58994,52.04297 V 329.243"
             id="path38771" />
          <path
             transform="matrix(0.3520511,0,0,-0.3520511,224.46845,209.96822)"
             stroke-width="0.8"
             stroke-linecap="square"
             stroke-miterlimit="10"
             stroke-linejoin="miter"
             fill="none"
             stroke="#000000"
             d="M 329.5899,52.04297 V 329.243"
             id="path38773" />
          <path
             transform="matrix(0.3520511,0,0,-0.3520511,224.46845,209.96822)"
             stroke-width="0.8"
             stroke-linecap="square"
             stroke-miterlimit="10"
             stroke-linejoin="miter"
             fill="none"
             stroke="#000000"
             d="M 50.58994,52.04297 H 329.5899"
             id="path38775" />
          <path
             transform="matrix(0.3520511,0,0,-0.3520511,224.46845,209.96822)"
             stroke-width="0.8"
             stroke-linecap="square"
             stroke-miterlimit="10"
             stroke-linejoin="miter"
             fill="none"
             stroke="#000000"
             d="M 50.58994,329.243 H 329.5899"
             id="path38777" />
          <g
             id="g38783">
            <path
               transform="matrix(0.3520511,0,0,-0.3520511,224.46845,209.96822)"
               d="m 148.0606,61.04297 h 168.9293 c 2.4,0 3.6,1.2 3.6,3.6 V 188.2833 c 0,2.4 -1.2,3.6 -3.6,3.6 H 148.0606 c -2.4,0 -3.6,-1.2 -3.6,-3.6 V 64.64297 c 0,-2.4 1.2,-3.6 3.6,-3.6 z"
               fill="#ffffff"
               fill-opacity="0.8"
               id="path38779" />
            <path
               transform="matrix(0.3520511,0,0,-0.3520511,224.46845,209.96822)"
               stroke-width="1"
               stroke-linecap="butt"
               stroke-miterlimit="10"
               stroke-linejoin="miter"
               fill="none"
               stroke="#cccccc"
               stroke-opacity="0.8"
               d="m 148.0606,61.04297 h 168.9293 c 2.4,0 3.6,1.2 3.6,3.6 V 188.2833 c 0,2.4 -1.2,3.6 -3.6,3.6 H 148.0606 c -2.4,0 -3.6,-1.2 -3.6,-3.6 V 64.64297 c 0,-2.4 1.2,-3.6 3.6,-3.6 z"
               id="path38781" />
          </g>
          <path
             transform="matrix(0.3520511,0,0,-0.3520511,224.46845,209.96822)"
             stroke-width="3"
             stroke-linecap="square"
             stroke-linejoin="round"
             fill="none"
             stroke="#0000ff"
             d="m 151.6606,178.3833 h 36"
             id="path38785" />
          <path
             transform="matrix(0.3520511,0,0,-0.3520511,224.46845,209.96822)"
             d="m 169.6606,173.3833 c 1.3261,0 2.5979,0.5268 3.5356,1.4645 0.9376,0.9376 1.4644,2.2095 1.4644,3.5355 0,1.326 -0.5268,2.5979 -1.4644,3.5355 -0.9377,0.9377 -2.2095,1.4645 -3.5356,1.4645 -1.326,0 -2.5979,-0.5268 -3.5355,-1.4645 -0.9376,-0.9376 -1.4645,-2.2095 -1.4645,-3.5355 0,-1.326 0.5269,-2.5979 1.4645,-3.5355 0.9376,-0.9377 2.2095,-1.4645 3.5355,-1.4645 z"
             fill="#0000ff"
             id="path38787" />
          <path
             transform="matrix(0.3520511,0,0,-0.3520511,224.46845,209.96822)"
             stroke-width="1"
             stroke-linecap="butt"
             stroke-linejoin="round"
             fill="none"
             stroke="#0000ff"
             d="m 169.6606,173.3833 c 1.3261,0 2.5979,0.5268 3.5356,1.4645 0.9376,0.9376 1.4644,2.2095 1.4644,3.5355 0,1.326 -0.5268,2.5979 -1.4644,3.5355 -0.9377,0.9377 -2.2095,1.4645 -3.5356,1.4645 -1.326,0 -2.5979,-0.5268 -3.5355,-1.4645 -0.9376,-0.9376 -1.4645,-2.2095 -1.4645,-3.5355 0,-1.326 0.5269,-2.5979 1.4645,-3.5355 0.9376,-0.9377 2.2095,-1.4645 3.5355,-1.4645 z"
             id="path38789" />
          <path
             id="use38791"
             d="m 297.25177,148.97583 c -0.0757,0 -0.15143,0.006 -0.22725,0.006 h -0.33456 v -3.97949 h -0.53031 v 4.38351 h 2.40532 v -0.41028 z"
             style="stroke-width:6.31324" />
          <path
             id="use38793"
             d="m 301.6016,148.03331 c 0,-0.80852 -0.59967,-1.44007 -1.30685,-1.44007 -0.72596,0 -1.31311,0.65044 -1.31311,1.44007 0,0.80226 0.60603,1.40212 1.30685,1.40212 0.7197,0 1.31311,-0.61874 1.31311,-1.40212 m -1.30685,1.00446 c -0.44824,0 -0.83328,-0.36645 -0.83328,-1.05494 0,-0.7328 0.44824,-1.00445 0.82702,-1.00445 0.41037,0 0.83337,0.29689 0.83337,1.00445 0,0.71383 -0.41038,1.05494 -0.82711,1.05494 z"
             style="stroke-width:6.31324" />
          <path
             id="use38795"
             d="m 304.26585,147.32565 0.0126,-0.006 c 0.98481,-0.34092 0.99117,-1.02257 0.99117,-1.14251 0,-0.59967 -0.60603,-1.17419 -1.51522,-1.17419 h -1.41416 v 4.38351 h 0.51769 v -2.00372 h 0.92807 l 1.11746,2.00372 h 0.53031 l -1.16794,-2.06046 m -1.4079,-0.3283 v -1.64112 h 0.82702 c 0.80187,0 1.08595,0.4544 1.08595,0.82056 0,0.34083 -0.25258,0.82056 -1.08595,0.82056 z"
             style="stroke-width:6.31324" />
          <path
             id="use38797"
             d="m 307.84547,145.0026 h -0.54293 l -1.5342,4.38351 h 0.47984 l 0.44197,-1.27621 h 1.69189 l 0.44823,1.27621 h 0.54929 l -1.53409,-4.38351 m 0.41663,2.75376 h -1.45202 c 0.30307,-0.88424 0.68184,-1.9832 0.72606,-2.26748 h 0.006 c 0.0442,0.25904 0.17051,0.63801 0.27783,0.96005 z"
             style="stroke-width:6.31324" />
          <path
             transform="matrix(0.3520511,0,0,-0.3520511,224.46845,209.96822)"
             stroke-width="3"
             stroke-linecap="square"
             stroke-linejoin="round"
             fill="none"
             stroke="#ff0000"
             d="m 151.6606,153.2952 h 36"
             id="path38799" />
          <path
             transform="matrix(0.3520511,0,0,-0.3520511,224.46845,209.96822)"
             d="m 169.6606,148.2952 5,10 h -10 z"
             fill="#ff0000"
             id="path38801" />
          <path
             transform="matrix(0.3520511,0,0,-0.3520511,224.46845,209.96822)"
             stroke-width="1"
             stroke-linecap="butt"
             stroke-miterlimit="10"
             stroke-linejoin="miter"
             fill="none"
             stroke="#ff0000"
             d="m 169.6606,148.2952 5,10 h -10 z"
             id="path38803" />
          <path
             id="use38805"
             d="m 297.84528,153.83489 h -0.54293 l -1.5342,4.38351 h 0.47984 l 0.44197,-1.27621 h 1.69189 l 0.44823,1.27621 h 0.54929 l -1.53409,-4.38351 m 0.41663,2.75376 h -1.45202 c 0.30307,-0.88424 0.68184,-1.9832 0.72606,-2.26748 h 0.006 c 0.0442,0.25904 0.17051,0.63801 0.27783,0.96005 z"
             style="stroke-width:6.31324" />
          <path
             id="use38807"
             d="m 302.11933,153.83489 h -0.46712 v 1.93098 c -0.19575,-0.16415 -0.51769,-0.31568 -0.87123,-0.31568 -0.57453,0 -1.02912,0.62529 -1.02912,1.40877 0,0.78356 0.44824,1.40876 1.01014,1.40876 0.43562,0 0.72606,-0.23351 0.8775,-0.36616 v 0.31568 h 0.47983 v -4.38235 m -0.47983,3.53598 c 0,0.0884 0,0.18322 -0.19566,0.35383 -0.12629,0.10741 -0.27782,0.15798 -0.42299,0.15798 -0.34092,0 -0.78916,-0.25278 -0.78916,-1.01737 0,-0.79618 0.50507,-1.02998 0.85226,-1.02998 0.2336,0 0.42299,0.11377 0.55555,0.30335 z"
             style="stroke-width:6.31324" />
          <path
             id="use38809"
             d="m 304.96661,156.4296 c 0,-0.59369 -0.423,-1.00407 -0.99117,-1.00407 -0.27782,0 -0.58078,0.0506 -0.92806,0.25258 l 0.0379,0.41674 c 0.15788,-0.11368 0.42935,-0.2968 0.88385,-0.2968 0.32203,0 0.51769,0.24632 0.51769,0.63781 v 0.24006 c -1.01005,0.0315 -1.64141,0.32195 -1.64141,0.82124 0,0.25913 0.15779,0.77056 0.68184,0.77056 0.0947,0 0.60603,-0.0126 0.97219,-0.28408 v 0.2336 h 0.46721 v -1.78764 m -0.47983,0.95379 c 0,0.11377 0,0.2654 -0.18939,0.37916 -0.16415,0.10751 -0.37242,0.12013 -0.46086,0.12013 -0.31568,0 -0.53031,-0.17696 -0.53031,-0.39814 0,-0.44246 0.98491,-0.48667 1.18056,-0.49303 z"
             style="stroke-width:6.31324" />
          <path
             id="use38811"
             d="m 306.38701,157.93316 c 0.20837,0.20201 0.49245,0.33456 0.79551,0.33456 0.58715,0 1.09222,-0.60622 1.09222,-1.41503 0,-0.74561 -0.37878,-1.4025 -0.9218,-1.4025 -0.31559,0 -0.69437,0.11367 -0.97855,0.34092 v -0.29035 h -0.46712 v 3.9507 h 0.47974 v -1.5183 m 0,-1.76924 c 0.0506,-0.0758 0.2652,-0.31597 0.61239,-0.31597 0.44197,0 0.79551,0.45498 0.79551,1.00474 0,0.62559 -0.42926,1.02999 -0.85225,1.02999 -0.1263,0 -0.25885,-0.0316 -0.38514,-0.13901 -0.17051,-0.15172 -0.17051,-0.24641 -0.17051,-0.33494 z"
             style="stroke-width:6.31324" />
          <path
             id="use38813"
             d="m 309.53739,155.87193 h 0.82076 v -0.36625 h -0.82076 v -0.77683 h -0.44823 v 0.77683 h -0.49872 v 0.36625 h 0.4861 v 1.59469 c 0,0.35932 0.0821,0.8011 0.49871,0.8011 0.31568,0 0.60613,-0.0883 0.88385,-0.23351 l -0.10095,-0.37223 c -0.15154,0.13246 -0.33466,0.20808 -0.53031,0.20808 -0.27783,0 -0.29045,-0.35306 -0.29045,-0.51056 z"
             style="stroke-width:6.31324" />
          <path
             id="use38815"
             d="m 313.09172,156.83324 c 0,-0.20837 -0.0126,-0.61229 -0.21463,-0.94686 -0.22098,-0.3598 -0.58078,-0.46085 -0.85225,-0.46085 -0.6566,0 -1.21215,0.61865 -1.21215,1.42033 0,0.78395 0.57443,1.42186 1.30049,1.42186 0.28408,0 0.63136,-0.082 0.94695,-0.30932 0,-0.0252 -0.0126,-0.16425 -0.0189,-0.17061 0,-0.0126 -0.019,-0.20856 -0.019,-0.23389 -0.30306,0.24661 -0.65025,0.32878 -0.90273,0.32878 -0.40412,0 -0.83973,-0.3414 -0.85862,-1.04944 h 1.8308 m -1.78032,-0.34728 c 0.0821,-0.34709 0.3598,-0.67529 0.71344,-0.67529 0.0947,0 0.53657,0.0126 0.65025,0.67529 z"
             style="stroke-width:6.31324" />
          <path
             id="use38817"
             d="m 314.19652,156.87225 c 0,-0.59418 0.43562,-0.99232 0.99126,-1.00504 v -0.41702 c -0.40411,0.006 -0.78289,0.20846 -1.01014,0.53715 v -0.50555 h -0.44824 v 2.73661 h 0.46712 z"
             style="stroke-width:6.31324" />
          <path
             transform="matrix(0.3520511,0,0,-0.3520511,224.46845,209.96822)"
             stroke-width="3"
             stroke-linecap="square"
             stroke-linejoin="round"
             fill="none"
             stroke="#008000"
             d="m 151.6606,128.2072 h 36"
             id="path38819" />
          <path
             transform="matrix(0.3520511,0,0,-0.3520511,224.46845,209.96822)"
             d="m 164.6606,123.2072 h 10 v 10 h -10 z"
             fill="#008000"
             id="path38821" />
          <path
             transform="matrix(0.3520511,0,0,-0.3520511,224.46845,209.96822)"
             stroke-width="1"
             stroke-linecap="butt"
             stroke-miterlimit="10"
             stroke-linejoin="miter"
             fill="none"
             stroke="#008000"
             d="m 164.6606,123.2072 h 10 v 10 h -10 z"
             id="path38823" />
          <path
             id="use38825"
             d="m 297.68112,165.22574 c 0.75756,0 1.37631,-0.58734 1.37631,-1.28238 0,-0.68252 -0.59351,-1.27621 -1.41416,-1.27621 h -1.47736 v 4.38351 h 0.53031 v -1.82492 h 0.9849 m -0.17677,-2.20496 c 0.73232,0 1.05427,0.46124 1.05427,0.92258 0,0.42964 -0.29671,0.91622 -1.05427,0.91622 h -0.82075 v -1.8388 z"
             style="stroke-width:6.31324" />
          <path
             id="use38827"
             d="m 300.32634,165.70451 c 0,-0.59418 0.43562,-0.99232 0.99126,-1.00504 v -0.41702 c -0.40411,0.006 -0.78289,0.20846 -1.01014,0.53715 v -0.50555 h -0.44824 v 2.73661 h 0.46712 z"
             style="stroke-width:6.31324" />
          <path
             id="use38829"
             d="m 303.87441,165.6655 c 0,-0.20837 -0.0126,-0.61229 -0.21463,-0.94686 -0.22098,-0.3598 -0.58078,-0.46085 -0.85225,-0.46085 -0.6566,0 -1.21215,0.61865 -1.21215,1.42033 0,0.78395 0.57443,1.42186 1.30049,1.42186 0.28408,0 0.63136,-0.082 0.94695,-0.30932 0,-0.0252 -0.0126,-0.16425 -0.0189,-0.17061 0,-0.0126 -0.019,-0.20856 -0.019,-0.23389 -0.30306,0.24661 -0.65025,0.32878 -0.90273,0.32878 -0.40412,0 -0.83973,-0.3414 -0.85862,-1.04944 h 1.8308 m -1.78032,-0.34728 c 0.0821,-0.34709 0.3598,-0.67529 0.71344,-0.67529 0.0947,0 0.53657,0.0126 0.65025,0.67529 z"
             style="stroke-width:6.31324" />
          <path
             id="use38831"
             d="m 306.75323,162.66098 h -0.50507 v 0.50507 h 0.50507 v -0.50507 m -0.019,1.67696 h -0.46711 v 2.71272 h 0.46711 v -2.71272 m -1.63505,0.36625 h 0.6881 v -0.36625 h -0.70082 v -0.82981 c 0,-0.33572 0.15154,-0.50623 0.35364,-0.50623 0.11993,0 0.23987,0.0316 0.34718,0.0884 v -0.423 c -0.0505,-0.0126 -0.19574,-0.0505 -0.34718,-0.0505 -0.47357,0 -0.80813,0.47973 -0.80813,1.09395 v 0.62713 h -0.43562 v 0.36625 h 0.43562 v 2.34647 h 0.46721 z"
             style="stroke-width:6.31324" />
          <path
             id="use38833"
             d="m 308.77978,165.65018 1.05435,-1.31224 h -0.54928 l -0.72596,0.95273 -0.7513,-0.95273 h -0.56191 l 1.09222,1.31224 -1.12372,1.40048 h 0.55555 l 0.78916,-1.11033 0.82065,1.11033 h 0.55565 z"
             style="stroke-width:6.31324" />
          <path
             id="use38835"
             d="m 312.22058,163.09014 h 0.52395 c 0.0758,0 0.15154,0.006 0.22725,0.006 h 0.78916 v -0.41038 h -3.61112 v 0.41038 h 0.78915 c 0.0757,0 0.15154,-0.006 0.22725,-0.006 h 0.52405 v 3.96052 h 0.53031 z"
             style="stroke-width:6.31324" />
          <path
             id="use38837"
             d="m 316.06279,164.33794 h -0.47984 v 1.74024 c 0,0.46654 -0.34092,0.65564 -0.70072,0.65564 -0.41673,0 -0.45459,-0.13862 -0.45459,-0.39718 v -1.9987 h -0.47983 v 2.0303 c 0,0.49187 0.1705,0.73174 0.60612,0.73174 0.21463,0 0.70072,-0.0505 1.04164,-0.36616 v 0.31568 h 0.46722 z"
             style="stroke-width:6.31324" />
          <path
             id="use38839"
             d="m 319.11208,165.20493 c 0,-0.39824 -0.0947,-0.92248 -0.80814,-0.92248 -0.40402,0 -0.66922,0.20837 -0.84599,0.42309 v -0.39149 h -0.46085 v 2.73661 h 0.47983 V 165.521 c 0,-0.39824 0.15153,-0.85341 0.58079,-0.85341 0.55555,0 0.57452,0.373 0.57452,0.58791 v 1.79516 h 0.47984 z"
             style="stroke-width:6.31324" />
          <path
             id="use38841"
             d="m 320.54522,162.89526 h -0.53041 v 0.53041 h 0.53041 v -0.53041 m -0.0316,1.44268 h -0.46721 v 2.71272 h 0.46721 z"
             style="stroke-width:6.31324" />
          <path
             id="use38843"
             d="m 323.56295,165.20493 c 0,-0.39824 -0.0947,-0.92248 -0.80814,-0.92248 -0.40402,0 -0.66922,0.20837 -0.84599,0.42309 v -0.39149 h -0.46085 v 2.73661 h 0.47983 V 165.521 c 0,-0.39824 0.15153,-0.85341 0.58079,-0.85341 0.55555,0 0.57452,0.373 0.57452,0.58791 v 1.79516 h 0.47984 z"
             style="stroke-width:6.31324" />
          <path
             id="use38845"
             d="m 326.83947,164.28245 c -0.3598,0.006 -0.66922,0.0758 -0.92171,0.19575 -0.20836,-0.16415 -0.42299,-0.19575 -0.56816,-0.19575 -0.54929,0 -0.96593,0.45479 -0.96593,0.98654 0,0.34179 0.18939,0.60121 0.20201,0.61393 -0.11367,0.15779 -0.17677,0.3283 -0.17677,0.5174 0,0.2205 0.0883,0.3783 0.15779,0.46673 -0.3283,0.20201 -0.37252,0.51172 -0.37252,0.63184 0,0.46153 0.57453,0.84031 1.31321,0.84031 0.74494,0 1.31946,-0.37878 1.31946,-0.84657 0,-0.87181 -0.96592,-0.87816 -1.23112,-0.87816 h -0.51134 c -0.0947,0 -0.34718,0 -0.34718,-0.32127 0,-0.1262 0.0567,-0.20827 0.0631,-0.21463 0.0947,0.0694 0.29044,0.17677 0.54929,0.17677 0.52395,0 0.95957,-0.44207 0.95957,-0.98635 0,-0.30383 -0.13892,-0.5254 -0.19575,-0.60131 h 0.019 c 0.019,0 0.28408,-0.019 0.37878,-0.019 0.202,0 0.22098,0.006 0.39775,0.0252 l -0.0695,-0.3915 m -1.48988,1.62571 c -0.21473,0 -0.51769,-0.13285 -0.51769,-0.63917 0,-0.55073 0.34718,-0.63926 0.51133,-0.63926 0.21463,0 0.51769,0.13284 0.51769,0.63926 0,0.55064 -0.34728,0.63917 -0.51133,0.63917 m 0.23986,1.16716 c 0.15154,0 0.78916,0 0.78916,0.42993 0,0.27185 -0.3914,0.48677 -0.86497,0.48677 -0.47974,0 -0.87113,-0.20865 -0.87113,-0.49312 0,-0.0316 0,-0.42358 0.43551,-0.42358 z"
             style="stroke-width:6.31324" />
          <path
             transform="matrix(0.3520511,0,0,-0.3520511,224.46845,209.96822)"
             stroke-width="3"
             stroke-linecap="square"
             stroke-linejoin="round"
             fill="none"
             stroke="#ff7f0e"
             d="m 151.6606,103.1191 h 36"
             id="path38847" />
          <path
             transform="matrix(0.3520511,0,0,-0.3520511,224.46845,209.96822)"
             d="m 169.6606,108.1191 -1.1225,-3.4549 h -3.6327 l 2.9389,-2.1353 -1.1226,-3.45489 2.9389,2.13529 2.939,-2.13529 -1.1226,3.45489 2.9389,2.1353 h -3.6327 z"
             fill="#ff7f0e"
             id="path38849" />
          <path
             transform="matrix(0.3520511,0,0,-0.3520511,224.46845,209.96822)"
             stroke-width="1"
             stroke-linecap="butt"
             stroke-linejoin="bevel"
             fill="none"
             stroke="#ff7f0e"
             d="m 169.6606,108.1191 -1.1225,-3.4549 h -3.6327 l 2.9389,-2.1353 -1.1226,-3.45489 2.9389,2.13529 2.939,-2.13529 -1.1226,3.45489 2.9389,2.1353 h -3.6327 z"
             id="path38851" />
          <path
             id="use38853"
             d="m 296.16591,171.49944 v 4.38351 h 1.57205 c 0.85861,0 1.48362,-0.56817 1.48362,-1.18711 0,-0.47992 -0.41038,-0.96611 -1.14906,-1.10502 0.82076,-0.23997 0.98491,-0.72028 0.98491,-0.99204 0,-0.56884 -0.61875,-1.09934 -1.48362,-1.09934 h -1.4079 m 0.51143,1.91461 v -1.56098 h 0.72596 c 0.65034,0 1.16167,0.33495 1.16167,0.75198 0,0.37926 -0.40401,0.809 -1.2185,0.809 h -0.66913 m 0,2.11536 v -1.73032 h 0.83963 c 0.68185,0 1.2058,0.42318 1.2058,0.89049 0,0.42936 -0.46086,0.83983 -1.16158,0.83983 z"
             style="stroke-width:6.31324" />
          <path
             id="use38855"
             d="m 300.51581,171.72755 h -0.53041 v 0.53041 h 0.53041 v -0.53041 m -0.0316,1.44268 H 300.017 v 2.71272 h 0.46721 z"
             style="stroke-width:6.31324" />
          <path
             id="use38857"
             d="m 302.00569,173.53648 h 0.82076 v -0.36625 h -0.82076 v -0.77683 h -0.44823 v 0.77683 h -0.49872 v 0.36625 h 0.4861 v 1.59469 c 0,0.35932 0.0821,0.8011 0.49871,0.8011 0.31568,0 0.60613,-0.0883 0.88385,-0.23351 l -0.10095,-0.37223 c -0.15154,0.13246 -0.33466,0.20808 -0.53031,0.20808 -0.27783,0 -0.29045,-0.35306 -0.29045,-0.51056 z"
             style="stroke-width:6.31324" />
          <path
             id="use38859"
             d="m 305.9704,173.8854 v -0.38504 h -1.79294 v -1.58419 h 0.77018 c 0.0758,0 0.15153,0.006 0.22725,0.006 h 1.04174 v -0.41028 h -2.56948 v 4.3708 h 0.53031 v -1.99755 z"
             style="stroke-width:6.31324" />
          <path
             id="use38861"
             d="m 307.42883,171.72755 h -0.53041 v 0.53041 h 0.53041 v -0.53041 m -0.0316,1.44268 h -0.46721 v 2.71272 h 0.46721 z"
             style="stroke-width:6.31324" />
          <path
             id="use38863"
             d="m 308.91866,173.53648 h 0.82076 v -0.36625 h -0.82076 v -0.77683 h -0.44823 v 0.77683 h -0.49872 v 0.36625 h 0.4861 v 1.59469 c 0,0.35932 0.0821,0.8011 0.49871,0.8011 0.31568,0 0.60613,-0.0883 0.88385,-0.23351 l -0.10095,-0.37223 c -0.15154,0.13246 -0.33466,0.20808 -0.53031,0.20808 -0.27783,0 -0.29045,-0.35306 -0.29045,-0.51056 z"
             style="stroke-width:6.31324" />
          <path
             transform="matrix(0.3520511,0,0,-0.3520511,224.46845,209.96822)"
             stroke-width="2"
             stroke-linecap="butt"
             stroke-dasharray="7.4, 3.2"
             stroke-linejoin="round"
             fill="none"
             stroke="#000000"
             d="m 151.6606,78.03103 h 36"
             id="path38865" />
          <path
             id="use38867"
             d="m 298.4829,182.71768 v -0.38504 h -1.79294 v -1.58419 h 0.77018 c 0.0758,0 0.15153,0.006 0.22725,0.006 h 1.04174 v -0.41028 h -2.56948 v 4.3708 h 0.53031 v -1.99755 z"
             style="stroke-width:6.31324" />
          <path
             id="use38869"
             d="m 301.3927,182.00251 h -0.47984 v 1.74024 c 0,0.46654 -0.34092,0.65564 -0.70072,0.65564 -0.41673,0 -0.45459,-0.13862 -0.45459,-0.39718 v -1.9987 h -0.47983 v 2.0303 c 0,0.49187 0.1705,0.73174 0.60612,0.73174 0.21463,0 0.70072,-0.0505 1.04164,-0.36616 v 0.31568 h 0.46722 z"
             style="stroke-width:6.31324" />
          <path
             id="use38871"
             d="m 302.79423,180.33172 h -0.46721 v 4.38351 h 0.46721 z"
             style="stroke-width:6.31324" />
          <path
             id="use38873"
             d="m 304.19573,180.33172 h -0.46721 v 4.38351 h 0.46721 z"
             style="stroke-width:6.31324" />
          <path
             id="use38875"
             d="m 309.52099,182.71768 v -0.38504 h -1.79294 v -1.58419 h 0.77018 c 0.0758,0 0.15153,0.006 0.22725,0.006 h 1.04174 v -0.41028 h -2.56948 v 4.3708 h 0.53031 v -1.99755 z"
             style="stroke-width:6.31324" />
          <path
             id="use38877"
             d="m 310.9794,180.55983 h -0.53041 v 0.53041 h 0.53041 v -0.53041 m -0.0316,1.44268 h -0.46721 v 2.71272 h 0.46721 z"
             style="stroke-width:6.31324" />
          <path
             id="use38879"
             d="m 313.99709,182.8695 c 0,-0.39824 -0.0947,-0.92248 -0.80814,-0.92248 -0.40402,0 -0.66922,0.20837 -0.84599,0.42309 v -0.39149 h -0.46085 v 2.73661 h 0.47983 v -1.52966 c 0,-0.39824 0.15153,-0.85341 0.58079,-0.85341 0.55555,0 0.57452,0.373 0.57452,0.58791 v 1.79516 h 0.47984 z"
             style="stroke-width:6.31324" />
          <path
             id="use38881"
             d="m 316.93272,183.33007 c 0,-0.20837 -0.0126,-0.61229 -0.21463,-0.94686 -0.22098,-0.3598 -0.58078,-0.46085 -0.85225,-0.46085 -0.6566,0 -1.21215,0.61865 -1.21215,1.42033 0,0.78395 0.57443,1.42186 1.30049,1.42186 0.28408,0 0.63136,-0.082 0.94695,-0.30932 0,-0.0252 -0.0126,-0.16425 -0.0189,-0.17061 0,-0.0126 -0.019,-0.20856 -0.019,-0.23389 -0.30306,0.24661 -0.65025,0.32878 -0.90273,0.32878 -0.40412,0 -0.83973,-0.3414 -0.85862,-1.04944 h 1.8308 m -1.78032,-0.34728 c 0.0821,-0.34709 0.3598,-0.67529 0.71344,-0.67529 0.0947,0 0.53657,0.0126 0.65025,0.67529 z"
             style="stroke-width:6.31324" />
          <path
             id="use38883"
             d="m 318.73834,183.54017 v -0.36626 h -1.57831 v 0.36626 z"
             style="stroke-width:6.31324" />
          <path
             id="use38885"
             d="m 320.12721,182.36876 h 0.82076 v -0.36625 h -0.82076 v -0.77683 h -0.44823 v 0.77683 h -0.49872 v 0.36625 h 0.4861 v 1.59469 c 0,0.35932 0.0821,0.8011 0.49871,0.8011 0.31568,0 0.60613,-0.0883 0.88385,-0.23351 l -0.10095,-0.37223 c -0.15154,0.13246 -0.33466,0.20808 -0.53031,0.20808 -0.27783,0 -0.29045,-0.35306 -0.29045,-0.51056 z"
             style="stroke-width:6.31324" />
          <path
             id="use38887"
             d="m 323.79525,182.00251 h -0.47984 v 1.74024 c 0,0.46654 -0.34092,0.65564 -0.70072,0.65564 -0.41673,0 -0.45459,-0.13862 -0.45459,-0.39718 v -1.9987 h -0.47983 v 2.0303 c 0,0.49187 0.1705,0.73174 0.60612,0.73174 0.21463,0 0.70072,-0.0505 1.04164,-0.36616 v 0.31568 h 0.46722 z"
             style="stroke-width:6.31324" />
          <path
             id="use38889"
             d="m 326.84456,182.8695 c 0,-0.39824 -0.0947,-0.92248 -0.80814,-0.92248 -0.40402,0 -0.66922,0.20837 -0.84599,0.42309 v -0.39149 h -0.46085 v 2.73661 h 0.47983 v -1.52966 c 0,-0.39824 0.15153,-0.85341 0.58079,-0.85341 0.55555,0 0.57452,0.373 0.57452,0.58791 v 1.79516 h 0.47984 z"
             style="stroke-width:6.31324" />
          <path
             id="use38891"
             d="m 328.27768,180.55983 h -0.53041 v 0.53041 h 0.53041 v -0.53041 m -0.0316,1.44268 h -0.46721 v 2.71272 h 0.46721 z"
             style="stroke-width:6.31324" />
          <path
             id="use38893"
             d="m 331.2954,182.8695 c 0,-0.39824 -0.0947,-0.92248 -0.80814,-0.92248 -0.40402,0 -0.66922,0.20837 -0.84599,0.42309 v -0.39149 h -0.46085 v 2.73661 h 0.47983 v -1.52966 c 0,-0.39824 0.15153,-0.85341 0.58079,-0.85341 0.55555,0 0.57452,0.373 0.57452,0.58791 v 1.79516 h 0.47984 z"
             style="stroke-width:6.31324" />
          <path
             id="use38895"
             d="m 334.57192,181.94702 c -0.3598,0.006 -0.66922,0.0758 -0.92171,0.19575 -0.20836,-0.16415 -0.42299,-0.19575 -0.56816,-0.19575 -0.54929,0 -0.96593,0.45479 -0.96593,0.98654 0,0.34179 0.18939,0.60121 0.20201,0.61393 -0.11367,0.15779 -0.17677,0.3283 -0.17677,0.5174 0,0.2205 0.0883,0.3783 0.15779,0.46673 -0.3283,0.20201 -0.37252,0.51172 -0.37252,0.63184 0,0.46153 0.57453,0.84031 1.31321,0.84031 0.74494,0 1.31946,-0.37878 1.31946,-0.84657 0,-0.87181 -0.96592,-0.87816 -1.23112,-0.87816 h -0.51134 c -0.0947,0 -0.34718,0 -0.34718,-0.32127 0,-0.1262 0.0567,-0.20827 0.0631,-0.21463 0.0947,0.0694 0.29044,0.17677 0.54929,0.17677 0.52395,0 0.95957,-0.44207 0.95957,-0.98635 0,-0.30383 -0.13892,-0.5254 -0.19575,-0.60131 h 0.019 c 0.019,0 0.28408,-0.019 0.37878,-0.019 0.202,0 0.22098,0.006 0.39775,0.0252 l -0.0695,-0.3915 m -1.48988,1.62571 c -0.21473,0 -0.51769,-0.13285 -0.51769,-0.63917 0,-0.55073 0.34718,-0.63926 0.51133,-0.63926 0.21463,0 0.51769,0.13284 0.51769,0.63926 0,0.55064 -0.34728,0.63917 -0.51133,0.63917 m 0.23986,1.16716 c 0.15154,0 0.78916,0 0.78916,0.42993 0,0.27185 -0.3914,0.48677 -0.86497,0.48677 -0.47974,0 -0.87113,-0.20865 -0.87113,-0.49312 0,-0.0316 0,-0.42358 0.43551,-0.42358 z"
             style="stroke-width:6.31324" />
        </g>
        <g
           clip-path="url(#clip_90)"
           id="g38915">
          <path
             id="use38899"
             d="m 244.12103,101.33188 c 0.11486,-0.27131 0.25992,-0.48073 0.43518,-0.62826 0.17527,-0.14754 0.3936,-0.22131 0.655,-0.22131 0.3228,0 0.57034,0.10496 0.74263,0.31488 0.13071,0.15645 0.19606,0.32378 0.19606,0.50202 0,0.29309 -0.18417,0.59608 -0.55252,0.90897 0.24754,0.097 0.43469,0.23567 0.56143,0.41588 0.12674,0.18021 0.19011,0.39211 0.19011,0.63569 0,0.34854 -0.1109,0.65054 -0.3327,0.90601 -0.28913,0.33269 -0.70797,0.49904 -1.25652,0.49904 -0.27131,0 -0.45598,-0.0337 -0.55401,-0.10099 -0.098,-0.0673 -0.14704,-0.13962 -0.14704,-0.21685 0,-0.0574 0.0233,-0.10793 0.0698,-0.1515 0.0465,-0.0436 0.10248,-0.0653 0.16783,-0.0653 0.0495,0 0.10001,0.008 0.1515,0.0235 0.0337,0.01 0.10991,0.0456 0.22873,0.10731 0.11882,0.0617 0.20101,0.0984 0.24655,0.11018 0.0733,0.0215 0.1515,0.0323 0.23467,0.0323 0.202,0 0.37776,-0.0782 0.52727,-0.23467 0.14952,-0.15645 0.22428,-0.34161 0.22428,-0.55549 0,-0.15645 -0.0347,-0.30893 -0.10397,-0.45746 -0.0515,-0.1109 -0.10793,-0.19506 -0.16932,-0.25249 -0.0852,-0.0792 -0.202,-0.15101 -0.35052,-0.21537 -0.14853,-0.0644 -0.30003,-0.0965 -0.45449,-0.0965 h -0.0951 v -0.0891 c 0.15645,-0.0198 0.31339,-0.0761 0.47083,-0.16895 0.15744,-0.093 0.2718,-0.20466 0.34309,-0.33511 0.0713,-0.13046 0.10694,-0.27379 0.10694,-0.42999 0,-0.20354 -0.0639,-0.36806 -0.1916,-0.49357 -0.12773,-0.12556 -0.28665,-0.18835 -0.47676,-0.18835 -0.30696,0 -0.56341,0.16437 -0.76937,0.49311 z"
             style="stroke-width:6.08362" />
          <path
             id="use38901"
             d="m 247.46584,100.56549 h 2.15956 v 0.11195 l -1.34267,3.99924 h -0.3327 l 1.20306,-3.62403 h -1.108 c -0.22378,0 -0.3832,0.0267 -0.47826,0.0802 -0.16634,0.0911 -0.30002,0.2317 -0.40102,0.42181 l -0.0861,-0.0327 z"
             style="stroke-width:6.08362" />
          <path
             id="use38903"
             d="m 250.65617,104.01723 c 0.0931,0 0.1713,0.0322 0.23467,0.0965 0.0634,0.0644 0.0951,0.14209 0.0951,0.23319 0,0.0911 -0.0322,0.16882 -0.0965,0.23318 -0.0644,0.0644 -0.14209,0.0965 -0.23319,0.0965 -0.0911,0 -0.16882,-0.0322 -0.23318,-0.0965 -0.0644,-0.0644 -0.0965,-0.14209 -0.0965,-0.23318 0,-0.0931 0.0322,-0.1713 0.0965,-0.23467 0.0644,-0.0634 0.14209,-0.0951 0.23318,-0.0951 z"
             style="stroke-width:6.08362" />
          <path
             id="use38905"
             d="m 251.72556,101.33188 c 0.11486,-0.27131 0.25992,-0.48073 0.43518,-0.62826 0.17527,-0.14754 0.3936,-0.22131 0.655,-0.22131 0.3228,0 0.57034,0.10496 0.74263,0.31488 0.13071,0.15645 0.19606,0.32378 0.19606,0.50202 0,0.29309 -0.18417,0.59608 -0.55252,0.90897 0.24754,0.097 0.43469,0.23567 0.56143,0.41588 0.12674,0.18021 0.19011,0.39211 0.19011,0.63569 0,0.34854 -0.1109,0.65054 -0.3327,0.90601 -0.28913,0.33269 -0.70797,0.49904 -1.25652,0.49904 -0.27131,0 -0.45598,-0.0337 -0.55401,-0.10099 -0.098,-0.0673 -0.14704,-0.13962 -0.14704,-0.21685 0,-0.0574 0.0233,-0.10793 0.0698,-0.1515 0.0465,-0.0436 0.10248,-0.0653 0.16783,-0.0653 0.0495,0 0.10001,0.008 0.1515,0.0235 0.0337,0.01 0.10991,0.0456 0.22873,0.10731 0.11882,0.0617 0.20101,0.0984 0.24655,0.11018 0.0733,0.0215 0.1515,0.0323 0.23467,0.0323 0.202,0 0.37776,-0.0782 0.52727,-0.23467 0.14952,-0.15645 0.22428,-0.34161 0.22428,-0.55549 0,-0.15645 -0.0347,-0.30893 -0.10397,-0.45746 -0.0515,-0.1109 -0.10793,-0.19506 -0.16932,-0.25249 -0.0852,-0.0792 -0.202,-0.15101 -0.35052,-0.21537 -0.14853,-0.0644 -0.30003,-0.0965 -0.45449,-0.0965 h -0.0951 v -0.0891 c 0.15645,-0.0198 0.31339,-0.0761 0.47083,-0.16895 0.15744,-0.093 0.2718,-0.20466 0.34309,-0.33511 0.0713,-0.13046 0.10694,-0.27379 0.10694,-0.42999 0,-0.20354 -0.0639,-0.36806 -0.1916,-0.49357 -0.12773,-0.12556 -0.28665,-0.18835 -0.47676,-0.18835 -0.30696,0 -0.56341,0.16437 -0.76937,0.49311 z"
             style="stroke-width:6.08362" />
          <path
             id="use38907"
             d="m 318.10832,106.98944 c 0.11486,-0.27131 0.25992,-0.48073 0.43518,-0.62826 0.17527,-0.14754 0.3936,-0.22131 0.655,-0.22131 0.3228,0 0.57034,0.10496 0.74263,0.31488 0.13071,0.15645 0.19606,0.32378 0.19606,0.50202 0,0.29309 -0.18417,0.59608 -0.55252,0.90897 0.24754,0.097 0.43469,0.23567 0.56143,0.41588 0.12674,0.18021 0.19011,0.39211 0.19011,0.63569 0,0.34854 -0.1109,0.65054 -0.3327,0.90601 -0.28913,0.33269 -0.70797,0.49904 -1.25652,0.49904 -0.27131,0 -0.45598,-0.0337 -0.55401,-0.10099 -0.098,-0.0673 -0.14704,-0.13962 -0.14704,-0.21685 0,-0.0574 0.0233,-0.10793 0.0698,-0.1515 0.0465,-0.0436 0.10248,-0.0653 0.16783,-0.0653 0.0495,0 0.10001,0.008 0.1515,0.0235 0.0337,0.01 0.10991,0.0456 0.22873,0.10731 0.11882,0.0617 0.20101,0.0984 0.24655,0.11018 0.0733,0.0215 0.1515,0.0323 0.23467,0.0323 0.202,0 0.37776,-0.0782 0.52727,-0.23467 0.14952,-0.15645 0.22428,-0.34161 0.22428,-0.55549 0,-0.15645 -0.0347,-0.30893 -0.10397,-0.45746 -0.0515,-0.1109 -0.10793,-0.19506 -0.16932,-0.25249 -0.0852,-0.0792 -0.202,-0.15101 -0.35052,-0.21537 -0.14853,-0.0644 -0.30003,-0.0965 -0.45449,-0.0965 h -0.0951 v -0.0891 c 0.15645,-0.0198 0.31339,-0.0761 0.47083,-0.16895 0.15744,-0.093 0.2718,-0.20466 0.34309,-0.33511 0.0713,-0.13046 0.10694,-0.27379 0.10694,-0.42999 0,-0.20354 -0.0639,-0.36806 -0.1916,-0.49357 -0.12773,-0.12556 -0.28665,-0.18835 -0.47676,-0.18835 -0.30696,0 -0.56341,0.16437 -0.76937,0.49311 z"
             style="stroke-width:6.08362" />
          <path
             id="use38909"
             d="m 323.56814,106.13987 v 0.11882 c -0.26141,0.0256 -0.47479,0.0772 -0.64015,0.15494 -0.16536,0.0777 -0.32874,0.19617 -0.49014,0.35553 -0.1614,0.15929 -0.29507,0.33681 -0.40102,0.53256 -0.10594,0.19568 -0.19457,0.42828 -0.26586,0.69779 0.28517,-0.1981 0.57133,-0.29714 0.85848,-0.29714 0.27527,0 0.5139,0.11114 0.7159,0.33344 0.20199,0.22229 0.30299,0.50811 0.30299,0.85745 0,0.33741 -0.10199,0.64507 -0.30596,0.923 -0.24557,0.3374 -0.57034,0.5061 -0.97433,0.5061 -0.27527,0 -0.50895,-0.0911 -0.70105,-0.27329 -0.37626,-0.35448 -0.56439,-0.81392 -0.56439,-1.37832 0,-0.36042 0.0723,-0.70302 0.21684,-1.02779 0.14457,-0.32478 0.35102,-0.61292 0.61936,-0.86443 0.26833,-0.2515 0.52528,-0.42082 0.77085,-0.50795 0.24556,-0.0871 0.47429,-0.13071 0.68618,-0.13071 h 0.1723 m -1.84767,2.07677 c -0.0356,0.26771 -0.0535,0.48385 -0.0535,0.64841 0,0.19036 0.0352,0.39709 0.10546,0.62018 0.0703,0.2231 0.17476,0.4001 0.31339,0.53098 0.10099,0.0932 0.22378,0.1398 0.36834,0.1398 0.17229,0 0.32626,-0.0813 0.46192,-0.24386 0.13565,-0.16263 0.20348,-0.39467 0.20348,-0.69612 0,-0.33907 -0.0673,-0.63253 -0.202,-0.88039 -0.13466,-0.24791 -0.32576,-0.37187 -0.57331,-0.37187 -0.0753,0 -0.15595,0.0159 -0.2421,0.0476 -0.0861,0.0317 -0.21338,0.1001 -0.38171,0.20525 z"
             style="stroke-width:6.08362" />
          <path
             id="use38911"
             d="m 324.64345,109.67479 c 0.0931,0 0.1713,0.0322 0.23467,0.0965 0.0634,0.0644 0.0951,0.14209 0.0951,0.23319 0,0.0911 -0.0322,0.16882 -0.0965,0.23318 -0.0644,0.0644 -0.14209,0.0965 -0.23319,0.0965 -0.0911,0 -0.16882,-0.0322 -0.23318,-0.0965 -0.0644,-0.0644 -0.0965,-0.14209 -0.0965,-0.23318 0,-0.0931 0.0322,-0.1713 0.0965,-0.23467 0.0644,-0.0634 0.14209,-0.0951 0.23318,-0.0951 z"
             style="stroke-width:6.08362" />
          <path
             id="use38913"
             d="m 328.13084,106.13987 v 0.11882 c -0.26141,0.0256 -0.47479,0.0772 -0.64015,0.15494 -0.16536,0.0777 -0.32874,0.19617 -0.49014,0.35553 -0.1614,0.15929 -0.29507,0.33681 -0.40102,0.53256 -0.10594,0.19568 -0.19457,0.42828 -0.26586,0.69779 0.28517,-0.1981 0.57133,-0.29714 0.85848,-0.29714 0.27527,0 0.5139,0.11114 0.7159,0.33344 0.20199,0.22229 0.30299,0.50811 0.30299,0.85745 0,0.33741 -0.10199,0.64507 -0.30596,0.923 -0.24557,0.3374 -0.57034,0.5061 -0.97433,0.5061 -0.27527,0 -0.50895,-0.0911 -0.70105,-0.27329 -0.37626,-0.35448 -0.56439,-0.81392 -0.56439,-1.37832 0,-0.36042 0.0723,-0.70302 0.21684,-1.02779 0.14457,-0.32478 0.35102,-0.61292 0.61936,-0.86443 0.26833,-0.2515 0.52528,-0.42082 0.77085,-0.50795 0.24556,-0.0871 0.47429,-0.13071 0.68618,-0.13071 h 0.1723 m -1.84767,2.07677 c -0.0356,0.26771 -0.0535,0.48385 -0.0535,0.64841 0,0.19036 0.0352,0.39709 0.10546,0.62018 0.0703,0.2231 0.17476,0.4001 0.31339,0.53098 0.10099,0.0932 0.22378,0.1398 0.36834,0.1398 0.17229,0 0.32626,-0.0813 0.46192,-0.24386 0.13565,-0.16263 0.20348,-0.39467 0.20348,-0.69612 0,-0.33907 -0.0673,-0.63253 -0.202,-0.88039 -0.13466,-0.24791 -0.32576,-0.37187 -0.57331,-0.37187 -0.0752,0 -0.15595,0.0159 -0.2421,0.0476 -0.0861,0.0317 -0.21338,0.1001 -0.38171,0.20525 z"
             style="stroke-width:6.08362" />
        </g>
      </g>
    </g>
  </g>
</svg>
