<svg xmlns:inkscape="http://www.inkscape.org/namespaces/inkscape" xmlns:sodipodi="http://sodipodi.sourceforge.net/DTD/sodipodi-0.dtd" xmlns="http://www.w3.org/2000/svg" xmlns:svg="http://www.w3.org/2000/svg" width="26.542999mm" height="21.2344mm" viewBox="0 0 26.542999 21.2344" version="1.1" id="svg12481" inkscape:version="1.2.2 (b0a84865, 2022-12-01)" sodipodi:docname="figure3e.svg">
  <sodipodi:namedview id="namedview12483" pagecolor="#ffffff" bordercolor="#999999" borderopacity="1" inkscape:showpageshadow="0" inkscape:pageopacity="0" inkscape:pagecheckerboard="0" inkscape:deskcolor="#d1d1d1" inkscape:document-units="mm" showgrid="false" inkscape:zoom="0.914906" inkscape:cx="-136.62606" inkscape:cy="448.67997" inkscape:window-width="1390" inkscape:window-height="1205" inkscape:window-x="0" inkscape:window-y="25" inkscape:window-maximized="0" inkscape:current-layer="layer1"/>
  <defs id="defs12478">
    <clipPath id="clip_96">
      <path transform="matrix(0.15048,0,0,-0.15048,426.268,142.05402)" d="M 0,0 H 500 V 400 H 0 Z" id="path334"/>
    </clipPath>
    <clipPath id="clip_97">
      <path transform="matrix(0.15048,0,0,-0.15048,370.43995,210.52242)" d="M 0,0 H 1920 V 1080 H 0 Z" id="path337"/>
    </clipPath>
    <clipPath id="clip_98">
      <path transform="matrix(0.15048,0,0,-0.15048,370.43995,210.52242)" d="M 0,0 H 1920 V 1080 H 0 Z" id="path340"/>
    </clipPath>
    <clipPath id="clip_99">
      <path transform="matrix(0.15048,0,0,-0.15048,370.43995,210.52242)" d="m 393.6093,481.3935 h 274.7564 v 53.06826 H 393.6093 Z" id="path343"/>
    </clipPath>
    <clipPath id="clip_100">
      <path transform="matrix(0.15048,0,0,-0.15048,370.43995,210.52242)" d="m 393.6093,698.5677 h 274.7564 v 53.0682 H 393.6093 Z" id="path346"/>
    </clipPath>
    <clipPath id="clip_101">
      <path transform="matrix(0.15048,0,0,-0.15048,370.43995,210.52242)" d="m 408.8935,495.6723 h 28 v 22.6667 h -28 z" id="path349"/>
    </clipPath>
    <clipPath id="clip_103">
      <path transform="matrix(0.15048,0,0,-0.15048,370.43995,210.52242)" d="m 408.8935,712.1018 h 27.99439 v 33.08426 H 408.8935 Z" id="path353"/>
    </clipPath>
    <clipPath id="clip_105">
      <path transform="matrix(0.15048,0,0,-0.15048,370.43995,210.52242)" d="M 0,0 H 1920 V 1080 H 0 Z" id="path357"/>
    </clipPath>
    <clipPath id="clip_106">
      <path transform="matrix(0.15048,0,0,-0.15048,370.43995,210.52242)" d="m 394.7718,581.1999 h 272.43147 v 76.551 H 394.7718 Z" id="path360"/>
    </clipPath>
    <clipPath id="clip_107">
      <path transform="matrix(0.15048,0,0,-0.15048,370.43995,210.52242)" d="m 413.3728,602.2449 h 235.2294 v 34 H 413.3728 Z" id="path363"/>
    </clipPath>
    <clipPath id="clip_109">
      <path transform="matrix(0.15048,0,0,-0.15048,370.43995,210.52242)" d="M 0,0 H 1920 V 1080 H 0 Z" id="path376"/>
    </clipPath>
    <clipPath id="clip_110">
      <path transform="matrix(0.15048,0,0,-0.15048,370.43995,210.52242)" d="m 426.3857,802.1795 h 209.2037 v 34 H 426.3857 Z" id="path379"/>
    </clipPath>
    <clipPath id="clip_111">
      <path transform="matrix(0.15048,0,0,-0.15048,370.43995,210.52242)" d="m 745.6195,550.5 h 86.3871 v 26 h -86.3871 z" id="path383"/>
    </clipPath>
    <clipPath id="clip_114">
      <path transform="matrix(0.15048,0,0,-0.15048,370.43995,210.52242)" d="m 755.947,698.8148 h 55.1193 v 28.37028 H 755.947 Z" id="path391"/>
    </clipPath>
    <clipPath id="clip_117">
      <path transform="matrix(0.15048,0,0,-0.15048,370.43995,210.52242)" d="M 0,0 H 1920 V 1080 H 0 Z" id="path397"/>
    </clipPath>
    <clipPath id="clip_118">
      <path transform="matrix(0.15048,0,0,-0.15048,370.43995,210.52242)" d="m 676.0367,767.1795 h 125.55268 v 34 H 676.0367 Z" id="path400"/>
    </clipPath>
    <clipPath id="clip_119">
      <path transform="matrix(0.15048,0,0,-0.15048,370.43995,210.52242)" d="M 0,0 H 1920 V 1080 H 0 Z" id="path409"/>
    </clipPath>
    <clipPath id="clip_120">
      <path transform="matrix(0.15048,0,0,-0.15048,370.43995,210.52242)" d="M 730.7691,618.2655 H 836.244 v 33 H 730.7691 Z" id="path412"/>
    </clipPath>
  </defs>
  <g inkscape:label="Layer 1" inkscape:groupmode="layer" id="layer1" transform="translate(-81.872609,-29.869655)" color="rgb(209, 209, 209)">
    <g clip-path="url(#clip_96)" id="g1594" transform="matrix(0.35277777,0,0,0.35277777,-68.505265,0.99055429)" color="rgb(209, 209, 209)">
      <g clip-path="url(#clip_97)" id="g1592" color="rgb(209, 209, 209)">
        <g clip-path="url(#clip_98)" id="g1412" color="rgb(209, 209, 209)">
          <path transform="matrix(0.15048,0,0,-0.15048,370.43995,210.52242)" d="M 0,0 H 1920 V 1080 H 0 Z" fill="#ffffff" id="path1406"/>
          <path transform="matrix(0.15048,0,0,0.15048,465.89576,86.339969)" stroke-width="3" stroke-linecap="butt" stroke-miterlimit="4" stroke-linejoin="miter" fill="none" stroke="#000000" d="M 151.4404,231.7481 C 159.1041,94.18635 112.9878,17.50106 13.09173,1.692215 l -1.48826,-0.19237" id="path1408"/>
          <path transform="matrix(0.15048,0,0,-0.15048,370.43995,210.52242)" d="m 648.2793,830.0956 -13.9372,-4.8534 12.2451,-8.2377 z" id="path1410"/>
        </g>
        <g clip-path="url(#clip_99)" id="g1418" color="rgb(209, 209, 209)">
          <path transform="matrix(0.15048,0,0,-0.15048,370.43995,210.52242)" d="m 396.1093,483.8935 h 269.7564 v 48.06826 H 396.1093 Z" fill="#fedcbb" fill-opacity="0.5" id="path1414"/>
          <path transform="matrix(0.15048,0,0,0.15048,430.04649,130.47283)" stroke-width="3" stroke-linecap="butt" stroke-miterlimit="4" stroke-linejoin="miter" fill="none" stroke="#000000" d="M 0,0 H 269.7564 V 48.06821 H 0 Z" id="path1416"/>
        </g>
        <g clip-path="url(#clip_100)" id="g1424" color="rgb(209, 209, 209)">
          <path transform="matrix(0.15048,0,0,-0.15048,370.43995,210.52242)" d="m 396.1093,701.0677 h 269.7564 v 48.0682 H 396.1093 Z" fill="#fedcbb" fill-opacity="0.5" id="path1420"/>
          <path transform="matrix(0.15048,0,0,0.15048,430.04649,97.79244)" stroke-width="3" stroke-linecap="butt" stroke-miterlimit="4" stroke-linejoin="miter" fill="none" stroke="#000000" d="M 0,0 H 269.7564 V 48.06821 H 0 Z" id="path1422"/>
        </g>
        <g clip-path="url(#clip_101)" id="g1428" color="rgb(209, 209, 209)">
          <path id="use1426" d="m 435.6618,132.93634 c -0.25903,0.0719 -0.38859,0.31656 -0.38859,0.49642 0,0.15833 0.12232,0.33105 0.35982,0.33105 0.25178,0 0.51805,-0.20873 0.51805,-0.56131 0,-0.38134 -0.38135,-0.63323 -0.82034,-0.63323 -0.41011,0 -0.67638,0.30953 -0.76993,0.43899 -0.17997,-0.30218 -0.58295,-0.43899 -0.99306,-0.43899 -0.90675,0 -1.39603,0.88512 -1.39603,1.12251 0,0.1008 0.10794,0.1008 0.17272,0.1008 0.0863,0 0.1367,0 0.16547,-0.0935 0.20874,-0.65475 0.72679,-0.87063 1.02183,-0.87063 0.27352,0 0.40297,0.12946 0.40297,0.35972 0,0.1367 -0.10069,0.53243 -0.16547,0.79156 l -0.24464,0.9857 c -0.10794,0.43888 -0.36707,0.65475 -0.61171,0.65475 -0.036,0 -0.20149,0 -0.34544,-0.10793 0.25913,-0.0719 0.38859,-0.31656 0.38859,-0.49642 0,-0.15833 -0.12232,-0.33105 -0.35982,-0.33105 -0.25178,0 -0.51805,0.20873 -0.51805,0.56131 0,0.38134 0.38134,0.63312 0.82033,0.63312 0.41023,0 0.67639,-0.30942 0.76994,-0.43888 0.17997,0.30217 0.58294,0.43888 0.99306,0.43888 0.90675,0 1.39603,-0.88501 1.39603,-1.1224 0,-0.1008 -0.10794,-0.1008 -0.17272,-0.1008 -0.0863,0 -0.13671,0 -0.16548,0.0935 -0.20862,0.65475 -0.72678,0.87062 -1.02182,0.87062 -0.27341,0 -0.40297,-0.12945 -0.40297,-0.35971 0,-0.15109 0.0935,-0.53243 0.15833,-0.7987 0.0504,-0.18711 0.21587,-0.86349 0.25189,-0.97856 0.10793,-0.43175 0.35971,-0.65476 0.6116,-0.65476 0.036,0 0.20149,0 0.34544,0.10794 z" style="stroke-width:7.19603"/>
        </g>
        <g clip-path="url(#clip_103)" id="g1432" color="rgb(209, 209, 209)">
          <path id="use1430" d="m 433.95287,98.770011 c 0.0274,-0.09609 0.0274,-0.109821 0.0274,-0.116737 0,-0.08928 -0.0756,-0.123653 -0.1511,-0.123653 -0.0275,0 -0.0343,0 -0.048,0.0069 l -0.886,0.04118 c -0.0961,0.0069 -0.21975,0.01373 -0.21975,0.206018 0,0.123653 0.12365,0.123653 0.17856,0.123653 0.0756,0 0.19921,0 0.28849,0.01373 l -0.98901,3.963598 c -0.007,0.0275 -0.0275,0.13046 -0.0275,0.15792 0,0.16483 0.13047,0.30902 0.32967,0.30902 0.0412,0 0.35021,0 0.44641,-0.38447 l 0.41204,-1.62751 c 0.0344,-0.13046 0.0344,-0.14419 0.13738,-0.28157 0.10982,-0.151 0.45322,-0.61795 1.02328,-0.61795 0.17856,0 0.34329,0.0686 0.34329,0.40512 0,0.39831 -0.30211,1.20174 -0.43257,1.53822 -0.0756,0.18538 -0.0962,0.23348 -0.0962,0.35021 0,0.39821 0.39831,0.61795 0.77608,0.61795 0.72798,0 1.07127,-0.93389 1.07127,-1.07117 0,-0.0962 -0.10301,-0.0962 -0.16473,-0.0962 -0.0825,0 -0.13057,0 -0.15802,0.0893 -0.21975,0.76224 -0.59741,0.83088 -0.70734,0.83088 -0.0481,0 -0.11674,0 -0.11674,-0.14419 0,-0.15111 0.0756,-0.33648 0.11674,-0.4463 0.13047,-0.33649 0.44641,-1.13991 0.44641,-1.5245 0,-0.63178 -0.52877,-0.79661 -1.02328,-0.79661 -0.15111,0 -0.57006,0 -1.03701,0.42587 z" style="stroke-width:6.86755"/>
        </g>
        <g clip-path="url(#clip_105)" id="g1450" color="rgb(209, 209, 209)">
          <path transform="matrix(0.15048,0,0,-0.15048,370.43995,210.52242)" d="m 474.8133,519.5677 c 7.2207,-6.9379 7.2207,-18.1864 0,-25.1242 -7.2206,-6.9379 -18.9276,-6.9379 -26.1482,0 -7.2206,6.9378 -7.2206,18.1863 0,25.1242 7.2206,6.9379 18.9276,6.9379 26.1482,0 z m 0,0" fill="#ffffff" id="path1434"/>
          <path transform="matrix(0.15048,0,0,0.15048,437.14015,131.55486)" stroke-width="3" stroke-linecap="butt" stroke-miterlimit="4" stroke-linejoin="miter" fill="none" stroke="#000000" d="m 31.56369,5.203402 c 7.22063,6.937868 7.22063,18.186378 0,25.124248 -7.22063,6.93786 -18.92758,6.93786 -26.148216,0 -7.220632,-6.93787 -7.220632,-18.18638 0,-25.124248 7.220636,-6.937869 18.927586,-6.937869 26.148216,0 z m 0,0" id="path1436"/>
          <path transform="matrix(0.15048,0,0,-0.15048,370.43995,210.52242)" d="m 533.2294,519.5677 c 7.2206,-6.9379 7.2206,-18.1864 0,-25.1242 -7.2206,-6.9379 -18.9276,-6.9379 -26.1482,0 -7.2206,6.9378 -7.2206,18.1863 0,25.1242 7.2206,6.9379 18.9276,6.9379 26.1482,0 z m 0,0" fill="#ffffff" id="path1438"/>
          <path transform="matrix(0.15048,0,0,0.15048,445.9306,131.55486)" stroke-width="3" stroke-linecap="butt" stroke-miterlimit="4" stroke-linejoin="miter" fill="none" stroke="#000000" d="m 31.56369,5.203402 c 7.22063,6.937868 7.22063,18.186378 0,25.124248 -7.22063,6.93786 -18.92758,6.93786 -26.148216,0 -7.220632,-6.93787 -7.220632,-18.18638 0,-25.124248 7.220636,-6.937869 18.927586,-6.937869 26.148216,0 z m 0,0" id="path1440"/>
          <path transform="matrix(0.15048,0,0,-0.15048,370.43995,210.52242)" d="m 591.6455,519.5677 c 7.2206,-6.9379 7.2206,-18.1864 0,-25.1242 -7.2206,-6.9379 -18.9276,-6.9379 -26.1482,0 -7.2207,6.9378 -7.2207,18.1863 0,25.1242 7.2206,6.9379 18.9276,6.9379 26.1482,0 z m 0,0" fill="#ffffff" id="path1442"/>
          <path transform="matrix(0.15048,0,0,0.15048,454.72105,131.55486)" stroke-width="3" stroke-linecap="butt" stroke-miterlimit="4" stroke-linejoin="miter" fill="none" stroke="#000000" d="m 31.56369,5.203402 c 7.22063,6.937868 7.22063,18.186378 0,25.124248 -7.22063,6.93786 -18.92758,6.93786 -26.148216,0 -7.220632,-6.93787 -7.220632,-18.18638 0,-25.124248 7.220636,-6.937869 18.927586,-6.937869 26.148216,0 z m 0,0" id="path1444"/>
          <path transform="matrix(0.15048,0,0,-0.15048,370.43995,210.52242)" d="m 650.0615,520.5677 c 7.2206,-6.9379 7.2206,-18.1864 0,-25.1242 -7.2206,-6.9379 -18.9276,-6.9379 -26.1482,0 -7.2207,6.9378 -7.2207,18.1863 0,25.1242 7.2206,6.9379 18.9276,6.9379 26.1482,0 z m 0,0" fill="#ffffff" id="path1446"/>
          <path transform="matrix(0.15048,0,0,0.15048,463.51148,131.40438)" stroke-width="3" stroke-linecap="butt" stroke-miterlimit="4" stroke-linejoin="miter" fill="none" stroke="#000000" d="m 31.56369,5.203402 c 7.22063,6.937868 7.22063,18.186378 0,25.124248 -7.22063,6.93786 -18.92758,6.93786 -26.148216,0 -7.220632,-6.93787 -7.220632,-18.18638 0,-25.124248 7.220636,-6.937869 18.927586,-6.937869 26.148216,0 z m 0,0" id="path1448"/>
        </g>
        <g clip-path="url(#clip_106)" id="g1456" color="rgb(209, 209, 209)">
          <path transform="matrix(0.15048,0,0,-0.15048,370.43995,210.52242)" d="m 413.6784,655.2509 h 234.6183 c 4.8145,0 7.7032,0 9.629,-0.804 2.7762,-1.0104 4.9632,-3.1974 5.9736,-5.9736 0.804,-1.9258 0.804,-4.8145 0.804,-9.629 v -38.7378 c 0,-4.8145 0,-7.7032 -0.804,-9.629 -1.0104,-2.7762 -3.1974,-4.9632 -5.9736,-5.9736 -1.9258,-0.804 -4.8145,-0.804 -9.629,-0.804 H 413.6784 c -4.8145,0 -7.7032,0 -9.629,0.804 -2.7763,1.0104 -4.9632,3.1974 -5.9736,5.9736 -0.804,1.9258 -0.804,4.8145 -0.804,9.629 v 38.7378 c 0,4.8145 0,7.7032 0.804,9.629 1.0104,2.7762 3.1973,4.9632 5.9736,5.9736 1.9258,0.804 4.8145,0.804 9.629,0.804 z m 0,0" fill="#a2d8f8" id="path1452"/>
          <path transform="matrix(0.15048,0,0,0.15048,430.2214,111.92026)" stroke-width="3" stroke-linecap="butt" stroke-miterlimit="4" stroke-linejoin="miter" fill="none" stroke="#000000" d="M 16.40663,0 H 251.0249 c 4.8145,0 7.7032,0 9.629,0.8039981 2.7763,1.0104599 4.9632,3.1973919 5.9737,5.9736069 0.8039,1.925806 0.8039,4.814515 0.8039,9.629025 V 55.1444 c 0,4.81451 0,7.70322 -0.8039,9.62903 -1.0105,2.77621 -3.1974,4.96315 -5.9737,5.9736 -1.9258,0.804 -4.8145,0.804 -9.629,0.804 H 16.40663 c -4.81451,0 -7.703219,0 -9.629025,-0.804 C 4.00139,69.73658 1.814458,67.54964 0.8039981,64.77343 0,62.84762 0,59.95891 0,55.1444 V 16.40663 C 0,11.59212 0,8.703411 0.8039981,6.777605 1.814458,4.00139 4.00139,1.814458 6.777605,0.8039981 8.703411,0 11.59212,0 16.40663,0 Z m 0,0" id="path1454"/>
        </g>
        <g clip-path="url(#clip_107)" id="g1478" color="rgb(209, 209, 209)">
          <path id="use1458" d="m 438.28501,117.42994 v -1.18151 h 0.8397 c 0.24376,0 0.42205,0.0504 0.53489,0.15107 0.11287,0.1007 0.16931,0.24727 0.16931,0.43968 0,0.19242 -0.0564,0.33974 -0.16931,0.44197 -0.11284,0.10217 -0.29113,0.15177 -0.53489,0.14879 h -0.8397 m -0.42887,-1.54301 v 3.22268 h 0.42887 v -1.31817 h 0.98415 c 0.32504,0.003 0.57107,-0.0797 0.73809,-0.24819 0.16703,-0.16849 0.25054,-0.40318 0.25054,-0.70407 0,-0.30088 -0.0835,-0.53481 -0.25054,-0.70179 -0.16702,-0.16697 -0.41305,-0.25046 -0.73809,-0.25046 z" style="stroke-width:4.5144"/>
          <path id="use1460" d="m 440.78147,115.88693 v 3.22268 h 2.13527 v -0.3615 h -1.7064 v -2.86118 z" style="stroke-width:4.5144"/>
          <path id="use1462" d="m 443.3005,115.88693 v 3.22268 h 0.40628 v -2.68104 h 0.009 l 1.00675,2.68104 h 0.36564 l 1.00674,-2.68104 h 0.009 v 2.68104 h 0.40628 v -3.22268 h -0.58689 l -1.02025,2.70811 -1.0157,-2.70811 z" style="stroke-width:4.5144"/>
          <path id="use1464" d="M 446.87138,119.10961 Z" style="stroke-width:4.5144"/>
          <path id="use1466" d="m 448.41528,116.77436 v 2.33525 h 0.38375 v -1.45394 c 0,-0.0452 0.0113,-0.10163 0.0338,-0.16932 0.0226,-0.0677 0.0587,-0.1332 0.10835,-0.19639 0.0497,-0.0632 0.1144,-0.11742 0.19412,-0.16256 0.0798,-0.0452 0.17533,-0.0678 0.28669,-0.0678 0.0873,0 0.15878,0.0128 0.21444,0.0384 0.0557,0.0256 0.10004,0.0617 0.13315,0.10836 0.0331,0.0466 0.0564,0.1016 0.07,0.16484 0.0136,0.0632 0.0203,0.13246 0.0203,0.20768 v 1.53075 h 0.38369 v -1.45394 c 0,-0.18061 0.0542,-0.32511 0.16249,-0.43349 0.10838,-0.10838 0.25736,-0.16257 0.44693,-0.16257 0.0933,0 0.16931,0.0135 0.228,0.0406 0.0587,0.0271 0.10459,0.064 0.1377,0.11063 0.0331,0.0466 0.0557,0.1016 0.0677,0.16484 0.012,0.0632 0.018,0.1309 0.018,0.20314 v 1.53074 h 0.38376 v -1.71191 c 0,-0.12046 -0.0188,-0.2236 -0.0564,-0.30943 -0.0376,-0.0858 -0.0903,-0.15584 -0.15802,-0.21003 -0.0677,-0.0542 -0.149,-0.0941 -0.24378,-0.11965 -0.0948,-0.0256 -0.20087,-0.0384 -0.31825,-0.0384 -0.15352,0 -0.29422,0.0346 -0.42212,0.10388 -0.12789,0.0692 -0.23097,0.16702 -0.30922,0.29345 -0.0482,-0.14448 -0.13095,-0.24681 -0.24833,-0.30702 -0.11733,-0.0602 -0.24823,-0.0903 -0.39271,-0.0903 -0.32807,0 -0.57938,0.13249 -0.75393,0.39747 h -0.009 v -0.34325 z" style="stroke-width:4.5144"/>
          <path id="use1468" d="m 452.54603,117.94361 c 0,-0.14135 0.0188,-0.26689 0.0564,-0.37659 0.0376,-0.10976 0.0895,-0.20223 0.15575,-0.2774 0.0662,-0.0752 0.14372,-0.13231 0.23248,-0.17139 0.0888,-0.0391 0.18282,-0.0586 0.28215,-0.0586 0.0993,0 0.19339,0.0195 0.28215,0.0586 0.0888,0.0391 0.16627,0.0962 0.23249,0.17139 0.0662,0.0752 0.11814,0.16764 0.15575,0.2774 0.0376,0.1097 0.0564,0.23524 0.0564,0.37659 0,0.1413 -0.0188,0.26683 -0.0564,0.37659 -0.0376,0.10975 -0.0895,0.20146 -0.15575,0.27512 -0.0662,0.0737 -0.14372,0.13003 -0.23249,0.16911 -0.0888,0.0391 -0.18281,0.0586 -0.28215,0.0586 -0.0993,0 -0.19338,-0.0195 -0.28215,-0.0586 -0.0888,-0.0391 -0.16626,-0.0954 -0.23248,-0.16911 -0.0662,-0.0737 -0.11814,-0.16537 -0.15575,-0.27512 -0.0376,-0.10976 -0.0564,-0.23529 -0.0564,-0.37659 m -0.40635,6e-5 c 0,0.17153 0.0241,0.33104 0.0722,0.47854 0.0482,0.14746 0.12041,0.27614 0.21671,0.38603 0.0963,0.10985 0.21517,0.19563 0.35661,0.25735 0.14149,0.0617 0.30403,0.0925 0.48763,0.0925 0.18659,0 0.34984,-0.0308 0.48977,-0.0925 0.13997,-0.0617 0.25811,-0.1475 0.35441,-0.25735 0.0963,-0.10989 0.16852,-0.23857 0.21664,-0.38603 0.0482,-0.1475 0.0723,-0.30701 0.0723,-0.47854 0,-0.17156 -0.0241,-0.33183 -0.0723,-0.48081 -0.0481,-0.14902 -0.12034,-0.27845 -0.21664,-0.3883 -0.0963,-0.10985 -0.21444,-0.19636 -0.35441,-0.25955 -0.13993,-0.0632 -0.30318,-0.0949 -0.48977,-0.0949 -0.1836,0 -0.34614,0.0316 -0.48763,0.0949 -0.14144,0.0632 -0.26031,0.1497 -0.35661,0.25955 -0.0963,0.10985 -0.16854,0.23928 -0.21671,0.3883 -0.0481,0.14898 -0.0722,0.30925 -0.0722,0.48081 z" style="stroke-width:4.5144"/>
          <path id="use1470" d="m 455.13728,117.96165 c 0,-0.11425 0.012,-0.2255 0.0361,-0.33374 0.0241,-0.10824 0.0632,-0.20445 0.11738,-0.28863 0.0542,-0.0842 0.12643,-0.15189 0.21671,-0.203 0.0903,-0.0511 0.20013,-0.0767 0.32954,-0.0767 0.1324,0 0.24526,0.0248 0.33857,0.0745 0.0933,0.0496 0.1693,0.11499 0.22794,0.19618 0.0587,0.0812 0.10158,0.1751 0.12867,0.28188 0.0271,0.10672 0.0407,0.21721 0.0407,0.33147 0,0.10824 -0.0128,0.21498 -0.0384,0.32024 -0.0256,0.10521 -0.067,0.19917 -0.12413,0.28187 -0.0572,0.0827 -0.13091,0.14955 -0.22119,0.20066 -0.0903,0.0511 -0.20013,0.0767 -0.32954,0.0767 -0.1234,0 -0.23099,-0.024 -0.32279,-0.0721 -0.0918,-0.0481 -0.16705,-0.11279 -0.22574,-0.19398 -0.0587,-0.0812 -0.10234,-0.17363 -0.13095,-0.27733 -0.0286,-0.10374 -0.0428,-0.20973 -0.0428,-0.31797 m 1.80573,1.14679 v -3.22151 h -0.38376 v 1.19893 h -0.009 c -0.0422,-0.0692 -0.0941,-0.12714 -0.15575,-0.1738 -0.0617,-0.0466 -0.12713,-0.0843 -0.19639,-0.11283 -0.0692,-0.0286 -0.13843,-0.0489 -0.20768,-0.061 -0.0692,-0.0121 -0.13391,-0.0181 -0.19412,-0.0181 -0.17754,0 -0.33328,0.0324 -0.46724,0.0971 -0.13391,0.0647 -0.24525,0.152 -0.33402,0.2619 -0.0888,0.10985 -0.15499,0.23852 -0.19866,0.38603 -0.0436,0.14745 -0.0654,0.30394 -0.0654,0.46944 0,0.16555 0.0226,0.32208 0.0677,0.46959 0.0451,0.14745 0.1121,0.27686 0.20087,0.38823 0.0888,0.11136 0.20018,0.20015 0.33409,0.26637 0.13391,0.0662 0.29117,0.0993 0.47179,0.0993 0.16252,0 0.31149,-0.0286 0.44692,-0.0857 0.13542,-0.0572 0.23473,-0.15044 0.29792,-0.27981 h 0.009 v 0.31584 z" style="stroke-width:4.5144"/>
          <path id="use1472" d="m 459.46659,119.10851 v -2.33105 h -0.38375 v 1.31569 c 0,0.10512 -0.0143,0.202 -0.0429,0.29063 -0.0286,0.0886 -0.0714,0.16592 -0.12861,0.232 -0.0572,0.0661 -0.12865,0.11715 -0.21444,0.1532 -0.0858,0.0361 -0.18736,0.0541 -0.30474,0.0541 -0.14746,0 -0.26332,-0.042 -0.34759,-0.12613 -0.0843,-0.0841 -0.1264,-0.19829 -0.1264,-0.34249 v -1.57697 h -0.38376 v 1.53302 c 0,0.12625 0.0128,0.24121 0.0384,0.34491 0.0256,0.10369 0.07,0.19313 0.13315,0.2683 0.0632,0.0751 0.14601,0.13299 0.24833,0.17359 0.10232,0.0405 0.23023,0.0608 0.38375,0.0608 0.17153,0 0.32048,-0.0338 0.44686,-0.10139 0.12642,-0.0677 0.23028,-0.17361 0.31156,-0.3179 h 0.009 v 0.3697 z" style="stroke-width:4.5144"/>
          <path id="use1474" d="m 460.06699,115.88693 v 3.22268 h 0.38376 v -3.22268 z" style="stroke-width:4.5144"/>
          <path id="use1476" d="m 462.66731,117.7209 h -1.34076 c 0.006,-0.0906 0.0256,-0.1759 0.0587,-0.2559 0.0331,-0.08 0.0782,-0.15026 0.13542,-0.21065 0.0572,-0.0604 0.12565,-0.10794 0.20542,-0.14266 0.0798,-0.0347 0.16929,-0.0521 0.26857,-0.0521 0.0963,0 0.18434,0.0174 0.26411,0.0521 0.0798,0.0347 0.14899,0.0815 0.20768,0.14046 0.0587,0.0589 0.10533,0.12906 0.13991,0.21057 0.0346,0.0815 0.0549,0.16758 0.061,0.25818 m 0.37018,0.64807 h -0.3792 c -0.0331,0.15287 -0.10158,0.26679 -0.20542,0.34173 -0.10383,0.0749 -0.237,0.11235 -0.39953,0.11235 -0.12638,0 -0.23622,-0.0209 -0.32954,-0.0628 -0.0933,-0.0419 -0.17,-0.098 -0.23021,-0.16822 -0.0602,-0.0703 -0.10385,-0.15106 -0.13095,-0.24226 -0.0271,-0.0913 -0.0391,-0.18771 -0.0361,-0.28939 h 1.74705 c 0.006,-0.14185 -0.007,-0.29126 -0.0384,-0.44823 -0.0316,-0.15696 -0.0888,-0.30185 -0.17159,-0.43466 -0.0827,-0.1328 -0.1926,-0.24222 -0.32954,-0.32823 -0.13694,-0.0861 -0.30925,-0.12909 -0.51691,-0.12909 -0.15949,0 -0.30621,0.0301 -0.44017,0.0903 -0.13391,0.0602 -0.24977,0.1445 -0.34759,0.25287 -0.0978,0.10834 -0.17382,0.23625 -0.22801,0.38376 -0.0541,0.14746 -0.0812,0.30995 -0.0812,0.48749 0.006,0.17759 0.0323,0.34162 0.079,0.49211 0.0467,0.15049 0.11662,0.27992 0.20989,0.3883 0.0933,0.10833 0.20844,0.1926 0.34538,0.25281 0.13695,0.0602 0.29871,0.0903 0.48529,0.0903 0.26489,0 0.48461,-0.0661 0.65916,-0.19838 0.17455,-0.13231 0.28741,-0.32922 0.33856,-0.59075 z" style="stroke-width:4.5144"/>
        </g>
        <g clip-path="url(#clip_109)" id="g1522" color="rgb(209, 209, 209)">
          <path transform="matrix(0.15048,0,0,-0.15048,370.43995,210.52242)" d="m 478.3003,736.8954 c 7.2207,-6.9379 7.2207,-18.1864 0,-25.1243 -7.2206,-6.9379 -18.9276,-6.9379 -26.1482,0 -7.2206,6.9379 -7.2206,18.1864 0,25.1243 7.2206,6.9378 18.9276,6.9378 26.1482,0 z m 0,0" fill="#ffffff" id="path1480"/>
          <path transform="matrix(0.15048,0,0,0.15048,437.66487,98.85139)" stroke-width="3" stroke-linecap="butt" stroke-miterlimit="4" stroke-linejoin="miter" fill="none" stroke="#000000" d="m 31.56369,5.203402 c 7.22063,6.937868 7.22063,18.186378 0,25.124248 -7.22063,6.93786 -18.92758,6.93786 -26.148216,0 -7.220632,-6.93787 -7.220632,-18.18638 0,-25.124248 7.220636,-6.937869 18.927586,-6.937869 26.148216,0 z m 0,0" id="path1482"/>
          <path transform="matrix(0.15048,0,0,-0.15048,370.43995,210.52242)" d="m 536.7164,736.8954 c 7.2206,-6.9379 7.2206,-18.1864 0,-25.1243 -7.2206,-6.9379 -18.9276,-6.9379 -26.1482,0 -7.2206,6.9379 -7.2206,18.1864 0,25.1243 7.2206,6.9378 18.9276,6.9378 26.1482,0 z m 0,0" fill="#ffffff" id="path1484"/>
          <path transform="matrix(0.15048,0,0,0.15048,446.45533,98.85139)" stroke-width="3" stroke-linecap="butt" stroke-miterlimit="4" stroke-linejoin="miter" fill="none" stroke="#000000" d="m 31.56369,5.203402 c 7.22063,6.937868 7.22063,18.186378 0,25.124248 -7.22063,6.93786 -18.92758,6.93786 -26.148216,0 -7.220632,-6.93787 -7.220632,-18.18638 0,-25.124248 7.220636,-6.937869 18.927586,-6.937869 26.148216,0 z m 0,0" id="path1486"/>
          <path transform="matrix(0.15048,0,0,-0.15048,370.43995,210.52242)" d="m 595.1325,736.8954 c 7.2206,-6.9379 7.2206,-18.1864 0,-25.1243 -7.2207,-6.9379 -18.9276,-6.9379 -26.1482,0 -7.2207,6.9379 -7.2207,18.1864 0,25.1243 7.2206,6.9378 18.9275,6.9378 26.1482,0 z m 0,0" fill="#ffffff" id="path1488"/>
          <path transform="matrix(0.15048,0,0,0.15048,455.2458,98.85139)" stroke-width="3" stroke-linecap="butt" stroke-miterlimit="4" stroke-linejoin="miter" fill="none" stroke="#000000" d="m 31.56369,5.203402 c 7.22063,6.937868 7.22063,18.186378 0,25.124248 -7.22063,6.93786 -18.92758,6.93786 -26.148216,0 -7.220632,-6.93787 -7.220632,-18.18638 0,-25.124248 7.220636,-6.937869 18.927586,-6.937869 26.148216,0 z m 0,0" id="path1490"/>
          <path transform="matrix(0.15048,0,0,-0.15048,370.43995,210.52242)" d="m 653.5485,737.8954 c 7.2206,-6.9379 7.2206,-18.1864 0,-25.1243 -7.2206,-6.9379 -18.9276,-6.9379 -26.1482,0 -7.2207,6.9379 -7.2207,18.1864 0,25.1243 7.2206,6.9378 18.9276,6.9378 26.1482,0 z m 0,0" fill="#ffffff" id="path1492"/>
          <path transform="matrix(0.15048,0,0,0.15048,464.03623,98.700908)" stroke-width="3" stroke-linecap="butt" stroke-miterlimit="4" stroke-linejoin="miter" fill="none" stroke="#000000" d="m 31.56369,5.203402 c 7.22063,6.937868 7.22063,18.186378 0,25.124248 -7.22063,6.93786 -18.92758,6.93786 -26.148216,0 -7.220632,-6.93787 -7.220632,-18.18638 0,-25.124248 7.220636,-6.937869 18.927586,-6.937869 26.148216,0 z m 0,0" id="path1494"/>
          <path transform="matrix(0.15048,0,0,0.15048,450.34297,122.9147)" stroke-width="3" stroke-linecap="butt" stroke-miterlimit="4" stroke-linejoin="miter" fill="none" stroke="#000000" d="M 6.665404e-6,48.72675 1.805648e-6,13.2 1.60046e-6,11.7" id="path1496"/>
          <path transform="matrix(0.15048,0,0,-0.15048,370.43995,210.52242)" d="m 537.5875,568.9884 -6.6,13.2 -6.6,-13.2 z" id="path1498"/>
          <path transform="matrix(0.15048,0,0,0.15048,450.34297,105.2506)" stroke-width="3" stroke-linecap="butt" stroke-miterlimit="4" stroke-linejoin="miter" fill="none" stroke="#000000" d="M 0,42.82251 4.279268e-6,13.2 l 2.1669e-7,-1.5" id="path1500"/>
          <path transform="matrix(0.15048,0,0,-0.15048,370.43995,210.52242)" d="m 537.5875,686.3734 -6.6,13.2 -6.6,-13.2 z" id="path1502"/>
          <path transform="matrix(0.15048,0,0,0.15048,450.34297,90.89673)" stroke-width="3" stroke-linecap="butt" stroke-miterlimit="4" stroke-linejoin="miter" fill="none" stroke="#000000" d="M 0,44.3248 C 0,33.94987 0,23.57493 0,13.2 v -1.5" id="path1504"/>
          <path transform="matrix(0.15048,0,0,-0.15048,370.43995,210.52242)" d="m 537.5875,781.7607 -6.6,13.2 -6.6,-13.2 z" id="path1506"/>
          <path transform="matrix(0.15048,0,0,-0.15048,370.43995,210.52242)" d="m 751.8774,684.487 -40.5652,57.0261 h 144.0969 l -47.4425,-57.0104 z m 0,0" fill="#ffe46d" id="path1508"/>
          <path transform="matrix(0.15048,0,0,-0.15048,477.4782,107.52081)" stroke-width="3" stroke-linecap="butt" stroke-miterlimit="4" stroke-linejoin="miter" fill="none" stroke="#000000" d="M 40.56524,0 0,57.02613 H 144.0969 L 96.65436,0.01578622 Z m 0,0" id="path1510"/>
          <path transform="matrix(0.15048,0,0,-0.15048,370.43995,210.52242)" d="m 751.8774,592.013 -40.5652,-57.0262 h 144.0969 l -47.4425,57.0104 z m 0,0" fill="#ffe46d" id="path1512"/>
          <path transform="matrix(0.15048,0,0,0.15048,477.4782,121.4363)" stroke-width="3" stroke-linecap="butt" stroke-miterlimit="4" stroke-linejoin="miter" fill="none" stroke="#000000" d="M 40.56524,0 0,57.02613 H 144.0969 L 96.65436,0.01578622 Z m 0,0" id="path1514"/>
          <path transform="matrix(0.15048,0,0,0.15048,426.51887,82.09941)" stroke-width="3" stroke-linecap="butt" stroke-miterlimit="4" stroke-linejoin="miter" fill="none" stroke="#000000" d="m 115.3463,0 h 265.135 c 33.8483,0 54.1573,0 67.6966,5.652482 19.5181,7.104008 34.8932,22.479158 41.9973,41.997248 5.6524,13.53932 5.6524,33.84829 5.6524,67.69657 V 280.651 c 0,33.8483 0,54.1573 -5.6524,67.6966 -7.1041,19.5181 -22.4792,34.8933 -41.9973,41.9973 -13.5393,5.6524 -33.8483,5.6524 -67.6966,5.6524 h -265.135 c -33.84828,0 -54.15725,0 -67.69657,-5.6524 C 28.13164,383.2409 12.75649,367.8657 5.652482,348.3476 0,334.8083 0,314.4993 0,280.651 V 115.3463 C 0,81.49802 0,61.18905 5.652482,47.64973 12.75649,28.13164 28.13164,12.75649 47.64973,5.652482 61.18905,0 81.49802,0 115.3463,0 Z m 0,0" id="path1516"/>
          <path transform="matrix(0.15048,0,0,-0.15048,370.43995,210.52242)" d="M 429.1232,796.4527 H 632.852 v 45.72677 H 429.1232 Z" fill="#ffe46d" id="path1518"/>
          <path transform="matrix(0.15048,0,0,0.15048,435.0144,83.791248)" stroke-width="3" stroke-linecap="butt" stroke-miterlimit="4" stroke-linejoin="miter" fill="none" stroke="#000000" d="M 0,0 H 203.7288 V 45.72675 H 0 Z" id="path1520"/>
        </g>
        <g clip-path="url(#clip_110)" id="g1530" color="rgb(209, 209, 209)">
          <path id="use1524" d="m 447.11067,87.692053 0.54625,-1.503124 h 0.009 l 0.53716,1.503124 h -1.09244 m 0.32052,-1.891287 -1.255,3.222682 h 0.4379 l 0.36116,-0.969891 h 1.36335 l 0.35207,0.969891 h 0.47406 l -1.25955,-3.222682 z" style="stroke-width:4.5144"/>
          <path id="use1526" d="m 449.69743,87.875491 c 0,-0.114255 0.012,-0.225504 0.0361,-0.333744 0.0241,-0.10824 0.0632,-0.204448 0.11738,-0.288625 0.0542,-0.08422 0.12643,-0.151889 0.21671,-0.203002 0.0903,-0.05111 0.20013,-0.07667 0.32954,-0.07667 0.1324,0 0.24526,0.02482 0.33857,0.07446 0.0933,0.0496 0.1693,0.114991 0.22794,0.196182 0.0587,0.08115 0.10158,0.175104 0.12867,0.281875 0.0271,0.106725 0.0406,0.217215 0.0406,0.331471 0,0.10824 -0.0128,0.214988 -0.0384,0.320243 -0.0256,0.105209 -0.067,0.199167 -0.12413,0.281874 -0.0572,0.08266 -0.13091,0.149548 -0.22119,0.20066 -0.0903,0.05111 -0.20013,0.07667 -0.32954,0.07667 -0.1234,0 -0.23099,-0.02404 -0.32279,-0.07212 -0.0918,-0.04813 -0.16705,-0.112787 -0.22574,-0.193979 -0.0587,-0.08119 -0.10234,-0.173634 -0.13095,-0.277328 -0.0286,-0.103739 -0.0428,-0.209729 -0.0428,-0.31797 m 1.80573,1.146786 v -3.221511 h -0.38376 v 1.198931 h -0.009 c -0.0422,-0.06921 -0.0941,-0.127137 -0.15575,-0.173795 -0.0617,-0.04666 -0.12713,-0.08427 -0.19639,-0.112833 -0.0692,-0.02861 -0.13843,-0.04893 -0.20768,-0.06096 -0.0692,-0.01208 -0.13391,-0.01812 -0.19412,-0.01812 -0.17754,0 -0.33328,0.03235 -0.46724,0.09706 -0.13391,0.06471 -0.24525,0.152005 -0.33402,0.261898 -0.0888,0.109848 -0.15499,0.238523 -0.19866,0.386028 -0.0436,0.147458 -0.0654,0.30394 -0.0654,0.469446 0,0.165552 0.0226,0.32208 0.0677,0.469584 0.0451,0.147458 0.1121,0.276869 0.20087,0.388232 0.0888,0.111363 0.20018,0.200155 0.33409,0.266375 0.13391,0.06622 0.29117,0.09933 0.47179,0.09933 0.16252,0 0.31149,-0.02856 0.44692,-0.08569 0.13542,-0.05717 0.23473,-0.150443 0.29792,-0.279807 h 0.009 v 0.315834 z" style="stroke-width:4.5144"/>
          <path id="use1528" d="m 452.37445,87.875491 c 0,-0.114255 0.012,-0.225504 0.0361,-0.333744 0.0241,-0.10824 0.0632,-0.204448 0.11738,-0.288625 0.0542,-0.08422 0.12643,-0.151889 0.21671,-0.203002 0.0903,-0.05111 0.20013,-0.07667 0.32954,-0.07667 0.1324,0 0.24526,0.02482 0.33857,0.07446 0.0933,0.0496 0.1693,0.114991 0.22794,0.196182 0.0587,0.08115 0.10158,0.175104 0.12867,0.281875 0.0271,0.106725 0.0407,0.217215 0.0407,0.331471 0,0.10824 -0.0128,0.214988 -0.0384,0.320243 -0.0256,0.105209 -0.067,0.199167 -0.12413,0.281874 -0.0572,0.08266 -0.13091,0.149548 -0.22119,0.20066 -0.0903,0.05111 -0.20013,0.07667 -0.32954,0.07667 -0.1234,0 -0.23099,-0.02404 -0.32279,-0.07212 -0.0918,-0.04813 -0.16705,-0.112787 -0.22574,-0.193979 -0.0587,-0.08119 -0.10234,-0.173634 -0.13095,-0.277328 -0.0286,-0.103739 -0.0428,-0.209729 -0.0428,-0.31797 m 1.80573,1.146786 v -3.221511 h -0.38376 v 1.198931 h -0.009 c -0.0422,-0.06921 -0.0941,-0.127137 -0.15575,-0.173795 -0.0617,-0.04666 -0.12713,-0.08427 -0.19639,-0.112833 -0.0692,-0.02861 -0.13843,-0.04893 -0.20768,-0.06096 -0.0692,-0.01208 -0.13391,-0.01812 -0.19412,-0.01812 -0.17754,0 -0.33328,0.03235 -0.46724,0.09706 -0.13391,0.06471 -0.24525,0.152005 -0.33402,0.261898 -0.0888,0.109848 -0.15499,0.238523 -0.19866,0.386028 -0.0436,0.147458 -0.0654,0.30394 -0.0654,0.469446 0,0.165552 0.0226,0.32208 0.0677,0.469584 0.0451,0.147458 0.1121,0.276869 0.20087,0.388232 0.0888,0.111363 0.20018,0.200155 0.33409,0.266375 0.13391,0.06622 0.29117,0.09933 0.47179,0.09933 0.16252,0 0.31149,-0.02856 0.44692,-0.08569 0.13542,-0.05717 0.23473,-0.150443 0.29792,-0.279807 h 0.009 v 0.315834 z" style="stroke-width:4.5144"/>
        </g>
        <g clip-path="url(#clip_111)" id="g1542" color="rgb(209, 209, 209)">
          <path id="use1532" d="m 487.35469,124.1629 c 0.0543,-0.0859 0.10865,-0.16729 0.39384,-0.17178 0.0543,0 0.13579,0 0.13579,-0.1313 0,-0.0408 -0.0363,-0.0815 -0.0815,-0.0815 -0.12225,0 -0.25804,0.0136 -0.38479,0.0136 -0.17198,0 -0.35301,-0.0136 -0.5205,-0.0136 -0.0363,0 -0.12226,0 -0.12226,0.1313 0,0.0815 0.0815,0.0815 0.11321,0.0815 0.0181,0 0.19913,0 0.31682,0.0497 l -1.30818,2.0658 -0.27158,-2.09294 c 0.086,-0.0181 0.22634,-0.0226 0.29424,-0.0226 0.095,0 0.16749,0 0.16749,-0.1313 0,-0.004 0,-0.0815 -0.095,-0.0815 -0.1494,0 -0.51609,0.0136 -0.66541,0.0136 -0.0951,0 -0.19464,-0.004 -0.28975,-0.004 -0.13123,0 -0.29417,-0.009 -0.30328,-0.009 -0.0316,0 -0.12219,0 -0.12219,0.1313 0,0.0815 0.077,0.0815 0.1494,0.0815 0.0679,0 0.15838,0.004 0.21722,0.009 l 0.0589,0.45199 c 0,0.0136 0,0.0227 -0.0362,0.0723 l -1.00033,1.58217 -0.27165,-2.09294 c 0.0861,-0.0181 0.22634,-0.0226 0.29423,-0.0226 0.10416,0 0.10865,-0.005 0.1313,-0.0272 0.0272,-0.0226 0.0362,-0.0995 0.0362,-0.10409 0,-0.004 0,-0.0815 -0.095,-0.0815 -0.1494,0 -0.52058,0.0136 -0.66991,0.0136 -0.0951,0 -0.1947,-0.004 -0.28974,-0.004 -0.12219,0 -0.29424,-0.009 -0.29873,-0.009 -0.0362,0 -0.12225,0 -0.12225,0.1313 0,0.0815 0.0725,0.0815 0.1494,0.0815 0.0679,0 0.15844,0.004 0.21729,0.009 l 0.36662,2.82073 c 0.0136,0.0905 0.0226,0.13572 0.1313,0.13572 0.095,0 0.13579,-0.0316 0.19008,-0.11763 l 1.30817,-2.07491 0.26709,2.05682 c 0.0135,0.10408 0.0271,0.13572 0.13579,0.13572 0.0996,0 0.13579,-0.0362 0.18559,-0.11763 z" style="stroke-width:4.52653"/>
          <path id="use1534" d="m 488.49663,125.39554 v 0.1141 c 0.2123,0 0.23768,0.0221 0.23768,0.17735 v 0.65579 c -0.11724,-0.1141 -0.26935,-0.18067 -0.4436,-0.18067 -0.42145,0 -0.77633,0.31697 -0.77633,0.71638 0,0.39626 0.33588,0.71318 0.73828,0.71318 0.25983,0 0.41507,-0.13943 0.46893,-0.19649 v 0.19649 l 0.48799,-0.0317 v -0.1141 c -0.2123,0 -0.23764,-0.0222 -0.23764,-0.17748 v -1.90774 l -0.47531,0.0349 m 0.22496,1.83163 c -0.0824,0.14901 -0.24396,0.27578 -0.44993,0.27578 -0.17743,0 -0.30416,-0.10457 -0.36754,-0.19653 -0.0634,-0.0951 -0.10139,-0.22187 -0.10139,-0.42474 0,-0.0729 0,-0.31064 0.12991,-0.45965 0.12673,-0.14263 0.28202,-0.17116 0.37388,-0.17116 0.15211,0 0.28835,0.0697 0.37707,0.18382 0.038,0.0507 0.038,0.0539 0.038,0.11416 z" style="stroke-width:3.16856"/>
          <path id="use1536" d="m 491.04419,126.88501 c 0,-0.39612 -0.33902,-0.73838 -0.77628,-0.73838 -0.43726,0 -0.77633,0.34226 -0.77633,0.73838 0,0.39298 0.34854,0.70666 0.77633,0.70666 0.42774,0 0.77628,-0.31368 0.77628,-0.70666 m -0.77628,0.60528 c -0.11724,0 -0.28835,-0.038 -0.39293,-0.1933 -0.0855,-0.12991 -0.0951,-0.29473 -0.0951,-0.4405 0,-0.13625 0.003,-0.32321 0.11405,-0.45951 0.0793,-0.0919 0.2123,-0.16158 0.37393,-0.16158 0.18692,0 0.32002,0.0887 0.38974,0.18697 0.0887,0.12357 0.0982,0.28201 0.0982,0.43412 0,0.15215 -0.009,0.32006 -0.10138,0.45002 -0.0855,0.12039 -0.2313,0.18378 -0.38655,0.18378 z" style="stroke-width:3.16856"/>
          <path id="use1538" d="m 493.29072,126.50325 c 0.0634,-0.15819 0.16791,-0.18986 0.26615,-0.193 v -0.11411 c -0.0856,0.01 -0.13624,0.0127 -0.22815,0.0127 -0.0951,0 -0.21544,-0.003 -0.3105,-0.0127 v 0.11411 c 0.11087,0.003 0.16477,0.0633 0.16477,0.13919 0,0.0253 0,0.0317 -0.019,0.076 l -0.30736,0.78779 -0.34221,-0.86375 c -0.006,-0.0158 -0.0158,-0.0411 -0.0158,-0.0601 0,-0.0696 0.0824,-0.0791 0.17111,-0.0791 v -0.11411 c -0.1141,0.01 -0.22816,0.0127 -0.34221,0.0127 -0.0919,0 -0.18697,-0.006 -0.27883,-0.0127 v 0.11411 c 0.0729,0 0.13939,0 0.18058,0.0253 0.0444,0.0317 0.0729,0.13605 0.0729,0.13924 0,0.006 -0.006,0.0253 -0.0127,0.038 l -0.29783,0.75298 -0.32002,-0.81627 c -0.019,-0.0443 -0.019,-0.0474 -0.019,-0.0601 0,-0.0791 0.11406,-0.0791 0.17111,-0.0791 v -0.11411 c -0.006,0 -0.23135,0.0127 -0.35807,0.0127 -0.0983,0 -0.19963,-0.003 -0.29783,-0.0127 v 0.11411 c 0.12353,0 0.19325,0 0.22811,0.0918 l 0.44046,1.1168 c 0.019,0.0475 0.0285,0.0729 0.0855,0.0729 0.0571,0 0.0665,-0.0253 0.0824,-0.0665 l 0.35807,-0.90485 0.35168,0.89537 c 0.019,0.0475 0.0317,0.076 0.0887,0.076 0.0571,0 0.0665,-0.0221 0.0856,-0.0729 z" style="stroke-width:3.16856"/>
          <path id="use1540" d="m 495.28691,126.59976 c 0,-0.27593 -0.13625,-0.43765 -0.47532,-0.43765 -0.25982,0 -0.42773,0.14267 -0.51645,0.30759 h -0.003 v -0.30759 l -0.46579,0.0349 v 0.11415 c 0.21229,0 0.23768,0.0222 0.23768,0.17763 v 0.82154 c 0,0.13639 -0.0317,0.13639 -0.23768,0.13639 v 0.11405 c 0.006,0 0.22815,-0.0127 0.36126,-0.0127 0.11719,0 0.33582,0.01 0.36435,0.0127 v -0.11405 c -0.20596,0 -0.23763,0 -0.23763,-0.13639 v -0.57095 c 0,-0.33307 0.26301,-0.48847 0.47212,-0.48847 0.22177,0 0.2503,0.17445 0.2503,0.33622 v 0.7232 c 0,0.13639 -0.0317,0.13639 -0.23763,0.13639 v 0.11405 c 0.006,0 0.22815,-0.0127 0.36121,-0.0127 0.11724,0 0.33588,0.01 0.3644,0.0127 v -0.11405 c -0.20596,0 -0.23763,0 -0.23763,-0.13639 z" style="stroke-width:3.16856"/>
        </g>
        <g clip-path="url(#clip_114)" id="g1550" color="rgb(209, 209, 209)">
          <path id="use1544" d="m 488.75054,101.47486 c 0.0525,-0.0831 0.105,-0.16168 0.38063,-0.16602 0.0525,0 0.13123,0 0.13123,-0.1269 0,-0.0394 -0.035,-0.0788 -0.0788,-0.0788 -0.11816,0 -0.24939,0.0132 -0.37188,0.0132 -0.16622,0 -0.34118,-0.0132 -0.50305,-0.0132 -0.0351,0 -0.11815,0 -0.11815,0.12689 0,0.0788 0.0788,0.0788 0.1094,0.0788 0.0175,0 0.19245,0 0.3062,0.0481 l -1.2643,1.99651 -0.26247,-2.02274 c 0.0831,-0.0175 0.21875,-0.0218 0.28436,-0.0218 0.0919,0 0.16188,0 0.16188,-0.1269 0,-0.004 0,-0.0788 -0.0918,-0.0788 -0.14439,0 -0.49878,0.0132 -0.6431,0.0132 -0.0919,0 -0.18811,-0.004 -0.28002,-0.004 -0.12684,0 -0.2843,-0.009 -0.29312,-0.009 -0.0306,0 -0.11808,0 -0.11808,0.12689 0,0.0788 0.0744,0.0788 0.14438,0.0788 0.0656,0 0.15307,0.004 0.20994,0.009 l 0.0569,0.43683 c 0,0.0132 0,0.0219 -0.035,0.0699 l -0.96677,1.5291 -0.26254,-2.02274 c 0.0832,-0.0175 0.21875,-0.0218 0.28437,-0.0218 0.10066,0 0.105,-0.004 0.12689,-0.0263 0.0262,-0.0218 0.035,-0.0962 0.035,-0.1006 0,-0.004 0,-0.0788 -0.0919,-0.0788 -0.14439,0 -0.50311,0.0131 -0.64743,0.0131 -0.0919,0 -0.18818,-0.004 -0.28003,-0.004 -0.11809,0 -0.28437,-0.009 -0.28871,-0.009 -0.035,0 -0.11815,0 -0.11815,0.12689 0,0.0788 0.07,0.0788 0.14439,0.0788 0.0656,0 0.15313,0.004 0.21,0.009 l 0.35432,2.72611 c 0.0132,0.0874 0.0219,0.13117 0.1269,0.13117 0.0919,0 0.13124,-0.0306 0.18371,-0.11368 l 1.26429,-2.00532 0.25813,1.98783 c 0.0131,0.10059 0.0262,0.13117 0.13124,0.13117 0.0963,0 0.13123,-0.035 0.17936,-0.11368 z" style="stroke-width:4.3747"/>
          <path id="use1546" d="m 489.86906,103.44068 v 0.11027 c 0.20518,0 0.22966,0.0214 0.22966,0.17154 v 0.5239 c 0,0.26961 -0.17452,0.45647 -0.40727,0.45647 -0.27868,0 -0.29092,-0.13172 -0.29092,-0.28798 v -1.00789 l -0.47161,0.0337 v 0.11027 c 0.22971,0 0.22971,0.009 0.22971,0.28186 v 0.45956 c 0,0.21139 0,0.49624 0.51138,0.49624 0.0674,0 0.29092,0 0.43792,-0.25728 h 0.003 v 0.25728 l 0.45937,-0.0306 v -0.11028 c -0.20518,0 -0.22967,-0.0214 -0.22967,-0.17153 v -1.0692 z" style="stroke-width:3.06228"/>
          <path id="use1548" d="m 491.54724,105.24358 c -0.19905,0 -0.2297,0 -0.2297,-0.13219 V 104.611 c 0.0153,0.0153 0.15924,0.17761 0.41647,0.17761 0.40423,0 0.75029,-0.30326 0.75029,-0.69231 0,-0.37685 -0.31237,-0.68931 -0.70127,-0.68931 -0.17457,0 -0.35218,0.0643 -0.47774,0.18686 v -0.18686 l -0.45932,0.0337 v 0.11027 c 0.21434,0 0.22966,0.0153 0.22966,0.14402 v 1.41642 c 0,0.13219 -0.0306,0.13219 -0.22966,0.13219 v 0.11023 c 0.006,0 0.22046,-0.0122 0.3491,-0.0122 0.11331,0 0.32461,0.009 0.35217,0.0122 v -0.11023 m -0.2297,-1.50572 c 0.0919,-0.15322 0.26952,-0.23284 0.4318,-0.23284 0.25723,0 0.45628,0.26957 0.45628,0.59128 0,0.34924 -0.22966,0.60656 -0.48997,0.60656 -0.26948,0 -0.38891,-0.23587 -0.39811,-0.25424 z" style="stroke-width:3.06228"/>
        </g>
        <g clip-path="url(#clip_117)" id="g1558" color="rgb(209, 209, 209)">
          <path transform="matrix(0.15048,0,0,0.15048,470.8645,130.24414)" stroke-width="3" stroke-linecap="butt" stroke-miterlimit="4" stroke-linejoin="miter" fill="none" stroke="#000000" d="M 0,39.77408 C 63.14135,40.04012 100.6436,26.78209 112.5067,0" id="path1552"/>
          <path transform="matrix(0.15048,0,0,-0.15048,370.43995,210.52242)" d="M 678.7742,761.4527 H 798.852 v 45.72677 H 678.7742 Z" fill="#ffe46d" id="path1554"/>
          <path transform="matrix(0.15048,0,0,0.15048,472.58189,89.058048)" stroke-width="3" stroke-linecap="butt" stroke-miterlimit="4" stroke-linejoin="miter" fill="none" stroke="#000000" d="M 0,0 H 120.0778 V 45.72675 H 0 Z" id="path1556"/>
        </g>
        <g clip-path="url(#clip_118)" id="g1574" color="rgb(209, 209, 209)">
          <path id="use1560" d="m 476.39336,92.008801 h 0.40628 c -0.006,-0.177538 -0.0399,-0.330254 -0.10161,-0.45815 -0.0617,-0.127941 -0.14594,-0.234069 -0.2528,-0.318383 -0.10682,-0.08436 -0.23095,-0.146126 -0.37239,-0.185299 -0.14144,-0.03917 -0.29494,-0.05876 -0.46049,-0.05876 -0.14746,0 -0.29118,0.01881 -0.43115,0.05642 -0.13993,0.03761 -0.26481,0.09481 -0.37466,0.171591 -0.1098,0.07674 -0.19781,0.174553 -0.26403,0.293447 -0.0662,0.118849 -0.0993,0.25951 -0.0993,0.421985 0,0.147459 0.0293,0.270095 0.088,0.367911 0.0587,0.09782 0.13694,0.177584 0.23476,0.239304 0.0978,0.06167 0.20842,0.111317 0.33181,0.148928 0.1234,0.03761 0.24904,0.07072 0.37694,0.09933 0.12789,0.02856 0.25354,0.05639 0.37693,0.08349 0.1234,0.0271 0.234,0.06245 0.33182,0.106082 0.0978,0.04363 0.17607,0.100065 0.23476,0.169317 0.0587,0.06921 0.088,0.15949 0.088,0.270853 0,0.117379 -0.0241,0.21368 -0.0723,0.288901 -0.0481,0.07522 -0.11132,0.134669 -0.18957,0.178341 -0.0783,0.04363 -0.16629,0.07446 -0.2641,0.09251 -0.0978,0.01805 -0.19488,0.02707 -0.29118,0.02707 -0.12041,0 -0.23781,-0.01504 -0.3522,-0.04512 -0.11435,-0.03008 -0.21441,-0.07671 -0.3002,-0.139904 -0.0857,-0.06324 -0.15494,-0.143761 -0.20762,-0.241577 -0.0527,-0.09782 -0.079,-0.214437 -0.079,-0.349863 h -0.40628 c 0,0.195631 0.0354,0.364926 0.10609,0.507884 0.0707,0.142957 0.16702,0.260382 0.2889,0.352274 0.12188,0.09185 0.26332,0.160362 0.42432,0.20555 0.16106,0.04523 0.33187,0.06785 0.51243,0.06785 0.14746,0 0.29568,-0.01731 0.44465,-0.05194 0.14898,-0.03458 0.28364,-0.09024 0.40401,-0.166976 0.12041,-0.07678 0.21898,-0.176114 0.29572,-0.297993 0.0767,-0.121879 0.1151,-0.26858 0.1151,-0.440102 0,-0.159536 -0.0293,-0.291954 -0.088,-0.397255 -0.0587,-0.105347 -0.13694,-0.192624 -0.23476,-0.26183 -0.0978,-0.06925 -0.20842,-0.124175 -0.33181,-0.164771 -0.12335,-0.04064 -0.249,-0.076 -0.37694,-0.106081 -0.12789,-0.03012 -0.25354,-0.05798 -0.37693,-0.08356 -0.12335,-0.02558 -0.23393,-0.05793 -0.33175,-0.09706 -0.0978,-0.03913 -0.17607,-0.08953 -0.23476,-0.1512 -0.0587,-0.06172 -0.088,-0.142246 -0.088,-0.241578 0,-0.105301 0.0203,-0.193312 0.0609,-0.264033 0.0407,-0.07077 0.0948,-0.127206 0.1625,-0.169318 0.0677,-0.04215 0.14523,-0.07226 0.23249,-0.09031 0.0873,-0.01805 0.17609,-0.02707 0.26637,-0.02707 0.22273,0 0.40557,0.05192 0.54853,0.155747 0.14295,0.103833 0.22646,0.271612 0.25053,0.503339 z" style="stroke-width:4.5144"/>
          <path id="use1562" d="m 478.97555,92.703154 h 0.39732 c -0.0151,-0.138228 -0.0512,-0.257673 -0.10835,-0.358336 -0.0572,-0.100709 -0.13017,-0.184105 -0.21899,-0.250187 -0.0888,-0.06613 -0.19108,-0.114968 -0.30695,-0.146517 -0.11586,-0.03155 -0.24001,-0.04732 -0.37245,-0.04732 -0.1836,0 -0.34463,0.03235 -0.48309,0.09706 -0.13841,0.0647 -0.25352,0.153497 -0.34532,0.266376 -0.0918,0.112878 -0.16027,0.24532 -0.20541,0.397324 -0.0451,0.151959 -0.0677,0.315238 -0.0677,0.489836 0,0.174553 0.0233,0.334824 0.07,0.480813 0.0467,0.145988 0.11589,0.271656 0.20769,0.377003 0.0918,0.105301 0.20615,0.186562 0.34304,0.243782 0.13695,0.05717 0.29421,0.08576 0.47179,0.08576 0.29795,0 0.53344,-0.07832 0.70648,-0.234965 0.17308,-0.156643 0.28068,-0.379575 0.32279,-0.668797 h -0.39271 c -0.0241,0.180523 -0.0896,0.320449 -0.19646,0.419781 -0.10681,0.09929 -0.25503,0.148927 -0.44464,0.148927 -0.12037,0 -0.2242,-0.02404 -0.3115,-0.07212 -0.0873,-0.04813 -0.15797,-0.112029 -0.21216,-0.191705 -0.0541,-0.07968 -0.094,-0.170627 -0.11959,-0.272851 -0.0256,-0.102224 -0.0384,-0.207457 -0.0384,-0.315697 0,-0.117287 0.012,-0.230785 0.0361,-0.340495 0.0241,-0.109756 0.0639,-0.206722 0.11959,-0.290898 0.0557,-0.08422 0.13019,-0.15189 0.22346,-0.203002 0.0933,-0.05111 0.2092,-0.07667 0.34766,-0.07667 0.16252,0 0.29193,0.04046 0.38823,0.121374 0.0963,0.08087 0.15949,0.194713 0.18957,0.341528 z" style="stroke-width:4.5144"/>
          <path id="use1564" d="m 481.88291,94.280053 c -0.0662,0.03913 -0.15802,0.05869 -0.2754,0.05869 -0.0993,0 -0.17827,-0.02783 -0.23696,-0.08349 -0.0587,-0.05571 -0.088,-0.14677 -0.088,-0.273195 -0.10535,0.126425 -0.22801,0.21749 -0.36798,0.273195 -0.13993,0.05566 -0.29115,0.08349 -0.45368,0.08349 -0.10534,0 -0.20543,-0.01203 -0.30026,-0.0361 -0.0948,-0.02406 -0.17678,-0.06167 -0.24599,-0.112832 -0.0692,-0.05116 -0.12413,-0.118091 -0.16477,-0.200798 -0.0406,-0.08275 -0.061,-0.182796 -0.061,-0.300129 0,-0.132395 0.0226,-0.240704 0.0677,-0.324927 0.0451,-0.08422 0.10457,-0.152648 0.17827,-0.205275 0.0738,-0.05267 0.15802,-0.09256 0.25281,-0.119652 0.0948,-0.0271 0.19191,-0.04967 0.29124,-0.06771 0.10535,-0.02103 0.20541,-0.03681 0.3002,-0.04732 0.0948,-0.01056 0.17829,-0.02562 0.25053,-0.04519 0.0722,-0.01956 0.12941,-0.04813 0.17152,-0.08569 0.0422,-0.03761 0.0632,-0.09253 0.0632,-0.164771 0,-0.08422 -0.0158,-0.151913 -0.0474,-0.203071 -0.0316,-0.05116 -0.0722,-0.09026 -0.12193,-0.11731 -0.0496,-0.0271 -0.10532,-0.04514 -0.16704,-0.05414 -0.0617,-0.009 -0.12259,-0.01357 -0.18275,-0.01357 -0.16252,0 -0.29795,0.03075 -0.40628,0.09224 -0.10833,0.06149 -0.16702,0.177699 -0.17607,0.348623 h -0.38375 c 0.006,-0.144336 0.0361,-0.266123 0.0902,-0.365362 0.0542,-0.09924 0.12643,-0.179673 0.21671,-0.241301 0.0903,-0.06163 0.19336,-0.105967 0.30923,-0.133016 0.1159,-0.0271 0.24006,-0.04064 0.37245,-0.04064 0.10535,0 0.20994,0.0075 0.31377,0.02259 0.10383,0.01502 0.19788,0.04585 0.28215,0.09251 0.0843,0.04661 0.15198,0.112052 0.20314,0.19632 0.0512,0.08422 0.0767,0.194024 0.0767,0.329405 v 1.200309 c 0,0.09028 0.005,0.156482 0.0158,0.198594 0.0106,0.04211 0.046,0.06317 0.10615,0.06317 0.0331,0 0.0722,-0.0072 0.11738,-0.02163 v 0.297993 m -0.62299,-1.196382 c -0.0482,0.0361 -0.11138,0.06241 -0.18964,0.07894 -0.0782,0.01653 -0.1602,0.03006 -0.24598,0.04057 -0.0858,0.01052 -0.17233,0.02255 -0.25963,0.0361 -0.0872,0.0135 -0.16548,0.03529 -0.23469,0.06537 -0.0692,0.03008 -0.12564,0.07292 -0.16931,0.128538 -0.0436,0.05561 -0.0654,0.131523 -0.0654,0.227731 0,0.06314 0.0128,0.11653 0.0384,0.160156 0.0256,0.04358 0.0587,0.0789 0.0993,0.105944 0.0406,0.02705 0.088,0.04659 0.14217,0.05862 0.0542,0.01203 0.11137,0.01805 0.17152,0.01805 0.12643,0 0.23478,-0.01729 0.32507,-0.05187 0.0903,-0.03458 0.16401,-0.07816 0.22119,-0.130743 0.0572,-0.05263 0.0993,-0.109755 0.1264,-0.171384 0.0271,-0.06167 0.0406,-0.11956 0.0406,-0.173657 z" style="stroke-width:4.5144"/>
          <path id="use1566" d="m 482.26209,91.067566 v 3.222682 h 0.38376 v -3.222682 z" style="stroke-width:4.5144"/>
          <path id="use1568" d="m 483.64805,91.539286 v -0.47172 h -0.38376 v 0.47172 h 0.38376 m -0.38376,0.417025 v 2.333937 h 0.38376 v -2.333937 z" style="stroke-width:4.5144"/>
          <path id="use1570" d="m 484.2439,91.955002 v 2.335246 h 0.38375 v -1.318514 c 0,-0.105347 0.0143,-0.202428 0.0428,-0.291243 0.0286,-0.08881 0.0715,-0.166333 0.12868,-0.232553 0.0572,-0.06622 0.12865,-0.117379 0.21443,-0.153475 0.0858,-0.03614 0.18737,-0.05421 0.30475,-0.05421 0.14746,0 0.26332,0.04216 0.34759,0.126472 0.0843,0.08427 0.1264,0.198639 0.1264,0.343112 v 1.580413 h 0.38375 v -1.535775 c 0,-0.126471 -0.0128,-0.241646 -0.0384,-0.345524 -0.0256,-0.103877 -0.07,-0.19345 -0.13323,-0.268717 -0.0632,-0.07531 -0.14594,-0.134049 -0.24825,-0.176206 -0.10232,-0.04216 -0.23024,-0.06324 -0.38376,-0.06324 -0.34612,0 -0.59892,0.141534 -0.75841,0.424603 h -0.009 V 91.955 Z" style="stroke-width:4.5144"/>
          <path id="use1572" d="m 488.76732,94.091104 v -2.136102 h -0.36116 v 0.334158 h -0.004 c -0.0692,-0.129457 -0.1655,-0.226538 -0.2889,-0.291243 -0.12339,-0.06475 -0.25884,-0.09713 -0.40635,-0.09713 -0.20165,0 -0.3717,0.03839 -0.51015,0.115175 -0.13842,0.07674 -0.24976,0.174576 -0.33402,0.293516 -0.0843,0.11894 -0.14448,0.251427 -0.18062,0.397462 -0.0361,0.145989 -0.0541,0.288212 -0.0541,0.426669 0,0.159582 0.0218,0.310875 0.0654,0.453879 0.0437,0.143003 0.10913,0.267959 0.19639,0.374868 0.0873,0.106862 0.19565,0.191911 0.32506,0.255147 0.12941,0.06319 0.28139,0.09479 0.45595,0.09479 0.15044,0 0.29262,-0.03384 0.42653,-0.101535 0.13396,-0.06774 0.23404,-0.173841 0.30027,-0.318315 h 0.009 v 0.153474 c 0,0.129411 -0.0128,0.248213 -0.0384,0.356408 -0.0256,0.108194 -0.067,0.200591 -0.12413,0.27719 -0.0572,0.0766 -0.12941,0.136666 -0.21671,0.180201 -0.0872,0.04358 -0.19409,0.06537 -0.32052,0.06537 -0.0632,0 -0.12938,-0.0068 -0.19859,-0.02032 -0.0692,-0.01355 -0.13315,-0.03538 -0.19184,-0.06551 -0.0587,-0.03008 -0.10836,-0.0692 -0.149,-0.117379 -0.0406,-0.04813 -0.0624,-0.106793 -0.0654,-0.175999 h -0.38375 c 0.006,0.12638 0.0391,0.233265 0.0993,0.320656 0.0602,0.08744 0.1362,0.158388 0.228,0.212853 0.0918,0.05447 0.19412,0.0938 0.30695,0.117999 0.11288,0.0242 0.22351,0.0363 0.33189,0.0363 0.37317,0 0.64703,-0.09485 0.82158,-0.284561 0.17455,-0.189661 0.26183,-0.475669 0.26183,-0.858023 m -1.07439,-0.113865 c -0.12642,0 -0.23177,-0.02631 -0.31604,-0.07894 -0.0842,-0.05263 -0.15194,-0.12181 -0.20314,-0.207548 -0.0512,-0.08574 -0.0873,-0.181235 -0.10835,-0.28649 -0.021,-0.105255 -0.0316,-0.210533 -0.0316,-0.315834 0,-0.111271 0.0128,-0.218042 0.0384,-0.320312 0.0256,-0.10227 0.0662,-0.192509 0.12186,-0.270715 0.0557,-0.07821 0.12718,-0.140616 0.21443,-0.187228 0.0873,-0.04661 0.19265,-0.06992 0.31605,-0.06992 0.12036,0 0.22268,0.02406 0.30694,0.07219 0.0843,0.04813 0.15272,0.112052 0.20535,0.191774 0.0527,0.07968 0.091,0.169157 0.1151,0.268442 0.0241,0.09924 0.0362,0.199994 0.0362,0.302265 0,0.108286 -0.0128,0.216572 -0.0384,0.324858 -0.0256,0.10824 -0.0655,0.205229 -0.11965,0.290967 -0.0541,0.08574 -0.12562,0.154921 -0.21444,0.207548 -0.0888,0.05263 -0.19634,0.07894 -0.32272,0.07894 z" style="stroke-width:4.5144"/>
        </g>
        <g clip-path="url(#clip_119)" id="g1580" color="rgb(209, 209, 209)">
          <path transform="matrix(0.15048,0,0,-0.15048,370.43995,210.52242)" d="m 733.5066,612.1973 h 100 v 45.06829 h -100 z" fill="#ffe46d" id="path1576"/>
          <path transform="matrix(0.15048,0,0,0.15048,480.81803,111.6171)" stroke-width="3" stroke-linecap="butt" stroke-miterlimit="4" stroke-linejoin="miter" fill="none" stroke="#000000" d="M 0,0 H 100 V 45.06821 H 0 Z" id="path1578"/>
        </g>
        <g clip-path="url(#clip_120)" id="g1590" color="rgb(209, 209, 209)">
          <path id="use1582" d="m 483.05114,113.62663 v 3.22268 h 0.42887 v -1.37548 h 1.04732 c 0.10534,0 0.18961,0.0158 0.2528,0.0474 0.0632,0.0315 0.1144,0.0736 0.15348,0.12627 0.0391,0.0526 0.0677,0.11421 0.0858,0.18488 0.0181,0.0706 0.0332,0.14503 0.0452,0.22319 0.0151,0.0782 0.0241,0.1579 0.0271,0.23909 0.003,0.0811 0.006,0.15706 0.009,0.22774 0.003,0.0706 0.01,0.1345 0.0203,0.19163 0.0105,0.0571 0.0308,0.10223 0.061,0.13529 h 0.47854 c -0.0451,-0.0541 -0.079,-0.11655 -0.1016,-0.18723 -0.0226,-0.0707 -0.0399,-0.14509 -0.0519,-0.22325 -0.012,-0.0782 -0.0196,-0.15791 -0.0226,-0.2391 -0.003,-0.0812 -0.007,-0.16089 -0.0135,-0.2391 -0.009,-0.0782 -0.0218,-0.15333 -0.0384,-0.22552 -0.0165,-0.0722 -0.0421,-0.13761 -0.0767,-0.19625 -0.0346,-0.0587 -0.0813,-0.109 -0.13998,-0.15107 -0.0587,-0.0421 -0.13466,-0.0722 -0.22793,-0.0902 v -0.009 c 0.19563,-0.0542 0.33783,-0.15504 0.4266,-0.30254 0.0888,-0.14755 0.13315,-0.31916 0.13315,-0.51484 0,-0.26195 -0.0865,-0.46819 -0.25962,-0.61872 -0.17304,-0.15053 -0.41304,-0.2258 -0.71998,-0.2258 h -1.51683 m 1.32271,1.48569 h -0.89384 v -1.12419 h 1.06536 c 0.20165,0 0.34762,0.0512 0.4379,0.15355 0.0903,0.10231 0.13543,0.23473 0.13543,0.39725 0,0.11738 -0.0203,0.21295 -0.061,0.2867 -0.0406,0.0737 -0.0948,0.13246 -0.1625,0.17613 -0.0677,0.0436 -0.1467,0.073 -0.23703,0.088 -0.0903,0.015 -0.18507,0.0225 -0.28436,0.0225 z" style="stroke-width:4.5144"/>
          <path id="use1584" d="m 487.701,115.4606 h -1.34076 c 0.006,-0.0906 0.0256,-0.1759 0.0587,-0.2559 0.0331,-0.08 0.0783,-0.15026 0.13542,-0.21065 0.0572,-0.0604 0.12565,-0.10794 0.20542,-0.14266 0.0798,-0.0347 0.16929,-0.0521 0.26857,-0.0521 0.0963,0 0.18434,0.0174 0.26411,0.0521 0.0798,0.0347 0.14899,0.0815 0.20768,0.14046 0.0587,0.0589 0.10533,0.12906 0.13991,0.21057 0.0346,0.0815 0.0549,0.16758 0.061,0.25818 m 0.37018,0.64807 h -0.3792 c -0.0331,0.15287 -0.10158,0.26679 -0.20542,0.34173 -0.10383,0.0749 -0.237,0.11235 -0.39953,0.11235 -0.12638,0 -0.23622,-0.0209 -0.32954,-0.0628 -0.0933,-0.0419 -0.17,-0.098 -0.23021,-0.16822 -0.0602,-0.0703 -0.10385,-0.15106 -0.13095,-0.24226 -0.0271,-0.0913 -0.0391,-0.18771 -0.0361,-0.28939 h 1.74705 c 0.006,-0.14185 -0.007,-0.29126 -0.0384,-0.44823 -0.0316,-0.15696 -0.0888,-0.30185 -0.17159,-0.43466 -0.0827,-0.1328 -0.1926,-0.24222 -0.32954,-0.32823 -0.13694,-0.0861 -0.30925,-0.12909 -0.51691,-0.12909 -0.15949,0 -0.30621,0.0301 -0.44017,0.0903 -0.13391,0.0602 -0.24977,0.1445 -0.34759,0.25287 -0.0978,0.10834 -0.17382,0.23625 -0.22801,0.38376 -0.0541,0.14746 -0.0812,0.30995 -0.0812,0.48749 0.006,0.17759 0.0324,0.34162 0.079,0.49211 0.0467,0.15049 0.11662,0.27992 0.20989,0.3883 0.0933,0.10833 0.20844,0.1926 0.34538,0.25281 0.13695,0.0602 0.29871,0.0903 0.48529,0.0903 0.26489,0 0.48461,-0.0661 0.65916,-0.19838 0.17455,-0.13231 0.28741,-0.32922 0.33856,-0.59075 z" style="stroke-width:4.5144"/>
          <path id="use1586" d="m 488.56774,113.62663 v 3.22268 h 2.13527 v -0.3615 h -1.7064 v -2.86118 z" style="stroke-width:4.5144"/>
          <path id="use1588" d="m 493.65094,115.68379 v -2.05716 h -0.42887 v 2.05661 c 0,0.28867 -0.0715,0.50742 -0.21444,0.65626 -0.14296,0.14883 -0.35136,0.22325 -0.6252,0.22325 -0.28894,0 -0.51015,-0.0744 -0.66363,-0.22325 -0.15347,-0.14884 -0.23021,-0.36759 -0.23021,-0.65626 v -2.05661 h -0.42887 v 2.05716 c 0,0.43007 0.11662,0.7436 0.34986,0.94061 0.23324,0.19697 0.55753,0.29545 0.97285,0.29545 0.40628,0 0.71927,-0.10301 0.93897,-0.30902 0.21969,-0.20601 0.32954,-0.51502 0.32954,-0.92704 z" style="stroke-width:4.5144"/>
        </g>
      </g>
    </g>
  </g>
</svg>