<svg version="1.1" xmlns="http://www.w3.org/2000/svg" xmlns:xlink="http://www.w3.org/1999/xlink" width="1350" height="330"><defs><clipPath id="kZoApWMTSaad"><path fill="none" stroke="none" d=" M 0 0 L 1350 0 L 1350 330 L 0 330 L 0 0 Z"/></clipPath></defs><g transform="scale(1,1)" clip-path="url(#kZoApWMTSaad)"><g><path fill="none" stroke="rgb(160,160,160)" paint-order="fill stroke markers" d=" M 527.2793387604553 116.70652996030276 L 1170.0901311644864 116.70652996030276" stroke-opacity="0.6980392156862745" stroke-linecap="round" stroke-linejoin="round" stroke-miterlimit="10" stroke-width="2.5"/><path fill="none" stroke="rgb(160,160,160)" paint-order="fill stroke markers" d=" M 82.25648248074141 166.15351399138217 L 1170.0901311644864 166.15351399138217" stroke-opacity="0.6980392156862745" stroke-linecap="round" stroke-linejoin="round" stroke-miterlimit="10" stroke-width="2.5"/><path fill="rgb(255,255,255)" stroke="none" paint-order="stroke fill markers" d=" M 536.2793387604553 116.70652996030276 C 536.2793387604553 121.6770927087799 532.2499015089325 125.70652996030276 527.2793387604553 125.70652996030276 C 522.3087760119781 125.70652996030276 518.2793387604553 121.6770927087799 518.2793387604553 116.70652996030276 C 518.2793387604553 111.73596721182562 522.3087760119781 107.70652996030276 527.2793387604553 107.70652996030276 C 532.2499015089325 107.70652996030276 536.2793387604553 111.73596721182562 536.2793387604553 116.70652996030276 Z" fill-opacity="1"/><path fill="none" stroke="rgb(0,0,0)" paint-order="fill stroke markers" d=" M 536.2793387604553 116.70652996030276 C 536.2793387604553 121.6770927087799 532.2499015089325 125.70652996030276 527.2793387604553 125.70652996030276 C 522.3087760119781 125.70652996030276 518.2793387604553 121.6770927087799 518.2793387604553 116.70652996030276 C 518.2793387604553 111.73596721182562 522.3087760119781 107.70652996030276 527.2793387604553 107.70652996030276 C 532.2499015089325 107.70652996030276 536.2793387604553 111.73596721182562 536.2793387604553 116.70652996030276 Z" stroke-opacity="1" stroke-linecap="round" stroke-linejoin="round" stroke-miterlimit="10"/><path fill="rgb(255,255,255)" stroke="none" paint-order="stroke fill markers" d=" M 1179.0901311644864 116.70652996030276 C 1179.0901311644864 121.6770927087799 1175.0606939129634 125.70652996030276 1170.0901311644864 125.70652996030276 C 1165.1195684160093 125.70652996030276 1161.0901311644864 121.6770927087799 1161.0901311644864 116.70652996030276 C 1161.0901311644864 111.73596721182562 1165.1195684160093 107.70652996030276 1170.0901311644864 107.70652996030276 C 1175.0606939129634 107.70652996030276 1179.0901311644864 111.73596721182562 1179.0901311644864 116.70652996030276 Z" fill-opacity="1"/><path fill="none" stroke="rgb(0,0,0)" paint-order="fill stroke markers" d=" M 1179.0901311644864 116.70652996030276 C 1179.0901311644864 121.6770927087799 1175.0606939129634 125.70652996030276 1170.0901311644864 125.70652996030276 C 1165.1195684160093 125.70652996030276 1161.0901311644864 121.6770927087799 1161.0901311644864 116.70652996030276 C 1161.0901311644864 111.73596721182562 1165.1195684160093 107.70652996030276 1170.0901311644864 107.70652996030276 C 1175.0606939129634 107.70652996030276 1179.0901311644864 111.73596721182562 1179.0901311644864 116.70652996030276 Z" stroke-opacity="1" stroke-linecap="round" stroke-linejoin="round" stroke-miterlimit="10"/><path fill="rgb(255,255,255)" stroke="none" paint-order="stroke fill markers" d=" M 91.25648248074141 166.15351399138217 C 91.25648248074141 171.1240767398593 87.22704522921855 175.15351399138217 82.25648248074141 175.15351399138217 C 77.28591973226428 175.15351399138217 73.25648248074141 171.1240767398593 73.25648248074141 166.15351399138217 C 73.25648248074141 161.18295124290503 77.28591973226428 157.15351399138217 82.25648248074141 157.15351399138217 C 87.22704522921855 157.15351399138217 91.25648248074141 161.18295124290503 91.25648248074141 166.15351399138217 Z" fill-opacity="1"/><path fill="none" stroke="rgb(0,0,0)" paint-order="fill stroke markers" d=" M 91.25648248074141 166.15351399138217 C 91.25648248074141 171.1240767398593 87.22704522921855 175.15351399138217 82.25648248074141 175.15351399138217 C 77.28591973226428 175.15351399138217 73.25648248074141 171.1240767398593 73.25648248074141 166.15351399138217 C 73.25648248074141 161.18295124290503 77.28591973226428 157.15351399138217 82.25648248074141 157.15351399138217 C 87.22704522921855 157.15351399138217 91.25648248074141 161.18295124290503 91.25648248074141 166.15351399138217 Z" stroke-opacity="1" stroke-linecap="round" stroke-linejoin="round" stroke-miterlimit="10"/><path fill="rgb(255,255,255)" stroke="none" paint-order="stroke fill markers" d=" M 1179.0901311644864 166.15351399138217 C 1179.0901311644864 171.1240767398593 1175.0606939129634 175.15351399138217 1170.0901311644864 175.15351399138217 C 1165.1195684160093 175.15351399138217 1161.0901311644864 171.1240767398593 1161.0901311644864 166.15351399138217 C 1161.0901311644864 161.18295124290503 1165.1195684160093 157.15351399138217 1170.0901311644864 157.15351399138217 C 1175.0606939129634 157.15351399138217 1179.0901311644864 161.18295124290503 1179.0901311644864 166.15351399138217 Z" fill-opacity="1"/><path fill="none" stroke="rgb(0,0,0)" paint-order="fill stroke markers" d=" M 1179.0901311644864 166.15351399138217 C 1179.0901311644864 171.1240767398593 1175.0606939129634 175.15351399138217 1170.0901311644864 175.15351399138217 C 1165.1195684160093 175.15351399138217 1161.0901311644864 171.1240767398593 1161.0901311644864 166.15351399138217 C 1161.0901311644864 161.18295124290503 1165.1195684160093 157.15351399138217 1170.0901311644864 157.15351399138217 C 1175.0606939129634 157.15351399138217 1179.0901311644864 161.18295124290503 1179.0901311644864 166.15351399138217 Z" stroke-opacity="1" stroke-linecap="round" stroke-linejoin="round" stroke-miterlimit="10"/><path fill="rgb(255,255,255)" stroke="none" paint-order="stroke fill markers" d=" M 536.2793387604553 166.15351399138217 C 536.2793387604553 171.1240767398593 532.2499015089325 175.15351399138217 527.2793387604553 175.15351399138217 C 522.3087760119781 175.15351399138217 518.2793387604553 171.1240767398593 518.2793387604553 166.15351399138217 C 518.2793387604553 161.18295124290503 522.3087760119781 157.15351399138217 527.2793387604553 157.15351399138217 C 532.2499015089325 157.15351399138217 536.2793387604553 161.18295124290503 536.2793387604553 166.15351399138217 Z" fill-opacity="1"/><path fill="none" stroke="rgb(0,0,0)" paint-order="fill stroke markers" d=" M 536.2793387604553 166.15351399138217 C 536.2793387604553 171.1240767398593 532.2499015089325 175.15351399138217 527.2793387604553 175.15351399138217 C 522.3087760119781 175.15351399138217 518.2793387604553 171.1240767398593 518.2793387604553 166.15351399138217 C 518.2793387604553 161.18295124290503 522.3087760119781 157.15351399138217 527.2793387604553 157.15351399138217 C 532.2499015089325 157.15351399138217 536.2793387604553 161.18295124290503 536.2793387604553 166.15351399138217 Z" stroke-opacity="1" stroke-linecap="round" stroke-linejoin="round" stroke-miterlimit="10"/><g transform="scale(67,67)"><g transform="translate(17.26865671641791,3.3911194029850744)"><path fill="rgb(160,160,160)" stroke="none" paint-order="stroke fill markers" d=" M 0.20600000000000002 -0.4 L 0.132 -0.105 Q 0.126 -0.08 0.126 -0.057 Q 0.126 -0.011 0.157 -0.011 Q 0.223 -0.011 0.273 -0.108 L 0.28700000000000003 -0.139 Q 0.293 -0.152 0.302 -0.153 Q 0.314 -0.153 0.314 -0.14300000000000002 Q 0.314 -0.13 0.28800000000000003 -0.08600000000000001 Q 0.23 0.011 0.155 0.011 Q 0.097 0.011 0.073 -0.037 Q 0.063 -0.057 0.063 -0.081 Q 0.063 -0.1 0.124 -0.34 L 0.139 -0.4 L 0.051000000000000004 -0.4 Q 0.026000000000000002 -0.4 0.024 -0.40800000000000003 L 0.023 -0.40800000000000003 L 0.023 -0.41200000000000003 Q 0.023 -0.429 0.039 -0.431 L 0.053 -0.431 L 0.147 -0.431 L 0.186 -0.59 Q 0.195 -0.625 0.226 -0.626 Q 0.252 -0.626 0.255 -0.599 Q 0.255 -0.593 0.214 -0.431 L 0.302 -0.431 Q 0.328 -0.431 0.33 -0.42 Q 0.33 -0.402 0.314 -0.4 L 0.313 -0.4 L 0.3 -0.4 L 0.20600000000000002 -0.4 Z"/></g></g><g transform="scale(67,67)"><g transform="translate(7.611940298507463,3.222044776119403)"><path fill="rgb(160,160,160)" stroke="none" paint-order="stroke fill markers" d=" M 0.294 -0.373 L 0.227 -0.031 Q 0.219 0.007 0.195 0.011 Q 0.19 0.012 0.186 0.012 Q 0.16 0.012 0.157 -0.015 Q 0.157 -0.022 0.167 -0.052000000000000005 L 0.265 -0.373 L 0.182 -0.373 Q 0.10400000000000001 -0.373 0.055 -0.296 Q 0.046 -0.28400000000000003 0.039 -0.28400000000000003 Q 0.027 -0.28400000000000003 0.027 -0.294 Q 0.027 -0.305 0.063 -0.354 Q 0.076 -0.371 0.088 -0.384 Q 0.132 -0.431 0.191 -0.431 L 0.47100000000000003 -0.431 Q 0.505 -0.431 0.51 -0.41600000000000004 L 0.51 -0.41500000000000004 Q 0.511 -0.41200000000000003 0.511 -0.40700000000000003 Q 0.511 -0.373 0.462 -0.373 L 0.294 -0.373 Z"/></g></g><g transform="scale(67,67)"><g transform="translate(0.9552238805970149,3.37534328358209)"><path fill="rgb(160,160,160)" stroke="none" paint-order="stroke fill markers" d=" M 0.46 -0.32 Q 0.46 -0.17400000000000002 0.423 -0.094 Q 0.364 0.018000000000000002 0.249 0.022 Q 0.158 0.022 0.10300000000000001 -0.05 Q 0.092 -0.063 0.084 -0.079 Q 0.039 -0.162 0.039 -0.32 Q 0.039 -0.467 0.076 -0.547 Q 0.126 -0.659 0.23800000000000002 -0.666 L 0.25 -0.666 Q 0.339 -0.666 0.395 -0.595 L 0.395 -0.594 Q 0.40900000000000003 -0.5760000000000001 0.42 -0.554 Q 0.46 -0.46900000000000003 0.46 -0.32 M 0.249 0 L 0.249 0 Q 0.312 0 0.34600000000000003 -0.061 Q 0.36 -0.088 0.366 -0.125 Q 0.377 -0.189 0.377 -0.332 Q 0.377 -0.47100000000000003 0.367 -0.527 Q 0.34900000000000003 -0.622 0.275 -0.641 Q 0.262 -0.644 0.249 -0.644 Q 0.179 -0.644 0.147 -0.5740000000000001 Q 0.136 -0.55 0.13 -0.516 Q 0.122 -0.462 0.122 -0.332 Q 0.122 -0.181 0.133 -0.121 Q 0.151 -0.025 0.221 -0.004 Q 0.23500000000000001 0 0.249 0 Z"/></g></g><g transform="scale(67,67)"><g transform="translate(11.567164179104477,1.4358955223880598)"><path fill="rgb(160,160,160)" stroke="none" paint-order="stroke fill markers" d=" M 0.20600000000000002 -0.4 L 0.132 -0.105 Q 0.126 -0.08 0.126 -0.057 Q 0.126 -0.011 0.157 -0.011 Q 0.223 -0.011 0.273 -0.108 L 0.28700000000000003 -0.139 Q 0.293 -0.152 0.302 -0.153 Q 0.314 -0.153 0.314 -0.14300000000000002 Q 0.314 -0.13 0.28800000000000003 -0.08600000000000001 Q 0.23 0.011 0.155 0.011 Q 0.097 0.011 0.073 -0.037 Q 0.063 -0.057 0.063 -0.081 Q 0.063 -0.1 0.124 -0.34 L 0.139 -0.4 L 0.051000000000000004 -0.4 Q 0.026000000000000002 -0.4 0.024 -0.40800000000000003 L 0.023 -0.40800000000000003 L 0.023 -0.41200000000000003 Q 0.023 -0.429 0.039 -0.431 L 0.053 -0.431 L 0.147 -0.431 L 0.186 -0.59 Q 0.195 -0.625 0.226 -0.626 Q 0.252 -0.626 0.255 -0.599 Q 0.255 -0.593 0.214 -0.431 L 0.302 -0.431 Q 0.328 -0.431 0.33 -0.42 Q 0.33 -0.402 0.314 -0.4 L 0.313 -0.4 L 0.3 -0.4 L 0.20600000000000002 -0.4 Z"/></g><g transform="translate(12.1503864013267,1.4358955223880598)"><path fill="rgb(160,160,160)" stroke="none" paint-order="stroke fill markers" d=" M 0.661 -0.23 L 0.116 -0.23 Q 0.084 -0.23 0.083 -0.25 Q 0.083 -0.27 0.116 -0.27 L 0.661 -0.27 Q 0.6930000000000001 -0.27 0.6940000000000001 -0.25 Q 0.6940000000000001 -0.23 0.661 -0.23 Z"/></g><g transform="translate(13.150608623548921,1.4358955223880598)"><path fill="rgb(160,160,160)" stroke="none" paint-order="stroke fill markers" d=" M 0.294 -0.373 L 0.227 -0.031 Q 0.219 0.007 0.195 0.011 Q 0.19 0.012 0.186 0.012 Q 0.16 0.012 0.157 -0.015 Q 0.157 -0.022 0.167 -0.052000000000000005 L 0.265 -0.373 L 0.182 -0.373 Q 0.10400000000000001 -0.373 0.055 -0.296 Q 0.046 -0.28400000000000003 0.039 -0.28400000000000003 Q 0.027 -0.28400000000000003 0.027 -0.294 Q 0.027 -0.305 0.063 -0.354 Q 0.076 -0.371 0.088 -0.384 Q 0.132 -0.431 0.191 -0.431 L 0.47100000000000003 -0.431 Q 0.505 -0.431 0.51 -0.41600000000000004 L 0.51 -0.41500000000000004 Q 0.511 -0.41200000000000003 0.511 -0.40700000000000003 Q 0.511 -0.373 0.462 -0.373 L 0.294 -0.373 Z"/></g></g></g></g></svg>