<?xml version="1.0" encoding="UTF-8" standalone="no"?>
<!-- Created with Inkscape (http://www.inkscape.org/) -->

<svg
   width="121.81828mm"
   height="112.09292mm"
   viewBox="0 0 121.81828 112.09291"
   version="1.1"
   id="svg5"
   sodipodi:docname="/var/folders/7p/1cx9lth12db453fkz1gy3c_c0000gn/T/ink_ext_XXXXXX.svgIEUOW1"
   xmlns:inkscape="http://www.inkscape.org/namespaces/inkscape"
   xmlns:sodipodi="http://sodipodi.sourceforge.net/DTD/sodipodi-0.dtd"
   xmlns:xlink="http://www.w3.org/1999/xlink"
   xmlns="http://www.w3.org/2000/svg"
   xmlns:svg="http://www.w3.org/2000/svg"
   xmlns:ns2="http://www.iki.fi/pav/software/textext/">
  <sodipodi:namedview
     id="namedview7"
     pagecolor="#ffffff"
     bordercolor="#999999"
     borderopacity="1"
     inkscape:showpageshadow="0"
     inkscape:pageopacity="0"
     inkscape:pagecheckerboard="0"
     inkscape:deskcolor="#d1d1d1"
     inkscape:document-units="mm"
     showgrid="false"
     inkscape:zoom="0.914906"
     inkscape:cx="451.41249"
     inkscape:cy="560.71334"
     inkscape:window-width="1787"
     inkscape:window-height="1622"
     inkscape:window-x="1212"
     inkscape:window-y="33"
     inkscape:window-maximized="0"
     inkscape:current-layer="layer1" />
  <defs
     id="defs2">
    <linearGradient
       inkscape:collect="always"
       id="linearGradient5454">
      <stop
         style="stop-color:#0086eb;stop-opacity:0.31336406;"
         offset="0"
         id="stop5450" />
      <stop
         style="stop-color:#0086eb;stop-opacity:0.70046079;"
         offset="1"
         id="stop5452" />
    </linearGradient>
    <linearGradient
       inkscape:collect="always"
       id="linearGradient5170">
      <stop
         style="stop-color:#eb7800;stop-opacity:0.69585252;"
         offset="0"
         id="stop5166" />
      <stop
         style="stop-color:#eb7800;stop-opacity:0.31336406;"
         offset="1"
         id="stop5168" />
    </linearGradient>
    <linearGradient
       id="linearGradient3100"
       inkscape:swatch="gradient">
      <stop
         style="stop-color:#eb7800;stop-opacity:1;"
         offset="0"
         id="stop3096" />
      <stop
         style="stop-color:#eb7800;stop-opacity:0;"
         offset="1"
         id="stop3098" />
    </linearGradient>
    <marker
       style="overflow:visible"
       id="TriangleStart"
       refX="0"
       refY="0"
       orient="auto-start-reverse"
       inkscape:stockid="TriangleStart"
       markerWidth="5"
       markerHeight="5"
       viewBox="0 0 5.3244081 6.1553851"
       inkscape:isstock="true"
       inkscape:collect="always"
       preserveAspectRatio="xMidYMid"
       markerUnits="userSpaceOnUse">
      <path
         transform="scale(0.5)"
         style="fill:context-stroke;fill-rule:evenodd;stroke:context-stroke;stroke-width:1pt"
         d="M 5.77,0 -2.88,5 V -5 Z"
         id="path135" />
    </marker>
    <linearGradient
       inkscape:collect="always"
       xlink:href="#linearGradient5170"
       id="linearGradient5172"
       x1="96.399307"
       y1="114.51996"
       x2="140.93484"
       y2="114.51996"
       gradientUnits="userSpaceOnUse" />
    <linearGradient
       inkscape:collect="always"
       xlink:href="#linearGradient5454"
       id="linearGradient5456"
       x1="51.703903"
       y1="114.66455"
       x2="96.239449"
       y2="114.66455"
       gradientUnits="userSpaceOnUse" />
  </defs>
  <g
     inkscape:label="Layer 1"
     inkscape:groupmode="layer"
     id="layer1"
     transform="translate(-42.067306,-53.835605)">
    <path
       style="fill:#0086eb;fill-opacity:0.358362;stroke:#0d1419;stroke-width:0.9;stroke-linecap:round;stroke-dasharray:none;stroke-opacity:1;marker-end:url(#TriangleStart)"
       d="M 42.517306,114.51996 H 149.80745"
       id="path192" />
    <g
       transform="matrix(0.881945,0,0,0.881945,153.64709,110.91403)"
       ns2:version="1.8.2"
       ns2:texconverter="pdflatex"
       ns2:pdfconverter="inkscape"
       ns2:text="$\\mathfrak{Re}$"
       ns2:preamble="/Users/alexis/Library/Application Support/org.inkscape.Inkscape/config/inkscape/extensions/textext/default_packages.tex"
       ns2:scale="2.5"
       ns2:alignment="middle center"
       ns2:stroke-to-path="0"
       ns2:jacobian_sqrt="0.881945"
       id="g1239">
      <defs
         id="id-777f3d2d-8366-47de-9119-16e05a05c32e" />
      <g
         fill="#000000"
         fill-opacity="1"
         id="id-fe89aeda-acc7-4311-b3da-7461b3d934f3"
         transform="translate(-148.978,-127.921)">
        <g
           transform="translate(148.712,134.765)"
           id="g1233">
          <path
             d="M 4.3125,-3.46875 C 4.34375,-3.8125 4.34375,-4.171875 4.34375,-4.5 c 0,-0.125 -0.046875,-0.546875 -0.0625,-0.609375 0.359375,-0.609375 0.75,-1.15625 1.34375,-1.15625 0.734375,0 0.53125,1.265625 0.75,1.484375 0.09375,0.109375 0.234375,0.15625 0.359375,0.171875 L 5.453125,-3.875 C 5,-3.796875 4.515625,-3.578125 4.3125,-3.46875 Z m -0.140625,-2 c -0.25,-0.640625 -0.84375,-1.375 -1.546875,-1.375 -0.9375,0 -1.59375,0.625 -1.828125,0.859375 -0.28125,0.28125 -0.5,0.578125 -0.5,0.984375 0,0.53125 0.40625,0.890625 0.703125,1.328125 0.0625,0.078125 0.140625,0.15625 0.140625,0.265625 0,0.3125 -0.328125,0.640625 -0.640625,0.796875 L 0.640625,-2.5 C 1.234375,-2.796875 1.875,-3.1875 1.875,-3.828125 c 0,-0.5625 -0.890625,-1.109375 -0.890625,-1.515625 0,-0.609375 0.40625,-0.859375 0.96875,-0.859375 0.46875,0 0.921875,0.328125 1.171875,0.703125 0.390625,0.578125 0.40625,1.375 0.40625,1.84375 0,1.296875 -0.09375,2.453125 -1.15625,3.171875 C 2.140625,-0.734375 1.78125,-1.0625 1.4375,-1.0625 0.921875,-1.0625 0.515625,-0.375 0.265625,0 L 0.375,0.15625 c 0.1875,-0.234375 0.421875,-0.421875 0.734375,-0.421875 0.203125,0 0.578125,0.3125 0.796875,0.53125 0.5625,-0.453125 1.125,-1 1.6875,-1.453125 0.390625,-0.609375 0.578125,-1.28125 0.671875,-2.046875 0.265625,-0.078125 0.6875,-0.1875 0.921875,-0.1875 0.28125,0 0.609375,0.140625 0.828125,0.34375 0.109375,0.125 0.28125,0.3125 0.28125,1.296875 0,0.28125 -0.015625,0.578125 -0.03125,0.890625 l 0.640625,1.15625 1.328125,-1 v -0.15625 C 8.03125,-0.8125 7.703125,-0.6875 7.640625,-0.6875 7.40625,-0.6875 7.21875,-1.21875 7.125,-1.53125 7.03125,-1.796875 6.984375,-2.84375 6.953125,-3.5 c -0.25,-0.21875 -0.5,-0.375 -1.015625,-0.375 0.6875,-0.53125 1.453125,-0.90625 2.09375,-1.15625 l -0.0625,-0.125 c -0.125,0.015625 -0.25,0.046875 -0.375,0.046875 -0.65625,0 -0.5,-0.515625 -0.53125,-0.78125 -0.046875,-0.515625 -0.25,-0.953125 -0.796875,-0.953125 -0.875,0 -1.53125,0.65625 -2.0625,1.328125 z m 0,0"
             id="id-a0bd33a4-e3cd-4114-942d-1594d8923bc6" />
        </g>
        <g
           transform="translate(156.962,134.765)"
           id="g1236">
          <path
             d="M 0.84375,-3.65625 C 0.75,-3.0625 0.703125,-2.46875 0.703125,-1.875 c 0,0.34375 0,0.6875 0.046875,1.03125 C 1.09375,-0.421875 1.484375,-0.0625 1.890625,0.3125 2.46875,-0.046875 3.03125,-0.453125 3.5625,-0.875 L 3.515625,-1.03125 2.78125,-0.640625 C 2.734375,-0.625 2.59375,-0.625 2.546875,-0.609375 2.15625,-0.78125 1.578125,-1.25 1.5625,-1.390625 1.53125,-1.46875 1.5,-1.5625 1.5,-1.65625 2.078125,-2.109375 2.9375,-2.90625 3.625,-3.5625 3.1875,-3.875 2.78125,-4.234375 2.453125,-4.65625 Z m 0.625,1.734375 c 0,-0.875 0.03125,-2.03125 0.265625,-2.03125 0.015625,0 0.015625,0 0.015625,0 0.328125,0.3125 0.703125,0.609375 1.078125,0.84375 -0.375,0.40625 -0.890625,0.84375 -1.359375,1.1875 z m 0,0"
             id="id-0e318651-e3b1-4e83-8b72-57137c8cb5ea" />
        </g>
      </g>
    </g>
    <g
       transform="matrix(0.881945,0,0,0.881945,90.210783,53.835385)"
       ns2:version="1.8.2"
       ns2:texconverter="pdflatex"
       ns2:pdfconverter="inkscape"
       ns2:text="$\\mathfrak{Im}$"
       ns2:preamble="/Users/alexis/Library/Application Support/org.inkscape.Inkscape/config/inkscape/extensions/textext/default_packages.tex"
       ns2:scale="2.5"
       ns2:alignment="middle center"
       ns2:stroke-to-path="0"
       ns2:jacobian_sqrt="0.881945"
       id="g1723">
      <defs
         id="id-a6f83e30-2b3d-41ea-956a-fbed98873746" />
      <g
         fill="#000000"
         fill-opacity="1"
         id="id-5df9870d-26ab-4681-8ec9-9ca0d305fb7e"
         transform="translate(-148.993,-127.921)">
        <g
           transform="translate(148.712,134.765)"
           id="g1717">
          <path
             d="m 5.203125,-6.6875 c -0.234375,0.21875 -0.578125,0.53125 -1,0.53125 -0.203125,0 -0.359375,-0.078125 -0.53125,-0.15625 -0.5,-0.234375 -1.125,-0.53125 -1.53125,-0.53125 -0.9375,0 -1.359375,0.859375 -1.859375,2.1875 l 0.171875,0.109375 c 0.25,-0.671875 0.6875,-1.4375 1.453125,-1.4375 0.4375,0 1.046875,0.265625 1.859375,0.578125 0.578125,-0.3125 1.078125,-0.6875 1.546875,-1.125 z m -4.78125,6.84375 0.53125,-0.359375 c 0.265625,0.234375 0.59375,0.46875 0.953125,0.46875 0.828125,0 1.5625,-0.4375 2.125,-1 C 4.484375,-1.1875 4.625,-1.828125 4.625,-2.4375 4.625,-3.15625 4.46875,-3.75 4.46875,-4.625 c 0,-0.453125 0.328125,-0.84375 0.65625,-1.140625 L 5,-5.828125 c -0.5,0.3125 -1,0.78125 -1.390625,1.21875 C 3.59375,-4.5 3.59375,-4.390625 3.59375,-4.28125 c 0,0.625 0.171875,1.328125 0.171875,2.21875 0,0.796875 -0.234375,1.890625 -1.109375,1.890625 -0.25,0 -0.515625,-0.125 -0.6875,-0.296875 -0.140625,-0.125 -0.1875,-0.234375 -0.453125,-0.8125 C 1.46875,-1.234375 0.703125,-0.4375 0.375,0 Z m 0,0"
             id="id-c9ebce6b-4933-4f53-8829-8f1a61b9a100" />
        </g>
        <g
           transform="translate(154.236,134.765)"
           id="g1720">
          <path
             d="m 1.671875,-3.75 v -0.4375 c 0,-0.015625 -0.328125,-0.34375 -0.5,-0.515625 L 0.0625,-3.78125 l 0.125,0.125 0.4375,-0.234375 0.25,0.25 c 0.03125,0.625 0.046875,1.25 0.046875,1.875 0,0.390625 -0.03125,0.78125 -0.078125,1.1875 L 1.328125,0.21875 2.15625,-0.484375 c -0.5,-0.625 -0.484375,-0.5625 -0.484375,-1.03125 v -1.96875 L 2.28125,-3.890625 C 2.625,-3.8125 3.078125,-3.671875 3.328125,-3.453125 3.375,-3.125 3.375,-2.796875 3.375,-2.46875 c 0,1.203125 -0.046875,1.625 -0.140625,2.015625 C 3.421875,-0.265625 3.65625,0 3.78125,0.265625 L 4.640625,-0.46875 c -0.4375,-0.5625 -0.5,-0.703125 -0.5,-0.875 V -3.515625 C 4.34375,-3.65625 4.5625,-3.78125 4.78125,-3.890625 c 0.296875,0.078125 0.953125,0.21875 1,0.484375 0.015625,0.171875 0.03125,0.421875 0.03125,0.671875 0,1.390625 -0.046875,1.71875 -0.109375,2.140625 C 5.90625,-0.34375 6.1875,0 6.296875,0.1875 l 1.25,-1.0625 -0.125,-0.171875 c -0.1875,0.15625 -0.265625,0.1875 -0.46875,0.265625 C 6.8125,-0.921875 6.703125,-1.09375 6.59375,-1.25 v -1.21875 c 0,-0.5625 0,-1.125 0.03125,-1.703125 -0.359375,-0.09375 -0.8125,-0.34375 -1.203125,-0.546875 -0.40625,0.328125 -0.84375,0.640625 -1.28125,0.9375 V -4.171875 C 3.71875,-4.3125 3.3125,-4.5 2.9375,-4.734375 Z m 0,0"
             id="id-eb09a758-57d9-4233-89ec-81f84be300f8" />
        </g>
      </g>
    </g>
    <rect
       style="fill:url(#linearGradient5456);fill-opacity:1;stroke:none;stroke-width:0.899999;stroke-linecap:round;stroke-dasharray:none;stroke-opacity:1"
       id="rect2085"
       width="44.535542"
       height="99.192787"
       x="51.703903"
       y="65.068153" />
    <rect
       style="fill:url(#linearGradient5172);fill-opacity:1;stroke:none;stroke-width:0.899999;stroke-linecap:round;stroke-dasharray:none;stroke-opacity:1"
       id="rect2085-2"
       width="44.535542"
       height="99.192787"
       x="96.399307"
       y="64.923569" />
    <path
       style="fill:#eb2500;fill-opacity:0.358362;stroke:#bb1419;stroke-width:1.6;stroke-linecap:round;stroke-dasharray:none;stroke-opacity:1;marker-start:url(#TriangleStart)"
       d="M 96.300876,63.911392 V 165.12853"
       id="path186" />
  </g>
</svg>
