<svg xmlns:inkscape="http://www.inkscape.org/namespaces/inkscape" xmlns:sodipodi="http://sodipodi.sourceforge.net/DTD/sodipodi-0.dtd" xmlns="http://www.w3.org/2000/svg" xmlns:svg="http://www.w3.org/2000/svg" xmlns:ns1="http://www.iki.fi/pav/software/textext/" width="196.53275mm" height="98.162651mm" viewBox="0 0 196.53275 98.162651" version="1.1" id="svg5" sodipodi:docname="drawing.svg" inkscape:version="1.2.2 (b0a84865, 2022-12-01)">
  <sodipodi:namedview id="namedview7" pagecolor="#ffffff" bordercolor="#999999" borderopacity="1" inkscape:showpageshadow="0" inkscape:pageopacity="0" inkscape:pagecheckerboard="0" inkscape:deskcolor="#d1d1d1" inkscape:document-units="mm" showgrid="false" inkscape:zoom="3.659624" inkscape:cx="373.80889" inkscape:cy="217.0988" inkscape:window-width="3008" inkscape:window-height="1639" inkscape:window-x="245" inkscape:window-y="540" inkscape:window-maximized="0" inkscape:current-layer="layer1"/>
  <defs id="defs2">
    <marker style="overflow:visible" id="marker14653" refX="-6" refY="0" orient="auto" inkscape:stockid="Dot" markerWidth="3" markerHeight="3" viewBox="0 0 5.6666667 5.6666667" inkscape:isstock="true" inkscape:collect="always" preserveAspectRatio="xMidYMid" markerUnits="userSpaceOnUse">
    <g color="rgb(209, 209, 209)">
      <path transform="scale(0.5)" style="fill:currentColor;fill-rule:evenodd;stroke:currentColor;stroke-width:1pt" d="M 5,0 C 5,2.76 2.76,5 0,5 -2.76,5 -5,2.76 -5,0 c 0,-2.76 2.3,-5 5,-5 2.76,0 5,2.24 5,5 z" id="path14651" sodipodi:nodetypes="sssss"/>
    </g>
    </marker>
    <marker style="overflow:visible" id="marker11773" refX="7" refY="0" orient="auto" inkscape:stockid="Dot" markerWidth="4" markerHeight="4" viewBox="0 0 5.6666667 5.6666667" inkscape:isstock="true" inkscape:collect="always" preserveAspectRatio="xMidYMid">
    <g color="rgb(209, 209, 209)">
      <path transform="scale(0.5)" style="fill:currentColor;fill-rule:evenodd;stroke:currentColor;stroke-width:1pt" d="M 5,0 C 5,2.76 2.76,5 0,5 -2.76,5 -5,2.76 -5,0 c 0,-2.76 2.3,-5 5,-5 2.76,0 5,2.24 5,5 z" id="path11771" sodipodi:nodetypes="sssss"/>
    </g>
    </marker>
    <marker style="overflow:visible" id="marker6931" refX="4" refY="0" orient="auto-start-reverse" inkscape:stockid="Arrow2" markerWidth="7.6999998" markerHeight="5.5999999" viewBox="0 0 7.7 5.6" inkscape:isstock="true" inkscape:collect="always" preserveAspectRatio="xMidYMid" markerUnits="userSpaceOnUse">
    <g color="rgb(209, 209, 209)">
      <path transform="scale(0.7)" d="M -2,-4 9,0 -2,4 c 2,-2.33 2,-5.66 0,-8 z" style="fill:currentColor;fill-rule:evenodd;stroke:none" id="path6929"/>
    </g>
    </marker>
    <marker style="overflow:visible" id="marker6737" refX="4" refY="0" orient="auto-start-reverse" inkscape:stockid="Arrow2" markerWidth="7.6999998" markerHeight="5.5999999" viewBox="0 0 7.7 5.6" inkscape:isstock="true" inkscape:collect="always" preserveAspectRatio="xMidYMid" markerUnits="userSpaceOnUse">
    <g color="rgb(209, 209, 209)">
      <path transform="scale(0.7)" d="M -2,-4 9,0 -2,4 c 2,-2.33 2,-5.66 0,-8 z" style="fill:currentColor;fill-rule:evenodd;stroke:none" id="path6735"/>
    </g>
    </marker>
    <marker style="overflow:visible" id="marker6537" refX="5" refY="0" orient="auto-start-reverse" inkscape:stockid="Arrow2" markerWidth="7.6999998" markerHeight="5.5999999" viewBox="0 0 7.7 5.6" inkscape:isstock="true" inkscape:collect="always" preserveAspectRatio="xMidYMid" markerUnits="userSpaceOnUse">
    <g color="rgb(209, 209, 209)">
      <path transform="scale(0.7)" d="M -2,-4 9,0 -2,4 c 2,-2.33 2,-5.66 0,-8 z" style="fill:currentColor;fill-rule:evenodd;stroke:none" id="path6535"/>
    </g>
    </marker>
    <marker style="overflow:visible" id="Arrow2" refX="5" refY="0" orient="auto-start-reverse" inkscape:stockid="Arrow2" markerWidth="7.6999998" markerHeight="5.5999999" viewBox="0 0 7.7 5.6" inkscape:isstock="true" inkscape:collect="always" preserveAspectRatio="xMidYMid" markerUnits="userSpaceOnUse">
    <g color="rgb(209, 209, 209)">
      <path transform="scale(0.7)" d="M -2,-4 9,0 -2,4 c 2,-2.33 2,-5.66 0,-8 z" style="fill:currentColor;fill-rule:evenodd;stroke:none" id="arrow2L"/>
    </g>
    </marker>
    <marker style="overflow:visible" id="Dot" refX="0" refY="0" orient="auto" inkscape:stockid="Dot" markerWidth="3" markerHeight="3" viewBox="0 0 5.6666667 5.6666667" inkscape:isstock="true" inkscape:collect="always" preserveAspectRatio="xMidYMid" markerUnits="userSpaceOnUse">
    <g color="rgb(209, 209, 209)">
      <path transform="scale(0.5)" style="fill:currentColor;fill-rule:evenodd;stroke:currentColor;stroke-width:1pt" d="M 5,0 C 5,2.76 2.76,5 0,5 -2.76,5 -5,2.76 -5,0 c 0,-2.76 2.3,-5 5,-5 2.76,0 5,2.24 5,5 z" id="Dot1" sodipodi:nodetypes="sssss"/>
    </g>
    </marker>
    <marker style="overflow:visible" id="marker6737-9" refX="4" refY="0" orient="auto-start-reverse" inkscape:stockid="Arrow2" markerWidth="7.6999998" markerHeight="5.5999999" viewBox="0 0 7.7 5.6" inkscape:isstock="true" inkscape:collect="always" preserveAspectRatio="xMidYMid" markerUnits="userSpaceOnUse">
    <g color="rgb(209, 209, 209)">
      <path transform="scale(0.7)" d="M -2,-4 9,0 -2,4 c 2,-2.33 2,-5.66 0,-8 z" style="fill:currentColor;fill-rule:evenodd;stroke:none" id="path6735-3"/>
    </g>
    </marker>
    <marker style="overflow:visible" id="marker6931-7" refX="4" refY="0" orient="auto-start-reverse" inkscape:stockid="Arrow2" markerWidth="7.6999998" markerHeight="5.5999999" viewBox="0 0 7.7 5.6" inkscape:isstock="true" inkscape:collect="always" preserveAspectRatio="xMidYMid" markerUnits="userSpaceOnUse">
    <g color="rgb(209, 209, 209)">
      <path transform="scale(0.7)" d="M -2,-4 9,0 -2,4 c 2,-2.33 2,-5.66 0,-8 z" style="fill:currentColor;fill-rule:evenodd;stroke:none" id="path6929-5"/>
    </g>
    </marker>
    <marker style="overflow:visible" id="marker6737-9-4" refX="4" refY="0" orient="auto-start-reverse" inkscape:stockid="Arrow2" markerWidth="7.6999998" markerHeight="5.5999999" viewBox="0 0 7.7 5.6" inkscape:isstock="true" inkscape:collect="always" preserveAspectRatio="xMidYMid" markerUnits="userSpaceOnUse">
    <g color="rgb(209, 209, 209)">
      <path transform="scale(0.7)" d="M -2,-4 9,0 -2,4 c 2,-2.33 2,-5.66 0,-8 z" style="fill:currentColor;fill-rule:evenodd;stroke:none" id="path6735-3-8"/>
    </g>
    </marker>
    <marker style="overflow:visible" id="marker6931-7-5" refX="4" refY="0" orient="auto-start-reverse" inkscape:stockid="Arrow2" markerWidth="7.6999998" markerHeight="5.5999999" viewBox="0 0 7.7 5.6" inkscape:isstock="true" inkscape:collect="always" preserveAspectRatio="xMidYMid" markerUnits="userSpaceOnUse">
    <g color="rgb(209, 209, 209)">
      <path transform="scale(0.7)" d="M -2,-4 9,0 -2,4 c 2,-2.33 2,-5.66 0,-8 z" style="fill:currentColor;fill-rule:evenodd;stroke:none" id="path6929-5-5"/>
    </g>
    </marker>
  </defs>
  <g inkscape:label="Layer 1" inkscape:groupmode="layer" id="layer1" transform="translate(-15.706841,-29.115447)" color="rgb(209, 209, 209)">
    <circle style="fill:none;stroke:currentColor;stroke-width:1.9;stroke-linecap:round" id="path234" cx="45.981499" cy="72.876343" r="23.71373"/>
    <circle style="fill:none;stroke:currentColor;stroke-width:1.9;stroke-linecap:round" id="path790" cx="182.91383" cy="72.876343" r="8.8203506"/>
    <path style="fill:none;stroke:currentColor;stroke-width:1.4;stroke-linecap:round;stroke-dasharray:none;marker-start:url(#Dot);marker-end:url(#Dot)" d="M 45.981498,72.876343 H 182.91383" id="path954"/>
    <text xml:space="preserve" style="font-weight:800;font-size:8.46667px;font-family:Avenir;-inkscape-font-specification:'Avenir Ultra-Bold';fill:none;stroke:currentColor;stroke-width:0;stroke-linecap:round;stroke-dasharray:none" x="15.037974" y="41.065235" id="text1281"><tspan sodipodi:role="line" id="tspan1279" style="font-style:normal;font-variant:normal;font-weight:900;font-stretch:normal;font-family:Avenir;-inkscape-font-specification:'Avenir Heavy';fill:currentColor;fill-opacity:1;stroke:none;stroke-width:0;stroke-dasharray:none" x="15.037974" y="41.065235">Earth</tspan></text>
    <text xml:space="preserve" style="font-weight:800;font-size:6.35px;font-family:Avenir;-inkscape-font-specification:'Avenir Ultra-Bold';fill:none;stroke:currentColor;stroke-width:0;stroke-linecap:round;stroke-dasharray:none" x="149.07207" y="60.120396" id="text1281-4"><tspan sodipodi:role="line" id="tspan1279-9" style="font-style:normal;font-variant:normal;font-weight:900;font-stretch:normal;font-size:6.35px;font-family:Avenir;-inkscape-font-specification:'Avenir Heavy';fill:currentColor;fill-opacity:1;stroke:none;stroke-width:0;stroke-dasharray:none" x="149.07207" y="60.120396">Neutral </tspan><tspan sodipodi:role="line" style="font-style:normal;font-variant:normal;font-weight:900;font-stretch:normal;font-size:6.35px;font-family:Avenir;-inkscape-font-specification:'Avenir Heavy';fill:currentColor;fill-opacity:1;stroke:none;stroke-width:0;stroke-dasharray:none" x="149.07207" y="68.201736" id="tspan19833">Point</tspan></text>
    <text xml:space="preserve" style="font-style:normal;font-variant:normal;font-weight:900;font-stretch:normal;font-size:8.46667px;font-family:Avenir;-inkscape-font-specification:'Avenir Heavy';fill:currentColor;fill-opacity:1;stroke:none;stroke-width:0;stroke-linecap:round;stroke-dasharray:none" x="189.78601" y="55.814022" id="text1335"><tspan sodipodi:role="line" id="tspan1333" style="stroke-width:0" x="189.78601" y="55.814022">Moon</tspan></text>
    <text xml:space="preserve" style="font-style:normal;font-variant:normal;font-weight:900;font-stretch:normal;font-size:8.46667px;font-family:Avenir;-inkscape-font-specification:'Avenir Heavy';fill:currentColor;fill-opacity:1;stroke:none;stroke-width:0;stroke-linecap:round;stroke-dasharray:none" x="210.03049" y="66.803307" id="text1343"><tspan sodipodi:role="line" id="tspan1341" style="stroke-width:0" x="210.03049" y="66.803307"/></text>
    <path style="fill:none;fill-opacity:1;stroke:currentColor;stroke-width:0.8;stroke-linecap:round;stroke-dasharray:none;stroke-opacity:1" d="M 45.981498,67.705744 V 30.4" id="path1345"/>
    <path style="fill:none;fill-opacity:1;stroke:currentColor;stroke-width:0.914202;stroke-linecap:round;stroke-dasharray:none;stroke-opacity:1" d="M 45.981499,126.821 V 78.104051" id="path1345-4"/>
    <path style="fill:none;fill-opacity:1;stroke:currentColor;stroke-width:0.914202;stroke-linecap:round;stroke-dasharray:none;stroke-opacity:1" d="M 182.91383,126.821 V 78.104047" id="path1345-4-5"/>
    <path style="fill:none;fill-opacity:1;stroke:currentColor;stroke-width:0.809855;stroke-linecap:round;stroke-dasharray:none;stroke-opacity:1;marker-start:url(#marker11773)" d="m 131.79305,68.784952 c 0,-10.652961 0,-25.486997 0,-38.230496" id="path1345-1" sodipodi:nodetypes="cc"/>
    <path style="fill:none;fill-opacity:1;stroke:currentColor;stroke-width:0.762636;stroke-linecap:round;stroke-dasharray:none;stroke-opacity:1;marker-end:url(#marker14653)" d="M 158.27487,109.91288 V 76.010459" id="path1345-1-8"/>
    <path style="fill:none;fill-opacity:1;stroke:currentColor;stroke-width:0.8;stroke-linecap:round;stroke-dasharray:none;stroke-opacity:1" d="M 182.91383,67.70574 V 30.4" id="path1345-8"/>
    <path style="fill:none;fill-opacity:1;stroke:currentColor;stroke-width:0.870859;stroke-linecap:round;stroke-dasharray:none;stroke-opacity:1;marker-start:url(#marker6737);marker-end:url(#marker6931)" d="M 48.198202,36.399131 H 129.25587" id="path1415"/>
    <path style="fill:none;fill-opacity:1;stroke:currentColor;stroke-width:0.87197;stroke-linecap:round;stroke-dasharray:none;stroke-opacity:1;marker-start:url(#marker6737-9);marker-end:url(#marker6931-7)" d="M 49.114153,121.26227 H 179.48073" id="path1415-7"/>
    <path style="fill:none;fill-opacity:1;stroke:currentColor;stroke-width:0.871;stroke-linecap:round;stroke-dasharray:none;stroke-opacity:1;marker-start:url(#marker6737-9-4);marker-end:url(#marker6931-7-5)" d="M 48.989991,106.13005 H 155.34216" id="path1415-7-5"/>
    <path style="fill:none;fill-opacity:1;stroke:currentColor;stroke-width:0.872613;stroke-linecap:round;stroke-dasharray:none;stroke-opacity:1;marker-start:url(#Arrow2);marker-end:url(#marker6537)" d="m 133.3854,36.391542 h 47.71729" id="path6351"/>
    <text xml:space="preserve" style="font-style:normal;font-variant:normal;font-weight:900;font-stretch:normal;font-size:8.46667px;font-family:Avenir;-inkscape-font-specification:'Avenir Heavy';fill:none;fill-opacity:1;stroke:currentColor;stroke-width:0.871;stroke-linecap:round;stroke-dasharray:none;stroke-opacity:1" x="89.64946" y="33.546249" id="text15925"><tspan sodipodi:role="line" id="tspan15923" style="stroke-width:0.871" x="89.64946" y="33.546249"/></text>
    <text xml:space="preserve" style="font-style:normal;font-variant:normal;font-weight:900;font-stretch:normal;font-size:8.46667px;font-family:Avenir;-inkscape-font-specification:'Avenir Heavy';fill:none;fill-opacity:1;stroke:currentColor;stroke-width:0.871;stroke-linecap:round;stroke-dasharray:none;stroke-opacity:1" x="103.16917" y="32.317188" id="text15956"><tspan sodipodi:role="line" id="tspan15954" style="stroke-width:0.871" x="103.16917" y="32.317188"/></text>
    <g transform="matrix(0.705556,0,0,0.705556,99.031433,94.902379)" ns1:version="1.8.2" ns1:texconverter="pdflatex" ns1:pdfconverter="inkscape" ns1:text="$\\frac{9D}{10}$" ns1:preamble="/Users/alexis/Library/Application Support/org.inkscape.Inkscape/config/inkscape/extensions/textext/default_packages.tex" ns1:scale="2.0" ns1:alignment="middle center" ns1:stroke-to-path="0" ns1:inkscapeversion="1.2.2" ns1:jacobian_sqrt="0.705556" id="g17967" color="rgb(209, 209, 209)">
      <defs id="id-f9875c64-08d0-4447-a363-594ef68bd583">
        <g id="id-1e8464bc-6da7-41eb-be4d-724bd887d783" color="rgb(209, 209, 209)">
          <g id="id-67f490e7-64be-492f-aff3-2f395b81e30b" color="rgb(209, 209, 209)"/>
          <g id="id-93c1217b-27d4-4f15-bb7f-08b0409f0e5f" color="rgb(209, 209, 209)">
            <path d="m 2.90625,-2.078125 c 0,1.734375 -0.84375,2 -1.265625,2 -0.15625,0 -0.53125,-0.015625 -0.71875,-0.234375 0.296875,-0.03125 0.3125,-0.265625 0.3125,-0.328125 0,-0.171875 -0.125,-0.328125 -0.328125,-0.328125 -0.203125,0 -0.328125,0.140625 -0.328125,0.34375 0,0.46875 0.390625,0.765625 1.0625,0.765625 1,0 1.9375,-0.9375 1.9375,-2.4375 C 3.578125,-4.015625 2.8125,-4.625 2,-4.625 c -0.234375,0 -0.703125,0.03125 -1.109375,0.421875 -0.234375,0.234375 -0.515625,0.5 -0.515625,1.125 0,0.890625 0.703125,1.546875 1.515625,1.546875 0.5625,0 0.859375,-0.375 1.015625,-0.6875 z m -0.96875,0.34375 c -0.28125,0 -0.53125,-0.078125 -0.734375,-0.40625 -0.15625,-0.25 -0.15625,-0.546875 -0.15625,-0.9375 0,-0.40625 0,-0.671875 0.203125,-0.953125 0.171875,-0.25 0.390625,-0.390625 0.75,-0.390625 0.359375,0 0.578125,0.21875 0.6875,0.40625 0.1875,0.28125 0.203125,0.78125 0.203125,1.015625 0,0.90625 -0.515625,1.265625 -0.953125,1.265625 z m 0,0" id="id-2cac6fc6-dbdd-4611-9a73-0041a7ffc80b"/>
          </g>
          <g id="id-60b90925-8130-4192-8262-2d1d1aab0956" color="rgb(209, 209, 209)">
            <path d="m 2.328125,-4.4375 c 0,-0.1875 0,-0.1875 -0.203125,-0.1875 -0.453125,0.4375 -1.078125,0.4375 -1.359375,0.4375 v 0.25 c 0.15625,0 0.625,0 1,-0.1875 v 3.546875 c 0,0.234375 0,0.328125 -0.6875,0.328125 H 0.8125 V 0 c 0.125,0 0.984375,-0.03125 1.234375,-0.03125 0.21875,0 1.09375,0.03125 1.25,0.03125 V -0.25 H 3.03125 c -0.703125,0 -0.703125,-0.09375 -0.703125,-0.328125 z m 0,0" id="id-2ffc58bc-5a10-4a7c-9712-eaf3a74ef79a"/>
          </g>
          <g id="id-4fa64d11-5fb8-4722-904f-e89eaccabead" color="rgb(209, 209, 209)">
            <path d="M 3.59375,-2.21875 C 3.59375,-2.984375 3.5,-3.546875 3.1875,-4.03125 2.96875,-4.34375 2.53125,-4.625 1.984375,-4.625 c -1.625,0 -1.625,1.90625 -1.625,2.40625 0,0.5 0,2.359375 1.625,2.359375 1.609375,0 1.609375,-1.859375 1.609375,-2.359375 z M 1.984375,-0.0625 c -0.328125,0 -0.75,-0.1875 -0.890625,-0.75 C 1,-1.21875 1,-1.796875 1,-2.3125 1,-2.828125 1,-3.359375 1.09375,-3.734375 1.25,-4.28125 1.6875,-4.4375 1.984375,-4.4375 c 0.375,0 0.734375,0.234375 0.859375,0.640625 0.109375,0.375 0.125,0.875 0.125,1.484375 0,0.515625 0,1.03125 -0.09375,1.46875 -0.140625,0.640625 -0.609375,0.78125 -0.890625,0.78125 z m 0,0" id="id-1a22c0ca-9a47-4a69-bbcf-b9f1336f52cd"/>
          </g>
          <g id="id-f34d2d61-86e7-4aab-aef1-f45c17972998" color="rgb(209, 209, 209)"/>
          <g id="id-b349216f-2345-47b0-80eb-ccff0af00e69" color="rgb(209, 209, 209)">
            <path d="M 1.3125,-0.546875 C 1.265625,-0.3125 1.25,-0.25 0.703125,-0.25 0.578125,-0.25 0.5,-0.25 0.5,-0.09375 0.5,0 0.578125,0 0.703125,0 H 3.1875 c 1.546875,0 3.03125,-1.421875 3.03125,-2.9375 0,-1.015625 -0.703125,-1.828125 -1.828125,-1.828125 H 1.84375 c -0.140625,0 -0.21875,0 -0.21875,0.15625 0,0.09375 0.078125,0.09375 0.234375,0.09375 0.109375,0 0.140625,0 0.265625,0.015625 0.140625,0.015625 0.140625,0.03125 0.140625,0.109375 0,0 0,0.046875 -0.015625,0.140625 z m 1.5625,-3.71875 c 0.0625,-0.21875 0.0625,-0.25 0.359375,-0.25 H 4.125 c 0.78125,0 1.4375,0.390625 1.4375,1.34375 0,0.15625 -0.078125,1.359375 -0.765625,2.15625 C 4.515625,-0.703125 3.921875,-0.25 3.0625,-0.25 H 2.125 c -0.21875,0 -0.234375,-0.015625 -0.234375,-0.078125 0,0 0,-0.03125 0.03125,-0.140625 z m 0,0" id="id-9f8afb89-fa08-4244-9f23-5aba306d71af"/>
          </g>
        </g>
      </defs>
      <g fill="currentColor" fill-opacity="1" id="id-38ac6f58-1a5e-4483-a0a4-4f7f8d55666d" transform="translate(-149.906,-126.076)" color="rgb(209, 209, 209)">
        <g transform="translate(149.908,130.842)" id="g17952" color="rgb(209, 209, 209)">
          <path d="m 2.90625,-2.078125 c 0,1.734375 -0.84375,2 -1.265625,2 -0.15625,0 -0.53125,-0.015625 -0.71875,-0.234375 0.296875,-0.03125 0.3125,-0.265625 0.3125,-0.328125 0,-0.171875 -0.125,-0.328125 -0.328125,-0.328125 -0.203125,0 -0.328125,0.140625 -0.328125,0.34375 0,0.46875 0.390625,0.765625 1.0625,0.765625 1,0 1.9375,-0.9375 1.9375,-2.4375 C 3.578125,-4.015625 2.8125,-4.625 2,-4.625 c -0.234375,0 -0.703125,0.03125 -1.109375,0.421875 -0.234375,0.234375 -0.515625,0.5 -0.515625,1.125 0,0.890625 0.703125,1.546875 1.515625,1.546875 0.5625,0 0.859375,-0.375 1.015625,-0.6875 z m -0.96875,0.34375 c -0.28125,0 -0.53125,-0.078125 -0.734375,-0.40625 -0.15625,-0.25 -0.15625,-0.546875 -0.15625,-0.9375 0,-0.40625 0,-0.671875 0.203125,-0.953125 0.171875,-0.25 0.390625,-0.390625 0.75,-0.390625 0.359375,0 0.578125,0.21875 0.6875,0.40625 0.1875,0.28125 0.203125,0.78125 0.203125,1.015625 0,0.90625 -0.515625,1.265625 -0.953125,1.265625 z m 0,0" id="id-7d07ccce-17ad-4376-a088-24a901555018"/>
        </g>
      </g>
      <g fill="currentColor" fill-opacity="1" id="id-1678bd94-8326-4263-b6b0-36e45c04ee73" transform="translate(-149.906,-126.076)" color="rgb(209, 209, 209)">
        <g transform="translate(153.879,130.842)" id="g17956" color="rgb(209, 209, 209)">
          <path d="M 1.3125,-0.546875 C 1.265625,-0.3125 1.25,-0.25 0.703125,-0.25 0.578125,-0.25 0.5,-0.25 0.5,-0.09375 0.5,0 0.578125,0 0.703125,0 H 3.1875 c 1.546875,0 3.03125,-1.421875 3.03125,-2.9375 0,-1.015625 -0.703125,-1.828125 -1.828125,-1.828125 H 1.84375 c -0.140625,0 -0.21875,0 -0.21875,0.15625 0,0.09375 0.078125,0.09375 0.234375,0.09375 0.109375,0 0.140625,0 0.265625,0.015625 0.140625,0.015625 0.140625,0.03125 0.140625,0.109375 0,0 0,0.046875 -0.015625,0.140625 z m 1.5625,-3.71875 c 0.0625,-0.21875 0.0625,-0.25 0.359375,-0.25 H 4.125 c 0.78125,0 1.4375,0.390625 1.4375,1.34375 0,0.15625 -0.078125,1.359375 -0.765625,2.15625 C 4.515625,-0.703125 3.921875,-0.25 3.0625,-0.25 H 2.125 c -0.21875,0 -0.234375,-0.015625 -0.234375,-0.078125 0,0 0,-0.03125 0.03125,-0.140625 z m 0,0" id="id-6c5df5a9-1671-400c-826e-5e98db7c40b7"/>
        </g>
      </g>
      <path fill="none" stroke-width="0.398" stroke-linecap="butt" stroke-linejoin="miter" stroke="currentColor" stroke-opacity="1" stroke-miterlimit="10" d="M 0,6.1970673 H 10.703125" id="id-b2edf2be-f772-457b-98e3-e5555cf68662"/>
      <g fill="currentColor" fill-opacity="1" id="id-cf7a4ce7-2def-448f-8f81-ebfbff6b8444" transform="translate(-149.906,-126.076)" color="rgb(209, 209, 209)">
        <g transform="translate(151.286,138.2)" id="g17961" color="rgb(209, 209, 209)">
          <path d="m 2.328125,-4.4375 c 0,-0.1875 0,-0.1875 -0.203125,-0.1875 -0.453125,0.4375 -1.078125,0.4375 -1.359375,0.4375 v 0.25 c 0.15625,0 0.625,0 1,-0.1875 v 3.546875 c 0,0.234375 0,0.328125 -0.6875,0.328125 H 0.8125 V 0 c 0.125,0 0.984375,-0.03125 1.234375,-0.03125 0.21875,0 1.09375,0.03125 1.25,0.03125 V -0.25 H 3.03125 c -0.703125,0 -0.703125,-0.09375 -0.703125,-0.328125 z m 0,0" id="id-cf38fdbc-68d3-4db9-abcc-4ebd63fd6a85"/>
        </g>
        <g transform="translate(155.258,138.2)" id="g17964" color="rgb(209, 209, 209)">
          <path d="M 3.59375,-2.21875 C 3.59375,-2.984375 3.5,-3.546875 3.1875,-4.03125 2.96875,-4.34375 2.53125,-4.625 1.984375,-4.625 c -1.625,0 -1.625,1.90625 -1.625,2.40625 0,0.5 0,2.359375 1.625,2.359375 1.609375,0 1.609375,-1.859375 1.609375,-2.359375 z M 1.984375,-0.0625 c -0.328125,0 -0.75,-0.1875 -0.890625,-0.75 C 1,-1.21875 1,-1.796875 1,-2.3125 1,-2.828125 1,-3.359375 1.09375,-3.734375 1.25,-4.28125 1.6875,-4.4375 1.984375,-4.4375 c 0.375,0 0.734375,0.234375 0.859375,0.640625 0.109375,0.375 0.125,0.875 0.125,1.484375 0,0.515625 0,1.03125 -0.09375,1.46875 -0.140625,0.640625 -0.609375,0.78125 -0.890625,0.78125 z m 0,0" id="id-151c6d76-2f01-4395-b3a2-f69a17a7f4ca"/>
        </g>
      </g>
    </g>
    <g transform="matrix(0.705556,0,0,0.705556,168.326,96.926722)" ns1:version="1.8.2" ns1:texconverter="pdflatex" ns1:pdfconverter="inkscape" ns1:text="$\\frac{D}{10}$" ns1:preamble="/Users/alexis/Library/Application Support/org.inkscape.Inkscape/config/inkscape/extensions/textext/default_packages.tex" ns1:scale="2.0" ns1:alignment="middle center" ns1:stroke-to-path="0" ns1:inkscapeversion="1.2.2" ns1:jacobian_sqrt="0.705556" id="g18300" color="rgb(209, 209, 209)">
      <defs id="id-9844570d-301d-41df-b8c4-dec1cfc07e55">
        <g id="id-17e7175b-819a-453a-a37b-3f37f8d829fe" color="rgb(209, 209, 209)">
          <g id="id-0c5e20eb-0c19-450e-b3b7-b80e0d85b595" color="rgb(209, 209, 209)"/>
          <g id="id-10bfa41f-9394-405c-b0be-825e1bf6a5ba" color="rgb(209, 209, 209)">
            <path d="M 1.3125,-0.546875 C 1.265625,-0.3125 1.25,-0.25 0.703125,-0.25 0.578125,-0.25 0.5,-0.25 0.5,-0.09375 0.5,0 0.578125,0 0.703125,0 H 3.1875 c 1.546875,0 3.03125,-1.421875 3.03125,-2.9375 0,-1.015625 -0.703125,-1.828125 -1.828125,-1.828125 H 1.84375 c -0.140625,0 -0.21875,0 -0.21875,0.15625 0,0.09375 0.078125,0.09375 0.234375,0.09375 0.109375,0 0.140625,0 0.265625,0.015625 0.140625,0.015625 0.140625,0.03125 0.140625,0.109375 0,0 0,0.046875 -0.015625,0.140625 z m 1.5625,-3.71875 c 0.0625,-0.21875 0.0625,-0.25 0.359375,-0.25 H 4.125 c 0.78125,0 1.4375,0.390625 1.4375,1.34375 0,0.15625 -0.078125,1.359375 -0.765625,2.15625 C 4.515625,-0.703125 3.921875,-0.25 3.0625,-0.25 H 2.125 c -0.21875,0 -0.234375,-0.015625 -0.234375,-0.078125 0,0 0,-0.03125 0.03125,-0.140625 z m 0,0" id="id-d796164e-e3e2-4235-8738-aa858293f8d1"/>
          </g>
          <g id="id-6e76ec27-292a-4644-b4a4-20c8dd3319eb" color="rgb(209, 209, 209)"/>
          <g id="id-916b441f-549e-4aa6-b010-be99aace6fef" color="rgb(209, 209, 209)">
            <path d="m 2.328125,-4.4375 c 0,-0.1875 0,-0.1875 -0.203125,-0.1875 -0.453125,0.4375 -1.078125,0.4375 -1.359375,0.4375 v 0.25 c 0.15625,0 0.625,0 1,-0.1875 v 3.546875 c 0,0.234375 0,0.328125 -0.6875,0.328125 H 0.8125 V 0 c 0.125,0 0.984375,-0.03125 1.234375,-0.03125 0.21875,0 1.09375,0.03125 1.25,0.03125 V -0.25 H 3.03125 c -0.703125,0 -0.703125,-0.09375 -0.703125,-0.328125 z m 0,0" id="id-35f09189-dd19-4488-bb35-a306d6a80279"/>
          </g>
          <g id="id-92bcd041-3c2c-46de-be2f-a45014ff8c95" color="rgb(209, 209, 209)">
            <path d="M 3.59375,-2.21875 C 3.59375,-2.984375 3.5,-3.546875 3.1875,-4.03125 2.96875,-4.34375 2.53125,-4.625 1.984375,-4.625 c -1.625,0 -1.625,1.90625 -1.625,2.40625 0,0.5 0,2.359375 1.625,2.359375 1.609375,0 1.609375,-1.859375 1.609375,-2.359375 z M 1.984375,-0.0625 c -0.328125,0 -0.75,-0.1875 -0.890625,-0.75 C 1,-1.21875 1,-1.796875 1,-2.3125 1,-2.828125 1,-3.359375 1.09375,-3.734375 1.25,-4.28125 1.6875,-4.4375 1.984375,-4.4375 c 0.375,0 0.734375,0.234375 0.859375,0.640625 0.109375,0.375 0.125,0.875 0.125,1.484375 0,0.515625 0,1.03125 -0.09375,1.46875 -0.140625,0.640625 -0.609375,0.78125 -0.890625,0.78125 z m 0,0" id="id-6bf1722d-5693-47a3-9dce-1f8fda8612a8"/>
          </g>
        </g>
      </defs>
      <g fill="currentColor" fill-opacity="1" id="id-e594836d-1ac1-4c0b-9537-b215a436b6cd" transform="translate(-149.906,-126.076)" color="rgb(209, 209, 209)">
        <g transform="translate(150.515,130.842)" id="g18289" color="rgb(209, 209, 209)">
          <path d="M 1.3125,-0.546875 C 1.265625,-0.3125 1.25,-0.25 0.703125,-0.25 0.578125,-0.25 0.5,-0.25 0.5,-0.09375 0.5,0 0.578125,0 0.703125,0 H 3.1875 c 1.546875,0 3.03125,-1.421875 3.03125,-2.9375 0,-1.015625 -0.703125,-1.828125 -1.828125,-1.828125 H 1.84375 c -0.140625,0 -0.21875,0 -0.21875,0.15625 0,0.09375 0.078125,0.09375 0.234375,0.09375 0.109375,0 0.140625,0 0.265625,0.015625 0.140625,0.015625 0.140625,0.03125 0.140625,0.109375 0,0 0,0.046875 -0.015625,0.140625 z m 1.5625,-3.71875 c 0.0625,-0.21875 0.0625,-0.25 0.359375,-0.25 H 4.125 c 0.78125,0 1.4375,0.390625 1.4375,1.34375 0,0.15625 -0.078125,1.359375 -0.765625,2.15625 C 4.515625,-0.703125 3.921875,-0.25 3.0625,-0.25 H 2.125 c -0.21875,0 -0.234375,-0.015625 -0.234375,-0.078125 0,0 0,-0.03125 0.03125,-0.140625 z m 0,0" id="id-4d717d51-4944-4385-aab4-c3c6c219cb5c"/>
        </g>
      </g>
      <path fill="none" stroke-width="0.398" stroke-linecap="butt" stroke-linejoin="miter" stroke="currentColor" stroke-opacity="1" stroke-miterlimit="10" d="M 0,6.1970673 H 7.945312" id="id-789cf115-ebc3-4731-9571-f00780c73ad7"/>
      <g fill="currentColor" fill-opacity="1" id="id-e4fb4cd4-aa59-4144-9ad1-6332ab122a65" transform="translate(-149.906,-126.076)" color="rgb(209, 209, 209)">
        <g transform="translate(149.908,138.2)" id="g18294" color="rgb(209, 209, 209)">
          <path d="m 2.328125,-4.4375 c 0,-0.1875 0,-0.1875 -0.203125,-0.1875 -0.453125,0.4375 -1.078125,0.4375 -1.359375,0.4375 v 0.25 c 0.15625,0 0.625,0 1,-0.1875 v 3.546875 c 0,0.234375 0,0.328125 -0.6875,0.328125 H 0.8125 V 0 c 0.125,0 0.984375,-0.03125 1.234375,-0.03125 0.21875,0 1.09375,0.03125 1.25,0.03125 V -0.25 H 3.03125 c -0.703125,0 -0.703125,-0.09375 -0.703125,-0.328125 z m 0,0" id="id-0d6a4169-bfe5-4a3b-8b6d-7466fb97ebe3"/>
        </g>
        <g transform="translate(153.88,138.2)" id="g18297" color="rgb(209, 209, 209)">
          <path d="M 3.59375,-2.21875 C 3.59375,-2.984375 3.5,-3.546875 3.1875,-4.03125 2.96875,-4.34375 2.53125,-4.625 1.984375,-4.625 c -1.625,0 -1.625,1.90625 -1.625,2.40625 0,0.5 0,2.359375 1.625,2.359375 1.609375,0 1.609375,-1.859375 1.609375,-2.359375 z M 1.984375,-0.0625 c -0.328125,0 -0.75,-0.1875 -0.890625,-0.75 C 1,-1.21875 1,-1.796875 1,-2.3125 1,-2.828125 1,-3.359375 1.09375,-3.734375 1.25,-4.28125 1.6875,-4.4375 1.984375,-4.4375 c 0.375,0 0.734375,0.234375 0.859375,0.640625 0.109375,0.375 0.125,0.875 0.125,1.484375 0,0.515625 0,1.03125 -0.09375,1.46875 -0.140625,0.640625 -0.609375,0.78125 -0.890625,0.78125 z m 0,0" id="id-ea33576a-ab9d-470e-aece-b6e4dd00b03d"/>
        </g>
      </g>
    </g>
    <g transform="matrix(0.705556,0,0,0.705556,110.10055,114.17719)" ns1:version="1.8.2" ns1:texconverter="pdflatex" ns1:pdfconverter="inkscape" ns1:text="$D$" ns1:preamble="/Users/alexis/Library/Application Support/org.inkscape.Inkscape/config/inkscape/extensions/textext/default_packages.tex" ns1:scale="2.0" ns1:alignment="middle center" ns1:stroke-to-path="0" ns1:inkscapeversion="1.2.2" ns1:jacobian_sqrt="0.705556" id="g18655" color="rgb(209, 209, 209)">
      <defs id="id-968c65ed-1c25-4702-9ab2-1e24d7f9a4b7">
        <g id="id-a84a016a-ee8c-4fa6-8d04-9c459a85fc07" color="rgb(209, 209, 209)">
          <g id="id-8b279668-1c3c-40ff-952c-517ed3b62176" color="rgb(209, 209, 209)"/>
          <g id="id-06d28c30-6894-4f84-88fa-7e82354ad862" color="rgb(209, 209, 209)">
            <path d="m 1.578125,-0.78125 c -0.09375,0.390625 -0.109375,0.46875 -0.90625,0.46875 -0.15625,0 -0.265625,0 -0.265625,0.1875 C 0.40625,0 0.484375,0 0.671875,0 h 3.3125 c 2.0625,0 4.03125,-2.109375 4.03125,-4.28125 0,-1.40625 -0.84375,-2.53125 -2.34375,-2.53125 h -3.34375 c -0.1875,0 -0.296875,0 -0.296875,0.1875 0,0.125 0.078125,0.125 0.28125,0.125 0.125,0 0.3125,0.015625 0.421875,0.015625 0.171875,0.03125 0.21875,0.046875 0.21875,0.171875 0,0.03125 0,0.0625 -0.03125,0.1875 z M 3.734375,-6.125 C 3.828125,-6.46875 3.84375,-6.5 4.28125,-6.5 h 1.0625 c 0.96875,0 1.796875,0.53125 1.796875,1.84375 0,0.484375 -0.1875,2.125 -1.046875,3.21875 -0.28125,0.375 -1.0625,1.125 -2.296875,1.125 h -1.125 c -0.140625,0 -0.15625,0 -0.21875,0 -0.09375,-0.015625 -0.125,-0.03125 -0.125,-0.109375 0,-0.03125 0,-0.046875 0.046875,-0.21875 z m 0,0" id="id-07155e7b-5213-44b4-9316-cf38e983261c"/>
          </g>
        </g>
      </defs>
      <g fill="currentColor" fill-opacity="1" id="id-6c91e114-9bd1-405a-b3d8-0d1e56dd1ed7" transform="translate(-149.118,-127.953)" color="rgb(209, 209, 209)">
        <g transform="translate(148.712,134.765)" id="g18652" color="rgb(209, 209, 209)">
          <path d="m 1.578125,-0.78125 c -0.09375,0.390625 -0.109375,0.46875 -0.90625,0.46875 -0.15625,0 -0.265625,0 -0.265625,0.1875 C 0.40625,0 0.484375,0 0.671875,0 h 3.3125 c 2.0625,0 4.03125,-2.109375 4.03125,-4.28125 0,-1.40625 -0.84375,-2.53125 -2.34375,-2.53125 h -3.34375 c -0.1875,0 -0.296875,0 -0.296875,0.1875 0,0.125 0.078125,0.125 0.28125,0.125 0.125,0 0.3125,0.015625 0.421875,0.015625 0.171875,0.03125 0.21875,0.046875 0.21875,0.171875 0,0.03125 0,0.0625 -0.03125,0.1875 z M 3.734375,-6.125 C 3.828125,-6.46875 3.84375,-6.5 4.28125,-6.5 h 1.0625 c 0.96875,0 1.796875,0.53125 1.796875,1.84375 0,0.484375 -0.1875,2.125 -1.046875,3.21875 -0.28125,0.375 -1.0625,1.125 -2.296875,1.125 h -1.125 c -0.140625,0 -0.15625,0 -0.21875,0 -0.09375,-0.015625 -0.125,-0.03125 -0.125,-0.109375 0,-0.03125 0,-0.046875 0.046875,-0.21875 z m 0,0" id="id-5f080532-f78f-40ce-b494-ed4c011dde48"/>
        </g>
      </g>
    </g>
    <g transform="matrix(0.705556,0,0,0.705556,129.211,77.32)" ns1:version="1.8.2" ns1:texconverter="pdflatex" ns1:pdfconverter="inkscape" ns1:text="$m$" ns1:preamble="/Users/alexis/Library/Application Support/org.inkscape.Inkscape/config/inkscape/extensions/textext/default_packages.tex" ns1:scale="2.0" ns1:alignment="middle center" ns1:stroke-to-path="0" ns1:inkscapeversion="1.2.2" ns1:jacobian_sqrt="0.705556" id="g17451" color="rgb(209, 209, 209)">
      <defs id="id-7a3aff03-8fff-4f7e-93b9-810417910c7c">
        <g id="id-4cb6efbb-04b3-4182-83ea-8a84186d0e91" color="rgb(209, 209, 209)">
          <g id="id-6051c6e0-b23c-4b42-b194-1263b727057d" color="rgb(209, 209, 209)"/>
          <g id="id-cd8c6c08-99d2-4ffa-8282-5bc0e7704e40" color="rgb(209, 209, 209)">
            <path d="m 0.875,-0.59375 c -0.03125,0.15625 -0.09375,0.390625 -0.09375,0.4375 0,0.171875 0.140625,0.265625 0.296875,0.265625 0.125,0 0.296875,-0.078125 0.375,-0.28125 0,-0.015625 0.125,-0.484375 0.1875,-0.734375 l 0.21875,-0.890625 C 1.90625,-2.03125 1.96875,-2.25 2.03125,-2.46875 c 0.03125,-0.171875 0.109375,-0.46875 0.125,-0.5 0.140625,-0.3125 0.671875,-1.21875 1.625,-1.21875 0.453125,0 0.53125,0.375 0.53125,0.703125 0,0.25 -0.0625,0.53125 -0.140625,0.828125 L 3.890625,-1.5 3.6875,-0.75 c -0.03125,0.203125 -0.125,0.546875 -0.125,0.59375 0,0.171875 0.140625,0.265625 0.28125,0.265625 0.3125,0 0.375,-0.25 0.453125,-0.5625 0.140625,-0.5625 0.515625,-2.015625 0.59375,-2.40625 0.03125,-0.125 0.5625,-1.328125 1.65625,-1.328125 0.421875,0 0.53125,0.34375 0.53125,0.703125 0,0.5625 -0.421875,1.703125 -0.625,2.234375 -0.078125,0.234375 -0.125,0.34375 -0.125,0.546875 0,0.46875 0.34375,0.8125 0.8125,0.8125 0.9375,0 1.3125,-1.453125 1.3125,-1.53125 0,-0.109375 -0.09375,-0.109375 -0.125,-0.109375 -0.09375,0 -0.09375,0.03125 -0.140625,0.1875 -0.15625,0.53125 -0.46875,1.234375 -1.015625,1.234375 -0.171875,0 -0.25,-0.09375 -0.25,-0.328125 0,-0.25 0.09375,-0.484375 0.1875,-0.703125 0.1875,-0.53125 0.609375,-1.625 0.609375,-2.203125 0,-0.640625 -0.40625,-1.0625 -1.15625,-1.0625 -0.734375,0 -1.25,0.4375 -1.625,0.96875 0,-0.125 -0.03125,-0.46875 -0.3125,-0.703125 -0.25,-0.21875 -0.5625,-0.265625 -0.8125,-0.265625 -0.90625,0 -1.390625,0.640625 -1.5625,0.875 -0.046875,-0.578125 -0.46875,-0.875 -0.921875,-0.875 -0.453125,0 -0.640625,0.390625 -0.734375,0.5625 -0.171875,0.359375 -0.296875,0.9375 -0.296875,0.96875 0,0.109375 0.09375,0.109375 0.109375,0.109375 0.109375,0 0.109375,-0.015625 0.171875,-0.234375 0.171875,-0.703125 0.375,-1.1875 0.734375,-1.1875 0.15625,0 0.296875,0.078125 0.296875,0.453125 0,0.21875 -0.03125,0.328125 -0.15625,0.84375 z m 0,0" id="id-d10bc2d4-0547-48e3-bde3-ccf91a5cce37"/>
          </g>
        </g>
      </defs>
      <g fill="currentColor" fill-opacity="1" id="id-d8b56248-f3f1-4c0f-a1c9-ccf3394570e9" transform="translate(-149.009,-130.359)" color="rgb(209, 209, 209)">
        <g transform="translate(148.712,134.765)" id="g19005" color="rgb(209, 209, 209)">
          <path d="m 0.875,-0.59375 c -0.03125,0.15625 -0.09375,0.390625 -0.09375,0.4375 0,0.171875 0.140625,0.265625 0.296875,0.265625 0.125,0 0.296875,-0.078125 0.375,-0.28125 0,-0.015625 0.125,-0.484375 0.1875,-0.734375 l 0.21875,-0.890625 C 1.90625,-2.03125 1.96875,-2.25 2.03125,-2.46875 c 0.03125,-0.171875 0.109375,-0.46875 0.125,-0.5 0.140625,-0.3125 0.671875,-1.21875 1.625,-1.21875 0.453125,0 0.53125,0.375 0.53125,0.703125 0,0.25 -0.0625,0.53125 -0.140625,0.828125 L 3.890625,-1.5 3.6875,-0.75 c -0.03125,0.203125 -0.125,0.546875 -0.125,0.59375 0,0.171875 0.140625,0.265625 0.28125,0.265625 0.3125,0 0.375,-0.25 0.453125,-0.5625 0.140625,-0.5625 0.515625,-2.015625 0.59375,-2.40625 0.03125,-0.125 0.5625,-1.328125 1.65625,-1.328125 0.421875,0 0.53125,0.34375 0.53125,0.703125 0,0.5625 -0.421875,1.703125 -0.625,2.234375 -0.078125,0.234375 -0.125,0.34375 -0.125,0.546875 0,0.46875 0.34375,0.8125 0.8125,0.8125 0.9375,0 1.3125,-1.453125 1.3125,-1.53125 0,-0.109375 -0.09375,-0.109375 -0.125,-0.109375 -0.09375,0 -0.09375,0.03125 -0.140625,0.1875 -0.15625,0.53125 -0.46875,1.234375 -1.015625,1.234375 -0.171875,0 -0.25,-0.09375 -0.25,-0.328125 0,-0.25 0.09375,-0.484375 0.1875,-0.703125 0.1875,-0.53125 0.609375,-1.625 0.609375,-2.203125 0,-0.640625 -0.40625,-1.0625 -1.15625,-1.0625 -0.734375,0 -1.25,0.4375 -1.625,0.96875 0,-0.125 -0.03125,-0.46875 -0.3125,-0.703125 -0.25,-0.21875 -0.5625,-0.265625 -0.8125,-0.265625 -0.90625,0 -1.390625,0.640625 -1.5625,0.875 -0.046875,-0.578125 -0.46875,-0.875 -0.921875,-0.875 -0.453125,0 -0.640625,0.390625 -0.734375,0.5625 -0.171875,0.359375 -0.296875,0.9375 -0.296875,0.96875 0,0.109375 0.09375,0.109375 0.109375,0.109375 0.109375,0 0.109375,-0.015625 0.171875,-0.234375 0.171875,-0.703125 0.375,-1.1875 0.734375,-1.1875 0.15625,0 0.296875,0.078125 0.296875,0.453125 0,0.21875 -0.03125,0.328125 -0.15625,0.84375 z m 0,0" id="id-c638a625-d41f-4809-9e84-a8bd5531479c"/>
        </g>
      </g>
    </g>
    <g transform="matrix(0.705556,0,0,0.705556,88.6561,30.6878)" ns1:version="1.8.2" ns1:texconverter="pdflatex" ns1:pdfconverter="inkscape" ns1:text="$r$" ns1:preamble="/Users/alexis/Library/Application Support/org.inkscape.Inkscape/config/inkscape/extensions/textext/default_packages.tex" ns1:scale="2.0" ns1:alignment="middle center" ns1:stroke-to-path="0" ns1:inkscapeversion="1.2.2" ns1:jacobian_sqrt="0.705556" id="g16063" color="rgb(209, 209, 209)">
      <defs id="id-41befead-4a15-4ee1-8d96-61afc1272576">
        <g id="id-f2c954d4-903f-4863-9ab2-ced21e66bbe3" color="rgb(209, 209, 209)">
          <g id="id-bce9e7c0-562b-43b3-b8c7-215abae1bb81" color="rgb(209, 209, 209)"/>
          <g id="id-8a29278a-cd89-4760-846a-3b8e36b0f5d4" color="rgb(209, 209, 209)">
            <path d="m 0.875,-0.59375 c -0.03125,0.15625 -0.09375,0.390625 -0.09375,0.4375 0,0.171875 0.140625,0.265625 0.296875,0.265625 0.125,0 0.296875,-0.078125 0.375,-0.28125 C 1.46875,-0.203125 1.796875,-1.5625 1.84375,-1.75 c 0.078125,-0.328125 0.265625,-1.015625 0.3125,-1.296875 0.046875,-0.125 0.328125,-0.59375 0.5625,-0.8125 0.078125,-0.0625 0.375,-0.328125 0.796875,-0.328125 0.265625,0 0.40625,0.125 0.421875,0.125 -0.296875,0.046875 -0.515625,0.28125 -0.515625,0.546875 0,0.15625 0.109375,0.34375 0.375,0.34375 0.265625,0 0.546875,-0.234375 0.546875,-0.59375 0,-0.34375 -0.3125,-0.640625 -0.828125,-0.640625 C 2.875,-4.40625 2.4375,-3.921875 2.25,-3.640625 2.15625,-4.09375 1.796875,-4.40625 1.328125,-4.40625 0.875,-4.40625 0.6875,-4.015625 0.59375,-3.84375 0.421875,-3.5 0.296875,-2.90625 0.296875,-2.875 c 0,0.109375 0.09375,0.109375 0.109375,0.109375 0.109375,0 0.109375,-0.015625 0.171875,-0.234375 0.171875,-0.703125 0.375,-1.1875 0.734375,-1.1875 0.15625,0 0.296875,0.078125 0.296875,0.453125 0,0.21875 -0.03125,0.328125 -0.15625,0.84375 z m 0,0" id="id-9f777fc3-49a8-4246-b0c5-e4b63f9cec3a"/>
          </g>
        </g>
      </defs>
      <g fill="currentColor" fill-opacity="1" id="id-c387236d-ae18-4f12-8eed-5ad15f81d8a9" transform="translate(-149.009,-130.359)" color="rgb(209, 209, 209)">
        <g transform="translate(148.712,134.765)" id="g19357" color="rgb(209, 209, 209)">
          <path d="m 0.875,-0.59375 c -0.03125,0.15625 -0.09375,0.390625 -0.09375,0.4375 0,0.171875 0.140625,0.265625 0.296875,0.265625 0.125,0 0.296875,-0.078125 0.375,-0.28125 C 1.46875,-0.203125 1.796875,-1.5625 1.84375,-1.75 c 0.078125,-0.328125 0.265625,-1.015625 0.3125,-1.296875 0.046875,-0.125 0.328125,-0.59375 0.5625,-0.8125 0.078125,-0.0625 0.375,-0.328125 0.796875,-0.328125 0.265625,0 0.40625,0.125 0.421875,0.125 -0.296875,0.046875 -0.515625,0.28125 -0.515625,0.546875 0,0.15625 0.109375,0.34375 0.375,0.34375 0.265625,0 0.546875,-0.234375 0.546875,-0.59375 0,-0.34375 -0.3125,-0.640625 -0.828125,-0.640625 C 2.875,-4.40625 2.4375,-3.921875 2.25,-3.640625 2.15625,-4.09375 1.796875,-4.40625 1.328125,-4.40625 0.875,-4.40625 0.6875,-4.015625 0.59375,-3.84375 0.421875,-3.5 0.296875,-2.90625 0.296875,-2.875 c 0,0.109375 0.09375,0.109375 0.109375,0.109375 0.109375,0 0.109375,-0.015625 0.171875,-0.234375 0.171875,-0.703125 0.375,-1.1875 0.734375,-1.1875 0.15625,0 0.296875,0.078125 0.296875,0.453125 0,0.21875 -0.03125,0.328125 -0.15625,0.84375 z m 0,0" id="id-3bb14ad1-4214-40b9-9bc9-f85affce072d"/>
        </g>
      </g>
    </g>
    <g transform="matrix(0.705556,0,0,0.705556,149.278,29.1158)" ns1:version="1.8.2" ns1:texconverter="pdflatex" ns1:pdfconverter="inkscape" ns1:text="$D-r$" ns1:preamble="/Users/alexis/Library/Application Support/org.inkscape.Inkscape/config/inkscape/extensions/textext/default_packages.tex" ns1:scale="2.0" ns1:alignment="middle center" ns1:stroke-to-path="0" ns1:inkscapeversion="1.2.2" ns1:jacobian_sqrt="0.705556" id="g17207" color="rgb(209, 209, 209)">
      <defs id="id-d9993fbf-48f7-4187-a7aa-6bca5b694725">
        <g id="id-12be2b12-f161-478f-9aef-6889bba9844a" color="rgb(209, 209, 209)">
          <g id="id-945906b1-8067-4af9-8cb0-3550d2b27f9e" color="rgb(209, 209, 209)"/>
          <g id="id-1806d6f4-d033-4139-a469-ac77c51ab84b" color="rgb(209, 209, 209)">
            <path d="m 1.578125,-0.78125 c -0.09375,0.390625 -0.109375,0.46875 -0.90625,0.46875 -0.15625,0 -0.265625,0 -0.265625,0.1875 C 0.40625,0 0.484375,0 0.671875,0 h 3.3125 c 2.0625,0 4.03125,-2.109375 4.03125,-4.28125 0,-1.40625 -0.84375,-2.53125 -2.34375,-2.53125 h -3.34375 c -0.1875,0 -0.296875,0 -0.296875,0.1875 0,0.125 0.078125,0.125 0.28125,0.125 0.125,0 0.3125,0.015625 0.421875,0.015625 0.171875,0.03125 0.21875,0.046875 0.21875,0.171875 0,0.03125 0,0.0625 -0.03125,0.1875 z M 3.734375,-6.125 C 3.828125,-6.46875 3.84375,-6.5 4.28125,-6.5 h 1.0625 c 0.96875,0 1.796875,0.53125 1.796875,1.84375 0,0.484375 -0.1875,2.125 -1.046875,3.21875 -0.28125,0.375 -1.0625,1.125 -2.296875,1.125 h -1.125 c -0.140625,0 -0.15625,0 -0.21875,0 -0.09375,-0.015625 -0.125,-0.03125 -0.125,-0.109375 0,-0.03125 0,-0.046875 0.046875,-0.21875 z m 0,0" id="id-e19e7c78-6115-4153-97a4-abb513a274c6"/>
          </g>
          <g id="id-e58a9414-ce74-44d6-9be1-5c52f139c731" color="rgb(209, 209, 209)">
            <path d="m 0.875,-0.59375 c -0.03125,0.15625 -0.09375,0.390625 -0.09375,0.4375 0,0.171875 0.140625,0.265625 0.296875,0.265625 0.125,0 0.296875,-0.078125 0.375,-0.28125 C 1.46875,-0.203125 1.796875,-1.5625 1.84375,-1.75 c 0.078125,-0.328125 0.265625,-1.015625 0.3125,-1.296875 0.046875,-0.125 0.328125,-0.59375 0.5625,-0.8125 0.078125,-0.0625 0.375,-0.328125 0.796875,-0.328125 0.265625,0 0.40625,0.125 0.421875,0.125 -0.296875,0.046875 -0.515625,0.28125 -0.515625,0.546875 0,0.15625 0.109375,0.34375 0.375,0.34375 0.265625,0 0.546875,-0.234375 0.546875,-0.59375 0,-0.34375 -0.3125,-0.640625 -0.828125,-0.640625 C 2.875,-4.40625 2.4375,-3.921875 2.25,-3.640625 2.15625,-4.09375 1.796875,-4.40625 1.328125,-4.40625 0.875,-4.40625 0.6875,-4.015625 0.59375,-3.84375 0.421875,-3.5 0.296875,-2.90625 0.296875,-2.875 c 0,0.109375 0.09375,0.109375 0.109375,0.109375 0.109375,0 0.109375,-0.015625 0.171875,-0.234375 0.171875,-0.703125 0.375,-1.1875 0.734375,-1.1875 0.15625,0 0.296875,0.078125 0.296875,0.453125 0,0.21875 -0.03125,0.328125 -0.15625,0.84375 z m 0,0" id="id-8dcb7ad6-f311-4679-aa53-6f2b11a34345"/>
          </g>
          <g id="id-52adfee3-2e35-4e47-8067-6abc37aa67da" color="rgb(209, 209, 209)"/>
          <g id="id-c92fc791-f38f-4d21-b829-75ce10f18435" color="rgb(209, 209, 209)">
            <path d="m 6.5625,-2.296875 c 0.171875,0 0.359375,0 0.359375,-0.203125 0,-0.1875 -0.1875,-0.1875 -0.359375,-0.1875 H 1.171875 c -0.171875,0 -0.34375,0 -0.34375,0.1875 0,0.203125 0.171875,0.203125 0.34375,0.203125 z m 0,0" id="id-35b2bbe1-7ffe-4108-8d60-a647ff34caf6"/>
          </g>
        </g>
      </defs>
      <g fill="currentColor" fill-opacity="1" id="id-1603b29f-06a5-41d0-bbbb-5e482d5e15f5" transform="translate(-149.118,-127.953)" color="rgb(209, 209, 209)">
        <g transform="translate(148.712,134.765)" id="g19706" color="rgb(209, 209, 209)">
          <path d="m 1.578125,-0.78125 c -0.09375,0.390625 -0.109375,0.46875 -0.90625,0.46875 -0.15625,0 -0.265625,0 -0.265625,0.1875 C 0.40625,0 0.484375,0 0.671875,0 h 3.3125 c 2.0625,0 4.03125,-2.109375 4.03125,-4.28125 0,-1.40625 -0.84375,-2.53125 -2.34375,-2.53125 h -3.34375 c -0.1875,0 -0.296875,0 -0.296875,0.1875 0,0.125 0.078125,0.125 0.28125,0.125 0.125,0 0.3125,0.015625 0.421875,0.015625 0.171875,0.03125 0.21875,0.046875 0.21875,0.171875 0,0.03125 0,0.0625 -0.03125,0.1875 z M 3.734375,-6.125 C 3.828125,-6.46875 3.84375,-6.5 4.28125,-6.5 h 1.0625 c 0.96875,0 1.796875,0.53125 1.796875,1.84375 0,0.484375 -0.1875,2.125 -1.046875,3.21875 -0.28125,0.375 -1.0625,1.125 -2.296875,1.125 h -1.125 c -0.140625,0 -0.15625,0 -0.21875,0 -0.09375,-0.015625 -0.125,-0.03125 -0.125,-0.109375 0,-0.03125 0,-0.046875 0.046875,-0.21875 z m 0,0" id="id-5129b65c-b8f0-4988-9527-5277bf2320a1"/>
        </g>
      </g>
      <g fill="currentColor" fill-opacity="1" id="id-61634668-2d69-4778-9ec7-e5e0b0404d07" transform="translate(-149.118,-127.953)" color="rgb(209, 209, 209)">
        <g transform="translate(159.451,134.765)" id="g19710" color="rgb(209, 209, 209)">
          <path d="m 6.5625,-2.296875 c 0.171875,0 0.359375,0 0.359375,-0.203125 0,-0.1875 -0.1875,-0.1875 -0.359375,-0.1875 H 1.171875 c -0.171875,0 -0.34375,0 -0.34375,0.1875 0,0.203125 0.171875,0.203125 0.34375,0.203125 z m 0,0" id="id-972a1d21-0b83-42d4-b786-8aa0995b0fb4"/>
        </g>
      </g>
      <g fill="currentColor" fill-opacity="1" id="id-356b67d7-9402-4efc-a7b5-fb8e7304e757" transform="translate(-149.118,-127.953)" color="rgb(209, 209, 209)">
        <g transform="translate(169.414,134.765)" id="g19714" color="rgb(209, 209, 209)">
          <path d="m 0.875,-0.59375 c -0.03125,0.15625 -0.09375,0.390625 -0.09375,0.4375 0,0.171875 0.140625,0.265625 0.296875,0.265625 0.125,0 0.296875,-0.078125 0.375,-0.28125 C 1.46875,-0.203125 1.796875,-1.5625 1.84375,-1.75 c 0.078125,-0.328125 0.265625,-1.015625 0.3125,-1.296875 0.046875,-0.125 0.328125,-0.59375 0.5625,-0.8125 0.078125,-0.0625 0.375,-0.328125 0.796875,-0.328125 0.265625,0 0.40625,0.125 0.421875,0.125 -0.296875,0.046875 -0.515625,0.28125 -0.515625,0.546875 0,0.15625 0.109375,0.34375 0.375,0.34375 0.265625,0 0.546875,-0.234375 0.546875,-0.59375 0,-0.34375 -0.3125,-0.640625 -0.828125,-0.640625 C 2.875,-4.40625 2.4375,-3.921875 2.25,-3.640625 2.15625,-4.09375 1.796875,-4.40625 1.328125,-4.40625 0.875,-4.40625 0.6875,-4.015625 0.59375,-3.84375 0.421875,-3.5 0.296875,-2.90625 0.296875,-2.875 c 0,0.109375 0.09375,0.109375 0.109375,0.109375 0.109375,0 0.109375,-0.015625 0.171875,-0.234375 0.171875,-0.703125 0.375,-1.1875 0.734375,-1.1875 0.15625,0 0.296875,0.078125 0.296875,0.453125 0,0.21875 -0.03125,0.328125 -0.15625,0.84375 z m 0,0" id="id-60af1007-2143-445a-b78a-497e54e3d0a5"/>
        </g>
      </g>
    </g>
  </g>
</svg>
