<?xml version="1.0" encoding="UTF-8" standalone="no"?>
<!-- Created with Inkscape (http://www.inkscape.org/) -->

<svg
   width="136.21236mm"
   height="94.854919mm"
   viewBox="0 0 136.21236 94.854919"
   version="1.1"
   id="svg5"
   inkscape:export-filename="spring.svg"
   inkscape:export-xdpi="96"
   inkscape:export-ydpi="96"
   sodipodi:docname="/var/folders/7p/1cx9lth12db453fkz1gy3c_c0000gn/T/ink_ext_XXXXXX.svgQ55NV1"
   xmlns:inkscape="http://www.inkscape.org/namespaces/inkscape"
   xmlns:sodipodi="http://sodipodi.sourceforge.net/DTD/sodipodi-0.dtd"
   xmlns="http://www.w3.org/2000/svg"
   xmlns:svg="http://www.w3.org/2000/svg"
   xmlns:ns1="http://www.iki.fi/pav/software/textext/">
  <sodipodi:namedview
     id="namedview7"
     pagecolor="#ffffff"
     bordercolor="#999999"
     borderopacity="1"
     inkscape:showpageshadow="0"
     inkscape:pageopacity="0"
     inkscape:pagecheckerboard="0"
     inkscape:deskcolor="#d1d1d1"
     inkscape:document-units="mm"
     showgrid="false"
     inkscape:zoom="0.914906"
     inkscape:cx="101.10328"
     inkscape:cy="238.27584"
     inkscape:window-width="1986"
     inkscape:window-height="1216"
     inkscape:window-x="402"
     inkscape:window-y="131"
     inkscape:window-maximized="0"
     inkscape:current-layer="layer1" />
  <defs
     id="defs2">
    <marker
       style="overflow:visible"
       id="Arrow2"
       refX="0"
       refY="0"
       orient="auto-start-reverse"
       inkscape:stockid="Arrow2"
       markerWidth="7.6999998"
       markerHeight="5.5999999"
       viewBox="0 0 7.7 5.6"
       inkscape:isstock="true"
       inkscape:collect="always"
       preserveAspectRatio="xMidYMid">
      <path
         transform="scale(0.7)"
         d="M -2,-4 9,0 -2,4 c 2,-2.33 2,-5.66 0,-8 z"
         style="fill:context-stroke;fill-rule:evenodd;stroke:none"
         id="arrow2L" />
    </marker>
  </defs>
  <g
     inkscape:label="Layer 1"
     inkscape:groupmode="layer"
     id="layer1"
     transform="translate(-18.506773,-86.503319)">
    <rect
       style="fill:#fbfbfb;fill-opacity:1;stroke:none;stroke-width:0.791518;stroke-linecap:round;stroke-dasharray:none;stroke-dashoffset:0;stroke-opacity:1"
       id="rect7862"
       width="136.21236"
       height="94.854919"
       x="18.506773"
       y="86.503319" />
    <path
       style="fill:none;stroke:#000000;stroke-width:0.494787;stroke-linecap:round;stroke-dasharray:none;stroke-dashoffset:0;stroke-opacity:1"
       d="M 24.870496,92.823744 V 137.65531 H 148.3554"
       id="path236" />
    <rect
       style="fill:#eb7e00;fill-opacity:0.358362;stroke:#ff9300;stroke-width:0.659;stroke-linecap:round;stroke-dasharray:none;stroke-dashoffset:0;stroke-opacity:1"
       id="rect898"
       width="39.619278"
       height="29.49757"
       x="91.962997"
       y="108.15774" />
    <path
       style="fill:none;fill-opacity:0.358362;stroke:#030303;stroke-width:0.659;stroke-linecap:round;stroke-dasharray:none;stroke-dashoffset:0;stroke-opacity:1"
       d="m 24.623102,122.90652 h 18.466479 l 2.601335,-4.50564 1.932163,7.21093 4.013046,-6.9508 1.928619,7.1977 3.955275,-6.85074 0.962411,3.59176 h 33.480565"
       id="path5170" />
    <text
       xml:space="preserve"
       style="font-size:19.7556px;font-family:'Courier New';-inkscape-font-specification:'Courier New';fill:#000000;fill-opacity:1;stroke:#030303;stroke-width:0.659;stroke-linecap:round;stroke-dasharray:none;stroke-dashoffset:0;stroke-opacity:1"
       x="103.50492"
       y="126.87114"
       id="text5604"><tspan
         sodipodi:role="line"
         id="tspan5602"
         style="font-style:normal;font-variant:normal;font-weight:normal;font-stretch:normal;font-family:Avenir;-inkscape-font-specification:Avenir;fill:#000000;fill-opacity:1;stroke:none;stroke-width:0.659"
         x="103.50492"
         y="126.87114">m</tspan></text>
    <text
       xml:space="preserve"
       style="font-style:normal;font-variant:normal;font-weight:normal;font-stretch:normal;font-size:6.35px;font-family:Avenir;-inkscape-font-specification:Avenir;fill:#000000;fill-opacity:1;stroke:none;stroke-width:0.659;stroke-linecap:round;stroke-dasharray:none;stroke-dashoffset:0;stroke-opacity:1"
       x="95.897659"
       y="152.40408"
       id="text5976"><tspan
         sodipodi:role="line"
         id="tspan5974"
         style="font-size:6.35px;stroke-width:0.659"
         x="95.897659"
         y="152.40408">equilibrium</tspan></text>
    <path
       style="fill:#000000;fill-opacity:1;stroke:#030303;stroke-width:1.159;stroke-linecap:round;stroke-dasharray:none;stroke-dashoffset:0;stroke-opacity:1"
       d="m 111.33885,141.70399 v -8.67575"
       id="path5980" />
    <path
       style="fill:#000000;fill-opacity:1;stroke:#030303;stroke-width:1.159;stroke-linecap:round;stroke-dasharray:none;stroke-dashoffset:0;stroke-opacity:1"
       d="m 111.91723,157.89873 v 9.54333"
       id="path5982" />
    <path
       style="fill:#000000;fill-opacity:1;stroke:#030303;stroke-width:1.159;stroke-linecap:round;stroke-dasharray:none;stroke-dashoffset:0;stroke-opacity:1;marker-end:url(#Arrow2)"
       d="M 111.91723,162.67039 H 141.4148"
       id="path5984" />
    <text
       xml:space="preserve"
       style="font-style:normal;font-variant:normal;font-weight:normal;font-stretch:normal;font-size:6.35px;font-family:Avenir;-inkscape-font-specification:Avenir;fill:#000000;fill-opacity:1;stroke:none;stroke-width:0.659;stroke-linecap:round;stroke-dasharray:none;stroke-dashoffset:0;stroke-opacity:1"
       x="105.81318"
       y="175.90851"
       id="text5976-1"><tspan
         sodipodi:role="line"
         id="tspan5974-7"
         style="font-size:6.35px;stroke-width:0.659"
         x="105.81318"
         y="175.90851">displacement </tspan></text>
    <g
       transform="matrix(0.88195,0,0,0.88195,146.532,172.431)"
       ns1:version="1.8.2"
       ns1:texconverter="pdflatex"
       ns1:pdfconverter="inkscape"
       ns1:text="$x$"
       ns1:preamble="/Users/alexis/Library/Application Support/org.inkscape.Inkscape/config/inkscape/extensions/textext/default_packages.tex"
       ns1:scale="2.5"
       ns1:alignment="middle center"
       ns1:stroke-to-path="0"
       ns1:jacobian_sqrt="0.88195"
       id="g8284">
      <defs
         id="id-41ae8f62-a25c-4e5e-9861-48f2ec103e6c" />
      <g
         fill="#000000"
         fill-opacity="1"
         id="id-14885709-f3c7-481d-897d-f8ca4394abbd"
         transform="translate(-149.009,-130.359)">
        <g
           transform="translate(148.712,134.765)"
           id="g8584">
          <path
             d="M 3.328125,-3.015625 C 3.390625,-3.265625 3.625,-4.1875 4.3125,-4.1875 c 0.046875,0 0.296875,0 0.5,0.125 C 4.53125,-4 4.34375,-3.765625 4.34375,-3.515625 c 0,0.15625 0.109375,0.34375 0.375,0.34375 0.21875,0 0.53125,-0.171875 0.53125,-0.578125 0,-0.515625 -0.578125,-0.65625 -0.921875,-0.65625 -0.578125,0 -0.921875,0.53125 -1.046875,0.75 -0.25,-0.65625 -0.78125,-0.75 -1.078125,-0.75 -1.03125,0 -1.609375,1.28125 -1.609375,1.53125 0,0.109375 0.109375,0.109375 0.125,0.109375 0.078125,0 0.109375,-0.03125 0.125,-0.109375 0.34375,-1.0625 1,-1.3125 1.34375,-1.3125 0.1875,0 0.53125,0.09375 0.53125,0.671875 0,0.3125 -0.171875,0.96875 -0.53125,2.375 -0.15625,0.609375 -0.515625,1.03125 -0.953125,1.03125 -0.0625,0 -0.28125,0 -0.5,-0.125 0.25,-0.0625 0.46875,-0.265625 0.46875,-0.546875 0,-0.265625 -0.21875,-0.34375 -0.359375,-0.34375 -0.3125,0 -0.546875,0.25 -0.546875,0.578125 0,0.453125 0.484375,0.65625 0.921875,0.65625 0.671875,0 1.03125,-0.703125 1.046875,-0.75 0.125,0.359375 0.484375,0.75 1.078125,0.75 1.03125,0 1.59375,-1.28125 1.59375,-1.53125 0,-0.109375 -0.078125,-0.109375 -0.109375,-0.109375 -0.09375,0 -0.109375,0.046875 -0.140625,0.109375 -0.328125,1.078125 -1,1.3125 -1.3125,1.3125 -0.390625,0 -0.546875,-0.3125 -0.546875,-0.65625 0,-0.21875 0.046875,-0.4375 0.15625,-0.875 z m 0,0"
             id="id-2b1ce101-f9ca-4333-834b-6d7c0dc21fac" />
        </g>
      </g>
    </g>
  </g>
</svg>
