<svg xmlns:inkscape="http://www.inkscape.org/namespaces/inkscape" xmlns:sodipodi="http://sodipodi.sourceforge.net/DTD/sodipodi-0.dtd" xmlns="http://www.w3.org/2000/svg" xmlns:svg="http://www.w3.org/2000/svg" xmlns:ns4="http://www.iki.fi/pav/software/textext/" width="136.21236mm" height="94.854919mm" viewBox="0 0 136.21236 94.854919" version="1.1" id="svg5" inkscape:export-filename="spring.svg" inkscape:export-xdpi="96" inkscape:export-ydpi="96" sodipodi:docname="spring.svg" inkscape:version="1.2.2 (b0a84865, 2022-12-01)">
  <sodipodi:namedview id="namedview7" pagecolor="#ffffff" bordercolor="#999999" borderopacity="1" inkscape:showpageshadow="0" inkscape:pageopacity="0" inkscape:pagecheckerboard="0" inkscape:deskcolor="#d1d1d1" inkscape:document-units="mm" showgrid="false" inkscape:zoom="0.914906" inkscape:cx="37.708792" inkscape:cy="239.36885" inkscape:window-width="1986" inkscape:window-height="1216" inkscape:window-x="219" inkscape:window-y="143" inkscape:window-maximized="0" inkscape:current-layer="layer1"/>
  <defs id="defs2">
    <marker style="overflow:visible" id="Arrow2" refX="0" refY="0" orient="auto-start-reverse" inkscape:stockid="Arrow2" markerWidth="7.6999998" markerHeight="5.5999999" viewBox="0 0 7.7 5.6" inkscape:isstock="true" inkscape:collect="always" preserveAspectRatio="xMidYMid">
      <path transform="scale(0.7)" d="M -2,-4 9,0 -2,4 c 2,-2.33 2,-5.66 0,-8 z" style="fill:context-stroke;fill-rule:evenodd;stroke:none" id="arrow2L"/>
    </marker>
  </defs>
  <g inkscape:label="Layer 1" inkscape:groupmode="layer" id="layer1" transform="translate(-18.506773,-86.503319)" color="rgb(209, 209, 209)">
    <path style="fill:none" stroke="currentColor" d="M 24.870496,92.823744 V 137.65531 H 148.3554" id="path236"/>
    <rect style="fill:#eb7e00;fill-opacity:0.358362;stroke:#ff9300;stroke-width:0.659;stroke-linecap:round;stroke-dasharray:none;stroke-dashoffset:0;stroke-opacity:1" id="rect898" width="39.619278" height="29.49757" x="91.962997" y="108.15774"/>
    <path style="fill:none;fill-opacity:0.358362;stroke:currentColor;stroke-width:1.059;stroke-linecap:round;stroke-dasharray:none;stroke-dashoffset:0;stroke-opacity:1" d="m 24.623102,122.90652 h 18.466479 l 2.601335,-4.50564 1.932163,7.21093 4.013046,-6.9508 1.928619,7.1977 3.955275,-6.85074 0.962411,3.59176 h 33.480565" id="path5170"/>
    <text xml:space="preserve" style="font-size:19.7556px;font-family:'Courier New';-inkscape-font-specification:'Courier New';fill:currentColor;fill-opacity:1;stroke:currentColor;stroke-width:0.659;stroke-linecap:round;stroke-dasharray:none;stroke-dashoffset:0;stroke-opacity:1" x="103.50492" y="126.87114" id="text5604"><tspan sodipodi:role="line" id="tspan5602" style="font-style:normal;font-variant:normal;font-weight:normal;font-stretch:normal;font-family:Avenir;-inkscape-font-specification:Avenir;fill:currentColor;fill-opacity:1;stroke:none;stroke-width:0.659" x="103.50492" y="126.87114">m</tspan></text>
    <text xml:space="preserve" style="font-style:normal;font-variant:normal;font-weight:800;font-stretch:normal;font-size:6.35px;font-family:Avenir;-inkscape-font-specification:'Avenir Ultra-Bold';fill:currentColor;fill-opacity:1;stroke:none;stroke-width:0.559;stroke-linecap:round;stroke-dasharray:none;stroke-dashoffset:0;stroke-opacity:1" x="95.897659" y="152.40408" id="text5976"><tspan sodipodi:role="line" style="font-style:normal;font-variant:normal;font-weight:800;font-stretch:normal;font-size:6.35px;font-family:Avenir;-inkscape-font-specification:'Avenir Ultra-Bold';stroke-width:0.559;stroke-dasharray:none" x="95.897659" y="152.40408" id="tspan106189">equilibrium</tspan></text>
    <path style="fill:currentColor;fill-opacity:1;stroke:currentColor;stroke-width:1.159;stroke-linecap:round;stroke-dasharray:none;stroke-dashoffset:0;stroke-opacity:1" d="m 111.33885,141.70399 v -8.67575" id="path5980"/>
    <path style="fill:currentColor;fill-opacity:1;stroke:currentColor;stroke-width:1.159;stroke-linecap:round;stroke-dasharray:none;stroke-dashoffset:0;stroke-opacity:1" d="m 111.91723,157.89873 v 9.54333" id="path5982"/>
    <path style="fill:currentColor;fill-opacity:1;stroke:currentColor;stroke-width:1.159;stroke-linecap:round;stroke-dasharray:none;stroke-dashoffset:0;stroke-opacity:1;marker-end:url(#Arrow2)" d="M 111.91723,162.67039 H 141.4148" id="path5984"/>
    <text xml:space="preserve" style="font-style:normal;font-variant:normal;font-weight:800;font-stretch:normal;font-size:6.35px;font-family:Avenir;-inkscape-font-specification:'Avenir Ultra-Bold';fill:currentColor;fill-opacity:1;stroke:none;stroke-width:0.659;stroke-linecap:round;stroke-dasharray:none;stroke-dashoffset:0;stroke-opacity:1" x="105.81318" y="175.90851" id="text5976-1"><tspan sodipodi:role="line" id="tspan5974-7" style="font-size:6.35px;stroke-width:0.659;-inkscape-font-specification:'Avenir Ultra-Bold';font-family:Avenir;font-weight:800;font-style:normal;font-stretch:normal;font-variant:normal" x="105.81318" y="175.90851">displacement </tspan></text>
    <g transform="matrix(0.88195,0,0,0.88195,147.816,171.87383)" ns4:version="1.8.2" ns4:texconverter="pdflatex" ns4:pdfconverter="inkscape" ns4:text="$\\boldsymbol{x}$" ns4:preamble="/Users/alexis/Library/Application Support/org.inkscape.Inkscape/config/inkscape/extensions/textext/default_packages.tex" ns4:scale="2.5" ns4:alignment="middle center" ns4:stroke-to-path="0" ns4:jacobian_sqrt="0.88195" style="stroke-width:0" id="g8284" color="rgb(209, 209, 209)">
      <defs id="id-d97bff35-5be9-43f6-9497-d70f8562cd19" style="stroke-width:0">
        <g id="id-3c13ae27-79de-4243-a49d-976be9dea364" style="stroke-width:0" color="rgb(209, 209, 209)">
          <g id="id-69dc8c32-d607-4642-92e2-38b4d13af77c" style="stroke-width:0" color="rgb(209, 209, 209)"/>
          <g id="id-792c8b15-33c3-4ae3-bacc-012d88e55d41" style="stroke-width:0" color="rgb(209, 209, 209)">
            <path d="m 5.34375,-4 c -0.359375,0.109375 -0.53125,0.4375 -0.53125,0.6875 0,0.21875 0.15625,0.46875 0.484375,0.46875 0.359375,0 0.71875,-0.296875 0.71875,-0.78125 C 6.015625,-4.15625 5.5,-4.5 4.890625,-4.5 4.3125,-4.5 3.953125,-4.078125 3.8125,-3.890625 3.5625,-4.3125 3.015625,-4.5 2.4375,-4.5 c -1.25,0 -1.921875,1.21875 -1.921875,1.546875 0,0.140625 0.140625,0.140625 0.234375,0.140625 0.125,0 0.1875,0 0.234375,-0.125 0.28125,-0.90625 1,-1.203125 1.40625,-1.203125 0.375,0 0.5625,0.171875 0.5625,0.484375 0,0.203125 -0.140625,0.75 -0.234375,1.109375 L 2.375,-1.1875 c -0.140625,0.609375 -0.5,0.90625 -0.84375,0.90625 -0.046875,0 -0.28125,0 -0.46875,-0.140625 0.359375,-0.109375 0.53125,-0.453125 0.53125,-0.6875 0,-0.21875 -0.171875,-0.46875 -0.5,-0.46875 -0.34375,0 -0.71875,0.296875 -0.71875,0.78125 0,0.53125 0.53125,0.875 1.140625,0.875 0.5625,0 0.9375,-0.421875 1.0625,-0.609375 0.25,0.421875 0.8125,0.609375 1.375,0.609375 1.265625,0 1.9375,-1.21875 1.9375,-1.546875 0,-0.140625 -0.15625,-0.140625 -0.234375,-0.140625 -0.125,0 -0.1875,0 -0.234375,0.125 -0.28125,0.90625 -1,1.203125 -1.421875,1.203125 -0.375,0 -0.546875,-0.171875 -0.546875,-0.5 0,-0.203125 0.125,-0.734375 0.21875,-1.109375 0.0625,-0.25 0.296875,-1.1875 0.34375,-1.34375 0.15625,-0.609375 0.5,-0.90625 0.84375,-0.90625 0.0625,0 0.28125,0 0.484375,0.140625 z m 0,0" id="id-9c193a4d-4e09-465e-ba2e-ed7759fdd466" style="stroke-width:0"/>
          </g>
        </g>
      </defs>
      <g fill="currentColor" fill-opacity="1" id="id-3ea4ae48-1fb0-4849-a48c-17c355110769" transform="translate(-149.087,-130.265)" style="stroke-width:0" color="rgb(209, 209, 209)">
        <g transform="translate(148.712,134.765)" style="stroke-width:0" id="g106452" color="rgb(209, 209, 209)">
          <path d="m 5.34375,-4 c -0.359375,0.109375 -0.53125,0.4375 -0.53125,0.6875 0,0.21875 0.15625,0.46875 0.484375,0.46875 0.359375,0 0.71875,-0.296875 0.71875,-0.78125 C 6.015625,-4.15625 5.5,-4.5 4.890625,-4.5 4.3125,-4.5 3.953125,-4.078125 3.8125,-3.890625 3.5625,-4.3125 3.015625,-4.5 2.4375,-4.5 c -1.25,0 -1.921875,1.21875 -1.921875,1.546875 0,0.140625 0.140625,0.140625 0.234375,0.140625 0.125,0 0.1875,0 0.234375,-0.125 0.28125,-0.90625 1,-1.203125 1.40625,-1.203125 0.375,0 0.5625,0.171875 0.5625,0.484375 0,0.203125 -0.140625,0.75 -0.234375,1.109375 L 2.375,-1.1875 c -0.140625,0.609375 -0.5,0.90625 -0.84375,0.90625 -0.046875,0 -0.28125,0 -0.46875,-0.140625 0.359375,-0.109375 0.53125,-0.453125 0.53125,-0.6875 0,-0.21875 -0.171875,-0.46875 -0.5,-0.46875 -0.34375,0 -0.71875,0.296875 -0.71875,0.78125 0,0.53125 0.53125,0.875 1.140625,0.875 0.5625,0 0.9375,-0.421875 1.0625,-0.609375 0.25,0.421875 0.8125,0.609375 1.375,0.609375 1.265625,0 1.9375,-1.21875 1.9375,-1.546875 0,-0.140625 -0.15625,-0.140625 -0.234375,-0.140625 -0.125,0 -0.1875,0 -0.234375,0.125 -0.28125,0.90625 -1,1.203125 -1.421875,1.203125 -0.375,0 -0.546875,-0.171875 -0.546875,-0.5 0,-0.203125 0.125,-0.734375 0.21875,-1.109375 0.0625,-0.25 0.296875,-1.1875 0.34375,-1.34375 0.15625,-0.609375 0.5,-0.90625 0.84375,-0.90625 0.0625,0 0.28125,0 0.484375,0.140625 z m 0,0" id="id-52dcb9da-f242-4e59-a377-6be92c277165" style="stroke-width:0"/>
        </g>
      </g>
    </g>
  </g>
</svg>