<?xml version="1.0" encoding="UTF-8" standalone="no"?>
<!-- Created with Inkscape (http://www.inkscape.org/) -->

<svg
   width="58.323303mm"
   height="48.110828mm"
   viewBox="0 0 58.323303 48.110828"
   version="1.1"
   id="svg74332"
   inkscape:version="1.2.2 (b0a84865, 2022-12-01)"
   sodipodi:docname="figure4.svg"
   xmlns:inkscape="http://www.inkscape.org/namespaces/inkscape"
   xmlns:sodipodi="http://sodipodi.sourceforge.net/DTD/sodipodi-0.dtd"
   xmlns="http://www.w3.org/2000/svg"
   xmlns:svg="http://www.w3.org/2000/svg">
  <sodipodi:namedview
     id="namedview74334"
     pagecolor="#ffffff"
     bordercolor="#999999"
     borderopacity="1"
     inkscape:showpageshadow="0"
     inkscape:pageopacity="0"
     inkscape:pagecheckerboard="0"
     inkscape:deskcolor="#d1d1d1"
     inkscape:document-units="mm"
     showgrid="false"
     inkscape:zoom="0.914906"
     inkscape:cx="-45.906355"
     inkscape:cy="305.49586"
     inkscape:window-width="1390"
     inkscape:window-height="1205"
     inkscape:window-x="0"
     inkscape:window-y="25"
     inkscape:window-maximized="0"
     inkscape:current-layer="layer1" />
  <defs
     id="defs74329">
    <clipPath
       id="clip_4">
      <path
         transform="matrix(0.42,0,0,-0.42,223.338,340.462)"
         d="M 0,0 H 393.6331 V 324.7075 H 0 Z"
         id="path68000" />
    </clipPath>
    <clipPath
       id="clip_5">
      <path
         transform="matrix(0.42,0,0,-0.42,223.338,340.462)"
         d="M 57.778127,43.91875 H 341.3378 V 317.5075 H 57.778127 Z"
         id="path68003" />
    </clipPath>
    <clipPath
       id="clip_7">
      <path
         transform="matrix(0.42,0,0,-0.42,223.338,340.462)"
         d="M 57.778127,43.91875 H 341.3378 V 317.5075 H 57.778127 Z"
         id="path68009" />
    </clipPath>
    <clipPath
       id="clip_8">
      <path
         transform="matrix(0.42,0,0,-0.42,223.338,340.462)"
         d="M 57.778127,43.91875 H 341.3378 V 317.5075 H 57.778127 Z"
         id="path68018" />
    </clipPath>
    <clipPath
       id="clip_9">
      <path
         transform="matrix(0.42,0,0,-0.42,223.338,340.462)"
         d="M 57.778127,43.91875 H 341.3378 V 317.5075 H 57.778127 Z"
         id="path68027" />
    </clipPath>
    <clipPath
       id="clip_10">
      <path
         transform="matrix(0.42,0,0,-0.42,223.338,340.462)"
         d="M 57.778127,43.91875 H 341.3378 V 317.5075 H 57.778127 Z"
         id="path68049" />
    </clipPath>
    <clipPath
       id="clip_11">
      <path
         transform="matrix(0.42,0,0,-0.42,223.338,340.462)"
         d="M 57.778127,43.91875 H 341.3378 V 317.5075 H 57.778127 Z"
         id="path68058" />
    </clipPath>
    <clipPath
       id="clip_12">
      <path
         transform="matrix(0.42,0,0,-0.42,223.338,340.462)"
         d="M 57.778127,43.91875 H 341.3378 V 317.5075 H 57.778127 Z"
         id="path68061" />
    </clipPath>
    <clipPath
       id="clip_13">
      <path
         transform="matrix(0.42,0,0,-0.42,223.338,340.462)"
         d="M 57.778127,43.91875 H 341.3378 V 317.5075 H 57.778127 Z"
         id="path68064" />
    </clipPath>
    <clipPath
       id="clip_14">
      <path
         transform="matrix(0.42,0,0,-0.42,223.338,340.462)"
         d="M 57.778127,43.91875 H 341.3378 V 317.5075 H 57.778127 Z"
         id="path68067" />
    </clipPath>
    <clipPath
       id="clip_15">
      <path
         transform="matrix(0.42,0,0,-0.42,223.338,340.462)"
         d="M 57.778127,43.91875 H 341.3378 V 317.5075 H 57.778127 Z"
         id="path68070" />
    </clipPath>
    <clipPath
       id="clip_16">
      <path
         transform="matrix(0.42,0,0,-0.42,223.338,340.462)"
         d="M 57.778127,43.91875 H 341.3378 V 317.5075 H 57.778127 Z"
         id="path68085" />
    </clipPath>
    <clipPath
       id="clip_17">
      <path
         transform="matrix(0.42,0,0,-0.42,262.4917,275.05494)"
         d="m -2.5,-2.5 h 5 v 5 h -5 z"
         id="path68088" />
    </clipPath>
    <clipPath
       id="clip_18">
      <path
         transform="matrix(0.42,0,0,-0.42,262.4917,294.1391)"
         d="m -2.5,-2.5 h 5 v 5 h -5 z"
         id="path68091" />
    </clipPath>
    <clipPath
       id="clip_19">
      <path
         transform="matrix(0.42,0,0,-0.42,260.37214,260.03269)"
         d="m -2.5,-2.5 h 5 v 5 h -5 z"
         id="path68094" />
    </clipPath>
    <clipPath
       id="clip_20">
      <path
         transform="matrix(0.42,0,0,-0.42,262.4917,305.22489)"
         d="m -2.5,-2.5 h 5 v 5 h -5 z"
         id="path68097" />
    </clipPath>
    <clipPath
       id="clip_21">
      <path
         transform="matrix(0.42,0,0,-0.42,262.4917,311.45765)"
         d="m -2.5,-2.5 h 5 v 5 h -5 z"
         id="path68100" />
    </clipPath>
    <clipPath
       id="clip_22">
      <path
         transform="matrix(0.42,0,0,-0.42,262.4917,316.7931)"
         d="m -2.5,-2.5 h 5 v 5 h -5 z"
         id="path68103" />
    </clipPath>
    <clipPath
       id="clip_23">
      <path
         transform="matrix(0.42,0,0,-0.42,262.4917,260.61158)"
         d="m -2.5,-2.5 h 5 v 5 h -5 z"
         id="path68106" />
    </clipPath>
    <clipPath
       id="clip_24">
      <path
         transform="matrix(0.42,0,0,-0.42,262.4917,277.21614)"
         d="m -2.5,-2.5 h 5 v 5 h -5 z"
         id="path68109" />
    </clipPath>
    <clipPath
       id="clip_25">
      <path
         transform="matrix(0.42,0,0,-0.42,262.4917,285.22416)"
         d="m -2.5,-2.5 h 5 v 5 h -5 z"
         id="path68112" />
    </clipPath>
    <clipPath
       id="clip_26">
      <path
         transform="matrix(0.42,0,0,-0.42,262.4917,263.8051)"
         d="m -2.5,-2.5 h 5 v 5 h -5 z"
         id="path68115" />
    </clipPath>
    <clipPath
       id="clip_27">
      <path
         transform="matrix(0.42,0,0,-0.42,262.4917,218.17874)"
         d="m -2.5,-2.5 h 5 v 5 h -5 z"
         id="path68118" />
    </clipPath>
    <clipPath
       id="clip_28">
      <path
         transform="matrix(0.42,0,0,-0.42,262.4917,239.24079)"
         d="m -2.5,-2.5 h 5 v 5 h -5 z"
         id="path68121" />
    </clipPath>
    <clipPath
       id="clip_29">
      <path
         transform="matrix(0.42,0,0,-0.42,262.4917,233.92462)"
         d="m -2.5,-2.5 h 5 v 5 h -5 z"
         id="path68124" />
    </clipPath>
    <clipPath
       id="clip_30">
      <path
         transform="matrix(0.42,0,0,-0.42,261.10218,273.42439)"
         d="m -2.5,-2.5 h 5 v 5 h -5 z"
         id="path68127" />
    </clipPath>
    <clipPath
       id="clip_31">
      <path
         transform="matrix(0.42,0,0,-0.42,260.45756,238.43033)"
         d="m -2.5,-2.5 h 5 v 5 h -5 z"
         id="path68130" />
    </clipPath>
    <clipPath
       id="clip_32">
      <path
         transform="matrix(0.42,0,0,-0.42,262.49174,251.33963)"
         d="m -2.5,-2.5 h 5 v 5 h -5 z"
         id="path68133" />
    </clipPath>
    <clipPath
       id="clip_33">
      <path
         transform="matrix(0.42,0,0,-0.42,223.338,340.462)"
         d="M 57.778127,43.91875 H 341.3378 V 317.5075 H 57.778127 Z"
         id="path68136" />
    </clipPath>
    <clipPath
       id="clip_34">
      <path
         transform="matrix(0.42,0,0,-0.42,292.26545,255.97077)"
         d="m -2.5,-2.5 h 5 v 5 h -5 z"
         id="path68139" />
    </clipPath>
    <clipPath
       id="clip_35">
      <path
         transform="matrix(0.42,0,0,-0.42,292.26545,252.42987)"
         d="m -2.5,-2.5 h 5 v 5 h -5 z"
         id="path68142" />
    </clipPath>
    <clipPath
       id="clip_36">
      <path
         transform="matrix(0.42,0,0,-0.42,292.26545,219.34616)"
         d="m -2.5,-2.5 h 5 v 5 h -5 z"
         id="path68145" />
    </clipPath>
    <clipPath
       id="clip_37">
      <path
         transform="matrix(0.42,0,0,-0.42,292.26545,304.44337)"
         d="m -2.5,-2.5 h 5 v 5 h -5 z"
         id="path68148" />
    </clipPath>
    <clipPath
       id="clip_38">
      <path
         transform="matrix(0.42,0,0,-0.42,292.26545,291.73667)"
         d="m -2.5,-2.5 h 5 v 5 h -5 z"
         id="path68151" />
    </clipPath>
    <clipPath
       id="clip_39">
      <path
         transform="matrix(0.42,0,0,-0.42,292.26545,273.2121)"
         d="m -2.5,-2.5 h 5 v 5 h -5 z"
         id="path68154" />
    </clipPath>
    <clipPath
       id="clip_40">
      <path
         transform="matrix(0.42,0,0,-0.42,292.26545,278.316)"
         d="m -2.5,-2.5 h 5 v 5 h -5 z"
         id="path68157" />
    </clipPath>
    <clipPath
       id="clip_41">
      <path
         transform="matrix(0.42,0,0,-0.42,291.86296,276.25129)"
         d="m -2.5,-2.5 h 5 v 5 h -5 z"
         id="path68160" />
    </clipPath>
    <clipPath
       id="clip_42">
      <path
         transform="matrix(0.42,0,0,-0.42,292.26545,232.51595)"
         d="m -2.5,-2.5 h 5 v 5 h -5 z"
         id="path68163" />
    </clipPath>
    <clipPath
       id="clip_43">
      <path
         transform="matrix(0.42,0,0,-0.42,292.26545,212.3319)"
         d="m -2.5,-2.5 h 5 v 5 h -5 z"
         id="path68166" />
    </clipPath>
    <clipPath
       id="clip_44">
      <path
         transform="matrix(0.42,0,0,-0.42,292.26545,225.59818)"
         d="m -2.5,-2.5 h 5 v 5 h -5 z"
         id="path68169" />
    </clipPath>
    <clipPath
       id="clip_45">
      <path
         transform="matrix(0.42,0,0,-0.42,292.26545,314.74763)"
         d="m -2.5,-2.5 h 5 v 5 h -5 z"
         id="path68172" />
    </clipPath>
    <clipPath
       id="clip_46">
      <path
         transform="matrix(0.42,0,0,-0.42,294.04829,275.97148)"
         d="m -2.5,-2.5 h 5 v 5 h -5 z"
         id="path68175" />
    </clipPath>
    <clipPath
       id="clip_47">
      <path
         transform="matrix(0.42,0,0,-0.42,292.26545,289.37284)"
         d="m -2.5,-2.5 h 5 v 5 h -5 z"
         id="path68178" />
    </clipPath>
    <clipPath
       id="clip_48">
      <path
         transform="matrix(0.42,0,0,-0.42,292.26545,258.21876)"
         d="m -2.5,-2.5 h 5 v 5 h -5 z"
         id="path68181" />
    </clipPath>
    <clipPath
       id="clip_49">
      <path
         transform="matrix(0.42,0,0,-0.42,223.338,340.462)"
         d="M 57.778127,43.91875 H 341.3378 V 317.5075 H 57.778127 Z"
         id="path68184" />
    </clipPath>
    <clipPath
       id="clip_50">
      <path
         transform="matrix(0.42,0,0,-0.42,322.0392,279.7343)"
         d="m -2.5,-2.5 h 5 v 5 h -5 z"
         id="path68187" />
    </clipPath>
    <clipPath
       id="clip_51">
      <path
         transform="matrix(0.42,0,0,-0.42,322.0392,275.6531)"
         d="m -2.5,-2.5 h 5 v 5 h -5 z"
         id="path68190" />
    </clipPath>
    <clipPath
       id="clip_52">
      <path
         transform="matrix(0.42,0,0,-0.42,322.0392,299.8894)"
         d="m -2.5,-2.5 h 5 v 5 h -5 z"
         id="path68193" />
    </clipPath>
    <clipPath
       id="clip_53">
      <path
         transform="matrix(0.42,0,0,-0.42,322.0392,311.2743)"
         d="m -2.5,-2.5 h 5 v 5 h -5 z"
         id="path68196" />
    </clipPath>
    <clipPath
       id="clip_54">
      <path
         transform="matrix(0.42,0,0,-0.42,322.0392,271.58155)"
         d="m -2.5,-2.5 h 5 v 5 h -5 z"
         id="path68199" />
    </clipPath>
    <clipPath
       id="clip_55">
      <path
         transform="matrix(0.42,0,0,-0.42,322.0392,263.5832)"
         d="m -2.5,-2.5 h 5 v 5 h -5 z"
         id="path68202" />
    </clipPath>
    <clipPath
       id="clip_56">
      <path
         transform="matrix(0.42,0,0,-0.42,322.0392,229.66974)"
         d="m -2.5,-2.5 h 5 v 5 h -5 z"
         id="path68205" />
    </clipPath>
    <clipPath
       id="clip_57">
      <path
         transform="matrix(0.42,0,0,-0.42,322.0392,215.5737)"
         d="m -2.5,-2.5 h 5 v 5 h -5 z"
         id="path68208" />
    </clipPath>
    <clipPath
       id="clip_58">
      <path
         transform="matrix(0.42,0,0,-0.42,322.0392,296.48359)"
         d="m -2.5,-2.5 h 5 v 5 h -5 z"
         id="path68211" />
    </clipPath>
    <clipPath
       id="clip_59">
      <path
         transform="matrix(0.42,0,0,-0.42,322.0392,247.55751)"
         d="m -2.5,-2.5 h 5 v 5 h -5 z"
         id="path68214" />
    </clipPath>
    <clipPath
       id="clip_60">
      <path
         transform="matrix(0.42,0,0,-0.42,322.0392,258.0837)"
         d="m -2.5,-2.5 h 5 v 5 h -5 z"
         id="path68217" />
    </clipPath>
    <clipPath
       id="clip_61">
      <path
         transform="matrix(0.42,0,0,-0.42,322.0392,284.95399)"
         d="m -2.5,-2.5 h 5 v 5 h -5 z"
         id="path68220" />
    </clipPath>
    <clipPath
       id="clip_62">
      <path
         transform="matrix(0.42,0,0,-0.42,320.19297,310.12617)"
         d="m -2.5,-2.5 h 5 v 5 h -5 z"
         id="path68223" />
    </clipPath>
    <clipPath
       id="clip_63">
      <path
         transform="matrix(0.42,0,0,-0.42,322.0392,235.44904)"
         d="m -2.5,-2.5 h 5 v 5 h -5 z"
         id="path68226" />
    </clipPath>
    <clipPath
       id="clip_64">
      <path
         transform="matrix(0.42,0,0,-0.42,322.0392,218.90236)"
         d="m -2.5,-2.5 h 5 v 5 h -5 z"
         id="path68229" />
    </clipPath>
    <clipPath
       id="clip_65">
      <path
         transform="matrix(0.42,0,0,-0.42,223.338,340.462)"
         d="M 57.778127,43.91875 H 341.3378 V 317.5075 H 57.778127 Z"
         id="path68232" />
    </clipPath>
    <clipPath
       id="clip_66">
      <path
         transform="matrix(0.42,0,0,-0.42,351.813,233.09487)"
         d="m -2.5,-2.5 h 5 v 5 h -5 z"
         id="path68235" />
    </clipPath>
    <clipPath
       id="clip_67">
      <path
         transform="matrix(0.42,0,0,-0.42,351.813,302.62953)"
         d="m -2.5,-2.5 h 5 v 5 h -5 z"
         id="path68238" />
    </clipPath>
    <clipPath
       id="clip_68">
      <path
         transform="matrix(0.42,0,0,-0.42,351.813,271.51405)"
         d="m -2.5,-2.5 h 5 v 5 h -5 z"
         id="path68241" />
    </clipPath>
    <clipPath
       id="clip_69">
      <path
         transform="matrix(0.42,0,0,-0.42,349.8291,249.3907)"
         d="m -2.5,-2.5 h 5 v 5 h -5 z"
         id="path68244" />
    </clipPath>
    <clipPath
       id="clip_70">
      <path
         transform="matrix(0.42,0,0,-0.42,351.813,283.96989)"
         d="m -2.5,-2.5 h 5 v 5 h -5 z"
         id="path68247" />
    </clipPath>
    <clipPath
       id="clip_71">
      <path
         transform="matrix(0.42,0,0,-0.42,349.6108,283.86375)"
         d="m -2.5,-2.5 h 5 v 5 h -5 z"
         id="path68250" />
    </clipPath>
    <clipPath
       id="clip_72">
      <path
         transform="matrix(0.42,0,0,-0.42,351.813,296.92744)"
         d="m -2.5,-2.5 h 5 v 5 h -5 z"
         id="path68253" />
    </clipPath>
    <clipPath
       id="clip_73">
      <path
         transform="matrix(0.42,0,0,-0.42,351.813,218.38137)"
         d="m -2.5,-2.5 h 5 v 5 h -5 z"
         id="path68256" />
    </clipPath>
    <clipPath
       id="clip_74">
      <path
         transform="matrix(0.42,0,0,-0.42,351.813,308.5921)"
         d="m -2.5,-2.5 h 5 v 5 h -5 z"
         id="path68259" />
    </clipPath>
    <clipPath
       id="clip_75">
      <path
         transform="matrix(0.42,0,0,-0.42,351.813,250.30728)"
         d="m -2.5,-2.5 h 5 v 5 h -5 z"
         id="path68262" />
    </clipPath>
    <clipPath
       id="clip_76">
      <path
         transform="matrix(0.42,0,0,-0.42,351.813,224.02556)"
         d="m -2.5,-2.5 h 5 v 5 h -5 z"
         id="path68265" />
    </clipPath>
    <clipPath
       id="clip_77">
      <path
         transform="matrix(0.42,0,0,-0.42,351.813,278.33534)"
         d="m -2.5,-2.5 h 5 v 5 h -5 z"
         id="path68268" />
    </clipPath>
    <clipPath
       id="clip_78">
      <path
         transform="matrix(0.42,0,0,-0.42,351.813,306.29585)"
         d="m -2.5,-2.5 h 5 v 5 h -5 z"
         id="path68271" />
    </clipPath>
    <clipPath
       id="clip_79">
      <path
         transform="matrix(0.42,0,0,-0.42,351.813,229.37067)"
         d="m -2.5,-2.5 h 5 v 5 h -5 z"
         id="path68274" />
    </clipPath>
    <clipPath
       id="clip_80">
      <path
         transform="matrix(0.42,0,0,-0.42,351.813,261.37379)"
         d="m -2.5,-2.5 h 5 v 5 h -5 z"
         id="path68277" />
    </clipPath>
    <clipPath
       id="clip_81">
      <path
         transform="matrix(0.42,0,0,-0.42,350.2249,295.47056)"
         d="m -2.5,-2.5 h 5 v 5 h -5 z"
         id="path68280" />
    </clipPath>
  </defs>
  <g
     inkscape:label="Layer 1"
     inkscape:groupmode="layer"
     id="layer1"
     transform="translate(-57.885087,-67.618394)">
    <g
       clip-path="url(#clip_4)"
       id="g69795"
       transform="matrix(0.35277777,0,0,0.35277777,-20.903595,-4.3782045)">
      <path
         transform="matrix(0.42,0,0,-0.42,223.338,340.462)"
         d="M 0,0 H 393.6331 V 324.7075 H 0 Z"
         fill="#ffffff"
         id="path69391" />
      <path
         transform="matrix(0.42,0,0,-0.42,223.338,340.462)"
         d="M 57.778127,43.91875 H 341.33778 V 317.5075 H 57.778127 Z"
         fill="#ffffff"
         id="path69393" />
      <g
         clip-path="url(#clip_5)"
         id="g69397">
        <path
           transform="matrix(0.42,0,0,-0.42,223.338,340.462)"
           stroke-width="1"
           stroke-linecap="round"
           stroke-linejoin="round"
           fill="none"
           stroke="#d5d6d5"
           d="M 93.22308,43.91875 V 317.5075"
           id="path69395" />
      </g>
      <g
         id="use69399"
         style="fill:#333333"
         transform="matrix(4.62,0,0,-4.62,261.0217,329.51707)">
        <path
           transform="matrix(0.001,0,0,0.001,0,0)"
           d="m 318,346 c -47,0 -84,-13 -111,-38 -27,-25 -40,-59 -40,-103 0,-44 13,-79 40,-104 27,-25 64,-37 111,-37 46,0 83,12 110,38 27,25 41,59 41,103 0,44 -14,78 -40,103 -27,25 -64,38 -111,38 z m -99,42 c -42,10 -75,30 -99,59 -24,29 -35,64 -35,106 0,58 20,104 62,138 41,34 98,51 171,51 72,0 129,-17 171,-51 41,-34 62,-80 62,-138 0,-42 -12,-77 -36,-106 -24,-29 -56,-49 -98,-59 47,-11 84,-33 111,-65 26,-32 40,-72 40,-118 C 568,134 546,80 503,43 459,5 397,-13 317,-13 237,-13 175,5 132,43 89,80 68,134 68,205 c 0,46 13,86 40,118 26,32 63,54 111,65 z m -36,156 c 0,-38 11,-68 35,-89 24,-21 57,-31 100,-31 42,0 75,10 99,31 24,21 36,51 36,89 0,38 -12,67 -36,88 -24,21 -57,32 -99,32 -43,0 -76,-11 -100,-32 -24,-21 -35,-50 -35,-88 z"
           id="path75591" />
      </g>
      <g
         clip-path="url(#clip_7)"
         id="g69403">
        <path
           transform="matrix(0.42,0,0,-0.42,223.338,340.462)"
           stroke-width="1"
           stroke-linecap="round"
           stroke-linejoin="round"
           fill="none"
           stroke="#d5d6d5"
           d="M 164.11299,43.91875 V 317.5075"
           id="path69401" />
      </g>
      <g
         id="use69405"
         style="fill:#333333"
         transform="matrix(4.62,0,0,-4.62,289.32545,329.51707)">
        <path
           transform="matrix(0.001,0,0,0.001,0,0)"
           d="M 124,83 H 285 V 639 L 110,604 v 90 l 174,35 h 99 V 83 H 544 V 0 H 124 Z"
           id="path75587" />
      </g>
      <g
         id="use69407"
         style="fill:#333333"
         transform="matrix(4.62,0,0,-4.62,292.26377,329.51707)">
        <path
           transform="matrix(0.001,0,0,0.001,0,0)"
           d="m 330,404 c -44,0 -79,-16 -105,-46 -26,-30 -39,-72 -39,-124 0,-53 13,-95 39,-125 26,-30 61,-45 105,-45 44,0 79,15 105,45 26,30 39,72 39,125 0,52 -13,94 -39,124 -26,30 -61,46 -105,46 z m 196,309 v -90 c -25,12 -50,21 -75,27 -26,6 -51,9 -75,9 -66,0 -116,-22 -150,-66 -34,-44 -54,-111 -58,-199 19,28 43,50 72,65 29,15 61,23 96,23 73,0 131,-23 173,-67 42,-44 64,-105 64,-181 C 573,159 550,99 506,54 462,9 403,-13 330,-13 246,-13 181,19 137,83 92,147 70,241 70,364 c 0,115 27,207 82,275 54,68 128,103 220,103 24,0 49,-3 75,-7 25,-5 51,-12 79,-22 z"
           id="path75615" />
      </g>
      <g
         clip-path="url(#clip_8)"
         id="g69411">
        <path
           transform="matrix(0.42,0,0,-0.42,223.338,340.462)"
           stroke-width="1"
           stroke-linecap="round"
           stroke-linejoin="round"
           fill="none"
           stroke="#d5d6d5"
           d="M 235.00292,43.91875 V 317.5075"
           id="path69409" />
      </g>
      <g
         id="use69413"
         style="fill:#333333"
         transform="matrix(4.62,0,0,-4.62,319.0992,329.51707)">
        <path
           transform="matrix(0.001,0,0,0.001,0,0)"
           d="m 406,393 c 47,-10 84,-31 110,-63 26,-32 40,-72 40,-118 C 556,140 531,84 482,45 432,6 362,-13 271,-13 c -31,0 -63,3 -95,9 -32,5 -66,14 -100,26 v 95 c 27,-16 57,-28 90,-36 32,-8 66,-12 102,-12 62,0 109,12 141,36 32,24 49,60 49,107 0,42 -15,76 -45,100 -30,24 -72,37 -126,37 h -85 v 81 h 89 c 48,0 85,9 111,29 26,19 39,47 39,84 0,37 -14,66 -40,86 -27,20 -65,30 -114,30 -27,0 -56,-3 -87,-9 -31,-6 -65,-15 -102,-27 v 88 c 37,10 72,18 105,23 32,5 63,8 93,8 74,0 133,-17 177,-51 44,-34 66,-80 66,-138 0,-40 -12,-74 -35,-102 -23,-28 -56,-48 -98,-58 z"
           id="path75733" />
      </g>
      <g
         id="use69415"
         style="fill:#333333"
         transform="matrix(4.62,0,0,-4.62,322.03755,329.51707)">
        <path
           transform="matrix(0.001,0,0,0.001,0,0)"
           d="M 192,83 H 536 V 0 H 73 v 83 c 37,38 88,90 153,156 64,65 105,107 122,126 32,35 54,65 66,90 12,24 19,49 19,73 0,38 -14,70 -41,94 -27,24 -62,37 -106,37 -31,0 -64,-6 -98,-16 -34,-11 -71,-27 -110,-49 v 100 c 40,16 77,28 111,36 34,8 66,12 95,12 75,0 135,-19 180,-57 45,-38 68,-88 68,-151 0,-30 -6,-59 -17,-85 -11,-27 -31,-59 -61,-95 -8,-10 -34,-37 -78,-82 C 332,227 271,164 192,83 Z"
           id="path75737" />
      </g>
      <g
         clip-path="url(#clip_9)"
         id="g69419">
        <path
           transform="matrix(0.42,0,0,-0.42,223.338,340.462)"
           stroke-width="1"
           stroke-linecap="round"
           stroke-linejoin="round"
           fill="none"
           stroke="#d5d6d5"
           d="M 305.89283,43.91875 V 317.5075"
           id="path69417" />
      </g>
      <g
         id="use69421"
         style="fill:#333333"
         transform="matrix(4.62,0,0,-4.62,348.873,329.51707)">
        <path
           transform="matrix(0.001,0,0,0.001,0,0)"
           d="m 330,404 c -44,0 -79,-16 -105,-46 -26,-30 -39,-72 -39,-124 0,-53 13,-95 39,-125 26,-30 61,-45 105,-45 44,0 79,15 105,45 26,30 39,72 39,125 0,52 -13,94 -39,124 -26,30 -61,46 -105,46 z m 196,309 v -90 c -25,12 -50,21 -75,27 -26,6 -51,9 -75,9 -66,0 -116,-22 -150,-66 -34,-44 -54,-111 -58,-199 19,28 43,50 72,65 29,15 61,23 96,23 73,0 131,-23 173,-67 42,-44 64,-105 64,-181 C 573,159 550,99 506,54 462,9 403,-13 330,-13 246,-13 181,19 137,83 92,147 70,241 70,364 c 0,115 27,207 82,275 54,68 128,103 220,103 24,0 49,-3 75,-7 25,-5 51,-12 79,-22 z"
           id="path75619" />
      </g>
      <g
         id="use69423"
         style="fill:#333333"
         transform="matrix(4.62,0,0,-4.62,351.8113,329.51707)">
        <path
           transform="matrix(0.001,0,0,0.001,0,0)"
           d="M 378,643 129,254 h 249 z m -26,86 H 476 V 254 H 580 V 172 H 476 V 0 H 378 V 172 H 49 v 95 z"
           id="path75689" />
      </g>
      <g
         id="use69425"
         style="fill:#333333"
         transform="matrix(5.46,0,0,-5.46,298.36189,336.3027)">
        <path
           transform="matrix(0.001,0,0,0.001,0,0)"
           d="m 98,729 h 99 V 83 H 552 V 0 H 98 Z"
           id="path75753" />
      </g>
      <g
         id="use69427"
         style="fill:#333333"
         transform="matrix(5.46,0,0,-5.46,301.31123,336.3027)">
        <path
           transform="matrix(0.001,0,0,0.001,0,0)"
           d="m 306,484 c -48,0 -86,-19 -114,-57 -28,-38 -42,-89 -42,-154 0,-66 13,-117 41,-155 28,-38 66,-56 115,-56 48,0 86,18 114,56 28,38 42,89 42,155 0,64 -14,116 -42,154 -28,38 -66,57 -114,57 z m 0,76 c 78,0 139,-26 184,-76 44,-51 67,-121 67,-211 C 557,183 534,113 490,63 445,12 384,-13 306,-13 227,-13 165,12 121,63 77,113 55,183 55,273 c 0,90 22,160 66,211 44,50 106,76 185,76 z"
           id="path75761" />
      </g>
      <g
         id="use69429"
         style="fill:#333333"
         transform="matrix(5.46,0,0,-5.46,304.65275,336.3027)">
        <path
           transform="matrix(0.001,0,0,0.001,0,0)"
           d="m 444,342 c 21,-8 42,-23 62,-46 20,-24 40,-56 60,-97 L 666,0 H 560 l -93,187 c -24,48 -48,81 -70,97 -23,16 -54,24 -93,24 H 197 V 0 H 98 v 729 h 223 c 83,0 145,-18 186,-52 41,-35 62,-88 62,-158 0,-46 -11,-85 -32,-115 -22,-30 -53,-51 -93,-62 z M 197,648 V 389 h 124 c 47,0 83,11 107,33 24,22 37,54 37,97 0,42 -13,74 -37,96 -24,22 -60,33 -107,33 z"
           id="path75745" />
      </g>
      <g
         id="use69431"
         style="fill:#333333"
         transform="matrix(5.46,0,0,-5.46,308.2309,336.3027)">
        <path
           transform="matrix(0.001,0,0,0.001,0,0)"
           d="M 342,632 208,269 h 268 z m -56,97 H 398 L 676,0 H 573 L 507,187 H 178 L 112,0 H 8 Z"
           id="path75721" />
      </g>
      <g
         id="use69433"
         style="fill:#333333"
         transform="matrix(5.46,0,0,-5.46,311.9655,336.3027)" />
      <g
         id="use69435"
         style="fill:#333333"
         transform="matrix(5.46,0,0,-5.46,313.7018,336.3027)">
        <path
           transform="matrix(0.001,0,0,0.001,0,0)"
           d="m 411,463 c -10,6 -21,10 -33,13 -12,2 -25,4 -39,4 -51,0 -90,-17 -117,-50 -28,-33 -41,-80 -41,-142 V 0 H 91 v 547 h 90 v -85 c 18,33 43,58 73,74 30,16 67,24 111,24 6,0 13,-1 21,-1 7,-1 15,-2 25,-4 z"
           id="path75725" />
      </g>
      <g
         clip-path="url(#clip_10)"
         id="g69439">
        <path
           transform="matrix(0.42,0,0,-0.42,223.338,340.462)"
           stroke-width="1"
           stroke-linecap="round"
           stroke-linejoin="round"
           fill="none"
           stroke="#d5d6d5"
           d="M 57.778127,63.567789 H 341.33778"
           id="path69437" />
      </g>
      <g
         id="use69441"
         style="fill:#333333"
         transform="matrix(4.62,0,0,-4.62,233.32482,315.519)">
        <path
           transform="matrix(0.001,0,0,0.001,0,0)"
           d="m 330,404 c -44,0 -79,-16 -105,-46 -26,-30 -39,-72 -39,-124 0,-53 13,-95 39,-125 26,-30 61,-45 105,-45 44,0 79,15 105,45 26,30 39,72 39,125 0,52 -13,94 -39,124 -26,30 -61,46 -105,46 z m 196,309 v -90 c -25,12 -50,21 -75,27 -26,6 -51,9 -75,9 -66,0 -116,-22 -150,-66 -34,-44 -54,-111 -58,-199 19,28 43,50 72,65 29,15 61,23 96,23 73,0 131,-23 173,-67 42,-44 64,-105 64,-181 C 573,159 550,99 506,54 462,9 403,-13 330,-13 246,-13 181,19 137,83 92,147 70,241 70,364 c 0,115 27,207 82,275 54,68 128,103 220,103 24,0 49,-3 75,-7 25,-5 51,-12 79,-22 z"
           id="path75623" />
      </g>
      <g
         id="use69443"
         style="fill:#333333"
         transform="matrix(4.62,0,0,-4.62,236.26314,315.519)">
        <path
           transform="matrix(0.001,0,0,0.001,0,0)"
           d="M 378,643 129,254 h 249 z m -26,86 H 476 V 254 H 580 V 172 H 476 V 0 H 378 V 172 H 49 v 95 z"
           id="path75693" />
      </g>
      <g
         id="use69445"
         style="fill:#333333"
         transform="matrix(4.62,0,0,-4.62,239.20145,315.519)">
        <path
           transform="matrix(0.001,0,0,0.001,0,0)"
           d="M 107,124 H 210 V 0 H 107 Z"
           id="path75657" />
      </g>
      <g
         id="use69447"
         style="fill:#333333"
         transform="matrix(4.62,0,0,-4.62,240.67061,315.519)">
        <path
           transform="matrix(0.001,0,0,0.001,0,0)"
           d="m 318,664 c -51,0 -89,-25 -115,-75 -26,-50 -38,-125 -38,-225 0,-100 12,-175 38,-225 26,-50 64,-75 115,-75 51,0 89,25 115,75 25,50 38,125 38,225 0,100 -13,175 -38,225 -26,50 -64,75 -115,75 z m 0,78 c 81,0 143,-33 187,-97 43,-65 65,-159 65,-281 C 570,241 548,147 505,83 461,19 399,-13 317,-13 235,-13 173,19 130,83 87,147 66,241 66,364 c 0,122 21,216 64,281 43,64 106,97 188,97 z"
           id="path75579" />
      </g>
      <g
         clip-path="url(#clip_11)"
         id="g69451">
        <path
           transform="matrix(0.42,0,0,-0.42,223.338,340.462)"
           stroke-width="1"
           stroke-linecap="round"
           stroke-linejoin="round"
           fill="none"
           stroke="#d5d6d5"
           d="M 57.778127,109.51164 H 341.33778"
           id="path69449" />
      </g>
      <g
         id="use69453"
         style="fill:#333333"
         transform="matrix(4.62,0,0,-4.62,233.32482,296.2226)">
        <path
           transform="matrix(0.001,0,0,0.001,0,0)"
           d="m 330,404 c -44,0 -79,-16 -105,-46 -26,-30 -39,-72 -39,-124 0,-53 13,-95 39,-125 26,-30 61,-45 105,-45 44,0 79,15 105,45 26,30 39,72 39,125 0,52 -13,94 -39,124 -26,30 -61,46 -105,46 z m 196,309 v -90 c -25,12 -50,21 -75,27 -26,6 -51,9 -75,9 -66,0 -116,-22 -150,-66 -34,-44 -54,-111 -58,-199 19,28 43,50 72,65 29,15 61,23 96,23 73,0 131,-23 173,-67 42,-44 64,-105 64,-181 C 573,159 550,99 506,54 462,9 403,-13 330,-13 246,-13 181,19 137,83 92,147 70,241 70,364 c 0,115 27,207 82,275 54,68 128,103 220,103 24,0 49,-3 75,-7 25,-5 51,-12 79,-22 z"
           id="path75627" />
      </g>
      <g
         id="use69455"
         style="fill:#333333"
         transform="matrix(4.62,0,0,-4.62,236.26314,296.2226)">
        <path
           transform="matrix(0.001,0,0,0.001,0,0)"
           d="M 378,643 129,254 h 249 z m -26,86 H 476 V 254 H 580 V 172 H 476 V 0 H 378 V 172 H 49 v 95 z"
           id="path75697" />
      </g>
      <g
         id="use69457"
         style="fill:#333333"
         transform="matrix(4.62,0,0,-4.62,239.20145,296.2226)">
        <path
           transform="matrix(0.001,0,0,0.001,0,0)"
           d="M 107,124 H 210 V 0 H 107 Z"
           id="path75661" />
      </g>
      <g
         id="use69459"
         style="fill:#333333"
         transform="matrix(4.62,0,0,-4.62,240.67061,296.2226)">
        <path
           transform="matrix(0.001,0,0,0.001,0,0)"
           d="M 192,83 H 536 V 0 H 73 v 83 c 37,38 88,90 153,156 64,65 105,107 122,126 32,35 54,65 66,90 12,24 19,49 19,73 0,38 -14,70 -41,94 -27,24 -62,37 -106,37 -31,0 -64,-6 -98,-16 -34,-11 -71,-27 -110,-49 v 100 c 40,16 77,28 111,36 34,8 66,12 95,12 75,0 135,-19 180,-57 45,-38 68,-88 68,-151 0,-30 -6,-59 -17,-85 -11,-27 -31,-59 -61,-95 -8,-10 -34,-37 -78,-82 C 332,227 271,164 192,83 Z"
           id="path75741" />
      </g>
      <g
         clip-path="url(#clip_12)"
         id="g69463">
        <path
           transform="matrix(0.42,0,0,-0.42,223.338,340.462)"
           stroke-width="1"
           stroke-linecap="round"
           stroke-linejoin="round"
           fill="none"
           stroke="#d5d6d5"
           d="M 57.778127,155.45549 H 341.33778"
           id="path69461" />
      </g>
      <g
         id="use69465"
         style="fill:#333333"
         transform="matrix(4.62,0,0,-4.62,233.32482,276.92619)">
        <path
           transform="matrix(0.001,0,0,0.001,0,0)"
           d="m 330,404 c -44,0 -79,-16 -105,-46 -26,-30 -39,-72 -39,-124 0,-53 13,-95 39,-125 26,-30 61,-45 105,-45 44,0 79,15 105,45 26,30 39,72 39,125 0,52 -13,94 -39,124 -26,30 -61,46 -105,46 z m 196,309 v -90 c -25,12 -50,21 -75,27 -26,6 -51,9 -75,9 -66,0 -116,-22 -150,-66 -34,-44 -54,-111 -58,-199 19,28 43,50 72,65 29,15 61,23 96,23 73,0 131,-23 173,-67 42,-44 64,-105 64,-181 C 573,159 550,99 506,54 462,9 403,-13 330,-13 246,-13 181,19 137,83 92,147 70,241 70,364 c 0,115 27,207 82,275 54,68 128,103 220,103 24,0 49,-3 75,-7 25,-5 51,-12 79,-22 z"
           id="path75631" />
      </g>
      <g
         id="use69467"
         style="fill:#333333"
         transform="matrix(4.62,0,0,-4.62,236.26314,276.92619)">
        <path
           transform="matrix(0.001,0,0,0.001,0,0)"
           d="M 378,643 129,254 h 249 z m -26,86 H 476 V 254 H 580 V 172 H 476 V 0 H 378 V 172 H 49 v 95 z"
           id="path75701" />
      </g>
      <g
         id="use69469"
         style="fill:#333333"
         transform="matrix(4.62,0,0,-4.62,239.20145,276.92619)">
        <path
           transform="matrix(0.001,0,0,0.001,0,0)"
           d="M 107,124 H 210 V 0 H 107 Z"
           id="path75665" />
      </g>
      <g
         id="use69471"
         style="fill:#333333"
         transform="matrix(4.62,0,0,-4.62,240.67061,276.92619)">
        <path
           transform="matrix(0.001,0,0,0.001,0,0)"
           d="M 378,643 129,254 h 249 z m -26,86 H 476 V 254 H 580 V 172 H 476 V 0 H 378 V 172 H 49 v 95 z"
           id="path75705" />
      </g>
      <g
         clip-path="url(#clip_13)"
         id="g69475">
        <path
           transform="matrix(0.42,0,0,-0.42,223.338,340.462)"
           stroke-width="1"
           stroke-linecap="round"
           stroke-linejoin="round"
           fill="none"
           stroke="#d5d6d5"
           d="M 57.778127,201.39934 H 341.33778"
           id="path69473" />
      </g>
      <g
         id="use69477"
         style="fill:#333333"
         transform="matrix(4.62,0,0,-4.62,233.32482,257.62977)">
        <path
           transform="matrix(0.001,0,0,0.001,0,0)"
           d="m 330,404 c -44,0 -79,-16 -105,-46 -26,-30 -39,-72 -39,-124 0,-53 13,-95 39,-125 26,-30 61,-45 105,-45 44,0 79,15 105,45 26,30 39,72 39,125 0,52 -13,94 -39,124 -26,30 -61,46 -105,46 z m 196,309 v -90 c -25,12 -50,21 -75,27 -26,6 -51,9 -75,9 -66,0 -116,-22 -150,-66 -34,-44 -54,-111 -58,-199 19,28 43,50 72,65 29,15 61,23 96,23 73,0 131,-23 173,-67 42,-44 64,-105 64,-181 C 573,159 550,99 506,54 462,9 403,-13 330,-13 246,-13 181,19 137,83 92,147 70,241 70,364 c 0,115 27,207 82,275 54,68 128,103 220,103 24,0 49,-3 75,-7 25,-5 51,-12 79,-22 z"
           id="path75635" />
      </g>
      <g
         id="use69479"
         style="fill:#333333"
         transform="matrix(4.62,0,0,-4.62,236.26314,257.62977)">
        <path
           transform="matrix(0.001,0,0,0.001,0,0)"
           d="M 378,643 129,254 h 249 z m -26,86 H 476 V 254 H 580 V 172 H 476 V 0 H 378 V 172 H 49 v 95 z"
           id="path75709" />
      </g>
      <g
         id="use69481"
         style="fill:#333333"
         transform="matrix(4.62,0,0,-4.62,239.20145,257.62977)">
        <path
           transform="matrix(0.001,0,0,0.001,0,0)"
           d="M 107,124 H 210 V 0 H 107 Z"
           id="path75669" />
      </g>
      <g
         id="use69483"
         style="fill:#333333"
         transform="matrix(4.62,0,0,-4.62,240.67061,257.62977)">
        <path
           transform="matrix(0.001,0,0,0.001,0,0)"
           d="m 330,404 c -44,0 -79,-16 -105,-46 -26,-30 -39,-72 -39,-124 0,-53 13,-95 39,-125 26,-30 61,-45 105,-45 44,0 79,15 105,45 26,30 39,72 39,125 0,52 -13,94 -39,124 -26,30 -61,46 -105,46 z m 196,309 v -90 c -25,12 -50,21 -75,27 -26,6 -51,9 -75,9 -66,0 -116,-22 -150,-66 -34,-44 -54,-111 -58,-199 19,28 43,50 72,65 29,15 61,23 96,23 73,0 131,-23 173,-67 42,-44 64,-105 64,-181 C 573,159 550,99 506,54 462,9 403,-13 330,-13 246,-13 181,19 137,83 92,147 70,241 70,364 c 0,115 27,207 82,275 54,68 128,103 220,103 24,0 49,-3 75,-7 25,-5 51,-12 79,-22 z"
           id="path75639" />
      </g>
      <g
         clip-path="url(#clip_14)"
         id="g69487">
        <path
           transform="matrix(0.42,0,0,-0.42,223.338,340.462)"
           stroke-width="1"
           stroke-linecap="round"
           stroke-linejoin="round"
           fill="none"
           stroke="#d5d6d5"
           d="M 57.778127,247.3432 H 341.33778"
           id="path69485" />
      </g>
      <g
         id="use69489"
         style="fill:#333333"
         transform="matrix(4.62,0,0,-4.62,233.32482,238.33335)">
        <path
           transform="matrix(0.001,0,0,0.001,0,0)"
           d="m 330,404 c -44,0 -79,-16 -105,-46 -26,-30 -39,-72 -39,-124 0,-53 13,-95 39,-125 26,-30 61,-45 105,-45 44,0 79,15 105,45 26,30 39,72 39,125 0,52 -13,94 -39,124 -26,30 -61,46 -105,46 z m 196,309 v -90 c -25,12 -50,21 -75,27 -26,6 -51,9 -75,9 -66,0 -116,-22 -150,-66 -34,-44 -54,-111 -58,-199 19,28 43,50 72,65 29,15 61,23 96,23 73,0 131,-23 173,-67 42,-44 64,-105 64,-181 C 573,159 550,99 506,54 462,9 403,-13 330,-13 246,-13 181,19 137,83 92,147 70,241 70,364 c 0,115 27,207 82,275 54,68 128,103 220,103 24,0 49,-3 75,-7 25,-5 51,-12 79,-22 z"
           id="path75643" />
      </g>
      <g
         id="use69491"
         style="fill:#333333"
         transform="matrix(4.62,0,0,-4.62,236.26314,238.33335)">
        <path
           transform="matrix(0.001,0,0,0.001,0,0)"
           d="M 378,643 129,254 h 249 z m -26,86 H 476 V 254 H 580 V 172 H 476 V 0 H 378 V 172 H 49 v 95 z"
           id="path75713" />
      </g>
      <g
         id="use69493"
         style="fill:#333333"
         transform="matrix(4.62,0,0,-4.62,239.20145,238.33335)">
        <path
           transform="matrix(0.001,0,0,0.001,0,0)"
           d="M 107,124 H 210 V 0 H 107 Z"
           id="path75673" />
      </g>
      <g
         id="use69495"
         style="fill:#333333"
         transform="matrix(4.62,0,0,-4.62,240.67061,238.33335)">
        <path
           transform="matrix(0.001,0,0,0.001,0,0)"
           d="m 318,346 c -47,0 -84,-13 -111,-38 -27,-25 -40,-59 -40,-103 0,-44 13,-79 40,-104 27,-25 64,-37 111,-37 46,0 83,12 110,38 27,25 41,59 41,103 0,44 -14,78 -40,103 -27,25 -64,38 -111,38 z m -99,42 c -42,10 -75,30 -99,59 -24,29 -35,64 -35,106 0,58 20,104 62,138 41,34 98,51 171,51 72,0 129,-17 171,-51 41,-34 62,-80 62,-138 0,-42 -12,-77 -36,-106 -24,-29 -56,-49 -98,-59 47,-11 84,-33 111,-65 26,-32 40,-72 40,-118 C 568,134 546,80 503,43 459,5 397,-13 317,-13 237,-13 175,5 132,43 89,80 68,134 68,205 c 0,46 13,86 40,118 26,32 63,54 111,65 z m -36,156 c 0,-38 11,-68 35,-89 24,-21 57,-31 100,-31 42,0 75,10 99,31 24,21 36,51 36,89 0,38 -12,67 -36,88 -24,21 -57,32 -99,32 -43,0 -76,-11 -100,-32 -24,-21 -35,-50 -35,-88 z"
           id="path75595" />
      </g>
      <g
         clip-path="url(#clip_15)"
         id="g69499">
        <path
           transform="matrix(0.42,0,0,-0.42,223.338,340.462)"
           stroke-width="1"
           stroke-linecap="round"
           stroke-linejoin="round"
           fill="none"
           stroke="#d5d6d5"
           d="M 57.778127,293.28706 H 341.33778"
           id="path69497" />
      </g>
      <g
         id="use69501"
         style="fill:#333333"
         transform="matrix(4.62,0,0,-4.62,233.32482,219.03693)">
        <path
           transform="matrix(0.001,0,0,0.001,0,0)"
           d="m 330,404 c -44,0 -79,-16 -105,-46 -26,-30 -39,-72 -39,-124 0,-53 13,-95 39,-125 26,-30 61,-45 105,-45 44,0 79,15 105,45 26,30 39,72 39,125 0,52 -13,94 -39,124 -26,30 -61,46 -105,46 z m 196,309 v -90 c -25,12 -50,21 -75,27 -26,6 -51,9 -75,9 -66,0 -116,-22 -150,-66 -34,-44 -54,-111 -58,-199 19,28 43,50 72,65 29,15 61,23 96,23 73,0 131,-23 173,-67 42,-44 64,-105 64,-181 C 573,159 550,99 506,54 462,9 403,-13 330,-13 246,-13 181,19 137,83 92,147 70,241 70,364 c 0,115 27,207 82,275 54,68 128,103 220,103 24,0 49,-3 75,-7 25,-5 51,-12 79,-22 z"
           id="path75647" />
      </g>
      <g
         id="use69503"
         style="fill:#333333"
         transform="matrix(4.62,0,0,-4.62,236.26314,219.03693)">
        <path
           transform="matrix(0.001,0,0,0.001,0,0)"
           d="M 108,729 H 495 V 646 H 198 V 467 c 14,5 29,9 43,11 14,2 29,4 43,4 81,0 145,-23 193,-67 48,-45 72,-105 72,-181 C 549,155 524,94 475,51 426,8 357,-13 269,-13 c -31,0 -62,3 -94,7 -32,5 -64,12 -98,23 v 99 c 29,-16 59,-28 91,-36 31,-8 64,-11 99,-11 56,0 101,14 134,44 32,30 49,70 49,121 0,50 -17,90 -49,120 -33,30 -78,45 -134,45 -26,0 -53,-3 -79,-9 -26,-6 -53,-15 -80,-27 z"
           id="path75603" />
      </g>
      <g
         id="use69505"
         style="fill:#333333"
         transform="matrix(4.62,0,0,-4.62,239.20145,219.03693)">
        <path
           transform="matrix(0.001,0,0,0.001,0,0)"
           d="M 107,124 H 210 V 0 H 107 Z"
           id="path75677" />
      </g>
      <g
         id="use69507"
         style="fill:#333333"
         transform="matrix(4.62,0,0,-4.62,240.67061,219.03693)">
        <path
           transform="matrix(0.001,0,0,0.001,0,0)"
           d="m 318,664 c -51,0 -89,-25 -115,-75 -26,-50 -38,-125 -38,-225 0,-100 12,-175 38,-225 26,-50 64,-75 115,-75 51,0 89,25 115,75 25,50 38,125 38,225 0,100 -13,175 -38,225 -26,50 -64,75 -115,75 z m 0,78 c 81,0 143,-33 187,-97 43,-65 65,-159 65,-281 C 570,241 548,147 505,83 461,19 399,-13 317,-13 235,-13 173,19 130,83 87,147 66,241 66,364 c 0,122 21,216 64,281 43,64 106,97 188,97 z"
           id="path75583" />
      </g>
      <g
         id="use69509"
         style="fill:#333333"
         transform="matrix(0,-5.46,-5.46,0,230.50949,274.66218)">
        <path
           transform="matrix(0.001,0,0,0.001,0,0)"
           d="m 444,342 c 21,-8 42,-23 62,-46 20,-24 40,-56 60,-97 L 666,0 H 560 l -93,187 c -24,48 -48,81 -70,97 -23,16 -54,24 -93,24 H 197 V 0 H 98 v 729 h 223 c 83,0 145,-18 186,-52 41,-35 62,-88 62,-158 0,-46 -11,-85 -32,-115 -22,-30 -53,-51 -93,-62 z M 197,648 V 389 h 124 c 47,0 83,11 107,33 24,22 37,54 37,97 0,42 -13,74 -37,96 -24,22 -60,33 -107,33 z"
           id="path75749" />
      </g>
      <g
         id="use69511"
         style="fill:#333333"
         transform="matrix(0,-5.46,-5.46,0,230.50949,271.1103)">
        <path
           transform="matrix(0.001,0,0,0.001,0,0)"
           d="m 306,484 c -48,0 -86,-19 -114,-57 -28,-38 -42,-89 -42,-154 0,-66 13,-117 41,-155 28,-38 66,-56 115,-56 48,0 86,18 114,56 28,38 42,89 42,155 0,64 -14,116 -42,154 -28,38 -66,57 -114,57 z m 0,76 c 78,0 139,-26 184,-76 44,-51 67,-121 67,-211 C 557,183 534,113 490,63 445,12 384,-13 306,-13 227,-13 165,12 121,63 77,113 55,183 55,273 c 0,90 22,160 66,211 44,50 106,76 185,76 z"
           id="path75765" />
      </g>
      <g
         id="use69513"
         style="fill:#333333"
         transform="matrix(0,-5.46,-5.46,0,230.50949,267.76878)">
        <path
           transform="matrix(0.001,0,0,0.001,0,0)"
           d="m 85,216 v 331 h 90 V 219 c 0,-52 10,-90 30,-116 20,-26 50,-39 91,-39 48,0 87,15 115,46 28,31 42,73 42,127 v 310 h 90 V 0 H 453 V 84 C 431,50 405,26 377,10 348,-5 315,-13 277,-13 214,-13 166,6 134,45 101,83 85,140 85,216 Z m 226,344 z"
           id="path75599" />
      </g>
      <g
         id="use69515"
         style="fill:#333333"
         transform="matrix(0,-5.46,-5.46,0,230.50949,264.30714)">
        <path
           transform="matrix(0.001,0,0,0.001,0,0)"
           d="m 454,280 c 0,64 -14,115 -40,151 -27,36 -65,54 -113,54 -48,0 -86,-18 -113,-54 -27,-36 -40,-87 -40,-151 0,-65 13,-115 40,-151 27,-36 65,-54 113,-54 48,0 86,18 113,54 26,36 40,86 40,151 z M 544,68 c 0,-92 -21,-161 -62,-207 -42,-45 -105,-68 -190,-68 -32,0 -61,3 -89,7 -28,5 -56,12 -82,22 v 87 c 26,-14 52,-24 78,-31 26,-7 52,-11 79,-11 58,0 102,16 132,46 29,31 44,77 44,139 V 96 C 435,64 411,40 382,24 353,8 319,0 279,0 211,0 157,25 116,76 75,127 55,195 55,280 c 0,84 20,152 61,203 41,51 95,77 163,77 40,0 74,-8 103,-24 29,-16 53,-40 72,-72 v 83 h 90 z"
           id="path75611" />
      </g>
      <g
         id="use69517"
         style="fill:#333333"
         transform="matrix(0,-5.46,-5.46,0,230.50949,260.84004)">
        <path
           transform="matrix(0.001,0,0,0.001,0,0)"
           d="M 562,296 V 252 H 149 c 4,-62 22,-110 56,-142 33,-32 79,-48 139,-48 34,0 68,4 100,12 32,8 65,21 97,39 V 28 C 509,14 476,3 442,-3 408,-9 373,-13 339,-13 251,-13 182,12 131,62 80,112 55,181 55,268 c 0,89 24,160 72,213 48,52 114,79 196,79 74,0 132,-24 175,-71 42,-48 64,-112 64,-193 z m -90,26 c -1,49 -15,88 -41,118 -27,29 -63,44 -107,44 -50,0 -90,-15 -120,-43 -30,-28 -48,-68 -52,-119 z"
           id="path75607" />
      </g>
      <g
         id="use69519"
         style="fill:#333333"
         transform="matrix(0,-5.46,-5.46,0,230.50949,257.48213)">
        <path
           transform="matrix(0.001,0,0,0.001,0,0)"
           d="m 98,729 h 99 V 83 H 552 V 0 H 98 Z"
           id="path75757" />
      </g>
      <path
         transform="matrix(0.42,0,0,-0.42,223.338,340.462)"
         stroke-width="1.25"
         stroke-linecap="square"
         stroke-miterlimit="10"
         stroke-linejoin="miter"
         fill="none"
         stroke="#333333"
         d="M 57.778127,43.91875 V 317.5075"
         id="path69521" />
      <path
         transform="matrix(0.42,0,0,-0.42,223.338,340.462)"
         stroke-width="1.25"
         stroke-linecap="square"
         stroke-miterlimit="10"
         stroke-linejoin="miter"
         fill="none"
         stroke="#333333"
         d="M 57.778127,43.91875 H 341.33778"
         id="path69523" />
      <g
         clip-path="url(#clip_16)"
         id="g69589">
        <g
           clip-path="url(#clip_17)"
           id="g69527">
          <path
             transform="matrix(0.42,0,0,-0.42,262.4917,275.05494)"
             d="m 0,-2.5 c 0.663008,0 1.29895,0.263416 1.767767,0.732233 C 2.236584,-1.29895 2.5,-0.663008 2.5,0 2.5,0.663008 2.236584,1.29895 1.767767,1.767767 1.29895,2.236584 0.663008,2.5 0,2.5 -0.663008,2.5 -1.29895,2.236584 -1.767767,1.767767 -2.236584,1.29895 -2.5,0.663008 -2.5,0 c 0,-0.663008 0.263416,-1.29895 0.732233,-1.767767 C -1.29895,-2.236584 -0.663008,-2.5 0,-2.5 Z"
             fill="#0173b2"
             id="path69525" />
        </g>
        <g
           clip-path="url(#clip_18)"
           id="g69531">
          <path
             transform="matrix(0.42,0,0,-0.42,262.4917,294.1391)"
             d="m 0,-2.5 c 0.663008,0 1.29895,0.263416 1.767767,0.732233 C 2.236584,-1.29895 2.5,-0.663008 2.5,0 2.5,0.663008 2.236584,1.29895 1.767767,1.767767 1.29895,2.236584 0.663008,2.5 0,2.5 -0.663008,2.5 -1.29895,2.236584 -1.767767,1.767767 -2.236584,1.29895 -2.5,0.663008 -2.5,0 c 0,-0.663008 0.263416,-1.29895 0.732233,-1.767767 C -1.29895,-2.236584 -0.663008,-2.5 0,-2.5 Z"
             fill="#0173b2"
             id="path69529" />
        </g>
        <g
           clip-path="url(#clip_19)"
           id="g69535">
          <path
             transform="matrix(0.42,0,0,-0.42,260.37214,260.03269)"
             d="m 0,-2.5 c 0.663008,0 1.29895,0.263416 1.767767,0.732233 C 2.236584,-1.29895 2.5,-0.663008 2.5,0 2.5,0.663008 2.236584,1.29895 1.767767,1.767767 1.29895,2.236584 0.663008,2.5 0,2.5 -0.663008,2.5 -1.29895,2.236584 -1.767767,1.767767 -2.236584,1.29895 -2.5,0.663008 -2.5,0 c 0,-0.663008 0.263416,-1.29895 0.732233,-1.767767 C -1.29895,-2.236584 -0.663008,-2.5 0,-2.5 Z"
             fill="#0173b2"
             id="path69533" />
        </g>
        <g
           clip-path="url(#clip_20)"
           id="g69539">
          <path
             transform="matrix(0.42,0,0,-0.42,262.4917,305.22489)"
             d="m 0,-2.5 c 0.663008,0 1.29895,0.263416 1.767767,0.732233 C 2.236584,-1.29895 2.5,-0.663008 2.5,0 2.5,0.663008 2.236584,1.29895 1.767767,1.767767 1.29895,2.236584 0.663008,2.5 0,2.5 -0.663008,2.5 -1.29895,2.236584 -1.767767,1.767767 -2.236584,1.29895 -2.5,0.663008 -2.5,0 c 0,-0.663008 0.263416,-1.29895 0.732233,-1.767767 C -1.29895,-2.236584 -0.663008,-2.5 0,-2.5 Z"
             fill="#0173b2"
             id="path69537" />
        </g>
        <g
           clip-path="url(#clip_21)"
           id="g69543">
          <path
             transform="matrix(0.42,0,0,-0.42,262.4917,311.45765)"
             d="m 0,-2.5 c 0.663008,0 1.29895,0.263416 1.767767,0.732233 C 2.236584,-1.29895 2.5,-0.663008 2.5,0 2.5,0.663008 2.236584,1.29895 1.767767,1.767767 1.29895,2.236584 0.663008,2.5 0,2.5 -0.663008,2.5 -1.29895,2.236584 -1.767767,1.767767 -2.236584,1.29895 -2.5,0.663008 -2.5,0 c 0,-0.663008 0.263416,-1.29895 0.732233,-1.767767 C -1.29895,-2.236584 -0.663008,-2.5 0,-2.5 Z"
             fill="#0173b2"
             id="path69541" />
        </g>
        <g
           clip-path="url(#clip_22)"
           id="g69547">
          <path
             transform="matrix(0.42,0,0,-0.42,262.4917,316.7931)"
             d="m 0,-2.5 c 0.663008,0 1.29895,0.263416 1.767767,0.732233 C 2.236584,-1.29895 2.5,-0.663008 2.5,0 2.5,0.663008 2.236584,1.29895 1.767767,1.767767 1.29895,2.236584 0.663008,2.5 0,2.5 -0.663008,2.5 -1.29895,2.236584 -1.767767,1.767767 -2.236584,1.29895 -2.5,0.663008 -2.5,0 c 0,-0.663008 0.263416,-1.29895 0.732233,-1.767767 C -1.29895,-2.236584 -0.663008,-2.5 0,-2.5 Z"
             fill="#0173b2"
             id="path69545" />
        </g>
        <g
           clip-path="url(#clip_23)"
           id="g69551">
          <path
             transform="matrix(0.42,0,0,-0.42,262.4917,260.61158)"
             d="m 0,-2.5 c 0.663008,0 1.29895,0.263416 1.767767,0.732233 C 2.236584,-1.29895 2.5,-0.663008 2.5,0 2.5,0.663008 2.236584,1.29895 1.767767,1.767767 1.29895,2.236584 0.663008,2.5 0,2.5 -0.663008,2.5 -1.29895,2.236584 -1.767767,1.767767 -2.236584,1.29895 -2.5,0.663008 -2.5,0 c 0,-0.663008 0.263416,-1.29895 0.732233,-1.767767 C -1.29895,-2.236584 -0.663008,-2.5 0,-2.5 Z"
             fill="#0173b2"
             id="path69549" />
        </g>
        <g
           clip-path="url(#clip_24)"
           id="g69555">
          <path
             transform="matrix(0.42,0,0,-0.42,262.4917,277.21614)"
             d="m 0,-2.5 c 0.663008,0 1.29895,0.263416 1.767767,0.732233 C 2.236584,-1.29895 2.5,-0.663008 2.5,0 2.5,0.663008 2.236584,1.29895 1.767767,1.767767 1.29895,2.236584 0.663008,2.5 0,2.5 -0.663008,2.5 -1.29895,2.236584 -1.767767,1.767767 -2.236584,1.29895 -2.5,0.663008 -2.5,0 c 0,-0.663008 0.263416,-1.29895 0.732233,-1.767767 C -1.29895,-2.236584 -0.663008,-2.5 0,-2.5 Z"
             fill="#0173b2"
             id="path69553" />
        </g>
        <g
           clip-path="url(#clip_25)"
           id="g69559">
          <path
             transform="matrix(0.42,0,0,-0.42,262.4917,285.22416)"
             d="m 0,-2.5 c 0.663008,0 1.29895,0.263416 1.767767,0.732233 C 2.236584,-1.29895 2.5,-0.663008 2.5,0 2.5,0.663008 2.236584,1.29895 1.767767,1.767767 1.29895,2.236584 0.663008,2.5 0,2.5 -0.663008,2.5 -1.29895,2.236584 -1.767767,1.767767 -2.236584,1.29895 -2.5,0.663008 -2.5,0 c 0,-0.663008 0.263416,-1.29895 0.732233,-1.767767 C -1.29895,-2.236584 -0.663008,-2.5 0,-2.5 Z"
             fill="#0173b2"
             id="path69557" />
        </g>
        <g
           clip-path="url(#clip_26)"
           id="g69563">
          <path
             transform="matrix(0.42,0,0,-0.42,262.4917,263.8051)"
             d="m 0,-2.5 c 0.663008,0 1.29895,0.263416 1.767767,0.732233 C 2.236584,-1.29895 2.5,-0.663008 2.5,0 2.5,0.663008 2.236584,1.29895 1.767767,1.767767 1.29895,2.236584 0.663008,2.5 0,2.5 -0.663008,2.5 -1.29895,2.236584 -1.767767,1.767767 -2.236584,1.29895 -2.5,0.663008 -2.5,0 c 0,-0.663008 0.263416,-1.29895 0.732233,-1.767767 C -1.29895,-2.236584 -0.663008,-2.5 0,-2.5 Z"
             fill="#0173b2"
             id="path69561" />
        </g>
        <g
           clip-path="url(#clip_27)"
           id="g69567">
          <path
             transform="matrix(0.42,0,0,-0.42,262.4917,218.17874)"
             d="m 0,-2.5 c 0.663008,0 1.29895,0.263416 1.767767,0.732233 C 2.236584,-1.29895 2.5,-0.663008 2.5,0 2.5,0.663008 2.236584,1.29895 1.767767,1.767767 1.29895,2.236584 0.663008,2.5 0,2.5 -0.663008,2.5 -1.29895,2.236584 -1.767767,1.767767 -2.236584,1.29895 -2.5,0.663008 -2.5,0 c 0,-0.663008 0.263416,-1.29895 0.732233,-1.767767 C -1.29895,-2.236584 -0.663008,-2.5 0,-2.5 Z"
             fill="#0173b2"
             id="path69565" />
        </g>
        <g
           clip-path="url(#clip_28)"
           id="g69571">
          <path
             transform="matrix(0.42,0,0,-0.42,262.4917,239.24079)"
             d="m 0,-2.5 c 0.663008,0 1.29895,0.263416 1.767767,0.732233 C 2.236584,-1.29895 2.5,-0.663008 2.5,0 2.5,0.663008 2.236584,1.29895 1.767767,1.767767 1.29895,2.236584 0.663008,2.5 0,2.5 -0.663008,2.5 -1.29895,2.236584 -1.767767,1.767767 -2.236584,1.29895 -2.5,0.663008 -2.5,0 c 0,-0.663008 0.263416,-1.29895 0.732233,-1.767767 C -1.29895,-2.236584 -0.663008,-2.5 0,-2.5 Z"
             fill="#0173b2"
             id="path69569" />
        </g>
        <g
           clip-path="url(#clip_29)"
           id="g69575">
          <path
             transform="matrix(0.42,0,0,-0.42,262.4917,233.92462)"
             d="m 0,-2.5 c 0.663008,0 1.29895,0.263416 1.767767,0.732233 C 2.236584,-1.29895 2.5,-0.663008 2.5,0 2.5,0.663008 2.236584,1.29895 1.767767,1.767767 1.29895,2.236584 0.663008,2.5 0,2.5 -0.663008,2.5 -1.29895,2.236584 -1.767767,1.767767 -2.236584,1.29895 -2.5,0.663008 -2.5,0 c 0,-0.663008 0.263416,-1.29895 0.732233,-1.767767 C -1.29895,-2.236584 -0.663008,-2.5 0,-2.5 Z"
             fill="#0173b2"
             id="path69573" />
        </g>
        <g
           clip-path="url(#clip_30)"
           id="g69579">
          <path
             transform="matrix(0.42,0,0,-0.42,261.10218,273.42439)"
             d="m 0,-2.5 c 0.663008,0 1.29895,0.263416 1.767767,0.732233 C 2.236584,-1.29895 2.5,-0.663008 2.5,0 2.5,0.663008 2.236584,1.29895 1.767767,1.767767 1.29895,2.236584 0.663008,2.5 0,2.5 -0.663008,2.5 -1.29895,2.236584 -1.767767,1.767767 -2.236584,1.29895 -2.5,0.663008 -2.5,0 c 0,-0.663008 0.263416,-1.29895 0.732233,-1.767767 C -1.29895,-2.236584 -0.663008,-2.5 0,-2.5 Z"
             fill="#0173b2"
             id="path69577" />
        </g>
        <g
           clip-path="url(#clip_31)"
           id="g69583">
          <path
             transform="matrix(0.42,0,0,-0.42,260.45756,238.43033)"
             d="m 0,-2.5 c 0.663008,0 1.29895,0.263416 1.767767,0.732233 C 2.236584,-1.29895 2.5,-0.663008 2.5,0 2.5,0.663008 2.236584,1.29895 1.767767,1.767767 1.29895,2.236584 0.663008,2.5 0,2.5 -0.663008,2.5 -1.29895,2.236584 -1.767767,1.767767 -2.236584,1.29895 -2.5,0.663008 -2.5,0 c 0,-0.663008 0.263416,-1.29895 0.732233,-1.767767 C -1.29895,-2.236584 -0.663008,-2.5 0,-2.5 Z"
             fill="#0173b2"
             id="path69581" />
        </g>
        <g
           clip-path="url(#clip_32)"
           id="g69587">
          <path
             transform="matrix(0.42,0,0,-0.42,262.49174,251.33963)"
             d="m 0,-2.5 c 0.663008,0 1.29895,0.263416 1.767767,0.732233 C 2.236584,-1.29895 2.5,-0.663008 2.5,0 2.5,0.663008 2.236584,1.29895 1.767767,1.767767 1.29895,2.236584 0.663008,2.5 0,2.5 -0.663008,2.5 -1.29895,2.236584 -1.767767,1.767767 -2.236584,1.29895 -2.5,0.663008 -2.5,0 c 0,-0.663008 0.263416,-1.29895 0.732233,-1.767767 C -1.29895,-2.236584 -0.663008,-2.5 0,-2.5 Z"
             fill="#0173b2"
             id="path69585" />
        </g>
      </g>
      <g
         clip-path="url(#clip_33)"
         id="g69651">
        <g
           clip-path="url(#clip_34)"
           id="g69593">
          <path
             transform="matrix(0.42,0,0,-0.42,292.26545,255.97077)"
             d="m 0,-2.5 c 0.663008,0 1.29895,0.263416 1.767767,0.732233 C 2.236584,-1.29895 2.5,-0.663008 2.5,0 2.5,0.663008 2.236584,1.29895 1.767767,1.767767 1.29895,2.236584 0.663008,2.5 0,2.5 -0.663008,2.5 -1.29895,2.236584 -1.767767,1.767767 -2.236584,1.29895 -2.5,0.663008 -2.5,0 c 0,-0.663008 0.263416,-1.29895 0.732233,-1.767767 C -1.29895,-2.236584 -0.663008,-2.5 0,-2.5 Z"
             fill="#0173b2"
             id="path69591" />
        </g>
        <g
           clip-path="url(#clip_35)"
           id="g69597">
          <path
             transform="matrix(0.42,0,0,-0.42,292.26545,252.42987)"
             d="m 0,-2.5 c 0.663008,0 1.29895,0.263416 1.767767,0.732233 C 2.236584,-1.29895 2.5,-0.663008 2.5,0 2.5,0.663008 2.236584,1.29895 1.767767,1.767767 1.29895,2.236584 0.663008,2.5 0,2.5 -0.663008,2.5 -1.29895,2.236584 -1.767767,1.767767 -2.236584,1.29895 -2.5,0.663008 -2.5,0 c 0,-0.663008 0.263416,-1.29895 0.732233,-1.767767 C -1.29895,-2.236584 -0.663008,-2.5 0,-2.5 Z"
             fill="#0173b2"
             id="path69595" />
        </g>
        <g
           clip-path="url(#clip_36)"
           id="g69601">
          <path
             transform="matrix(0.42,0,0,-0.42,292.26545,219.34616)"
             d="m 0,-2.5 c 0.663008,0 1.29895,0.263416 1.767767,0.732233 C 2.236584,-1.29895 2.5,-0.663008 2.5,0 2.5,0.663008 2.236584,1.29895 1.767767,1.767767 1.29895,2.236584 0.663008,2.5 0,2.5 -0.663008,2.5 -1.29895,2.236584 -1.767767,1.767767 -2.236584,1.29895 -2.5,0.663008 -2.5,0 c 0,-0.663008 0.263416,-1.29895 0.732233,-1.767767 C -1.29895,-2.236584 -0.663008,-2.5 0,-2.5 Z"
             fill="#0173b2"
             id="path69599" />
        </g>
        <g
           clip-path="url(#clip_37)"
           id="g69605">
          <path
             transform="matrix(0.42,0,0,-0.42,292.26545,304.44337)"
             d="m 0,-2.5 c 0.663008,0 1.29895,0.263416 1.767767,0.732233 C 2.236584,-1.29895 2.5,-0.663008 2.5,0 2.5,0.663008 2.236584,1.29895 1.767767,1.767767 1.29895,2.236584 0.663008,2.5 0,2.5 -0.663008,2.5 -1.29895,2.236584 -1.767767,1.767767 -2.236584,1.29895 -2.5,0.663008 -2.5,0 c 0,-0.663008 0.263416,-1.29895 0.732233,-1.767767 C -1.29895,-2.236584 -0.663008,-2.5 0,-2.5 Z"
             fill="#0173b2"
             id="path69603" />
        </g>
        <g
           clip-path="url(#clip_38)"
           id="g69609">
          <path
             transform="matrix(0.42,0,0,-0.42,292.26545,291.73667)"
             d="m 0,-2.5 c 0.663008,0 1.29895,0.263416 1.767767,0.732233 C 2.236584,-1.29895 2.5,-0.663008 2.5,0 2.5,0.663008 2.236584,1.29895 1.767767,1.767767 1.29895,2.236584 0.663008,2.5 0,2.5 -0.663008,2.5 -1.29895,2.236584 -1.767767,1.767767 -2.236584,1.29895 -2.5,0.663008 -2.5,0 c 0,-0.663008 0.263416,-1.29895 0.732233,-1.767767 C -1.29895,-2.236584 -0.663008,-2.5 0,-2.5 Z"
             fill="#0173b2"
             id="path69607" />
        </g>
        <g
           clip-path="url(#clip_39)"
           id="g69613">
          <path
             transform="matrix(0.42,0,0,-0.42,292.26545,273.2121)"
             d="m 0,-2.5 c 0.663008,0 1.29895,0.263416 1.767767,0.732233 C 2.236584,-1.29895 2.5,-0.663008 2.5,0 2.5,0.663008 2.236584,1.29895 1.767767,1.767767 1.29895,2.236584 0.663008,2.5 0,2.5 -0.663008,2.5 -1.29895,2.236584 -1.767767,1.767767 -2.236584,1.29895 -2.5,0.663008 -2.5,0 c 0,-0.663008 0.263416,-1.29895 0.732233,-1.767767 C -1.29895,-2.236584 -0.663008,-2.5 0,-2.5 Z"
             fill="#0173b2"
             id="path69611" />
        </g>
        <g
           clip-path="url(#clip_40)"
           id="g69617">
          <path
             transform="matrix(0.42,0,0,-0.42,292.26545,278.316)"
             d="m 0,-2.5 c 0.663008,0 1.29895,0.263416 1.767767,0.732233 C 2.236584,-1.29895 2.5,-0.663008 2.5,0 2.5,0.663008 2.236584,1.29895 1.767767,1.767767 1.29895,2.236584 0.663008,2.5 0,2.5 -0.663008,2.5 -1.29895,2.236584 -1.767767,1.767767 -2.236584,1.29895 -2.5,0.663008 -2.5,0 c 0,-0.663008 0.263416,-1.29895 0.732233,-1.767767 C -1.29895,-2.236584 -0.663008,-2.5 0,-2.5 Z"
             fill="#0173b2"
             id="path69615" />
        </g>
        <g
           clip-path="url(#clip_41)"
           id="g69621">
          <path
             transform="matrix(0.42,0,0,-0.42,291.86296,276.25129)"
             d="m 0,-2.5 c 0.663008,0 1.29895,0.263416 1.767767,0.732233 C 2.236584,-1.29895 2.5,-0.663008 2.5,0 2.5,0.663008 2.236584,1.29895 1.767767,1.767767 1.29895,2.236584 0.663008,2.5 0,2.5 -0.663008,2.5 -1.29895,2.236584 -1.767767,1.767767 -2.236584,1.29895 -2.5,0.663008 -2.5,0 c 0,-0.663008 0.263416,-1.29895 0.732233,-1.767767 C -1.29895,-2.236584 -0.663008,-2.5 0,-2.5 Z"
             fill="#0173b2"
             id="path69619" />
        </g>
        <g
           clip-path="url(#clip_42)"
           id="g69625">
          <path
             transform="matrix(0.42,0,0,-0.42,292.26545,232.51595)"
             d="m 0,-2.5 c 0.663008,0 1.29895,0.263416 1.767767,0.732233 C 2.236584,-1.29895 2.5,-0.663008 2.5,0 2.5,0.663008 2.236584,1.29895 1.767767,1.767767 1.29895,2.236584 0.663008,2.5 0,2.5 -0.663008,2.5 -1.29895,2.236584 -1.767767,1.767767 -2.236584,1.29895 -2.5,0.663008 -2.5,0 c 0,-0.663008 0.263416,-1.29895 0.732233,-1.767767 C -1.29895,-2.236584 -0.663008,-2.5 0,-2.5 Z"
             fill="#0173b2"
             id="path69623" />
        </g>
        <g
           clip-path="url(#clip_43)"
           id="g69629">
          <path
             transform="matrix(0.42,0,0,-0.42,292.26545,212.3319)"
             d="m 0,-2.5 c 0.663008,0 1.29895,0.263416 1.767767,0.732233 C 2.236584,-1.29895 2.5,-0.663008 2.5,0 2.5,0.663008 2.236584,1.29895 1.767767,1.767767 1.29895,2.236584 0.663008,2.5 0,2.5 -0.663008,2.5 -1.29895,2.236584 -1.767767,1.767767 -2.236584,1.29895 -2.5,0.663008 -2.5,0 c 0,-0.663008 0.263416,-1.29895 0.732233,-1.767767 C -1.29895,-2.236584 -0.663008,-2.5 0,-2.5 Z"
             fill="#0173b2"
             id="path69627" />
        </g>
        <g
           clip-path="url(#clip_44)"
           id="g69633">
          <path
             transform="matrix(0.42,0,0,-0.42,292.26545,225.59818)"
             d="m 0,-2.5 c 0.663008,0 1.29895,0.263416 1.767767,0.732233 C 2.236584,-1.29895 2.5,-0.663008 2.5,0 2.5,0.663008 2.236584,1.29895 1.767767,1.767767 1.29895,2.236584 0.663008,2.5 0,2.5 -0.663008,2.5 -1.29895,2.236584 -1.767767,1.767767 -2.236584,1.29895 -2.5,0.663008 -2.5,0 c 0,-0.663008 0.263416,-1.29895 0.732233,-1.767767 C -1.29895,-2.236584 -0.663008,-2.5 0,-2.5 Z"
             fill="#0173b2"
             id="path69631" />
        </g>
        <g
           clip-path="url(#clip_45)"
           id="g69637">
          <path
             transform="matrix(0.42,0,0,-0.42,292.26545,314.74763)"
             d="m 0,-2.5 c 0.663008,0 1.29895,0.263416 1.767767,0.732233 C 2.236584,-1.29895 2.5,-0.663008 2.5,0 2.5,0.663008 2.236584,1.29895 1.767767,1.767767 1.29895,2.236584 0.663008,2.5 0,2.5 -0.663008,2.5 -1.29895,2.236584 -1.767767,1.767767 -2.236584,1.29895 -2.5,0.663008 -2.5,0 c 0,-0.663008 0.263416,-1.29895 0.732233,-1.767767 C -1.29895,-2.236584 -0.663008,-2.5 0,-2.5 Z"
             fill="#0173b2"
             id="path69635" />
        </g>
        <g
           clip-path="url(#clip_46)"
           id="g69641">
          <path
             transform="matrix(0.42,0,0,-0.42,294.04829,275.97148)"
             d="m 0,-2.5 c 0.663008,0 1.29895,0.263416 1.767767,0.732233 C 2.236584,-1.29895 2.5,-0.663008 2.5,0 2.5,0.663008 2.236584,1.29895 1.767767,1.767767 1.29895,2.236584 0.663008,2.5 0,2.5 -0.663008,2.5 -1.29895,2.236584 -1.767767,1.767767 -2.236584,1.29895 -2.5,0.663008 -2.5,0 c 0,-0.663008 0.263416,-1.29895 0.732233,-1.767767 C -1.29895,-2.236584 -0.663008,-2.5 0,-2.5 Z"
             fill="#0173b2"
             id="path69639" />
        </g>
        <g
           clip-path="url(#clip_47)"
           id="g69645">
          <path
             transform="matrix(0.42,0,0,-0.42,292.26545,289.37284)"
             d="m 0,-2.5 c 0.663008,0 1.29895,0.263416 1.767767,0.732233 C 2.236584,-1.29895 2.5,-0.663008 2.5,0 2.5,0.663008 2.236584,1.29895 1.767767,1.767767 1.29895,2.236584 0.663008,2.5 0,2.5 -0.663008,2.5 -1.29895,2.236584 -1.767767,1.767767 -2.236584,1.29895 -2.5,0.663008 -2.5,0 c 0,-0.663008 0.263416,-1.29895 0.732233,-1.767767 C -1.29895,-2.236584 -0.663008,-2.5 0,-2.5 Z"
             fill="#0173b2"
             id="path69643" />
        </g>
        <g
           clip-path="url(#clip_48)"
           id="g69649">
          <path
             transform="matrix(0.42,0,0,-0.42,292.26545,258.21876)"
             d="m 0,-2.5 c 0.663008,0 1.29895,0.263416 1.767767,0.732233 C 2.236584,-1.29895 2.5,-0.663008 2.5,0 2.5,0.663008 2.236584,1.29895 1.767767,1.767767 1.29895,2.236584 0.663008,2.5 0,2.5 -0.663008,2.5 -1.29895,2.236584 -1.767767,1.767767 -2.236584,1.29895 -2.5,0.663008 -2.5,0 c 0,-0.663008 0.263416,-1.29895 0.732233,-1.767767 C -1.29895,-2.236584 -0.663008,-2.5 0,-2.5 Z"
             fill="#0173b2"
             id="path69647" />
        </g>
      </g>
      <g
         clip-path="url(#clip_49)"
         id="g69713">
        <g
           clip-path="url(#clip_50)"
           id="g69655">
          <path
             transform="matrix(0.42,0,0,-0.42,322.0392,279.7343)"
             d="m 0,-2.5 c 0.663008,0 1.29895,0.263416 1.767767,0.732233 C 2.236584,-1.29895 2.5,-0.663008 2.5,0 2.5,0.663008 2.236584,1.29895 1.767767,1.767767 1.29895,2.236584 0.663008,2.5 0,2.5 -0.663008,2.5 -1.29895,2.236584 -1.767767,1.767767 -2.236584,1.29895 -2.5,0.663008 -2.5,0 c 0,-0.663008 0.263416,-1.29895 0.732233,-1.767767 C -1.29895,-2.236584 -0.663008,-2.5 0,-2.5 Z"
             fill="#0173b2"
             id="path69653" />
        </g>
        <g
           clip-path="url(#clip_51)"
           id="g69659">
          <path
             transform="matrix(0.42,0,0,-0.42,322.0392,275.6531)"
             d="m 0,-2.5 c 0.663008,0 1.29895,0.263416 1.767767,0.732233 C 2.236584,-1.29895 2.5,-0.663008 2.5,0 2.5,0.663008 2.236584,1.29895 1.767767,1.767767 1.29895,2.236584 0.663008,2.5 0,2.5 -0.663008,2.5 -1.29895,2.236584 -1.767767,1.767767 -2.236584,1.29895 -2.5,0.663008 -2.5,0 c 0,-0.663008 0.263416,-1.29895 0.732233,-1.767767 C -1.29895,-2.236584 -0.663008,-2.5 0,-2.5 Z"
             fill="#0173b2"
             id="path69657" />
        </g>
        <g
           clip-path="url(#clip_52)"
           id="g69663">
          <path
             transform="matrix(0.42,0,0,-0.42,322.0392,299.8894)"
             d="m 0,-2.5 c 0.663008,0 1.29895,0.263416 1.767767,0.732233 C 2.236584,-1.29895 2.5,-0.663008 2.5,0 2.5,0.663008 2.236584,1.29895 1.767767,1.767767 1.29895,2.236584 0.663008,2.5 0,2.5 -0.663008,2.5 -1.29895,2.236584 -1.767767,1.767767 -2.236584,1.29895 -2.5,0.663008 -2.5,0 c 0,-0.663008 0.263416,-1.29895 0.732233,-1.767767 C -1.29895,-2.236584 -0.663008,-2.5 0,-2.5 Z"
             fill="#0173b2"
             id="path69661" />
        </g>
        <g
           clip-path="url(#clip_53)"
           id="g69667">
          <path
             transform="matrix(0.42,0,0,-0.42,322.0392,311.2743)"
             d="m 0,-2.5 c 0.663008,0 1.29895,0.263416 1.767767,0.732233 C 2.236584,-1.29895 2.5,-0.663008 2.5,0 2.5,0.663008 2.236584,1.29895 1.767767,1.767767 1.29895,2.236584 0.663008,2.5 0,2.5 -0.663008,2.5 -1.29895,2.236584 -1.767767,1.767767 -2.236584,1.29895 -2.5,0.663008 -2.5,0 c 0,-0.663008 0.263416,-1.29895 0.732233,-1.767767 C -1.29895,-2.236584 -0.663008,-2.5 0,-2.5 Z"
             fill="#0173b2"
             id="path69665" />
        </g>
        <g
           clip-path="url(#clip_54)"
           id="g69671">
          <path
             transform="matrix(0.42,0,0,-0.42,322.0392,271.58155)"
             d="m 0,-2.5 c 0.663008,0 1.29895,0.263416 1.767767,0.732233 C 2.236584,-1.29895 2.5,-0.663008 2.5,0 2.5,0.663008 2.236584,1.29895 1.767767,1.767767 1.29895,2.236584 0.663008,2.5 0,2.5 -0.663008,2.5 -1.29895,2.236584 -1.767767,1.767767 -2.236584,1.29895 -2.5,0.663008 -2.5,0 c 0,-0.663008 0.263416,-1.29895 0.732233,-1.767767 C -1.29895,-2.236584 -0.663008,-2.5 0,-2.5 Z"
             fill="#0173b2"
             id="path69669" />
        </g>
        <g
           clip-path="url(#clip_55)"
           id="g69675">
          <path
             transform="matrix(0.42,0,0,-0.42,322.0392,263.5832)"
             d="m 0,-2.5 c 0.663008,0 1.29895,0.263416 1.767767,0.732233 C 2.236584,-1.29895 2.5,-0.663008 2.5,0 2.5,0.663008 2.236584,1.29895 1.767767,1.767767 1.29895,2.236584 0.663008,2.5 0,2.5 -0.663008,2.5 -1.29895,2.236584 -1.767767,1.767767 -2.236584,1.29895 -2.5,0.663008 -2.5,0 c 0,-0.663008 0.263416,-1.29895 0.732233,-1.767767 C -1.29895,-2.236584 -0.663008,-2.5 0,-2.5 Z"
             fill="#0173b2"
             id="path69673" />
        </g>
        <g
           clip-path="url(#clip_56)"
           id="g69679">
          <path
             transform="matrix(0.42,0,0,-0.42,322.0392,229.66974)"
             d="m 0,-2.5 c 0.663008,0 1.29895,0.263416 1.767767,0.732233 C 2.236584,-1.29895 2.5,-0.663008 2.5,0 2.5,0.663008 2.236584,1.29895 1.767767,1.767767 1.29895,2.236584 0.663008,2.5 0,2.5 -0.663008,2.5 -1.29895,2.236584 -1.767767,1.767767 -2.236584,1.29895 -2.5,0.663008 -2.5,0 c 0,-0.663008 0.263416,-1.29895 0.732233,-1.767767 C -1.29895,-2.236584 -0.663008,-2.5 0,-2.5 Z"
             fill="#0173b2"
             id="path69677" />
        </g>
        <g
           clip-path="url(#clip_57)"
           id="g69683">
          <path
             transform="matrix(0.42,0,0,-0.42,322.0392,215.5737)"
             d="m 0,-2.5 c 0.663008,0 1.29895,0.263416 1.767767,0.732233 C 2.236584,-1.29895 2.5,-0.663008 2.5,0 2.5,0.663008 2.236584,1.29895 1.767767,1.767767 1.29895,2.236584 0.663008,2.5 0,2.5 -0.663008,2.5 -1.29895,2.236584 -1.767767,1.767767 -2.236584,1.29895 -2.5,0.663008 -2.5,0 c 0,-0.663008 0.263416,-1.29895 0.732233,-1.767767 C -1.29895,-2.236584 -0.663008,-2.5 0,-2.5 Z"
             fill="#0173b2"
             id="path69681" />
        </g>
        <g
           clip-path="url(#clip_58)"
           id="g69687">
          <path
             transform="matrix(0.42,0,0,-0.42,322.0392,296.48359)"
             d="m 0,-2.5 c 0.663008,0 1.29895,0.263416 1.767767,0.732233 C 2.236584,-1.29895 2.5,-0.663008 2.5,0 2.5,0.663008 2.236584,1.29895 1.767767,1.767767 1.29895,2.236584 0.663008,2.5 0,2.5 -0.663008,2.5 -1.29895,2.236584 -1.767767,1.767767 -2.236584,1.29895 -2.5,0.663008 -2.5,0 c 0,-0.663008 0.263416,-1.29895 0.732233,-1.767767 C -1.29895,-2.236584 -0.663008,-2.5 0,-2.5 Z"
             fill="#0173b2"
             id="path69685" />
        </g>
        <g
           clip-path="url(#clip_59)"
           id="g69691">
          <path
             transform="matrix(0.42,0,0,-0.42,322.0392,247.55751)"
             d="m 0,-2.5 c 0.663008,0 1.29895,0.263416 1.767767,0.732233 C 2.236584,-1.29895 2.5,-0.663008 2.5,0 2.5,0.663008 2.236584,1.29895 1.767767,1.767767 1.29895,2.236584 0.663008,2.5 0,2.5 -0.663008,2.5 -1.29895,2.236584 -1.767767,1.767767 -2.236584,1.29895 -2.5,0.663008 -2.5,0 c 0,-0.663008 0.263416,-1.29895 0.732233,-1.767767 C -1.29895,-2.236584 -0.663008,-2.5 0,-2.5 Z"
             fill="#0173b2"
             id="path69689" />
        </g>
        <g
           clip-path="url(#clip_60)"
           id="g69695">
          <path
             transform="matrix(0.42,0,0,-0.42,322.0392,258.0837)"
             d="m 0,-2.5 c 0.663008,0 1.29895,0.263416 1.767767,0.732233 C 2.236584,-1.29895 2.5,-0.663008 2.5,0 2.5,0.663008 2.236584,1.29895 1.767767,1.767767 1.29895,2.236584 0.663008,2.5 0,2.5 -0.663008,2.5 -1.29895,2.236584 -1.767767,1.767767 -2.236584,1.29895 -2.5,0.663008 -2.5,0 c 0,-0.663008 0.263416,-1.29895 0.732233,-1.767767 C -1.29895,-2.236584 -0.663008,-2.5 0,-2.5 Z"
             fill="#0173b2"
             id="path69693" />
        </g>
        <g
           clip-path="url(#clip_61)"
           id="g69699">
          <path
             transform="matrix(0.42,0,0,-0.42,322.0392,284.95399)"
             d="m 0,-2.5 c 0.663008,0 1.29895,0.263416 1.767767,0.732233 C 2.236584,-1.29895 2.5,-0.663008 2.5,0 2.5,0.663008 2.236584,1.29895 1.767767,1.767767 1.29895,2.236584 0.663008,2.5 0,2.5 -0.663008,2.5 -1.29895,2.236584 -1.767767,1.767767 -2.236584,1.29895 -2.5,0.663008 -2.5,0 c 0,-0.663008 0.263416,-1.29895 0.732233,-1.767767 C -1.29895,-2.236584 -0.663008,-2.5 0,-2.5 Z"
             fill="#0173b2"
             id="path69697" />
        </g>
        <g
           clip-path="url(#clip_62)"
           id="g69703">
          <path
             transform="matrix(0.42,0,0,-0.42,320.19297,310.12617)"
             d="m 0,-2.5 c 0.663008,0 1.29895,0.263416 1.767767,0.732233 C 2.236584,-1.29895 2.5,-0.663008 2.5,0 2.5,0.663008 2.236584,1.29895 1.767767,1.767767 1.29895,2.236584 0.663008,2.5 0,2.5 -0.663008,2.5 -1.29895,2.236584 -1.767767,1.767767 -2.236584,1.29895 -2.5,0.663008 -2.5,0 c 0,-0.663008 0.263416,-1.29895 0.732233,-1.767767 C -1.29895,-2.236584 -0.663008,-2.5 0,-2.5 Z"
             fill="#0173b2"
             id="path69701" />
        </g>
        <g
           clip-path="url(#clip_63)"
           id="g69707">
          <path
             transform="matrix(0.42,0,0,-0.42,322.0392,235.44904)"
             d="m 0,-2.5 c 0.663008,0 1.29895,0.263416 1.767767,0.732233 C 2.236584,-1.29895 2.5,-0.663008 2.5,0 2.5,0.663008 2.236584,1.29895 1.767767,1.767767 1.29895,2.236584 0.663008,2.5 0,2.5 -0.663008,2.5 -1.29895,2.236584 -1.767767,1.767767 -2.236584,1.29895 -2.5,0.663008 -2.5,0 c 0,-0.663008 0.263416,-1.29895 0.732233,-1.767767 C -1.29895,-2.236584 -0.663008,-2.5 0,-2.5 Z"
             fill="#0173b2"
             id="path69705" />
        </g>
        <g
           clip-path="url(#clip_64)"
           id="g69711">
          <path
             transform="matrix(0.42,0,0,-0.42,322.0392,218.90236)"
             d="m 0,-2.5 c 0.663008,0 1.29895,0.263416 1.767767,0.732233 C 2.236584,-1.29895 2.5,-0.663008 2.5,0 2.5,0.663008 2.236584,1.29895 1.767767,1.767767 1.29895,2.236584 0.663008,2.5 0,2.5 -0.663008,2.5 -1.29895,2.236584 -1.767767,1.767767 -2.236584,1.29895 -2.5,0.663008 -2.5,0 c 0,-0.663008 0.263416,-1.29895 0.732233,-1.767767 C -1.29895,-2.236584 -0.663008,-2.5 0,-2.5 Z"
             fill="#0173b2"
             id="path69709" />
        </g>
      </g>
      <g
         clip-path="url(#clip_65)"
         id="g69779">
        <g
           clip-path="url(#clip_66)"
           id="g69717">
          <path
             transform="matrix(0.42,0,0,-0.42,351.813,233.09487)"
             d="m 0,-2.5 c 0.663008,0 1.29895,0.263416 1.767767,0.732233 C 2.236584,-1.29895 2.5,-0.663008 2.5,0 2.5,0.663008 2.236584,1.29895 1.767767,1.767767 1.29895,2.236584 0.663008,2.5 0,2.5 -0.663008,2.5 -1.29895,2.236584 -1.767767,1.767767 -2.236584,1.29895 -2.5,0.663008 -2.5,0 c 0,-0.663008 0.263416,-1.29895 0.732233,-1.767767 C -1.29895,-2.236584 -0.663008,-2.5 0,-2.5 Z"
             fill="#0173b2"
             id="path69715" />
        </g>
        <g
           clip-path="url(#clip_67)"
           id="g69721">
          <path
             transform="matrix(0.42,0,0,-0.42,351.813,302.62953)"
             d="m 0,-2.5 c 0.663008,0 1.29895,0.263416 1.767767,0.732233 C 2.236584,-1.29895 2.5,-0.663008 2.5,0 2.5,0.663008 2.236584,1.29895 1.767767,1.767767 1.29895,2.236584 0.663008,2.5 0,2.5 -0.663008,2.5 -1.29895,2.236584 -1.767767,1.767767 -2.236584,1.29895 -2.5,0.663008 -2.5,0 c 0,-0.663008 0.263416,-1.29895 0.732233,-1.767767 C -1.29895,-2.236584 -0.663008,-2.5 0,-2.5 Z"
             fill="#0173b2"
             id="path69719" />
        </g>
        <g
           clip-path="url(#clip_68)"
           id="g69725">
          <path
             transform="matrix(0.42,0,0,-0.42,351.813,271.51405)"
             d="m 0,-2.5 c 0.663008,0 1.29895,0.263416 1.767767,0.732233 C 2.236584,-1.29895 2.5,-0.663008 2.5,0 2.5,0.663008 2.236584,1.29895 1.767767,1.767767 1.29895,2.236584 0.663008,2.5 0,2.5 -0.663008,2.5 -1.29895,2.236584 -1.767767,1.767767 -2.236584,1.29895 -2.5,0.663008 -2.5,0 c 0,-0.663008 0.263416,-1.29895 0.732233,-1.767767 C -1.29895,-2.236584 -0.663008,-2.5 0,-2.5 Z"
             fill="#0173b2"
             id="path69723" />
        </g>
        <g
           clip-path="url(#clip_69)"
           id="g69729">
          <path
             transform="matrix(0.42,0,0,-0.42,349.8291,249.3907)"
             d="m 0,-2.5 c 0.663008,0 1.29895,0.263416 1.767767,0.732233 C 2.236584,-1.29895 2.5,-0.663008 2.5,0 2.5,0.663008 2.236584,1.29895 1.767767,1.767767 1.29895,2.236584 0.663008,2.5 0,2.5 -0.663008,2.5 -1.29895,2.236584 -1.767767,1.767767 -2.236584,1.29895 -2.5,0.663008 -2.5,0 c 0,-0.663008 0.263416,-1.29895 0.732233,-1.767767 C -1.29895,-2.236584 -0.663008,-2.5 0,-2.5 Z"
             fill="#0173b2"
             id="path69727" />
        </g>
        <g
           clip-path="url(#clip_70)"
           id="g69733">
          <path
             transform="matrix(0.42,0,0,-0.42,351.813,283.96989)"
             d="m 0,-2.5 c 0.663008,0 1.29895,0.263416 1.767767,0.732233 C 2.236584,-1.29895 2.5,-0.663008 2.5,0 2.5,0.663008 2.236584,1.29895 1.767767,1.767767 1.29895,2.236584 0.663008,2.5 0,2.5 -0.663008,2.5 -1.29895,2.236584 -1.767767,1.767767 -2.236584,1.29895 -2.5,0.663008 -2.5,0 c 0,-0.663008 0.263416,-1.29895 0.732233,-1.767767 C -1.29895,-2.236584 -0.663008,-2.5 0,-2.5 Z"
             fill="#0173b2"
             id="path69731" />
        </g>
        <g
           clip-path="url(#clip_71)"
           id="g69737">
          <path
             transform="matrix(0.42,0,0,-0.42,349.6108,283.86375)"
             d="m 0,-2.5 c 0.663008,0 1.29895,0.263416 1.767767,0.732233 C 2.236584,-1.29895 2.5,-0.663008 2.5,0 2.5,0.663008 2.236584,1.29895 1.767767,1.767767 1.29895,2.236584 0.663008,2.5 0,2.5 -0.663008,2.5 -1.29895,2.236584 -1.767767,1.767767 -2.236584,1.29895 -2.5,0.663008 -2.5,0 c 0,-0.663008 0.263416,-1.29895 0.732233,-1.767767 C -1.29895,-2.236584 -0.663008,-2.5 0,-2.5 Z"
             fill="#0173b2"
             id="path69735" />
        </g>
        <g
           clip-path="url(#clip_72)"
           id="g69741">
          <path
             transform="matrix(0.42,0,0,-0.42,351.813,296.92744)"
             d="m 0,-2.5 c 0.663008,0 1.29895,0.263416 1.767767,0.732233 C 2.236584,-1.29895 2.5,-0.663008 2.5,0 2.5,0.663008 2.236584,1.29895 1.767767,1.767767 1.29895,2.236584 0.663008,2.5 0,2.5 -0.663008,2.5 -1.29895,2.236584 -1.767767,1.767767 -2.236584,1.29895 -2.5,0.663008 -2.5,0 c 0,-0.663008 0.263416,-1.29895 0.732233,-1.767767 C -1.29895,-2.236584 -0.663008,-2.5 0,-2.5 Z"
             fill="#0173b2"
             id="path69739" />
        </g>
        <g
           clip-path="url(#clip_73)"
           id="g69745">
          <path
             transform="matrix(0.42,0,0,-0.42,351.813,218.38137)"
             d="m 0,-2.5 c 0.663008,0 1.29895,0.263416 1.767767,0.732233 C 2.236584,-1.29895 2.5,-0.663008 2.5,0 2.5,0.663008 2.236584,1.29895 1.767767,1.767767 1.29895,2.236584 0.663008,2.5 0,2.5 -0.663008,2.5 -1.29895,2.236584 -1.767767,1.767767 -2.236584,1.29895 -2.5,0.663008 -2.5,0 c 0,-0.663008 0.263416,-1.29895 0.732233,-1.767767 C -1.29895,-2.236584 -0.663008,-2.5 0,-2.5 Z"
             fill="#0173b2"
             id="path69743" />
        </g>
        <g
           clip-path="url(#clip_74)"
           id="g69749">
          <path
             transform="matrix(0.42,0,0,-0.42,351.813,308.5921)"
             d="m 0,-2.5 c 0.663008,0 1.29895,0.263416 1.767767,0.732233 C 2.236584,-1.29895 2.5,-0.663008 2.5,0 2.5,0.663008 2.236584,1.29895 1.767767,1.767767 1.29895,2.236584 0.663008,2.5 0,2.5 -0.663008,2.5 -1.29895,2.236584 -1.767767,1.767767 -2.236584,1.29895 -2.5,0.663008 -2.5,0 c 0,-0.663008 0.263416,-1.29895 0.732233,-1.767767 C -1.29895,-2.236584 -0.663008,-2.5 0,-2.5 Z"
             fill="#0173b2"
             id="path69747" />
        </g>
        <g
           clip-path="url(#clip_75)"
           id="g69753">
          <path
             transform="matrix(0.42,0,0,-0.42,351.813,250.30728)"
             d="m 0,-2.5 c 0.663008,0 1.29895,0.263416 1.767767,0.732233 C 2.236584,-1.29895 2.5,-0.663008 2.5,0 2.5,0.663008 2.236584,1.29895 1.767767,1.767767 1.29895,2.236584 0.663008,2.5 0,2.5 -0.663008,2.5 -1.29895,2.236584 -1.767767,1.767767 -2.236584,1.29895 -2.5,0.663008 -2.5,0 c 0,-0.663008 0.263416,-1.29895 0.732233,-1.767767 C -1.29895,-2.236584 -0.663008,-2.5 0,-2.5 Z"
             fill="#0173b2"
             id="path69751" />
        </g>
        <g
           clip-path="url(#clip_76)"
           id="g69757">
          <path
             transform="matrix(0.42,0,0,-0.42,351.813,224.02556)"
             d="m 0,-2.5 c 0.663008,0 1.29895,0.263416 1.767767,0.732233 C 2.236584,-1.29895 2.5,-0.663008 2.5,0 2.5,0.663008 2.236584,1.29895 1.767767,1.767767 1.29895,2.236584 0.663008,2.5 0,2.5 -0.663008,2.5 -1.29895,2.236584 -1.767767,1.767767 -2.236584,1.29895 -2.5,0.663008 -2.5,0 c 0,-0.663008 0.263416,-1.29895 0.732233,-1.767767 C -1.29895,-2.236584 -0.663008,-2.5 0,-2.5 Z"
             fill="#0173b2"
             id="path69755" />
        </g>
        <g
           clip-path="url(#clip_77)"
           id="g69761">
          <path
             transform="matrix(0.42,0,0,-0.42,351.813,278.33534)"
             d="m 0,-2.5 c 0.663008,0 1.29895,0.263416 1.767767,0.732233 C 2.236584,-1.29895 2.5,-0.663008 2.5,0 2.5,0.663008 2.236584,1.29895 1.767767,1.767767 1.29895,2.236584 0.663008,2.5 0,2.5 -0.663008,2.5 -1.29895,2.236584 -1.767767,1.767767 -2.236584,1.29895 -2.5,0.663008 -2.5,0 c 0,-0.663008 0.263416,-1.29895 0.732233,-1.767767 C -1.29895,-2.236584 -0.663008,-2.5 0,-2.5 Z"
             fill="#0173b2"
             id="path69759" />
        </g>
        <g
           clip-path="url(#clip_78)"
           id="g69765">
          <path
             transform="matrix(0.42,0,0,-0.42,351.813,306.29585)"
             d="m 0,-2.5 c 0.663008,0 1.29895,0.263416 1.767767,0.732233 C 2.236584,-1.29895 2.5,-0.663008 2.5,0 2.5,0.663008 2.236584,1.29895 1.767767,1.767767 1.29895,2.236584 0.663008,2.5 0,2.5 -0.663008,2.5 -1.29895,2.236584 -1.767767,1.767767 -2.236584,1.29895 -2.5,0.663008 -2.5,0 c 0,-0.663008 0.263416,-1.29895 0.732233,-1.767767 C -1.29895,-2.236584 -0.663008,-2.5 0,-2.5 Z"
             fill="#0173b2"
             id="path69763" />
        </g>
        <g
           clip-path="url(#clip_79)"
           id="g69769">
          <path
             transform="matrix(0.42,0,0,-0.42,351.813,229.37067)"
             d="m 0,-2.5 c 0.663008,0 1.29895,0.263416 1.767767,0.732233 C 2.236584,-1.29895 2.5,-0.663008 2.5,0 2.5,0.663008 2.236584,1.29895 1.767767,1.767767 1.29895,2.236584 0.663008,2.5 0,2.5 -0.663008,2.5 -1.29895,2.236584 -1.767767,1.767767 -2.236584,1.29895 -2.5,0.663008 -2.5,0 c 0,-0.663008 0.263416,-1.29895 0.732233,-1.767767 C -1.29895,-2.236584 -0.663008,-2.5 0,-2.5 Z"
             fill="#0173b2"
             id="path69767" />
        </g>
        <g
           clip-path="url(#clip_80)"
           id="g69773">
          <path
             transform="matrix(0.42,0,0,-0.42,351.813,261.37379)"
             d="m 0,-2.5 c 0.663008,0 1.29895,0.263416 1.767767,0.732233 C 2.236584,-1.29895 2.5,-0.663008 2.5,0 2.5,0.663008 2.236584,1.29895 1.767767,1.767767 1.29895,2.236584 0.663008,2.5 0,2.5 -0.663008,2.5 -1.29895,2.236584 -1.767767,1.767767 -2.236584,1.29895 -2.5,0.663008 -2.5,0 c 0,-0.663008 0.263416,-1.29895 0.732233,-1.767767 C -1.29895,-2.236584 -0.663008,-2.5 0,-2.5 Z"
             fill="#0173b2"
             id="path69771" />
        </g>
        <g
           clip-path="url(#clip_81)"
           id="g69777">
          <path
             transform="matrix(0.42,0,0,-0.42,350.2249,295.47056)"
             d="m 0,-2.5 c 0.663008,0 1.29895,0.263416 1.767767,0.732233 C 2.236584,-1.29895 2.5,-0.663008 2.5,0 2.5,0.663008 2.236584,1.29895 1.767767,1.767767 1.29895,2.236584 0.663008,2.5 0,2.5 -0.663008,2.5 -1.29895,2.236584 -1.767767,1.767767 -2.236584,1.29895 -2.5,0.663008 -2.5,0 c 0,-0.663008 0.263416,-1.29895 0.732233,-1.767767 C -1.29895,-2.236584 -0.663008,-2.5 0,-2.5 Z"
             fill="#0173b2"
             id="path69775" />
        </g>
      </g>
      <g
         id="use69781"
         style="fill:#333333"
         transform="matrix(5.04,0,0,-5.04,371.9676,270.27516)">
        <path
           transform="matrix(0.001,0,0,0.001,0,0)"
           d="m 487,273 c 0,66 -14,117 -41,155 -28,38 -65,57 -112,57 -48,0 -85,-19 -112,-57 -28,-38 -41,-89 -41,-155 0,-66 13,-118 41,-156 27,-38 64,-56 112,-56 47,0 84,18 112,56 27,38 41,90 41,156 z M 181,464 c 18,32 42,56 71,72 29,16 64,24 104,24 66,0 120,-27 162,-79 41,-53 62,-122 62,-208 0,-86 -21,-156 -62,-208 -42,-52 -96,-78 -162,-78 -40,0 -75,8 -104,23 -29,15 -53,39 -71,72 V 0 H 91 v 760 h 90 z"
           id="path75685" />
      </g>
      <g
         id="use69783"
         style="fill:#333333"
         transform="matrix(5.04,0,0,-5.04,375.168,270.27516)">
        <path
           transform="matrix(0.001,0,0,0.001,0,0)"
           d="m 94,547 h 90 V 0 H 94 Z m 0,213 h 90 V 646 H 94 Z"
           id="path75651" />
      </g>
      <g
         id="use69785"
         style="fill:#333333"
         transform="matrix(5.04,0,0,-5.04,376.56913,270.27516)">
        <path
           transform="matrix(0.001,0,0,0.001,0,0)"
           d="M 183,702 V 547 H 368 V 477 H 183 V 180 c 0,-45 6,-74 18,-86 12,-13 37,-19 75,-19 h 92 V 0 H 276 C 206,0 158,13 132,39 106,65 93,112 93,180 V 477 H 27 v 70 h 66 v 155 z"
           id="path75681" />
      </g>
      <g
         id="use69787"
         style="fill:#333333"
         transform="matrix(5.04,0,0,-5.04,378.5448,270.27516)">
        <path
           transform="matrix(0.001,0,0,0.001,0,0)"
           d="m 443,531 v -85 c -26,12 -52,22 -79,29 -28,6 -56,10 -85,10 -45,0 -79,-7 -101,-21 -22,-14 -33,-34 -33,-61 0,-21 8,-37 24,-49 16,-12 48,-24 96,-34 l 31,-7 c 64,-14 109,-34 136,-58 26,-25 40,-60 40,-104 0,-51 -20,-91 -60,-120 -40,-30 -96,-44 -166,-44 -30,0 -60,3 -92,8 C 122,0 89,8 54,20 v 93 c 33,-18 66,-31 98,-39 32,-9 64,-13 96,-13 42,0 75,7 98,21 22,14 34,35 34,62 0,24 -9,43 -25,56 -16,13 -52,26 -108,38 l -31,7 c -56,12 -97,30 -121,54 -25,24 -37,57 -37,100 0,51 18,91 54,119 36,28 88,42 156,42 33,0 64,-3 94,-8 29,-5 56,-12 81,-21 z"
           id="path75729" />
      </g>
      <path
         transform="matrix(0.42,0,0,-0.42,223.338,340.462)"
         d="m 356.93309,150.6397 c 0.79561,0 1.55874,0.31608 2.12131,0.87867 0.56258,0.56258 0.87869,1.3257 0.87869,2.12133 0,0.7956 -0.31611,1.55873 -0.87869,2.1213 -0.56257,0.5626 -1.3257,0.8787 -2.12131,0.8787 -0.7956,0 -1.55875,-0.3161 -2.12131,-0.8787 -0.56259,-0.56257 -0.87869,-1.3257 -0.87869,-2.1213 0,-0.79563 0.3161,-1.55875 0.87869,-2.12133 0.56256,-0.56259 1.32571,-0.87867 2.12131,-0.87867 z"
         fill="#0173b2"
         id="path69789" />
      <path
         transform="matrix(0.42,0,0,-0.42,223.338,340.462)"
         stroke-width="1"
         stroke-linecap="butt"
         stroke-linejoin="round"
         fill="none"
         stroke="#0173b2"
         d="m 356.93309,150.6397 c 0.79561,0 1.55874,0.31608 2.12131,0.87867 0.56258,0.56258 0.87869,1.3257 0.87869,2.12133 0,0.7956 -0.31611,1.55873 -0.87869,2.1213 -0.56257,0.5626 -1.3257,0.8787 -2.12131,0.8787 -0.7956,0 -1.55875,-0.3161 -2.12131,-0.8787 -0.56259,-0.56257 -0.87869,-1.3257 -0.87869,-2.1213 0,-0.79563 0.3161,-1.55875 0.87869,-2.12133 0.56256,-0.56259 1.32571,-0.87867 2.12131,-0.87867 z"
         id="path69791" />
      <g
         id="use69793"
         style="fill:#333333"
         transform="matrix(4.62,0,0,-4.62,381.5659,277.1461)">
        <path
           transform="matrix(0.001,0,0,0.001,0,0)"
           d="M 378,643 129,254 h 249 z m -26,86 H 476 V 254 H 580 V 172 H 476 V 0 H 378 V 172 H 49 v 95 z"
           id="path75717" />
      </g>
    </g>
  </g>
</svg>
