<svg xmlns:inkscape="http://www.inkscape.org/namespaces/inkscape" xmlns:sodipodi="http://sodipodi.sourceforge.net/DTD/sodipodi-0.dtd" xmlns="http://www.w3.org/2000/svg" xmlns:svg="http://www.w3.org/2000/svg" width="108.42426mm" height="40.6591mm" viewBox="0 0 108.42426 40.6591" version="1.1" id="svg95646" inkscape:version="1.2.2 (b0a84865, 2022-12-01)" sodipodi:docname="figure2.svg">
  <sodipodi:namedview id="namedview95648" pagecolor="#ffffff" bordercolor="#999999" borderopacity="1" inkscape:showpageshadow="0" inkscape:pageopacity="0" inkscape:pagecheckerboard="0" inkscape:deskcolor="#d1d1d1" inkscape:document-units="mm" showgrid="false" inkscape:zoom="0.914906" inkscape:cx="-13.116101" inkscape:cy="445.40095" inkscape:window-width="1390" inkscape:window-height="1205" inkscape:window-x="0" inkscape:window-y="25" inkscape:window-maximized="0" inkscape:current-layer="layer1"/>
  <defs id="defs95643">
    <style><![CDATA[
       #MyRect {
         stroke: black;
         fill: red;
       }
    ]]></style>
    <clipPath id="clip_2">
      <path transform="matrix(0.1600752,0,0,-0.1600752,152.32465,187.1037)" d="M 0,0 H 1920 V 720 H 0 Z" id="path89804"/>
    </clipPath>
    <clipPath id="clip_3">
      <path transform="matrix(0.1600752,0,0,-0.1600752,152.32465,187.1037)" d="M 0,0 H 1920 V 720 H 0 Z" id="path89807"/>
    </clipPath>
    <clipPath id="clip_8">
      <path transform="matrix(0.1600752,0,0,-0.1600752,152.32465,187.1037)" d="m 290.852,323.484 h 84.7635 v 41.26339 H 290.852 Z" id="path89828"/>
    </clipPath>
    <clipPath id="clip_9">
      <path transform="matrix(0.1600752,0,0,-0.1600752,152.32465,187.1037)" d="m 331.7337,281.2832 v 126.9051 h 3 V 281.2832 Z" id="path89831"/>
    </clipPath>
    <clipPath id="clip_10">
      <path transform="matrix(0.1600752,0,0,-0.1600752,152.32465,187.1037)" d="M 0,0 H 1920 V 720 H 0 Z" id="path89834"/>
    </clipPath>
    <clipPath id="clip_11">
      <path transform="matrix(0.1600752,0,0,-0.1600752,152.32465,187.1037)" d="m 375.8575,322.364 h -84.7636 v 3 h 84.7636 z" id="path89837"/>
    </clipPath>
    <clipPath id="clip_12">
      <path transform="matrix(0.1600752,0,0,-0.1600752,152.32465,187.1037)" d="M 0,0 H 1920 V 720 H 0 Z" id="path89840"/>
    </clipPath>
    <clipPath id="clip_13">
      <path transform="matrix(0.1600752,0,0,-0.1600752,152.32465,187.1037)" d="m 375.8575,362.8673 h -84.7636 v 3 h 84.7636 z" id="path89843"/>
    </clipPath>
    <clipPath id="clip_14">
      <path transform="matrix(0.1600752,0,0,-0.1600752,152.32465,187.1037)" d="M 0,0 H 1920 V 720 H 0 Z" id="path89846"/>
    </clipPath>
    <clipPath id="clip_15">
      <path transform="matrix(0.1600752,0,0,-0.1600752,152.32465,187.1037)" d="m 290.8519,281.2832 h 84.76365 V 408.1883 H 290.8519 Z" id="path89849"/>
    </clipPath>
    <clipPath id="clip_16">
      <path transform="matrix(0.1600752,0,0,-0.1600752,152.32465,187.1037)" d="M 0,0 H 1920 V 720 H 0 Z" id="path89852"/>
    </clipPath>
    <clipPath id="clip_18">
      <path transform="matrix(0.1600752,0,0,-0.1600752,152.32465,187.1037)" d="m 951.2437,393.1954 v 126.9052 h 3 V 393.1954 Z" id="path89857"/>
    </clipPath>
    <clipPath id="clip_19">
      <path transform="matrix(0.1600752,0,0,-0.1600752,152.32465,187.1037)" d="M 0,0 H 1920 V 720 H 0 Z" id="path89860"/>
    </clipPath>
    <clipPath id="clip_20">
      <path transform="matrix(0.1600752,0,0,-0.1600752,152.32465,187.1037)" d="m 995.3675,434.2762 h -84.7636 v 3 h 84.7636 z" id="path89863"/>
    </clipPath>
    <clipPath id="clip_21">
      <path transform="matrix(0.1600752,0,0,-0.1600752,152.32465,187.1037)" d="M 0,0 H 1920 V 720 H 0 Z" id="path89866"/>
    </clipPath>
    <clipPath id="clip_22">
      <path transform="matrix(0.1600752,0,0,-0.1600752,152.32465,187.1037)" d="m 995.3675,474.7796 h -84.7636 v 3 h 84.7636 z" id="path89869"/>
    </clipPath>
    <clipPath id="clip_23">
      <path transform="matrix(0.1600752,0,0,-0.1600752,152.32465,187.1037)" d="M 0,0 H 1920 V 720 H 0 Z" id="path89872"/>
    </clipPath>
    <clipPath id="clip_24">
      <path transform="matrix(0.1600752,0,0,-0.1600752,152.32465,187.1037)" d="m 910.3618,393.1954 h 84.7637 v 126.9051 h -84.7637 z" id="path89875"/>
    </clipPath>
    <clipPath id="clip_25">
      <path transform="matrix(0.1600752,0,0,-0.1600752,152.32465,187.1037)" d="M 0,0 H 1920 V 720 H 0 Z" id="path89878"/>
    </clipPath>
    <clipPath id="clip_26">
      <path transform="matrix(0.1600752,0,0,-0.1600752,152.32465,187.1037)" d="m 1394.179,444.8466 h -84.763 v 3 h 84.763 z" id="path89881"/>
    </clipPath>
    <clipPath id="clip_27">
      <path transform="matrix(0.1600752,0,0,-0.1600752,152.32465,187.1037)" d="M 0,0 H 1920 V 720 H 0 Z" id="path89884"/>
    </clipPath>
    <clipPath id="clip_28">
      <path transform="matrix(0.1600752,0,0,-0.1600752,152.32465,187.1037)" d="m 1394.179,485.3499 h -84.763 v 3 h 84.763 z" id="path89887"/>
    </clipPath>
    <clipPath id="clip_29">
      <path transform="matrix(0.1600752,0,0,-0.1600752,152.32465,187.1037)" d="M 0,0 H 1920 V 720 H 0 Z" id="path89890"/>
    </clipPath>
    <clipPath id="clip_30">
      <path transform="matrix(0.1600752,0,0,-0.1600752,152.32465,187.1037)" d="M 0,0 H 1920 V 720 H 0 Z" id="path89893"/>
    </clipPath>
    <clipPath id="clip_31">
      <path transform="matrix(0.1600752,0,0,-0.1600752,152.32465,187.1037)" d="m 1122.759,226.9254 h -84.764 v 3 h 84.764 z" id="path89896"/>
    </clipPath>
    <clipPath id="clip_32">
      <path transform="matrix(0.1600752,0,0,-0.1600752,152.32465,187.1037)" d="M 0,0 H 1920 V 720 H 0 Z" id="path89899"/>
    </clipPath>
    <clipPath id="clip_33">
      <path transform="matrix(0.1600752,0,0,-0.1600752,152.32465,187.1037)" d="m 1122.759,267.4287 h -84.764 v 3 h 84.764 z" id="path89902"/>
    </clipPath>
    <clipPath id="clip_34">
      <path transform="matrix(0.1600752,0,0,-0.1600752,152.32465,187.1037)" d="M 0,0 H 1920 V 720 H 0 Z" id="path89905"/>
    </clipPath>
    <clipPath id="clip_35">
      <path transform="matrix(0.1600752,0,0,-0.1600752,152.32465,187.1037)" d="M 0,0 H 1920 V 720 H 0 Z" id="path89908"/>
    </clipPath>
    <clipPath id="clip_36">
      <path transform="matrix(0.1600752,0,0,-0.1600752,152.32465,187.1037)" d="m 1255.48,226.9254 h -52.088 v 3 h 52.088 z" id="path89911"/>
    </clipPath>
    <clipPath id="clip_37">
      <path transform="matrix(0.1600752,0,0,-0.1600752,152.32465,187.1037)" d="M 0,0 H 1920 V 720 H 0 Z" id="path89914"/>
    </clipPath>
    <clipPath id="clip_38">
      <path transform="matrix(0.1600752,0,0,-0.1600752,152.32465,187.1037)" d="m 1255.48,267.4287 h -52.088 v 3 h 52.088 z" id="path89917"/>
    </clipPath>
    <clipPath id="clip_39">
      <path transform="matrix(0.1600752,0,0,-0.1600752,152.32465,187.1037)" d="M 0,0 H 1920 V 720 H 0 Z" id="path89920"/>
    </clipPath>
    <clipPath id="clip_40">
      <path transform="matrix(0.1600752,0,0,-0.1600752,152.32465,187.1037)" d="M 0,0 H 1920 V 720 H 0 Z" id="path89923"/>
    </clipPath>
    <clipPath id="clip_41">
      <path transform="matrix(0.1600752,0,0,-0.1600752,152.32465,187.1037)" d="m 1127.831,435.7892 h -52.088 v 3 h 52.088 z" id="path89928"/>
    </clipPath>
    <clipPath id="clip_42">
      <path transform="matrix(0.1600752,0,0,-0.1600752,152.32465,187.1037)" d="M 0,0 H 1920 V 720 H 0 Z" id="path89931"/>
    </clipPath>
    <clipPath id="clip_43">
      <path transform="matrix(0.1600752,0,0,-0.1600752,152.32465,187.1037)" d="m 1127.831,476.2926 h -52.088 v 3 h 52.088 z" id="path89934"/>
    </clipPath>
    <clipPath id="clip_44">
      <path transform="matrix(0.1600752,0,0,-0.1600752,152.32465,187.1037)" d="M 0,0 H 1920 V 720 H 0 Z" id="path89937"/>
    </clipPath>
    <clipPath id="clip_45">
      <path transform="matrix(0.1600752,0,0,-0.1600752,152.32465,187.1037)" d="m 1075.501,394.7084 h 52.5719 v 126.9051 h -52.5719 z" id="path89940"/>
    </clipPath>
    <clipPath id="clip_46">
      <path transform="matrix(0.1600752,0,0,-0.1600752,152.32465,187.1037)" d="M 0,0 H 1920 V 720 H 0 Z" id="path89943"/>
    </clipPath>
    <clipPath id="clip_47">
      <path transform="matrix(0.1600752,0,0,-0.1600752,152.32465,187.1037)" d="m 1612.5,317.6568 h 85.3423 v 42.5033 H 1612.5 Z" id="path89946"/>
    </clipPath>
    <clipPath id="clip_48">
      <path transform="matrix(0.1600752,0,0,-0.1600752,152.32465,187.1037)" d="m 1653.382,316.4667 v 43.6439 h 3 v -43.6439 z" id="path89949"/>
    </clipPath>
    <clipPath id="clip_49">
      <path transform="matrix(0.1600752,0,0,-0.1600752,152.32465,187.1037)" d="M 0,0 H 1920 V 720 H 0 Z" id="path89952"/>
    </clipPath>
    <clipPath id="clip_50">
      <path transform="matrix(0.1600752,0,0,-0.1600752,152.32465,187.1037)" d="m 1612.5,316.6199 h 84.7637 v 43.57118 H 1612.5 Z" id="path89955"/>
    </clipPath>
    <clipPath id="clip_51">
      <path transform="matrix(0.1600752,0,0,-0.1600752,152.32465,187.1037)" d="M 0,0 H 1920 V 720 H 0 Z" id="path89958"/>
    </clipPath>
  </defs>
  <g inkscape:label="Layer 1" inkscape:groupmode="layer" id="layer1" color="rgb(209, 209, 209)" transform="translate(-49.029347,-30.568211)">
    <g clip-path="url(#clip_2)" id="g90339" transform="matrix(0.35277777,0,0,0.35277777,-4.7074035,5.2212844)" color="rgb(209, 209, 209)">
      <g clip-path="url(#clip_3)" id="g90173" color="rgb(209, 209, 209)">
        <path transform="matrix(0.1600752,0,0,-0.1600752,152.32465,187.1037)" d="M 0,720 H 1920 V 0 H 0 Z" fill="none" id="path90103"/>
        <path id="use90105" d="m 247.33158,117.65913 h -0.39376 c -0.28862,1.31249 -0.7613,2.20518 -2.23143,2.20518 h -5.43425 l 4.41037,-5.69683 -3.8065,-5.13241 h 4.20027 c 1.74592,0 2.24464,0.65634 2.52024,2.4285 h 0.39377 v -3.29476 h -9.80517 l 4.81736,6.72071 -5.14543,6.69428 h 9.77893 z" style="fill:currentColor;stroke-width:13.1262"/>
        <path id="use90107" d="m 253.99232,105.33631 h -4.95799 l -0.39149,1.44879 0.1678,0.0375 c 0.44738,-1.01037 0.74558,-1.16011 2.21798,-1.16011 l -1.33261,4.93012 c -0.13979,0.50511 -0.35423,0.64547 -0.99729,0.7015 v 0.14903 h 2.68413 v -0.14903 l -0.32622,-0.028 c -0.3821,-0.0374 -0.49388,-0.11221 -0.49388,-0.40216 0,-0.20577 0.0745,-0.42107 0.1304,-0.61746 l 1.27687,-4.58399 h 0.54052 c 0.60565,0 0.94126,0.26194 0.94126,0.75781 0,0.12159 -0.009,0.27133 -0.028,0.43032 l 0.15842,0.0188 z" style="fill:currentColor;stroke-width:9.31958"/>
        <path id="use90109" d="m 250.85157,119.6908 h -0.74558 l 0.26095,-0.95989 c 0.009,-0.0186 0.009,-0.0653 0.009,-0.0653 0,-0.0465 -0.028,-0.0745 -0.0839,-0.0745 -0.0373,0 -0.0931,0.028 -0.13041,0.0839 -0.3356,0.50327 -0.94139,0.95989 -1.2396,1.02516 -0.22369,0.0466 -0.30745,0.13041 -0.30745,0.23294 0,0 0,0.028 0.009,0.0559 h 0.69894 l -0.72696,2.76034 c -0.0745,0.29849 -0.14903,0.5876 -0.14903,0.69013 0,0.23293 0.17705,0.3447 0.42875,0.3447 0.4845,0 0.77346,-0.27019 1.33261,-1.12797 l -0.12116,-0.0653 c -0.45662,0.58746 -0.6058,0.73663 -0.75483,0.73663 -0.0839,0 -0.13979,-0.028 -0.13979,-0.14917 0,-0.028 0.009,-0.0933 0.0186,-0.13055 l 0.81072,-3.05884 h 0.78298 z" style="fill:currentColor;stroke-width:9.31958"/>
        <path id="use90111" d="m 251.38286,119.85192 0.17705,0.0839 0.9879,-1.90129 c 0.0559,-0.11177 0.1304,-0.23293 0.1304,-0.36347 0,-0.15842 -0.0839,-0.30745 -0.26095,-0.30745 -0.27019,0 -0.34485,0.20506 -0.40998,0.42861 z" style="fill:currentColor;stroke-width:9.31958"/>
        <path id="use90113" d="M 253.37726,123.68407 Z" style="fill:currentColor;stroke-width:1.9209"/>
        <path id="use90115" d="m 258.32755,120.7043 v -0.61518 h -5.48927 v 0.61518 h 5.48927 m 0,1.86033 v -0.61504 h -5.48927 v 0.61504 z" style="fill:currentColor;stroke-width:9.31958"/>
        <path id="use90117" d="m 262.44686,123.68407 v -0.13979 c -0.69894,0 -0.88537,-0.16766 -0.88537,-0.56825 v -5.56194 l -0.0839,-0.028 -1.66822,0.84798 v 0.1304 l 0.25156,-0.0932 c 0.16781,-0.0653 0.32622,-0.11192 0.41951,-0.11192 0.19567,0 0.27958,0.13979 0.27958,0.45662 v 4.18298 c 0,0.51251 -0.19582,0.70804 -0.88537,0.7453 v 0.13979 z" style="fill:currentColor;stroke-width:9.31958"/>
        <path id="use90119" d="m 270.78458,151.07717 h -0.39376 c -0.28862,1.31249 -0.7613,2.20518 -2.23143,2.20518 h -5.43425 l 4.41037,-5.69683 -3.8065,-5.13241 h 4.20027 c 1.74592,0 2.24464,0.65634 2.52024,2.4285 h 0.39377 v -3.29476 h -9.80517 l 4.81736,6.72071 -5.14543,6.69428 h 9.77893 z" style="fill:currentColor;stroke-width:13.1262"/>
        <path id="use90121" d="m 277.44531,138.75434 h -4.95799 l -0.39149,1.44879 0.1678,0.0375 c 0.44738,-1.01037 0.74558,-1.16011 2.21798,-1.16011 l -1.33261,4.93012 c -0.13979,0.50511 -0.35423,0.64547 -0.99729,0.7015 v 0.14903 h 2.68413 v -0.14903 l -0.32622,-0.028 c -0.3821,-0.0374 -0.49388,-0.11221 -0.49388,-0.40216 0,-0.20577 0.0745,-0.42107 0.1304,-0.61746 l 1.27687,-4.58399 h 0.54052 c 0.60565,0 0.94126,0.26194 0.94126,0.75781 0,0.12159 -0.009,0.27133 -0.028,0.43032 l 0.15842,0.0188 z" style="fill:currentColor;stroke-width:9.31958"/>
        <path id="use90123" d="m 274.30456,153.10883 h -0.74558 l 0.26095,-0.95989 c 0.009,-0.0186 0.009,-0.0653 0.009,-0.0653 0,-0.0465 -0.028,-0.0745 -0.0839,-0.0745 -0.0373,0 -0.0931,0.028 -0.13041,0.0839 -0.3356,0.50327 -0.94139,0.95989 -1.2396,1.02516 -0.22369,0.0466 -0.30745,0.13041 -0.30745,0.23294 0,0 0,0.028 0.009,0.0559 h 0.69894 l -0.72696,2.76034 c -0.0745,0.29849 -0.14903,0.5876 -0.14903,0.69013 0,0.23293 0.17705,0.3447 0.42875,0.3447 0.4845,0 0.77346,-0.27019 1.33261,-1.12797 l -0.12116,-0.0653 c -0.45662,0.58746 -0.6058,0.73663 -0.75483,0.73663 -0.0839,0 -0.13979,-0.028 -0.13979,-0.14917 0,-0.028 0.009,-0.0933 0.0186,-0.13055 l 0.81072,-3.05884 h 0.78298 z" style="fill:currentColor;stroke-width:9.31958"/>
        <path id="use90125" d="m 274.83584,153.26995 0.17705,0.0839 0.9879,-1.90129 c 0.0559,-0.11177 0.1304,-0.23293 0.1304,-0.36347 0,-0.15842 -0.0839,-0.30745 -0.26095,-0.30745 -0.27019,0 -0.34485,0.20506 -0.40998,0.42861 z" style="fill:currentColor;stroke-width:9.31958"/>
        <path id="use90127" d="M 276.83027,157.1021 Z" style="fill:currentColor;stroke-width:1.9209"/>
        <path id="use90129" d="m 281.78054,154.12233 v -0.61518 h -5.48927 v 0.61518 h 5.48927 m 0,1.86033 v -0.61504 h -5.48927 v 0.61504 z" style="fill:currentColor;stroke-width:9.31958"/>
        <path id="use90131" d="m 285.89984,157.1021 v -0.13979 c -0.69894,0 -0.88537,-0.16766 -0.88537,-0.56825 v -5.56194 l -0.0839,-0.028 -1.66822,0.84798 v 0.1304 l 0.25156,-0.0931 c 0.16781,-0.0653 0.32622,-0.11192 0.41951,-0.11192 0.19567,0 0.27958,0.13979 0.27958,0.45662 v 4.18298 c 0,0.51251 -0.19582,0.70804 -0.88537,0.7453 v 0.13979 z" style="fill:currentColor;stroke-width:9.31958"/>
        <path id="use90133" d="m 229.7527,131.91415 c 0,-0.48644 -0.40761,-0.82825 -0.82825,-0.82825 -0.42064,0 -0.84148,0.32877 -0.84148,0.82825 0,0.51271 0.34181,0.84148 0.84148,0.84148 0.49948,0 0.82825,-0.39436 0.82825,-0.84148 m 3.523,0.0132 c 0,-2.4027 -1.94555,-4.34623 -4.35125,-4.34623 -2.4057,0 -4.35144,1.94353 -4.35144,4.34623 0,2.40971 1.94574,4.35786 4.35144,4.35786 2.4057,0 4.35125,-1.94815 4.35125,-4.35786 m -0.86756,0 c 0,1.92207 -1.56442,3.4903 -3.48369,3.4903 -1.91946,0 -3.48368,-1.56823 -3.48368,-3.4903 0,-1.91726 1.56422,-3.47847 3.48368,-3.47847 1.91927,0 3.48369,1.56121 3.48369,3.47847 z" style="fill:currentColor;stroke-width:13.146"/>
        <path id="use90135" d="m 201.46105,115.45614 c 0.49892,-0.2756 0.98462,-0.40699 1.50958,-0.40699 0.26258,0 0.65635,0.0527 1.22076,0.23634 0.74828,0.23635 1.44389,0.3413 1.94261,0.3413 1.01086,0 1.85087,-0.39377 2.50722,-0.98442 0.26238,-0.23635 0.4857,-0.49913 0.68259,-0.77472 l -0.2101,-0.14461 c -0.73507,0.7617 -1.26002,1.01106 -2.20519,1.01106 -0.43323,0 -0.91893,-0.14441 -1.45711,-0.2756 -0.57743,-0.13139 -1.16808,-0.26258 -1.61433,-0.26258 h -0.32827 l 0.70882,-0.74848 c 0.98442,-0.0657 1.44389,-0.18387 2.15271,-0.56462 1.99508,-1.05052 3.36026,-3.23027 3.36026,-5.27863 0,-1.77276 -1.15507,-3.11209 -2.95327,-3.11209 -0.99764,0 -2.15271,0.38075 -3.16357,1.23438 -1.43067,1.23419 -2.27068,2.94125 -2.27068,4.55639 0,1.69384 0.81377,2.81006 2.31014,3.11189 -1.19453,1.05052 -1.3127,1.14245 -2.32336,1.85128 l 0.13119,0.2101 m 6.89136,-8.52171 c 0,1.35255 -0.59066,3.23027 -1.40443,4.45143 -0.73507,1.08977 -1.61454,1.62815 -2.59916,1.62815 -0.9712,0 -1.62755,-0.85343 -1.62755,-2.17975 0,-1.31309 0.63011,-3.12511 1.39141,-4.26756 0.74808,-1.11602 1.56206,-1.64138 2.54648,-1.64138 1.05012,0 1.69325,0.76171 1.69325,2.00911 z" style="fill:currentColor;stroke-width:13.1262"/>
        <path id="use90137" d="m 212.32994,112.52261 h -0.74558 l 0.26095,-0.95989 c 0.009,-0.0186 0.009,-0.0653 0.009,-0.0653 0,-0.0465 -0.028,-0.0745 -0.0839,-0.0745 -0.0373,0 -0.0931,0.028 -0.13041,0.0839 -0.3356,0.50327 -0.94139,0.95989 -1.2396,1.02516 -0.22369,0.0466 -0.30745,0.13041 -0.30745,0.23294 0,0 0,0.028 0.009,0.0559 h 0.69894 l -0.72696,2.76034 c -0.0745,0.29849 -0.14903,0.5876 -0.14903,0.69013 0,0.23293 0.17705,0.3447 0.42875,0.3447 0.4845,0 0.77346,-0.27019 1.33261,-1.12797 l -0.12116,-0.0653 c -0.45662,0.58746 -0.6058,0.73663 -0.75483,0.73663 -0.0839,0 -0.13979,-0.028 -0.13979,-0.14917 0,-0.028 0.009,-0.0933 0.0186,-0.13055 l 0.81072,-3.05884 h 0.78298 z" style="fill:currentColor;stroke-width:9.31958"/>
        <path id="use90139" d="m 276.3913,114.87699 c -0.6436,0.97251 -1.14268,1.38 -2.0228,1.38 -0.60431,0 -1.09037,-0.23672 -1.45817,-0.72297 -0.47282,-0.63077 -0.53857,-1.14329 -0.60411,-2.14226 h 4.0458 c -0.0527,-0.70834 -0.184,-1.12725 -0.44677,-1.49385 -0.42032,-0.58968 -1.0114,-0.90497 -1.82577,-0.90497 -1.6552,0 -2.71912,1.33711 -2.71912,3.18753 0,1.81355 0.94586,2.98269 2.49583,2.98269 1.31346,0 2.23306,-0.76186 2.74537,-2.19417 l -0.21026,-0.092 m -4.05882,-1.90555 c 0.14431,-0.98173 0.65663,-1.50547 1.39222,-1.50547 0.86709,0 1.14289,0.44517 1.2874,1.50547 z" style="fill:currentColor;stroke-width:13.1358"/>
        <path id="use90141" d="m 282.88036,117.03488 v -0.19703 c -0.40708,0 -0.70934,-0.22328 -1.07714,-0.78831 l -1.68126,-2.576 1.09017,-1.57703 c 0.24955,-0.35477 0.6436,-0.56503 1.06412,-0.57806 v -0.19723 h -2.07552 v 0.19723 c 0.39406,0.0263 0.52535,0.10503 0.52535,0.28903 0,0.15774 -0.19703,0.39426 -0.48586,0.85426 -0.13149,0.19703 -0.26277,0.40728 -0.39426,0.57825 -0.0525,-0.092 -0.11805,-0.17097 -0.1838,-0.26297 -0.38103,-0.56503 -0.60431,-0.99877 -0.60431,-1.16954 0,-0.19723 0.17077,-0.276 0.56483,-0.28903 v -0.19723 h -2.71911 v 0.19723 h 0.11825 c 0.39406,0 0.60432,0.17077 1.0114,0.78831 l 1.23489,1.89252 -1.49746,2.16851 c -0.3678,0.53878 -0.52554,0.63078 -0.95888,0.67006 v 0.19703 h 1.90454 v -0.19703 c -0.38083,0 -0.52535,-0.0655 -0.52535,-0.23651 0,-0.092 0.0788,-0.24955 0.26278,-0.53877 l 1.03765,-1.61652 1.1954,1.84 c 0.0525,0.0788 0.0788,0.14452 0.0788,0.23652 0,0.23651 -0.092,0.28902 -0.52535,0.31528 v 0.19703 z" style="fill:currentColor;stroke-width:13.1358"/>
        <path id="use90143" d="m 285.24489,111.0194 -0.0788,-0.0265 c -0.69631,0.276 -1.16914,0.44677 -1.89171,0.67006 v 0.21006 c 0.11825,-0.013 0.21025,-0.013 0.32851,-0.013 0.44657,0 0.53857,0.13129 0.53857,0.74823 v 6.14436 c 0,0.68308 -0.14451,0.82759 -0.9196,0.90637 v 0.22328 h 3.17891 v -0.23631 c -0.98514,-0.0132 -1.15591,-0.15775 -1.15591,-0.98514 v -2.06229 c 0.47283,0.43334 0.77489,0.56463 1.32669,0.56463 1.5632,0 2.75839,-1.4704 2.75839,-3.37374 0,-1.62754 -0.9194,-2.79648 -2.19357,-2.79648 -0.7356,0 -1.31365,0.31529 -1.89151,1.03766 v -1.0112 m 0,1.62814 c 0,-0.39385 0.7356,-0.86628 1.33971,-0.86628 0.97212,0 1.61572,0.99757 1.61572,2.53331 0,1.44394 -0.6436,2.42828 -1.58926,2.42828 -0.61754,0 -1.36617,-0.47243 -1.36617,-0.86629 z" style="fill:currentColor;stroke-width:13.1358"/>
        <path id="use90145" d="m 294.44691,147.70965 c -0.6436,0.97251 -1.14268,1.38 -2.0228,1.38 -0.60431,0 -1.09037,-0.23672 -1.45817,-0.72297 -0.47282,-0.63077 -0.53857,-1.14329 -0.60411,-2.14226 h 4.0458 c -0.0527,-0.70834 -0.184,-1.12725 -0.44677,-1.49385 -0.42032,-0.58968 -1.0114,-0.90497 -1.82577,-0.90497 -1.6552,0 -2.71912,1.33711 -2.71912,3.18753 0,1.81355 0.94586,2.98269 2.49583,2.98269 1.31346,0 2.23306,-0.76186 2.74537,-2.19417 l -0.21026,-0.092 m -4.05882,-1.90555 c 0.14431,-0.98173 0.65663,-1.50547 1.39222,-1.50547 0.86709,0 1.14289,0.44517 1.2874,1.50547 z" style="fill:currentColor;stroke-width:13.1358"/>
        <path id="use90147" d="m 300.93596,149.86754 v -0.19703 c -0.40708,0 -0.70934,-0.22328 -1.07714,-0.78831 l -1.68126,-2.576 1.09017,-1.57703 c 0.24955,-0.35477 0.6436,-0.56503 1.06412,-0.57806 v -0.19723 h -2.07552 v 0.19723 c 0.39406,0.0263 0.52535,0.10503 0.52535,0.28903 0,0.15774 -0.19703,0.39426 -0.48586,0.85426 -0.13149,0.19703 -0.26277,0.40728 -0.39426,0.57825 -0.0525,-0.092 -0.11805,-0.17097 -0.1838,-0.26297 -0.38103,-0.56503 -0.60431,-0.99877 -0.60431,-1.16954 0,-0.19723 0.17077,-0.276 0.56483,-0.28903 v -0.19723 h -2.71911 v 0.19723 h 0.11825 c 0.39406,0 0.60432,0.17077 1.0114,0.78831 l 1.23489,1.89252 -1.49746,2.16851 c -0.3678,0.53878 -0.52554,0.63078 -0.95888,0.67006 v 0.19703 h 1.90454 v -0.19703 c -0.38083,0 -0.52535,-0.0655 -0.52535,-0.23651 0,-0.092 0.0788,-0.24955 0.26278,-0.53877 l 1.03765,-1.61652 1.1954,1.84 c 0.0525,0.0788 0.0788,0.14452 0.0788,0.23652 0,0.23651 -0.092,0.28902 -0.52535,0.31528 v 0.19703 z" style="fill:currentColor;stroke-width:13.1358"/>
        <path id="use90149" d="m 303.30049,143.85206 -0.0788,-0.0265 c -0.69631,0.276 -1.16914,0.44677 -1.89171,0.67006 v 0.21006 c 0.11825,-0.013 0.21025,-0.013 0.32851,-0.013 0.44657,0 0.53857,0.13129 0.53857,0.74823 v 6.14436 c 0,0.68308 -0.14451,0.82759 -0.9196,0.90637 v 0.22328 h 3.17891 v -0.23631 c -0.98514,-0.0132 -1.15591,-0.15775 -1.15591,-0.98514 v -2.06229 c 0.47283,0.43334 0.77489,0.56463 1.32669,0.56463 1.5632,0 2.75839,-1.4704 2.75839,-3.37374 0,-1.62754 -0.9194,-2.79648 -2.19357,-2.79648 -0.7356,0 -1.31365,0.31529 -1.89151,1.03766 v -1.0112 m 0,1.62814 c 0,-0.39385 0.7356,-0.86628 1.33971,-0.86628 0.97212,0 1.61572,0.99757 1.61572,2.53331 0,1.44394 -0.6436,2.42828 -1.58926,2.42828 -0.61754,0 -1.36617,-0.47243 -1.36617,-0.86629 z" style="fill:currentColor;stroke-width:13.1358"/>
        <path id="use90151" d="m 309.56664,86.634898 h -2.90099 v 0.210104 l 0.31506,0.03946 c 0.31505,0.03946 0.47248,0.10535 0.47248,0.250161 0,0.316256 -0.70882,0.975009 -1.87691,1.805008 l -2.0083,1.436075 0.6956,-2.555894 c 0.19689,-0.737866 0.61689,-0.922332 1.29948,-0.974808 V 86.6349 h -3.54412 v 0.210104 c 0.81397,0.03946 1.0371,0.210505 1.0371,0.566218 0,0.210905 -0.0919,0.487505 -0.18387,0.816981 l -1.62755,5.862871 c -0.19689,0.698209 -0.2758,0.843018 -1.06334,0.935151 v 0.209904 h 3.24229 v -0.209904 c -0.72205,-0.0657 -0.93195,-0.171047 -0.93195,-0.579437 0,-0.14501 0.0393,-0.303038 0.14441,-0.671971 l 0.85303,-3.122512 1.61454,2.832693 c 0.23634,0.42161 0.4857,0.803561 0.4857,1.080361 0,0.223924 -0.19689,0.381952 -0.60388,0.421409 l -0.38055,0.03946 v 0.209904 h 3.60962 v -0.209904 c -0.82679,-0.07891 -0.95818,-0.157828 -1.36497,-0.869456 l -2.20519,-3.860178 3.91145,-2.964283 c 0.38075,-0.289819 0.68259,-0.487304 1.01086,-0.487304 z" style="fill:currentColor;stroke-width:13.1262"/>
        <path id="use90153" d="m 372.69173,86.51676 h -2.42831 v 0.210104 c 0.59065,0.0657 0.81378,0.197084 0.81378,0.446845 0,0.249761 -0.23615,0.814978 -0.64313,1.511584 l -2.75639,4.732038 -0.85323,-5.823014 c -0.0132,-0.0657 -0.0132,-0.13139 -0.0132,-0.197085 0,-0.447046 0.17065,-0.578435 0.99764,-0.670368 V 86.51676 h -3.15035 v 0.210104 c 0.73506,0.09193 0.77452,0.157628 1.07636,1.997887 l 1.07635,6.611152 h 0.24936 l 4.89608,-8.083279 c 0.22312,-0.354914 0.43322,-0.51254 0.73506,-0.52576 z" style="fill:currentColor;stroke-width:13.1262"/>
        <path id="use90155" d="m 329.92009,163.47446 h -2.90099 v 0.2101 l 0.31506,0.0395 c 0.31505,0.0395 0.47248,0.10535 0.47248,0.25016 0,0.31626 -0.70882,0.97501 -1.87691,1.80501 l -2.0083,1.43608 0.6956,-2.5559 c 0.19689,-0.73786 0.61689,-0.92233 1.29948,-0.97481 v -0.2101 h -3.54412 v 0.2101 c 0.81397,0.0395 1.0371,0.21051 1.0371,0.56622 0,0.21091 -0.0919,0.48751 -0.18387,0.81698 l -1.62755,5.86287 c -0.19689,0.69821 -0.2758,0.84302 -1.06334,0.93516 v 0.2099 h 3.24229 v -0.2099 c -0.72205,-0.0657 -0.93195,-0.17105 -0.93195,-0.57944 0,-0.14501 0.0393,-0.30304 0.14441,-0.67197 l 0.85303,-3.12251 1.61454,2.83269 c 0.23634,0.42161 0.4857,0.80356 0.4857,1.08036 0,0.22392 -0.19689,0.38195 -0.60388,0.42141 l -0.38055,0.0395 v 0.2099 h 3.60962 v -0.2099 c -0.82679,-0.0789 -0.95818,-0.15783 -1.36497,-0.86946 l -2.20519,-3.86018 3.91145,-2.96428 c 0.38075,-0.28982 0.68259,-0.48731 1.01086,-0.48731 z" style="fill:currentColor;stroke-width:13.1262"/>
        <path id="use90157" d="m 405.25165,131.70855 v -0.86792 h -7.7445 v 0.86792 h 7.7445 m 0,2.62463 v -0.86772 h -7.7445 v 0.86772 z" style="fill:currentColor;stroke-width:13.1485"/>
        <path id="use90159" d="M 385.84664,128.88092 V 99.121673 h -7.67643 v 0.909877 h 3.05603 c 1.38229,0 1.85527,0.69114 1.85527,1.96462 v 24.30169 c 0,1.12804 -0.43634,1.67319 -1.70983,1.67319 h -3.20147 v 0.90987 z" style="fill:currentColor;stroke-width:36.3815"/>
        <path id="use90161" d="m 272.32061,128.63873 v -0.90987 h -3.01994 c -1.20021,0 -1.89191,-0.50907 -1.89191,-1.96408 v -24.22897 c 0,-1.31012 0.65506,-1.746456 1.89191,-1.746456 h 3.01994 v -0.909871 h -7.67643 v 29.759247 z" style="fill:currentColor;stroke-width:36.3815"/>
        <path transform="matrix(0.1600752,0,0,0.1600752,236.41568,132.94812)" stroke-width="2" stroke-linecap="butt" stroke-miterlimit="4" stroke-linejoin="miter" fill="none" stroke="#605e60" d="M 0,0 H 937.7132" id="path90163"/>
        <path id="use90165" d="m 351.51232,114.00773 c 0,-0.48644 -0.40761,-0.82825 -0.82825,-0.82825 -0.42064,0 -0.84148,0.32877 -0.84148,0.82825 0,0.51271 0.34181,0.84148 0.84148,0.84148 0.49948,0 0.82825,-0.39436 0.82825,-0.84148 m 3.523,0.0132 c 0,-2.4027 -1.94555,-4.34623 -4.35125,-4.34623 -2.4057,0 -4.35144,1.94353 -4.35144,4.34623 0,2.40971 1.94574,4.35786 4.35144,4.35786 2.4057,0 4.35125,-1.94815 4.35125,-4.35786 m -0.86756,0 c 0,1.92207 -1.56442,3.4903 -3.48369,3.4903 -1.91946,0 -3.48368,-1.56823 -3.48368,-3.4903 0,-1.91726 1.56422,-3.47847 3.48368,-3.47847 1.91927,0 3.48369,1.56121 3.48369,3.47847 z" style="fill:currentColor;stroke-width:13.146"/>
        <path id="use90167" d="m 356.40371,137.59768 c 3.39286,2.66737 3.97768,5.35831 3.97768,9.73373 0,4.53929 -0.65515,6.73895 -3.97768,9.47631 l 0.21065,0.37452 c 3.72026,-2.26964 5.77925,-5.59217 5.77925,-9.92081 0,-3.97804 -2.12897,-7.88538 -5.70927,-10.03828 z" style="fill:currentColor;stroke-width:23.3984"/>
        <path id="use90169" d="m 315.98917,156.60024 c -3.27576,-2.73736 -3.97768,-5.38153 -3.97768,-9.73373 0,-4.51573 0.72548,-6.69183 3.97768,-9.47631 l -0.21028,-0.37453 c -3.74384,2.22287 -5.77963,5.59253 -5.77963,9.92117 0,3.97768 2.01223,7.93216 5.70928,10.03792 z" style="fill:currentColor;stroke-width:23.3984"/>
        <path id="use90171" d="m 296.80917,123.61597 c -3.27576,-2.73736 -3.97768,-5.38153 -3.97768,-9.73373 0,-4.51573 0.72548,-6.69183 3.97768,-9.47631 l -0.21028,-0.37453 c -3.74384,2.22287 -5.77963,5.59253 -5.77963,9.92117 0,3.97768 2.01223,7.93216 5.70928,10.03792 z" style="fill:currentColor;stroke-width:23.3984"/>
      </g>
      <g clip-path="url(#clip_8)" id="g90177" color="rgb(209, 209, 209)">
        <path transform="matrix(0.1600752,0,0,-0.1600752,152.32465,187.1037)" d="m 291.852,324.484 h 82.7635 v 39.26339 H 291.852 Z" fill="#A3BE8C" id="path90175"/>
      </g>
      <g clip-path="url(#clip_9)" id="g90183" color="rgb(209, 209, 209)">
        <g clip-path="url(#clip_10)" id="g90181" color="rgb(209, 209, 209)">
          <path transform="matrix(0,-0.1600752,0.1600752,0,205.6671,141.91716)" stroke-width="1" stroke-linecap="butt" stroke-miterlimit="4" stroke-linejoin="miter" fill="none" stroke="currentColor" d="M 0,0 H 124.9051" id="path90179"/>
        </g>
      </g>
      <g clip-path="url(#clip_11)" id="g90189" color="rgb(209, 209, 209)">
        <g clip-path="url(#clip_12)" id="g90187" color="rgb(209, 209, 209)">
          <path transform="matrix(-0.1600752,0,0,-0.1600752,212.33005,135.26111)" stroke-width="1" stroke-linecap="butt" stroke-miterlimit="4" stroke-linejoin="miter" fill="none" stroke="currentColor" d="M 0,0 H 82.76352" id="path90185"/>
        </g>
      </g>
      <g clip-path="url(#clip_13)" id="g90195" color="rgb(209, 209, 209)">
        <g clip-path="url(#clip_14)" id="g90193" color="rgb(209, 209, 209)">
          <path transform="matrix(-0.1600752,0,0,-0.1600752,212.33005,128.77753)" stroke-width="1" stroke-linecap="butt" stroke-miterlimit="4" stroke-linejoin="miter" fill="none" stroke="currentColor" d="M 0,0 H 82.76352" id="path90191"/>
        </g>
      </g>
      <g clip-path="url(#clip_15)" id="g90199" color="rgb(209, 209, 209)">
        <path transform="matrix(0.1600752,0,0,0.1600752,199.12294,122.00298)" stroke-width="1" stroke-linecap="butt" stroke-miterlimit="4" stroke-linejoin="miter" fill="none" stroke="currentColor" d="M 0,0 H 81.76364 V 123.9051 H 0 Z" id="path90197"/>
      </g>
      <g clip-path="url(#clip_16)" id="g90209" color="rgb(209, 209, 209)">
        <path id="use90201" d="m 214.47286,122.36422 c 3.39286,2.66737 3.97768,5.35831 3.97768,9.73373 0,4.53929 -0.65515,6.73895 -3.97768,9.47631 l 0.21065,0.37452 c 3.72026,-2.26964 5.77925,-5.59217 5.77925,-9.92081 0,-3.97804 -2.12897,-7.88538 -5.70927,-10.03828 z" style="fill:currentColor;stroke-width:23.3984"/>
        <path id="use90203" d="m 195.87606,141.57426 c -3.27576,-2.73736 -3.97768,-5.38153 -3.97768,-9.73373 0,-4.51573 0.72548,-6.69183 3.97768,-9.47631 l -0.21028,-0.37453 c -3.74384,2.22287 -5.77963,5.59253 -5.77963,9.92117 0,3.97768 2.01223,7.93216 5.70928,10.03792 z" style="fill:currentColor;stroke-width:23.3984"/>
        <path id="use90205" d="m 184.52378,128.88941 h -2.54867 c -2.48291,0 -4.07257,2.14213 -4.07257,3.91702 0,1.14363 0.68317,1.85326 1.91801,1.85326 1.83924,0 3.49465,-1.55097 3.49465,-2.99709 0,-0.98607 -0.7357,-0.97284 -1.26131,-1.80115 h 2.23354 l 0.23635,-0.97204 m -2.31212,2.72066 c 0,1.05163 -0.91972,2.77379 -2.18082,2.77379 -0.61743,0 -1.02476,-0.39431 -1.02476,-1.18312 0,-1.85367 1.53714,-3.33929 2.44362,-3.33929 0.42037,0.24977 0.76196,0.90709 0.76196,1.74862 z" style="fill:currentColor;stroke-width:13.1374"/>
        <path id="use90207" d="m 188.14326,133.80695 h -0.68089 l -0.14931,0.4573 c -0.0932,-0.41987 -0.33575,-0.57856 -0.71818,-0.57856 -1.27782,0 -2.73298,1.66096 -2.73298,3.13533 0,0.66239 0.34515,1.08212 0.93282,1.08212 0.71818,0 1.19384,-0.345 1.94007,-1.53002 l -0.83945,2.70536 c -0.10262,0.34514 -0.26117,0.48505 -0.84884,0.52234 v 0.1493 h 2.21063 v -0.1493 h -0.13991 c -0.34514,0 -0.53173,-0.11187 -0.53173,-0.28921 0,-0.0279 0.009,-0.0652 0.0188,-0.10247 l 1.53899,-5.40219 m -0.9701,0.64389 c 0,0.77455 -0.61557,2.07158 -1.24993,2.6221 -0.24252,0.21463 -0.53159,0.33589 -0.76486,0.33589 -0.34501,0 -0.49431,-0.27995 -0.49431,-0.71847 0,-0.77454 0.45702,-1.73568 1.09137,-2.34214 0.29846,-0.27996 0.59692,-0.4573 0.86749,-0.4573 0.30771,0 0.55024,0.25206 0.55024,0.55992 z" style="fill:currentColor;stroke-width:9.32758"/>
      </g>
      <g clip-path="url(#clip_18)" id="g90215" color="rgb(209, 209, 209)">
        <g clip-path="url(#clip_19)" id="g90213" color="rgb(209, 209, 209)">
          <path transform="matrix(0,-0.1600752,0.1600752,0,304.83528,124.00279)" stroke-width="1" stroke-linecap="butt" stroke-miterlimit="4" stroke-linejoin="miter" fill="none" stroke="currentColor" d="M 0,0 H 124.9051" id="path90211"/>
        </g>
      </g>
      <g clip-path="url(#clip_20)" id="g90221" color="rgb(209, 209, 209)">
        <g clip-path="url(#clip_21)" id="g90219" color="rgb(209, 209, 209)">
          <path transform="matrix(-0.1600752,0,0,-0.1600752,311.49824,117.34673)" stroke-width="1" stroke-linecap="butt" stroke-miterlimit="4" stroke-linejoin="miter" fill="none" stroke="currentColor" d="M 0,0 H 82.76352" id="path90217"/>
        </g>
      </g>
      <g clip-path="url(#clip_22)" id="g90227" color="rgb(209, 209, 209)">
        <g clip-path="url(#clip_23)" id="g90225" color="rgb(209, 209, 209)">
          <path transform="matrix(-0.1600752,0,0,-0.1600752,311.49824,110.86315)" stroke-width="1" stroke-linecap="butt" stroke-miterlimit="4" stroke-linejoin="miter" fill="none" stroke="currentColor" d="M 0,0 H 82.76352" id="path90223"/>
        </g>
      </g>
      <g clip-path="url(#clip_24)" id="g90231" color="rgb(209, 209, 209)">
        <path transform="matrix(0.1600752,0,0,0.1600752,298.2911,104.08861)" stroke-width="1" stroke-linecap="butt" stroke-miterlimit="4" stroke-linejoin="miter" fill="none" stroke="currentColor" d="M 0,0 H 81.76364 V 123.9051 H 0 Z" id="path90229"/>
      </g>
      <g clip-path="url(#clip_25)" id="g90235" color="rgb(209, 209, 209)">
        <path transform="matrix(0,-0.1600752,0.1600752,0,368.67524,122.31073)" stroke-width="1" stroke-linecap="butt" stroke-miterlimit="4" stroke-linejoin="miter" fill="none" stroke="currentColor" d="M 0,0 H 124.9051" id="path90233"/>
      </g>
      <g clip-path="url(#clip_26)" id="g90241" color="rgb(209, 209, 209)">
        <g clip-path="url(#clip_27)" id="g90239" color="rgb(209, 209, 209)">
          <path transform="matrix(-0.1600752,0,0,-0.1600752,375.33805,115.65468)" stroke-width="1" stroke-linecap="butt" stroke-miterlimit="4" stroke-linejoin="miter" fill="none" stroke="currentColor" d="M 0,0 H 82.76352" id="path90237"/>
        </g>
      </g>
      <g clip-path="url(#clip_28)" id="g90247" color="rgb(209, 209, 209)">
        <g clip-path="url(#clip_29)" id="g90245" color="rgb(209, 209, 209)">
          <path transform="matrix(-0.1600752,0,0,-0.1600752,375.33805,109.1711)" stroke-width="1" stroke-linecap="butt" stroke-miterlimit="4" stroke-linejoin="miter" fill="none" stroke="currentColor" d="M 0,0 H 82.76352" id="path90243"/>
        </g>
      </g>
      <g clip-path="url(#clip_30)" id="g90253" color="rgb(209, 209, 209)">
        <path transform="matrix(0.1600752,0,0,0.1600752,362.13105,102.39656)" stroke-width="1" stroke-linecap="butt" stroke-miterlimit="4" stroke-linejoin="miter" fill="none" stroke="currentColor" d="M 0,0 H 81.76364 V 123.9051 H 0 Z" id="path90249"/>
        <path transform="matrix(0,-0.1600752,0.1600752,0,325.22749,157.19452)" stroke-width="1" stroke-linecap="butt" stroke-miterlimit="4" stroke-linejoin="miter" fill="none" stroke="currentColor" d="M 0,0 H 124.9051" id="path90251"/>
      </g>
      <g clip-path="url(#clip_31)" id="g90259" color="rgb(209, 209, 209)">
        <g clip-path="url(#clip_32)" id="g90257" color="rgb(209, 209, 209)">
          <path transform="matrix(-0.1600752,0,0,-0.1600752,331.89045,150.53845)" stroke-width="1" stroke-linecap="butt" stroke-miterlimit="4" stroke-linejoin="miter" fill="none" stroke="currentColor" d="M 0,0 H 82.76352" id="path90255"/>
        </g>
      </g>
      <g clip-path="url(#clip_33)" id="g90265" color="rgb(209, 209, 209)">
        <g clip-path="url(#clip_34)" id="g90263" color="rgb(209, 209, 209)">
          <path transform="matrix(-0.1600752,0,0,-0.1600752,331.89045,144.05489)" stroke-width="1" stroke-linecap="butt" stroke-miterlimit="4" stroke-linejoin="miter" fill="none" stroke="currentColor" d="M 0,0 H 82.76352" id="path90261"/>
        </g>
      </g>
      <g clip-path="url(#clip_35)" id="g90269" color="rgb(209, 209, 209)">
        <path transform="matrix(0.1600752,0,0,0.1600752,318.6833,137.28034)" stroke-width="1" stroke-linecap="butt" stroke-miterlimit="4" stroke-linejoin="miter" fill="none" stroke="currentColor" d="M 0,0 H 81.76364 V 123.9051 H 0 Z" id="path90267"/>
      </g>
      <g clip-path="url(#clip_36)" id="g90275" color="rgb(209, 209, 209)">
        <g clip-path="url(#clip_37)" id="g90273" color="rgb(209, 209, 209)">
          <path transform="matrix(-0.1600752,0,0,-0.1600752,353.1358,150.53845)" stroke-width="1" stroke-linecap="butt" stroke-miterlimit="4" stroke-linejoin="miter" fill="none" stroke="currentColor" d="M 0,0 H 50.08748" id="path90271"/>
        </g>
      </g>
      <g clip-path="url(#clip_38)" id="g90281" color="rgb(209, 209, 209)">
        <g clip-path="url(#clip_39)" id="g90279" color="rgb(209, 209, 209)">
          <path transform="matrix(-0.1600752,0,0,-0.1600752,353.1358,144.05489)" stroke-width="1" stroke-linecap="butt" stroke-miterlimit="4" stroke-linejoin="miter" fill="none" stroke="currentColor" d="M 0,0 H 50.08748" id="path90277"/>
        </g>
      </g>
      <g clip-path="url(#clip_40)" id="g90293" color="rgb(209, 209, 209)">
        <path transform="matrix(0.1600752,0,0,0.1600752,345.15925,137.28034)" stroke-width="1" stroke-linecap="butt" stroke-miterlimit="4" stroke-linejoin="miter" fill="none" stroke="currentColor" d="M 0,0 H 49.57185 V 123.9051 H 0 Z" id="path90283"/>
        <path id="use90285" d="m 348.78783,164.54412 c 0,-0.14617 -0.0267,-0.18611 -0.10643,-0.18611 -0.0663,0 -0.10624,0.0266 -0.17273,0.1328 l -2.55097,4.03902 c -0.0531,-1.16916 -0.23903,-2.82994 -0.42513,-3.73331 -0.0931,-0.42513 -0.10624,-0.45189 -0.2524,-0.45189 -0.0931,0 -0.21267,0.0533 -0.3854,0.0931 -0.39857,0.10643 -0.85026,0.15954 -1.262,0.22584 v 0.17272 h 0.37201 c 0.38519,0 0.5048,0.0665 0.62441,0.55813 0.15935,0.63759 0.30552,2.05915 0.35864,3.21512 l 0.0531,1.20889 c 0.0266,0.51819 0.0533,0.62442 0.17273,0.62442 0.14617,0 0.37202,-0.33208 0.85046,-1.24883 0.2524,-0.47825 0.49142,-0.91655 0.73065,-1.31512 l 1.18253,-2.01962 0.38519,4.1187 c 0.0266,0.34546 0.0533,0.46487 0.14617,0.46487 0.11962,0 0.23923,-0.13279 0.59786,-0.5711 l 0.11962,-0.14617 c 1.8335,-2.23208 2.81675,-3.78642 2.81675,-4.63668 0,-0.42533 -0.29234,-0.74423 -0.69091,-0.74423 -0.29234,0 -0.51818,0.19949 -0.51818,0.41195 0,0.18611 0.0665,0.34546 0.27895,0.54474 0.21267,0.19929 0.29234,0.30552 0.29234,0.46507 0,0.5713 -0.45168,1.27539 -2.19214,3.45415 z" style="fill:currentColor;stroke-width:13.2862"/>
        <path id="use90287" d="m 354.62073,169.48886 h -0.75467 l 0.26413,-0.97159 c 0.009,-0.0189 0.009,-0.0661 0.009,-0.0661 0,-0.0471 -0.0284,-0.0754 -0.0849,-0.0754 -0.0377,0 -0.0943,0.0284 -0.13199,0.0849 -0.3397,0.5094 -0.95288,0.97159 -1.25472,1.03766 -0.22642,0.0472 -0.3112,0.13199 -0.3112,0.23577 0,0 0,0.0284 0.009,0.0566 h 0.70747 l -0.73582,2.79401 c -0.0754,0.30213 -0.15085,0.59476 -0.15085,0.69854 0,0.23578 0.1792,0.34891 0.43398,0.34891 0.4904,0 0.78289,-0.27348 1.34886,-1.14173 l -0.12264,-0.0661 c -0.46219,0.59462 -0.61318,0.74561 -0.76403,0.74561 -0.0849,0 -0.14149,-0.0284 -0.14149,-0.15099 0,-0.0284 0.009,-0.0944 0.0188,-0.13214 l 0.8206,-3.09614 h 0.79253 z" style="fill:currentColor;stroke-width:9.43323"/>
        <path id="use90289" d="m 342.5391,147.78086 v -0.97211 h -3.84353 v -3.84353 h -0.97211 v 3.84353 h -3.84375 v 0.97211 h 3.84375 v 3.84375 h 0.97211 v -3.84375 z" style="fill:currentColor;stroke-width:14.7269"/>
        <path id="use90291" d="m 335.69171,104.16373 c 3.39286,2.66737 3.97768,5.35831 3.97768,9.73373 0,4.53929 -0.65515,6.73895 -3.97768,9.47631 l 0.21065,0.37452 c 3.72026,-2.26964 5.77925,-5.59217 5.77925,-9.92081 0,-3.97804 -2.12897,-7.88538 -5.70927,-10.03828 z" style="fill:currentColor;stroke-width:23.3984"/>
      </g>
      <g clip-path="url(#clip_41)" id="g90299" color="rgb(209, 209, 209)">
        <g clip-path="url(#clip_42)" id="g90297" color="rgb(209, 209, 209)">
          <path transform="matrix(-0.1600752,0,0,-0.1600752,332.70237,117.10454)" stroke-width="1" stroke-linecap="butt" stroke-miterlimit="4" stroke-linejoin="miter" fill="none" stroke="currentColor" d="M 0,0 H 50.08748" id="path90295"/>
        </g>
      </g>
      <g clip-path="url(#clip_43)" id="g90305" color="rgb(209, 209, 209)">
        <g clip-path="url(#clip_44)" id="g90303" color="rgb(209, 209, 209)">
          <path transform="matrix(-0.1600752,0,0,-0.1600752,332.70237,110.62095)" stroke-width="1" stroke-linecap="butt" stroke-miterlimit="4" stroke-linejoin="miter" fill="none" stroke="currentColor" d="M 0,0 H 50.08748" id="path90301"/>
        </g>
      </g>
      <g clip-path="url(#clip_45)" id="g90309" color="rgb(209, 209, 209)">
        <path transform="matrix(0.1600752,0,0,0.1600752,324.7258,103.84641)" stroke-width="1" stroke-linecap="butt" stroke-miterlimit="4" stroke-linejoin="miter" fill="none" stroke="currentColor" d="M 0,0 H 49.57185 V 123.9051 H 0 Z" id="path90307"/>
      </g>
      <g clip-path="url(#clip_46)" id="g90317" color="rgb(209, 209, 209)">
        <path id="use90311" d="m 329.63512,88.234698 c 0,-0.14617 -0.0267,-0.186108 -0.10643,-0.186108 -0.0663,0 -0.10624,0.02656 -0.17273,0.132796 l -2.55097,4.039022 c -0.0531,-1.169154 -0.23903,-2.829935 -0.42513,-3.733309 -0.0931,-0.425129 -0.10624,-0.45189 -0.2524,-0.45189 -0.0931,0 -0.21267,0.05332 -0.3854,0.09306 -0.39857,0.106432 -0.85026,0.159548 -1.262,0.225841 v 0.172728 h 0.37201 c 0.38519,0 0.5048,0.0665 0.62441,0.558121 0.15935,0.637593 0.30552,2.059149 0.35864,3.215127 l 0.0531,1.20889 c 0.0266,0.518183 0.0533,0.624415 0.17273,0.624415 0.14617,0 0.37202,-0.332075 0.85046,-1.248829 0.2524,-0.478245 0.49142,-0.916551 0.73065,-1.315122 l 1.18253,-2.019616 0.38519,4.118702 c 0.0266,0.345456 0.0533,0.464865 0.14617,0.464865 0.11962,0 0.23923,-0.13279 0.59786,-0.571096 l 0.11962,-0.14617 c 1.8335,-2.232079 2.81675,-3.786425 2.81675,-4.636683 0,-0.425332 -0.29234,-0.744229 -0.69091,-0.744229 -0.29234,0 -0.51818,0.199489 -0.51818,0.411952 0,0.186108 0.0665,0.345455 0.27895,0.544741 0.21267,0.199286 0.29234,0.305517 0.29234,0.465067 0,0.5713 -0.45168,1.275387 -2.19214,3.454148 z" style="fill:currentColor;stroke-width:13.2862"/>
        <path id="use90313" d="m 335.46802,93.17943 h -0.75467 l 0.26413,-0.971593 c 0.01,-0.01886 0.01,-0.06607 0.01,-0.06607 0,-0.04707 -0.0284,-0.07543 -0.0849,-0.07543 -0.0377,0 -0.0943,0.02836 -0.13199,0.08493 -0.3397,0.509405 -0.95288,0.971595 -1.25472,1.037664 -0.22642,0.04721 -0.3112,0.131992 -0.3112,0.235773 0,0 0,0.02836 0.009,0.05657 h 0.70747 l -0.73582,2.79401 c -0.0754,0.30213 -0.15085,0.594759 -0.15085,0.69854 0,0.235773 0.1792,0.34891 0.43398,0.34891 0.4904,0 0.78289,-0.273486 1.34886,-1.14173 l -0.12264,-0.06607 c -0.46219,0.594617 -0.61318,0.745609 -0.76403,0.745609 -0.0849,0 -0.14149,-0.02836 -0.14149,-0.150992 0,-0.02836 0.009,-0.09443 0.0188,-0.132137 l 0.8206,-3.096143 h 0.79253 z" style="fill:currentColor;stroke-width:9.43323"/>
        <path id="use90315" d="m 322.30112,114.48985 v -0.97211 h -3.84353 v -3.84353 h -0.97211 v 3.84353 h -3.84375 v 0.97211 h 3.84375 v 3.84375 h 0.97211 v -3.84375 z" style="fill:currentColor;stroke-width:14.7269"/>
      </g>
      <g clip-path="url(#clip_47)" id="g90321" color="rgb(209, 209, 209)">
        <path transform="matrix(0.1600752,0,0,-0.1600752,152.32465,187.1037)" d="m 1613.5,318.6568 h 83.3423 v 40.5033 H 1613.5 Z" fill="#A3BE8C" id="path90319"/>
      </g>
      <g clip-path="url(#clip_48)" id="g90327" color="rgb(209, 209, 209)">
        <g clip-path="url(#clip_49)" id="g90325" color="rgb(209, 209, 209)">
          <path transform="matrix(0,-0.1600752,0.1600752,0,417.23023,136.28516)" stroke-width="1" stroke-linecap="butt" stroke-miterlimit="4" stroke-linejoin="miter" fill="none" stroke="currentColor" d="M 0,0 H 41.64394" id="path90323"/>
        </g>
      </g>
      <g clip-path="url(#clip_50)" id="g90331" color="rgb(209, 209, 209)">
        <path transform="matrix(0.1600752,0,0,0.1600752,410.68605,129.68616)" stroke-width="1" stroke-linecap="butt" stroke-miterlimit="4" stroke-linejoin="miter" fill="none" stroke="currentColor" d="M 0,0 H 81.76364 V 40.57116 H 0 Z" id="path90329"/>
      </g>
      <g clip-path="url(#clip_51)" id="g90337" color="rgb(209, 209, 209)">
        <path id="use90333" d="m 421.15666,112.84512 h -2.48079 v 0.2101 l 0.38055,0.0395 c 0.38075,0.0395 0.52516,0.14481 0.52516,0.36873 0,0.35572 -0.57763,1.1725 -1.95583,2.80626 l -0.51194,0.60607 -0.40698,-1.44929 c -0.31506,-1.11982 -0.47249,-1.69945 -0.47249,-1.89714 0,-0.28982 0.15743,-0.39517 0.94497,-0.47409 v -0.2101 h -3.13713 v 0.2101 c 0.73506,0.10516 0.81397,0.21051 1.01086,0.8957 l 0.99744,3.51768 -0.77432,2.7009 c -0.23634,0.84322 -0.53818,1.01447 -1.40463,1.06695 v 0.2099 h 3.79348 v -0.2099 l -0.47248,-0.0395 c -0.51194,-0.0395 -0.69561,-0.15803 -0.69561,-0.48731 0,-0.2768 0.0917,-0.63251 0.39377,-1.67321 l 0.47248,-1.62055 2.87456,-3.55734 c 0.43322,-0.53998 0.53818,-0.67177 0.91893,-0.80336 z" style="fill:currentColor;stroke-width:13.1262"/>
        <path id="use90335" d="m 422.44329,120.7218 h -0.74558 l 0.26095,-0.95989 c 0.009,-0.0186 0.009,-0.0653 0.009,-0.0653 0,-0.0465 -0.028,-0.0745 -0.0839,-0.0745 -0.0373,0 -0.0931,0.028 -0.13041,0.0839 -0.3356,0.50327 -0.94139,0.95989 -1.2396,1.02516 -0.22369,0.0466 -0.30745,0.13041 -0.30745,0.23294 0,0 0,0.028 0.009,0.0559 h 0.69894 l -0.72696,2.76034 c -0.0745,0.29849 -0.14903,0.5876 -0.14903,0.69013 0,0.23293 0.17705,0.3447 0.42875,0.3447 0.4845,0 0.77346,-0.27019 1.33261,-1.12797 l -0.12116,-0.0653 c -0.45662,0.58746 -0.6058,0.73663 -0.75483,0.73663 -0.0839,0 -0.13979,-0.028 -0.13979,-0.14917 0,-0.028 0.009,-0.0933 0.0186,-0.13055 l 0.81072,-3.05884 h 0.78298 z" style="fill:currentColor;stroke-width:9.31958"/>
      </g>
    </g>
  </g>
</svg>