<?xml version="1.0" encoding="UTF-8" standalone="no"?>
<!-- Created with Inkscape (http://www.inkscape.org/) -->

<svg
   width="59.39946mm"
   height="57.091423mm"
   viewBox="0 0 59.39946 57.091423"
   version="1.1"
   id="svg63776"
   inkscape:version="1.2.2 (b0a84865, 2022-12-01)"
   sodipodi:docname="figure2.svg"
   xmlns:inkscape="http://www.inkscape.org/namespaces/inkscape"
   xmlns:sodipodi="http://sodipodi.sourceforge.net/DTD/sodipodi-0.dtd"
   xmlns="http://www.w3.org/2000/svg"
   xmlns:svg="http://www.w3.org/2000/svg">
  <sodipodi:namedview
     id="namedview63778"
     pagecolor="#ffffff"
     bordercolor="#999999"
     borderopacity="1"
     inkscape:showpageshadow="0"
     inkscape:pageopacity="0"
     inkscape:pagecheckerboard="0"
     inkscape:deskcolor="#d1d1d1"
     inkscape:document-units="mm"
     showgrid="false"
     inkscape:zoom="0.914906"
     inkscape:cx="22.953178"
     inkscape:cy="291.28675"
     inkscape:window-width="1390"
     inkscape:window-height="1205"
     inkscape:window-x="0"
     inkscape:window-y="25"
     inkscape:window-maximized="0"
     inkscape:current-layer="layer1" />
  <defs
     id="defs63773">
    <clipPath
       id="clip_3">
      <path
         transform="matrix(0.42,0,0,-0.42,327.686,344.442)"
         d="M 0,0 H 400.89625 V 385.31895 H 0 Z"
         id="path55502" />
    </clipPath>
    <clipPath
       id="clip_4">
      <path
         transform="matrix(0.42,0,0,-0.42,327.686,344.442)"
         d="M 47.278127,104.53018 H 341.51078 V 378.11894 H 47.278127 Z"
         id="path55505" />
    </clipPath>
    <clipPath
       id="clip_6">
      <path
         transform="matrix(0.42,0,0,-0.42,327.686,344.442)"
         d="M 47.278127,104.53018 H 341.51078 V 378.11894 H 47.278127 Z"
         id="path55529" />
    </clipPath>
    <clipPath
       id="clip_7">
      <path
         transform="matrix(0.42,0,0,-0.42,327.686,344.442)"
         d="M 47.278127,104.53018 H 341.51078 V 378.11894 H 47.278127 Z"
         id="path55538" />
    </clipPath>
    <clipPath
       id="clip_8">
      <path
         transform="matrix(0.42,0,0,-0.42,327.686,344.442)"
         d="M 47.278127,104.53018 H 341.51078 V 378.11894 H 47.278127 Z"
         id="path55553" />
    </clipPath>
    <clipPath
       id="clip_9">
      <path
         transform="matrix(0.42,0,0,-0.42,327.686,344.442)"
         d="M 47.278127,104.53018 H 341.51078 V 378.11894 H 47.278127 Z"
         id="path55581" />
    </clipPath>
    <clipPath
       id="clip_10">
      <path
         transform="matrix(0.42,0,0,-0.42,327.686,344.442)"
         d="M 47.278127,104.53018 H 341.51078 V 378.11894 H 47.278127 Z"
         id="path55596" />
    </clipPath>
    <clipPath
       id="clip_11">
      <path
         transform="matrix(0.42,0,0,-0.42,327.686,344.442)"
         d="M 47.278127,104.53018 H 341.51078 V 378.11894 H 47.278127 Z"
         id="path55605" />
    </clipPath>
    <clipPath
       id="clip_12">
      <path
         transform="matrix(0.42,0,0,-0.42,327.686,344.442)"
         d="M 47.278127,104.53018 H 341.51078 V 378.11894 H 47.278127 Z"
         id="path55611" />
    </clipPath>
    <clipPath
       id="clip_13">
      <path
         transform="matrix(0.42,0,0,-0.42,327.686,344.442)"
         d="M 47.278127,104.53018 H 341.51078 V 378.11894 H 47.278127 Z"
         id="path55617" />
    </clipPath>
    <clipPath
       id="clip_14">
      <path
         transform="matrix(0.42,0,0,-0.42,327.686,344.442)"
         d="M 47.278127,104.53018 H 341.51078 V 378.11894 H 47.278127 Z"
         id="path55623" />
    </clipPath>
    <clipPath
       id="clip_15">
      <path
         transform="matrix(0.42,0,0,-0.42,327.686,344.442)"
         d="M 47.278127,104.53018 H 341.51078 V 378.11894 H 47.278127 Z"
         id="path55632" />
    </clipPath>
    <clipPath
       id="clip_16">
      <path
         transform="matrix(0.42,0,0,-0.42,363.6821,190.8551)"
         d="m -2.5,-2.5 h 5 v 5 h -5 z"
         id="path55635" />
    </clipPath>
    <clipPath
       id="clip_17">
      <path
         transform="matrix(0.42,0,0,-0.42,357.86445,191.76634)"
         d="m -2.5,-2.5 h 5 v 5 h -5 z"
         id="path55638" />
    </clipPath>
    <clipPath
       id="clip_18">
      <path
         transform="matrix(0.42,0,0,-0.42,361.49494,191.1216)"
         d="m -2.5,-2.5 h 5 v 5 h -5 z"
         id="path55641" />
    </clipPath>
    <clipPath
       id="clip_19">
      <path
         transform="matrix(0.42,0,0,-0.42,359.9006,192.57227)"
         d="m -2.5,-2.5 h 5 v 5 h -5 z"
         id="path55644" />
    </clipPath>
    <clipPath
       id="clip_20">
      <path
         transform="matrix(0.42,0,0,-0.42,327.686,344.442)"
         d="M 47.278127,104.53018 H 341.51078 V 378.11894 H 47.278127 Z"
         id="path55647" />
    </clipPath>
    <clipPath
       id="clip_21">
      <path
         transform="matrix(0.42,0,0,-0.42,384.61613,203.75209)"
         d="m -2.5,-2.5 h 5 v 5 h -5 z"
         id="path55650" />
    </clipPath>
    <clipPath
       id="clip_22">
      <path
         transform="matrix(0.42,0,0,-0.42,388.697,202.43038)"
         d="m -2.5,-2.5 h 5 v 5 h -5 z"
         id="path55653" />
    </clipPath>
    <clipPath
       id="clip_23">
      <path
         transform="matrix(0.42,0,0,-0.42,386.50654,202.67108)"
         d="m -2.5,-2.5 h 5 v 5 h -5 z"
         id="path55656" />
    </clipPath>
    <clipPath
       id="clip_24">
      <path
         transform="matrix(0.42,0,0,-0.42,382.43623,203.43618)"
         d="m -2.5,-2.5 h 5 v 5 h -5 z"
         id="path55659" />
    </clipPath>
    <clipPath
       id="clip_25">
      <path
         transform="matrix(0.42,0,0,-0.42,327.686,344.442)"
         d="M 47.278127,104.53018 H 341.51078 V 378.11894 H 47.278127 Z"
         id="path55662" />
    </clipPath>
    <clipPath
       id="clip_26">
      <path
         transform="matrix(0.42,0,0,-0.42,409.33168,216.42559)"
         d="m -2.5,-2.5 h 5 v 5 h -5 z"
         id="path55665" />
    </clipPath>
    <clipPath
       id="clip_27">
      <path
         transform="matrix(0.42,0,0,-0.42,410.62934,214.72777)"
         d="m -2.5,-2.5 h 5 v 5 h -5 z"
         id="path55668" />
    </clipPath>
    <clipPath
       id="clip_28">
      <path
         transform="matrix(0.42,0,0,-0.42,412.83409,214.69553)"
         d="m -2.5,-2.5 h 5 v 5 h -5 z"
         id="path55671" />
    </clipPath>
    <clipPath
       id="clip_29">
      <path
         transform="matrix(0.42,0,0,-0.42,407.51844,215.23067)"
         d="m -2.5,-2.5 h 5 v 5 h -5 z"
         id="path55674" />
    </clipPath>
    <clipPath
       id="clip_30">
      <path
         transform="matrix(0.42,0,0,-0.42,327.686,344.442)"
         d="M 47.278127,104.53018 H 341.51078 V 378.11894 H 47.278127 Z"
         id="path55677" />
    </clipPath>
    <clipPath
       id="clip_31">
      <path
         transform="matrix(0.42,0,0,-0.42,434.0472,195.64337)"
         d="m -2.5,-2.5 h 5 v 5 h -5 z"
         id="path55680" />
    </clipPath>
    <clipPath
       id="clip_32">
      <path
         transform="matrix(0.42,0,0,-0.42,431.92808,195.06311)"
         d="m -2.5,-2.5 h 5 v 5 h -5 z"
         id="path55683" />
    </clipPath>
    <clipPath
       id="clip_33">
      <path
         transform="matrix(0.42,0,0,-0.42,327.686,344.442)"
         d="M 47.278127,104.53018 H 341.51078 V 378.11894 H 47.278127 Z"
         id="path55686" />
    </clipPath>
    <clipPath
       id="clip_34">
      <path
         transform="matrix(0.42,0,0,-0.42,458.76277,262.77183)"
         d="m -2.5,-2.5 h 5 v 5 h -5 z"
         id="path55689" />
    </clipPath>
    <clipPath
       id="clip_35">
      <path
         transform="matrix(0.42,0,0,-0.42,458.76277,295.31626)"
         d="m -2.5,-2.5 h 5 v 5 h -5 z"
         id="path55692" />
    </clipPath>
  </defs>
  <g
     inkscape:label="Layer 1"
     inkscape:groupmode="layer"
     id="layer1"
     transform="translate(-39.706307,-71.514658)">
    <g
       clip-path="url(#clip_3)"
       id="g57598"
       transform="matrix(0.35277777,0,0,0.35277777,-75.894029,7.0946009)">
      <path
         transform="matrix(0.42,0,0,-0.42,327.686,344.442)"
         d="M 0,0 H 400.89625 V 385.31895 H 0 Z"
         fill="#ffffff"
         id="path57290" />
      <path
         transform="matrix(0.42,0,0,-0.42,327.686,344.442)"
         d="M 47.278127,104.53018 H 341.51075 V 378.11894 H 47.278127 Z"
         fill="#ffffff"
         id="path57292" />
      <g
         clip-path="url(#clip_4)"
         id="g57296">
        <path
           transform="matrix(0.42,0,0,-0.42,327.686,344.442)"
           stroke-width="1"
           stroke-linecap="round"
           stroke-linejoin="round"
           fill="none"
           stroke="#d5d6d5"
           d="M 76.701389,104.53018 V 378.11894"
           id="path57294" />
      </g>
      <g
         id="use57298"
         style="fill:#333333"
         transform="matrix(3.266833,-3.266833,-3.266833,-3.266833,352.92378,322.7707)">
        <path
           transform="matrix(0.001,0,0,0.001,0,0)"
           d="m 394,662 c -72,0 -129,-27 -171,-80 -42,-54 -63,-126 -63,-218 0,-92 21,-165 63,-218 42,-54 99,-80 171,-80 71,0 128,26 170,80 42,53 63,126 63,218 0,92 -21,164 -63,218 -42,53 -99,80 -170,80 z M 532,13 662,-128 H 543 L 435,-11 c -11,0 -19,-1 -25,-1 -6,0 -11,-1 -16,-1 -103,0 -185,34 -246,102 -62,68 -92,159 -92,275 0,115 30,207 92,275 61,68 143,103 246,103 102,0 183,-35 245,-103 61,-68 92,-160 92,-275 C 731,279 714,206 680,146 646,86 596,41 532,13 Z"
           id="path64765" />
      </g>
      <g
         id="use57300"
         style="fill:#333333"
         transform="matrix(3.266833,-3.266833,-3.266833,-3.266833,355.49476,320.1997)">
        <path
           transform="matrix(0.001,0,0,0.001,0,0)"
           d="m 98,729 h 99 V 83 H 552 V 0 H 98 Z"
           id="path64709" />
      </g>
      <g
         id="use57302"
         style="fill:#333333"
         transform="matrix(3.266833,-3.266833,-3.266833,-3.266833,357.2587,318.43577)">
        <path
           transform="matrix(0.001,0,0,0.001,0,0)"
           d="m 306,484 c -48,0 -86,-19 -114,-57 -28,-38 -42,-89 -42,-154 0,-66 13,-117 41,-155 28,-38 66,-56 115,-56 48,0 86,18 114,56 28,38 42,89 42,155 0,64 -14,116 -42,154 -28,38 -66,57 -114,57 z m 0,76 c 78,0 139,-26 184,-76 44,-51 67,-121 67,-211 C 557,183 534,113 490,63 445,12 384,-13 306,-13 227,-13 165,12 121,63 77,113 55,183 55,273 c 0,90 22,160 66,211 44,50 106,76 185,76 z"
           id="path64733" />
      </g>
      <g
         id="use57304"
         style="fill:#333333"
         transform="matrix(3.266833,-3.266833,-3.266833,-3.266833,359.258,316.43647)">
        <path
           transform="matrix(0.001,0,0,0.001,0,0)"
           d="m 444,342 c 21,-8 42,-23 62,-46 20,-24 40,-56 60,-97 L 666,0 H 560 l -93,187 c -24,48 -48,81 -70,97 -23,16 -54,24 -93,24 H 197 V 0 H 98 v 729 h 223 c 83,0 145,-18 186,-52 41,-35 62,-88 62,-158 0,-46 -11,-85 -32,-115 -22,-30 -53,-51 -93,-62 z M 197,648 V 389 h 124 c 47,0 83,11 107,33 24,22 37,54 37,97 0,42 -13,74 -37,96 -24,22 -60,33 -107,33 z"
           id="path64793" />
      </g>
      <g
         id="use57306"
         style="fill:#333333"
         transform="matrix(3.266833,-3.266833,-3.266833,-3.266833,361.39854,314.29594)">
        <path
           transform="matrix(0.001,0,0,0.001,0,0)"
           d="M 342,632 208,269 h 268 z m -56,97 H 398 L 676,0 H 573 L 507,187 H 178 L 112,0 H 8 Z"
           id="path64681" />
      </g>
      <g
         id="use57308"
         style="fill:#333333"
         transform="matrix(3.266833,-3.266833,-3.266833,-3.266833,363.56346,312.131)">
        <path
           transform="matrix(0.001,0,0,0.001,0,0)"
           d="M 49,314 H 312 V 234 H 49 Z"
           id="path64777" />
      </g>
      <g
         id="use57310"
         style="fill:#333333"
         transform="matrix(3.266833,-3.266833,-3.266833,-3.266833,364.67317,311.0213)">
        <path
           transform="matrix(0.001,0,0,0.001,0,0)"
           d="M 342,632 208,269 h 268 z m -56,97 H 398 L 676,0 H 573 L 507,187 H 178 L 112,0 H 8 Z"
           id="path64685" />
      </g>
      <g
         id="use57312"
         style="fill:#333333"
         transform="matrix(3.266833,-3.266833,-3.266833,-3.266833,366.90766,308.7868)">
        <path
           transform="matrix(0.001,0,0,0.001,0,0)"
           d="m 94,760 h 90 V 0 H 94 Z"
           id="path64661" />
      </g>
      <g
         id="use57314"
         style="fill:#333333"
         transform="matrix(3.266833,-3.266833,-3.266833,-3.266833,367.81587,307.8786)">
        <path
           transform="matrix(0.001,0,0,0.001,0,0)"
           d="m 94,760 h 90 V 0 H 94 Z"
           id="path64665" />
      </g>
      <g
         clip-path="url(#clip_6)"
         id="g57318">
        <path
           transform="matrix(0.42,0,0,-0.42,327.686,344.442)"
           stroke-width="1"
           stroke-linecap="round"
           stroke-linejoin="round"
           fill="none"
           stroke="#d5d6d5"
           d="M 135.54792,104.53018 V 378.11894"
           id="path57316" />
      </g>
      <g
         id="use57320"
         style="fill:#333333"
         transform="matrix(3.266833,-3.266833,-3.266833,-3.266833,376.52793,324.9934)">
        <path
           transform="matrix(0.001,0,0,0.001,0,0)"
           d="m 394,662 c -72,0 -129,-27 -171,-80 -42,-54 -63,-126 -63,-218 0,-92 21,-165 63,-218 42,-54 99,-80 171,-80 71,0 128,26 170,80 42,53 63,126 63,218 0,92 -21,164 -63,218 -42,53 -99,80 -170,80 z M 532,13 662,-128 H 543 L 435,-11 c -11,0 -19,-1 -25,-1 -6,0 -11,-1 -16,-1 -103,0 -185,34 -246,102 -62,68 -92,159 -92,275 0,115 30,207 92,275 61,68 143,103 246,103 102,0 183,-35 245,-103 61,-68 92,-160 92,-275 C 731,279 714,206 680,146 646,86 596,41 532,13 Z"
           id="path64769" />
      </g>
      <g
         id="use57322"
         style="fill:#333333"
         transform="matrix(3.266833,-3.266833,-3.266833,-3.266833,379.0989,322.42243)">
        <path
           transform="matrix(0.001,0,0,0.001,0,0)"
           d="m 98,729 h 99 V 83 H 552 V 0 H 98 Z"
           id="path64713" />
      </g>
      <g
         id="use57324"
         style="fill:#333333"
         transform="matrix(3.266833,-3.266833,-3.266833,-3.266833,380.86286,320.65849)">
        <path
           transform="matrix(0.001,0,0,0.001,0,0)"
           d="m 306,484 c -48,0 -86,-19 -114,-57 -28,-38 -42,-89 -42,-154 0,-66 13,-117 41,-155 28,-38 66,-56 115,-56 48,0 86,18 114,56 28,38 42,89 42,155 0,64 -14,116 -42,154 -28,38 -66,57 -114,57 z m 0,76 c 78,0 139,-26 184,-76 44,-51 67,-121 67,-211 C 557,183 534,113 490,63 445,12 384,-13 306,-13 227,-13 165,12 121,63 77,113 55,183 55,273 c 0,90 22,160 66,211 44,50 106,76 185,76 z"
           id="path64737" />
      </g>
      <g
         id="use57326"
         style="fill:#333333"
         transform="matrix(3.266833,-3.266833,-3.266833,-3.266833,382.86216,318.65919)">
        <path
           transform="matrix(0.001,0,0,0.001,0,0)"
           d="m 444,342 c 21,-8 42,-23 62,-46 20,-24 40,-56 60,-97 L 666,0 H 560 l -93,187 c -24,48 -48,81 -70,97 -23,16 -54,24 -93,24 H 197 V 0 H 98 v 729 h 223 c 83,0 145,-18 186,-52 41,-35 62,-88 62,-158 0,-46 -11,-85 -32,-115 -22,-30 -53,-51 -93,-62 z M 197,648 V 389 h 124 c 47,0 83,11 107,33 24,22 37,54 37,97 0,42 -13,74 -37,96 -24,22 -60,33 -107,33 z"
           id="path64797" />
      </g>
      <g
         id="use57328"
         style="fill:#333333"
         transform="matrix(3.266833,-3.266833,-3.266833,-3.266833,385.0027,316.51866)">
        <path
           transform="matrix(0.001,0,0,0.001,0,0)"
           d="M 342,632 208,269 h 268 z m -56,97 H 398 L 676,0 H 573 L 507,187 H 178 L 112,0 H 8 Z"
           id="path64689" />
      </g>
      <g
         id="use57330"
         style="fill:#333333"
         transform="matrix(3.266833,-3.266833,-3.266833,-3.266833,387.1676,314.35374)">
        <path
           transform="matrix(0.001,0,0,0.001,0,0)"
           d="M 49,314 H 312 V 234 H 49 Z"
           id="path64781" />
      </g>
      <g
         id="use57332"
         style="fill:#333333"
         transform="matrix(3.266833,-3.266833,-3.266833,-3.266833,388.34693,313.1744)">
        <path
           transform="matrix(0.001,0,0,0.001,0,0)"
           d="M 98,729 H 517 V 646 H 197 V 431 H 486 V 348 H 197 V 0 H 98 Z"
           id="path64967" />
      </g>
      <g
         id="use57334"
         style="fill:#333333"
         transform="matrix(3.266833,-3.266833,-3.266833,-3.266833,390.22535,311.296)">
        <path
           transform="matrix(0.001,0,0,0.001,0,0)"
           d="M 98,729 H 517 V 646 H 197 V 431 H 486 V 348 H 197 V 0 H 98 Z"
           id="path64971" />
      </g>
      <g
         id="use57336"
         style="fill:#333333"
         transform="matrix(3.266833,-3.266833,-3.266833,-3.266833,392.1038,309.41755)">
        <path
           transform="matrix(0.001,0,0,0.001,0,0)"
           d="M 98,729 H 231 L 554,119 v 610 h 96 V 0 H 517 L 194,610 V 0 H 98 Z"
           id="path64963" />
      </g>
      <g
         clip-path="url(#clip_7)"
         id="g57340">
        <path
           transform="matrix(0.42,0,0,-0.42,327.686,344.442)"
           stroke-width="1"
           stroke-linecap="round"
           stroke-linejoin="round"
           fill="none"
           stroke="#d5d6d5"
           d="M 194.39444,104.53018 V 378.11894"
           id="path57338" />
      </g>
      <g
         id="use57342"
         style="fill:#333333"
         transform="matrix(3.266833,-3.266833,-3.266833,-3.266833,396.85136,333.77769)">
        <path
           transform="matrix(0.001,0,0,0.001,0,0)"
           d="m 394,662 c -72,0 -129,-27 -171,-80 -42,-54 -63,-126 -63,-218 0,-92 21,-165 63,-218 42,-54 99,-80 171,-80 71,0 128,26 170,80 42,53 63,126 63,218 0,92 -21,164 -63,218 -42,53 -99,80 -170,80 z M 532,13 662,-128 H 543 L 435,-11 c -11,0 -19,-1 -25,-1 -6,0 -11,-1 -16,-1 -103,0 -185,34 -246,102 -62,68 -92,159 -92,275 0,115 30,207 92,275 61,68 143,103 246,103 102,0 183,-35 245,-103 61,-68 92,-160 92,-275 C 731,279 714,206 680,146 646,86 596,41 532,13 Z"
           id="path64773" />
      </g>
      <g
         id="use57344"
         style="fill:#333333"
         transform="matrix(3.266833,-3.266833,-3.266833,-3.266833,399.42234,331.2067)">
        <path
           transform="matrix(0.001,0,0,0.001,0,0)"
           d="m 98,729 h 99 V 83 H 552 V 0 H 98 Z"
           id="path64717" />
      </g>
      <g
         id="use57346"
         style="fill:#333333"
         transform="matrix(3.266833,-3.266833,-3.266833,-3.266833,401.18629,329.44276)">
        <path
           transform="matrix(0.001,0,0,0.001,0,0)"
           d="m 306,484 c -48,0 -86,-19 -114,-57 -28,-38 -42,-89 -42,-154 0,-66 13,-117 41,-155 28,-38 66,-56 115,-56 48,0 86,18 114,56 28,38 42,89 42,155 0,64 -14,116 -42,154 -28,38 -66,57 -114,57 z m 0,76 c 78,0 139,-26 184,-76 44,-51 67,-121 67,-211 C 557,183 534,113 490,63 445,12 384,-13 306,-13 227,-13 165,12 121,63 77,113 55,183 55,273 c 0,90 22,160 66,211 44,50 106,76 185,76 z"
           id="path64741" />
      </g>
      <g
         id="use57348"
         style="fill:#333333"
         transform="matrix(3.266833,-3.266833,-3.266833,-3.266833,403.18559,327.44346)">
        <path
           transform="matrix(0.001,0,0,0.001,0,0)"
           d="m 444,342 c 21,-8 42,-23 62,-46 20,-24 40,-56 60,-97 L 666,0 H 560 l -93,187 c -24,48 -48,81 -70,97 -23,16 -54,24 -93,24 H 197 V 0 H 98 v 729 h 223 c 83,0 145,-18 186,-52 41,-35 62,-88 62,-158 0,-46 -11,-85 -32,-115 -22,-30 -53,-51 -93,-62 z M 197,648 V 389 h 124 c 47,0 83,11 107,33 24,22 37,54 37,97 0,42 -13,74 -37,96 -24,22 -60,33 -107,33 z"
           id="path64801" />
      </g>
      <g
         id="use57350"
         style="fill:#333333"
         transform="matrix(3.266833,-3.266833,-3.266833,-3.266833,405.3261,325.30293)">
        <path
           transform="matrix(0.001,0,0,0.001,0,0)"
           d="M 342,632 208,269 h 268 z m -56,97 H 398 L 676,0 H 573 L 507,187 H 178 L 112,0 H 8 Z"
           id="path64693" />
      </g>
      <g
         id="use57352"
         style="fill:#333333"
         transform="matrix(3.266833,-3.266833,-3.266833,-3.266833,407.49104,323.138)">
        <path
           transform="matrix(0.001,0,0,0.001,0,0)"
           d="M 49,314 H 312 V 234 H 49 Z"
           id="path64785" />
      </g>
      <g
         id="use57354"
         style="fill:#333333"
         transform="matrix(3.266833,-3.266833,-3.266833,-3.266833,408.60075,322.0283)">
        <path
           transform="matrix(0.001,0,0,0.001,0,0)"
           d="M 342,632 208,269 h 268 z m -56,97 H 398 L 676,0 H 573 L 507,187 H 178 L 112,0 H 8 Z"
           id="path64697" />
      </g>
      <g
         id="use57356"
         style="fill:#333333"
         transform="matrix(3.266833,-3.266833,-3.266833,-3.266833,410.77958,319.84947)">
        <path
           transform="matrix(0.001,0,0,0.001,0,0)"
           d="M 183,702 V 547 H 368 V 477 H 183 V 180 c 0,-45 6,-74 18,-86 12,-13 37,-19 75,-19 h 92 V 0 H 276 C 206,0 158,13 132,39 106,65 93,112 93,180 V 477 H 27 v 70 h 66 v 155 z"
           id="path64943" />
      </g>
      <g
         id="use57358"
         style="fill:#333333"
         transform="matrix(3.266833,-3.266833,-3.266833,-3.266833,412.06016,318.56889)">
        <path
           transform="matrix(0.001,0,0,0.001,0,0)"
           d="M 183,702 V 547 H 368 V 477 H 183 V 180 c 0,-45 6,-74 18,-86 12,-13 37,-19 75,-19 h 92 V 0 H 276 C 206,0 158,13 132,39 106,65 93,112 93,180 V 477 H 27 v 70 h 66 v 155 z"
           id="path64947" />
      </g>
      <g
         id="use57360"
         style="fill:#333333"
         transform="matrix(3.266833,-3.266833,-3.266833,-3.266833,413.34077,317.28828)">
        <path
           transform="matrix(0.001,0,0,0.001,0,0)"
           d="M 562,296 V 252 H 149 c 4,-62 22,-110 56,-142 33,-32 79,-48 139,-48 34,0 68,4 100,12 32,8 65,21 97,39 V 28 C 509,14 476,3 442,-3 408,-9 373,-13 339,-13 251,-13 182,12 131,62 80,112 55,181 55,268 c 0,89 24,160 72,213 48,52 114,79 196,79 74,0 132,-24 175,-71 42,-48 64,-112 64,-193 z m -90,26 c -1,49 -15,88 -41,118 -27,29 -63,44 -107,44 -50,0 -90,-15 -120,-43 -30,-28 -48,-68 -52,-119 z"
           id="path64931" />
      </g>
      <g
         id="use57362"
         style="fill:#333333"
         transform="matrix(3.266833,-3.266833,-3.266833,-3.266833,415.34986,315.27919)">
        <path
           transform="matrix(0.001,0,0,0.001,0,0)"
           d="M 549,330 V 0 h -90 v 327 c 0,52 -11,90 -31,116 -20,26 -50,39 -90,39 -49,0 -87,-16 -115,-47 -28,-31 -42,-73 -42,-126 V 0 H 91 v 547 h 90 v -85 c 21,32 46,57 76,73 29,16 63,25 101,25 62,0 110,-20 142,-59 32,-39 49,-96 49,-171 z"
           id="path64919" />
      </g>
      <g
         id="use57364"
         style="fill:#333333"
         transform="matrix(3.266833,-3.266833,-3.266833,-3.266833,417.42106,313.20799)">
        <path
           transform="matrix(0.001,0,0,0.001,0,0)"
           d="M 183,702 V 547 H 368 V 477 H 183 V 180 c 0,-45 6,-74 18,-86 12,-13 37,-19 75,-19 h 92 V 0 H 276 C 206,0 158,13 132,39 106,65 93,112 93,180 V 477 H 27 v 70 h 66 v 155 z"
           id="path64951" />
      </g>
      <g
         id="use57366"
         style="fill:#333333"
         transform="matrix(3.266833,-3.266833,-3.266833,-3.266833,418.70164,311.9274)">
        <path
           transform="matrix(0.001,0,0,0.001,0,0)"
           d="m 94,547 h 90 V 0 H 94 Z m 0,213 h 90 V 646 H 94 Z"
           id="path64911" />
      </g>
      <g
         id="use57368"
         style="fill:#333333"
         transform="matrix(3.266833,-3.266833,-3.266833,-3.266833,419.6098,311.01924)">
        <path
           transform="matrix(0.001,0,0,0.001,0,0)"
           d="m 306,484 c -48,0 -86,-19 -114,-57 -28,-38 -42,-89 -42,-154 0,-66 13,-117 41,-155 28,-38 66,-56 115,-56 48,0 86,18 114,56 28,38 42,89 42,155 0,64 -14,116 -42,154 -28,38 -66,57 -114,57 z m 0,76 c 78,0 139,-26 184,-76 44,-51 67,-121 67,-211 C 557,183 534,113 490,63 445,12 384,-13 306,-13 227,-13 165,12 121,63 77,113 55,183 55,273 c 0,90 22,160 66,211 44,50 106,76 185,76 z"
           id="path64745" />
      </g>
      <g
         id="use57370"
         style="fill:#333333"
         transform="matrix(3.266833,-3.266833,-3.266833,-3.266833,421.60914,309.0199)">
        <path
           transform="matrix(0.001,0,0,0.001,0,0)"
           d="M 549,330 V 0 h -90 v 327 c 0,52 -11,90 -31,116 -20,26 -50,39 -90,39 -49,0 -87,-16 -115,-47 -28,-31 -42,-73 -42,-126 V 0 H 91 v 547 h 90 v -85 c 21,32 46,57 76,73 29,16 63,25 101,25 62,0 110,-20 142,-59 32,-39 49,-96 49,-171 z"
           id="path64923" />
      </g>
      <g
         clip-path="url(#clip_8)"
         id="g57374">
        <path
           transform="matrix(0.42,0,0,-0.42,327.686,344.442)"
           stroke-width="1"
           stroke-linecap="round"
           stroke-linejoin="round"
           fill="none"
           stroke="#d5d6d5"
           d="M 253.24097,104.53018 V 378.11894"
           id="path57372" />
      </g>
      <g
         id="use57376"
         style="fill:#333333"
         transform="matrix(3.266833,-3.266833,-3.266833,-3.266833,424.0866,328.73823)">
        <path
           transform="matrix(0.001,0,0,0.001,0,0)"
           d="M 342,632 208,269 h 268 z m -56,97 H 398 L 676,0 H 573 L 507,187 H 178 L 112,0 H 8 Z"
           id="path64701" />
      </g>
      <g
         id="use57378"
         style="fill:#333333"
         transform="matrix(3.266833,-3.266833,-3.266833,-3.266833,426.32115,326.5037)">
        <path
           transform="matrix(0.001,0,0,0.001,0,0)"
           d="m 94,760 h 90 V 0 H 94 Z"
           id="path64669" />
      </g>
      <g
         id="use57380"
         style="fill:#333333"
         transform="matrix(3.266833,-3.266833,-3.266833,-3.266833,427.2293,325.59553)">
        <path
           transform="matrix(0.001,0,0,0.001,0,0)"
           d="M 181,82 V -207 H 91 v 754 h 90 v -83 c 18,32 42,56 71,72 29,16 64,24 104,24 66,0 120,-27 162,-79 41,-53 62,-122 62,-208 0,-86 -21,-156 -62,-208 -42,-52 -96,-78 -162,-78 -40,0 -75,8 -104,23 -29,15 -53,39 -71,72 z m 306,191 c 0,66 -14,117 -41,155 -28,38 -65,57 -112,57 -48,0 -85,-19 -112,-57 -28,-38 -41,-89 -41,-155 0,-66 13,-118 41,-156 27,-38 64,-56 112,-56 47,0 84,18 112,56 27,38 41,90 41,156 z"
           id="path64903" />
      </g>
      <g
         id="use57382"
         style="fill:#333333"
         transform="matrix(3.266833,-3.266833,-3.266833,-3.266833,429.30375,323.5211)">
        <path
           transform="matrix(0.001,0,0,0.001,0,0)"
           d="m 343,275 c -73,0 -123,-9 -151,-25 -28,-17 -42,-45 -42,-85 0,-32 10,-58 31,-76 21,-19 50,-28 86,-28 50,0 90,17 120,53 30,35 45,82 45,141 v 20 z m 179,37 V 0 H 432 V 83 C 411,49 385,25 355,10 325,-5 287,-13 243,-13 187,-13 142,2 109,33 76,64 60,106 60,159 c 0,61 20,107 62,139 41,31 102,47 184,47 h 126 v 9 c 0,41 -14,73 -41,96 -27,22 -65,34 -114,34 -32,0 -62,-4 -92,-12 -30,-8 -58,-19 -85,-33 v 83 c 32,12 64,22 95,28 31,6 61,10 91,10 79,0 138,-21 177,-62 39,-41 59,-103 59,-186 z"
           id="path64883" />
      </g>
      <g
         id="use57384"
         style="fill:#333333"
         transform="matrix(3.266833,-3.266833,-3.266833,-3.266833,431.3063,321.51853)">
        <path
           transform="matrix(0.001,0,0,0.001,0,0)"
           d="m 488,526 v -84 c -26,14 -51,24 -77,31 -26,7 -51,11 -77,11 -58,0 -104,-19 -136,-56 -32,-37 -48,-89 -48,-155 0,-67 16,-119 48,-156 32,-37 78,-55 136,-55 26,0 51,3 77,10 26,7 51,18 77,32 V 21 C 462,9 436,0 410,-5 c -27,-5 -56,-8 -86,-8 -82,0 -148,25 -196,77 -49,51 -73,121 -73,209 0,89 24,159 73,210 49,51 116,77 202,77 28,0 55,-3 81,-9 26,-6 52,-14 77,-25 z"
           id="path64875" />
      </g>
      <g
         id="use57386"
         style="fill:#333333"
         transform="matrix(3.266833,-3.266833,-3.266833,-3.266833,433.10307,319.72178)">
        <path
           transform="matrix(0.001,0,0,0.001,0,0)"
           d="m 343,275 c -73,0 -123,-9 -151,-25 -28,-17 -42,-45 -42,-85 0,-32 10,-58 31,-76 21,-19 50,-28 86,-28 50,0 90,17 120,53 30,35 45,82 45,141 v 20 z m 179,37 V 0 H 432 V 83 C 411,49 385,25 355,10 325,-5 287,-13 243,-13 187,-13 142,2 109,33 76,64 60,106 60,159 c 0,61 20,107 62,139 41,31 102,47 184,47 h 126 v 9 c 0,41 -14,73 -41,96 -27,22 -65,34 -114,34 -32,0 -62,-4 -92,-12 -30,-8 -58,-19 -85,-33 v 83 c 32,12 64,22 95,28 31,6 61,10 91,10 79,0 138,-21 177,-62 39,-41 59,-103 59,-186 z"
           id="path64887" />
      </g>
      <g
         id="use57388"
         style="fill:#333333"
         transform="matrix(3.266833,-3.266833,-3.266833,-3.266833,435.10566,317.71919)" />
      <g
         id="use57390"
         style="fill:#333333"
         transform="matrix(3.266833,-3.266833,-3.266833,-3.266833,436.1445,316.68034)">
        <path
           transform="matrix(0.001,0,0,0.001,0,0)"
           d="M 310,759 C 266,683 234,609 213,536 191,463 181,389 181,314 181,238 191,164 213,91 234,17 266,-56 310,-131 H 232 C 183,-54 146,20 122,94 98,168 86,241 86,314 c 0,72 12,145 36,219 24,74 60,149 110,226 z"
           id="path64869" />
      </g>
      <g
         id="use57392"
         style="fill:#333333"
         transform="matrix(3.266833,-3.266833,-3.266833,-3.266833,437.41856,315.40629)">
        <path
           transform="matrix(0.001,0,0,0.001,0,0)"
           d="m 306,484 c -48,0 -86,-19 -114,-57 -28,-38 -42,-89 -42,-154 0,-66 13,-117 41,-155 28,-38 66,-56 115,-56 48,0 86,18 114,56 28,38 42,89 42,155 0,64 -14,116 -42,154 -28,38 -66,57 -114,57 z m 0,76 c 78,0 139,-26 184,-76 44,-51 67,-121 67,-211 C 557,183 534,113 490,63 445,12 384,-13 306,-13 227,-13 165,12 121,63 77,113 55,183 55,273 c 0,90 22,160 66,211 44,50 106,76 185,76 z"
           id="path64749" />
      </g>
      <g
         id="use57394"
         style="fill:#333333"
         transform="matrix(3.266833,-3.266833,-3.266833,-3.266833,439.41786,313.40699)">
        <path
           transform="matrix(0.001,0,0,0.001,0,0)"
           d="m 85,216 v 331 h 90 V 219 c 0,-52 10,-90 30,-116 20,-26 50,-39 91,-39 48,0 87,15 115,46 28,31 42,73 42,127 v 310 h 90 V 0 H 453 V 84 C 431,50 405,26 377,10 348,-5 315,-13 277,-13 214,-13 166,6 134,45 101,83 85,140 85,216 Z m 226,344 z"
           id="path64861" />
      </g>
      <g
         id="use57396"
         style="fill:#333333"
         transform="matrix(3.266833,-3.266833,-3.266833,-3.266833,441.489,311.33583)">
        <path
           transform="matrix(0.001,0,0,0.001,0,0)"
           d="m 411,463 c -10,6 -21,10 -33,13 -12,2 -25,4 -39,4 -51,0 -90,-17 -117,-50 -28,-33 -41,-80 -41,-142 V 0 H 91 v 547 h 90 v -85 c 18,33 43,58 73,74 30,16 67,24 111,24 6,0 13,-1 21,-1 7,-1 15,-2 25,-4 z"
           id="path64853" />
      </g>
      <g
         id="use57398"
         style="fill:#333333"
         transform="matrix(3.266833,-3.266833,-3.266833,-3.266833,442.8317,309.99314)">
        <path
           transform="matrix(0.001,0,0,0.001,0,0)"
           d="m 443,531 v -85 c -26,12 -52,22 -79,29 -28,6 -56,10 -85,10 -45,0 -79,-7 -101,-21 -22,-14 -33,-34 -33,-61 0,-21 8,-37 24,-49 16,-12 48,-24 96,-34 l 31,-7 c 64,-14 109,-34 136,-58 26,-25 40,-60 40,-104 0,-51 -20,-91 -60,-120 -40,-30 -96,-44 -166,-44 -30,0 -60,3 -92,8 C 122,0 89,8 54,20 v 93 c 33,-18 66,-31 98,-39 32,-9 64,-13 96,-13 42,0 75,7 98,21 22,14 34,35 34,62 0,24 -9,43 -25,56 -16,13 -52,26 -108,38 l -31,7 c -56,12 -97,30 -121,54 -25,24 -37,57 -37,100 0,51 18,91 54,119 36,28 88,42 156,42 33,0 64,-3 94,-8 29,-5 56,-12 81,-21 z"
           id="path64845" />
      </g>
      <g
         id="use57400"
         style="fill:#333333"
         transform="matrix(3.266833,-3.266833,-3.266833,-3.266833,444.53373,308.2911)">
        <path
           transform="matrix(0.001,0,0,0.001,0,0)"
           d="m 80,759 h 78 C 206,682 243,607 267,533 291,459 304,386 304,314 304,241 291,168 267,94 243,20 206,-54 158,-131 H 80 c 43,75 75,148 97,222 21,73 32,147 32,223 0,75 -11,149 -32,222 -22,73 -54,147 -97,223 z"
           id="path64841" />
      </g>
      <g
         clip-path="url(#clip_9)"
         id="g57404">
        <path
           transform="matrix(0.42,0,0,-0.42,327.686,344.442)"
           stroke-width="1"
           stroke-linecap="round"
           stroke-linejoin="round"
           fill="none"
           stroke="#d5d6d5"
           d="M 312.0875,104.53018 V 378.11894"
           id="path57402" />
      </g>
      <g
         id="use57406"
         style="fill:#333333"
         transform="matrix(3.266833,-3.266833,-3.266833,-3.266833,446.64439,333.05378)">
        <path
           transform="matrix(0.001,0,0,0.001,0,0)"
           d="m 535,705 v -96 c -38,18 -73,31 -106,40 -34,8 -66,13 -96,13 -54,0 -96,-11 -125,-31 -29,-21 -43,-51 -43,-89 0,-32 9,-57 29,-73 19,-17 56,-30 110,-40 l 60,-12 c 73,-14 127,-39 162,-74 35,-36 53,-83 53,-142 C 579,130 555,77 508,41 460,5 391,-13 300,-13 265,-13 228,-9 189,-2 150,5 110,16 69,32 v 102 c 40,-23 79,-40 117,-51 38,-12 76,-17 114,-17 56,0 99,11 130,33 30,22 46,53 46,95 0,36 -11,64 -33,84 -22,20 -58,35 -108,45 l -60,12 c -74,14 -127,37 -160,69 -33,31 -49,74 -49,130 0,64 22,115 68,152 45,37 108,56 188,56 34,0 68,-3 104,-9 35,-6 71,-16 109,-28 z"
           id="path64975" />
      </g>
      <g
         id="use57408"
         style="fill:#333333"
         transform="matrix(3.266833,-3.266833,-3.266833,-3.266833,448.7188,330.97935)">
        <path
           transform="matrix(0.001,0,0,0.001,0,0)"
           d="M 183,702 V 547 H 368 V 477 H 183 V 180 c 0,-45 6,-74 18,-86 12,-13 37,-19 75,-19 h 92 V 0 H 276 C 206,0 158,13 132,39 106,65 93,112 93,180 V 477 H 27 v 70 h 66 v 155 z"
           id="path64955" />
      </g>
      <g
         id="use57410"
         style="fill:#333333"
         transform="matrix(3.266833,-3.266833,-3.266833,-3.266833,449.99943,329.69874)">
        <path
           transform="matrix(0.001,0,0,0.001,0,0)"
           d="m 343,275 c -73,0 -123,-9 -151,-25 -28,-17 -42,-45 -42,-85 0,-32 10,-58 31,-76 21,-19 50,-28 86,-28 50,0 90,17 120,53 30,35 45,82 45,141 v 20 z m 179,37 V 0 H 432 V 83 C 411,49 385,25 355,10 325,-5 287,-13 243,-13 187,-13 142,2 109,33 76,64 60,106 60,159 c 0,61 20,107 62,139 41,31 102,47 184,47 h 126 v 9 c 0,41 -14,73 -41,96 -27,22 -65,34 -114,34 -32,0 -62,-4 -92,-12 -30,-8 -58,-19 -85,-33 v 83 c 32,12 64,22 95,28 31,6 61,10 91,10 79,0 138,-21 177,-62 39,-41 59,-103 59,-186 z"
           id="path64891" />
      </g>
      <g
         id="use57412"
         style="fill:#333333"
         transform="matrix(3.266833,-3.266833,-3.266833,-3.266833,452.00199,327.69618)">
        <path
           transform="matrix(0.001,0,0,0.001,0,0)"
           d="M 549,330 V 0 h -90 v 327 c 0,52 -11,90 -31,116 -20,26 -50,39 -90,39 -49,0 -87,-16 -115,-47 -28,-31 -42,-73 -42,-126 V 0 H 91 v 547 h 90 v -85 c 21,32 46,57 76,73 29,16 63,25 101,25 62,0 110,-20 142,-59 32,-39 49,-96 49,-171 z"
           id="path64927" />
      </g>
      <g
         id="use57414"
         style="fill:#333333"
         transform="matrix(3.266833,-3.266833,-3.266833,-3.266833,454.07316,325.625)">
        <path
           transform="matrix(0.001,0,0,0.001,0,0)"
           d="m 371,760 v -75 h -86 c -32,0 -55,-7 -67,-20 -13,-13 -19,-36 -19,-70 V 547 H 347 V 477 H 199 V 0 H 109 V 477 H 23 v 70 h 86 v 38 c 0,60 14,105 42,133 28,28 73,42 135,42 z"
           id="path64983" />
      </g>
      <g
         id="use57416"
         style="fill:#333333"
         transform="matrix(3.266833,-3.266833,-3.266833,-3.266833,455.22309,324.47508)">
        <path
           transform="matrix(0.001,0,0,0.001,0,0)"
           d="m 306,484 c -48,0 -86,-19 -114,-57 -28,-38 -42,-89 -42,-154 0,-66 13,-117 41,-155 28,-38 66,-56 115,-56 48,0 86,18 114,56 28,38 42,89 42,155 0,64 -14,116 -42,154 -28,38 -66,57 -114,57 z m 0,76 c 78,0 139,-26 184,-76 44,-51 67,-121 67,-211 C 557,183 534,113 490,63 445,12 384,-13 306,-13 227,-13 165,12 121,63 77,113 55,183 55,273 c 0,90 22,160 66,211 44,50 106,76 185,76 z"
           id="path64753" />
      </g>
      <g
         id="use57418"
         style="fill:#333333"
         transform="matrix(3.266833,-3.266833,-3.266833,-3.266833,457.22239,322.47578)">
        <path
           transform="matrix(0.001,0,0,0.001,0,0)"
           d="m 411,463 c -10,6 -21,10 -33,13 -12,2 -25,4 -39,4 -51,0 -90,-17 -117,-50 -28,-33 -41,-80 -41,-142 V 0 H 91 v 547 h 90 v -85 c 18,33 43,58 73,74 30,16 67,24 111,24 6,0 13,-1 21,-1 7,-1 15,-2 25,-4 z"
           id="path64857" />
      </g>
      <g
         id="use57420"
         style="fill:#333333"
         transform="matrix(3.266833,-3.266833,-3.266833,-3.266833,458.50938,321.18879)">
        <path
           transform="matrix(0.001,0,0,0.001,0,0)"
           d="m 454,464 v 296 h 90 V 0 H 454 V 82 C 435,49 411,25 382,10 353,-5 319,-13 279,-13 213,-13 159,13 117,65 75,117 55,187 55,273 c 0,86 20,155 62,208 42,52 96,79 162,79 40,0 74,-8 103,-24 29,-16 53,-40 72,-72 z M 148,273 c 0,-66 13,-118 40,-156 27,-38 64,-56 112,-56 48,0 85,18 113,56 27,38 41,90 41,156 0,66 -14,117 -41,155 -28,38 -65,57 -113,57 -48,0 -85,-19 -112,-57 -27,-38 -40,-89 -40,-155 z"
           id="path64813" />
      </g>
      <g
         id="use57422"
         style="fill:#333333"
         transform="matrix(3.266833,-3.266833,-3.266833,-3.266833,460.5838,319.11436)">
        <path
           transform="matrix(0.001,0,0,0.001,0,0)"
           d="M 49,314 H 312 V 234 H 49 Z"
           id="path64789" />
      </g>
      <g
         id="use57424"
         style="fill:#333333"
         transform="matrix(3.266833,-3.266833,-3.266833,-3.266833,461.69355,318.0046)">
        <path
           transform="matrix(0.001,0,0,0.001,0,0)"
           d="M 342,632 208,269 h 268 z m -56,97 H 398 L 676,0 H 573 L 507,187 H 178 L 112,0 H 8 Z"
           id="path64705" />
      </g>
      <g
         id="use57426"
         style="fill:#333333"
         transform="matrix(3.266833,-3.266833,-3.266833,-3.266833,463.92805,315.7701)">
        <path
           transform="matrix(0.001,0,0,0.001,0,0)"
           d="m 94,760 h 90 V 0 H 94 Z"
           id="path64673" />
      </g>
      <g
         id="use57428"
         style="fill:#333333"
         transform="matrix(3.266833,-3.266833,-3.266833,-3.266833,464.8362,314.86195)">
        <path
           transform="matrix(0.001,0,0,0.001,0,0)"
           d="M 181,82 V -207 H 91 v 754 h 90 v -83 c 18,32 42,56 71,72 29,16 64,24 104,24 66,0 120,-27 162,-79 41,-53 62,-122 62,-208 0,-86 -21,-156 -62,-208 -42,-52 -96,-78 -162,-78 -40,0 -75,8 -104,23 -29,15 -53,39 -71,72 z m 306,191 c 0,66 -14,117 -41,155 -28,38 -65,57 -112,57 -48,0 -85,-19 -112,-57 -28,-38 -41,-89 -41,-155 0,-66 13,-118 41,-156 27,-38 64,-56 112,-56 47,0 84,18 112,56 27,38 41,90 41,156 z"
           id="path64907" />
      </g>
      <g
         id="use57430"
         style="fill:#333333"
         transform="matrix(3.266833,-3.266833,-3.266833,-3.266833,466.91069,312.78749)">
        <path
           transform="matrix(0.001,0,0,0.001,0,0)"
           d="m 343,275 c -73,0 -123,-9 -151,-25 -28,-17 -42,-45 -42,-85 0,-32 10,-58 31,-76 21,-19 50,-28 86,-28 50,0 90,17 120,53 30,35 45,82 45,141 v 20 z m 179,37 V 0 H 432 V 83 C 411,49 385,25 355,10 325,-5 287,-13 243,-13 187,-13 142,2 109,33 76,64 60,106 60,159 c 0,61 20,107 62,139 41,31 102,47 184,47 h 126 v 9 c 0,41 -14,73 -41,96 -27,22 -65,34 -114,34 -32,0 -62,-4 -92,-12 -30,-8 -58,-19 -85,-33 v 83 c 32,12 64,22 95,28 31,6 61,10 91,10 79,0 138,-21 177,-62 39,-41 59,-103 59,-186 z"
           id="path64895" />
      </g>
      <g
         id="use57432"
         style="fill:#333333"
         transform="matrix(3.266833,-3.266833,-3.266833,-3.266833,468.91325,310.7849)">
        <path
           transform="matrix(0.001,0,0,0.001,0,0)"
           d="m 488,526 v -84 c -26,14 -51,24 -77,31 -26,7 -51,11 -77,11 -58,0 -104,-19 -136,-56 -32,-37 -48,-89 -48,-155 0,-67 16,-119 48,-156 32,-37 78,-55 136,-55 26,0 51,3 77,10 26,7 51,18 77,32 V 21 C 462,9 436,0 410,-5 c -27,-5 -56,-8 -86,-8 -82,0 -148,25 -196,77 -49,51 -73,121 -73,209 0,89 24,159 73,210 49,51 116,77 202,77 28,0 55,-3 81,-9 26,-6 52,-14 77,-25 z"
           id="path64879" />
      </g>
      <g
         id="use57434"
         style="fill:#333333"
         transform="matrix(3.266833,-3.266833,-3.266833,-3.266833,470.71,308.98817)">
        <path
           transform="matrix(0.001,0,0,0.001,0,0)"
           d="m 343,275 c -73,0 -123,-9 -151,-25 -28,-17 -42,-45 -42,-85 0,-32 10,-58 31,-76 21,-19 50,-28 86,-28 50,0 90,17 120,53 30,35 45,82 45,141 v 20 z m 179,37 V 0 H 432 V 83 C 411,49 385,25 355,10 325,-5 287,-13 243,-13 187,-13 142,2 109,33 76,64 60,106 60,159 c 0,61 20,107 62,139 41,31 102,47 184,47 h 126 v 9 c 0,41 -14,73 -41,96 -27,22 -65,34 -114,34 -32,0 -62,-4 -92,-12 -30,-8 -58,-19 -85,-33 v 83 c 32,12 64,22 95,28 31,6 61,10 91,10 79,0 138,-21 177,-62 39,-41 59,-103 59,-186 z"
           id="path64899" />
      </g>
      <g
         id="use57436"
         style="fill:#333333"
         transform="matrix(5.46,0,0,-5.46,401.1351,340.28269)">
        <path
           transform="matrix(0.001,0,0,0.001,0,0)"
           d="M 98,729 H 245 L 431,233 618,729 H 765 V 0 H 669 V 640 L 481,140 H 382 L 194,640 V 0 H 98 Z"
           id="path64809" />
      </g>
      <g
         id="use57438"
         style="fill:#333333"
         transform="matrix(5.46,0,0,-5.46,405.84709,340.28269)">
        <path
           transform="matrix(0.001,0,0,0.001,0,0)"
           d="m 306,484 c -48,0 -86,-19 -114,-57 -28,-38 -42,-89 -42,-154 0,-66 13,-117 41,-155 28,-38 66,-56 115,-56 48,0 86,18 114,56 28,38 42,89 42,155 0,64 -14,116 -42,154 -28,38 -66,57 -114,57 z m 0,76 c 78,0 139,-26 184,-76 44,-51 67,-121 67,-211 C 557,183 534,113 490,63 445,12 384,-13 306,-13 227,-13 165,12 121,63 77,113 55,183 55,273 c 0,90 22,160 66,211 44,50 106,76 185,76 z"
           id="path64757" />
      </g>
      <g
         id="use57440"
         style="fill:#333333"
         transform="matrix(5.46,0,0,-5.46,409.1886,340.28269)">
        <path
           transform="matrix(0.001,0,0,0.001,0,0)"
           d="m 454,464 v 296 h 90 V 0 H 454 V 82 C 435,49 411,25 382,10 353,-5 319,-13 279,-13 213,-13 159,13 117,65 75,117 55,187 55,273 c 0,86 20,155 62,208 42,52 96,79 162,79 40,0 74,-8 103,-24 29,-16 53,-40 72,-72 z M 148,273 c 0,-66 13,-118 40,-156 27,-38 64,-56 112,-56 48,0 85,18 113,56 27,38 41,90 41,156 0,66 -14,117 -41,155 -28,38 -65,57 -113,57 -48,0 -85,-19 -112,-57 -27,-38 -40,-89 -40,-155 z"
           id="path64817" />
      </g>
      <g
         id="use57442"
         style="fill:#333333"
         transform="matrix(5.46,0,0,-5.46,412.6557,340.28269)">
        <path
           transform="matrix(0.001,0,0,0.001,0,0)"
           d="M 562,296 V 252 H 149 c 4,-62 22,-110 56,-142 33,-32 79,-48 139,-48 34,0 68,4 100,12 32,8 65,21 97,39 V 28 C 509,14 476,3 442,-3 408,-9 373,-13 339,-13 251,-13 182,12 131,62 80,112 55,181 55,268 c 0,89 24,160 72,213 48,52 114,79 196,79 74,0 132,-24 175,-71 42,-48 64,-112 64,-193 z m -90,26 c -1,49 -15,88 -41,118 -27,29 -63,44 -107,44 -50,0 -90,-15 -120,-43 -30,-28 -48,-68 -52,-119 z"
           id="path64935" />
      </g>
      <g
         id="use57444"
         style="fill:#333333"
         transform="matrix(5.46,0,0,-5.46,416.0136,340.28269)">
        <path
           transform="matrix(0.001,0,0,0.001,0,0)"
           d="m 94,760 h 90 V 0 H 94 Z"
           id="path64677" />
      </g>
      <g
         clip-path="url(#clip_10)"
         id="g57448">
        <path
           transform="matrix(0.42,0,0,-0.42,327.686,344.442)"
           stroke-width="1"
           stroke-linecap="round"
           stroke-linejoin="round"
           fill="none"
           stroke="#d5d6d5"
           d="M 47.278127,134.37409 H 341.51075"
           id="path57446" />
      </g>
      <g
         id="use57450"
         style="fill:#333333"
         transform="matrix(4.62,0,0,-4.62,337.67283,289.76036)">
        <path
           transform="matrix(0.001,0,0,0.001,0,0)"
           d="m 330,404 c -44,0 -79,-16 -105,-46 -26,-30 -39,-72 -39,-124 0,-53 13,-95 39,-125 26,-30 61,-45 105,-45 44,0 79,15 105,45 26,30 39,72 39,125 0,52 -13,94 -39,124 -26,30 -61,46 -105,46 z m 196,309 v -90 c -25,12 -50,21 -75,27 -26,6 -51,9 -75,9 -66,0 -116,-22 -150,-66 -34,-44 -54,-111 -58,-199 19,28 43,50 72,65 29,15 61,23 96,23 73,0 131,-23 173,-67 42,-44 64,-105 64,-181 C 573,159 550,99 506,54 462,9 403,-13 330,-13 246,-13 181,19 137,83 92,147 70,241 70,364 c 0,115 27,207 82,275 54,68 128,103 220,103 24,0 49,-3 75,-7 25,-5 51,-12 79,-22 z"
           id="path64637" />
      </g>
      <g
         id="use57452"
         style="fill:#333333"
         transform="matrix(4.62,0,0,-4.62,340.61116,289.76036)">
        <path
           transform="matrix(0.001,0,0,0.001,0,0)"
           d="m 318,664 c -51,0 -89,-25 -115,-75 -26,-50 -38,-125 -38,-225 0,-100 12,-175 38,-225 26,-50 64,-75 115,-75 51,0 89,25 115,75 25,50 38,125 38,225 0,100 -13,175 -38,225 -26,50 -64,75 -115,75 z m 0,78 c 81,0 143,-33 187,-97 43,-65 65,-159 65,-281 C 570,241 548,147 505,83 461,19 399,-13 317,-13 235,-13 173,19 130,83 87,147 66,241 66,364 c 0,122 21,216 64,281 43,64 106,97 188,97 z"
           id="path64633" />
      </g>
      <g
         clip-path="url(#clip_11)"
         id="g57456">
        <path
           transform="matrix(0.42,0,0,-0.42,327.686,344.442)"
           stroke-width="1"
           stroke-linecap="round"
           stroke-linejoin="round"
           fill="none"
           stroke="#d5d6d5"
           d="M 47.278127,185.54412 H 341.51075"
           id="path57454" />
      </g>
      <g
         id="use57458"
         style="fill:#333333"
         transform="matrix(4.62,0,0,-4.62,337.67283,268.26893)">
        <path
           transform="matrix(0.001,0,0,0.001,0,0)"
           d="m 330,404 c -44,0 -79,-16 -105,-46 -26,-30 -39,-72 -39,-124 0,-53 13,-95 39,-125 26,-30 61,-45 105,-45 44,0 79,15 105,45 26,30 39,72 39,125 0,52 -13,94 -39,124 -26,30 -61,46 -105,46 z m 196,309 v -90 c -25,12 -50,21 -75,27 -26,6 -51,9 -75,9 -66,0 -116,-22 -150,-66 -34,-44 -54,-111 -58,-199 19,28 43,50 72,65 29,15 61,23 96,23 73,0 131,-23 173,-67 42,-44 64,-105 64,-181 C 573,159 550,99 506,54 462,9 403,-13 330,-13 246,-13 181,19 137,83 92,147 70,241 70,364 c 0,115 27,207 82,275 54,68 128,103 220,103 24,0 49,-3 75,-7 25,-5 51,-12 79,-22 z"
           id="path64641" />
      </g>
      <g
         id="use57460"
         style="fill:#333333"
         transform="matrix(4.62,0,0,-4.62,340.61116,268.26893)">
        <path
           transform="matrix(0.001,0,0,0.001,0,0)"
           d="M 124,83 H 285 V 639 L 110,604 v 90 l 174,35 h 99 V 83 H 544 V 0 H 124 Z"
           id="path64725" />
      </g>
      <g
         clip-path="url(#clip_12)"
         id="g57464">
        <path
           transform="matrix(0.42,0,0,-0.42,327.686,344.442)"
           stroke-width="1"
           stroke-linecap="round"
           stroke-linejoin="round"
           fill="none"
           stroke="#d5d6d5"
           d="M 47.278127,236.71414 H 341.51075"
           id="path57462" />
      </g>
      <g
         id="use57466"
         style="fill:#333333"
         transform="matrix(4.62,0,0,-4.62,337.67283,246.77753)">
        <path
           transform="matrix(0.001,0,0,0.001,0,0)"
           d="m 330,404 c -44,0 -79,-16 -105,-46 -26,-30 -39,-72 -39,-124 0,-53 13,-95 39,-125 26,-30 61,-45 105,-45 44,0 79,15 105,45 26,30 39,72 39,125 0,52 -13,94 -39,124 -26,30 -61,46 -105,46 z m 196,309 v -90 c -25,12 -50,21 -75,27 -26,6 -51,9 -75,9 -66,0 -116,-22 -150,-66 -34,-44 -54,-111 -58,-199 19,28 43,50 72,65 29,15 61,23 96,23 73,0 131,-23 173,-67 42,-44 64,-105 64,-181 C 573,159 550,99 506,54 462,9 403,-13 330,-13 246,-13 181,19 137,83 92,147 70,241 70,364 c 0,115 27,207 82,275 54,68 128,103 220,103 24,0 49,-3 75,-7 25,-5 51,-12 79,-22 z"
           id="path64645" />
      </g>
      <g
         id="use57468"
         style="fill:#333333"
         transform="matrix(4.62,0,0,-4.62,340.61116,246.77753)">
        <path
           transform="matrix(0.001,0,0,0.001,0,0)"
           d="M 192,83 H 536 V 0 H 73 v 83 c 37,38 88,90 153,156 64,65 105,107 122,126 32,35 54,65 66,90 12,24 19,49 19,73 0,38 -14,70 -41,94 -27,24 -62,37 -106,37 -31,0 -64,-6 -98,-16 -34,-11 -71,-27 -110,-49 v 100 c 40,16 77,28 111,36 34,8 66,12 95,12 75,0 135,-19 180,-57 45,-38 68,-88 68,-151 0,-30 -6,-59 -17,-85 -11,-27 -31,-59 -61,-95 -8,-10 -34,-37 -78,-82 C 332,227 271,164 192,83 Z"
           id="path64979" />
      </g>
      <g
         clip-path="url(#clip_13)"
         id="g57472">
        <path
           transform="matrix(0.42,0,0,-0.42,327.686,344.442)"
           stroke-width="1"
           stroke-linecap="round"
           stroke-linejoin="round"
           fill="none"
           stroke="#d5d6d5"
           d="M 47.278127,287.88417 H 341.51075"
           id="path57470" />
      </g>
      <g
         id="use57474"
         style="fill:#333333"
         transform="matrix(4.62,0,0,-4.62,337.67283,225.2861)">
        <path
           transform="matrix(0.001,0,0,0.001,0,0)"
           d="m 330,404 c -44,0 -79,-16 -105,-46 -26,-30 -39,-72 -39,-124 0,-53 13,-95 39,-125 26,-30 61,-45 105,-45 44,0 79,15 105,45 26,30 39,72 39,125 0,52 -13,94 -39,124 -26,30 -61,46 -105,46 z m 196,309 v -90 c -25,12 -50,21 -75,27 -26,6 -51,9 -75,9 -66,0 -116,-22 -150,-66 -34,-44 -54,-111 -58,-199 19,28 43,50 72,65 29,15 61,23 96,23 73,0 131,-23 173,-67 42,-44 64,-105 64,-181 C 573,159 550,99 506,54 462,9 403,-13 330,-13 246,-13 181,19 137,83 92,147 70,241 70,364 c 0,115 27,207 82,275 54,68 128,103 220,103 24,0 49,-3 75,-7 25,-5 51,-12 79,-22 z"
           id="path64649" />
      </g>
      <g
         id="use57476"
         style="fill:#333333"
         transform="matrix(4.62,0,0,-4.62,340.61116,225.2861)">
        <path
           transform="matrix(0.001,0,0,0.001,0,0)"
           d="m 406,393 c 47,-10 84,-31 110,-63 26,-32 40,-72 40,-118 C 556,140 531,84 482,45 432,6 362,-13 271,-13 c -31,0 -63,3 -95,9 -32,5 -66,14 -100,26 v 95 c 27,-16 57,-28 90,-36 32,-8 66,-12 102,-12 62,0 109,12 141,36 32,24 49,60 49,107 0,42 -15,76 -45,100 -30,24 -72,37 -126,37 h -85 v 81 h 89 c 48,0 85,9 111,29 26,19 39,47 39,84 0,37 -14,66 -40,86 -27,20 -65,30 -114,30 -27,0 -56,-3 -87,-9 -31,-6 -65,-15 -102,-27 v 88 c 37,10 72,18 105,23 32,5 63,8 93,8 74,0 133,-17 177,-51 44,-34 66,-80 66,-138 0,-40 -12,-74 -35,-102 -23,-28 -56,-48 -98,-58 z"
           id="path64837" />
      </g>
      <g
         clip-path="url(#clip_14)"
         id="g57480">
        <path
           transform="matrix(0.42,0,0,-0.42,327.686,344.442)"
           stroke-width="1"
           stroke-linecap="round"
           stroke-linejoin="round"
           fill="none"
           stroke="#d5d6d5"
           d="M 47.278127,339.0542 H 341.51075"
           id="path57478" />
      </g>
      <g
         id="use57482"
         style="fill:#333333"
         transform="matrix(4.62,0,0,-4.62,337.67283,203.7947)">
        <path
           transform="matrix(0.001,0,0,0.001,0,0)"
           d="m 330,404 c -44,0 -79,-16 -105,-46 -26,-30 -39,-72 -39,-124 0,-53 13,-95 39,-125 26,-30 61,-45 105,-45 44,0 79,15 105,45 26,30 39,72 39,125 0,52 -13,94 -39,124 -26,30 -61,46 -105,46 z m 196,309 v -90 c -25,12 -50,21 -75,27 -26,6 -51,9 -75,9 -66,0 -116,-22 -150,-66 -34,-44 -54,-111 -58,-199 19,28 43,50 72,65 29,15 61,23 96,23 73,0 131,-23 173,-67 42,-44 64,-105 64,-181 C 573,159 550,99 506,54 462,9 403,-13 330,-13 246,-13 181,19 137,83 92,147 70,241 70,364 c 0,115 27,207 82,275 54,68 128,103 220,103 24,0 49,-3 75,-7 25,-5 51,-12 79,-22 z"
           id="path64653" />
      </g>
      <g
         id="use57484"
         style="fill:#333333"
         transform="matrix(4.62,0,0,-4.62,340.61116,203.7947)">
        <path
           transform="matrix(0.001,0,0,0.001,0,0)"
           d="M 378,643 129,254 h 249 z m -26,86 H 476 V 254 H 580 V 172 H 476 V 0 H 378 V 172 H 49 v 95 z"
           id="path64829" />
      </g>
      <g
         id="use57486"
         style="fill:#333333"
         transform="matrix(0,-5.46,-5.46,0,334.8575,253.18537)">
        <path
           transform="matrix(0.001,0,0,0.001,0,0)"
           d="m 444,342 c 21,-8 42,-23 62,-46 20,-24 40,-56 60,-97 L 666,0 H 560 l -93,187 c -24,48 -48,81 -70,97 -23,16 -54,24 -93,24 H 197 V 0 H 98 v 729 h 223 c 83,0 145,-18 186,-52 41,-35 62,-88 62,-158 0,-46 -11,-85 -32,-115 -22,-30 -53,-51 -93,-62 z M 197,648 V 389 h 124 c 47,0 83,11 107,33 24,22 37,54 37,97 0,42 -13,74 -37,96 -24,22 -60,33 -107,33 z"
           id="path64805" />
      </g>
      <g
         id="use57488"
         style="fill:#333333"
         transform="matrix(0,-5.46,-5.46,0,334.8575,249.63347)">
        <path
           transform="matrix(0.001,0,0,0.001,0,0)"
           d="m 306,484 c -48,0 -86,-19 -114,-57 -28,-38 -42,-89 -42,-154 0,-66 13,-117 41,-155 28,-38 66,-56 115,-56 48,0 86,18 114,56 28,38 42,89 42,155 0,64 -14,116 -42,154 -28,38 -66,57 -114,57 z m 0,76 c 78,0 139,-26 184,-76 44,-51 67,-121 67,-211 C 557,183 534,113 490,63 445,12 384,-13 306,-13 227,-13 165,12 121,63 77,113 55,183 55,273 c 0,90 22,160 66,211 44,50 106,76 185,76 z"
           id="path64761" />
      </g>
      <g
         id="use57490"
         style="fill:#333333"
         transform="matrix(0,-5.46,-5.46,0,334.8575,246.29196)">
        <path
           transform="matrix(0.001,0,0,0.001,0,0)"
           d="m 85,216 v 331 h 90 V 219 c 0,-52 10,-90 30,-116 20,-26 50,-39 91,-39 48,0 87,15 115,46 28,31 42,73 42,127 v 310 h 90 V 0 H 453 V 84 C 431,50 405,26 377,10 348,-5 315,-13 277,-13 214,-13 166,6 134,45 101,83 85,140 85,216 Z m 226,344 z"
           id="path64865" />
      </g>
      <g
         id="use57492"
         style="fill:#333333"
         transform="matrix(0,-5.46,-5.46,0,334.8575,242.83032)">
        <path
           transform="matrix(0.001,0,0,0.001,0,0)"
           d="m 454,280 c 0,64 -14,115 -40,151 -27,36 -65,54 -113,54 -48,0 -86,-18 -113,-54 -27,-36 -40,-87 -40,-151 0,-65 13,-115 40,-151 27,-36 65,-54 113,-54 48,0 86,18 113,54 26,36 40,86 40,151 z M 544,68 c 0,-92 -21,-161 -62,-207 -42,-45 -105,-68 -190,-68 -32,0 -61,3 -89,7 -28,5 -56,12 -82,22 v 87 c 26,-14 52,-24 78,-31 26,-7 52,-11 79,-11 58,0 102,16 132,46 29,31 44,77 44,139 V 96 C 435,64 411,40 382,24 353,8 319,0 279,0 211,0 157,25 116,76 75,127 55,195 55,280 c 0,84 20,152 61,203 41,51 95,77 163,77 40,0 74,-8 103,-24 29,-16 53,-40 72,-72 v 83 h 90 z"
           id="path64825" />
      </g>
      <g
         id="use57494"
         style="fill:#333333"
         transform="matrix(0,-5.46,-5.46,0,334.8575,239.36322)">
        <path
           transform="matrix(0.001,0,0,0.001,0,0)"
           d="M 562,296 V 252 H 149 c 4,-62 22,-110 56,-142 33,-32 79,-48 139,-48 34,0 68,4 100,12 32,8 65,21 97,39 V 28 C 509,14 476,3 442,-3 408,-9 373,-13 339,-13 251,-13 182,12 131,62 80,112 55,181 55,268 c 0,89 24,160 72,213 48,52 114,79 196,79 74,0 132,-24 175,-71 42,-48 64,-112 64,-193 z m -90,26 c -1,49 -15,88 -41,118 -27,29 -63,44 -107,44 -50,0 -90,-15 -120,-43 -30,-28 -48,-68 -52,-119 z"
           id="path64939" />
      </g>
      <g
         id="use57496"
         style="fill:#333333"
         transform="matrix(0,-5.46,-5.46,0,334.8575,236.00531)">
        <path
           transform="matrix(0.001,0,0,0.001,0,0)"
           d="m 98,729 h 99 V 83 H 552 V 0 H 98 Z"
           id="path64721" />
      </g>
      <path
         transform="matrix(0.42,0,0,-0.42,327.686,344.442)"
         stroke-width="1.25"
         stroke-linecap="square"
         stroke-miterlimit="10"
         stroke-linejoin="miter"
         fill="none"
         stroke="#333333"
         d="M 47.278127,104.53018 V 378.11894"
         id="path57498" />
      <path
         transform="matrix(0.42,0,0,-0.42,327.686,344.442)"
         stroke-width="1.25"
         stroke-linecap="square"
         stroke-miterlimit="10"
         stroke-linejoin="miter"
         fill="none"
         stroke="#333333"
         d="M 47.278127,104.53018 H 341.51075"
         id="path57500" />
      <g
         clip-path="url(#clip_15)"
         id="g57518">
        <g
           clip-path="url(#clip_16)"
           id="g57504">
          <path
             transform="matrix(0.42,0,0,-0.42,363.6821,190.8551)"
             d="m 0,-2.5 c 0.663008,0 1.29895,0.263416 1.767767,0.732233 C 2.236584,-1.29895 2.5,-0.663008 2.5,0 2.5,0.663008 2.236584,1.29895 1.767767,1.767767 1.29895,2.236584 0.663008,2.5 0,2.5 -0.663008,2.5 -1.29895,2.236584 -1.767767,1.767767 -2.236584,1.29895 -2.5,0.663008 -2.5,0 c 0,-0.663008 0.263416,-1.29895 0.732233,-1.767767 C -1.29895,-2.236584 -0.663008,-2.5 0,-2.5 Z"
             fill="#0173b2"
             id="path57502" />
        </g>
        <g
           clip-path="url(#clip_17)"
           id="g57508">
          <path
             transform="matrix(0.42,0,0,-0.42,357.86445,191.76634)"
             d="m 0,-2.5 c 0.663008,0 1.29895,0.263416 1.767767,0.732233 C 2.236584,-1.29895 2.5,-0.663008 2.5,0 2.5,0.663008 2.236584,1.29895 1.767767,1.767767 1.29895,2.236584 0.663008,2.5 0,2.5 -0.663008,2.5 -1.29895,2.236584 -1.767767,1.767767 -2.236584,1.29895 -2.5,0.663008 -2.5,0 c 0,-0.663008 0.263416,-1.29895 0.732233,-1.767767 C -1.29895,-2.236584 -0.663008,-2.5 0,-2.5 Z"
             fill="#0173b2"
             id="path57506" />
        </g>
        <g
           clip-path="url(#clip_18)"
           id="g57512">
          <path
             transform="matrix(0.42,0,0,-0.42,361.49494,191.1216)"
             d="m 0,-2.5 c 0.663008,0 1.29895,0.263416 1.767767,0.732233 C 2.236584,-1.29895 2.5,-0.663008 2.5,0 2.5,0.663008 2.236584,1.29895 1.767767,1.767767 1.29895,2.236584 0.663008,2.5 0,2.5 -0.663008,2.5 -1.29895,2.236584 -1.767767,1.767767 -2.236584,1.29895 -2.5,0.663008 -2.5,0 c 0,-0.663008 0.263416,-1.29895 0.732233,-1.767767 C -1.29895,-2.236584 -0.663008,-2.5 0,-2.5 Z"
             fill="#0173b2"
             id="path57510" />
        </g>
        <g
           clip-path="url(#clip_19)"
           id="g57516">
          <path
             transform="matrix(0.42,0,0,-0.42,359.9006,192.57227)"
             d="m 0,-2.5 c 0.663008,0 1.29895,0.263416 1.767767,0.732233 C 2.236584,-1.29895 2.5,-0.663008 2.5,0 2.5,0.663008 2.236584,1.29895 1.767767,1.767767 1.29895,2.236584 0.663008,2.5 0,2.5 -0.663008,2.5 -1.29895,2.236584 -1.767767,1.767767 -2.236584,1.29895 -2.5,0.663008 -2.5,0 c 0,-0.663008 0.263416,-1.29895 0.732233,-1.767767 C -1.29895,-2.236584 -0.663008,-2.5 0,-2.5 Z"
             fill="#0173b2"
             id="path57514" />
        </g>
      </g>
      <g
         clip-path="url(#clip_20)"
         id="g57536">
        <g
           clip-path="url(#clip_21)"
           id="g57522">
          <path
             transform="matrix(0.42,0,0,-0.42,384.61613,203.75209)"
             d="m 0,-2.5 c 0.663008,0 1.29895,0.263416 1.767767,0.732233 C 2.236584,-1.29895 2.5,-0.663008 2.5,0 2.5,0.663008 2.236584,1.29895 1.767767,1.767767 1.29895,2.236584 0.663008,2.5 0,2.5 -0.663008,2.5 -1.29895,2.236584 -1.767767,1.767767 -2.236584,1.29895 -2.5,0.663008 -2.5,0 c 0,-0.663008 0.263416,-1.29895 0.732233,-1.767767 C -1.29895,-2.236584 -0.663008,-2.5 0,-2.5 Z"
             fill="#0173b2"
             id="path57520" />
        </g>
        <g
           clip-path="url(#clip_22)"
           id="g57526">
          <path
             transform="matrix(0.42,0,0,-0.42,388.697,202.43038)"
             d="m 0,-2.5 c 0.663008,0 1.29895,0.263416 1.767767,0.732233 C 2.236584,-1.29895 2.5,-0.663008 2.5,0 2.5,0.663008 2.236584,1.29895 1.767767,1.767767 1.29895,2.236584 0.663008,2.5 0,2.5 -0.663008,2.5 -1.29895,2.236584 -1.767767,1.767767 -2.236584,1.29895 -2.5,0.663008 -2.5,0 c 0,-0.663008 0.263416,-1.29895 0.732233,-1.767767 C -1.29895,-2.236584 -0.663008,-2.5 0,-2.5 Z"
             fill="#0173b2"
             id="path57524" />
        </g>
        <g
           clip-path="url(#clip_23)"
           id="g57530">
          <path
             transform="matrix(0.42,0,0,-0.42,386.50654,202.67108)"
             d="m 0,-2.5 c 0.663008,0 1.29895,0.263416 1.767767,0.732233 C 2.236584,-1.29895 2.5,-0.663008 2.5,0 2.5,0.663008 2.236584,1.29895 1.767767,1.767767 1.29895,2.236584 0.663008,2.5 0,2.5 -0.663008,2.5 -1.29895,2.236584 -1.767767,1.767767 -2.236584,1.29895 -2.5,0.663008 -2.5,0 c 0,-0.663008 0.263416,-1.29895 0.732233,-1.767767 C -1.29895,-2.236584 -0.663008,-2.5 0,-2.5 Z"
             fill="#0173b2"
             id="path57528" />
        </g>
        <g
           clip-path="url(#clip_24)"
           id="g57534">
          <path
             transform="matrix(0.42,0,0,-0.42,382.43623,203.43618)"
             d="m 0,-2.5 c 0.663008,0 1.29895,0.263416 1.767767,0.732233 C 2.236584,-1.29895 2.5,-0.663008 2.5,0 2.5,0.663008 2.236584,1.29895 1.767767,1.767767 1.29895,2.236584 0.663008,2.5 0,2.5 -0.663008,2.5 -1.29895,2.236584 -1.767767,1.767767 -2.236584,1.29895 -2.5,0.663008 -2.5,0 c 0,-0.663008 0.263416,-1.29895 0.732233,-1.767767 C -1.29895,-2.236584 -0.663008,-2.5 0,-2.5 Z"
             fill="#0173b2"
             id="path57532" />
        </g>
      </g>
      <g
         clip-path="url(#clip_25)"
         id="g57554">
        <g
           clip-path="url(#clip_26)"
           id="g57540">
          <path
             transform="matrix(0.42,0,0,-0.42,409.33168,216.42559)"
             d="m 0,-2.5 c 0.663008,0 1.29895,0.263416 1.767767,0.732233 C 2.236584,-1.29895 2.5,-0.663008 2.5,0 2.5,0.663008 2.236584,1.29895 1.767767,1.767767 1.29895,2.236584 0.663008,2.5 0,2.5 -0.663008,2.5 -1.29895,2.236584 -1.767767,1.767767 -2.236584,1.29895 -2.5,0.663008 -2.5,0 c 0,-0.663008 0.263416,-1.29895 0.732233,-1.767767 C -1.29895,-2.236584 -0.663008,-2.5 0,-2.5 Z"
             fill="#0173b2"
             id="path57538" />
        </g>
        <g
           clip-path="url(#clip_27)"
           id="g57544">
          <path
             transform="matrix(0.42,0,0,-0.42,410.62934,214.72777)"
             d="m 0,-2.5 c 0.663008,0 1.29895,0.263416 1.767767,0.732233 C 2.236584,-1.29895 2.5,-0.663008 2.5,0 2.5,0.663008 2.236584,1.29895 1.767767,1.767767 1.29895,2.236584 0.663008,2.5 0,2.5 -0.663008,2.5 -1.29895,2.236584 -1.767767,1.767767 -2.236584,1.29895 -2.5,0.663008 -2.5,0 c 0,-0.663008 0.263416,-1.29895 0.732233,-1.767767 C -1.29895,-2.236584 -0.663008,-2.5 0,-2.5 Z"
             fill="#0173b2"
             id="path57542" />
        </g>
        <g
           clip-path="url(#clip_28)"
           id="g57548">
          <path
             transform="matrix(0.42,0,0,-0.42,412.83409,214.69553)"
             d="m 0,-2.5 c 0.663008,0 1.29895,0.263416 1.767767,0.732233 C 2.236584,-1.29895 2.5,-0.663008 2.5,0 2.5,0.663008 2.236584,1.29895 1.767767,1.767767 1.29895,2.236584 0.663008,2.5 0,2.5 -0.663008,2.5 -1.29895,2.236584 -1.767767,1.767767 -2.236584,1.29895 -2.5,0.663008 -2.5,0 c 0,-0.663008 0.263416,-1.29895 0.732233,-1.767767 C -1.29895,-2.236584 -0.663008,-2.5 0,-2.5 Z"
             fill="#0173b2"
             id="path57546" />
        </g>
        <g
           clip-path="url(#clip_29)"
           id="g57552">
          <path
             transform="matrix(0.42,0,0,-0.42,407.51844,215.23067)"
             d="m 0,-2.5 c 0.663008,0 1.29895,0.263416 1.767767,0.732233 C 2.236584,-1.29895 2.5,-0.663008 2.5,0 2.5,0.663008 2.236584,1.29895 1.767767,1.767767 1.29895,2.236584 0.663008,2.5 0,2.5 -0.663008,2.5 -1.29895,2.236584 -1.767767,1.767767 -2.236584,1.29895 -2.5,0.663008 -2.5,0 c 0,-0.663008 0.263416,-1.29895 0.732233,-1.767767 C -1.29895,-2.236584 -0.663008,-2.5 0,-2.5 Z"
             fill="#0173b2"
             id="path57550" />
        </g>
      </g>
      <g
         clip-path="url(#clip_30)"
         id="g57564">
        <g
           clip-path="url(#clip_31)"
           id="g57558">
          <path
             transform="matrix(0.42,0,0,-0.42,434.0472,195.64337)"
             d="m 0,-2.5 c 0.663008,0 1.29895,0.263416 1.767767,0.732233 C 2.236584,-1.29895 2.5,-0.663008 2.5,0 2.5,0.663008 2.236584,1.29895 1.767767,1.767767 1.29895,2.236584 0.663008,2.5 0,2.5 -0.663008,2.5 -1.29895,2.236584 -1.767767,1.767767 -2.236584,1.29895 -2.5,0.663008 -2.5,0 c 0,-0.663008 0.263416,-1.29895 0.732233,-1.767767 C -1.29895,-2.236584 -0.663008,-2.5 0,-2.5 Z"
             fill="#de8f05"
             id="path57556" />
        </g>
        <g
           clip-path="url(#clip_32)"
           id="g57562">
          <path
             transform="matrix(0.42,0,0,-0.42,431.92808,195.06311)"
             d="m 0,-2.5 c 0.663008,0 1.29895,0.263416 1.767767,0.732233 C 2.236584,-1.29895 2.5,-0.663008 2.5,0 2.5,0.663008 2.236584,1.29895 1.767767,1.767767 1.29895,2.236584 0.663008,2.5 0,2.5 -0.663008,2.5 -1.29895,2.236584 -1.767767,1.767767 -2.236584,1.29895 -2.5,0.663008 -2.5,0 c 0,-0.663008 0.263416,-1.29895 0.732233,-1.767767 C -1.29895,-2.236584 -0.663008,-2.5 0,-2.5 Z"
             fill="#de8f05"
             id="path57560" />
        </g>
      </g>
      <g
         clip-path="url(#clip_33)"
         id="g57574">
        <g
           clip-path="url(#clip_34)"
           id="g57568">
          <path
             transform="matrix(0.42,0,0,-0.42,458.76277,262.77183)"
             d="m 0,-2.5 c 0.663008,0 1.29895,0.263416 1.767767,0.732233 C 2.236584,-1.29895 2.5,-0.663008 2.5,0 2.5,0.663008 2.236584,1.29895 1.767767,1.767767 1.29895,2.236584 0.663008,2.5 0,2.5 -0.663008,2.5 -1.29895,2.236584 -1.767767,1.767767 -2.236584,1.29895 -2.5,0.663008 -2.5,0 c 0,-0.663008 0.263416,-1.29895 0.732233,-1.767767 C -1.29895,-2.236584 -0.663008,-2.5 0,-2.5 Z"
             fill="#de8f05"
             id="path57566" />
        </g>
        <g
           clip-path="url(#clip_35)"
           id="g57572">
          <path
             transform="matrix(0.42,0,0,-0.42,458.76277,295.31626)"
             d="m 0,-2.5 c 0.663008,0 1.29895,0.263416 1.767767,0.732233 C 2.236584,-1.29895 2.5,-0.663008 2.5,0 2.5,0.663008 2.236584,1.29895 1.767767,1.767767 1.29895,2.236584 0.663008,2.5 0,2.5 -0.663008,2.5 -1.29895,2.236584 -1.767767,1.767767 -2.236584,1.29895 -2.5,0.663008 -2.5,0 c 0,-0.663008 0.263416,-1.29895 0.732233,-1.767767 C -1.29895,-2.236584 -0.663008,-2.5 0,-2.5 Z"
             fill="#de8f05"
             id="path57570" />
        </g>
      </g>
      <g
         id="use57576"
         style="fill:#333333"
         transform="matrix(5.04,0,0,-5.04,477.89613,258.1372)">
        <path
           transform="matrix(0.001,0,0,0.001,0,0)"
           d="m 487,273 c 0,66 -14,117 -41,155 -28,38 -65,57 -112,57 -48,0 -85,-19 -112,-57 -28,-38 -41,-89 -41,-155 0,-66 13,-118 41,-156 27,-38 64,-56 112,-56 47,0 84,18 112,56 27,38 41,90 41,156 z M 181,464 c 18,32 42,56 71,72 29,16 64,24 104,24 66,0 120,-27 162,-79 41,-53 62,-122 62,-208 0,-86 -21,-156 -62,-208 -42,-52 -96,-78 -162,-78 -40,0 -75,8 -104,23 -29,15 -53,39 -71,72 V 0 H 91 v 760 h 90 z"
           id="path64821" />
      </g>
      <g
         id="use57578"
         style="fill:#333333"
         transform="matrix(5.04,0,0,-5.04,481.09654,258.1372)">
        <path
           transform="matrix(0.001,0,0,0.001,0,0)"
           d="m 94,547 h 90 V 0 H 94 Z m 0,213 h 90 V 646 H 94 Z"
           id="path64915" />
      </g>
      <g
         id="use57580"
         style="fill:#333333"
         transform="matrix(5.04,0,0,-5.04,482.49766,258.1372)">
        <path
           transform="matrix(0.001,0,0,0.001,0,0)"
           d="M 183,702 V 547 H 368 V 477 H 183 V 180 c 0,-45 6,-74 18,-86 12,-13 37,-19 75,-19 h 92 V 0 H 276 C 206,0 158,13 132,39 106,65 93,112 93,180 V 477 H 27 v 70 h 66 v 155 z"
           id="path64959" />
      </g>
      <g
         id="use57582"
         style="fill:#333333"
         transform="matrix(5.04,0,0,-5.04,484.47334,258.1372)">
        <path
           transform="matrix(0.001,0,0,0.001,0,0)"
           d="m 443,531 v -85 c -26,12 -52,22 -79,29 -28,6 -56,10 -85,10 -45,0 -79,-7 -101,-21 -22,-14 -33,-34 -33,-61 0,-21 8,-37 24,-49 16,-12 48,-24 96,-34 l 31,-7 c 64,-14 109,-34 136,-58 26,-25 40,-60 40,-104 0,-51 -20,-91 -60,-120 -40,-30 -96,-44 -166,-44 -30,0 -60,3 -92,8 C 122,0 89,8 54,20 v 93 c 33,-18 66,-31 98,-39 32,-9 64,-13 96,-13 42,0 75,7 98,21 22,14 34,35 34,62 0,24 -9,43 -25,56 -16,13 -52,26 -108,38 l -31,7 c -56,12 -97,30 -121,54 -25,24 -37,57 -37,100 0,51 18,91 54,119 36,28 88,42 156,42 33,0 64,-3 94,-8 29,-5 56,-12 81,-21 z"
           id="path64849" />
      </g>
      <path
         transform="matrix(0.42,0,0,-0.42,327.686,344.442)"
         d="m 357.19627,189.01572 c 0.79559,0 1.55873,0.3161 2.12131,0.87868 0.56259,0.56257 0.87869,1.32571 0.87869,2.12132 0,0.79561 -0.3161,1.55873 -0.87869,2.12132 -0.56258,0.56258 -1.32572,0.87868 -2.12131,0.87868 -0.79562,0 -1.55877,-0.3161 -2.12134,-0.87868 -0.56256,-0.56259 -0.87866,-1.32571 -0.87866,-2.12132 0,-0.79561 0.3161,-1.55875 0.87866,-2.12132 0.56257,-0.56258 1.32572,-0.87868 2.12134,-0.87868 z"
         fill="#0173b2"
         id="path57584" />
      <path
         transform="matrix(0.42,0,0,-0.42,327.686,344.442)"
         stroke-width="1"
         stroke-linecap="butt"
         stroke-linejoin="round"
         fill="none"
         stroke="#0173b2"
         d="m 357.19627,189.01572 c 0.79559,0 1.55873,0.3161 2.12131,0.87868 0.56259,0.56257 0.87869,1.32571 0.87869,2.12132 0,0.79561 -0.3161,1.55873 -0.87869,2.12132 -0.56258,0.56258 -1.32572,0.87868 -2.12131,0.87868 -0.79562,0 -1.55877,-0.3161 -2.12134,-0.87868 -0.56256,-0.56259 -0.87866,-1.32571 -0.87866,-2.12132 0,-0.79561 0.3161,-1.55875 0.87866,-2.12132 0.56257,-0.56258 1.32572,-0.87868 2.12134,-0.87868 z"
         id="path57586" />
      <g
         id="use57588"
         style="fill:#333333"
         transform="matrix(4.62,0,0,-4.62,486.0244,265.00813)">
        <path
           transform="matrix(0.001,0,0,0.001,0,0)"
           d="M 378,643 129,254 h 249 z m -26,86 H 476 V 254 H 580 V 172 H 476 V 0 H 378 V 172 H 49 v 95 z"
           id="path64833" />
      </g>
      <path
         transform="matrix(0.42,0,0,-0.42,327.686,344.442)"
         d="m 357.19627,172.87509 c 0.79559,0 1.55873,0.31611 2.12131,0.87868 0.56259,0.56258 0.87869,1.32572 0.87869,2.12132 0,0.79561 -0.3161,1.55874 -0.87869,2.12133 -0.56258,0.56257 -1.32572,0.87867 -2.12131,0.87867 -0.79562,0 -1.55877,-0.3161 -2.12134,-0.87867 -0.56256,-0.56259 -0.87866,-1.32572 -0.87866,-2.12133 0,-0.7956 0.3161,-1.55874 0.87866,-2.12132 0.56257,-0.56257 1.32572,-0.87868 2.12134,-0.87868 z"
         fill="#de8f05"
         id="path57590" />
      <path
         transform="matrix(0.42,0,0,-0.42,327.686,344.442)"
         stroke-width="1"
         stroke-linecap="butt"
         stroke-linejoin="round"
         fill="none"
         stroke="#de8f05"
         d="m 357.19627,172.87509 c 0.79559,0 1.55873,0.31611 2.12131,0.87868 0.56259,0.56258 0.87869,1.32572 0.87869,2.12132 0,0.79561 -0.3161,1.55874 -0.87869,2.12133 -0.56258,0.56257 -1.32572,0.87867 -2.12131,0.87867 -0.79562,0 -1.55877,-0.3161 -2.12134,-0.87867 -0.56256,-0.56259 -0.87866,-1.32572 -0.87866,-2.12133 0,-0.7956 0.3161,-1.55874 0.87866,-2.12132 0.56257,-0.56257 1.32572,-0.87868 2.12134,-0.87868 z"
         id="path57592" />
      <g
         id="use57594"
         style="fill:#333333"
         transform="matrix(4.62,0,0,-4.62,486.0244,271.7872)">
        <path
           transform="matrix(0.001,0,0,0.001,0,0)"
           d="M 124,83 H 285 V 639 L 110,604 v 90 l 174,35 h 99 V 83 H 544 V 0 H 124 Z"
           id="path64729" />
      </g>
      <g
         id="use57596"
         style="fill:#333333"
         transform="matrix(4.62,0,0,-4.62,488.96275,271.7872)">
        <path
           transform="matrix(0.001,0,0,0.001,0,0)"
           d="m 330,404 c -44,0 -79,-16 -105,-46 -26,-30 -39,-72 -39,-124 0,-53 13,-95 39,-125 26,-30 61,-45 105,-45 44,0 79,15 105,45 26,30 39,72 39,125 0,52 -13,94 -39,124 -26,30 -61,46 -105,46 z m 196,309 v -90 c -25,12 -50,21 -75,27 -26,6 -51,9 -75,9 -66,0 -116,-22 -150,-66 -34,-44 -54,-111 -58,-199 19,28 43,50 72,65 29,15 61,23 96,23 73,0 131,-23 173,-67 42,-44 64,-105 64,-181 C 573,159 550,99 506,54 462,9 403,-13 330,-13 246,-13 181,19 137,83 92,147 70,241 70,364 c 0,115 27,207 82,275 54,68 128,103 220,103 24,0 49,-3 75,-7 25,-5 51,-12 79,-22 z"
           id="path64657" />
      </g>
    </g>
  </g>
</svg>
