<svg xmlns:inkscape="http://www.inkscape.org/namespaces/inkscape" xmlns:sodipodi="http://sodipodi.sourceforge.net/DTD/sodipodi-0.dtd" xmlns="http://www.w3.org/2000/svg" xmlns:svg="http://www.w3.org/2000/svg" width="111.76488mm" height="83.823654mm" viewBox="0 0 111.76488 83.823654" version="1.1" id="svg4830" inkscape:version="1.2.2 (b0a84865, 2022-12-01)" sodipodi:docname="figure_6.svg">
  <sodipodi:namedview id="namedview4832" pagecolor="#ffffff" bordercolor="#999999" borderopacity="1" inkscape:showpageshadow="0" inkscape:pageopacity="0" inkscape:pagecheckerboard="0" inkscape:deskcolor="#d1d1d1" inkscape:document-units="mm" showgrid="false" inkscape:zoom="2.587745" inkscape:cx="195.73026" inkscape:cy="201.14038" inkscape:window-width="1390" inkscape:window-height="1205" inkscape:window-x="3" inkscape:window-y="540" inkscape:window-maximized="0" inkscape:current-layer="g452"/>
  <defs id="defs4827">
    <clipPath id="clip_1">
      <path transform="matrix(0.68753,0,0,-0.68753,147.599,309.61)" d="M 0,0 H 460.8 V 345.6 H 0 Z" id="path2"/>
    </clipPath>
    <clipPath id="clip_3">
      <path transform="matrix(0.68753,0,0,-0.68753,147.599,309.61)" d="M 57.6,38.016 H 414.72 V 304.128 H 57.6 Z" id="path51"/>
    </clipPath>
    <clipPath id="clip_4">
      <path transform="matrix(0.68753,0,0,-0.68753,198.3612,108.82922)" d="M -7.85317,-7.427051 H 7.85317 V 8 H -7.85317 Z" id="path54"/>
    </clipPath>
    <clipPath id="clip_5">
      <path transform="matrix(0.68753,0,0,-0.68753,325.12013,264.50996)" d="M -7.85317,-7.427051 H 7.85317 V 8 H -7.85317 Z" id="path57"/>
    </clipPath>
    <clipPath id="clip_6">
      <path transform="matrix(0.68753,0,0,-0.68753,421.57093,269.13017)" d="M -7.85317,-7.427051 H 7.85317 V 8 H -7.85317 Z" id="path60"/>
    </clipPath>
    <clipPath id="clip_7">
      <path transform="matrix(0.68753,0,0,-0.68753,147.599,309.61)" d="M 57.6,38.016 H 414.72 V 304.128 H 57.6 Z" id="path63"/>
    </clipPath>
    <clipPath id="clip_8">
      <path transform="matrix(0.68753,0,0,-0.68753,198.3612,108.82922)" d="M -8,-8 H 8 V 8 H -8 Z" id="path66"/>
    </clipPath>
    <clipPath id="clip_9">
      <path transform="matrix(0.68753,0,0,-0.68753,238.60472,268.12574)" d="M -8,-8 H 8 V 8 H -8 Z" id="path69"/>
    </clipPath>
    <clipPath id="clip_10">
      <path transform="matrix(0.68753,0,0,-0.68753,248.9414,269.13014)" d="M -8,-8 H 8 V 8 H -8 Z" id="path72"/>
    </clipPath>
    <clipPath id="clip_11">
      <path transform="matrix(0.68753,0,0,-0.68753,254.28726,275.15647)" d="M -8,-8 H 8 V 8 H -8 Z" id="path75"/>
    </clipPath>
  </defs>
  <g inkscape:label="Layer 1" inkscape:groupmode="layer" id="layer1" transform="translate(-4.2694611,-38.194307)" color="rgb(209, 209, 209)">
    <g clip-path="url(#clip_1)" id="g452" transform="matrix(0.35277777,0,0,0.35277777,-47.800185,12.794437)" color="rgb(209, 209, 209)">
      <path transform="matrix(0.68753,0,0,-0.68753,147.599,309.61)" d="m 342.3875,38.016 v -3.5" id="path204"/>
      <path transform="matrix(0.68753,0,0,-0.68753,147.599,309.61)" stroke-width="0.8" stroke-linecap="butt" stroke-linejoin="round" fill="none" stroke="currentColor" d="m 342.3875,38.016 v -3.5" id="path206"/>
      <g id="use208" transform="matrix(7.56283,0,0,-7.56283,374.40657,294.1575)" color="rgb(209, 209, 209)" style="fill:currentColor">
        <path transform="matrix(0.001,0,0,0.001,0,0)" d="M 124,83 H 285 V 639 L 110,604 v 90 l 174,35 h 99 V 83 H 544 V 0 H 124 Z" id="path5664" style="fill:currentColor"/>
      </g>
      <g id="use210" transform="matrix(7.56283,0,0,-7.56283,379.21827,294.1575)" color="rgb(209, 209, 209)" style="fill:currentColor">
        <path transform="matrix(0.001,0,0,0.001,0,0)" d="m 318,664 c -51,0 -89,-25 -115,-75 -26,-50 -38,-125 -38,-225 0,-100 12,-175 38,-225 26,-50 64,-75 115,-75 51,0 89,25 115,75 25,50 38,125 38,225 0,100 -13,175 -38,225 -26,50 -64,75 -115,75 z m 0,78 c 81,0 143,-33 187,-97 43,-65 65,-159 65,-281 C 570,241 548,147 505,83 461,19 399,-13 317,-13 235,-13 173,19 130,83 87,147 66,241 66,364 c 0,122 21,216 64,281 43,64 106,97 188,97 z" id="path5922" style="fill:currentColor"/>
      </g>
      <g id="use212" transform="matrix(5.2939808,0,0,-5.2939808,384.10234,291.26237)" color="rgb(209, 209, 209)" style="fill:currentColor">
        <path transform="matrix(0.001,0,0,0.001,0,0)" d="M 124,83 H 285 V 639 L 110,604 v 90 l 174,35 h 99 V 83 H 544 V 0 H 124 Z" id="path5668" style="fill:currentColor"/>
      </g>
      <g id="use214" transform="matrix(5.2939808,0,0,-5.2939808,387.47053,291.26237)" color="rgb(209, 209, 209)" style="fill:currentColor">
        <path transform="matrix(0.001,0,0,0.001,0,0)" d="M 82,729 H 551 V 687 L 286,0 H 183 L 432,646 H 82 Z" id="path5918" style="fill:currentColor"/>
      </g>
      <path transform="matrix(0.68753,0,0,-0.68753,147.599,309.61)" d="m 83.88386,38.016 v -2" id="path216"/>
      <path transform="matrix(0.68753,0,0,-0.68753,147.599,309.61)" stroke-width="0.6" stroke-linecap="butt" stroke-linejoin="round" fill="none" stroke="currentColor" d="m 83.88386,38.016 v -2" id="path218"/>
      <g id="use220" transform="matrix(7.56283,0,0,-7.56283,189.80225,293.13264)" color="rgb(209, 209, 209)" style="fill:currentColor">
        <path transform="matrix(0.001,0,0,0.001,0,0)" d="M 378,643 129,254 h 249 z m -26,86 H 476 V 254 H 580 V 172 H 476 V 0 H 378 V 172 H 49 v 95 z" id="path5910" style="fill:currentColor"/>
      </g>
      <g id="use222" transform="matrix(7.56283,0,0,-7.56283,196.08737,293.13264)" color="rgb(209, 209, 209)" style="fill:currentColor">
        <path transform="matrix(0.001,0,0,0.001,0,0)" d="M 701,537 478,313 701,90 643,31 419,255 195,31 137,90 360,313 137,537 195,596 419,372 643,596 Z" id="path5902" style="fill:currentColor"/>
      </g>
      <g id="use224" transform="matrix(7.56283,0,0,-7.56283,203.89762,293.13264)" color="rgb(209, 209, 209)" style="fill:currentColor">
        <path transform="matrix(0.001,0,0,0.001,0,0)" d="M 124,83 H 285 V 639 L 110,604 v 90 l 174,35 h 99 V 83 H 544 V 0 H 124 Z" id="path5672" style="fill:currentColor"/>
      </g>
      <g id="use226" transform="matrix(7.56283,0,0,-7.56283,208.70932,293.13264)" color="rgb(209, 209, 209)" style="fill:currentColor">
        <path transform="matrix(0.001,0,0,0.001,0,0)" d="m 318,664 c -51,0 -89,-25 -115,-75 -26,-50 -38,-125 -38,-225 0,-100 12,-175 38,-225 26,-50 64,-75 115,-75 51,0 89,25 115,75 25,50 38,125 38,225 0,100 -13,175 -38,225 -26,50 -64,75 -115,75 z m 0,78 c 81,0 143,-33 187,-97 43,-65 65,-159 65,-281 C 570,241 548,147 505,83 461,19 399,-13 317,-13 235,-13 173,19 130,83 87,147 66,241 66,364 c 0,122 21,216 64,281 43,64 106,97 188,97 z" id="path5926" style="fill:currentColor"/>
      </g>
      <g id="use228" transform="matrix(5.2939808,0,0,-5.2939808,213.5934,290.2375)" color="rgb(209, 209, 209)" style="fill:currentColor">
        <path transform="matrix(0.001,0,0,0.001,0,0)" d="M 124,83 H 285 V 639 L 110,604 v 90 l 174,35 h 99 V 83 H 544 V 0 H 124 Z" id="path5676" style="fill:currentColor"/>
      </g>
      <g id="use230" transform="matrix(5.2939808,0,0,-5.2939808,216.9616,290.2375)" color="rgb(209, 209, 209)" style="fill:currentColor">
        <path transform="matrix(0.001,0,0,0.001,0,0)" d="m 330,404 c -44,0 -79,-16 -105,-46 -26,-30 -39,-72 -39,-124 0,-53 13,-95 39,-125 26,-30 61,-45 105,-45 44,0 79,15 105,45 26,30 39,72 39,125 0,52 -13,94 -39,124 -26,30 -61,46 -105,46 z m 196,309 v -90 c -25,12 -50,21 -75,27 -26,6 -51,9 -75,9 -66,0 -116,-22 -150,-66 -34,-44 -54,-111 -58,-199 19,28 43,50 72,65 29,15 61,23 96,23 73,0 131,-23 173,-67 42,-44 64,-105 64,-181 C 573,159 550,99 506,54 462,9 403,-13 330,-13 246,-13 181,19 137,83 92,147 70,241 70,364 c 0,115 27,207 82,275 54,68 128,103 220,103 24,0 49,-3 75,-7 25,-5 51,-12 79,-22 z" id="path5878" style="fill:currentColor"/>
      </g>
      <path transform="matrix(0.68753,0,0,-0.68753,147.599,309.61)" d="m 146.83705,38.016 v -2" id="path232"/>
      <path transform="matrix(0.68753,0,0,-0.68753,147.599,309.61)" stroke-width="0.6" stroke-linecap="butt" stroke-linejoin="round" fill="none" stroke="currentColor" d="m 146.83705,38.016 v -2" id="path234"/>
      <path transform="matrix(0.68753,0,0,-0.68753,147.599,309.61)" d="m 198.27356,38.016 v -2" id="path236"/>
      <path transform="matrix(0.68753,0,0,-0.68753,147.599,309.61)" stroke-width="0.6" stroke-linecap="butt" stroke-linejoin="round" fill="none" stroke="currentColor" d="m 198.27356,38.016 v -2" id="path238"/>
      <g id="use240" transform="matrix(7.56283,0,0,-7.56283,268.4486,293.13264)" color="rgb(209, 209, 209)" style="fill:currentColor">
        <path transform="matrix(0.001,0,0,0.001,0,0)" d="m 330,404 c -44,0 -79,-16 -105,-46 -26,-30 -39,-72 -39,-124 0,-53 13,-95 39,-125 26,-30 61,-45 105,-45 44,0 79,15 105,45 26,30 39,72 39,125 0,52 -13,94 -39,124 -26,30 -61,46 -105,46 z m 196,309 v -90 c -25,12 -50,21 -75,27 -26,6 -51,9 -75,9 -66,0 -116,-22 -150,-66 -34,-44 -54,-111 -58,-199 19,28 43,50 72,65 29,15 61,23 96,23 73,0 131,-23 173,-67 42,-44 64,-105 64,-181 C 573,159 550,99 506,54 462,9 403,-13 330,-13 246,-13 181,19 137,83 92,147 70,241 70,364 c 0,115 27,207 82,275 54,68 128,103 220,103 24,0 49,-3 75,-7 25,-5 51,-12 79,-22 z" id="path5882" style="fill:currentColor"/>
      </g>
      <g id="use242" transform="matrix(7.56283,0,0,-7.56283,274.73374,293.13264)" color="rgb(209, 209, 209)" style="fill:currentColor">
        <path transform="matrix(0.001,0,0,0.001,0,0)" d="M 701,537 478,313 701,90 643,31 419,255 195,31 137,90 360,313 137,537 195,596 419,372 643,596 Z" id="path5906" style="fill:currentColor"/>
      </g>
      <g id="use244" transform="matrix(7.56283,0,0,-7.56283,282.54399,293.13264)" color="rgb(209, 209, 209)" style="fill:currentColor">
        <path transform="matrix(0.001,0,0,0.001,0,0)" d="M 124,83 H 285 V 639 L 110,604 v 90 l 174,35 h 99 V 83 H 544 V 0 H 124 Z" id="path5680" style="fill:currentColor"/>
      </g>
      <g id="use246" transform="matrix(7.56283,0,0,-7.56283,287.35569,293.13264)" color="rgb(209, 209, 209)" style="fill:currentColor">
        <path transform="matrix(0.001,0,0,0.001,0,0)" d="m 318,664 c -51,0 -89,-25 -115,-75 -26,-50 -38,-125 -38,-225 0,-100 12,-175 38,-225 26,-50 64,-75 115,-75 51,0 89,25 115,75 25,50 38,125 38,225 0,100 -13,175 -38,225 -26,50 -64,75 -115,75 z m 0,78 c 81,0 143,-33 187,-97 43,-65 65,-159 65,-281 C 570,241 548,147 505,83 461,19 399,-13 317,-13 235,-13 173,19 130,83 87,147 66,241 66,364 c 0,122 21,216 64,281 43,64 106,97 188,97 z" id="path5930" style="fill:currentColor"/>
      </g>
      <g id="use248" transform="matrix(5.2939808,0,0,-5.2939808,292.23979,290.2375)" color="rgb(209, 209, 209)" style="fill:currentColor">
        <path transform="matrix(0.001,0,0,0.001,0,0)" d="M 124,83 H 285 V 639 L 110,604 v 90 l 174,35 h 99 V 83 H 544 V 0 H 124 Z" id="path5684" style="fill:currentColor"/>
      </g>
      <g id="use250" transform="matrix(5.2939808,0,0,-5.2939808,295.60798,290.2375)" color="rgb(209, 209, 209)" style="fill:currentColor">
        <path transform="matrix(0.001,0,0,0.001,0,0)" d="m 330,404 c -44,0 -79,-16 -105,-46 -26,-30 -39,-72 -39,-124 0,-53 13,-95 39,-125 26,-30 61,-45 105,-45 44,0 79,15 105,45 26,30 39,72 39,125 0,52 -13,94 -39,124 -26,30 -61,46 -105,46 z m 196,309 v -90 c -25,12 -50,21 -75,27 -26,6 -51,9 -75,9 -66,0 -116,-22 -150,-66 -34,-44 -54,-111 -58,-199 19,28 43,50 72,65 29,15 61,23 96,23 73,0 131,-23 173,-67 42,-44 64,-105 64,-181 C 573,159 550,99 506,54 462,9 403,-13 330,-13 246,-13 181,19 137,83 92,147 70,241 70,364 c 0,115 27,207 82,275 54,68 128,103 220,103 24,0 49,-3 75,-7 25,-5 51,-12 79,-22 z" id="path5886" style="fill:currentColor"/>
      </g>
      <path transform="matrix(0.68753,0,0,-0.68753,147.599,309.61)" d="m 241.7625,38.016 v -2" id="path252"/>
      <path transform="matrix(0.68753,0,0,-0.68753,147.599,309.61)" stroke-width="0.6" stroke-linecap="butt" stroke-linejoin="round" fill="none" stroke="currentColor" d="m 241.7625,38.016 v -2" id="path254"/>
      <path transform="matrix(0.68753,0,0,-0.68753,147.599,309.61)" d="m 279.43434,38.016 v -2" id="path256"/>
      <path transform="matrix(0.68753,0,0,-0.68753,147.599,309.61)" stroke-width="0.6" stroke-linecap="butt" stroke-linejoin="round" fill="none" stroke="currentColor" d="m 279.43434,38.016 v -2" id="path258"/>
      <path transform="matrix(0.68753,0,0,-0.68753,147.599,309.61)" d="m 312.66325,38.016 v -2" id="path260"/>
      <path transform="matrix(0.68753,0,0,-0.68753,147.599,309.61)" stroke-width="0.6" stroke-linecap="butt" stroke-linejoin="round" fill="none" stroke="currentColor" d="m 312.66325,38.016 v -2" id="path262"/>
      <g id="use264" transform="matrix(7.56283,0,0,-7.56283,298.67018,304.34584)" color="rgb(209, 209, 209)" style="fill:currentColor">
        <path transform="matrix(0.001,0,0,0.001,0,0)" d="M 98,729 H 517 V 646 H 197 V 431 H 486 V 348 H 197 V 0 H 98 Z" id="path5874" style="fill:currentColor"/>
      </g>
      <g id="use266" transform="matrix(7.56283,0,0,-7.56283,303.0188,304.34584)" color="rgb(209, 209, 209)" style="fill:currentColor">
        <path transform="matrix(0.001,0,0,0.001,0,0)" d="m 98,729 h 99 V 83 H 552 V 0 H 98 Z" id="path5862" style="fill:currentColor"/>
      </g>
      <g id="use268" transform="matrix(7.56283,0,0,-7.56283,306.96275,304.34584)" color="rgb(209, 209, 209)" style="fill:currentColor">
        <path transform="matrix(0.001,0,0,0.001,0,0)" d="m 394,662 c -72,0 -129,-27 -171,-80 -42,-54 -63,-126 -63,-218 0,-92 21,-165 63,-218 42,-54 99,-80 171,-80 71,0 128,26 170,80 42,53 63,126 63,218 0,92 -21,164 -63,218 -42,53 -99,80 -170,80 z m 0,80 C 496,742 577,707 639,639 700,571 731,479 731,364 731,248 700,157 639,89 577,21 496,-13 394,-13 291,-13 209,21 148,89 86,157 56,248 56,364 c 0,115 30,207 92,275 61,68 143,103 246,103 z" id="path5858" style="fill:currentColor"/>
      </g>
      <g id="use270" transform="matrix(7.56283,0,0,-7.56283,312.91468,304.34584)" color="rgb(209, 209, 209)" style="fill:currentColor">
        <path transform="matrix(0.001,0,0,0.001,0,0)" d="M 197,648 V 374 h 124 c 46,0 81,11 106,35 25,24 38,58 38,102 0,44 -13,77 -38,101 -25,24 -60,36 -106,36 z m -99,81 h 223 c 81,0 143,-19 185,-56 42,-37 63,-91 63,-162 C 569,439 548,384 506,348 464,311 402,293 321,293 H 197 V 0 H 98 Z" id="path5846" style="fill:currentColor"/>
      </g>
      <g id="use272" transform="matrix(7.56283,0,0,-7.56283,317.34614,304.34584)" color="rgb(209, 209, 209)" style="fill:currentColor">
        <path transform="matrix(0.001,0,0,0.001,0,0)" d="m 443,531 v -85 c -26,12 -52,22 -79,29 -28,6 -56,10 -85,10 -45,0 -79,-7 -101,-21 -22,-14 -33,-34 -33,-61 0,-21 8,-37 24,-49 16,-12 48,-24 96,-34 l 31,-7 c 64,-14 109,-34 136,-58 26,-25 40,-60 40,-104 0,-51 -20,-91 -60,-120 -40,-30 -96,-44 -166,-44 -30,0 -60,3 -92,8 C 122,0 89,8 54,20 v 93 c 33,-18 66,-31 98,-39 32,-9 64,-13 96,-13 42,0 75,7 98,21 22,14 34,35 34,62 0,24 -9,43 -25,56 -16,13 -52,26 -108,38 l -31,7 c -56,12 -97,30 -121,54 -25,24 -37,57 -37,100 0,51 18,91 54,119 36,28 88,42 156,42 33,0 64,-3 94,-8 29,-5 56,-12 81,-21 z" id="path5834" style="fill:currentColor"/>
      </g>
      <path transform="matrix(0.68753,0,0,-0.68753,147.599,309.61)" d="M 57.6,79.03722 H 54.1" id="path274"/>
      <path transform="matrix(0.68753,0,0,-0.68753,147.599,309.61)" stroke-width="0.8" stroke-linecap="butt" stroke-linejoin="round" fill="none" stroke="currentColor" d="M 57.6,79.03722 H 54.1" id="path276"/>
      <g id="use278" transform="matrix(7.56283,0,0,-7.56283,177.5753,258.1432)" color="rgb(209, 209, 209)" style="fill:currentColor">
        <path transform="matrix(0.001,0,0,0.001,0,0)" d="M 378,643 129,254 h 249 z m -26,86 H 476 V 254 H 580 V 172 H 476 V 0 H 378 V 172 H 49 v 95 z" id="path5914" style="fill:currentColor"/>
      </g>
      <path transform="matrix(0.68753,0,0,-0.68753,147.599,309.61)" d="M 57.6,137.472 H 54.1" id="path280"/>
      <path transform="matrix(0.68753,0,0,-0.68753,147.599,309.61)" stroke-width="0.8" stroke-linecap="butt" stroke-linejoin="round" fill="none" stroke="currentColor" d="M 57.6,137.472 H 54.1" id="path282"/>
      <g id="use284" transform="matrix(7.56283,0,0,-7.56283,177.5753,217.96753)" color="rgb(209, 209, 209)" style="fill:currentColor">
        <path transform="matrix(0.001,0,0,0.001,0,0)" d="m 330,404 c -44,0 -79,-16 -105,-46 -26,-30 -39,-72 -39,-124 0,-53 13,-95 39,-125 26,-30 61,-45 105,-45 44,0 79,15 105,45 26,30 39,72 39,125 0,52 -13,94 -39,124 -26,30 -61,46 -105,46 z m 196,309 v -90 c -25,12 -50,21 -75,27 -26,6 -51,9 -75,9 -66,0 -116,-22 -150,-66 -34,-44 -54,-111 -58,-199 19,28 43,50 72,65 29,15 61,23 96,23 73,0 131,-23 173,-67 42,-44 64,-105 64,-181 C 573,159 550,99 506,54 462,9 403,-13 330,-13 246,-13 181,19 137,83 92,147 70,241 70,364 c 0,115 27,207 82,275 54,68 128,103 220,103 24,0 49,-3 75,-7 25,-5 51,-12 79,-22 z" id="path5890" style="fill:currentColor"/>
      </g>
      <path transform="matrix(0.68753,0,0,-0.68753,147.599,309.61)" d="M 57.6,195.90679 H 54.1" id="path286"/>
      <path transform="matrix(0.68753,0,0,-0.68753,147.599,309.61)" stroke-width="0.8" stroke-linecap="butt" stroke-linejoin="round" fill="none" stroke="currentColor" d="M 57.6,195.90679 H 54.1" id="path288"/>
      <g id="use290" transform="matrix(7.56283,0,0,-7.56283,177.5753,177.79186)" color="rgb(209, 209, 209)" style="fill:currentColor">
        <path transform="matrix(0.001,0,0,0.001,0,0)" d="m 318,346 c -47,0 -84,-13 -111,-38 -27,-25 -40,-59 -40,-103 0,-44 13,-79 40,-104 27,-25 64,-37 111,-37 46,0 83,12 110,38 27,25 41,59 41,103 0,44 -14,78 -40,103 -27,25 -64,38 -111,38 z m -99,42 c -42,10 -75,30 -99,59 -24,29 -35,64 -35,106 0,58 20,104 62,138 41,34 98,51 171,51 72,0 129,-17 171,-51 41,-34 62,-80 62,-138 0,-42 -12,-77 -36,-106 -24,-29 -56,-49 -98,-59 47,-11 84,-33 111,-65 26,-32 40,-72 40,-118 C 568,134 546,80 503,43 459,5 397,-13 317,-13 237,-13 175,5 132,43 89,80 68,134 68,205 c 0,46 13,86 40,118 26,32 63,54 111,65 z m -36,156 c 0,-38 11,-68 35,-89 24,-21 57,-31 100,-31 42,0 75,10 99,31 24,21 36,51 36,89 0,38 -12,67 -36,88 -24,21 -57,32 -99,32 -43,0 -76,-11 -100,-32 -24,-21 -35,-50 -35,-88 z" id="path5822" style="fill:currentColor"/>
      </g>
      <path transform="matrix(0.68753,0,0,-0.68753,147.599,309.61)" d="M 57.6,254.34157 H 54.1" id="path292"/>
      <path transform="matrix(0.68753,0,0,-0.68753,147.599,309.61)" stroke-width="0.8" stroke-linecap="butt" stroke-linejoin="round" fill="none" stroke="currentColor" d="M 57.6,254.34157 H 54.1" id="path294"/>
      <g id="use296" transform="matrix(7.56283,0,0,-7.56283,172.7626,137.6162)" color="rgb(209, 209, 209)" style="fill:currentColor">
        <path transform="matrix(0.001,0,0,0.001,0,0)" d="M 124,83 H 285 V 639 L 110,604 v 90 l 174,35 h 99 V 83 H 544 V 0 H 124 Z" id="path5688" style="fill:currentColor"/>
      </g>
      <g id="use298" transform="matrix(7.56283,0,0,-7.56283,177.57257,137.6162)" color="rgb(209, 209, 209)" style="fill:currentColor">
        <path transform="matrix(0.001,0,0,0.001,0,0)" d="m 318,664 c -51,0 -89,-25 -115,-75 -26,-50 -38,-125 -38,-225 0,-100 12,-175 38,-225 26,-50 64,-75 115,-75 51,0 89,25 115,75 25,50 38,125 38,225 0,100 -13,175 -38,225 -26,50 -64,75 -115,75 z m 0,78 c 81,0 143,-33 187,-97 43,-65 65,-159 65,-281 C 570,241 548,147 505,83 461,19 399,-13 317,-13 235,-13 173,19 130,83 87,147 66,241 66,364 c 0,122 21,216 64,281 43,64 106,97 188,97 z" id="path5934" style="fill:currentColor"/>
      </g>
      <g id="use300" transform="matrix(0,-7.56283,-7.56283,0,168.44405,207.31189)" color="rgb(209, 209, 209)" style="fill:currentColor">
        <path transform="matrix(0.001,0,0,0.001,0,0)" d="M -2,729 H 614 V 646 H 355 V 0 H 256 V 646 H -2 Z" id="path5814" style="fill:currentColor"/>
      </g>
      <g id="use302" transform="matrix(0,-7.56283,-7.56283,0,168.44405,203.96938)" color="rgb(209, 209, 209)" style="fill:currentColor">
        <path transform="matrix(0.001,0,0,0.001,0,0)" d="M 562,296 V 252 H 149 c 4,-62 22,-110 56,-142 33,-32 79,-48 139,-48 34,0 68,4 100,12 32,8 65,21 97,39 V 28 C 509,14 476,3 442,-3 408,-9 373,-13 339,-13 251,-13 182,12 131,62 80,112 55,181 55,268 c 0,89 24,160 72,213 48,52 114,79 196,79 74,0 132,-24 175,-71 42,-48 64,-112 64,-193 z m -90,26 c -1,49 -15,88 -41,118 -27,29 -63,44 -107,44 -50,0 -90,-15 -120,-43 -30,-28 -48,-68 -52,-119 z" id="path5802" style="fill:currentColor"/>
      </g>
      <g id="use304" transform="matrix(0,-7.56283,-7.56283,0,168.44405,199.31824)" color="rgb(209, 209, 209)" style="fill:currentColor">
        <path transform="matrix(0.001,0,0,0.001,0,0)" d="m 443,531 v -85 c -26,12 -52,22 -79,29 -28,6 -56,10 -85,10 -45,0 -79,-7 -101,-21 -22,-14 -33,-34 -33,-61 0,-21 8,-37 24,-49 16,-12 48,-24 96,-34 l 31,-7 c 64,-14 109,-34 136,-58 26,-25 40,-60 40,-104 0,-51 -20,-91 -60,-120 -40,-30 -96,-44 -166,-44 -30,0 -60,3 -92,8 C 122,0 89,8 54,20 v 93 c 33,-18 66,-31 98,-39 32,-9 64,-13 96,-13 42,0 75,7 98,21 22,14 34,35 34,62 0,24 -9,43 -25,56 -16,13 -52,26 -108,38 l -31,7 c -56,12 -97,30 -121,54 -25,24 -37,57 -37,100 0,51 18,91 54,119 36,28 88,42 156,42 33,0 64,-3 94,-8 29,-5 56,-12 81,-21 z" id="path5838" style="fill:currentColor"/>
      </g>
      <g id="use306" transform="matrix(0,-7.56283,-7.56283,0,168.44405,195.378)" color="rgb(209, 209, 209)" style="fill:currentColor">
        <path transform="matrix(0.001,0,0,0.001,0,0)" d="M 183,702 V 547 H 368 V 477 H 183 V 180 c 0,-45 6,-74 18,-86 12,-13 37,-19 75,-19 h 92 V 0 H 276 C 206,0 158,13 132,39 106,65 93,112 93,180 V 477 H 27 v 70 h 66 v 155 z" id="path5794" style="fill:currentColor"/>
      </g>
      <g id="use308" transform="matrix(0,-7.56283,-7.56283,0,168.44405,192.41338)" color="rgb(209, 209, 209)"/>
      <g id="use310" transform="matrix(0,-7.56283,-7.56283,0,168.44405,190.00839)" color="rgb(209, 209, 209)" style="fill:currentColor">
        <path transform="matrix(0.001,0,0,0.001,0,0)" d="M 197,648 V 374 h 124 c 46,0 81,11 106,35 25,24 38,58 38,102 0,44 -13,77 -38,101 -25,24 -60,36 -106,36 z m -99,81 h 223 c 81,0 143,-19 185,-56 42,-37 63,-91 63,-162 C 569,439 548,384 506,348 464,311 402,293 321,293 H 197 V 0 H 98 Z" id="path5850" style="fill:currentColor"/>
      </g>
      <g id="use312" transform="matrix(0,-7.56283,-7.56283,0,168.44405,185.44802)" color="rgb(209, 209, 209)" style="fill:currentColor">
        <path transform="matrix(0.001,0,0,0.001,0,0)" d="M 197,648 V 374 h 124 c 46,0 81,11 106,35 25,24 38,58 38,102 0,44 -13,77 -38,101 -25,24 -60,36 -106,36 z m -99,81 h 223 c 81,0 143,-19 185,-56 42,-37 63,-91 63,-162 C 569,439 548,384 506,348 464,311 402,293 321,293 H 197 V 0 H 98 Z" id="path5854" style="fill:currentColor"/>
      </g>
      <g id="use314" transform="matrix(0,-7.56283,-7.56283,0,168.44405,180.88762)" color="rgb(209, 209, 209)" style="fill:currentColor">
        <path transform="matrix(0.001,0,0,0.001,0,0)" d="m 98,729 h 99 V 83 H 552 V 0 H 98 Z" id="path5866" style="fill:currentColor"/>
      </g>
      <g clip-path="url(#clip_3)" id="g336" color="rgb(209, 209, 209)">
        <path transform="matrix(0.68753,0,0,-0.68753,147.599,309.61)" stroke-width="1.5" stroke-linecap="square" stroke-linejoin="round" fill="none" stroke="#1f77b4" d="M 73.832729,292.032 258.2013,65.59721 398.48728,58.877218" id="path316"/>
        <g clip-path="url(#clip_4)" id="g322" color="rgb(209, 209, 209)">
          <path transform="matrix(0.68753,0,0,-0.68753,198.3612,108.82922)" d="M 0,3 -0.673542,0.927051 H -2.85317 L -1.089814,-0.354102 -1.763356,-2.427051 0,-1.145898 1.763356,-2.427051 1.089814,-0.354102 2.85317,0.927051 H 0.673542 Z" fill="#1f77b4" id="path318"/>
          <path transform="matrix(0.68753,0,0,-0.68753,198.3612,108.82922)" stroke-width="1" stroke-linecap="butt" stroke-linejoin="bevel" fill="none" stroke="#1f77b4" d="M 0,3 -0.673542,0.927051 H -2.85317 L -1.089814,-0.354102 -1.763356,-2.427051 0,-1.145898 1.763356,-2.427051 1.089814,-0.354102 2.85317,0.927051 H 0.673542 Z" id="path320"/>
        </g>
        <g clip-path="url(#clip_5)" id="g328" color="rgb(209, 209, 209)">
          <path transform="matrix(0.68753,0,0,-0.68753,325.12013,264.50996)" d="M 0,3 -0.673542,0.927051 H -2.85317 L -1.089814,-0.354102 -1.763356,-2.427051 0,-1.145898 1.763356,-2.427051 1.089814,-0.354102 2.85317,0.927051 H 0.673542 Z" fill="#1f77b4" id="path324"/>
          <path transform="matrix(0.68753,0,0,-0.68753,325.12013,264.50996)" stroke-width="1" stroke-linecap="butt" stroke-linejoin="bevel" fill="none" stroke="#1f77b4" d="M 0,3 -0.673542,0.927051 H -2.85317 L -1.089814,-0.354102 -1.763356,-2.427051 0,-1.145898 1.763356,-2.427051 1.089814,-0.354102 2.85317,0.927051 H 0.673542 Z" id="path326"/>
        </g>
        <g clip-path="url(#clip_6)" id="g334" color="rgb(209, 209, 209)">
          <path transform="matrix(0.68753,0,0,-0.68753,421.57093,269.13017)" d="M 0,3 -0.673542,0.927051 H -2.85317 L -1.089814,-0.354102 -1.763356,-2.427051 0,-1.145898 1.763356,-2.427051 1.089814,-0.354102 2.85317,0.927051 H 0.673542 Z" fill="#1f77b4" id="path330"/>
          <path transform="matrix(0.68753,0,0,-0.68753,421.57093,269.13017)" stroke-width="1" stroke-linecap="butt" stroke-linejoin="bevel" fill="none" stroke="#1f77b4" d="M 0,3 -0.673542,0.927051 H -2.85317 L -1.089814,-0.354102 -1.763356,-2.427051 0,-1.145898 1.763356,-2.427051 1.089814,-0.354102 2.85317,0.927051 H 0.673542 Z" id="path332"/>
        </g>
      </g>
      <g clip-path="url(#clip_7)" id="g356" color="rgb(209, 209, 209)">
        <path transform="matrix(0.68753,0,0,-0.68753,147.599,309.61)" stroke-width="1.5" stroke-linecap="square" stroke-linejoin="round" fill="none" stroke="#ff7f0e" d="M 73.832729,292.032 132.3662,60.338087 147.40073,58.877218 155.17617,50.112" id="path338"/>
        <g clip-path="url(#clip_8)" id="g342" color="rgb(209, 209, 209)">
          <path transform="matrix(0.68753,0,0,-0.68753,198.3612,108.82922)" stroke-width="1" stroke-linecap="butt" stroke-linejoin="round" fill="none" stroke="#ff7f0e" d="m 0,-3 c 0.795609,0 1.55874,0.316099 2.12132,0.87868 C 2.683901,-1.55874 3,-0.795609 3,0 3,0.795609 2.683901,1.55874 2.12132,2.12132 1.55874,2.683901 0.795609,3 0,3 -0.795609,3 -1.55874,2.683901 -2.12132,2.12132 -2.683901,1.55874 -3,0.795609 -3,0 -3,-0.795609 -2.683901,-1.55874 -2.12132,-2.12132 -1.55874,-2.683901 -0.795609,-3 0,-3 Z" id="path340"/>
        </g>
        <g clip-path="url(#clip_9)" id="g346" color="rgb(209, 209, 209)">
          <path transform="matrix(0.68753,0,0,-0.68753,238.60472,268.12574)" stroke-width="1" stroke-linecap="butt" stroke-linejoin="round" fill="none" stroke="#ff7f0e" d="m 0,-3 c 0.795609,0 1.55874,0.316099 2.12132,0.87868 C 2.683901,-1.55874 3,-0.795609 3,0 3,0.795609 2.683901,1.55874 2.12132,2.12132 1.55874,2.683901 0.795609,3 0,3 -0.795609,3 -1.55874,2.683901 -2.12132,2.12132 -2.683901,1.55874 -3,0.795609 -3,0 -3,-0.795609 -2.683901,-1.55874 -2.12132,-2.12132 -1.55874,-2.683901 -0.795609,-3 0,-3 Z" id="path344"/>
        </g>
        <g clip-path="url(#clip_10)" id="g350" color="rgb(209, 209, 209)">
          <path transform="matrix(0.68753,0,0,-0.68753,248.9414,269.13014)" stroke-width="1" stroke-linecap="butt" stroke-linejoin="round" fill="none" stroke="#ff7f0e" d="m 0,-3 c 0.795609,0 1.55874,0.316099 2.12132,0.87868 C 2.683901,-1.55874 3,-0.795609 3,0 3,0.795609 2.683901,1.55874 2.12132,2.12132 1.55874,2.683901 0.795609,3 0,3 -0.795609,3 -1.55874,2.683901 -2.12132,2.12132 -2.683901,1.55874 -3,0.795609 -3,0 -3,-0.795609 -2.683901,-1.55874 -2.12132,-2.12132 -1.55874,-2.683901 -0.795609,-3 0,-3 Z" id="path348"/>
        </g>
        <g clip-path="url(#clip_11)" id="g354" color="rgb(209, 209, 209)">
          <path transform="matrix(0.68753,0,0,-0.68753,254.28726,275.15647)" stroke-width="1" stroke-linecap="butt" stroke-linejoin="round" fill="none" stroke="#ff7f0e" d="m 0,-3 c 0.795609,0 1.55874,0.316099 2.12132,0.87868 C 2.683901,-1.55874 3,-0.795609 3,0 3,0.795609 2.683901,1.55874 2.12132,2.12132 1.55874,2.683901 0.795609,3 0,3 -0.795609,3 -1.55874,2.683901 -2.12132,2.12132 -2.683901,1.55874 -3,0.795609 -3,0 -3,-0.795609 -2.683901,-1.55874 -2.12132,-2.12132 -1.55874,-2.683901 -0.795609,-3 0,-3 Z" id="path352"/>
        </g>
      </g>
      <path transform="matrix(0.68753,0,0,-0.68753,147.599,309.61)" stroke-width="0.8" stroke-linecap="square" stroke-miterlimit="10" stroke-linejoin="miter" fill="none" stroke="currentColor" d="M 57.6,38.016 V 304.128" id="path358"/>
      <path transform="matrix(0.68753,0,0,-0.68753,147.599,309.61)" stroke-width="0.8" stroke-linecap="square" stroke-miterlimit="10" stroke-linejoin="miter" fill="none" stroke="currentColor" d="M 414.72,38.016 V 304.128" id="path360"/>
      <path transform="matrix(0.68753,0,0,-0.68753,147.599,309.61)" stroke-width="0.8" stroke-linecap="square" stroke-miterlimit="10" stroke-linejoin="miter" fill="none" stroke="currentColor" d="M 57.6,38.016 H 414.72" id="path362"/>
      <path transform="matrix(0.68753,0,0,-0.68753,147.599,309.61)" stroke-width="0.8" stroke-linecap="square" stroke-miterlimit="10" stroke-linejoin="miter" fill="none" stroke="currentColor" d="M 57.6,304.128 H 414.72" id="path364"/>
      <g id="use366" transform="matrix(7.56283,0,0,-7.56283,195.95487,105.73534)" color="rgb(209, 209, 209)" style="fill:currentColor">
        <path transform="matrix(0.001,0,0,0.001,0,0)" d="M 192,83 H 536 V 0 H 73 v 83 c 37,38 88,90 153,156 64,65 105,107 122,126 32,35 54,65 66,90 12,24 19,49 19,73 0,38 -14,70 -41,94 -27,24 -62,37 -106,37 -31,0 -64,-6 -98,-16 -34,-11 -71,-27 -110,-49 v 100 c 40,16 77,28 111,36 34,8 66,12 95,12 75,0 135,-19 180,-57 45,-38 68,-88 68,-151 0,-30 -6,-59 -17,-85 -11,-27 -31,-59 -61,-95 -8,-10 -34,-37 -78,-82 C 332,227 271,164 192,83 Z" id="path5780" style="fill:currentColor"/>
      </g>
      <g id="use368" transform="matrix(7.56283,0,0,-7.56283,200.76483,105.73534)" color="rgb(209, 209, 209)" style="fill:currentColor">
        <path transform="matrix(0.001,0,0,0.001,0,0)" d="m 98,729 h 99 V 421 L 524,729 H 651 L 289,389 677,0 H 547 L 197,351 V 0 H 98 Z" id="path5752" style="fill:currentColor"/>
      </g>
      <g id="use370" transform="matrix(7.56283,0,0,-7.56283,322.7138,261.41606)" color="rgb(209, 209, 209)" style="fill:currentColor">
        <path transform="matrix(0.001,0,0,0.001,0,0)" d="m 318,346 c -47,0 -84,-13 -111,-38 -27,-25 -40,-59 -40,-103 0,-44 13,-79 40,-104 27,-25 64,-37 111,-37 46,0 83,12 110,38 27,25 41,59 41,103 0,44 -14,78 -40,103 -27,25 -64,38 -111,38 z m -99,42 c -42,10 -75,30 -99,59 -24,29 -35,64 -35,106 0,58 20,104 62,138 41,34 98,51 171,51 72,0 129,-17 171,-51 41,-34 62,-80 62,-138 0,-42 -12,-77 -36,-106 -24,-29 -56,-49 -98,-59 47,-11 84,-33 111,-65 26,-32 40,-72 40,-118 C 568,134 546,80 503,43 459,5 397,-13 317,-13 237,-13 175,5 132,43 89,80 68,134 68,205 c 0,46 13,86 40,118 26,32 63,54 111,65 z m -36,156 c 0,-38 11,-68 35,-89 24,-21 57,-31 100,-31 42,0 75,10 99,31 24,21 36,51 36,89 0,38 -12,67 -36,88 -24,21 -57,32 -99,32 -43,0 -76,-11 -100,-32 -24,-21 -35,-50 -35,-88 z" id="path5826" style="fill:currentColor"/>
      </g>
      <g id="use372" transform="matrix(7.56283,0,0,-7.56283,327.52378,261.41606)" color="rgb(209, 209, 209)" style="fill:currentColor">
        <path transform="matrix(0.001,0,0,0.001,0,0)" d="m 98,729 h 99 V 421 L 524,729 H 651 L 289,389 677,0 H 547 L 197,351 V 0 H 98 Z" id="path5756" style="fill:currentColor"/>
      </g>
      <g id="use374" transform="matrix(7.56283,0,0,-7.56283,419.16459,266.03627)" color="rgb(209, 209, 209)" style="fill:currentColor">
        <path transform="matrix(0.001,0,0,0.001,0,0)" d="M 124,83 H 285 V 639 L 110,604 v 90 l 174,35 h 99 V 83 H 544 V 0 H 124 Z" id="path5692" style="fill:currentColor"/>
      </g>
      <g id="use376" transform="matrix(7.56283,0,0,-7.56283,423.97456,266.03627)" color="rgb(209, 209, 209)" style="fill:currentColor">
        <path transform="matrix(0.001,0,0,0.001,0,0)" d="m 330,404 c -44,0 -79,-16 -105,-46 -26,-30 -39,-72 -39,-124 0,-53 13,-95 39,-125 26,-30 61,-45 105,-45 44,0 79,15 105,45 26,30 39,72 39,125 0,52 -13,94 -39,124 -26,30 -61,46 -105,46 z m 196,309 v -90 c -25,12 -50,21 -75,27 -26,6 -51,9 -75,9 -66,0 -116,-22 -150,-66 -34,-44 -54,-111 -58,-199 19,28 43,50 72,65 29,15 61,23 96,23 73,0 131,-23 173,-67 42,-44 64,-105 64,-181 C 573,159 550,99 506,54 462,9 403,-13 330,-13 246,-13 181,19 137,83 92,147 70,241 70,364 c 0,115 27,207 82,275 54,68 128,103 220,103 24,0 49,-3 75,-7 25,-5 51,-12 79,-22 z" id="path5894" style="fill:currentColor"/>
      </g>
      <g id="use378" transform="matrix(7.56283,0,0,-7.56283,428.78453,266.03627)" color="rgb(209, 209, 209)" style="fill:currentColor">
        <path transform="matrix(0.001,0,0,0.001,0,0)" d="m 98,729 h 99 V 421 L 524,729 H 651 L 289,389 677,0 H 547 L 197,351 V 0 H 98 Z" id="path5760" style="fill:currentColor"/>
      </g>
      <g id="use380" transform="matrix(7.56283,0,0,-7.56283,195.95487,105.73534)" color="rgb(209, 209, 209)" style="fill:currentColor">
        <path transform="matrix(0.001,0,0,0.001,0,0)" d="M 192,83 H 536 V 0 H 73 v 83 c 37,38 88,90 153,156 64,65 105,107 122,126 32,35 54,65 66,90 12,24 19,49 19,73 0,38 -14,70 -41,94 -27,24 -62,37 -106,37 -31,0 -64,-6 -98,-16 -34,-11 -71,-27 -110,-49 v 100 c 40,16 77,28 111,36 34,8 66,12 95,12 75,0 135,-19 180,-57 45,-38 68,-88 68,-151 0,-30 -6,-59 -17,-85 -11,-27 -31,-59 -61,-95 -8,-10 -34,-37 -78,-82 C 332,227 271,164 192,83 Z" id="path5784" style="fill:currentColor"/>
      </g>
      <g id="use382" transform="matrix(7.56283,0,0,-7.56283,200.76483,105.73534)" color="rgb(209, 209, 209)" style="fill:currentColor">
        <path transform="matrix(0.001,0,0,0.001,0,0)" d="m 98,729 h 99 V 421 L 524,729 H 651 L 289,389 677,0 H 547 L 197,351 V 0 H 98 Z" id="path5764" style="fill:currentColor"/>
      </g>
      <g id="use384" transform="matrix(7.56283,0,0,-7.56283,236.19837,265.03187)" color="rgb(209, 209, 209)" style="fill:currentColor">
        <path transform="matrix(0.001,0,0,0.001,0,0)" d="m 318,346 c -47,0 -84,-13 -111,-38 -27,-25 -40,-59 -40,-103 0,-44 13,-79 40,-104 27,-25 64,-37 111,-37 46,0 83,12 110,38 27,25 41,59 41,103 0,44 -14,78 -40,103 -27,25 -64,38 -111,38 z m -99,42 c -42,10 -75,30 -99,59 -24,29 -35,64 -35,106 0,58 20,104 62,138 41,34 98,51 171,51 72,0 129,-17 171,-51 41,-34 62,-80 62,-138 0,-42 -12,-77 -36,-106 -24,-29 -56,-49 -98,-59 47,-11 84,-33 111,-65 26,-32 40,-72 40,-118 C 568,134 546,80 503,43 459,5 397,-13 317,-13 237,-13 175,5 132,43 89,80 68,134 68,205 c 0,46 13,86 40,118 26,32 63,54 111,65 z m -36,156 c 0,-38 11,-68 35,-89 24,-21 57,-31 100,-31 42,0 75,10 99,31 24,21 36,51 36,89 0,38 -12,67 -36,88 -24,21 -57,32 -99,32 -43,0 -76,-11 -100,-32 -24,-21 -35,-50 -35,-88 z" id="path5830" style="fill:currentColor"/>
      </g>
      <g id="use386" transform="matrix(7.56283,0,0,-7.56283,241.00833,265.03187)" color="rgb(209, 209, 209)" style="fill:currentColor">
        <path transform="matrix(0.001,0,0,0.001,0,0)" d="m 98,729 h 99 V 421 L 524,729 H 651 L 289,389 677,0 H 547 L 197,351 V 0 H 98 Z" id="path5768" style="fill:currentColor"/>
      </g>
      <g id="use388" transform="matrix(7.56283,0,0,-7.56283,246.53507,266.03627)" color="rgb(209, 209, 209)" style="fill:currentColor">
        <path transform="matrix(0.001,0,0,0.001,0,0)" d="M 124,83 H 285 V 639 L 110,604 v 90 l 174,35 h 99 V 83 H 544 V 0 H 124 Z" id="path5696" style="fill:currentColor"/>
      </g>
      <g id="use390" transform="matrix(7.56283,0,0,-7.56283,251.34503,266.03627)" color="rgb(209, 209, 209)" style="fill:currentColor">
        <path transform="matrix(0.001,0,0,0.001,0,0)" d="m 330,404 c -44,0 -79,-16 -105,-46 -26,-30 -39,-72 -39,-124 0,-53 13,-95 39,-125 26,-30 61,-45 105,-45 44,0 79,15 105,45 26,30 39,72 39,125 0,52 -13,94 -39,124 -26,30 -61,46 -105,46 z m 196,309 v -90 c -25,12 -50,21 -75,27 -26,6 -51,9 -75,9 -66,0 -116,-22 -150,-66 -34,-44 -54,-111 -58,-199 19,28 43,50 72,65 29,15 61,23 96,23 73,0 131,-23 173,-67 42,-44 64,-105 64,-181 C 573,159 550,99 506,54 462,9 403,-13 330,-13 246,-13 181,19 137,83 92,147 70,241 70,364 c 0,115 27,207 82,275 54,68 128,103 220,103 24,0 49,-3 75,-7 25,-5 51,-12 79,-22 z" id="path5898" style="fill:currentColor"/>
      </g>
      <g id="use392" transform="matrix(7.56283,0,0,-7.56283,256.155,266.03627)" color="rgb(209, 209, 209)" style="fill:currentColor">
        <path transform="matrix(0.001,0,0,0.001,0,0)" d="m 98,729 h 99 V 421 L 524,729 H 651 L 289,389 677,0 H 547 L 197,351 V 0 H 98 Z" id="path5772" style="fill:currentColor"/>
      </g>
      <g id="use394" transform="matrix(7.56283,0,0,-7.56283,251.8809,272.0626)" color="rgb(209, 209, 209)" style="fill:currentColor">
        <path transform="matrix(0.001,0,0,0.001,0,0)" d="m 406,393 c 47,-10 84,-31 110,-63 26,-32 40,-72 40,-118 C 556,140 531,84 482,45 432,6 362,-13 271,-13 c -31,0 -63,3 -95,9 -32,5 -66,14 -100,26 v 95 c 27,-16 57,-28 90,-36 32,-8 66,-12 102,-12 62,0 109,12 141,36 32,24 49,60 49,107 0,42 -15,76 -45,100 -30,24 -72,37 -126,37 h -85 v 81 h 89 c 48,0 85,9 111,29 26,19 39,47 39,84 0,37 -14,66 -40,86 -27,20 -65,30 -114,30 -27,0 -56,-3 -87,-9 -31,-6 -65,-15 -102,-27 v 88 c 37,10 72,18 105,23 32,5 63,8 93,8 74,0 133,-17 177,-51 44,-34 66,-80 66,-138 0,-40 -12,-74 -35,-102 -23,-28 -56,-48 -98,-58 z" id="path5748" style="fill:currentColor"/>
      </g>
      <g id="use396" transform="matrix(7.56283,0,0,-7.56283,256.69087,272.0626)" color="rgb(209, 209, 209)" style="fill:currentColor">
        <path transform="matrix(0.001,0,0,0.001,0,0)" d="M 192,83 H 536 V 0 H 73 v 83 c 37,38 88,90 153,156 64,65 105,107 122,126 32,35 54,65 66,90 12,24 19,49 19,73 0,38 -14,70 -41,94 -27,24 -62,37 -106,37 -31,0 -64,-6 -98,-16 -34,-11 -71,-27 -110,-49 v 100 c 40,16 77,28 111,36 34,8 66,12 95,12 75,0 135,-19 180,-57 45,-38 68,-88 68,-151 0,-30 -6,-59 -17,-85 -11,-27 -31,-59 -61,-95 -8,-10 -34,-37 -78,-82 C 332,227 271,164 192,83 Z" id="path5788" style="fill:currentColor"/>
      </g>
      <g id="use398" transform="matrix(7.56283,0,0,-7.56283,261.50083,272.0626)" color="rgb(209, 209, 209)" style="fill:currentColor">
        <path transform="matrix(0.001,0,0,0.001,0,0)" d="m 98,729 h 99 V 421 L 524,729 H 651 L 289,389 677,0 H 547 L 197,351 V 0 H 98 Z" id="path5776" style="fill:currentColor"/>
      </g>
      <g id="g404" style="fill:none;stroke:currentColor" color="rgb(209, 209, 209)">
        <path transform="matrix(0.68753,0,0,-0.68753,147.599,309.61)" d="M 305.85127,263.04676 H 407.02 c 1.46667,0 2.2,0.73334 2.2,2.20002 V 296.428 c 0,1.46666 -0.73333,2.2 -2.2,2.2 H 305.85127 c -1.46668,0 -2.20001,-0.73334 -2.20001,-2.2 v -31.18122 c 0,-1.46668 0.73333,-2.20002 2.20001,-2.20002 z" fill="#ffffff" fill-opacity="0.8" id="path400" style="fill:none;stroke:currentColor"/>
        <path transform="matrix(0.68753,0,0,-0.68753,147.599,309.61)" stroke-width="1" stroke-linecap="butt" stroke-miterlimit="10" stroke-linejoin="miter" fill="none" stroke="#d5d6d5" stroke-opacity="0.8" d="M 305.85127,263.04676 H 407.02 c 1.46667,0 2.2,0.73334 2.2,2.20002 V 296.428 c 0,1.46666 -0.73333,2.2 -2.2,2.2 H 305.85127 c -1.46668,0 -2.20001,-0.73334 -2.20001,-2.2 v -31.18122 c 0,-1.46668 0.73333,-2.20002 2.20001,-2.20002 z" id="path402" style="fill:none;stroke:currentColor"/>
      </g>
      <path transform="matrix(0.68753,0,0,-0.68753,147.599,309.61)" stroke-width="1.5" stroke-linecap="square" stroke-linejoin="round" fill="none" stroke="#1f77b4" d="m 308.05125,289.71864 h 11 11" id="path406"/>
      <path transform="matrix(0.68753,0,0,-0.68753,147.599,309.61)" d="m 319.05125,292.71864 -0.67352,-2.07294 h -2.17963 l 1.76334,-1.28116 -0.67354,-2.07296 1.76335,1.28115 1.76335,-1.28115 -0.67354,2.07296 1.76337,1.28116 h -2.17963 z" fill="#1f77b4" id="path408"/>
      <path transform="matrix(0.68753,0,0,-0.68753,147.599,309.61)" stroke-width="1" stroke-linecap="butt" stroke-linejoin="bevel" fill="none" stroke="#1f77b4" d="m 319.05125,292.71864 -0.67352,-2.07294 h -2.17963 l 1.76334,-1.28116 -0.67354,-2.07296 1.76335,1.28115 1.76335,-1.28115 -0.67354,2.07296 1.76337,1.28116 h -2.17963 z" id="path410"/>
      <g id="use412" transform="matrix(7.56283,0,0,-7.56283,380.5694,113.06674)" color="rgb(209, 209, 209)" style="fill:currentColor">
        <path transform="matrix(0.001,0,0,0.001,0,0)" d="M -2,729 H 614 V 646 H 355 V 0 H 256 V 646 H -2 Z" id="path5818" style="fill:currentColor"/>
      </g>
      <g id="use414" transform="matrix(7.56283,0,0,-7.56283,384.0838,113.06674)" color="rgb(209, 209, 209)" style="fill:currentColor">
        <path transform="matrix(0.001,0,0,0.001,0,0)" d="m 411,463 c -10,6 -21,10 -33,13 -12,2 -25,4 -39,4 -51,0 -90,-17 -117,-50 -28,-33 -41,-80 -41,-142 V 0 H 91 v 547 h 90 v -85 c 18,33 43,58 73,74 30,16 67,24 111,24 6,0 13,-1 21,-1 7,-1 15,-2 25,-4 z" id="path5736" style="fill:currentColor"/>
      </g>
      <g id="use416" transform="matrix(7.56283,0,0,-7.56283,387.1921,113.06674)" color="rgb(209, 209, 209)" style="fill:currentColor">
        <path transform="matrix(0.001,0,0,0.001,0,0)" d="m 343,275 c -73,0 -123,-9 -151,-25 -28,-17 -42,-45 -42,-85 0,-32 10,-58 31,-76 21,-19 50,-28 86,-28 50,0 90,17 120,53 30,35 45,82 45,141 v 20 z m 179,37 V 0 H 432 V 83 C 411,49 385,25 355,10 325,-5 287,-13 243,-13 187,-13 142,2 109,33 76,64 60,106 60,159 c 0,61 20,107 62,139 41,31 102,47 184,47 h 126 v 9 c 0,41 -14,73 -41,96 -27,22 -65,34 -114,34 -32,0 -62,-4 -92,-12 -30,-8 -58,-19 -85,-33 v 83 c 32,12 64,22 95,28 31,6 61,10 91,10 79,0 138,-21 177,-62 39,-41 59,-103 59,-186 z" id="path5732" style="fill:currentColor"/>
      </g>
      <g id="use418" transform="matrix(7.56283,0,0,-7.56283,391.82814,113.06674)" color="rgb(209, 209, 209)" style="fill:currentColor">
        <path transform="matrix(0.001,0,0,0.001,0,0)" d="M 549,330 V 0 h -90 v 327 c 0,52 -11,90 -31,116 -20,26 -50,39 -90,39 -49,0 -87,-16 -115,-47 -28,-31 -42,-73 -42,-126 V 0 H 91 v 547 h 90 v -85 c 21,32 46,57 76,73 29,16 63,25 101,25 62,0 110,-20 142,-59 32,-39 49,-96 49,-171 z" id="path5724" style="fill:currentColor"/>
      </g>
      <g id="use420" transform="matrix(7.56283,0,0,-7.56283,396.62297,113.06674)" color="rgb(209, 209, 209)" style="fill:currentColor">
        <path transform="matrix(0.001,0,0,0.001,0,0)" d="m 443,531 v -85 c -26,12 -52,22 -79,29 -28,6 -56,10 -85,10 -45,0 -79,-7 -101,-21 -22,-14 -33,-34 -33,-61 0,-21 8,-37 24,-49 16,-12 48,-24 96,-34 l 31,-7 c 64,-14 109,-34 136,-58 26,-25 40,-60 40,-104 0,-51 -20,-91 -60,-120 -40,-30 -96,-44 -166,-44 -30,0 -60,3 -92,8 C 122,0 89,8 54,20 v 93 c 33,-18 66,-31 98,-39 32,-9 64,-13 96,-13 42,0 75,7 98,21 22,14 34,35 34,62 0,24 -9,43 -25,56 -16,13 -52,26 -108,38 l -31,7 c -56,12 -97,30 -121,54 -25,24 -37,57 -37,100 0,51 18,91 54,119 36,28 88,42 156,42 33,0 64,-3 94,-8 29,-5 56,-12 81,-21 z" id="path5842" style="fill:currentColor"/>
      </g>
      <g id="use422" transform="matrix(7.56283,0,0,-7.56283,400.5632,113.06674)" color="rgb(209, 209, 209)" style="fill:currentColor">
        <path transform="matrix(0.001,0,0,0.001,0,0)" d="m 371,760 v -75 h -86 c -32,0 -55,-7 -67,-20 -13,-13 -19,-36 -19,-70 V 547 H 347 V 477 H 199 V 0 H 109 V 477 H 23 v 70 h 86 v 38 c 0,60 14,105 42,133 28,28 73,42 135,42 z" id="path5720" style="fill:currentColor"/>
      </g>
      <g id="use424" transform="matrix(7.56283,0,0,-7.56283,403.2253,113.06674)" color="rgb(209, 209, 209)" style="fill:currentColor">
        <path transform="matrix(0.001,0,0,0.001,0,0)" d="m 306,484 c -48,0 -86,-19 -114,-57 -28,-38 -42,-89 -42,-154 0,-66 13,-117 41,-155 28,-38 66,-56 115,-56 48,0 86,18 114,56 28,38 42,89 42,155 0,64 -14,116 -42,154 -28,38 -66,57 -114,57 z m 0,76 c 78,0 139,-26 184,-76 44,-51 67,-121 67,-211 C 557,183 534,113 490,63 445,12 384,-13 306,-13 227,-13 165,12 121,63 77,113 55,183 55,273 c 0,90 22,160 66,211 44,50 106,76 185,76 z" id="path5712" style="fill:currentColor"/>
      </g>
      <g id="use426" transform="matrix(7.56283,0,0,-7.56283,407.85377,113.06674)" color="rgb(209, 209, 209)" style="fill:currentColor">
        <path transform="matrix(0.001,0,0,0.001,0,0)" d="m 411,463 c -10,6 -21,10 -33,13 -12,2 -25,4 -39,4 -51,0 -90,-17 -117,-50 -28,-33 -41,-80 -41,-142 V 0 H 91 v 547 h 90 v -85 c 18,33 43,58 73,74 30,16 67,24 111,24 6,0 13,-1 21,-1 7,-1 15,-2 25,-4 z" id="path5740" style="fill:currentColor"/>
      </g>
      <g id="use428" transform="matrix(7.56283,0,0,-7.56283,410.8332,113.06674)" color="rgb(209, 209, 209)" style="fill:currentColor">
        <path transform="matrix(0.001,0,0,0.001,0,0)" d="m 520,442 c 22,40 49,69 80,89 31,19 68,29 111,29 56,0 100,-20 131,-60 31,-40 47,-97 47,-170 V 0 h -90 v 327 c 0,52 -10,91 -28,117 -19,25 -47,38 -85,38 -47,0 -84,-16 -111,-47 -27,-31 -40,-73 -40,-126 V 0 h -90 v 327 c 0,52 -10,91 -28,117 -19,25 -48,38 -86,38 -46,0 -83,-16 -110,-47 -27,-31 -40,-73 -40,-126 V 0 H 91 v 547 h 90 v -85 c 20,33 45,58 74,74 28,16 62,24 102,24 40,0 73,-10 101,-30 28,-20 48,-50 62,-88 z" id="path5708" style="fill:currentColor"/>
      </g>
      <g id="use430" transform="matrix(7.56283,0,0,-7.56283,418.19938,113.06674)" color="rgb(209, 209, 209)" style="fill:currentColor">
        <path transform="matrix(0.001,0,0,0.001,0,0)" d="M 562,296 V 252 H 149 c 4,-62 22,-110 56,-142 33,-32 79,-48 139,-48 34,0 68,4 100,12 32,8 65,21 97,39 V 28 C 509,14 476,3 442,-3 408,-9 373,-13 339,-13 251,-13 182,12 131,62 80,112 55,181 55,268 c 0,89 24,160 72,213 48,52 114,79 196,79 74,0 132,-24 175,-71 42,-48 64,-112 64,-193 z m -90,26 c -1,49 -15,88 -41,118 -27,29 -63,44 -107,44 -50,0 -90,-15 -120,-43 -30,-28 -48,-68 -52,-119 z" id="path5806" style="fill:currentColor"/>
      </g>
      <g id="use432" transform="matrix(7.56283,0,0,-7.56283,422.85054,113.06674)" color="rgb(209, 209, 209)" style="fill:currentColor">
        <path transform="matrix(0.001,0,0,0.001,0,0)" d="m 411,463 c -10,6 -21,10 -33,13 -12,2 -25,4 -39,4 -51,0 -90,-17 -117,-50 -28,-33 -41,-80 -41,-142 V 0 H 91 v 547 h 90 v -85 c 18,33 43,58 73,74 30,16 67,24 111,24 6,0 13,-1 21,-1 7,-1 15,-2 25,-4 z" id="path5744" style="fill:currentColor"/>
      </g>
      <path transform="matrix(0.68753,0,0,-0.68753,147.599,309.61)" stroke-width="1.5" stroke-linecap="square" stroke-linejoin="round" fill="none" stroke="#ff7f0e" d="m 308.05125,273.578 h 11 11" id="path434"/>
      <path transform="matrix(0.68753,0,0,-0.68753,147.599,309.61)" stroke-width="1" stroke-linecap="butt" stroke-linejoin="round" fill="none" stroke="#ff7f0e" d="m 319.05125,270.578 c 0.79562,0 1.55875,0.3161 2.12134,0.87868 0.56256,0.56259 0.87866,1.32571 0.87866,2.12132 0,0.7956 -0.3161,1.55876 -0.87866,2.1213 -0.56259,0.5626 -1.32572,0.8787 -2.12134,0.8787 -0.79559,0 -1.55872,-0.3161 -2.12131,-0.8787 -0.56259,-0.56254 -0.87869,-1.3257 -0.87869,-2.1213 0,-0.79561 0.3161,-1.55873 0.87869,-2.12132 0.56259,-0.56258 1.32572,-0.87868 2.12131,-0.87868 z" id="path436"/>
      <g id="use438" transform="matrix(7.56283,0,0,-7.56283,380.5694,124.1639)" color="rgb(209, 209, 209)" style="fill:currentColor">
        <path transform="matrix(0.001,0,0,0.001,0,0)" d="m 98,729 h 99 V 83 H 552 V 0 H 98 Z" id="path5870" style="fill:currentColor"/>
      </g>
      <g id="use440" transform="matrix(7.56283,0,0,-7.56283,384.65299,124.1639)" color="rgb(209, 209, 209)" style="fill:currentColor">
        <path transform="matrix(0.001,0,0,0.001,0,0)" d="m 306,484 c -48,0 -86,-19 -114,-57 -28,-38 -42,-89 -42,-154 0,-66 13,-117 41,-155 28,-38 66,-56 115,-56 48,0 86,18 114,56 28,38 42,89 42,155 0,64 -14,116 -42,154 -28,38 -66,57 -114,57 z m 0,76 c 78,0 139,-26 184,-76 44,-51 67,-121 67,-211 C 557,183 534,113 490,63 445,12 384,-13 306,-13 227,-13 165,12 121,63 77,113 55,183 55,273 c 0,90 22,160 66,211 44,50 106,76 185,76 z" id="path5716" style="fill:currentColor"/>
      </g>
      <g id="use442" transform="matrix(7.56283,0,0,-7.56283,389.28144,124.1639)" color="rgb(209, 209, 209)" style="fill:currentColor">
        <path transform="matrix(0.001,0,0,0.001,0,0)" d="M 549,330 V 0 h -90 v 327 c 0,52 -11,90 -31,116 -20,26 -50,39 -90,39 -49,0 -87,-16 -115,-47 -28,-31 -42,-73 -42,-126 V 0 H 91 v 547 h 90 v -85 c 21,32 46,57 76,73 29,16 63,25 101,25 62,0 110,-20 142,-59 32,-39 49,-96 49,-171 z" id="path5728" style="fill:currentColor"/>
      </g>
      <g id="use444" transform="matrix(7.56283,0,0,-7.56283,394.07627,124.1639)" color="rgb(209, 209, 209)" style="fill:currentColor">
        <path transform="matrix(0.001,0,0,0.001,0,0)" d="m 454,280 c 0,64 -14,115 -40,151 -27,36 -65,54 -113,54 -48,0 -86,-18 -113,-54 -27,-36 -40,-87 -40,-151 0,-65 13,-115 40,-151 27,-36 65,-54 113,-54 48,0 86,18 113,54 26,36 40,86 40,151 z M 544,68 c 0,-92 -21,-161 -62,-207 -42,-45 -105,-68 -190,-68 -32,0 -61,3 -89,7 -28,5 -56,12 -82,22 v 87 c 26,-14 52,-24 78,-31 26,-7 52,-11 79,-11 58,0 102,16 132,46 29,31 44,77 44,139 V 96 C 435,64 411,40 382,24 353,8 319,0 279,0 211,0 157,25 116,76 75,127 55,195 55,280 c 0,84 20,152 61,203 41,51 95,77 163,77 40,0 74,-8 103,-24 29,-16 53,-40 72,-72 v 83 h 90 z" id="path5704" style="fill:currentColor"/>
      </g>
      <g id="use446" transform="matrix(7.56283,0,0,-7.56283,398.87867,124.1639)" color="rgb(209, 209, 209)" style="fill:currentColor">
        <path transform="matrix(0.001,0,0,0.001,0,0)" d="M 98,729 H 231 L 554,119 v 610 h 96 V 0 H 517 L 194,610 V 0 H 98 Z" id="path5700" style="fill:currentColor"/>
      </g>
      <g id="use448" transform="matrix(7.56283,0,0,-7.56283,404.53569,124.1639)" color="rgb(209, 209, 209)" style="fill:currentColor">
        <path transform="matrix(0.001,0,0,0.001,0,0)" d="M 562,296 V 252 H 149 c 4,-62 22,-110 56,-142 33,-32 79,-48 139,-48 34,0 68,4 100,12 32,8 65,21 97,39 V 28 C 509,14 476,3 442,-3 408,-9 373,-13 339,-13 251,-13 182,12 131,62 80,112 55,181 55,268 c 0,89 24,160 72,213 48,52 114,79 196,79 74,0 132,-24 175,-71 42,-48 64,-112 64,-193 z m -90,26 c -1,49 -15,88 -41,118 -27,29 -63,44 -107,44 -50,0 -90,-15 -120,-43 -30,-28 -48,-68 -52,-119 z" id="path5810" style="fill:currentColor"/>
      </g>
      <g id="use450" transform="matrix(7.56283,0,0,-7.56283,409.1868,124.1639)" color="rgb(209, 209, 209)" style="fill:currentColor">
        <path transform="matrix(0.001,0,0,0.001,0,0)" d="M 183,702 V 547 H 368 V 477 H 183 V 180 c 0,-45 6,-74 18,-86 12,-13 37,-19 75,-19 h 92 V 0 H 276 C 206,0 158,13 132,39 106,65 93,112 93,180 V 477 H 27 v 70 h 66 v 155 z" id="path5798" style="fill:currentColor"/>
      </g>
    </g>
  </g>
</svg>