<?xml version="1.0" encoding="UTF-8" standalone="no"?>
<!-- Created with Inkscape (http://www.inkscape.org/) -->

<svg
   width="140.95966mm"
   height="117.38571mm"
   viewBox="0 0 140.95966 117.38571"
   version="1.1"
   id="svg3927"
   inkscape:version="1.2.1 (9c6d41e, 2022-07-14)"
   sodipodi:docname="dessin.svg"
   inkscape:export-filename="dessin.svg"
   inkscape:export-xdpi="96"
   inkscape:export-ydpi="96"
   xmlns:inkscape="http://www.inkscape.org/namespaces/inkscape"
   xmlns:sodipodi="http://sodipodi.sourceforge.net/DTD/sodipodi-0.dtd"
   xmlns="http://www.w3.org/2000/svg"
   xmlns:svg="http://www.w3.org/2000/svg"
   xmlns:ns4="http://www.iki.fi/pav/software/textext/">
  <sodipodi:namedview
     id="namedview3929"
     pagecolor="#ffffff"
     bordercolor="#999999"
     borderopacity="1"
     inkscape:showpageshadow="0"
     inkscape:pageopacity="0"
     inkscape:pagecheckerboard="0"
     inkscape:deskcolor="#d1d1d1"
     inkscape:document-units="mm"
     showgrid="false"
     inkscape:zoom="1.7309141"
     inkscape:cx="287.42039"
     inkscape:cy="254.77867"
     inkscape:window-width="2988"
     inkscape:window-height="1620"
     inkscape:window-x="10"
     inkscape:window-y="34"
     inkscape:window-maximized="0"
     inkscape:current-layer="layer1" />
  <defs
     id="defs3924">
    <inkscape:path-effect
       effect="bspline"
       id="path-effect6091"
       is_visible="true"
       lpeversion="1"
       weight="33.333333"
       steps="2"
       helper_size="0"
       apply_no_weight="true"
       apply_with_weight="true"
       only_selected="false" />
    <inkscape:path-effect
       effect="bspline"
       id="path-effect5607"
       is_visible="true"
       lpeversion="1"
       weight="33.333333"
       steps="2"
       helper_size="0"
       apply_no_weight="true"
       apply_with_weight="true"
       only_selected="false" />
    <inkscape:path-effect
       effect="bspline"
       id="path-effect5603"
       is_visible="true"
       lpeversion="1"
       weight="33.333333"
       steps="2"
       helper_size="0"
       apply_no_weight="true"
       apply_with_weight="true"
       only_selected="false" />
    <clipPath
       id="clipPath1352">
      <path
         clip-rule="nonzero"
         d="M 0,0 H 43 V 17.1875 H 0 Z m 0,0"
         id="path2156" />
    </clipPath>
    <clipPath
       id="clipPath804">
      <path
         clip-rule="nonzero"
         d="M 0,0 H 44 V 17.1875 H 0 Z m 0,0"
         id="path3866" />
    </clipPath>
    <clipPath
       id="clipPath7013">
      <path
         clip-rule="nonzero"
         d="M 0,0 H 28 V 9.964844 H 0 Z m 0,0"
         id="path8400" />
    </clipPath>
    <clipPath
       id="clipPath4008">
      <path
         clip-rule="nonzero"
         d="M 0,0 H 28 V 9.964844 H 0 Z m 0,0"
         id="path1671" />
    </clipPath>
    <clipPath
       id="clipPath4001">
      <path
         clip-rule="nonzero"
         d="M 0,0 H 28 V 9.964844 H 0 Z m 0,0"
         id="path5030" />
    </clipPath>
    <clipPath
       id="clipPath6942">
      <path
         clip-rule="nonzero"
         d="M 0,0 H 28 V 9.964844 H 0 Z m 0,0"
         id="path4610" />
    </clipPath>
    <clipPath
       id="clipPath9226">
      <path
         clip-rule="nonzero"
         d="M 0,0 H 28 V 9.964844 H 0 Z m 0,0"
         id="path2386" />
    </clipPath>
    <clipPath
       id="clipPath1350">
      <path
         clip-rule="nonzero"
         d="M 0,0 H 17.488281 V 6.917969 H 0 Z m 0,0"
         id="path1870" />
    </clipPath>
    <clipPath
       id="clipPath4161">
      <path
         clip-rule="nonzero"
         d="M 0,0 H 28 V 9.964844 H 0 Z m 0,0"
         id="path2035" />
    </clipPath>
    <clipPath
       id="clipPath3601">
      <path
         clip-rule="nonzero"
         d="M 0,0 H 8 V 8.855469 H 0 Z m 0,0"
         id="path3284" />
    </clipPath>
  </defs>
  <g
     inkscape:groupmode="layer"
     id="layer2"
     inkscape:label="Calque 2"
     transform="translate(-32.1214, -37.3186)">
    <rect
       style="fill:#ffffff;fill-opacity:1;stroke:#ffffff;stroke-width:0.365408;stroke-opacity:0"
       id="rect11490"
       width="140.59425"
       height="117.0203"
       x="32.304153"
       y="37.501308" />
    <text
       xml:space="preserve"
       style="font-size:4.5861px;font-family:'3270Narrow Nerd Font Mono';-inkscape-font-specification:'3270Narrow Nerd Font Mono';fill:#ffffff;stroke:#020202;stroke-width:0.263"
       x="77.193077"
       y="172.88191"
       id="text1717"><tspan
         sodipodi:role="line"
         id="tspan1715"
         style="stroke-width:0.263"
         x="77.193077"
         y="172.88191" /></text>
    <g
       transform="matrix(0.529167,0,0,0.529167,108.65402,109.27131)"
       ns4:version="1.8.2"
       ns4:texconverter="pdflatex"
       ns4:pdfconverter="inkscape"
       ns4:text="P(x,y)"
       ns4:preamble="/Users/alexis/Library/Application Support/org.inkscape.Inkscape/config/inkscape/extensions/textext/default_packages.tex"
       ns4:scale="1.5"
       ns4:alignment="middle center"
       ns4:stroke-to-path="0"
       ns4:inkscapeversion="1.2.1"
       ns4:jacobian_sqrt="0.529167"
       id="g1377">
      <defs
         id="id-b884a2fa-e55a-4186-8d05-a26f877d875b">
        <g
           id="id-b3b6f940-0040-467c-983b-522387166bfc">
          <g
             id="id-d8412402-b3ab-4a5d-bc3d-985c9ddce442" />
          <g
             id="id-f12f8e75-baa1-4225-9230-68e2cd9eb6ad">
            <path
               d="m 2.265625,-3.15625 h 1.6875 c 1.1875,0 2.265625,-0.796875 2.265625,-1.796875 C 6.21875,-5.9375 5.234375,-6.8125 3.875,-6.8125 H 0.34375 V -6.5 h 0.25 c 0.765625,0 0.78125,0.109375 0.78125,0.46875 v 5.25 c 0,0.359375 -0.015625,0.46875 -0.78125,0.46875 h -0.25 V 0 c 0.359375,-0.03125 1.09375,-0.03125 1.46875,-0.03125 0.375,0 1.125,0 1.484375,0.03125 v -0.3125 h -0.25 c -0.765625,0 -0.78125,-0.109375 -0.78125,-0.46875 z m -0.03125,-0.25 v -2.6875 C 2.234375,-6.4375 2.25,-6.5 2.71875,-6.5 h 0.890625 c 1.578125,0 1.578125,1.0625 1.578125,1.546875 0,0.46875 0,1.546875 -1.578125,1.546875 z m 0,0"
               id="id-c454c7df-993f-4f0d-bbdb-35c47626e7c9" />
          </g>
          <g
             id="id-6e4ba8a7-58b8-4132-951b-554140ace74f">
            <path
               d="m 3.296875,2.390625 c 0,-0.03125 0,-0.046875 -0.171875,-0.21875 C 1.890625,0.921875 1.5625,-0.96875 1.5625,-2.5 c 0,-1.734375 0.375,-3.46875 1.609375,-4.703125 0.125,-0.125 0.125,-0.140625 0.125,-0.171875 0,-0.078125 -0.03125,-0.109375 -0.09375,-0.109375 -0.109375,0 -1,0.6875 -1.59375,1.953125 -0.5,1.09375 -0.625,2.203125 -0.625,3.03125 0,0.78125 0.109375,1.984375 0.65625,3.125 C 2.25,1.84375 3.09375,2.5 3.203125,2.5 c 0.0625,0 0.09375,-0.03125 0.09375,-0.109375 z m 0,0"
               id="id-859c861b-cebc-447b-83b6-c008d765349c" />
          </g>
          <g
             id="id-3499bce2-5e82-4f0a-96ee-092573d2aa7d">
            <path
               d="M 2.859375,-2.34375 C 3.15625,-2.71875 3.53125,-3.203125 3.78125,-3.46875 4.09375,-3.828125 4.5,-3.984375 4.96875,-3.984375 v -0.3125 c -0.265625,0.015625 -0.5625,0.03125 -0.828125,0.03125 -0.296875,0 -0.828125,-0.015625 -0.953125,-0.03125 v 0.3125 c 0.21875,0.015625 0.296875,0.140625 0.296875,0.3125 0,0.15625 -0.109375,0.28125 -0.15625,0.34375 L 2.71875,-2.546875 1.9375,-3.5625 C 1.84375,-3.65625 1.84375,-3.671875 1.84375,-3.734375 c 0,-0.15625 0.15625,-0.25 0.34375,-0.25 v -0.3125 c -0.25,0.015625 -0.90625,0.03125 -1.078125,0.03125 -0.203125,0 -0.671875,-0.015625 -0.9375,-0.03125 v 0.3125 c 0.703125,0 0.703125,0 1.171875,0.609375 l 0.984375,1.28125 -0.9375,1.1875 C 0.921875,-0.328125 0.328125,-0.3125 0.125,-0.3125 V 0 c 0.25,-0.015625 0.5625,-0.03125 0.828125,-0.03125 0.28125,0 0.703125,0.015625 0.9375,0.03125 v -0.3125 c -0.21875,-0.03125 -0.28125,-0.15625 -0.28125,-0.3125 0,-0.21875 0.28125,-0.546875 0.890625,-1.265625 l 0.765625,1 C 3.34375,-0.78125 3.46875,-0.625 3.46875,-0.5625 c 0,0.09375 -0.09375,0.25 -0.359375,0.25 V 0 C 3.40625,-0.015625 3.96875,-0.03125 4.1875,-0.03125 c 0.265625,0 0.65625,0.015625 0.953125,0.03125 v -0.3125 c -0.53125,0 -0.71875,-0.015625 -0.9375,-0.3125 z m 0,0"
               id="id-439a3ab4-8364-4f49-bd49-0e63cf674d7a" />
          </g>
          <g
             id="id-5bf9dee7-d1a9-4c72-9418-1895c5f68250">
            <path
               d="m 2.03125,-0.015625 c 0,-0.625 -0.25,-1.046875 -0.640625,-1.046875 -0.359375,0 -0.53125,0.28125 -0.53125,0.53125 0,0.265625 0.171875,0.53125 0.53125,0.53125 0.15625,0 0.28125,-0.0625 0.375,-0.140625 L 1.78125,-0.15625 c 0.015625,0 0.015625,0 0.015625,0.140625 0,0.640625 -0.265625,1.25 -0.703125,1.71875 -0.0625,0.0625 -0.078125,0.078125 -0.078125,0.109375 0,0.078125 0.046875,0.109375 0.09375,0.109375 0.125,0 0.921875,-0.78125 0.921875,-1.9375 z m 0,0"
               id="id-4fde1997-9a71-490b-80b0-d41837af61b9" />
          </g>
          <g
             id="id-85af2b66-bf54-4949-a76d-18f5362fb3ef">
            <path
               d="m 4.140625,-3.34375 c 0.25,-0.640625 0.765625,-0.640625 0.921875,-0.640625 v -0.3125 c -0.234375,0.015625 -0.515625,0.03125 -0.75,0.03125 -0.171875,0 -0.640625,-0.015625 -0.859375,-0.03125 v 0.3125 c 0.3125,0 0.46875,0.171875 0.46875,0.421875 0,0.109375 -0.015625,0.125 -0.0625,0.25 L 2.84375,-0.875 1.75,-3.546875 C 1.703125,-3.65625 1.6875,-3.6875 1.6875,-3.734375 c 0,-0.25 0.359375,-0.25 0.5625,-0.25 v -0.3125 c -0.265625,0.015625 -0.921875,0.03125 -1.09375,0.03125 -0.265625,0 -0.671875,-0.015625 -0.96875,-0.03125 v 0.3125 c 0.484375,0 0.671875,0 0.8125,0.34375 L 2.5,0 C 2.4375,0.125 2.296875,0.453125 2.25,0.59375 2.03125,1.140625 1.75,1.828125 1.109375,1.828125 c -0.046875,0 -0.28125,0 -0.46875,-0.1875 0.3125,-0.03125 0.390625,-0.25 0.390625,-0.421875 0,-0.25 -0.1875,-0.40625 -0.421875,-0.40625 -0.203125,0 -0.421875,0.125 -0.421875,0.421875 0,0.453125 0.421875,0.8125 0.921875,0.8125 0.625,0 1.03125,-0.578125 1.265625,-1.140625 z m 0,0"
               id="id-31dd5a42-941b-46f3-bb37-418af544c5bd" />
          </g>
          <g
             id="id-be4f502c-8294-4000-b30d-4318a12dbcdb">
            <path
               d="m 2.875,-2.5 c 0,-0.765625 -0.109375,-1.96875 -0.65625,-3.109375 -0.59375,-1.21875 -1.453125,-1.875 -1.546875,-1.875 -0.0625,0 -0.109375,0.046875 -0.109375,0.109375 0,0.03125 0,0.046875 0.1875,0.234375 0.984375,0.984375 1.546875,2.5625 1.546875,4.640625 0,1.71875 -0.359375,3.46875 -1.59375,4.71875 C 0.5625,2.34375 0.5625,2.359375 0.5625,2.390625 0.5625,2.453125 0.609375,2.5 0.671875,2.5 0.765625,2.5 1.671875,1.8125 2.25,0.546875 2.765625,-0.546875 2.875,-1.65625 2.875,-2.5 Z m 0,0"
               id="id-887f518f-698d-45c2-b7ed-141ae5bd5040" />
          </g>
        </g>
      </defs>
      <g
         fill="#000000"
         fill-opacity="1"
         id="id-2cc64f99-2631-4b8e-9f53-a8e5e5a5cc73"
         transform="translate(-149.056,-127.281)">
        <g
           transform="translate(148.712,134.765)"
           id="g1359">
          <path
             d="m 2.265625,-3.15625 h 1.6875 c 1.1875,0 2.265625,-0.796875 2.265625,-1.796875 C 6.21875,-5.9375 5.234375,-6.8125 3.875,-6.8125 H 0.34375 V -6.5 h 0.25 c 0.765625,0 0.78125,0.109375 0.78125,0.46875 v 5.25 c 0,0.359375 -0.015625,0.46875 -0.78125,0.46875 h -0.25 V 0 c 0.359375,-0.03125 1.09375,-0.03125 1.46875,-0.03125 0.375,0 1.125,0 1.484375,0.03125 v -0.3125 h -0.25 c -0.765625,0 -0.78125,-0.109375 -0.78125,-0.46875 z m -0.03125,-0.25 v -2.6875 C 2.234375,-6.4375 2.25,-6.5 2.71875,-6.5 h 0.890625 c 1.578125,0 1.578125,1.0625 1.578125,1.546875 0,0.46875 0,1.546875 -1.578125,1.546875 z m 0,0"
             id="id-1fa7092b-3ec5-4831-a532-be1c93c7f88c" />
        </g>
        <g
           transform="translate(155.493,134.765)"
           id="g1362">
          <path
             d="m 3.296875,2.390625 c 0,-0.03125 0,-0.046875 -0.171875,-0.21875 C 1.890625,0.921875 1.5625,-0.96875 1.5625,-2.5 c 0,-1.734375 0.375,-3.46875 1.609375,-4.703125 0.125,-0.125 0.125,-0.140625 0.125,-0.171875 0,-0.078125 -0.03125,-0.109375 -0.09375,-0.109375 -0.109375,0 -1,0.6875 -1.59375,1.953125 -0.5,1.09375 -0.625,2.203125 -0.625,3.03125 0,0.78125 0.109375,1.984375 0.65625,3.125 C 2.25,1.84375 3.09375,2.5 3.203125,2.5 c 0.0625,0 0.09375,-0.03125 0.09375,-0.109375 z m 0,0"
             id="id-0cece4f5-7932-431c-baf5-ea53d554016f" />
        </g>
        <g
           transform="translate(159.367,134.765)"
           id="g1365">
          <path
             d="M 2.859375,-2.34375 C 3.15625,-2.71875 3.53125,-3.203125 3.78125,-3.46875 4.09375,-3.828125 4.5,-3.984375 4.96875,-3.984375 v -0.3125 c -0.265625,0.015625 -0.5625,0.03125 -0.828125,0.03125 -0.296875,0 -0.828125,-0.015625 -0.953125,-0.03125 v 0.3125 c 0.21875,0.015625 0.296875,0.140625 0.296875,0.3125 0,0.15625 -0.109375,0.28125 -0.15625,0.34375 L 2.71875,-2.546875 1.9375,-3.5625 C 1.84375,-3.65625 1.84375,-3.671875 1.84375,-3.734375 c 0,-0.15625 0.15625,-0.25 0.34375,-0.25 v -0.3125 c -0.25,0.015625 -0.90625,0.03125 -1.078125,0.03125 -0.203125,0 -0.671875,-0.015625 -0.9375,-0.03125 v 0.3125 c 0.703125,0 0.703125,0 1.171875,0.609375 l 0.984375,1.28125 -0.9375,1.1875 C 0.921875,-0.328125 0.328125,-0.3125 0.125,-0.3125 V 0 c 0.25,-0.015625 0.5625,-0.03125 0.828125,-0.03125 0.28125,0 0.703125,0.015625 0.9375,0.03125 v -0.3125 c -0.21875,-0.03125 -0.28125,-0.15625 -0.28125,-0.3125 0,-0.21875 0.28125,-0.546875 0.890625,-1.265625 l 0.765625,1 C 3.34375,-0.78125 3.46875,-0.625 3.46875,-0.5625 c 0,0.09375 -0.09375,0.25 -0.359375,0.25 V 0 C 3.40625,-0.015625 3.96875,-0.03125 4.1875,-0.03125 c 0.265625,0 0.65625,0.015625 0.953125,0.03125 v -0.3125 c -0.53125,0 -0.71875,-0.015625 -0.9375,-0.3125 z m 0,0"
             id="id-907794ca-f9d9-450f-8005-faaa840fb8ce" />
        </g>
        <g
           transform="translate(164.625,134.765)"
           id="g1368">
          <path
             d="m 2.03125,-0.015625 c 0,-0.625 -0.25,-1.046875 -0.640625,-1.046875 -0.359375,0 -0.53125,0.28125 -0.53125,0.53125 0,0.265625 0.171875,0.53125 0.53125,0.53125 0.15625,0 0.28125,-0.0625 0.375,-0.140625 L 1.78125,-0.15625 c 0.015625,0 0.015625,0 0.015625,0.140625 0,0.640625 -0.265625,1.25 -0.703125,1.71875 -0.0625,0.0625 -0.078125,0.078125 -0.078125,0.109375 0,0.078125 0.046875,0.109375 0.09375,0.109375 0.125,0 0.921875,-0.78125 0.921875,-1.9375 z m 0,0"
             id="id-3b138a59-3d84-4078-a13b-61bf7c8bbd62" />
        </g>
        <g
           transform="translate(167.393,134.765)"
           id="g1371">
          <path
             d="m 4.140625,-3.34375 c 0.25,-0.640625 0.765625,-0.640625 0.921875,-0.640625 v -0.3125 c -0.234375,0.015625 -0.515625,0.03125 -0.75,0.03125 -0.171875,0 -0.640625,-0.015625 -0.859375,-0.03125 v 0.3125 c 0.3125,0 0.46875,0.171875 0.46875,0.421875 0,0.109375 -0.015625,0.125 -0.0625,0.25 L 2.84375,-0.875 1.75,-3.546875 C 1.703125,-3.65625 1.6875,-3.6875 1.6875,-3.734375 c 0,-0.25 0.359375,-0.25 0.5625,-0.25 v -0.3125 c -0.265625,0.015625 -0.921875,0.03125 -1.09375,0.03125 -0.265625,0 -0.671875,-0.015625 -0.96875,-0.03125 v 0.3125 c 0.484375,0 0.671875,0 0.8125,0.34375 L 2.5,0 C 2.4375,0.125 2.296875,0.453125 2.25,0.59375 2.03125,1.140625 1.75,1.828125 1.109375,1.828125 c -0.046875,0 -0.28125,0 -0.46875,-0.1875 0.3125,-0.03125 0.390625,-0.25 0.390625,-0.421875 0,-0.25 -0.1875,-0.40625 -0.421875,-0.40625 -0.203125,0 -0.421875,0.125 -0.421875,0.421875 0,0.453125 0.421875,0.8125 0.921875,0.8125 0.625,0 1.03125,-0.578125 1.265625,-1.140625 z m 0,0"
             id="id-5f6c5bd3-7a6e-4689-8fe3-eb0e177f614a" />
        </g>
        <g
           transform="translate(172.651,134.765)"
           id="g1374">
          <path
             d="m 2.875,-2.5 c 0,-0.765625 -0.109375,-1.96875 -0.65625,-3.109375 -0.59375,-1.21875 -1.453125,-1.875 -1.546875,-1.875 -0.0625,0 -0.109375,0.046875 -0.109375,0.109375 0,0.03125 0,0.046875 0.1875,0.234375 0.984375,0.984375 1.546875,2.5625 1.546875,4.640625 0,1.71875 -0.359375,3.46875 -1.59375,4.71875 C 0.5625,2.34375 0.5625,2.359375 0.5625,2.390625 0.5625,2.453125 0.609375,2.5 0.671875,2.5 0.765625,2.5 1.671875,1.8125 2.25,0.546875 2.765625,-0.546875 2.875,-1.65625 2.875,-2.5 Z m 0,0"
             id="id-4ce31b21-d44c-4510-85f1-cc6def8a8e2b" />
        </g>
      </g>
    </g>
    <g
       transform="matrix(0.529167,0,0,0.529167,74.056361,143.20601)"
       ns4:version="1.8.2"
       ns4:texconverter="pdflatex"
       ns4:pdfconverter="inkscape"
       ns4:text="Q(a,0)"
       ns4:preamble="/Users/alexis/Library/Application Support/org.inkscape.Inkscape/config/inkscape/extensions/textext/default_packages.tex"
       ns4:scale="1.5"
       ns4:alignment="middle center"
       ns4:stroke-to-path="0"
       ns4:inkscapeversion="1.2.1"
       ns4:jacobian_sqrt="0.529167"
       id="g627">
      <defs
         id="id-9f35c8b4-881a-4b10-9fb2-19ff2ae9b545">
        <g
           id="id-5fce754d-4c6b-4175-92dc-02a90d40f69d">
          <g
             id="id-0ef9578b-30ca-4f25-b792-7d4ac9722503" />
          <g
             id="id-c302c969-eda7-4afa-9fde-638ff4ac9613">
            <path
               d="M 3.203125,-0.15625 C 2.671875,-0.359375 1.5625,-1.09375 1.5625,-3.375 c 0,-2.59375 1.390625,-3.40625 2.3125,-3.40625 0.953125,0 2.3125,0.859375 2.3125,3.40625 0,0.765625 -0.109375,2.171875 -1.171875,2.953125 -0.21875,-0.5625 -0.546875,-1.046875 -1.125,-1.046875 -0.515625,0 -0.8125,0.421875 -0.8125,0.828125 0,0.265625 0.125,0.46875 0.125,0.484375 z M 4.75,-0.265625 C 4.421875,-0.0625 4.09375,-0.03125 3.875,-0.03125 c -0.5,0 -0.578125,-0.453125 -0.578125,-0.609375 0,-0.28125 0.203125,-0.609375 0.59375,-0.609375 0.53125,0 0.75,0.40625 0.859375,0.984375 z M 5.15625,-0.0625 C 6.34375,-0.59375 7.1875,-1.875 7.1875,-3.375 c 0,-2.03125 -1.5,-3.65625 -3.3125,-3.65625 -1.796875,0 -3.3125,1.59375 -3.3125,3.65625 0,2.015625 1.5,3.59375 3.3125,3.59375 0.3125,0 0.65625,-0.0625 0.953125,-0.15625 0.140625,0.953125 0.28125,1.875 1.21875,1.875 C 7.0625,1.9375 7.25,0.609375 7.25,0.09375 7.25,0 7.25,-0.109375 7.140625,-0.109375 7.046875,-0.109375 7.03125,-0.03125 7.03125,0.0625 6.96875,0.609375 6.546875,0.90625 6.125,0.90625 5.65625,0.90625 5.40625,0.5625 5.15625,-0.0625 Z m 0,0"
               id="id-d2b70399-3a46-420b-b16f-436d223d22bd" />
          </g>
          <g
             id="id-5f83d8ad-d6fa-49d6-a97d-585b812f72d0">
            <path
               d="m 3.296875,2.390625 c 0,-0.03125 0,-0.046875 -0.171875,-0.21875 C 1.890625,0.921875 1.5625,-0.96875 1.5625,-2.5 c 0,-1.734375 0.375,-3.46875 1.609375,-4.703125 0.125,-0.125 0.125,-0.140625 0.125,-0.171875 0,-0.078125 -0.03125,-0.109375 -0.09375,-0.109375 -0.109375,0 -1,0.6875 -1.59375,1.953125 -0.5,1.09375 -0.625,2.203125 -0.625,3.03125 0,0.78125 0.109375,1.984375 0.65625,3.125 C 2.25,1.84375 3.09375,2.5 3.203125,2.5 c 0.0625,0 0.09375,-0.03125 0.09375,-0.109375 z m 0,0"
               id="id-57fcf3f9-f71a-4ca1-a01b-94e4ff015770" />
          </g>
          <g
             id="id-b330108e-94d2-43c5-b0be-dd07a73f0dbc">
            <path
               d="m 3.3125,-0.75 c 0.046875,0.390625 0.3125,0.8125 0.78125,0.8125 0.21875,0 0.828125,-0.140625 0.828125,-0.953125 v -0.5625 h -0.25 v 0.5625 c 0,0.578125 -0.25,0.640625 -0.359375,0.640625 -0.328125,0 -0.375,-0.453125 -0.375,-0.5 v -1.984375 c 0,-0.421875 0,-0.8125 -0.359375,-1.1875 C 3.1875,-4.3125 2.6875,-4.46875 2.21875,-4.46875 c -0.828125,0 -1.515625,0.46875 -1.515625,1.125 0,0.296875 0.203125,0.46875 0.46875,0.46875 0.28125,0 0.453125,-0.203125 0.453125,-0.453125 0,-0.125 -0.046875,-0.453125 -0.515625,-0.453125 C 1.390625,-4.140625 1.875,-4.25 2.1875,-4.25 c 0.5,0 1.0625,0.390625 1.0625,1.28125 v 0.359375 c -0.515625,0.03125 -1.203125,0.0625 -1.828125,0.359375 -0.75,0.34375 -1,0.859375 -1,1.296875 0,0.8125 0.96875,1.0625 1.59375,1.0625 0.65625,0 1.109375,-0.40625 1.296875,-0.859375 z M 3.25,-2.390625 v 1 c 0,0.9375 -0.71875,1.28125 -1.171875,1.28125 -0.484375,0 -0.890625,-0.34375 -0.890625,-0.84375 0,-0.546875 0.421875,-1.375 2.0625,-1.4375 z m 0,0"
               id="id-82998ef2-b307-4e82-98e9-04bcbd2e1165" />
          </g>
          <g
             id="id-a2132100-ddb6-4e0a-b29c-225819e95612">
            <path
               d="m 2.03125,-0.015625 c 0,-0.625 -0.25,-1.046875 -0.640625,-1.046875 -0.359375,0 -0.53125,0.28125 -0.53125,0.53125 0,0.265625 0.171875,0.53125 0.53125,0.53125 0.15625,0 0.28125,-0.0625 0.375,-0.140625 L 1.78125,-0.15625 c 0.015625,0 0.015625,0 0.015625,0.140625 0,0.640625 -0.265625,1.25 -0.703125,1.71875 -0.0625,0.0625 -0.078125,0.078125 -0.078125,0.109375 0,0.078125 0.046875,0.109375 0.09375,0.109375 0.125,0 0.921875,-0.78125 0.921875,-1.9375 z m 0,0"
               id="id-6610d5f7-128a-4064-8a6e-846a007154b9" />
          </g>
          <g
             id="id-1d5f77da-7a29-4cba-94b1-aab1f7428d77">
            <path
               d="m 4.578125,-3.1875 c 0,-0.796875 -0.046875,-1.59375 -0.390625,-2.328125 -0.453125,-0.96875 -1.28125,-1.125 -1.6875,-1.125 -0.609375,0 -1.328125,0.265625 -1.75,1.1875 -0.3125,0.6875 -0.359375,1.46875 -0.359375,2.265625 0,0.75 0.03125,1.640625 0.453125,2.40625 0.421875,0.796875 1.15625,1 1.640625,1 0.53125,0 1.296875,-0.203125 1.734375,-1.15625 0.3125,-0.6875 0.359375,-1.46875 0.359375,-2.25 z M 2.484375,0 C 2.09375,0 1.5,-0.25 1.328125,-1.203125 1.21875,-1.796875 1.21875,-2.71875 1.21875,-3.3125 c 0,-0.640625 0,-1.296875 0.078125,-1.828125 0.1875,-1.1875 0.9375,-1.28125 1.1875,-1.28125 0.328125,0 0.984375,0.1875 1.171875,1.171875 0.109375,0.5625 0.109375,1.3125 0.109375,1.9375 0,0.75 0,1.421875 -0.109375,2.0625 C 3.5,-0.296875 2.9375,0 2.484375,0 Z m 0,0"
               id="id-f4479b9e-2730-4648-963e-6901f6ec3ef2" />
          </g>
          <g
             id="id-93ee3527-d36e-4a31-98c7-b86bd37007e3">
            <path
               d="m 2.875,-2.5 c 0,-0.765625 -0.109375,-1.96875 -0.65625,-3.109375 -0.59375,-1.21875 -1.453125,-1.875 -1.546875,-1.875 -0.0625,0 -0.109375,0.046875 -0.109375,0.109375 0,0.03125 0,0.046875 0.1875,0.234375 0.984375,0.984375 1.546875,2.5625 1.546875,4.640625 0,1.71875 -0.359375,3.46875 -1.59375,4.71875 C 0.5625,2.34375 0.5625,2.359375 0.5625,2.390625 0.5625,2.453125 0.609375,2.5 0.671875,2.5 0.765625,2.5 1.671875,1.8125 2.25,0.546875 2.765625,-0.546875 2.875,-1.65625 2.875,-2.5 Z m 0,0"
               id="id-37c270fc-0d69-41da-8690-3a52f41fe723" />
          </g>
        </g>
      </defs>
      <g
         fill="#000000"
         fill-opacity="1"
         id="id-56910577-9a25-4eff-94dc-0d7eccb3df13"
         transform="translate(-149.275,-127.281)">
        <g
           transform="translate(148.712,134.765)"
           id="g1795">
          <path
             d="M 3.203125,-0.15625 C 2.671875,-0.359375 1.5625,-1.09375 1.5625,-3.375 c 0,-2.59375 1.390625,-3.40625 2.3125,-3.40625 0.953125,0 2.3125,0.859375 2.3125,3.40625 0,0.765625 -0.109375,2.171875 -1.171875,2.953125 -0.21875,-0.5625 -0.546875,-1.046875 -1.125,-1.046875 -0.515625,0 -0.8125,0.421875 -0.8125,0.828125 0,0.265625 0.125,0.46875 0.125,0.484375 z M 4.75,-0.265625 C 4.421875,-0.0625 4.09375,-0.03125 3.875,-0.03125 c -0.5,0 -0.578125,-0.453125 -0.578125,-0.609375 0,-0.28125 0.203125,-0.609375 0.59375,-0.609375 0.53125,0 0.75,0.40625 0.859375,0.984375 z M 5.15625,-0.0625 C 6.34375,-0.59375 7.1875,-1.875 7.1875,-3.375 c 0,-2.03125 -1.5,-3.65625 -3.3125,-3.65625 -1.796875,0 -3.3125,1.59375 -3.3125,3.65625 0,2.015625 1.5,3.59375 3.3125,3.59375 0.3125,0 0.65625,-0.0625 0.953125,-0.15625 0.140625,0.953125 0.28125,1.875 1.21875,1.875 C 7.0625,1.9375 7.25,0.609375 7.25,0.09375 7.25,0 7.25,-0.109375 7.140625,-0.109375 7.046875,-0.109375 7.03125,-0.03125 7.03125,0.0625 6.96875,0.609375 6.546875,0.90625 6.125,0.90625 5.65625,0.90625 5.40625,0.5625 5.15625,-0.0625 Z m 0,0"
             id="id-ef7563e5-565b-438c-bed1-5fbaceeab506" />
        </g>
        <g
           transform="translate(156.461,134.765)"
           id="g1798">
          <path
             d="m 3.296875,2.390625 c 0,-0.03125 0,-0.046875 -0.171875,-0.21875 C 1.890625,0.921875 1.5625,-0.96875 1.5625,-2.5 c 0,-1.734375 0.375,-3.46875 1.609375,-4.703125 0.125,-0.125 0.125,-0.140625 0.125,-0.171875 0,-0.078125 -0.03125,-0.109375 -0.09375,-0.109375 -0.109375,0 -1,0.6875 -1.59375,1.953125 -0.5,1.09375 -0.625,2.203125 -0.625,3.03125 0,0.78125 0.109375,1.984375 0.65625,3.125 C 2.25,1.84375 3.09375,2.5 3.203125,2.5 c 0.0625,0 0.09375,-0.03125 0.09375,-0.109375 z m 0,0"
             id="id-223c3130-806b-4495-bb10-0fe47140bb05" />
        </g>
        <g
           transform="translate(160.335,134.765)"
           id="g1801">
          <path
             d="m 3.3125,-0.75 c 0.046875,0.390625 0.3125,0.8125 0.78125,0.8125 0.21875,0 0.828125,-0.140625 0.828125,-0.953125 v -0.5625 h -0.25 v 0.5625 c 0,0.578125 -0.25,0.640625 -0.359375,0.640625 -0.328125,0 -0.375,-0.453125 -0.375,-0.5 v -1.984375 c 0,-0.421875 0,-0.8125 -0.359375,-1.1875 C 3.1875,-4.3125 2.6875,-4.46875 2.21875,-4.46875 c -0.828125,0 -1.515625,0.46875 -1.515625,1.125 0,0.296875 0.203125,0.46875 0.46875,0.46875 0.28125,0 0.453125,-0.203125 0.453125,-0.453125 0,-0.125 -0.046875,-0.453125 -0.515625,-0.453125 C 1.390625,-4.140625 1.875,-4.25 2.1875,-4.25 c 0.5,0 1.0625,0.390625 1.0625,1.28125 v 0.359375 c -0.515625,0.03125 -1.203125,0.0625 -1.828125,0.359375 -0.75,0.34375 -1,0.859375 -1,1.296875 0,0.8125 0.96875,1.0625 1.59375,1.0625 0.65625,0 1.109375,-0.40625 1.296875,-0.859375 z M 3.25,-2.390625 v 1 c 0,0.9375 -0.71875,1.28125 -1.171875,1.28125 -0.484375,0 -0.890625,-0.34375 -0.890625,-0.84375 0,-0.546875 0.421875,-1.375 2.0625,-1.4375 z m 0,0"
             id="id-1827d143-af87-4e9b-a37a-e30c443fd7a0" />
        </g>
        <g
           transform="translate(165.317,134.765)"
           id="g1804">
          <path
             d="m 2.03125,-0.015625 c 0,-0.625 -0.25,-1.046875 -0.640625,-1.046875 -0.359375,0 -0.53125,0.28125 -0.53125,0.53125 0,0.265625 0.171875,0.53125 0.53125,0.53125 0.15625,0 0.28125,-0.0625 0.375,-0.140625 L 1.78125,-0.15625 c 0.015625,0 0.015625,0 0.015625,0.140625 0,0.640625 -0.265625,1.25 -0.703125,1.71875 -0.0625,0.0625 -0.078125,0.078125 -0.078125,0.109375 0,0.078125 0.046875,0.109375 0.09375,0.109375 0.125,0 0.921875,-0.78125 0.921875,-1.9375 z m 0,0"
             id="id-5d2e012b-96b7-4d16-b867-a2cb9e1b9d5e" />
        </g>
        <g
           transform="translate(168.084,134.765)"
           id="g1807">
          <path
             d="m 4.578125,-3.1875 c 0,-0.796875 -0.046875,-1.59375 -0.390625,-2.328125 -0.453125,-0.96875 -1.28125,-1.125 -1.6875,-1.125 -0.609375,0 -1.328125,0.265625 -1.75,1.1875 -0.3125,0.6875 -0.359375,1.46875 -0.359375,2.265625 0,0.75 0.03125,1.640625 0.453125,2.40625 0.421875,0.796875 1.15625,1 1.640625,1 0.53125,0 1.296875,-0.203125 1.734375,-1.15625 0.3125,-0.6875 0.359375,-1.46875 0.359375,-2.25 z M 2.484375,0 C 2.09375,0 1.5,-0.25 1.328125,-1.203125 1.21875,-1.796875 1.21875,-2.71875 1.21875,-3.3125 c 0,-0.640625 0,-1.296875 0.078125,-1.828125 0.1875,-1.1875 0.9375,-1.28125 1.1875,-1.28125 0.328125,0 0.984375,0.1875 1.171875,1.171875 0.109375,0.5625 0.109375,1.3125 0.109375,1.9375 0,0.75 0,1.421875 -0.109375,2.0625 C 3.5,-0.296875 2.9375,0 2.484375,0 Z m 0,0"
             id="id-fc21d635-30f1-4953-b632-413f14036af9" />
        </g>
        <g
           transform="translate(173.066,134.765)"
           id="g1810">
          <path
             d="m 2.875,-2.5 c 0,-0.765625 -0.109375,-1.96875 -0.65625,-3.109375 -0.59375,-1.21875 -1.453125,-1.875 -1.546875,-1.875 -0.0625,0 -0.109375,0.046875 -0.109375,0.109375 0,0.03125 0,0.046875 0.1875,0.234375 0.984375,0.984375 1.546875,2.5625 1.546875,4.640625 0,1.71875 -0.359375,3.46875 -1.59375,4.71875 C 0.5625,2.34375 0.5625,2.359375 0.5625,2.390625 0.5625,2.453125 0.609375,2.5 0.671875,2.5 0.765625,2.5 1.671875,1.8125 2.25,0.546875 2.765625,-0.546875 2.875,-1.65625 2.875,-2.5 Z m 0,0"
             id="id-12ff9120-d4ec-458d-960b-0c95b7e4e66a" />
        </g>
      </g>
    </g>
  </g>
  <g
     inkscape:label="Calque 1"
     inkscape:groupmode="layer"
     id="layer1"
     transform="translate(-32.1214, -37.3186)">
    <path
       style="fill:#ffffff;fill-opacity:0;stroke:#000000;stroke-width:0.785001;stroke-dasharray:none"
       d="M 37.836404,45.028251 V 141.45996 H 157.97426"
       id="path6147" />
    <path
       style="fill:#ffffff;fill-opacity:0;stroke:#000000;stroke-width:0.785001;stroke-dasharray:none"
       d="m 49.714427,111.93924 c 12.72407,6.16113 25.447695,12.32204 37.233686,10.1789 11.78599,-2.14313 22.634347,-12.5897 30.603367,-25.715178 7.96902,-13.125472 13.05837,-28.92924 18.14789,-44.73356"
       id="path6089"
       inkscape:path-effect="#path-effect6091"
       inkscape:original-d="m 49.714427,111.93924 c 12.723997,6.16128 25.447625,12.32219 38.170889,18.48275 10.849148,-10.44661 21.697504,-20.89318 32.545704,-31.340322 5.08993,-15.804033 10.17927,-31.607803 15.26835,-47.412266" />
    <path
       style="fill:#ffffff;fill-opacity:0;stroke:#000000;stroke-width:0.365408;stroke-dasharray:none;stroke-dashoffset:0"
       d="M 67.700044,147.92454 154.89038,65.154002"
       id="path6145" />
    <circle
       style="fill:#fafafa;fill-opacity:1;stroke:#000000;stroke-width:0.217369;stroke-dasharray:none;stroke-opacity:1"
       id="path6201"
       cx="106.10162"
       cy="111.58614"
       r="0.81815505" />
    <circle
       style="fill:#fafafa;fill-opacity:1;stroke:#000000;stroke-width:0.217369;stroke-dasharray:none;stroke-opacity:1"
       id="path6201-6"
       cx="74.939041"
       cy="141.0887"
       r="0.81815505" />
    <path
       style="fill:#fafafa;fill-opacity:0;stroke:#000000;stroke-width:0.365408;stroke-dasharray:none;stroke-dashoffset:0;stroke-opacity:1"
       d="m 106.10552,112.41766 v 28.72413"
       id="path8278" />
    <circle
       style="fill:#fafafa;fill-opacity:1;stroke:#000000;stroke-width:0.217369;stroke-dasharray:none;stroke-opacity:1"
       id="path6201-7"
       cx="106.10552"
       cy="141.14178"
       r="0.81815505" />
    <text
       xml:space="preserve"
       style="font-size:4.5861px;font-family:'3270Narrow Nerd Font Mono';-inkscape-font-specification:'3270Narrow Nerd Font Mono';fill:#fafafa;fill-opacity:1;stroke:#000000;stroke-width:0.263;stroke-dasharray:none;stroke-dashoffset:0;stroke-opacity:1"
       x="86.173454"
       y="114.41389"
       id="text9883"><tspan
         sodipodi:role="line"
         id="tspan9881"
         style="stroke-width:0.263"
         x="86.173454"
         y="114.41389" /></text>
    <text
       xml:space="preserve"
       style="font-size:4.5861px;font-family:'3270Narrow Nerd Font Mono';-inkscape-font-specification:'3270Narrow Nerd Font Mono';fill:#fafafa;fill-opacity:1;stroke:#000000;stroke-width:0.263;stroke-dasharray:none;stroke-dashoffset:0;stroke-opacity:1"
       x="84.759521"
       y="114.64318"
       id="text9887"><tspan
         sodipodi:role="line"
         id="tspan9885"
         style="stroke-width:0.263"
         x="84.759521"
         y="114.64318" /></text>
    <g
       inkscape:label=""
       transform="matrix(0.495613,0,0,0.495613,62.1366,113.879)"
       id="g2113">
      <g
         clip-path="url(#clipPath804)"
         id="g2111"
         transform="matrix(0.352778,0,0,0.352778,-0.28112,-0.00224907)">
        <g
           fill="#000000"
           fill-opacity="1"
           id="g2109">
          <g
             inkscape:label=""
             transform="matrix(5.71947,0,0,5.71947,104.834,-55.0723)"
             id="g3863">
            <g
               clip-path="url(#clipPath4008)"
               id="g3861"
               transform="matrix(0.352778,0,0,0.352778,-0.198437,0.00436558)">
              <g
                 fill="#000000"
                 fill-opacity="1"
                 id="g3859">
                <g
                   id="g3837"
                   transform="translate(0,7.4720001)">
                  <path
                     d="M 3.203125,-0.15625 C 2.671875,-0.359375 1.5625,-1.09375 1.5625,-3.375 c 0,-2.59375 1.390625,-3.40625 2.3125,-3.40625 0.953125,0 2.3125,0.859375 2.3125,3.40625 0,0.765625 -0.109375,2.171875 -1.171875,2.953125 -0.21875,-0.5625 -0.546875,-1.046875 -1.125,-1.046875 -0.515625,0 -0.8125,0.421875 -0.8125,0.828125 0,0.265625 0.125,0.46875 0.125,0.484375 z M 4.75,-0.265625 C 4.421875,-0.0625 4.09375,-0.03125 3.875,-0.03125 c -0.5,0 -0.578125,-0.453125 -0.578125,-0.609375 0,-0.28125 0.203125,-0.609375 0.59375,-0.609375 0.53125,0 0.75,0.40625 0.859375,0.984375 z M 5.15625,-0.0625 C 6.34375,-0.59375 7.1875,-1.875 7.1875,-3.375 c 0,-2.03125 -1.5,-3.65625 -3.3125,-3.65625 -1.796875,0 -3.3125,1.59375 -3.3125,3.65625 0,2.015625 1.5,3.59375 3.3125,3.59375 0.3125,0 0.65625,-0.0625 0.953125,-0.15625 0.140625,0.953125 0.28125,1.875 1.21875,1.875 C 7.0625,1.9375 7.25,0.609375 7.25,0.09375 7.25,0 7.25,-0.109375 7.140625,-0.109375 7.046875,-0.109375 7.03125,-0.03125 7.03125,0.0625 6.96875,0.609375 6.546875,0.90625 6.125,0.90625 5.65625,0.90625 5.40625,0.5625 5.15625,-0.0625 Z m 0,0"
                     id="path3835" />
                </g>
                <g
                   id="g3841"
                   transform="translate(7.74891,7.4720001)">
                  <path
                     d="m 3.296875,2.390625 c 0,-0.03125 0,-0.046875 -0.171875,-0.21875 C 1.890625,0.921875 1.5625,-0.96875 1.5625,-2.5 c 0,-1.734375 0.375,-3.46875 1.609375,-4.703125 0.125,-0.125 0.125,-0.140625 0.125,-0.171875 0,-0.078125 -0.03125,-0.109375 -0.09375,-0.109375 -0.109375,0 -1,0.6875 -1.59375,1.953125 -0.5,1.09375 -0.625,2.203125 -0.625,3.03125 0,0.78125 0.109375,1.984375 0.65625,3.125 C 2.25,1.84375 3.09375,2.5 3.203125,2.5 c 0.0625,0 0.09375,-0.03125 0.09375,-0.109375 z m 0,0"
                     id="path3839" />
                </g>
                <g
                   id="g3845"
                   transform="translate(11.623365,7.4720001)">
                  <path
                     d="m 3.3125,-0.75 c 0.046875,0.390625 0.3125,0.8125 0.78125,0.8125 0.21875,0 0.828125,-0.140625 0.828125,-0.953125 v -0.5625 h -0.25 v 0.5625 c 0,0.578125 -0.25,0.640625 -0.359375,0.640625 -0.328125,0 -0.375,-0.453125 -0.375,-0.5 v -1.984375 c 0,-0.421875 0,-0.8125 -0.359375,-1.1875 C 3.1875,-4.3125 2.6875,-4.46875 2.21875,-4.46875 c -0.828125,0 -1.515625,0.46875 -1.515625,1.125 0,0.296875 0.203125,0.46875 0.46875,0.46875 0.28125,0 0.453125,-0.203125 0.453125,-0.453125 0,-0.125 -0.046875,-0.453125 -0.515625,-0.453125 C 1.390625,-4.140625 1.875,-4.25 2.1875,-4.25 c 0.5,0 1.0625,0.390625 1.0625,1.28125 v 0.359375 c -0.515625,0.03125 -1.203125,0.0625 -1.828125,0.359375 -0.75,0.34375 -1,0.859375 -1,1.296875 0,0.8125 0.96875,1.0625 1.59375,1.0625 0.65625,0 1.109375,-0.40625 1.296875,-0.859375 z M 3.25,-2.390625 v 1 c 0,0.9375 -0.71875,1.28125 -1.171875,1.28125 -0.484375,0 -0.890625,-0.34375 -0.890625,-0.84375 0,-0.546875 0.421875,-1.375 2.0625,-1.4375 z m 0,0"
                     id="path3843" />
                </g>
                <g
                   id="g3849"
                   transform="translate(16.604666,7.4720001)">
                  <path
                     d="m 2.03125,-0.015625 c 0,-0.625 -0.25,-1.046875 -0.640625,-1.046875 -0.359375,0 -0.53125,0.28125 -0.53125,0.53125 0,0.265625 0.171875,0.53125 0.53125,0.53125 0.15625,0 0.28125,-0.0625 0.375,-0.140625 L 1.78125,-0.15625 c 0.015625,0 0.015625,0 0.015625,0.140625 0,0.640625 -0.265625,1.25 -0.703125,1.71875 -0.0625,0.0625 -0.078125,0.078125 -0.078125,0.109375 0,0.078125 0.046875,0.109375 0.09375,0.109375 0.125,0 0.921875,-0.78125 0.921875,-1.9375 z m 0,0"
                     id="path3847" />
                </g>
                <g
                   id="g3853"
                   transform="translate(19.372276,7.4720001)">
                  <path
                     d="m 4.578125,-3.1875 c 0,-0.796875 -0.046875,-1.59375 -0.390625,-2.328125 -0.453125,-0.96875 -1.28125,-1.125 -1.6875,-1.125 -0.609375,0 -1.328125,0.265625 -1.75,1.1875 -0.3125,0.6875 -0.359375,1.46875 -0.359375,2.265625 0,0.75 0.03125,1.640625 0.453125,2.40625 0.421875,0.796875 1.15625,1 1.640625,1 0.53125,0 1.296875,-0.203125 1.734375,-1.15625 0.3125,-0.6875 0.359375,-1.46875 0.359375,-2.25 z M 2.484375,0 C 2.09375,0 1.5,-0.25 1.328125,-1.203125 1.21875,-1.796875 1.21875,-2.71875 1.21875,-3.3125 c 0,-0.640625 0,-1.296875 0.078125,-1.828125 0.1875,-1.1875 0.9375,-1.28125 1.1875,-1.28125 0.328125,0 0.984375,0.1875 1.171875,1.171875 0.109375,0.5625 0.109375,1.3125 0.109375,1.9375 0,0.75 0,1.421875 -0.109375,2.0625 C 3.5,-0.296875 2.9375,0 2.484375,0 Z m 0,0"
                     id="path3851" />
                </g>
                <g
                   id="g3857"
                   transform="translate(24.353577,7.4720001)">
                  <path
                     d="m 2.875,-2.5 c 0,-0.765625 -0.109375,-1.96875 -0.65625,-3.109375 -0.59375,-1.21875 -1.453125,-1.875 -1.546875,-1.875 -0.0625,0 -0.109375,0.046875 -0.109375,0.109375 0,0.03125 0,0.046875 0.1875,0.234375 0.984375,0.984375 1.546875,2.5625 1.546875,4.640625 0,1.71875 -0.359375,3.46875 -1.59375,4.71875 C 0.5625,2.34375 0.5625,2.359375 0.5625,2.390625 0.5625,2.453125 0.609375,2.5 0.671875,2.5 0.765625,2.5 1.671875,1.8125 2.25,0.546875 2.765625,-0.546875 2.875,-1.65625 2.875,-2.5 Z m 0,0"
                     id="path3855" />
                </g>
              </g>
            </g>
          </g>
          <g
             inkscape:label=""
             transform="matrix(5.71947,0,0,5.71947,104.835,-55.0721)"
             id="g4789">
            <g
               clip-path="url(#clipPath4001)"
               id="g4787"
               transform="matrix(0.352778,0,0,0.352778,-0.198437,0.00436558)">
              <g
                 fill="#000000"
                 fill-opacity="1"
                 id="g4785">
                <g
                   id="g4763"
                   transform="translate(0,7.4720001)">
                  <path
                     d="M 3.203125,-0.15625 C 2.671875,-0.359375 1.5625,-1.09375 1.5625,-3.375 c 0,-2.59375 1.390625,-3.40625 2.3125,-3.40625 0.953125,0 2.3125,0.859375 2.3125,3.40625 0,0.765625 -0.109375,2.171875 -1.171875,2.953125 -0.21875,-0.5625 -0.546875,-1.046875 -1.125,-1.046875 -0.515625,0 -0.8125,0.421875 -0.8125,0.828125 0,0.265625 0.125,0.46875 0.125,0.484375 z M 4.75,-0.265625 C 4.421875,-0.0625 4.09375,-0.03125 3.875,-0.03125 c -0.5,0 -0.578125,-0.453125 -0.578125,-0.609375 0,-0.28125 0.203125,-0.609375 0.59375,-0.609375 0.53125,0 0.75,0.40625 0.859375,0.984375 z M 5.15625,-0.0625 C 6.34375,-0.59375 7.1875,-1.875 7.1875,-3.375 c 0,-2.03125 -1.5,-3.65625 -3.3125,-3.65625 -1.796875,0 -3.3125,1.59375 -3.3125,3.65625 0,2.015625 1.5,3.59375 3.3125,3.59375 0.3125,0 0.65625,-0.0625 0.953125,-0.15625 0.140625,0.953125 0.28125,1.875 1.21875,1.875 C 7.0625,1.9375 7.25,0.609375 7.25,0.09375 7.25,0 7.25,-0.109375 7.140625,-0.109375 7.046875,-0.109375 7.03125,-0.03125 7.03125,0.0625 6.96875,0.609375 6.546875,0.90625 6.125,0.90625 5.65625,0.90625 5.40625,0.5625 5.15625,-0.0625 Z m 0,0"
                     id="path4761" />
                </g>
                <g
                   id="g4767"
                   transform="translate(7.74891,7.4720001)">
                  <path
                     d="m 3.296875,2.390625 c 0,-0.03125 0,-0.046875 -0.171875,-0.21875 C 1.890625,0.921875 1.5625,-0.96875 1.5625,-2.5 c 0,-1.734375 0.375,-3.46875 1.609375,-4.703125 0.125,-0.125 0.125,-0.140625 0.125,-0.171875 0,-0.078125 -0.03125,-0.109375 -0.09375,-0.109375 -0.109375,0 -1,0.6875 -1.59375,1.953125 -0.5,1.09375 -0.625,2.203125 -0.625,3.03125 0,0.78125 0.109375,1.984375 0.65625,3.125 C 2.25,1.84375 3.09375,2.5 3.203125,2.5 c 0.0625,0 0.09375,-0.03125 0.09375,-0.109375 z m 0,0"
                     id="path4765" />
                </g>
                <g
                   id="g4771"
                   transform="translate(11.623365,7.4720001)">
                  <path
                     d="m 3.3125,-0.75 c 0.046875,0.390625 0.3125,0.8125 0.78125,0.8125 0.21875,0 0.828125,-0.140625 0.828125,-0.953125 v -0.5625 h -0.25 v 0.5625 c 0,0.578125 -0.25,0.640625 -0.359375,0.640625 -0.328125,0 -0.375,-0.453125 -0.375,-0.5 v -1.984375 c 0,-0.421875 0,-0.8125 -0.359375,-1.1875 C 3.1875,-4.3125 2.6875,-4.46875 2.21875,-4.46875 c -0.828125,0 -1.515625,0.46875 -1.515625,1.125 0,0.296875 0.203125,0.46875 0.46875,0.46875 0.28125,0 0.453125,-0.203125 0.453125,-0.453125 0,-0.125 -0.046875,-0.453125 -0.515625,-0.453125 C 1.390625,-4.140625 1.875,-4.25 2.1875,-4.25 c 0.5,0 1.0625,0.390625 1.0625,1.28125 v 0.359375 c -0.515625,0.03125 -1.203125,0.0625 -1.828125,0.359375 -0.75,0.34375 -1,0.859375 -1,1.296875 0,0.8125 0.96875,1.0625 1.59375,1.0625 0.65625,0 1.109375,-0.40625 1.296875,-0.859375 z M 3.25,-2.390625 v 1 c 0,0.9375 -0.71875,1.28125 -1.171875,1.28125 -0.484375,0 -0.890625,-0.34375 -0.890625,-0.84375 0,-0.546875 0.421875,-1.375 2.0625,-1.4375 z m 0,0"
                     id="path4769" />
                </g>
                <g
                   id="g4775"
                   transform="translate(16.604666,7.4720001)">
                  <path
                     d="m 2.03125,-0.015625 c 0,-0.625 -0.25,-1.046875 -0.640625,-1.046875 -0.359375,0 -0.53125,0.28125 -0.53125,0.53125 0,0.265625 0.171875,0.53125 0.53125,0.53125 0.15625,0 0.28125,-0.0625 0.375,-0.140625 L 1.78125,-0.15625 c 0.015625,0 0.015625,0 0.015625,0.140625 0,0.640625 -0.265625,1.25 -0.703125,1.71875 -0.0625,0.0625 -0.078125,0.078125 -0.078125,0.109375 0,0.078125 0.046875,0.109375 0.09375,0.109375 0.125,0 0.921875,-0.78125 0.921875,-1.9375 z m 0,0"
                     id="path4773" />
                </g>
                <g
                   id="g4779"
                   transform="translate(19.372276,7.4720001)">
                  <path
                     d="m 4.578125,-3.1875 c 0,-0.796875 -0.046875,-1.59375 -0.390625,-2.328125 -0.453125,-0.96875 -1.28125,-1.125 -1.6875,-1.125 -0.609375,0 -1.328125,0.265625 -1.75,1.1875 -0.3125,0.6875 -0.359375,1.46875 -0.359375,2.265625 0,0.75 0.03125,1.640625 0.453125,2.40625 0.421875,0.796875 1.15625,1 1.640625,1 0.53125,0 1.296875,-0.203125 1.734375,-1.15625 0.3125,-0.6875 0.359375,-1.46875 0.359375,-2.25 z M 2.484375,0 C 2.09375,0 1.5,-0.25 1.328125,-1.203125 1.21875,-1.796875 1.21875,-2.71875 1.21875,-3.3125 c 0,-0.640625 0,-1.296875 0.078125,-1.828125 0.1875,-1.1875 0.9375,-1.28125 1.1875,-1.28125 0.328125,0 0.984375,0.1875 1.171875,1.171875 0.109375,0.5625 0.109375,1.3125 0.109375,1.9375 0,0.75 0,1.421875 -0.109375,2.0625 C 3.5,-0.296875 2.9375,0 2.484375,0 Z m 0,0"
                     id="path4777" />
                </g>
                <g
                   id="g4783"
                   transform="translate(24.353577,7.4720001)">
                  <path
                     d="m 2.875,-2.5 c 0,-0.765625 -0.109375,-1.96875 -0.65625,-3.109375 -0.59375,-1.21875 -1.453125,-1.875 -1.546875,-1.875 -0.0625,0 -0.109375,0.046875 -0.109375,0.109375 0,0.03125 0,0.046875 0.1875,0.234375 0.984375,0.984375 1.546875,2.5625 1.546875,4.640625 0,1.71875 -0.359375,3.46875 -1.59375,4.71875 C 0.5625,2.34375 0.5625,2.359375 0.5625,2.390625 0.5625,2.453125 0.609375,2.5 0.671875,2.5 0.765625,2.5 1.671875,1.8125 2.25,0.546875 2.765625,-0.546875 2.875,-1.65625 2.875,-2.5 Z m 0,0"
                     id="path4781" />
                </g>
              </g>
            </g>
          </g>
          <g
             inkscape:label=""
             transform="matrix(5.71947,0,0,5.71947,104.835,-55.0721)"
             id="g5746">
            <g
               clip-path="url(#clipPath6942)"
               id="g5744"
               transform="matrix(0.352778,0,0,0.352778,-0.198437,0.00436558)">
              <g
                 fill="#000000"
                 fill-opacity="1"
                 id="g5742">
                <g
                   id="g5720"
                   transform="translate(0,7.4720001)">
                  <path
                     d="M 3.203125,-0.15625 C 2.671875,-0.359375 1.5625,-1.09375 1.5625,-3.375 c 0,-2.59375 1.390625,-3.40625 2.3125,-3.40625 0.953125,0 2.3125,0.859375 2.3125,3.40625 0,0.765625 -0.109375,2.171875 -1.171875,2.953125 -0.21875,-0.5625 -0.546875,-1.046875 -1.125,-1.046875 -0.515625,0 -0.8125,0.421875 -0.8125,0.828125 0,0.265625 0.125,0.46875 0.125,0.484375 z M 4.75,-0.265625 C 4.421875,-0.0625 4.09375,-0.03125 3.875,-0.03125 c -0.5,0 -0.578125,-0.453125 -0.578125,-0.609375 0,-0.28125 0.203125,-0.609375 0.59375,-0.609375 0.53125,0 0.75,0.40625 0.859375,0.984375 z M 5.15625,-0.0625 C 6.34375,-0.59375 7.1875,-1.875 7.1875,-3.375 c 0,-2.03125 -1.5,-3.65625 -3.3125,-3.65625 -1.796875,0 -3.3125,1.59375 -3.3125,3.65625 0,2.015625 1.5,3.59375 3.3125,3.59375 0.3125,0 0.65625,-0.0625 0.953125,-0.15625 0.140625,0.953125 0.28125,1.875 1.21875,1.875 C 7.0625,1.9375 7.25,0.609375 7.25,0.09375 7.25,0 7.25,-0.109375 7.140625,-0.109375 7.046875,-0.109375 7.03125,-0.03125 7.03125,0.0625 6.96875,0.609375 6.546875,0.90625 6.125,0.90625 5.65625,0.90625 5.40625,0.5625 5.15625,-0.0625 Z m 0,0"
                     id="path5718" />
                </g>
                <g
                   id="g5724"
                   transform="translate(7.74891,7.4720001)">
                  <path
                     d="m 3.296875,2.390625 c 0,-0.03125 0,-0.046875 -0.171875,-0.21875 C 1.890625,0.921875 1.5625,-0.96875 1.5625,-2.5 c 0,-1.734375 0.375,-3.46875 1.609375,-4.703125 0.125,-0.125 0.125,-0.140625 0.125,-0.171875 0,-0.078125 -0.03125,-0.109375 -0.09375,-0.109375 -0.109375,0 -1,0.6875 -1.59375,1.953125 -0.5,1.09375 -0.625,2.203125 -0.625,3.03125 0,0.78125 0.109375,1.984375 0.65625,3.125 C 2.25,1.84375 3.09375,2.5 3.203125,2.5 c 0.0625,0 0.09375,-0.03125 0.09375,-0.109375 z m 0,0"
                     id="path5722" />
                </g>
                <g
                   id="g5728"
                   transform="translate(11.623365,7.4720001)">
                  <path
                     d="m 3.3125,-0.75 c 0.046875,0.390625 0.3125,0.8125 0.78125,0.8125 0.21875,0 0.828125,-0.140625 0.828125,-0.953125 v -0.5625 h -0.25 v 0.5625 c 0,0.578125 -0.25,0.640625 -0.359375,0.640625 -0.328125,0 -0.375,-0.453125 -0.375,-0.5 v -1.984375 c 0,-0.421875 0,-0.8125 -0.359375,-1.1875 C 3.1875,-4.3125 2.6875,-4.46875 2.21875,-4.46875 c -0.828125,0 -1.515625,0.46875 -1.515625,1.125 0,0.296875 0.203125,0.46875 0.46875,0.46875 0.28125,0 0.453125,-0.203125 0.453125,-0.453125 0,-0.125 -0.046875,-0.453125 -0.515625,-0.453125 C 1.390625,-4.140625 1.875,-4.25 2.1875,-4.25 c 0.5,0 1.0625,0.390625 1.0625,1.28125 v 0.359375 c -0.515625,0.03125 -1.203125,0.0625 -1.828125,0.359375 -0.75,0.34375 -1,0.859375 -1,1.296875 0,0.8125 0.96875,1.0625 1.59375,1.0625 0.65625,0 1.109375,-0.40625 1.296875,-0.859375 z M 3.25,-2.390625 v 1 c 0,0.9375 -0.71875,1.28125 -1.171875,1.28125 -0.484375,0 -0.890625,-0.34375 -0.890625,-0.84375 0,-0.546875 0.421875,-1.375 2.0625,-1.4375 z m 0,0"
                     id="path5726" />
                </g>
                <g
                   id="g5732"
                   transform="translate(16.604666,7.4720001)">
                  <path
                     d="m 2.03125,-0.015625 c 0,-0.625 -0.25,-1.046875 -0.640625,-1.046875 -0.359375,0 -0.53125,0.28125 -0.53125,0.53125 0,0.265625 0.171875,0.53125 0.53125,0.53125 0.15625,0 0.28125,-0.0625 0.375,-0.140625 L 1.78125,-0.15625 c 0.015625,0 0.015625,0 0.015625,0.140625 0,0.640625 -0.265625,1.25 -0.703125,1.71875 -0.0625,0.0625 -0.078125,0.078125 -0.078125,0.109375 0,0.078125 0.046875,0.109375 0.09375,0.109375 0.125,0 0.921875,-0.78125 0.921875,-1.9375 z m 0,0"
                     id="path5730" />
                </g>
                <g
                   id="g5736"
                   transform="translate(19.372276,7.4720001)">
                  <path
                     d="m 4.578125,-3.1875 c 0,-0.796875 -0.046875,-1.59375 -0.390625,-2.328125 -0.453125,-0.96875 -1.28125,-1.125 -1.6875,-1.125 -0.609375,0 -1.328125,0.265625 -1.75,1.1875 -0.3125,0.6875 -0.359375,1.46875 -0.359375,2.265625 0,0.75 0.03125,1.640625 0.453125,2.40625 0.421875,0.796875 1.15625,1 1.640625,1 0.53125,0 1.296875,-0.203125 1.734375,-1.15625 0.3125,-0.6875 0.359375,-1.46875 0.359375,-2.25 z M 2.484375,0 C 2.09375,0 1.5,-0.25 1.328125,-1.203125 1.21875,-1.796875 1.21875,-2.71875 1.21875,-3.3125 c 0,-0.640625 0,-1.296875 0.078125,-1.828125 0.1875,-1.1875 0.9375,-1.28125 1.1875,-1.28125 0.328125,0 0.984375,0.1875 1.171875,1.171875 0.109375,0.5625 0.109375,1.3125 0.109375,1.9375 0,0.75 0,1.421875 -0.109375,2.0625 C 3.5,-0.296875 2.9375,0 2.484375,0 Z m 0,0"
                     id="path5734" />
                </g>
                <g
                   id="g5740"
                   transform="translate(24.353577,7.4720001)">
                  <path
                     d="m 2.875,-2.5 c 0,-0.765625 -0.109375,-1.96875 -0.65625,-3.109375 -0.59375,-1.21875 -1.453125,-1.875 -1.546875,-1.875 -0.0625,0 -0.109375,0.046875 -0.109375,0.109375 0,0.03125 0,0.046875 0.1875,0.234375 0.984375,0.984375 1.546875,2.5625 1.546875,4.640625 0,1.71875 -0.359375,3.46875 -1.59375,4.71875 C 0.5625,2.34375 0.5625,2.359375 0.5625,2.390625 0.5625,2.453125 0.609375,2.5 0.671875,2.5 0.765625,2.5 1.671875,1.8125 2.25,0.546875 2.765625,-0.546875 2.875,-1.65625 2.875,-2.5 Z m 0,0"
                     id="path5738" />
                </g>
              </g>
            </g>
          </g>
          <g
             inkscape:label=""
             transform="matrix(5.71947,0,0,5.71947,116.2,-125.014)"
             id="g6737">
            <g
               clip-path="url(#clipPath9226)"
               id="g6735"
               transform="matrix(0.352778,0,0,0.352778,-0.198437,0.00436558)">
              <g
                 fill="#000000"
                 fill-opacity="1"
                 id="g6733">
                <g
                   id="g6711"
                   transform="translate(0,7.4720001)">
                  <path
                     d="M 3.203125,-0.15625 C 2.671875,-0.359375 1.5625,-1.09375 1.5625,-3.375 c 0,-2.59375 1.390625,-3.40625 2.3125,-3.40625 0.953125,0 2.3125,0.859375 2.3125,3.40625 0,0.765625 -0.109375,2.171875 -1.171875,2.953125 -0.21875,-0.5625 -0.546875,-1.046875 -1.125,-1.046875 -0.515625,0 -0.8125,0.421875 -0.8125,0.828125 0,0.265625 0.125,0.46875 0.125,0.484375 z M 4.75,-0.265625 C 4.421875,-0.0625 4.09375,-0.03125 3.875,-0.03125 c -0.5,0 -0.578125,-0.453125 -0.578125,-0.609375 0,-0.28125 0.203125,-0.609375 0.59375,-0.609375 0.53125,0 0.75,0.40625 0.859375,0.984375 z M 5.15625,-0.0625 C 6.34375,-0.59375 7.1875,-1.875 7.1875,-3.375 c 0,-2.03125 -1.5,-3.65625 -3.3125,-3.65625 -1.796875,0 -3.3125,1.59375 -3.3125,3.65625 0,2.015625 1.5,3.59375 3.3125,3.59375 0.3125,0 0.65625,-0.0625 0.953125,-0.15625 0.140625,0.953125 0.28125,1.875 1.21875,1.875 C 7.0625,1.9375 7.25,0.609375 7.25,0.09375 7.25,0 7.25,-0.109375 7.140625,-0.109375 7.046875,-0.109375 7.03125,-0.03125 7.03125,0.0625 6.96875,0.609375 6.546875,0.90625 6.125,0.90625 5.65625,0.90625 5.40625,0.5625 5.15625,-0.0625 Z m 0,0"
                     id="path6709" />
                </g>
                <g
                   id="g6715"
                   transform="translate(7.74891,7.4720001)">
                  <path
                     d="m 3.296875,2.390625 c 0,-0.03125 0,-0.046875 -0.171875,-0.21875 C 1.890625,0.921875 1.5625,-0.96875 1.5625,-2.5 c 0,-1.734375 0.375,-3.46875 1.609375,-4.703125 0.125,-0.125 0.125,-0.140625 0.125,-0.171875 0,-0.078125 -0.03125,-0.109375 -0.09375,-0.109375 -0.109375,0 -1,0.6875 -1.59375,1.953125 -0.5,1.09375 -0.625,2.203125 -0.625,3.03125 0,0.78125 0.109375,1.984375 0.65625,3.125 C 2.25,1.84375 3.09375,2.5 3.203125,2.5 c 0.0625,0 0.09375,-0.03125 0.09375,-0.109375 z m 0,0"
                     id="path6713" />
                </g>
                <g
                   id="g6719"
                   transform="translate(11.623365,7.4720001)">
                  <path
                     d="m 3.3125,-0.75 c 0.046875,0.390625 0.3125,0.8125 0.78125,0.8125 0.21875,0 0.828125,-0.140625 0.828125,-0.953125 v -0.5625 h -0.25 v 0.5625 c 0,0.578125 -0.25,0.640625 -0.359375,0.640625 -0.328125,0 -0.375,-0.453125 -0.375,-0.5 v -1.984375 c 0,-0.421875 0,-0.8125 -0.359375,-1.1875 C 3.1875,-4.3125 2.6875,-4.46875 2.21875,-4.46875 c -0.828125,0 -1.515625,0.46875 -1.515625,1.125 0,0.296875 0.203125,0.46875 0.46875,0.46875 0.28125,0 0.453125,-0.203125 0.453125,-0.453125 0,-0.125 -0.046875,-0.453125 -0.515625,-0.453125 C 1.390625,-4.140625 1.875,-4.25 2.1875,-4.25 c 0.5,0 1.0625,0.390625 1.0625,1.28125 v 0.359375 c -0.515625,0.03125 -1.203125,0.0625 -1.828125,0.359375 -0.75,0.34375 -1,0.859375 -1,1.296875 0,0.8125 0.96875,1.0625 1.59375,1.0625 0.65625,0 1.109375,-0.40625 1.296875,-0.859375 z M 3.25,-2.390625 v 1 c 0,0.9375 -0.71875,1.28125 -1.171875,1.28125 -0.484375,0 -0.890625,-0.34375 -0.890625,-0.84375 0,-0.546875 0.421875,-1.375 2.0625,-1.4375 z m 0,0"
                     id="path6717" />
                </g>
                <g
                   id="g6723"
                   transform="translate(16.604666,7.4720001)">
                  <path
                     d="m 2.03125,-0.015625 c 0,-0.625 -0.25,-1.046875 -0.640625,-1.046875 -0.359375,0 -0.53125,0.28125 -0.53125,0.53125 0,0.265625 0.171875,0.53125 0.53125,0.53125 0.15625,0 0.28125,-0.0625 0.375,-0.140625 L 1.78125,-0.15625 c 0.015625,0 0.015625,0 0.015625,0.140625 0,0.640625 -0.265625,1.25 -0.703125,1.71875 -0.0625,0.0625 -0.078125,0.078125 -0.078125,0.109375 0,0.078125 0.046875,0.109375 0.09375,0.109375 0.125,0 0.921875,-0.78125 0.921875,-1.9375 z m 0,0"
                     id="path6721" />
                </g>
                <g
                   id="g6727"
                   transform="translate(19.372276,7.4720001)">
                  <path
                     d="m 4.578125,-3.1875 c 0,-0.796875 -0.046875,-1.59375 -0.390625,-2.328125 -0.453125,-0.96875 -1.28125,-1.125 -1.6875,-1.125 -0.609375,0 -1.328125,0.265625 -1.75,1.1875 -0.3125,0.6875 -0.359375,1.46875 -0.359375,2.265625 0,0.75 0.03125,1.640625 0.453125,2.40625 0.421875,0.796875 1.15625,1 1.640625,1 0.53125,0 1.296875,-0.203125 1.734375,-1.15625 0.3125,-0.6875 0.359375,-1.46875 0.359375,-2.25 z M 2.484375,0 C 2.09375,0 1.5,-0.25 1.328125,-1.203125 1.21875,-1.796875 1.21875,-2.71875 1.21875,-3.3125 c 0,-0.640625 0,-1.296875 0.078125,-1.828125 0.1875,-1.1875 0.9375,-1.28125 1.1875,-1.28125 0.328125,0 0.984375,0.1875 1.171875,1.171875 0.109375,0.5625 0.109375,1.3125 0.109375,1.9375 0,0.75 0,1.421875 -0.109375,2.0625 C 3.5,-0.296875 2.9375,0 2.484375,0 Z m 0,0"
                     id="path6725" />
                </g>
                <g
                   id="g6731"
                   transform="translate(24.353577,7.4720001)">
                  <path
                     d="m 2.875,-2.5 c 0,-0.765625 -0.109375,-1.96875 -0.65625,-3.109375 -0.59375,-1.21875 -1.453125,-1.875 -1.546875,-1.875 -0.0625,0 -0.109375,0.046875 -0.109375,0.109375 0,0.03125 0,0.046875 0.1875,0.234375 0.984375,0.984375 1.546875,2.5625 1.546875,4.640625 0,1.71875 -0.359375,3.46875 -1.59375,4.71875 C 0.5625,2.34375 0.5625,2.359375 0.5625,2.390625 0.5625,2.453125 0.609375,2.5 0.671875,2.5 0.765625,2.5 1.671875,1.8125 2.25,0.546875 2.765625,-0.546875 2.875,-1.65625 2.875,-2.5 Z m 0,0"
                     id="path6729" />
                </g>
              </g>
            </g>
          </g>
        </g>
      </g>
    </g>
    <g
       inkscape:label=""
       transform="matrix(1.3893851,0,0,1.3893851,92.938076,128.61155)"
       id="g10875">
      <g
         fill="#000000"
         fill-opacity="1"
         id="g12"
         transform="matrix(0.352778,0,0,0.352778,-0.15434,0.152179)">
        <g
           id="use10"
           transform="translate(0,9.8030005)">
          <path
             d="m 5.546875,-9.984375 c -0.046875,-0.171875 -0.078125,-0.25 -0.28125,-0.25 -0.203125,0 -0.234375,0.03125 -0.296875,0.265625 l -3,8.578125 C 1.765625,-0.796875 1.359375,-0.4375 0.4375,-0.421875 V 0 c 0.875,-0.03125 0.90625,-0.03125 1.390625,-0.03125 0.390625,0 1.078125,0 1.453125,0.03125 V -0.421875 C 2.6875,-0.4375 2.328125,-0.734375 2.328125,-1.140625 c 0,-0.078125 0,-0.109375 0.0625,-0.296875 L 3.0625,-3.34375 h 3.609375 l 0.78125,2.25 c 0.078125,0.171875 0.078125,0.203125 0.078125,0.25 0,0.421875 -0.734375,0.421875 -1.09375,0.421875 V 0 c 0.328125,-0.03125 1.46875,-0.03125 1.875,-0.03125 0.390625,0 1.421875,0 1.75,0.03125 v -0.421875 c -0.921875,0 -1.1875,0 -1.390625,-0.578125 z m -0.6875,1.453125 1.671875,4.765625 H 3.203125 Z m 0,0"
             id="path18" />
        </g>
      </g>
    </g>
    <g
       transform="matrix(0.529167,0,0,0.529167,99.868137,143.20569)"
       ns4:version="1.8.2"
       ns4:texconverter="pdflatex"
       ns4:pdfconverter="inkscape"
       ns4:text="R(x,0)"
       ns4:preamble="/Users/alexis/Library/Application Support/org.inkscape.Inkscape/config/inkscape/extensions/textext/default_packages.tex"
       ns4:scale="1.5"
       ns4:alignment="middle center"
       ns4:stroke-to-path="0"
       ns4:inkscapeversion="1.2.1"
       ns4:jacobian_sqrt="0.529167"
       id="g2341">
      <defs
         id="id-02ac64d2-2b96-488d-a027-e407d9f83ee8">
        <g
           id="id-c7940a71-9d34-448d-8df2-acd789bd77a2">
          <g
             id="id-8d17f7ff-4bc0-43ec-b80e-3fc498a3b8b7" />
          <g
             id="id-42ae14e3-0e85-45df-927a-7b5f52686d43">
            <path
               d="M 2.234375,-3.515625 V -6.09375 c 0,-0.234375 0,-0.359375 0.21875,-0.390625 C 2.546875,-6.5 2.84375,-6.5 3.046875,-6.5 c 0.890625,0 2,0.046875 2,1.484375 0,0.6875 -0.234375,1.5 -1.703125,1.5 z m 2.109375,0.125 C 5.296875,-3.625 6.078125,-4.234375 6.078125,-5.015625 6.078125,-5.96875 4.9375,-6.8125 3.484375,-6.8125 H 0.34375 V -6.5 h 0.25 c 0.765625,0 0.78125,0.109375 0.78125,0.46875 v 5.25 c 0,0.359375 -0.015625,0.46875 -0.78125,0.46875 h -0.25 V 0 c 0.359375,-0.03125 1.078125,-0.03125 1.453125,-0.03125 0.390625,0 1.109375,0 1.46875,0.03125 v -0.3125 h -0.25 c -0.765625,0 -0.78125,-0.109375 -0.78125,-0.46875 V -3.296875 H 3.375 c 0.15625,0 0.578125,0 0.9375,0.34375 0.375,0.34375 0.375,0.65625 0.375,1.328125 0,0.640625 0,1.046875 0.40625,1.421875 0.40625,0.359375 0.953125,0.421875 1.25,0.421875 0.78125,0 0.953125,-0.8125 0.953125,-1.09375 0,-0.0625 0,-0.171875 -0.125,-0.171875 -0.109375,0 -0.109375,0.09375 -0.125,0.15625 C 6.984375,-0.171875 6.640625,0 6.390625,0 5.90625,0 5.828125,-0.515625 5.6875,-1.4375 L 5.546875,-2.234375 C 5.375,-2.875 4.890625,-3.203125 4.34375,-3.390625 Z m 0,0"
               id="id-ff0ec407-2cbc-4002-9cdd-7a84714cb669" />
          </g>
          <g
             id="id-1c30e67c-69b6-44f9-8f46-83c569809c6a">
            <path
               d="m 3.296875,2.390625 c 0,-0.03125 0,-0.046875 -0.171875,-0.21875 C 1.890625,0.921875 1.5625,-0.96875 1.5625,-2.5 c 0,-1.734375 0.375,-3.46875 1.609375,-4.703125 0.125,-0.125 0.125,-0.140625 0.125,-0.171875 0,-0.078125 -0.03125,-0.109375 -0.09375,-0.109375 -0.109375,0 -1,0.6875 -1.59375,1.953125 -0.5,1.09375 -0.625,2.203125 -0.625,3.03125 0,0.78125 0.109375,1.984375 0.65625,3.125 C 2.25,1.84375 3.09375,2.5 3.203125,2.5 c 0.0625,0 0.09375,-0.03125 0.09375,-0.109375 z m 0,0"
               id="id-9709ea8e-ea05-4b65-b2c9-8be8b999e148" />
          </g>
          <g
             id="id-117cce85-a63e-4da7-abf0-292f3f562a24">
            <path
               d="M 2.859375,-2.34375 C 3.15625,-2.71875 3.53125,-3.203125 3.78125,-3.46875 4.09375,-3.828125 4.5,-3.984375 4.96875,-3.984375 v -0.3125 c -0.265625,0.015625 -0.5625,0.03125 -0.828125,0.03125 -0.296875,0 -0.828125,-0.015625 -0.953125,-0.03125 v 0.3125 c 0.21875,0.015625 0.296875,0.140625 0.296875,0.3125 0,0.15625 -0.109375,0.28125 -0.15625,0.34375 L 2.71875,-2.546875 1.9375,-3.5625 C 1.84375,-3.65625 1.84375,-3.671875 1.84375,-3.734375 c 0,-0.15625 0.15625,-0.25 0.34375,-0.25 v -0.3125 c -0.25,0.015625 -0.90625,0.03125 -1.078125,0.03125 -0.203125,0 -0.671875,-0.015625 -0.9375,-0.03125 v 0.3125 c 0.703125,0 0.703125,0 1.171875,0.609375 l 0.984375,1.28125 -0.9375,1.1875 C 0.921875,-0.328125 0.328125,-0.3125 0.125,-0.3125 V 0 c 0.25,-0.015625 0.5625,-0.03125 0.828125,-0.03125 0.28125,0 0.703125,0.015625 0.9375,0.03125 v -0.3125 c -0.21875,-0.03125 -0.28125,-0.15625 -0.28125,-0.3125 0,-0.21875 0.28125,-0.546875 0.890625,-1.265625 l 0.765625,1 C 3.34375,-0.78125 3.46875,-0.625 3.46875,-0.5625 c 0,0.09375 -0.09375,0.25 -0.359375,0.25 V 0 C 3.40625,-0.015625 3.96875,-0.03125 4.1875,-0.03125 c 0.265625,0 0.65625,0.015625 0.953125,0.03125 v -0.3125 c -0.53125,0 -0.71875,-0.015625 -0.9375,-0.3125 z m 0,0"
               id="id-c807c5e6-689f-43f2-b4d4-635ea619a953" />
          </g>
          <g
             id="id-2a5ddde5-ee41-4753-817a-56f8ff5bb0a5">
            <path
               d="m 2.03125,-0.015625 c 0,-0.625 -0.25,-1.046875 -0.640625,-1.046875 -0.359375,0 -0.53125,0.28125 -0.53125,0.53125 0,0.265625 0.171875,0.53125 0.53125,0.53125 0.15625,0 0.28125,-0.0625 0.375,-0.140625 L 1.78125,-0.15625 c 0.015625,0 0.015625,0 0.015625,0.140625 0,0.640625 -0.265625,1.25 -0.703125,1.71875 -0.0625,0.0625 -0.078125,0.078125 -0.078125,0.109375 0,0.078125 0.046875,0.109375 0.09375,0.109375 0.125,0 0.921875,-0.78125 0.921875,-1.9375 z m 0,0"
               id="id-c7461fb0-12da-4552-893d-bf8b961c8c2d" />
          </g>
          <g
             id="id-ec583619-525a-467f-bf94-1d91adb57aa1">
            <path
               d="m 4.578125,-3.1875 c 0,-0.796875 -0.046875,-1.59375 -0.390625,-2.328125 -0.453125,-0.96875 -1.28125,-1.125 -1.6875,-1.125 -0.609375,0 -1.328125,0.265625 -1.75,1.1875 -0.3125,0.6875 -0.359375,1.46875 -0.359375,2.265625 0,0.75 0.03125,1.640625 0.453125,2.40625 0.421875,0.796875 1.15625,1 1.640625,1 0.53125,0 1.296875,-0.203125 1.734375,-1.15625 0.3125,-0.6875 0.359375,-1.46875 0.359375,-2.25 z M 2.484375,0 C 2.09375,0 1.5,-0.25 1.328125,-1.203125 1.21875,-1.796875 1.21875,-2.71875 1.21875,-3.3125 c 0,-0.640625 0,-1.296875 0.078125,-1.828125 0.1875,-1.1875 0.9375,-1.28125 1.1875,-1.28125 0.328125,0 0.984375,0.1875 1.171875,1.171875 0.109375,0.5625 0.109375,1.3125 0.109375,1.9375 0,0.75 0,1.421875 -0.109375,2.0625 C 3.5,-0.296875 2.9375,0 2.484375,0 Z m 0,0"
               id="id-3a171753-b953-42b4-928b-daeb92ffaac9" />
          </g>
          <g
             id="id-2a193953-ea2b-4b16-bb47-ead9f466e118">
            <path
               d="m 2.875,-2.5 c 0,-0.765625 -0.109375,-1.96875 -0.65625,-3.109375 -0.59375,-1.21875 -1.453125,-1.875 -1.546875,-1.875 -0.0625,0 -0.109375,0.046875 -0.109375,0.109375 0,0.03125 0,0.046875 0.1875,0.234375 0.984375,0.984375 1.546875,2.5625 1.546875,4.640625 0,1.71875 -0.359375,3.46875 -1.59375,4.71875 C 0.5625,2.34375 0.5625,2.359375 0.5625,2.390625 0.5625,2.453125 0.609375,2.5 0.671875,2.5 0.765625,2.5 1.671875,1.8125 2.25,0.546875 2.765625,-0.546875 2.875,-1.65625 2.875,-2.5 Z m 0,0"
               id="id-fe3099ba-dde5-46ff-9e3b-ca256c07c608" />
          </g>
        </g>
      </defs>
      <g
         fill="#000000"
         fill-opacity="1"
         id="id-52407d06-a960-4c1a-b1ac-c3fd66d9c0c3"
         transform="translate(-149.056,-127.281)">
        <g
           transform="translate(148.712,134.765)"
           id="g2323">
          <path
             d="M 2.234375,-3.515625 V -6.09375 c 0,-0.234375 0,-0.359375 0.21875,-0.390625 C 2.546875,-6.5 2.84375,-6.5 3.046875,-6.5 c 0.890625,0 2,0.046875 2,1.484375 0,0.6875 -0.234375,1.5 -1.703125,1.5 z m 2.109375,0.125 C 5.296875,-3.625 6.078125,-4.234375 6.078125,-5.015625 6.078125,-5.96875 4.9375,-6.8125 3.484375,-6.8125 H 0.34375 V -6.5 h 0.25 c 0.765625,0 0.78125,0.109375 0.78125,0.46875 v 5.25 c 0,0.359375 -0.015625,0.46875 -0.78125,0.46875 h -0.25 V 0 c 0.359375,-0.03125 1.078125,-0.03125 1.453125,-0.03125 0.390625,0 1.109375,0 1.46875,0.03125 v -0.3125 h -0.25 c -0.765625,0 -0.78125,-0.109375 -0.78125,-0.46875 V -3.296875 H 3.375 c 0.15625,0 0.578125,0 0.9375,0.34375 0.375,0.34375 0.375,0.65625 0.375,1.328125 0,0.640625 0,1.046875 0.40625,1.421875 0.40625,0.359375 0.953125,0.421875 1.25,0.421875 0.78125,0 0.953125,-0.8125 0.953125,-1.09375 0,-0.0625 0,-0.171875 -0.125,-0.171875 -0.109375,0 -0.109375,0.09375 -0.125,0.15625 C 6.984375,-0.171875 6.640625,0 6.390625,0 5.90625,0 5.828125,-0.515625 5.6875,-1.4375 L 5.546875,-2.234375 C 5.375,-2.875 4.890625,-3.203125 4.34375,-3.390625 Z m 0,0"
             id="id-e943d368-880d-40a4-acec-3f7058652b2a" />
        </g>
        <g
           transform="translate(156.045,134.765)"
           id="g2326">
          <path
             d="m 3.296875,2.390625 c 0,-0.03125 0,-0.046875 -0.171875,-0.21875 C 1.890625,0.921875 1.5625,-0.96875 1.5625,-2.5 c 0,-1.734375 0.375,-3.46875 1.609375,-4.703125 0.125,-0.125 0.125,-0.140625 0.125,-0.171875 0,-0.078125 -0.03125,-0.109375 -0.09375,-0.109375 -0.109375,0 -1,0.6875 -1.59375,1.953125 -0.5,1.09375 -0.625,2.203125 -0.625,3.03125 0,0.78125 0.109375,1.984375 0.65625,3.125 C 2.25,1.84375 3.09375,2.5 3.203125,2.5 c 0.0625,0 0.09375,-0.03125 0.09375,-0.109375 z m 0,0"
             id="id-4f103368-f33c-44ed-b19e-4a008e2d4c00" />
        </g>
        <g
           transform="translate(159.92,134.765)"
           id="g2329">
          <path
             d="M 2.859375,-2.34375 C 3.15625,-2.71875 3.53125,-3.203125 3.78125,-3.46875 4.09375,-3.828125 4.5,-3.984375 4.96875,-3.984375 v -0.3125 c -0.265625,0.015625 -0.5625,0.03125 -0.828125,0.03125 -0.296875,0 -0.828125,-0.015625 -0.953125,-0.03125 v 0.3125 c 0.21875,0.015625 0.296875,0.140625 0.296875,0.3125 0,0.15625 -0.109375,0.28125 -0.15625,0.34375 L 2.71875,-2.546875 1.9375,-3.5625 C 1.84375,-3.65625 1.84375,-3.671875 1.84375,-3.734375 c 0,-0.15625 0.15625,-0.25 0.34375,-0.25 v -0.3125 c -0.25,0.015625 -0.90625,0.03125 -1.078125,0.03125 -0.203125,0 -0.671875,-0.015625 -0.9375,-0.03125 v 0.3125 c 0.703125,0 0.703125,0 1.171875,0.609375 l 0.984375,1.28125 -0.9375,1.1875 C 0.921875,-0.328125 0.328125,-0.3125 0.125,-0.3125 V 0 c 0.25,-0.015625 0.5625,-0.03125 0.828125,-0.03125 0.28125,0 0.703125,0.015625 0.9375,0.03125 v -0.3125 c -0.21875,-0.03125 -0.28125,-0.15625 -0.28125,-0.3125 0,-0.21875 0.28125,-0.546875 0.890625,-1.265625 l 0.765625,1 C 3.34375,-0.78125 3.46875,-0.625 3.46875,-0.5625 c 0,0.09375 -0.09375,0.25 -0.359375,0.25 V 0 C 3.40625,-0.015625 3.96875,-0.03125 4.1875,-0.03125 c 0.265625,0 0.65625,0.015625 0.953125,0.03125 v -0.3125 c -0.53125,0 -0.71875,-0.015625 -0.9375,-0.3125 z m 0,0"
             id="id-017f4ff7-5914-4de6-8247-631bab99848e" />
        </g>
        <g
           transform="translate(165.178,134.765)"
           id="g2332">
          <path
             d="m 2.03125,-0.015625 c 0,-0.625 -0.25,-1.046875 -0.640625,-1.046875 -0.359375,0 -0.53125,0.28125 -0.53125,0.53125 0,0.265625 0.171875,0.53125 0.53125,0.53125 0.15625,0 0.28125,-0.0625 0.375,-0.140625 L 1.78125,-0.15625 c 0.015625,0 0.015625,0 0.015625,0.140625 0,0.640625 -0.265625,1.25 -0.703125,1.71875 -0.0625,0.0625 -0.078125,0.078125 -0.078125,0.109375 0,0.078125 0.046875,0.109375 0.09375,0.109375 0.125,0 0.921875,-0.78125 0.921875,-1.9375 z m 0,0"
             id="id-f99cfbb4-6d91-4fa5-aa1d-477a43203751" />
        </g>
        <g
           transform="translate(167.946,134.765)"
           id="g2335">
          <path
             d="m 4.578125,-3.1875 c 0,-0.796875 -0.046875,-1.59375 -0.390625,-2.328125 -0.453125,-0.96875 -1.28125,-1.125 -1.6875,-1.125 -0.609375,0 -1.328125,0.265625 -1.75,1.1875 -0.3125,0.6875 -0.359375,1.46875 -0.359375,2.265625 0,0.75 0.03125,1.640625 0.453125,2.40625 0.421875,0.796875 1.15625,1 1.640625,1 0.53125,0 1.296875,-0.203125 1.734375,-1.15625 0.3125,-0.6875 0.359375,-1.46875 0.359375,-2.25 z M 2.484375,0 C 2.09375,0 1.5,-0.25 1.328125,-1.203125 1.21875,-1.796875 1.21875,-2.71875 1.21875,-3.3125 c 0,-0.640625 0,-1.296875 0.078125,-1.828125 0.1875,-1.1875 0.9375,-1.28125 1.1875,-1.28125 0.328125,0 0.984375,0.1875 1.171875,1.171875 0.109375,0.5625 0.109375,1.3125 0.109375,1.9375 0,0.75 0,1.421875 -0.109375,2.0625 C 3.5,-0.296875 2.9375,0 2.484375,0 Z m 0,0"
             id="id-5eff4a49-f2d9-4034-974f-0d7ff454eec1" />
        </g>
        <g
           transform="translate(172.927,134.765)"
           id="g2338">
          <path
             d="m 2.875,-2.5 c 0,-0.765625 -0.109375,-1.96875 -0.65625,-3.109375 -0.59375,-1.21875 -1.453125,-1.875 -1.546875,-1.875 -0.0625,0 -0.109375,0.046875 -0.109375,0.109375 0,0.03125 0,0.046875 0.1875,0.234375 0.984375,0.984375 1.546875,2.5625 1.546875,4.640625 0,1.71875 -0.359375,3.46875 -1.59375,4.71875 C 0.5625,2.34375 0.5625,2.359375 0.5625,2.390625 0.5625,2.453125 0.609375,2.5 0.671875,2.5 0.765625,2.5 1.671875,1.8125 2.25,0.546875 2.765625,-0.546875 2.875,-1.65625 2.875,-2.5 Z m 0,0"
             id="id-49df3cb8-0ab5-4a01-b4aa-c60b2affb8bc" />
        </g>
      </g>
    </g>
    <g
       transform="matrix(0.458611 0 0 0.458611 83.6073 124.837)"
       ns4:version="1.8.2"
       ns4:texconverter="pdflatex"
       ns4:pdfconverter="inkscape"
       ns4:text="y'"
       ns4:preamble="/Users/alexis/Library/Application Support/org.inkscape.Inkscape/config/inkscape/extensions/textext/default_packages.tex"
       ns4:scale="1.3"
       ns4:alignment="middle center"
       ns4:stroke-to-path="0"
       ns4:inkscapeversion="1.2.1"
       ns4:jacobian_sqrt="0.458611"
       id="g2864">
      <defs
         id="id-036fde1a-ee67-416a-a870-92151db35902">
        <g
           id="id-97a0f753-2fc9-4857-995f-c995b9013c92">
          <g
             id="id-194b41ad-06ff-4cfd-9571-6b9c9b47fdba" />
          <g
             id="id-2781e629-3db4-4e15-b590-65a5c5dd0ede">
            <path
               d="m 4.140625,-3.34375 c 0.25,-0.640625 0.765625,-0.640625 0.921875,-0.640625 v -0.3125 c -0.234375,0.015625 -0.515625,0.03125 -0.75,0.03125 -0.171875,0 -0.640625,-0.015625 -0.859375,-0.03125 v 0.3125 c 0.3125,0 0.46875,0.171875 0.46875,0.421875 0,0.109375 -0.015625,0.125 -0.0625,0.25 L 2.84375,-0.875 1.75,-3.546875 C 1.703125,-3.65625 1.6875,-3.6875 1.6875,-3.734375 c 0,-0.25 0.359375,-0.25 0.5625,-0.25 v -0.3125 c -0.265625,0.015625 -0.921875,0.03125 -1.09375,0.03125 -0.265625,0 -0.671875,-0.015625 -0.96875,-0.03125 v 0.3125 c 0.484375,0 0.671875,0 0.8125,0.34375 L 2.5,0 C 2.4375,0.125 2.296875,0.453125 2.25,0.59375 2.03125,1.140625 1.75,1.828125 1.109375,1.828125 c -0.046875,0 -0.28125,0 -0.46875,-0.1875 0.3125,-0.03125 0.390625,-0.25 0.390625,-0.421875 0,-0.25 -0.1875,-0.40625 -0.421875,-0.40625 -0.203125,0 -0.421875,0.125 -0.421875,0.421875 0,0.453125 0.421875,0.8125 0.921875,0.8125 0.625,0 1.03125,-0.578125 1.265625,-1.140625 z m 0,0"
               id="id-9c7de0f5-2d58-47bc-bd5e-542795e2c339" />
          </g>
          <g
             id="id-fce6fd22-4644-4355-88d5-05aa6df5d1ad">
            <path
               d="m 2.046875,-5.875 c 0,-0.59375 -0.234375,-1.046875 -0.65625,-1.046875 -0.359375,0 -0.53125,0.265625 -0.53125,0.53125 0,0.265625 0.171875,0.53125 0.53125,0.53125 0.1875,0 0.328125,-0.109375 0.390625,-0.15625 0.015625,-0.03125 0.015625,-0.03125 0.03125,-0.03125 0.015625,0 0.015625,0.140625 0.015625,0.171875 0,0.328125 -0.0625,1.046875 -0.6875,1.65625 -0.125,0.125 -0.125,0.140625 -0.125,0.171875 0,0.0625 0.046875,0.109375 0.09375,0.109375 0.109375,0 0.9375,-0.75 0.9375,-1.9375 z m 0,0"
               id="id-efc46933-4dfa-4bf0-852e-8968c6278bad" />
          </g>
        </g>
      </defs>
      <g
         fill="#000000"
         fill-opacity="1"
         id="id-a0d9d3c7-90b6-4fee-aef3-2548a0ad2991"
         transform="translate(-148.9, -127.843)">
        <g
           transform="translate(148.712, 134.765)"
           id="g3501">
          <path
             d="m 4.140625,-3.34375 c 0.25,-0.640625 0.765625,-0.640625 0.921875,-0.640625 v -0.3125 c -0.234375,0.015625 -0.515625,0.03125 -0.75,0.03125 -0.171875,0 -0.640625,-0.015625 -0.859375,-0.03125 v 0.3125 c 0.3125,0 0.46875,0.171875 0.46875,0.421875 0,0.109375 -0.015625,0.125 -0.0625,0.25 L 2.84375,-0.875 1.75,-3.546875 C 1.703125,-3.65625 1.6875,-3.6875 1.6875,-3.734375 c 0,-0.25 0.359375,-0.25 0.5625,-0.25 v -0.3125 c -0.265625,0.015625 -0.921875,0.03125 -1.09375,0.03125 -0.265625,0 -0.671875,-0.015625 -0.96875,-0.03125 v 0.3125 c 0.484375,0 0.671875,0 0.8125,0.34375 L 2.5,0 C 2.4375,0.125 2.296875,0.453125 2.25,0.59375 2.03125,1.140625 1.75,1.828125 1.109375,1.828125 c -0.046875,0 -0.28125,0 -0.46875,-0.1875 0.3125,-0.03125 0.390625,-0.25 0.390625,-0.421875 0,-0.25 -0.1875,-0.40625 -0.421875,-0.40625 -0.203125,0 -0.421875,0.125 -0.421875,0.421875 0,0.453125 0.421875,0.8125 0.921875,0.8125 0.625,0 1.03125,-0.578125 1.265625,-1.140625 z m 0,0"
             id="id-69048864-0cd1-49ca-97a6-b9044558ec70" />
        </g>
        <g
           transform="translate(153.97, 134.765)"
           id="g3504">
          <path
             d="m 2.046875,-5.875 c 0,-0.59375 -0.234375,-1.046875 -0.65625,-1.046875 -0.359375,0 -0.53125,0.265625 -0.53125,0.53125 0,0.265625 0.171875,0.53125 0.53125,0.53125 0.1875,0 0.328125,-0.109375 0.390625,-0.15625 0.015625,-0.03125 0.015625,-0.03125 0.03125,-0.03125 0.015625,0 0.015625,0.140625 0.015625,0.171875 0,0.328125 -0.0625,1.046875 -0.6875,1.65625 -0.125,0.125 -0.125,0.140625 -0.125,0.171875 0,0.0625 0.046875,0.109375 0.09375,0.109375 0.109375,0 0.9375,-0.75 0.9375,-1.9375 z m 0,0"
             id="id-459af2da-b553-471f-8ecd-ced18dc1c5fd" />
        </g>
      </g>
    </g>
  </g>
</svg>
