<svg xmlns:inkscape="http://www.inkscape.org/namespaces/inkscape" xmlns:sodipodi="http://sodipodi.sourceforge.net/DTD/sodipodi-0.dtd" xmlns="http://www.w3.org/2000/svg" xmlns:svg="http://www.w3.org/2000/svg" width="118.74627mm" height="79.164177mm" viewBox="0 0 118.74627 79.164177" version="1.1" id="svg4369" inkscape:version="1.2.2 (b0a84865, 2022-12-01)" sodipodi:docname="figure_5.svg">
  <sodipodi:namedview id="namedview4371" pagecolor="#ffffff" bordercolor="#999999" borderopacity="1" inkscape:showpageshadow="0" inkscape:pageopacity="0" inkscape:pagecheckerboard="0" inkscape:deskcolor="#d1d1d1" inkscape:document-units="mm" showgrid="false" inkscape:zoom="1.829812" inkscape:cx="199.20079" inkscape:cy="259.86276" inkscape:window-width="1390" inkscape:window-height="1205" inkscape:window-x="0" inkscape:window-y="540" inkscape:window-maximized="0" inkscape:current-layer="g614"/>
  <defs id="defs4366">
    <clipPath id="clip_1">
      <path transform="matrix(0.51945,0,0,-0.51945,137.699,296.404)" d="M 0,0 H 648 V 432 H 0 Z" id="path2"/>
    </clipPath>
    <clipPath id="clip_3">
      <path transform="matrix(0.51945,0,0,-0.51945,137.699,296.404)" d="M 81,47.52 H 583.2 V 380.16 H 81 Z" id="path87"/>
    </clipPath>
    <clipPath id="clip_4">
      <path transform="matrix(0.51945,0,0,-0.51945,137.699,296.404)" d="M 81,47.52 H 583.2 V 380.16 H 81 Z" id="path90"/>
    </clipPath>
  </defs>
  <g inkscape:label="Layer 1" inkscape:groupmode="layer" id="layer1" transform="translate(-37.795318,-45.151114)" color="rgb(209, 209, 209)">
    <g clip-path="url(#clip_1)" id="g614" transform="matrix(0.35277777,0,0,0.35277777,-10.781828,19.75055)" color="rgb(209, 209, 209)">
      <path transform="matrix(0.51945,0,0,-0.51945,137.699,296.404)" d="m 103.82727,47.52 v -3.5" id="path226"/>
      <path transform="matrix(0.51945,0,0,-0.51945,137.699,296.404)" stroke-width="0.8" stroke-linecap="butt" stroke-linejoin="round" fill="none" stroke="currentColor" d="m 103.82727,47.52 v -3.5" id="path228"/>
      <g id="use230" transform="matrix(5.71395,0,0,-5.71395,187.93912,279.69816)" style="fill:currentColor" color="rgb(209, 209, 209)">
        <path transform="matrix(0.001,0,0,0.001,0,0)" d="m 318,346 c -47,0 -84,-13 -111,-38 -27,-25 -40,-59 -40,-103 0,-44 13,-79 40,-104 27,-25 64,-37 111,-37 46,0 83,12 110,38 27,25 41,59 41,103 0,44 -14,78 -40,103 -27,25 -64,38 -111,38 z m -99,42 c -42,10 -75,30 -99,59 -24,29 -35,64 -35,106 0,58 20,104 62,138 41,34 98,51 171,51 72,0 129,-17 171,-51 41,-34 62,-80 62,-138 0,-42 -12,-77 -36,-106 -24,-29 -56,-49 -98,-59 47,-11 84,-33 111,-65 26,-32 40,-72 40,-118 C 568,134 546,80 503,43 459,5 397,-13 317,-13 237,-13 175,5 132,43 89,80 68,134 68,205 c 0,46 13,86 40,118 26,32 63,54 111,65 z m -36,156 c 0,-38 11,-68 35,-89 24,-21 57,-31 100,-31 42,0 75,10 99,31 24,21 36,51 36,89 0,38 -12,67 -36,88 -24,21 -57,32 -99,32 -43,0 -76,-11 -100,-32 -24,-21 -35,-50 -35,-88 z" id="path5674" style="fill:currentColor"/>
      </g>
      <g id="use232" transform="matrix(5.71395,0,0,-5.71395,191.5732,279.69816)" style="fill:currentColor" color="rgb(209, 209, 209)">
        <path transform="matrix(0.001,0,0,0.001,0,0)" d="m 98,729 h 99 V 421 L 524,729 H 651 L 289,389 677,0 H 547 L 197,351 V 0 H 98 Z" id="path5690" style="fill:currentColor"/>
      </g>
      <path transform="matrix(0.51945,0,0,-0.51945,137.699,296.404)" d="m 130.68289,47.52 v -3.5" id="path234"/>
      <path transform="matrix(0.51945,0,0,-0.51945,137.699,296.404)" stroke-width="0.8" stroke-linecap="butt" stroke-linejoin="round" fill="none" stroke="currentColor" d="m 130.68289,47.52 v -3.5" id="path236"/>
      <g id="use238" transform="matrix(5.71395,0,0,-5.71395,200.0712,279.69816)" style="fill:currentColor" color="rgb(209, 209, 209)">
        <path transform="matrix(0.001,0,0,0.001,0,0)" d="M 124,83 H 285 V 639 L 110,604 v 90 l 174,35 h 99 V 83 H 544 V 0 H 124 Z" id="path5638" style="fill:currentColor"/>
      </g>
      <g id="use240" transform="matrix(5.71395,0,0,-5.71395,203.70528,279.69816)" style="fill:currentColor" color="rgb(209, 209, 209)">
        <path transform="matrix(0.001,0,0,0.001,0,0)" d="m 330,404 c -44,0 -79,-16 -105,-46 -26,-30 -39,-72 -39,-124 0,-53 13,-95 39,-125 26,-30 61,-45 105,-45 44,0 79,15 105,45 26,30 39,72 39,125 0,52 -13,94 -39,124 -26,30 -61,46 -105,46 z m 196,309 v -90 c -25,12 -50,21 -75,27 -26,6 -51,9 -75,9 -66,0 -116,-22 -150,-66 -34,-44 -54,-111 -58,-199 19,28 43,50 72,65 29,15 61,23 96,23 73,0 131,-23 173,-67 42,-44 64,-105 64,-181 C 573,159 550,99 506,54 462,9 403,-13 330,-13 246,-13 181,19 137,83 92,147 70,241 70,364 c 0,115 27,207 82,275 54,68 128,103 220,103 24,0 49,-3 75,-7 25,-5 51,-12 79,-22 z" id="path5714" style="fill:currentColor"/>
      </g>
      <g id="use242" transform="matrix(5.71395,0,0,-5.71395,207.33934,279.69816)" style="fill:currentColor" color="rgb(209, 209, 209)">
        <path transform="matrix(0.001,0,0,0.001,0,0)" d="m 98,729 h 99 V 421 L 524,729 H 651 L 289,389 677,0 H 547 L 197,351 V 0 H 98 Z" id="path5694" style="fill:currentColor"/>
      </g>
      <path transform="matrix(0.51945,0,0,-0.51945,137.699,296.404)" d="m 157.5385,47.52 v -3.5" id="path244"/>
      <path transform="matrix(0.51945,0,0,-0.51945,137.699,296.404)" stroke-width="0.8" stroke-linecap="butt" stroke-linejoin="round" fill="none" stroke="currentColor" d="m 157.5385,47.52 v -3.5" id="path246"/>
      <g id="use248" transform="matrix(5.71395,0,0,-5.71395,214.02133,279.69816)" style="fill:currentColor" color="rgb(209, 209, 209)">
        <path transform="matrix(0.001,0,0,0.001,0,0)" d="m 406,393 c 47,-10 84,-31 110,-63 26,-32 40,-72 40,-118 C 556,140 531,84 482,45 432,6 362,-13 271,-13 c -31,0 -63,3 -95,9 -32,5 -66,14 -100,26 v 95 c 27,-16 57,-28 90,-36 32,-8 66,-12 102,-12 62,0 109,12 141,36 32,24 49,60 49,107 0,42 -15,76 -45,100 -30,24 -72,37 -126,37 h -85 v 81 h 89 c 48,0 85,9 111,29 26,19 39,47 39,84 0,37 -14,66 -40,86 -27,20 -65,30 -114,30 -27,0 -56,-3 -87,-9 -31,-6 -65,-15 -102,-27 v 88 c 37,10 72,18 105,23 32,5 63,8 93,8 74,0 133,-17 177,-51 44,-34 66,-80 66,-138 0,-40 -12,-74 -35,-102 -23,-28 -56,-48 -98,-58 z" id="path5662" style="fill:currentColor"/>
      </g>
      <g id="use250" transform="matrix(5.71395,0,0,-5.71395,217.65541,279.69816)" style="fill:currentColor" color="rgb(209, 209, 209)">
        <path transform="matrix(0.001,0,0,0.001,0,0)" d="M 192,83 H 536 V 0 H 73 v 83 c 37,38 88,90 153,156 64,65 105,107 122,126 32,35 54,65 66,90 12,24 19,49 19,73 0,38 -14,70 -41,94 -27,24 -62,37 -106,37 -31,0 -64,-6 -98,-16 -34,-11 -71,-27 -110,-49 v 100 c 40,16 77,28 111,36 34,8 66,12 95,12 75,0 135,-19 180,-57 45,-38 68,-88 68,-151 0,-30 -6,-59 -17,-85 -11,-27 -31,-59 -61,-95 -8,-10 -34,-37 -78,-82 C 332,227 271,164 192,83 Z" id="path5722" style="fill:currentColor"/>
      </g>
      <g id="use252" transform="matrix(5.71395,0,0,-5.71395,221.28948,279.69816)" style="fill:currentColor" color="rgb(209, 209, 209)">
        <path transform="matrix(0.001,0,0,0.001,0,0)" d="m 98,729 h 99 V 421 L 524,729 H 651 L 289,389 677,0 H 547 L 197,351 V 0 H 98 Z" id="path5698" style="fill:currentColor"/>
      </g>
      <path transform="matrix(0.51945,0,0,-0.51945,137.699,296.404)" d="m 184.39412,47.52 v -3.5" id="path254"/>
      <path transform="matrix(0.51945,0,0,-0.51945,137.699,296.404)" stroke-width="0.8" stroke-linecap="butt" stroke-linejoin="round" fill="none" stroke="currentColor" d="m 184.39412,47.52 v -3.5" id="path256"/>
      <g id="use258" transform="matrix(5.71395,0,0,-5.71395,227.9715,279.69816)" style="fill:currentColor" color="rgb(209, 209, 209)">
        <path transform="matrix(0.001,0,0,0.001,0,0)" d="m 330,404 c -44,0 -79,-16 -105,-46 -26,-30 -39,-72 -39,-124 0,-53 13,-95 39,-125 26,-30 61,-45 105,-45 44,0 79,15 105,45 26,30 39,72 39,125 0,52 -13,94 -39,124 -26,30 -61,46 -105,46 z m 196,309 v -90 c -25,12 -50,21 -75,27 -26,6 -51,9 -75,9 -66,0 -116,-22 -150,-66 -34,-44 -54,-111 -58,-199 19,28 43,50 72,65 29,15 61,23 96,23 73,0 131,-23 173,-67 42,-44 64,-105 64,-181 C 573,159 550,99 506,54 462,9 403,-13 330,-13 246,-13 181,19 137,83 92,147 70,241 70,364 c 0,115 27,207 82,275 54,68 128,103 220,103 24,0 49,-3 75,-7 25,-5 51,-12 79,-22 z" id="path5718" style="fill:currentColor"/>
      </g>
      <g id="use260" transform="matrix(5.71395,0,0,-5.71395,231.60558,279.69816)" style="fill:currentColor" color="rgb(209, 209, 209)">
        <path transform="matrix(0.001,0,0,0.001,0,0)" d="M 378,643 129,254 h 249 z m -26,86 H 476 V 254 H 580 V 172 H 476 V 0 H 378 V 172 H 49 v 95 z" id="path5758" style="fill:currentColor"/>
      </g>
      <g id="use262" transform="matrix(5.71395,0,0,-5.71395,235.23964,279.69816)" style="fill:currentColor" color="rgb(209, 209, 209)">
        <path transform="matrix(0.001,0,0,0.001,0,0)" d="m 98,729 h 99 V 421 L 524,729 H 651 L 289,389 677,0 H 547 L 197,351 V 0 H 98 Z" id="path5702" style="fill:currentColor"/>
      </g>
      <path transform="matrix(0.51945,0,0,-0.51945,137.699,296.404)" d="m 211.24974,47.52 v -3.5" id="path264"/>
      <path transform="matrix(0.51945,0,0,-0.51945,137.699,296.404)" stroke-width="0.8" stroke-linecap="butt" stroke-linejoin="round" fill="none" stroke="currentColor" d="m 211.24974,47.52 v -3.5" id="path266"/>
      <g id="use268" transform="matrix(5.71395,0,0,-5.71395,240.10356,279.69816)" style="fill:currentColor" color="rgb(209, 209, 209)">
        <path transform="matrix(0.001,0,0,0.001,0,0)" d="M 124,83 H 285 V 639 L 110,604 v 90 l 174,35 h 99 V 83 H 544 V 0 H 124 Z" id="path5642" style="fill:currentColor"/>
      </g>
      <g id="use270" transform="matrix(5.71395,0,0,-5.71395,243.73764,279.69816)" style="fill:currentColor" color="rgb(209, 209, 209)">
        <path transform="matrix(0.001,0,0,0.001,0,0)" d="M 192,83 H 536 V 0 H 73 v 83 c 37,38 88,90 153,156 64,65 105,107 122,126 32,35 54,65 66,90 12,24 19,49 19,73 0,38 -14,70 -41,94 -27,24 -62,37 -106,37 -31,0 -64,-6 -98,-16 -34,-11 -71,-27 -110,-49 v 100 c 40,16 77,28 111,36 34,8 66,12 95,12 75,0 135,-19 180,-57 45,-38 68,-88 68,-151 0,-30 -6,-59 -17,-85 -11,-27 -31,-59 -61,-95 -8,-10 -34,-37 -78,-82 C 332,227 271,164 192,83 Z" id="path5726" style="fill:currentColor"/>
      </g>
      <g id="use272" transform="matrix(5.71395,0,0,-5.71395,247.3717,279.69816)" style="fill:currentColor" color="rgb(209, 209, 209)">
        <path transform="matrix(0.001,0,0,0.001,0,0)" d="m 318,346 c -47,0 -84,-13 -111,-38 -27,-25 -40,-59 -40,-103 0,-44 13,-79 40,-104 27,-25 64,-37 111,-37 46,0 83,12 110,38 27,25 41,59 41,103 0,44 -14,78 -40,103 -27,25 -64,38 -111,38 z m -99,42 c -42,10 -75,30 -99,59 -24,29 -35,64 -35,106 0,58 20,104 62,138 41,34 98,51 171,51 72,0 129,-17 171,-51 41,-34 62,-80 62,-138 0,-42 -12,-77 -36,-106 -24,-29 -56,-49 -98,-59 47,-11 84,-33 111,-65 26,-32 40,-72 40,-118 C 568,134 546,80 503,43 459,5 397,-13 317,-13 237,-13 175,5 132,43 89,80 68,134 68,205 c 0,46 13,86 40,118 26,32 63,54 111,65 z m -36,156 c 0,-38 11,-68 35,-89 24,-21 57,-31 100,-31 42,0 75,10 99,31 24,21 36,51 36,89 0,38 -12,67 -36,88 -24,21 -57,32 -99,32 -43,0 -76,-11 -100,-32 -24,-21 -35,-50 -35,-88 z" id="path5678" style="fill:currentColor"/>
      </g>
      <g id="use274" transform="matrix(5.71395,0,0,-5.71395,251.00579,279.69816)" style="fill:currentColor" color="rgb(209, 209, 209)">
        <path transform="matrix(0.001,0,0,0.001,0,0)" d="m 98,729 h 99 V 421 L 524,729 H 651 L 289,389 677,0 H 547 L 197,351 V 0 H 98 Z" id="path5706" style="fill:currentColor"/>
      </g>
      <path transform="matrix(0.51945,0,0,-0.51945,137.699,296.404)" d="m 264.96098,47.52 v -3.5" id="path276"/>
      <path transform="matrix(0.51945,0,0,-0.51945,137.699,296.404)" stroke-width="0.8" stroke-linecap="butt" stroke-linejoin="round" fill="none" stroke="currentColor" d="m 264.96098,47.52 v -3.5" id="path278"/>
      <g id="use280" transform="matrix(5.71395,0,0,-5.71395,268.00386,279.69816)" style="fill:currentColor" color="rgb(209, 209, 209)">
        <path transform="matrix(0.001,0,0,0.001,0,0)" d="M 108,729 H 495 V 646 H 198 V 467 c 14,5 29,9 43,11 14,2 29,4 43,4 81,0 145,-23 193,-67 48,-45 72,-105 72,-181 C 549,155 524,94 475,51 426,8 357,-13 269,-13 c -31,0 -62,3 -94,7 -32,5 -64,12 -98,23 v 99 c 29,-16 59,-28 91,-36 31,-8 64,-11 99,-11 56,0 101,14 134,44 32,30 49,70 49,121 0,50 -17,90 -49,120 -33,30 -78,45 -134,45 -26,0 -53,-3 -79,-9 -26,-6 -53,-15 -80,-27 z" id="path5750" style="fill:currentColor"/>
      </g>
      <g id="use282" transform="matrix(5.71395,0,0,-5.71395,271.6379,279.69816)" style="fill:currentColor" color="rgb(209, 209, 209)">
        <path transform="matrix(0.001,0,0,0.001,0,0)" d="M 124,83 H 285 V 639 L 110,604 v 90 l 174,35 h 99 V 83 H 544 V 0 H 124 Z" id="path5646" style="fill:currentColor"/>
      </g>
      <g id="use284" transform="matrix(5.71395,0,0,-5.71395,275.272,279.69816)" style="fill:currentColor" color="rgb(209, 209, 209)">
        <path transform="matrix(0.001,0,0,0.001,0,0)" d="M 192,83 H 536 V 0 H 73 v 83 c 37,38 88,90 153,156 64,65 105,107 122,126 32,35 54,65 66,90 12,24 19,49 19,73 0,38 -14,70 -41,94 -27,24 -62,37 -106,37 -31,0 -64,-6 -98,-16 -34,-11 -71,-27 -110,-49 v 100 c 40,16 77,28 111,36 34,8 66,12 95,12 75,0 135,-19 180,-57 45,-38 68,-88 68,-151 0,-30 -6,-59 -17,-85 -11,-27 -31,-59 -61,-95 -8,-10 -34,-37 -78,-82 C 332,227 271,164 192,83 Z" id="path5730" style="fill:currentColor"/>
      </g>
      <g id="use286" transform="matrix(5.71395,0,0,-5.71395,278.90608,279.69816)" style="fill:currentColor" color="rgb(209, 209, 209)">
        <path transform="matrix(0.001,0,0,0.001,0,0)" d="m 98,729 h 99 V 421 L 524,729 H 651 L 289,389 677,0 H 547 L 197,351 V 0 H 98 Z" id="path5710" style="fill:currentColor"/>
      </g>
      <path transform="matrix(0.51945,0,0,-0.51945,137.699,296.404)" d="m 318.67219,47.52 v -3.5" id="path288"/>
      <path transform="matrix(0.51945,0,0,-0.51945,137.699,296.404)" stroke-width="0.8" stroke-linecap="butt" stroke-linejoin="round" fill="none" stroke="currentColor" d="m 318.67219,47.52 v -3.5" id="path290"/>
      <g id="use292" transform="matrix(5.71395,0,0,-5.71395,298.95188,279.69816)" style="fill:currentColor" color="rgb(209, 209, 209)">
        <path transform="matrix(0.001,0,0,0.001,0,0)" d="M 192,83 H 536 V 0 H 73 v 83 c 37,38 88,90 153,156 64,65 105,107 122,126 32,35 54,65 66,90 12,24 19,49 19,73 0,38 -14,70 -41,94 -27,24 -62,37 -106,37 -31,0 -64,-6 -98,-16 -34,-11 -71,-27 -110,-49 v 100 c 40,16 77,28 111,36 34,8 66,12 95,12 75,0 135,-19 180,-57 45,-38 68,-88 68,-151 0,-30 -6,-59 -17,-85 -11,-27 -31,-59 -61,-95 -8,-10 -34,-37 -78,-82 C 332,227 271,164 192,83 Z" id="path5734" style="fill:currentColor"/>
      </g>
      <g id="use294" transform="matrix(5.71395,0,0,-5.71395,302.58595,279.69816)" style="fill:currentColor" color="rgb(209, 209, 209)">
        <path transform="matrix(0.001,0,0,0.001,0,0)" d="M 98,729 H 245 L 431,233 618,729 H 765 V 0 H 669 V 640 L 481,140 H 382 L 194,640 V 0 H 98 Z" id="path5622" style="fill:currentColor"/>
      </g>
      <path transform="matrix(0.51945,0,0,-0.51945,137.699,296.404)" d="m 372.38343,47.52 v -3.5" id="path296"/>
      <path transform="matrix(0.51945,0,0,-0.51945,137.699,296.404)" stroke-width="0.8" stroke-linecap="butt" stroke-linejoin="round" fill="none" stroke="currentColor" d="m 372.38343,47.52 v -3.5" id="path298"/>
      <g id="use300" transform="matrix(5.71395,0,0,-5.71395,326.85218,279.69816)" style="fill:currentColor" color="rgb(209, 209, 209)">
        <path transform="matrix(0.001,0,0,0.001,0,0)" d="m 318,346 c -47,0 -84,-13 -111,-38 -27,-25 -40,-59 -40,-103 0,-44 13,-79 40,-104 27,-25 64,-37 111,-37 46,0 83,12 110,38 27,25 41,59 41,103 0,44 -14,78 -40,103 -27,25 -64,38 -111,38 z m -99,42 c -42,10 -75,30 -99,59 -24,29 -35,64 -35,106 0,58 20,104 62,138 41,34 98,51 171,51 72,0 129,-17 171,-51 41,-34 62,-80 62,-138 0,-42 -12,-77 -36,-106 -24,-29 -56,-49 -98,-59 47,-11 84,-33 111,-65 26,-32 40,-72 40,-118 C 568,134 546,80 503,43 459,5 397,-13 317,-13 237,-13 175,5 132,43 89,80 68,134 68,205 c 0,46 13,86 40,118 26,32 63,54 111,65 z m -36,156 c 0,-38 11,-68 35,-89 24,-21 57,-31 100,-31 42,0 75,10 99,31 24,21 36,51 36,89 0,38 -12,67 -36,88 -24,21 -57,32 -99,32 -43,0 -76,-11 -100,-32 -24,-21 -35,-50 -35,-88 z" id="path5682" style="fill:currentColor"/>
      </g>
      <g id="use302" transform="matrix(5.71395,0,0,-5.71395,330.48625,279.69816)" style="fill:currentColor" color="rgb(209, 209, 209)">
        <path transform="matrix(0.001,0,0,0.001,0,0)" d="M 98,729 H 245 L 431,233 618,729 H 765 V 0 H 669 V 640 L 481,140 H 382 L 194,640 V 0 H 98 Z" id="path5626" style="fill:currentColor"/>
      </g>
      <path transform="matrix(0.51945,0,0,-0.51945,137.699,296.404)" d="m 426.09468,47.52 v -3.5" id="path304"/>
      <path transform="matrix(0.51945,0,0,-0.51945,137.699,296.404)" stroke-width="0.8" stroke-linecap="butt" stroke-linejoin="round" fill="none" stroke="currentColor" d="m 426.09468,47.52 v -3.5" id="path306"/>
      <g id="use308" transform="matrix(5.71395,0,0,-5.71395,352.9344,279.69816)" style="fill:currentColor" color="rgb(209, 209, 209)">
        <path transform="matrix(0.001,0,0,0.001,0,0)" d="m 406,393 c 47,-10 84,-31 110,-63 26,-32 40,-72 40,-118 C 556,140 531,84 482,45 432,6 362,-13 271,-13 c -31,0 -63,3 -95,9 -32,5 -66,14 -100,26 v 95 c 27,-16 57,-28 90,-36 32,-8 66,-12 102,-12 62,0 109,12 141,36 32,24 49,60 49,107 0,42 -15,76 -45,100 -30,24 -72,37 -126,37 h -85 v 81 h 89 c 48,0 85,9 111,29 26,19 39,47 39,84 0,37 -14,66 -40,86 -27,20 -65,30 -114,30 -27,0 -56,-3 -87,-9 -31,-6 -65,-15 -102,-27 v 88 c 37,10 72,18 105,23 32,5 63,8 93,8 74,0 133,-17 177,-51 44,-34 66,-80 66,-138 0,-40 -12,-74 -35,-102 -23,-28 -56,-48 -98,-58 z" id="path5666" style="fill:currentColor"/>
      </g>
      <g id="use310" transform="matrix(5.71395,0,0,-5.71395,356.56846,279.69816)" style="fill:currentColor" color="rgb(209, 209, 209)">
        <path transform="matrix(0.001,0,0,0.001,0,0)" d="M 192,83 H 536 V 0 H 73 v 83 c 37,38 88,90 153,156 64,65 105,107 122,126 32,35 54,65 66,90 12,24 19,49 19,73 0,38 -14,70 -41,94 -27,24 -62,37 -106,37 -31,0 -64,-6 -98,-16 -34,-11 -71,-27 -110,-49 v 100 c 40,16 77,28 111,36 34,8 66,12 95,12 75,0 135,-19 180,-57 45,-38 68,-88 68,-151 0,-30 -6,-59 -17,-85 -11,-27 -31,-59 -61,-95 -8,-10 -34,-37 -78,-82 C 332,227 271,164 192,83 Z" id="path5738" style="fill:currentColor"/>
      </g>
      <g id="use312" transform="matrix(5.71395,0,0,-5.71395,360.20256,279.69816)" style="fill:currentColor" color="rgb(209, 209, 209)">
        <path transform="matrix(0.001,0,0,0.001,0,0)" d="M 98,729 H 245 L 431,233 618,729 H 765 V 0 H 669 V 640 L 481,140 H 382 L 194,640 V 0 H 98 Z" id="path5630" style="fill:currentColor"/>
      </g>
      <path transform="matrix(0.51945,0,0,-0.51945,137.699,296.404)" d="m 479.80589,47.52 v -3.5" id="path314"/>
      <path transform="matrix(0.51945,0,0,-0.51945,137.699,296.404)" stroke-width="0.8" stroke-linecap="butt" stroke-linejoin="round" fill="none" stroke="currentColor" d="m 479.80589,47.52 v -3.5" id="path316"/>
      <g id="use318" transform="matrix(5.71395,0,0,-5.71395,379.0166,279.69816)" style="fill:currentColor" color="rgb(209, 209, 209)">
        <path transform="matrix(0.001,0,0,0.001,0,0)" d="M 124,83 H 285 V 639 L 110,604 v 90 l 174,35 h 99 V 83 H 544 V 0 H 124 Z" id="path5650" style="fill:currentColor"/>
      </g>
      <g id="use320" transform="matrix(5.71395,0,0,-5.71395,382.65068,279.69816)" style="fill:currentColor" color="rgb(209, 209, 209)">
        <path transform="matrix(0.001,0,0,0.001,0,0)" d="M 192,83 H 536 V 0 H 73 v 83 c 37,38 88,90 153,156 64,65 105,107 122,126 32,35 54,65 66,90 12,24 19,49 19,73 0,38 -14,70 -41,94 -27,24 -62,37 -106,37 -31,0 -64,-6 -98,-16 -34,-11 -71,-27 -110,-49 v 100 c 40,16 77,28 111,36 34,8 66,12 95,12 75,0 135,-19 180,-57 45,-38 68,-88 68,-151 0,-30 -6,-59 -17,-85 -11,-27 -31,-59 -61,-95 -8,-10 -34,-37 -78,-82 C 332,227 271,164 192,83 Z" id="path5742" style="fill:currentColor"/>
      </g>
      <g id="use322" transform="matrix(5.71395,0,0,-5.71395,386.28477,279.69816)" style="fill:currentColor" color="rgb(209, 209, 209)">
        <path transform="matrix(0.001,0,0,0.001,0,0)" d="m 318,346 c -47,0 -84,-13 -111,-38 -27,-25 -40,-59 -40,-103 0,-44 13,-79 40,-104 27,-25 64,-37 111,-37 46,0 83,12 110,38 27,25 41,59 41,103 0,44 -14,78 -40,103 -27,25 -64,38 -111,38 z m -99,42 c -42,10 -75,30 -99,59 -24,29 -35,64 -35,106 0,58 20,104 62,138 41,34 98,51 171,51 72,0 129,-17 171,-51 41,-34 62,-80 62,-138 0,-42 -12,-77 -36,-106 -24,-29 -56,-49 -98,-59 47,-11 84,-33 111,-65 26,-32 40,-72 40,-118 C 568,134 546,80 503,43 459,5 397,-13 317,-13 237,-13 175,5 132,43 89,80 68,134 68,205 c 0,46 13,86 40,118 26,32 63,54 111,65 z m -36,156 c 0,-38 11,-68 35,-89 24,-21 57,-31 100,-31 42,0 75,10 99,31 24,21 36,51 36,89 0,38 -12,67 -36,88 -24,21 -57,32 -99,32 -43,0 -76,-11 -100,-32 -24,-21 -35,-50 -35,-88 z" id="path5686" style="fill:currentColor"/>
      </g>
      <g id="use324" transform="matrix(5.71395,0,0,-5.71395,389.91883,279.69816)" style="fill:currentColor" color="rgb(209, 209, 209)">
        <path transform="matrix(0.001,0,0,0.001,0,0)" d="M 98,729 H 245 L 431,233 618,729 H 765 V 0 H 669 V 640 L 481,140 H 382 L 194,640 V 0 H 98 Z" id="path5634" style="fill:currentColor"/>
      </g>
      <path transform="matrix(0.51945,0,0,-0.51945,137.699,296.404)" d="m 560.37277,47.52 v -3.5" id="path326"/>
      <path transform="matrix(0.51945,0,0,-0.51945,137.699,296.404)" stroke-width="0.8" stroke-linecap="butt" stroke-linejoin="round" fill="none" stroke="currentColor" d="m 560.37277,47.52 v -3.5" id="path328"/>
      <g id="use330" transform="matrix(5.71395,0,0,-5.71395,425.00645,279.69816)" style="fill:currentColor" color="rgb(209, 209, 209)">
        <path transform="matrix(0.001,0,0,0.001,0,0)" d="M 124,83 H 285 V 639 L 110,604 v 90 l 174,35 h 99 V 83 H 544 V 0 H 124 Z" id="path5654" style="fill:currentColor"/>
      </g>
      <g id="use332" transform="matrix(5.71395,0,0,-5.71395,428.6405,279.69816)" style="fill:currentColor" color="rgb(209, 209, 209)">
        <path transform="matrix(0.001,0,0,0.001,0,0)" d="M 197,348 V 81 h 158 c 53,0 92,11 118,33 25,22 38,55 38,101 0,45 -13,78 -38,100 -26,22 -65,33 -118,33 z m 0,300 V 428 h 146 c 48,0 83,9 107,27 24,18 36,45 36,83 0,36 -12,64 -36,82 -24,18 -59,28 -107,28 z m -99,81 h 252 c 75,0 133,-16 174,-47 40,-32 61,-76 61,-133 0,-45 -11,-81 -32,-107 -21,-26 -51,-43 -91,-49 48,-11 86,-33 113,-66 26,-33 40,-74 40,-123 C 615,138 592,88 548,53 504,17 441,0 360,0 H 98 Z" id="path5618" style="fill:currentColor"/>
      </g>
      <g id="use334" transform="matrix(7.79175,0,0,-7.79175,276.30207,288.8778)" style="fill:currentColor" color="rgb(209, 209, 209)">
        <path transform="matrix(0.001,0,0,0.001,0,0)" d="m 535,705 v -96 c -38,18 -73,31 -106,40 -34,8 -66,13 -96,13 -54,0 -96,-11 -125,-31 -29,-21 -43,-51 -43,-89 0,-32 9,-57 29,-73 19,-17 56,-30 110,-40 l 60,-12 c 73,-14 127,-39 162,-74 35,-36 53,-83 53,-142 C 579,130 555,77 508,41 460,5 391,-13 300,-13 265,-13 228,-9 189,-2 150,5 110,16 69,32 v 102 c 40,-23 79,-40 117,-51 38,-12 76,-17 114,-17 56,0 99,11 130,33 30,22 46,53 46,95 0,36 -11,64 -33,84 -22,20 -58,35 -108,45 l -60,12 c -74,14 -127,37 -160,69 -33,31 -49,74 -49,130 0,64 22,115 68,152 45,37 108,56 188,56 34,0 68,-3 104,-9 35,-6 71,-16 109,-28 z" id="path5614" style="fill:currentColor"/>
      </g>
      <g id="use336" transform="matrix(7.79175,0,0,-7.79175,281.24983,288.8778)" style="fill:currentColor" color="rgb(209, 209, 209)">
        <path transform="matrix(0.001,0,0,0.001,0,0)" d="M 562,296 V 252 H 149 c 4,-62 22,-110 56,-142 33,-32 79,-48 139,-48 34,0 68,4 100,12 32,8 65,21 97,39 V 28 C 509,14 476,3 442,-3 408,-9 373,-13 339,-13 251,-13 182,12 131,62 80,112 55,181 55,268 c 0,89 24,160 72,213 48,52 114,79 196,79 74,0 132,-24 175,-71 42,-48 64,-112 64,-193 z m -90,26 c -1,49 -15,88 -41,118 -27,29 -63,44 -107,44 -50,0 -90,-15 -120,-43 -30,-28 -48,-68 -52,-119 z" id="path5574" style="fill:currentColor"/>
      </g>
      <g id="use338" transform="matrix(7.79175,0,0,-7.79175,286.04176,288.8778)" style="fill:currentColor" color="rgb(209, 209, 209)">
        <path transform="matrix(0.001,0,0,0.001,0,0)" d="m 148,273 c 0,-66 13,-118 40,-156 27,-38 64,-56 112,-56 48,0 85,18 113,56 27,38 41,90 41,156 0,66 -14,117 -41,155 -28,38 -65,57 -113,57 -48,0 -85,-19 -112,-57 -27,-38 -40,-89 -40,-155 z M 454,82 C 435,49 411,25 382,10 353,-5 319,-13 279,-13 213,-13 159,13 117,65 75,117 55,187 55,273 c 0,86 20,155 62,208 42,52 96,79 162,79 40,0 74,-8 103,-24 29,-16 53,-40 72,-72 v 83 h 90 v -754 h -90 z" id="path5570" style="fill:currentColor"/>
      </g>
      <g id="use340" transform="matrix(7.79175,0,0,-7.79175,290.9895,288.8778)" style="fill:currentColor" color="rgb(209, 209, 209)">
        <path transform="matrix(0.001,0,0,0.001,0,0)" d="m 85,216 v 331 h 90 V 219 c 0,-52 10,-90 30,-116 20,-26 50,-39 91,-39 48,0 87,15 115,46 28,31 42,73 42,127 v 310 h 90 V 0 H 453 V 84 C 431,50 405,26 377,10 348,-5 315,-13 277,-13 214,-13 166,6 134,45 101,83 85,140 85,216 Z m 226,344 z" id="path5562" style="fill:currentColor"/>
      </g>
      <g id="use342" transform="matrix(7.79175,0,0,-7.79175,295.92948,288.8778)" style="fill:currentColor" color="rgb(209, 209, 209)">
        <path transform="matrix(0.001,0,0,0.001,0,0)" d="M 562,296 V 252 H 149 c 4,-62 22,-110 56,-142 33,-32 79,-48 139,-48 34,0 68,4 100,12 32,8 65,21 97,39 V 28 C 509,14 476,3 442,-3 408,-9 373,-13 339,-13 251,-13 182,12 131,62 80,112 55,181 55,268 c 0,89 24,160 72,213 48,52 114,79 196,79 74,0 132,-24 175,-71 42,-48 64,-112 64,-193 z m -90,26 c -1,49 -15,88 -41,118 -27,29 -63,44 -107,44 -50,0 -90,-15 -120,-43 -30,-28 -48,-68 -52,-119 z" id="path5578" style="fill:currentColor"/>
      </g>
      <g id="use344" transform="matrix(7.79175,0,0,-7.79175,300.7214,288.8778)" style="fill:currentColor" color="rgb(209, 209, 209)">
        <path transform="matrix(0.001,0,0,0.001,0,0)" d="M 549,330 V 0 h -90 v 327 c 0,52 -11,90 -31,116 -20,26 -50,39 -90,39 -49,0 -87,-16 -115,-47 -28,-31 -42,-73 -42,-126 V 0 H 91 v 547 h 90 v -85 c 21,32 46,57 76,73 29,16 63,25 101,25 62,0 110,-20 142,-59 32,-39 49,-96 49,-171 z" id="path5514" style="fill:currentColor"/>
      </g>
      <g id="use346" transform="matrix(7.79175,0,0,-7.79175,305.66139,288.8778)" style="fill:currentColor" color="rgb(209, 209, 209)">
        <path transform="matrix(0.001,0,0,0.001,0,0)" d="m 488,526 v -84 c -26,14 -51,24 -77,31 -26,7 -51,11 -77,11 -58,0 -104,-19 -136,-56 -32,-37 -48,-89 -48,-155 0,-67 16,-119 48,-156 32,-37 78,-55 136,-55 26,0 51,3 77,10 26,7 51,18 77,32 V 21 C 462,9 436,0 410,-5 c -27,-5 -56,-8 -86,-8 -82,0 -148,25 -196,77 -49,51 -73,121 -73,209 0,89 24,159 73,210 49,51 116,77 202,77 28,0 55,-3 81,-9 26,-6 52,-14 77,-25 z" id="path5510" style="fill:currentColor"/>
      </g>
      <g id="use348" transform="matrix(7.79175,0,0,-7.79175,309.94685,288.8778)" style="fill:currentColor" color="rgb(209, 209, 209)">
        <path transform="matrix(0.001,0,0,0.001,0,0)" d="M 562,296 V 252 H 149 c 4,-62 22,-110 56,-142 33,-32 79,-48 139,-48 34,0 68,4 100,12 32,8 65,21 97,39 V 28 C 509,14 476,3 442,-3 408,-9 373,-13 339,-13 251,-13 182,12 131,62 80,112 55,181 55,268 c 0,89 24,160 72,213 48,52 114,79 196,79 74,0 132,-24 175,-71 42,-48 64,-112 64,-193 z m -90,26 c -1,49 -15,88 -41,118 -27,29 -63,44 -107,44 -50,0 -90,-15 -120,-43 -30,-28 -48,-68 -52,-119 z" id="path5582" style="fill:currentColor"/>
      </g>
      <g id="use350" transform="matrix(7.79175,0,0,-7.79175,314.73878,288.8778)" color="rgb(209, 209, 209)"/>
      <g id="use352" transform="matrix(7.79175,0,0,-7.79175,317.21656,288.8778)" style="fill:currentColor" color="rgb(209, 209, 209)">
        <path transform="matrix(0.001,0,0,0.001,0,0)" d="m 98,729 h 99 V 83 H 552 V 0 H 98 Z" id="path5490" style="fill:currentColor"/>
      </g>
      <g id="use354" transform="matrix(7.79175,0,0,-7.79175,321.4267,288.8778)" style="fill:currentColor" color="rgb(209, 209, 209)">
        <path transform="matrix(0.001,0,0,0.001,0,0)" d="M 562,296 V 252 H 149 c 4,-62 22,-110 56,-142 33,-32 79,-48 139,-48 34,0 68,4 100,12 32,8 65,21 97,39 V 28 C 509,14 476,3 442,-3 408,-9 373,-13 339,-13 251,-13 182,12 131,62 80,112 55,181 55,268 c 0,89 24,160 72,213 48,52 114,79 196,79 74,0 132,-24 175,-71 42,-48 64,-112 64,-193 z m -90,26 c -1,49 -15,88 -41,118 -27,29 -63,44 -107,44 -50,0 -90,-15 -120,-43 -30,-28 -48,-68 -52,-119 z" id="path5586" style="fill:currentColor"/>
      </g>
      <g id="use356" transform="matrix(7.79175,0,0,-7.79175,326.21864,288.8778)" style="fill:currentColor" color="rgb(209, 209, 209)">
        <path transform="matrix(0.001,0,0,0.001,0,0)" d="M 549,330 V 0 h -90 v 327 c 0,52 -11,90 -31,116 -20,26 -50,39 -90,39 -49,0 -87,-16 -115,-47 -28,-31 -42,-73 -42,-126 V 0 H 91 v 547 h 90 v -85 c 21,32 46,57 76,73 29,16 63,25 101,25 62,0 110,-20 142,-59 32,-39 49,-96 49,-171 z" id="path5518" style="fill:currentColor"/>
      </g>
      <g id="use358" transform="matrix(7.79175,0,0,-7.79175,331.15858,288.8778)" style="fill:currentColor" color="rgb(209, 209, 209)">
        <path transform="matrix(0.001,0,0,0.001,0,0)" d="m 454,280 c 0,64 -14,115 -40,151 -27,36 -65,54 -113,54 -48,0 -86,-18 -113,-54 -27,-36 -40,-87 -40,-151 0,-65 13,-115 40,-151 27,-36 65,-54 113,-54 48,0 86,18 113,54 26,36 40,86 40,151 z M 544,68 c 0,-92 -21,-161 -62,-207 -42,-45 -105,-68 -190,-68 -32,0 -61,3 -89,7 -28,5 -56,12 -82,22 v 87 c 26,-14 52,-24 78,-31 26,-7 52,-11 79,-11 58,0 102,16 132,46 29,31 44,77 44,139 V 96 C 435,64 411,40 382,24 353,8 319,0 279,0 211,0 157,25 116,76 75,127 55,195 55,280 c 0,84 20,152 61,203 41,51 95,77 163,77 40,0 74,-8 103,-24 29,-16 53,-40 72,-72 v 83 h 90 z" id="path5486" style="fill:currentColor"/>
      </g>
      <g id="use360" transform="matrix(7.79175,0,0,-7.79175,336.10636,288.8778)" style="fill:currentColor" color="rgb(209, 209, 209)">
        <path transform="matrix(0.001,0,0,0.001,0,0)" d="M 183,702 V 547 H 368 V 477 H 183 V 180 c 0,-45 6,-74 18,-86 12,-13 37,-19 75,-19 h 92 V 0 H 276 C 206,0 158,13 132,39 106,65 93,112 93,180 V 477 H 27 v 70 h 66 v 155 z" id="path5426" style="fill:currentColor"/>
      </g>
      <g id="use362" transform="matrix(7.79175,0,0,-7.79175,339.1607,288.8778)" style="fill:currentColor" color="rgb(209, 209, 209)">
        <path transform="matrix(0.001,0,0,0.001,0,0)" d="M 549,330 V 0 h -90 v 327 c 0,52 -11,90 -31,116 -20,26 -50,39 -90,39 -49,0 -87,-16 -115,-47 -28,-31 -42,-73 -42,-126 V 0 H 91 v 760 h 90 V 462 c 21,32 46,57 76,73 29,16 63,25 101,25 62,0 110,-20 142,-59 32,-39 49,-96 49,-171 z" id="path5414" style="fill:currentColor"/>
      </g>
      <path transform="matrix(0.51945,0,0,-0.51945,137.699,296.404)" d="M 81,102.25922 H 77.5" id="path364"/>
      <path transform="matrix(0.51945,0,0,-0.51945,137.699,296.404)" stroke-width="0.8" stroke-linecap="butt" stroke-linejoin="round" fill="none" stroke="currentColor" d="M 81,102.25922 H 77.5" id="path366"/>
      <g id="use368" transform="matrix(5.71395,0,0,-5.71395,161.5937,245.45658)" style="fill:currentColor" color="rgb(209, 209, 209)">
        <path transform="matrix(0.001,0,0,0.001,0,0)" d="M 124,83 H 285 V 639 L 110,604 v 90 l 174,35 h 99 V 83 H 544 V 0 H 124 Z" id="path5658" style="fill:currentColor"/>
      </g>
      <g id="use370" transform="matrix(5.71395,0,0,-5.71395,165.22779,245.45658)" style="fill:currentColor" color="rgb(209, 209, 209)">
        <path transform="matrix(0.001,0,0,0.001,0,0)" d="m 318,664 c -51,0 -89,-25 -115,-75 -26,-50 -38,-125 -38,-225 0,-100 12,-175 38,-225 26,-50 64,-75 115,-75 51,0 89,25 115,75 25,50 38,125 38,225 0,100 -13,175 -38,225 -26,50 -64,75 -115,75 z m 0,78 c 81,0 143,-33 187,-97 43,-65 65,-159 65,-281 C 570,241 548,147 505,83 461,19 399,-13 317,-13 235,-13 173,19 130,83 87,147 66,241 66,364 c 0,122 21,216 64,281 43,64 106,97 188,97 z" id="path5354" style="fill:currentColor"/>
      </g>
      <g id="use372" transform="matrix(5.71395,0,0,-5.71395,168.86185,245.45658)" style="fill:currentColor" color="rgb(209, 209, 209)">
        <path transform="matrix(0.001,0,0,0.001,0,0)" d="m 318,664 c -51,0 -89,-25 -115,-75 -26,-50 -38,-125 -38,-225 0,-100 12,-175 38,-225 26,-50 64,-75 115,-75 51,0 89,25 115,75 25,50 38,125 38,225 0,100 -13,175 -38,225 -26,50 -64,75 -115,75 z m 0,78 c 81,0 143,-33 187,-97 43,-65 65,-159 65,-281 C 570,241 548,147 505,83 461,19 399,-13 317,-13 235,-13 173,19 130,83 87,147 66,241 66,364 c 0,122 21,216 64,281 43,64 106,97 188,97 z" id="path5358" style="fill:currentColor"/>
      </g>
      <g id="use374" transform="matrix(5.71395,0,0,-5.71395,172.49593,245.45658)" style="fill:currentColor" color="rgb(209, 209, 209)">
        <path transform="matrix(0.001,0,0,0.001,0,0)" d="m 318,664 c -51,0 -89,-25 -115,-75 -26,-50 -38,-125 -38,-225 0,-100 12,-175 38,-225 26,-50 64,-75 115,-75 51,0 89,25 115,75 25,50 38,125 38,225 0,100 -13,175 -38,225 -26,50 -64,75 -115,75 z m 0,78 c 81,0 143,-33 187,-97 43,-65 65,-159 65,-281 C 570,241 548,147 505,83 461,19 399,-13 317,-13 235,-13 173,19 130,83 87,147 66,241 66,364 c 0,122 21,216 64,281 43,64 106,97 188,97 z" id="path5362" style="fill:currentColor"/>
      </g>
      <path transform="matrix(0.51945,0,0,-0.51945,137.699,296.404)" d="M 81,157.9331 H 77.5" id="path376"/>
      <path transform="matrix(0.51945,0,0,-0.51945,137.699,296.404)" stroke-width="0.8" stroke-linecap="butt" stroke-linejoin="round" fill="none" stroke="currentColor" d="M 81,157.9331 H 77.5" id="path378"/>
      <g id="use380" transform="matrix(5.71395,0,0,-5.71395,161.5937,216.53678)" style="fill:currentColor" color="rgb(209, 209, 209)">
        <path transform="matrix(0.001,0,0,0.001,0,0)" d="M 192,83 H 536 V 0 H 73 v 83 c 37,38 88,90 153,156 64,65 105,107 122,126 32,35 54,65 66,90 12,24 19,49 19,73 0,38 -14,70 -41,94 -27,24 -62,37 -106,37 -31,0 -64,-6 -98,-16 -34,-11 -71,-27 -110,-49 v 100 c 40,16 77,28 111,36 34,8 66,12 95,12 75,0 135,-19 180,-57 45,-38 68,-88 68,-151 0,-30 -6,-59 -17,-85 -11,-27 -31,-59 -61,-95 -8,-10 -34,-37 -78,-82 C 332,227 271,164 192,83 Z" id="path5746" style="fill:currentColor"/>
      </g>
      <g id="use382" transform="matrix(5.71395,0,0,-5.71395,165.22779,216.53678)" style="fill:currentColor" color="rgb(209, 209, 209)">
        <path transform="matrix(0.001,0,0,0.001,0,0)" d="m 318,664 c -51,0 -89,-25 -115,-75 -26,-50 -38,-125 -38,-225 0,-100 12,-175 38,-225 26,-50 64,-75 115,-75 51,0 89,25 115,75 25,50 38,125 38,225 0,100 -13,175 -38,225 -26,50 -64,75 -115,75 z m 0,78 c 81,0 143,-33 187,-97 43,-65 65,-159 65,-281 C 570,241 548,147 505,83 461,19 399,-13 317,-13 235,-13 173,19 130,83 87,147 66,241 66,364 c 0,122 21,216 64,281 43,64 106,97 188,97 z" id="path5366" style="fill:currentColor"/>
      </g>
      <g id="use384" transform="matrix(5.71395,0,0,-5.71395,168.86185,216.53678)" style="fill:currentColor" color="rgb(209, 209, 209)">
        <path transform="matrix(0.001,0,0,0.001,0,0)" d="m 318,664 c -51,0 -89,-25 -115,-75 -26,-50 -38,-125 -38,-225 0,-100 12,-175 38,-225 26,-50 64,-75 115,-75 51,0 89,25 115,75 25,50 38,125 38,225 0,100 -13,175 -38,225 -26,50 -64,75 -115,75 z m 0,78 c 81,0 143,-33 187,-97 43,-65 65,-159 65,-281 C 570,241 548,147 505,83 461,19 399,-13 317,-13 235,-13 173,19 130,83 87,147 66,241 66,364 c 0,122 21,216 64,281 43,64 106,97 188,97 z" id="path5370" style="fill:currentColor"/>
      </g>
      <g id="use386" transform="matrix(5.71395,0,0,-5.71395,172.49593,216.53678)" style="fill:currentColor" color="rgb(209, 209, 209)">
        <path transform="matrix(0.001,0,0,0.001,0,0)" d="m 318,664 c -51,0 -89,-25 -115,-75 -26,-50 -38,-125 -38,-225 0,-100 12,-175 38,-225 26,-50 64,-75 115,-75 51,0 89,25 115,75 25,50 38,125 38,225 0,100 -13,175 -38,225 -26,50 -64,75 -115,75 z m 0,78 c 81,0 143,-33 187,-97 43,-65 65,-159 65,-281 C 570,241 548,147 505,83 461,19 399,-13 317,-13 235,-13 173,19 130,83 87,147 66,241 66,364 c 0,122 21,216 64,281 43,64 106,97 188,97 z" id="path5374" style="fill:currentColor"/>
      </g>
      <path transform="matrix(0.51945,0,0,-0.51945,137.699,296.404)" d="M 81,213.60701 H 77.5" id="path388"/>
      <path transform="matrix(0.51945,0,0,-0.51945,137.699,296.404)" stroke-width="0.8" stroke-linecap="butt" stroke-linejoin="round" fill="none" stroke="currentColor" d="M 81,213.60701 H 77.5" id="path390"/>
      <g id="use392" transform="matrix(5.71395,0,0,-5.71395,161.5937,187.61698)" style="fill:currentColor" color="rgb(209, 209, 209)">
        <path transform="matrix(0.001,0,0,0.001,0,0)" d="m 406,393 c 47,-10 84,-31 110,-63 26,-32 40,-72 40,-118 C 556,140 531,84 482,45 432,6 362,-13 271,-13 c -31,0 -63,3 -95,9 -32,5 -66,14 -100,26 v 95 c 27,-16 57,-28 90,-36 32,-8 66,-12 102,-12 62,0 109,12 141,36 32,24 49,60 49,107 0,42 -15,76 -45,100 -30,24 -72,37 -126,37 h -85 v 81 h 89 c 48,0 85,9 111,29 26,19 39,47 39,84 0,37 -14,66 -40,86 -27,20 -65,30 -114,30 -27,0 -56,-3 -87,-9 -31,-6 -65,-15 -102,-27 v 88 c 37,10 72,18 105,23 32,5 63,8 93,8 74,0 133,-17 177,-51 44,-34 66,-80 66,-138 0,-40 -12,-74 -35,-102 -23,-28 -56,-48 -98,-58 z" id="path5670" style="fill:currentColor"/>
      </g>
      <g id="use394" transform="matrix(5.71395,0,0,-5.71395,165.22779,187.61698)" style="fill:currentColor" color="rgb(209, 209, 209)">
        <path transform="matrix(0.001,0,0,0.001,0,0)" d="m 318,664 c -51,0 -89,-25 -115,-75 -26,-50 -38,-125 -38,-225 0,-100 12,-175 38,-225 26,-50 64,-75 115,-75 51,0 89,25 115,75 25,50 38,125 38,225 0,100 -13,175 -38,225 -26,50 -64,75 -115,75 z m 0,78 c 81,0 143,-33 187,-97 43,-65 65,-159 65,-281 C 570,241 548,147 505,83 461,19 399,-13 317,-13 235,-13 173,19 130,83 87,147 66,241 66,364 c 0,122 21,216 64,281 43,64 106,97 188,97 z" id="path5378" style="fill:currentColor"/>
      </g>
      <g id="use396" transform="matrix(5.71395,0,0,-5.71395,168.86185,187.61698)" style="fill:currentColor" color="rgb(209, 209, 209)">
        <path transform="matrix(0.001,0,0,0.001,0,0)" d="m 318,664 c -51,0 -89,-25 -115,-75 -26,-50 -38,-125 -38,-225 0,-100 12,-175 38,-225 26,-50 64,-75 115,-75 51,0 89,25 115,75 25,50 38,125 38,225 0,100 -13,175 -38,225 -26,50 -64,75 -115,75 z m 0,78 c 81,0 143,-33 187,-97 43,-65 65,-159 65,-281 C 570,241 548,147 505,83 461,19 399,-13 317,-13 235,-13 173,19 130,83 87,147 66,241 66,364 c 0,122 21,216 64,281 43,64 106,97 188,97 z" id="path5382" style="fill:currentColor"/>
      </g>
      <g id="use398" transform="matrix(5.71395,0,0,-5.71395,172.49593,187.61698)" style="fill:currentColor" color="rgb(209, 209, 209)">
        <path transform="matrix(0.001,0,0,0.001,0,0)" d="m 318,664 c -51,0 -89,-25 -115,-75 -26,-50 -38,-125 -38,-225 0,-100 12,-175 38,-225 26,-50 64,-75 115,-75 51,0 89,25 115,75 25,50 38,125 38,225 0,100 -13,175 -38,225 -26,50 -64,75 -115,75 z m 0,78 c 81,0 143,-33 187,-97 43,-65 65,-159 65,-281 C 570,241 548,147 505,83 461,19 399,-13 317,-13 235,-13 173,19 130,83 87,147 66,241 66,364 c 0,122 21,216 64,281 43,64 106,97 188,97 z" id="path5386" style="fill:currentColor"/>
      </g>
      <path transform="matrix(0.51945,0,0,-0.51945,137.699,296.404)" d="M 81,269.2809 H 77.5" id="path400"/>
      <path transform="matrix(0.51945,0,0,-0.51945,137.699,296.404)" stroke-width="0.8" stroke-linecap="butt" stroke-linejoin="round" fill="none" stroke="currentColor" d="M 81,269.2809 H 77.5" id="path402"/>
      <g id="use404" transform="matrix(5.71395,0,0,-5.71395,161.5937,158.69716)" style="fill:currentColor" color="rgb(209, 209, 209)">
        <path transform="matrix(0.001,0,0,0.001,0,0)" d="M 378,643 129,254 h 249 z m -26,86 H 476 V 254 H 580 V 172 H 476 V 0 H 378 V 172 H 49 v 95 z" id="path5762" style="fill:currentColor"/>
      </g>
      <g id="use406" transform="matrix(5.71395,0,0,-5.71395,165.22779,158.69716)" style="fill:currentColor" color="rgb(209, 209, 209)">
        <path transform="matrix(0.001,0,0,0.001,0,0)" d="m 318,664 c -51,0 -89,-25 -115,-75 -26,-50 -38,-125 -38,-225 0,-100 12,-175 38,-225 26,-50 64,-75 115,-75 51,0 89,25 115,75 25,50 38,125 38,225 0,100 -13,175 -38,225 -26,50 -64,75 -115,75 z m 0,78 c 81,0 143,-33 187,-97 43,-65 65,-159 65,-281 C 570,241 548,147 505,83 461,19 399,-13 317,-13 235,-13 173,19 130,83 87,147 66,241 66,364 c 0,122 21,216 64,281 43,64 106,97 188,97 z" id="path5390" style="fill:currentColor"/>
      </g>
      <g id="use408" transform="matrix(5.71395,0,0,-5.71395,168.86185,158.69716)" style="fill:currentColor" color="rgb(209, 209, 209)">
        <path transform="matrix(0.001,0,0,0.001,0,0)" d="m 318,664 c -51,0 -89,-25 -115,-75 -26,-50 -38,-125 -38,-225 0,-100 12,-175 38,-225 26,-50 64,-75 115,-75 51,0 89,25 115,75 25,50 38,125 38,225 0,100 -13,175 -38,225 -26,50 -64,75 -115,75 z m 0,78 c 81,0 143,-33 187,-97 43,-65 65,-159 65,-281 C 570,241 548,147 505,83 461,19 399,-13 317,-13 235,-13 173,19 130,83 87,147 66,241 66,364 c 0,122 21,216 64,281 43,64 106,97 188,97 z" id="path5394" style="fill:currentColor"/>
      </g>
      <g id="use410" transform="matrix(5.71395,0,0,-5.71395,172.49593,158.69716)" style="fill:currentColor" color="rgb(209, 209, 209)">
        <path transform="matrix(0.001,0,0,0.001,0,0)" d="m 318,664 c -51,0 -89,-25 -115,-75 -26,-50 -38,-125 -38,-225 0,-100 12,-175 38,-225 26,-50 64,-75 115,-75 51,0 89,25 115,75 25,50 38,125 38,225 0,100 -13,175 -38,225 -26,50 -64,75 -115,75 z m 0,78 c 81,0 143,-33 187,-97 43,-65 65,-159 65,-281 C 570,241 548,147 505,83 461,19 399,-13 317,-13 235,-13 173,19 130,83 87,147 66,241 66,364 c 0,122 21,216 64,281 43,64 106,97 188,97 z" id="path5398" style="fill:currentColor"/>
      </g>
      <path transform="matrix(0.51945,0,0,-0.51945,137.699,296.404)" d="M 81,324.9548 H 77.5" id="path412"/>
      <path transform="matrix(0.51945,0,0,-0.51945,137.699,296.404)" stroke-width="0.8" stroke-linecap="butt" stroke-linejoin="round" fill="none" stroke="currentColor" d="M 81,324.9548 H 77.5" id="path414"/>
      <g id="use416" transform="matrix(5.71395,0,0,-5.71395,161.5937,129.77736)" style="fill:currentColor" color="rgb(209, 209, 209)">
        <path transform="matrix(0.001,0,0,0.001,0,0)" d="M 108,729 H 495 V 646 H 198 V 467 c 14,5 29,9 43,11 14,2 29,4 43,4 81,0 145,-23 193,-67 48,-45 72,-105 72,-181 C 549,155 524,94 475,51 426,8 357,-13 269,-13 c -31,0 -62,3 -94,7 -32,5 -64,12 -98,23 v 99 c 29,-16 59,-28 91,-36 31,-8 64,-11 99,-11 56,0 101,14 134,44 32,30 49,70 49,121 0,50 -17,90 -49,120 -33,30 -78,45 -134,45 -26,0 -53,-3 -79,-9 -26,-6 -53,-15 -80,-27 z" id="path5754" style="fill:currentColor"/>
      </g>
      <g id="use418" transform="matrix(5.71395,0,0,-5.71395,165.22779,129.77736)" style="fill:currentColor" color="rgb(209, 209, 209)">
        <path transform="matrix(0.001,0,0,0.001,0,0)" d="m 318,664 c -51,0 -89,-25 -115,-75 -26,-50 -38,-125 -38,-225 0,-100 12,-175 38,-225 26,-50 64,-75 115,-75 51,0 89,25 115,75 25,50 38,125 38,225 0,100 -13,175 -38,225 -26,50 -64,75 -115,75 z m 0,78 c 81,0 143,-33 187,-97 43,-65 65,-159 65,-281 C 570,241 548,147 505,83 461,19 399,-13 317,-13 235,-13 173,19 130,83 87,147 66,241 66,364 c 0,122 21,216 64,281 43,64 106,97 188,97 z" id="path5402" style="fill:currentColor"/>
      </g>
      <g id="use420" transform="matrix(5.71395,0,0,-5.71395,168.86185,129.77736)" style="fill:currentColor" color="rgb(209, 209, 209)">
        <path transform="matrix(0.001,0,0,0.001,0,0)" d="m 318,664 c -51,0 -89,-25 -115,-75 -26,-50 -38,-125 -38,-225 0,-100 12,-175 38,-225 26,-50 64,-75 115,-75 51,0 89,25 115,75 25,50 38,125 38,225 0,100 -13,175 -38,225 -26,50 -64,75 -115,75 z m 0,78 c 81,0 143,-33 187,-97 43,-65 65,-159 65,-281 C 570,241 548,147 505,83 461,19 399,-13 317,-13 235,-13 173,19 130,83 87,147 66,241 66,364 c 0,122 21,216 64,281 43,64 106,97 188,97 z" id="path5406" style="fill:currentColor"/>
      </g>
      <g id="use422" transform="matrix(5.71395,0,0,-5.71395,172.49593,129.77736)" style="fill:currentColor" color="rgb(209, 209, 209)">
        <path transform="matrix(0.001,0,0,0.001,0,0)" d="m 318,664 c -51,0 -89,-25 -115,-75 -26,-50 -38,-125 -38,-225 0,-100 12,-175 38,-225 26,-50 64,-75 115,-75 51,0 89,25 115,75 25,50 38,125 38,225 0,100 -13,175 -38,225 -26,50 -64,75 -115,75 z m 0,78 c 81,0 143,-33 187,-97 43,-65 65,-159 65,-281 C 570,241 548,147 505,83 461,19 399,-13 317,-13 235,-13 173,19 130,83 87,147 66,241 66,364 c 0,122 21,216 64,281 43,64 106,97 188,97 z" id="path5410" style="fill:currentColor"/>
      </g>
      <g id="use424" transform="matrix(0,-7.79175,-7.79175,0,157.89263,211.71936)" style="fill:currentColor" color="rgb(209, 209, 209)">
        <path transform="matrix(0.001,0,0,0.001,0,0)" d="m 444,342 c 21,-8 42,-23 62,-46 20,-24 40,-56 60,-97 L 666,0 H 560 l -93,187 c -24,48 -48,81 -70,97 -23,16 -54,24 -93,24 H 197 V 0 H 98 v 729 h 223 c 83,0 145,-18 186,-52 41,-35 62,-88 62,-158 0,-46 -11,-85 -32,-115 -22,-30 -53,-51 -93,-62 z M 197,648 V 389 h 124 c 47,0 83,11 107,33 24,22 37,54 37,97 0,42 -13,74 -37,96 -24,22 -60,33 -107,33 z" id="path5350" style="fill:currentColor"/>
      </g>
      <g id="use426" transform="matrix(0,-7.79175,-7.79175,0,157.89263,206.6531)" style="fill:currentColor" color="rgb(209, 209, 209)">
        <path transform="matrix(0.001,0,0,0.001,0,0)" d="m 85,216 v 331 h 90 V 219 c 0,-52 10,-90 30,-116 20,-26 50,-39 91,-39 48,0 87,15 115,46 28,31 42,73 42,127 v 310 h 90 V 0 H 453 V 84 C 431,50 405,26 377,10 348,-5 315,-13 277,-13 214,-13 166,6 134,45 101,83 85,140 85,216 Z m 226,344 z" id="path5566" style="fill:currentColor"/>
      </g>
      <g id="use428" transform="matrix(0,-7.79175,-7.79175,0,157.89263,201.71314)" style="fill:currentColor" color="rgb(209, 209, 209)">
        <path transform="matrix(0.001,0,0,0.001,0,0)" d="M 549,330 V 0 h -90 v 327 c 0,52 -11,90 -31,116 -20,26 -50,39 -90,39 -49,0 -87,-16 -115,-47 -28,-31 -42,-73 -42,-126 V 0 H 91 v 547 h 90 v -85 c 21,32 46,57 76,73 29,16 63,25 101,25 62,0 110,-20 142,-59 32,-39 49,-96 49,-171 z" id="path5522" style="fill:currentColor"/>
      </g>
      <g id="use430" transform="matrix(0,-7.79175,-7.79175,0,157.89263,196.77317)" style="fill:currentColor" color="rgb(209, 209, 209)">
        <path transform="matrix(0.001,0,0,0.001,0,0)" d="M 183,702 V 547 H 368 V 477 H 183 V 180 c 0,-45 6,-74 18,-86 12,-13 37,-19 75,-19 h 92 V 0 H 276 C 206,0 158,13 132,39 106,65 93,112 93,180 V 477 H 27 v 70 h 66 v 155 z" id="path5430" style="fill:currentColor"/>
      </g>
      <g id="use432" transform="matrix(0,-7.79175,-7.79175,0,157.89263,193.7188)" style="fill:currentColor" color="rgb(209, 209, 209)">
        <path transform="matrix(0.001,0,0,0.001,0,0)" d="m 94,547 h 90 V 0 H 94 Z m 0,213 h 90 V 646 H 94 Z" id="path5322" style="fill:currentColor"/>
      </g>
      <g id="use434" transform="matrix(0,-7.79175,-7.79175,0,157.89263,191.55269)" style="fill:currentColor" color="rgb(209, 209, 209)">
        <path transform="matrix(0.001,0,0,0.001,0,0)" d="m 520,442 c 22,40 49,69 80,89 31,19 68,29 111,29 56,0 100,-20 131,-60 31,-40 47,-97 47,-170 V 0 h -90 v 327 c 0,52 -10,91 -28,117 -19,25 -47,38 -85,38 -47,0 -84,-16 -111,-47 -27,-31 -40,-73 -40,-126 V 0 h -90 v 327 c 0,52 -10,91 -28,117 -19,25 -48,38 -86,38 -46,0 -83,-16 -110,-47 -27,-31 -40,-73 -40,-126 V 0 H 91 v 547 h 90 v -85 c 20,33 45,58 74,74 28,16 62,24 102,24 40,0 73,-10 101,-30 28,-20 48,-50 62,-88 z" id="path5314" style="fill:currentColor"/>
      </g>
      <g id="use436" transform="matrix(0,-7.79175,-7.79175,0,157.89263,183.96352)" style="fill:currentColor" color="rgb(209, 209, 209)">
        <path transform="matrix(0.001,0,0,0.001,0,0)" d="M 562,296 V 252 H 149 c 4,-62 22,-110 56,-142 33,-32 79,-48 139,-48 34,0 68,4 100,12 32,8 65,21 97,39 V 28 C 509,14 476,3 442,-3 408,-9 373,-13 339,-13 251,-13 182,12 131,62 80,112 55,181 55,268 c 0,89 24,160 72,213 48,52 114,79 196,79 74,0 132,-24 175,-71 42,-48 64,-112 64,-193 z m -90,26 c -1,49 -15,88 -41,118 -27,29 -63,44 -107,44 -50,0 -90,-15 -120,-43 -30,-28 -48,-68 -52,-119 z" id="path5590" style="fill:currentColor"/>
      </g>
      <g id="use438" transform="matrix(0,-7.79175,-7.79175,0,157.89263,179.1716)" color="rgb(209, 209, 209)"/>
      <g id="use440" transform="matrix(0,-7.79175,-7.79175,0,157.89263,176.69382)" style="fill:currentColor" color="rgb(209, 209, 209)">
        <path transform="matrix(0.001,0,0,0.001,0,0)" d="M 310,759 C 266,683 234,609 213,536 191,463 181,389 181,314 181,238 191,164 213,91 234,17 266,-56 310,-131 H 232 C 183,-54 146,20 122,94 98,168 86,241 86,314 c 0,72 12,145 36,219 24,74 60,149 110,226 z" id="path5310" style="fill:currentColor"/>
      </g>
      <g id="use442" transform="matrix(0,-7.79175,-7.79175,0,157.89263,173.65503)" style="fill:currentColor" color="rgb(209, 209, 209)">
        <path transform="matrix(0.001,0,0,0.001,0,0)" d="m 520,442 c 22,40 49,69 80,89 31,19 68,29 111,29 56,0 100,-20 131,-60 31,-40 47,-97 47,-170 V 0 h -90 v 327 c 0,52 -10,91 -28,117 -19,25 -47,38 -85,38 -47,0 -84,-16 -111,-47 -27,-31 -40,-73 -40,-126 V 0 h -90 v 327 c 0,52 -10,91 -28,117 -19,25 -48,38 -86,38 -46,0 -83,-16 -110,-47 -27,-31 -40,-73 -40,-126 V 0 H 91 v 547 h 90 v -85 c 20,33 45,58 74,74 28,16 62,24 102,24 40,0 73,-10 101,-30 28,-20 48,-50 62,-88 z" id="path5318" style="fill:currentColor"/>
      </g>
      <g id="use444" transform="matrix(0,-7.79175,-7.79175,0,157.89263,166.06587)" style="fill:currentColor" color="rgb(209, 209, 209)">
        <path transform="matrix(0.001,0,0,0.001,0,0)" d="m 443,531 v -85 c -26,12 -52,22 -79,29 -28,6 -56,10 -85,10 -45,0 -79,-7 -101,-21 -22,-14 -33,-34 -33,-61 0,-21 8,-37 24,-49 16,-12 48,-24 96,-34 l 31,-7 c 64,-14 109,-34 136,-58 26,-25 40,-60 40,-104 0,-51 -20,-91 -60,-120 -40,-30 -96,-44 -166,-44 -30,0 -60,3 -92,8 C 122,0 89,8 54,20 v 93 c 33,-18 66,-31 98,-39 32,-9 64,-13 96,-13 42,0 75,7 98,21 22,14 34,35 34,62 0,24 -9,43 -25,56 -16,13 -52,26 -108,38 l -31,7 c -56,12 -97,30 -121,54 -25,24 -37,57 -37,100 0,51 18,91 54,119 36,28 88,42 156,42 33,0 64,-3 94,-8 29,-5 56,-12 81,-21 z" id="path5298" style="fill:currentColor"/>
      </g>
      <g id="use446" transform="matrix(0,-7.79175,-7.79175,0,157.89263,162.00637)" style="fill:currentColor" color="rgb(209, 209, 209)">
        <path transform="matrix(0.001,0,0,0.001,0,0)" d="m 80,759 h 78 C 206,682 243,607 267,533 291,459 304,386 304,314 304,241 291,168 267,94 243,20 206,-54 158,-131 H 80 c 43,75 75,148 97,222 21,73 32,147 32,223 0,75 -11,149 -32,222 -22,73 -54,147 -97,223 z" id="path5294" style="fill:currentColor"/>
      </g>
      <g clip-path="url(#clip_3)" id="g450" color="rgb(209, 209, 209)">
        <path transform="matrix(0.51945,0,0,-0.51945,137.699,296.404)" stroke-width="5" stroke-linecap="square" stroke-linejoin="round" fill="none" stroke="#1f77b4" d="m 103.82727,63.122694 26.85562,1.232625 26.85561,-1.019952 26.85562,1.302773 26.85562,-1.99814 53.71124,3.8081 53.71121,-0.232162 53.71124,-0.928088 53.71125,5.290698 53.71121,1.892349 80.56688,0.263901" id="path448"/>
      </g>
      <g clip-path="url(#clip_4)" id="g454" color="rgb(209, 209, 209)">
        <path transform="matrix(0.51945,0,0,-0.51945,137.699,296.404)" stroke-width="5" stroke-linecap="square" stroke-linejoin="round" fill="none" stroke="#ff7f0e" d="m 103.82727,66.73815 26.85562,19.74698 26.85561,39.71386 26.85562,80.72714 26.85562,158.11387" id="path452"/>
      </g>
      <path transform="matrix(0.51945,0,0,-0.51945,137.699,296.404)" stroke-width="0.8" stroke-linecap="square" stroke-miterlimit="10" stroke-linejoin="miter" fill="none" stroke="currentColor" d="M 81,47.52 V 380.16" id="path456"/>
      <path transform="matrix(0.51945,0,0,-0.51945,137.699,296.404)" stroke-width="0.8" stroke-linecap="square" stroke-miterlimit="10" stroke-linejoin="miter" fill="none" stroke="currentColor" d="M 583.2,47.52 V 380.16" id="path458"/>
      <path transform="matrix(0.51945,0,0,-0.51945,137.699,296.404)" stroke-width="0.8" stroke-linecap="square" stroke-miterlimit="10" stroke-linejoin="miter" fill="none" stroke="currentColor" d="M 81,47.52 H 583.2" id="path460"/>
      <path transform="matrix(0.51945,0,0,-0.51945,137.699,296.404)" stroke-width="0.8" stroke-linecap="square" stroke-miterlimit="10" stroke-linejoin="miter" fill="none" stroke="currentColor" d="M 81,380.16 H 583.2" id="path462"/>
      <g id="g468" style="fill:none;stroke:currentColor" color="rgb(209, 209, 209)">
        <path transform="matrix(0.51945,0,0,-0.51945,137.699,296.404)" d="M 240.8,320.39125 H 572 c 2.13339,0 3.2,1.06668 3.2,3.20001 V 368.96 c 0,2.13333 -1.06661,3.2 -3.2,3.2 H 240.8 c -2.13333,0 -3.2,-1.06667 -3.2,-3.2 v -45.36874 c 0,-2.13333 1.06667,-3.20001 3.2,-3.20001 z" fill="#ffffff" fill-opacity="0.8" id="path464" style="fill:none;stroke:currentColor"/>
        <path transform="matrix(0.51945,0,0,-0.51945,137.699,296.404)" stroke-width="1" stroke-linecap="butt" stroke-miterlimit="10" stroke-linejoin="miter" fill="none" stroke="#d5d6d5" stroke-opacity="0.8" d="M 240.8,320.39125 H 572 c 2.13339,0 3.2,1.06668 3.2,3.20001 V 368.96 c 0,2.13333 -1.06661,3.2 -3.2,3.2 H 240.8 c -2.13333,0 -3.2,-1.06667 -3.2,-3.2 v -45.36874 c 0,-2.13333 1.06667,-3.20001 3.2,-3.20001 z" id="path466" style="fill:none;stroke:currentColor"/>
      </g>
      <path transform="matrix(0.51945,0,0,-0.51945,137.699,296.404)" stroke-width="5" stroke-linecap="square" stroke-linejoin="round" fill="none" stroke="#1f77b4" d="m 244,359.20375 h 16 16" id="path470"/>
      <g id="use472" transform="matrix(8.3112,0,0,-8.3112,287.71617,112.72452)" style="fill:currentColor" color="rgb(209, 209, 209)">
        <path transform="matrix(0.001,0,0,0.001,0,0)" d="M 197,648 V 81 h 119 c 100,0 174,22 221,68 46,46 70,118 70,216 0,98 -24,169 -70,215 -47,45 -121,68 -221,68 z m -99,81 h 203 c 141,0 245,-30 311,-88 66,-59 99,-151 99,-276 C 711,239 677,147 611,88 545,29 441,0 301,0 H 98 Z" id="path5290" style="fill:currentColor"/>
      </g>
      <g id="use474" transform="matrix(8.3112,0,0,-8.3112,294.11579,112.72452)" style="fill:currentColor" color="rgb(209, 209, 209)">
        <path transform="matrix(0.001,0,0,0.001,0,0)" d="m 94,547 h 90 V 0 H 94 Z m 0,213 h 90 V 646 H 94 Z" id="path5326" style="fill:currentColor"/>
      </g>
      <g id="use476" transform="matrix(8.3112,0,0,-8.3112,296.4263,112.72452)" style="fill:currentColor" color="rgb(209, 209, 209)">
        <path transform="matrix(0.001,0,0,0.001,0,0)" d="m 94,760 h 90 V 0 H 94 Z" id="path5270" style="fill:currentColor"/>
      </g>
      <g id="use478" transform="matrix(8.3112,0,0,-8.3112,298.73683,112.72452)" style="fill:currentColor" color="rgb(209, 209, 209)">
        <path transform="matrix(0.001,0,0,0.001,0,0)" d="m 343,275 c -73,0 -123,-9 -151,-25 -28,-17 -42,-45 -42,-85 0,-32 10,-58 31,-76 21,-19 50,-28 86,-28 50,0 90,17 120,53 30,35 45,82 45,141 v 20 z m 179,37 V 0 H 432 V 83 C 411,49 385,25 355,10 325,-5 287,-13 243,-13 187,-13 142,2 109,33 76,64 60,106 60,159 c 0,61 20,107 62,139 41,31 102,47 184,47 h 126 v 9 c 0,41 -14,73 -41,96 -27,22 -65,34 -114,34 -32,0 -62,-4 -92,-12 -30,-8 -58,-19 -85,-33 v 83 c 32,12 64,22 95,28 31,6 61,10 91,10 79,0 138,-21 177,-62 39,-41 59,-103 59,-186 z" id="path5242" style="fill:currentColor"/>
      </g>
      <g id="use480" transform="matrix(8.3112,0,0,-8.3112,303.83158,112.72452)" style="fill:currentColor" color="rgb(209, 209, 209)">
        <path transform="matrix(0.001,0,0,0.001,0,0)" d="M 183,702 V 547 H 368 V 477 H 183 V 180 c 0,-45 6,-74 18,-86 12,-13 37,-19 75,-19 h 92 V 0 H 276 C 206,0 158,13 132,39 106,65 93,112 93,180 V 477 H 27 v 70 h 66 v 155 z" id="path5434" style="fill:currentColor"/>
      </g>
      <g id="use482" transform="matrix(8.3112,0,0,-8.3112,307.08958,112.72452)" style="fill:currentColor" color="rgb(209, 209, 209)">
        <path transform="matrix(0.001,0,0,0.001,0,0)" d="M 562,296 V 252 H 149 c 4,-62 22,-110 56,-142 33,-32 79,-48 139,-48 34,0 68,4 100,12 32,8 65,21 97,39 V 28 C 509,14 476,3 442,-3 408,-9 373,-13 339,-13 251,-13 182,12 131,62 80,112 55,181 55,268 c 0,89 24,160 72,213 48,52 114,79 196,79 74,0 132,-24 175,-71 42,-48 64,-112 64,-193 z m -90,26 c -1,49 -15,88 -41,118 -27,29 -63,44 -107,44 -50,0 -90,-15 -120,-43 -30,-28 -48,-68 -52,-119 z" id="path5594" style="fill:currentColor"/>
      </g>
      <g id="use484" transform="matrix(8.3112,0,0,-8.3112,312.20097,112.72452)" style="fill:currentColor" color="rgb(209, 209, 209)">
        <path transform="matrix(0.001,0,0,0.001,0,0)" d="m 454,464 v 296 h 90 V 0 H 454 V 82 C 435,49 411,25 382,10 353,-5 319,-13 279,-13 213,-13 159,13 117,65 75,117 55,187 55,273 c 0,86 20,155 62,208 42,52 96,79 162,79 40,0 74,-8 103,-24 29,-16 53,-40 72,-72 z M 148,273 c 0,-66 13,-118 40,-156 27,-38 64,-56 112,-56 48,0 85,18 113,56 27,38 41,90 41,156 0,66 -14,117 -41,155 -28,38 -65,57 -113,57 -48,0 -85,-19 -112,-57 -27,-38 -40,-89 -40,-155 z" id="path5238" style="fill:currentColor"/>
      </g>
      <g id="use486" transform="matrix(8.3112,0,0,-8.3112,317.47859,112.72452)" color="rgb(209, 209, 209)"/>
      <g id="use488" transform="matrix(8.3112,0,0,-8.3112,320.12153,112.72452)" style="fill:currentColor" color="rgb(209, 209, 209)">
        <path transform="matrix(0.001,0,0,0.001,0,0)" d="m 343,275 c -73,0 -123,-9 -151,-25 -28,-17 -42,-45 -42,-85 0,-32 10,-58 31,-76 21,-19 50,-28 86,-28 50,0 90,17 120,53 30,35 45,82 45,141 v 20 z m 179,37 V 0 H 432 V 83 C 411,49 385,25 355,10 325,-5 287,-13 243,-13 187,-13 142,2 109,33 76,64 60,106 60,159 c 0,61 20,107 62,139 41,31 102,47 184,47 h 126 v 9 c 0,41 -14,73 -41,96 -27,22 -65,34 -114,34 -32,0 -62,-4 -92,-12 -30,-8 -58,-19 -85,-33 v 83 c 32,12 64,22 95,28 31,6 61,10 91,10 79,0 138,-21 177,-62 39,-41 59,-103 59,-186 z" id="path5246" style="fill:currentColor"/>
      </g>
      <g id="use490" transform="matrix(8.3112,0,0,-8.3112,325.2163,112.72452)" style="fill:currentColor" color="rgb(209, 209, 209)">
        <path transform="matrix(0.001,0,0,0.001,0,0)" d="M 183,702 V 547 H 368 V 477 H 183 V 180 c 0,-45 6,-74 18,-86 12,-13 37,-19 75,-19 h 92 V 0 H 276 C 206,0 158,13 132,39 106,65 93,112 93,180 V 477 H 27 v 70 h 66 v 155 z" id="path5438" style="fill:currentColor"/>
      </g>
      <g id="use492" transform="matrix(8.3112,0,0,-8.3112,328.47428,112.72452)" style="fill:currentColor" color="rgb(209, 209, 209)">
        <path transform="matrix(0.001,0,0,0.001,0,0)" d="M 183,702 V 547 H 368 V 477 H 183 V 180 c 0,-45 6,-74 18,-86 12,-13 37,-19 75,-19 h 92 V 0 H 276 C 206,0 158,13 132,39 106,65 93,112 93,180 V 477 H 27 v 70 h 66 v 155 z" id="path5442" style="fill:currentColor"/>
      </g>
      <g id="use494" transform="matrix(8.3112,0,0,-8.3112,331.73228,112.72452)" style="fill:currentColor" color="rgb(209, 209, 209)">
        <path transform="matrix(0.001,0,0,0.001,0,0)" d="M 562,296 V 252 H 149 c 4,-62 22,-110 56,-142 33,-32 79,-48 139,-48 34,0 68,4 100,12 32,8 65,21 97,39 V 28 C 509,14 476,3 442,-3 408,-9 373,-13 339,-13 251,-13 182,12 131,62 80,112 55,181 55,268 c 0,89 24,160 72,213 48,52 114,79 196,79 74,0 132,-24 175,-71 42,-48 64,-112 64,-193 z m -90,26 c -1,49 -15,88 -41,118 -27,29 -63,44 -107,44 -50,0 -90,-15 -120,-43 -30,-28 -48,-68 -52,-119 z" id="path5598" style="fill:currentColor"/>
      </g>
      <g id="use496" transform="matrix(8.3112,0,0,-8.3112,336.84367,112.72452)" style="fill:currentColor" color="rgb(209, 209, 209)">
        <path transform="matrix(0.001,0,0,0.001,0,0)" d="M 549,330 V 0 h -90 v 327 c 0,52 -11,90 -31,116 -20,26 -50,39 -90,39 -49,0 -87,-16 -115,-47 -28,-31 -42,-73 -42,-126 V 0 H 91 v 547 h 90 v -85 c 21,32 46,57 76,73 29,16 63,25 101,25 62,0 110,-20 142,-59 32,-39 49,-96 49,-171 z" id="path5526" style="fill:currentColor"/>
      </g>
      <g id="use498" transform="matrix(8.3112,0,0,-8.3112,342.11299,112.72452)" style="fill:currentColor" color="rgb(209, 209, 209)">
        <path transform="matrix(0.001,0,0,0.001,0,0)" d="M 183,702 V 547 H 368 V 477 H 183 V 180 c 0,-45 6,-74 18,-86 12,-13 37,-19 75,-19 h 92 V 0 H 276 C 206,0 158,13 132,39 106,65 93,112 93,180 V 477 H 27 v 70 h 66 v 155 z" id="path5446" style="fill:currentColor"/>
      </g>
      <g id="use500" transform="matrix(8.3112,0,0,-8.3112,345.37095,112.72452)" style="fill:currentColor" color="rgb(209, 209, 209)">
        <path transform="matrix(0.001,0,0,0.001,0,0)" d="m 94,547 h 90 V 0 H 94 Z m 0,213 h 90 V 646 H 94 Z" id="path5330" style="fill:currentColor"/>
      </g>
      <g id="use502" transform="matrix(8.3112,0,0,-8.3112,347.68147,112.72452)" style="fill:currentColor" color="rgb(209, 209, 209)">
        <path transform="matrix(0.001,0,0,0.001,0,0)" d="m 306,484 c -48,0 -86,-19 -114,-57 -28,-38 -42,-89 -42,-154 0,-66 13,-117 41,-155 28,-38 66,-56 115,-56 48,0 86,18 114,56 28,38 42,89 42,155 0,64 -14,116 -42,154 -28,38 -66,57 -114,57 z m 0,76 c 78,0 139,-26 184,-76 44,-51 67,-121 67,-211 C 557,183 534,113 490,63 445,12 384,-13 306,-13 227,-13 165,12 121,63 77,113 55,183 55,273 c 0,90 22,160 66,211 44,50 106,76 185,76 z" id="path5222" style="fill:currentColor"/>
      </g>
      <g id="use504" transform="matrix(8.3112,0,0,-8.3112,352.7679,112.72452)" style="fill:currentColor" color="rgb(209, 209, 209)">
        <path transform="matrix(0.001,0,0,0.001,0,0)" d="M 549,330 V 0 h -90 v 327 c 0,52 -11,90 -31,116 -20,26 -50,39 -90,39 -49,0 -87,-16 -115,-47 -28,-31 -42,-73 -42,-126 V 0 H 91 v 547 h 90 v -85 c 21,32 46,57 76,73 29,16 63,25 101,25 62,0 110,-20 142,-59 32,-39 49,-96 49,-171 z" id="path5530" style="fill:currentColor"/>
      </g>
      <g id="use506" transform="matrix(8.3112,0,0,-8.3112,358.03724,112.72452)" color="rgb(209, 209, 209)"/>
      <g id="use508" transform="matrix(8.3112,0,0,-8.3112,360.68019,112.72452)" style="fill:currentColor" color="rgb(209, 209, 209)">
        <path transform="matrix(0.001,0,0,0.001,0,0)" d="m 42,547 h 90 L 244,120 356,547 H 462 L 574,120 686,547 h 90 L 633,0 H 527 L 409,448 291,0 H 185 Z" id="path5214" style="fill:currentColor"/>
      </g>
      <g id="use510" transform="matrix(8.3112,0,0,-8.3112,367.47877,112.72452)" style="fill:currentColor" color="rgb(209, 209, 209)">
        <path transform="matrix(0.001,0,0,0.001,0,0)" d="m 254,729 h 83 L 83,-92 H 0 Z" id="path5206" style="fill:currentColor"/>
      </g>
      <g id="use512" transform="matrix(8.3112,0,0,-8.3112,370.2796,112.72452)" color="rgb(209, 209, 209)"/>
      <g id="use514" transform="matrix(8.3112,0,0,-8.3112,372.92259,112.72452)" style="fill:currentColor" color="rgb(209, 209, 209)">
        <path transform="matrix(0.001,0,0,0.001,0,0)" d="M 98,729 H 517 V 646 H 197 V 431 H 486 V 348 H 197 V 0 H 98 Z" id="path5198" style="fill:currentColor"/>
      </g>
      <g id="use516" transform="matrix(8.3112,0,0,-8.3112,377.7015,112.72452)" style="fill:currentColor" color="rgb(209, 209, 209)">
        <path transform="matrix(0.001,0,0,0.001,0,0)" d="m 94,760 h 90 V 0 H 94 Z" id="path5274" style="fill:currentColor"/>
      </g>
      <g id="use518" transform="matrix(8.3112,0,0,-8.3112,380.01203,112.72452)" style="fill:currentColor" color="rgb(209, 209, 209)">
        <path transform="matrix(0.001,0,0,0.001,0,0)" d="m 343,275 c -73,0 -123,-9 -151,-25 -28,-17 -42,-45 -42,-85 0,-32 10,-58 31,-76 21,-19 50,-28 86,-28 50,0 90,17 120,53 30,35 45,82 45,141 v 20 z m 179,37 V 0 H 432 V 83 C 411,49 385,25 355,10 325,-5 287,-13 243,-13 187,-13 142,2 109,33 76,64 60,106 60,159 c 0,61 20,107 62,139 41,31 102,47 184,47 h 126 v 9 c 0,41 -14,73 -41,96 -27,22 -65,34 -114,34 -32,0 -62,-4 -92,-12 -30,-8 -58,-19 -85,-33 v 83 c 32,12 64,22 95,28 31,6 61,10 91,10 79,0 138,-21 177,-62 39,-41 59,-103 59,-186 z" id="path5250" style="fill:currentColor"/>
      </g>
      <g id="use520" transform="matrix(8.3112,0,0,-8.3112,385.1068,112.72452)" style="fill:currentColor" color="rgb(209, 209, 209)">
        <path transform="matrix(0.001,0,0,0.001,0,0)" d="m 443,531 v -85 c -26,12 -52,22 -79,29 -28,6 -56,10 -85,10 -45,0 -79,-7 -101,-21 -22,-14 -33,-34 -33,-61 0,-21 8,-37 24,-49 16,-12 48,-24 96,-34 l 31,-7 c 64,-14 109,-34 136,-58 26,-25 40,-60 40,-104 0,-51 -20,-91 -60,-120 -40,-30 -96,-44 -166,-44 -30,0 -60,3 -92,8 C 122,0 89,8 54,20 v 93 c 33,-18 66,-31 98,-39 32,-9 64,-13 96,-13 42,0 75,7 98,21 22,14 34,35 34,62 0,24 -9,43 -25,56 -16,13 -52,26 -108,38 l -31,7 c -56,12 -97,30 -121,54 -25,24 -37,57 -37,100 0,51 18,91 54,119 36,28 88,42 156,42 33,0 64,-3 94,-8 29,-5 56,-12 81,-21 z" id="path5302" style="fill:currentColor"/>
      </g>
      <g id="use522" transform="matrix(8.3112,0,0,-8.3112,389.43693,112.72452)" style="fill:currentColor" color="rgb(209, 209, 209)">
        <path transform="matrix(0.001,0,0,0.001,0,0)" d="M 549,330 V 0 h -90 v 327 c 0,52 -11,90 -31,116 -20,26 -50,39 -90,39 -49,0 -87,-16 -115,-47 -28,-31 -42,-73 -42,-126 V 0 H 91 v 760 h 90 V 462 c 21,32 46,57 76,73 29,16 63,25 101,25 62,0 110,-20 142,-59 32,-39 49,-96 49,-171 z" id="path5418" style="fill:currentColor"/>
      </g>
      <g id="use524" transform="matrix(8.3112,0,0,-8.3112,394.70625,112.72452)" style="fill:currentColor" color="rgb(209, 209, 209)">
        <path transform="matrix(0.001,0,0,0.001,0,0)" d="M 342,632 208,269 h 268 z m -56,97 H 398 L 676,0 H 573 L 507,187 H 178 L 112,0 H 8 Z" id="path5190" style="fill:currentColor"/>
      </g>
      <g id="use526" transform="matrix(8.3112,0,0,-8.3112,400.245,112.72452)" style="fill:currentColor" color="rgb(209, 209, 209)">
        <path transform="matrix(0.001,0,0,0.001,0,0)" d="M 183,702 V 547 H 368 V 477 H 183 V 180 c 0,-45 6,-74 18,-86 12,-13 37,-19 75,-19 h 92 V 0 H 276 C 206,0 158,13 132,39 106,65 93,112 93,180 V 477 H 27 v 70 h 66 v 155 z" id="path5450" style="fill:currentColor"/>
      </g>
      <g id="use528" transform="matrix(8.3112,0,0,-8.3112,403.503,112.72452)" style="fill:currentColor" color="rgb(209, 209, 209)">
        <path transform="matrix(0.001,0,0,0.001,0,0)" d="M 183,702 V 547 H 368 V 477 H 183 V 180 c 0,-45 6,-74 18,-86 12,-13 37,-19 75,-19 h 92 V 0 H 276 C 206,0 158,13 132,39 106,65 93,112 93,180 V 477 H 27 v 70 h 66 v 155 z" id="path5454" style="fill:currentColor"/>
      </g>
      <g id="use530" transform="matrix(8.3112,0,0,-8.3112,406.761,112.72452)" style="fill:currentColor" color="rgb(209, 209, 209)">
        <path transform="matrix(0.001,0,0,0.001,0,0)" d="M 562,296 V 252 H 149 c 4,-62 22,-110 56,-142 33,-32 79,-48 139,-48 34,0 68,4 100,12 32,8 65,21 97,39 V 28 C 509,14 476,3 442,-3 408,-9 373,-13 339,-13 251,-13 182,12 131,62 80,112 55,181 55,268 c 0,89 24,160 72,213 48,52 114,79 196,79 74,0 132,-24 175,-71 42,-48 64,-112 64,-193 z m -90,26 c -1,49 -15,88 -41,118 -27,29 -63,44 -107,44 -50,0 -90,-15 -120,-43 -30,-28 -48,-68 -52,-119 z" id="path5602" style="fill:currentColor"/>
      </g>
      <g id="use532" transform="matrix(8.3112,0,0,-8.3112,411.87239,112.72452)" style="fill:currentColor" color="rgb(209, 209, 209)">
        <path transform="matrix(0.001,0,0,0.001,0,0)" d="M 549,330 V 0 h -90 v 327 c 0,52 -11,90 -31,116 -20,26 -50,39 -90,39 -49,0 -87,-16 -115,-47 -28,-31 -42,-73 -42,-126 V 0 H 91 v 547 h 90 v -85 c 21,32 46,57 76,73 29,16 63,25 101,25 62,0 110,-20 142,-59 32,-39 49,-96 49,-171 z" id="path5534" style="fill:currentColor"/>
      </g>
      <g id="use534" transform="matrix(8.3112,0,0,-8.3112,417.14167,112.72452)" style="fill:currentColor" color="rgb(209, 209, 209)">
        <path transform="matrix(0.001,0,0,0.001,0,0)" d="M 183,702 V 547 H 368 V 477 H 183 V 180 c 0,-45 6,-74 18,-86 12,-13 37,-19 75,-19 h 92 V 0 H 276 C 206,0 158,13 132,39 106,65 93,112 93,180 V 477 H 27 v 70 h 66 v 155 z" id="path5458" style="fill:currentColor"/>
      </g>
      <g id="use536" transform="matrix(8.3112,0,0,-8.3112,420.39967,112.72452)" style="fill:currentColor" color="rgb(209, 209, 209)">
        <path transform="matrix(0.001,0,0,0.001,0,0)" d="m 94,547 h 90 V 0 H 94 Z m 0,213 h 90 V 646 H 94 Z" id="path5334" style="fill:currentColor"/>
      </g>
      <g id="use538" transform="matrix(8.3112,0,0,-8.3112,422.71018,112.72452)" style="fill:currentColor" color="rgb(209, 209, 209)">
        <path transform="matrix(0.001,0,0,0.001,0,0)" d="m 306,484 c -48,0 -86,-19 -114,-57 -28,-38 -42,-89 -42,-154 0,-66 13,-117 41,-155 28,-38 66,-56 115,-56 48,0 86,18 114,56 28,38 42,89 42,155 0,64 -14,116 -42,154 -28,38 -66,57 -114,57 z m 0,76 c 78,0 139,-26 184,-76 44,-51 67,-121 67,-211 C 557,183 534,113 490,63 445,12 384,-13 306,-13 227,-13 165,12 121,63 77,113 55,183 55,273 c 0,90 22,160 66,211 44,50 106,76 185,76 z" id="path5226" style="fill:currentColor"/>
      </g>
      <g id="use540" transform="matrix(8.3112,0,0,-8.3112,427.79664,112.72452)" style="fill:currentColor" color="rgb(209, 209, 209)">
        <path transform="matrix(0.001,0,0,0.001,0,0)" d="M 549,330 V 0 h -90 v 327 c 0,52 -11,90 -31,116 -20,26 -50,39 -90,39 -49,0 -87,-16 -115,-47 -28,-31 -42,-73 -42,-126 V 0 H 91 v 547 h 90 v -85 c 21,32 46,57 76,73 29,16 63,25 101,25 62,0 110,-20 142,-59 32,-39 49,-96 49,-171 z" id="path5538" style="fill:currentColor"/>
      </g>
      <path transform="matrix(0.51945,0,0,-0.51945,137.699,296.404)" stroke-width="5" stroke-linecap="square" stroke-linejoin="round" fill="none" stroke="#ff7f0e" d="m 244,335.71937 h 16 16" id="path542"/>
      <g id="use544" transform="matrix(8.3112,0,0,-8.3112,287.71617,124.92348)" style="fill:currentColor" color="rgb(209, 209, 209)">
        <path transform="matrix(0.001,0,0,0.001,0,0)" d="M 286,0 8,729 H 111 L 342,115 573,729 H 676 L 398,0 Z" id="path5186" style="fill:currentColor"/>
      </g>
      <g id="use546" transform="matrix(8.3112,0,0,-8.3112,292.75984,124.92348)" style="fill:currentColor" color="rgb(209, 209, 209)">
        <path transform="matrix(0.001,0,0,0.001,0,0)" d="m 343,275 c -73,0 -123,-9 -151,-25 -28,-17 -42,-45 -42,-85 0,-32 10,-58 31,-76 21,-19 50,-28 86,-28 50,0 90,17 120,53 30,35 45,82 45,141 v 20 z m 179,37 V 0 H 432 V 83 C 411,49 385,25 355,10 325,-5 287,-13 243,-13 187,-13 142,2 109,33 76,64 60,106 60,159 c 0,61 20,107 62,139 41,31 102,47 184,47 h 126 v 9 c 0,41 -14,73 -41,96 -27,22 -65,34 -114,34 -32,0 -62,-4 -92,-12 -30,-8 -58,-19 -85,-33 v 83 c 32,12 64,22 95,28 31,6 61,10 91,10 79,0 138,-21 177,-62 39,-41 59,-103 59,-186 z" id="path5254" style="fill:currentColor"/>
      </g>
      <g id="use548" transform="matrix(8.3112,0,0,-8.3112,297.85459,124.92348)" style="fill:currentColor" color="rgb(209, 209, 209)">
        <path transform="matrix(0.001,0,0,0.001,0,0)" d="M 549,330 V 0 h -90 v 327 c 0,52 -11,90 -31,116 -20,26 -50,39 -90,39 -49,0 -87,-16 -115,-47 -28,-31 -42,-73 -42,-126 V 0 H 91 v 547 h 90 v -85 c 21,32 46,57 76,73 29,16 63,25 101,25 62,0 110,-20 142,-59 32,-39 49,-96 49,-171 z" id="path5542" style="fill:currentColor"/>
      </g>
      <g id="use550" transform="matrix(8.3112,0,0,-8.3112,303.1239,124.92348)" style="fill:currentColor" color="rgb(209, 209, 209)">
        <path transform="matrix(0.001,0,0,0.001,0,0)" d="m 94,547 h 90 V 0 H 94 Z m 0,213 h 90 V 646 H 94 Z" id="path5338" style="fill:currentColor"/>
      </g>
      <g id="use552" transform="matrix(8.3112,0,0,-8.3112,305.4344,124.92348)" style="fill:currentColor" color="rgb(209, 209, 209)">
        <path transform="matrix(0.001,0,0,0.001,0,0)" d="m 94,760 h 90 V 0 H 94 Z" id="path5278" style="fill:currentColor"/>
      </g>
      <g id="use554" transform="matrix(8.3112,0,0,-8.3112,307.7449,124.92348)" style="fill:currentColor" color="rgb(209, 209, 209)">
        <path transform="matrix(0.001,0,0,0.001,0,0)" d="m 94,760 h 90 V 0 H 94 Z" id="path5282" style="fill:currentColor"/>
      </g>
      <g id="use556" transform="matrix(8.3112,0,0,-8.3112,310.05543,124.92348)" style="fill:currentColor" color="rgb(209, 209, 209)">
        <path transform="matrix(0.001,0,0,0.001,0,0)" d="m 343,275 c -73,0 -123,-9 -151,-25 -28,-17 -42,-45 -42,-85 0,-32 10,-58 31,-76 21,-19 50,-28 86,-28 50,0 90,17 120,53 30,35 45,82 45,141 v 20 z m 179,37 V 0 H 432 V 83 C 411,49 385,25 355,10 325,-5 287,-13 243,-13 187,-13 142,2 109,33 76,64 60,106 60,159 c 0,61 20,107 62,139 41,31 102,47 184,47 h 126 v 9 c 0,41 -14,73 -41,96 -27,22 -65,34 -114,34 -32,0 -62,-4 -92,-12 -30,-8 -58,-19 -85,-33 v 83 c 32,12 64,22 95,28 31,6 61,10 91,10 79,0 138,-21 177,-62 39,-41 59,-103 59,-186 z" id="path5258" style="fill:currentColor"/>
      </g>
      <g id="use558" transform="matrix(8.3112,0,0,-8.3112,315.1502,124.92348)" color="rgb(209, 209, 209)"/>
      <g id="use560" transform="matrix(8.3112,0,0,-8.3112,317.79316,124.92348)" style="fill:currentColor" color="rgb(209, 209, 209)">
        <path transform="matrix(0.001,0,0,0.001,0,0)" d="m 343,275 c -73,0 -123,-9 -151,-25 -28,-17 -42,-45 -42,-85 0,-32 10,-58 31,-76 21,-19 50,-28 86,-28 50,0 90,17 120,53 30,35 45,82 45,141 v 20 z m 179,37 V 0 H 432 V 83 C 411,49 385,25 355,10 325,-5 287,-13 243,-13 187,-13 142,2 109,33 76,64 60,106 60,159 c 0,61 20,107 62,139 41,31 102,47 184,47 h 126 v 9 c 0,41 -14,73 -41,96 -27,22 -65,34 -114,34 -32,0 -62,-4 -92,-12 -30,-8 -58,-19 -85,-33 v 83 c 32,12 64,22 95,28 31,6 61,10 91,10 79,0 138,-21 177,-62 39,-41 59,-103 59,-186 z" id="path5262" style="fill:currentColor"/>
      </g>
      <g id="use562" transform="matrix(8.3112,0,0,-8.3112,322.88795,124.92348)" style="fill:currentColor" color="rgb(209, 209, 209)">
        <path transform="matrix(0.001,0,0,0.001,0,0)" d="M 183,702 V 547 H 368 V 477 H 183 V 180 c 0,-45 6,-74 18,-86 12,-13 37,-19 75,-19 h 92 V 0 H 276 C 206,0 158,13 132,39 106,65 93,112 93,180 V 477 H 27 v 70 h 66 v 155 z" id="path5462" style="fill:currentColor"/>
      </g>
      <g id="use564" transform="matrix(8.3112,0,0,-8.3112,326.1459,124.92348)" style="fill:currentColor" color="rgb(209, 209, 209)">
        <path transform="matrix(0.001,0,0,0.001,0,0)" d="M 183,702 V 547 H 368 V 477 H 183 V 180 c 0,-45 6,-74 18,-86 12,-13 37,-19 75,-19 h 92 V 0 H 276 C 206,0 158,13 132,39 106,65 93,112 93,180 V 477 H 27 v 70 h 66 v 155 z" id="path5466" style="fill:currentColor"/>
      </g>
      <g id="use566" transform="matrix(8.3112,0,0,-8.3112,329.4039,124.92348)" style="fill:currentColor" color="rgb(209, 209, 209)">
        <path transform="matrix(0.001,0,0,0.001,0,0)" d="M 562,296 V 252 H 149 c 4,-62 22,-110 56,-142 33,-32 79,-48 139,-48 34,0 68,4 100,12 32,8 65,21 97,39 V 28 C 509,14 476,3 442,-3 408,-9 373,-13 339,-13 251,-13 182,12 131,62 80,112 55,181 55,268 c 0,89 24,160 72,213 48,52 114,79 196,79 74,0 132,-24 175,-71 42,-48 64,-112 64,-193 z m -90,26 c -1,49 -15,88 -41,118 -27,29 -63,44 -107,44 -50,0 -90,-15 -120,-43 -30,-28 -48,-68 -52,-119 z" id="path5606" style="fill:currentColor"/>
      </g>
      <g id="use568" transform="matrix(8.3112,0,0,-8.3112,334.5153,124.92348)" style="fill:currentColor" color="rgb(209, 209, 209)">
        <path transform="matrix(0.001,0,0,0.001,0,0)" d="M 549,330 V 0 h -90 v 327 c 0,52 -11,90 -31,116 -20,26 -50,39 -90,39 -49,0 -87,-16 -115,-47 -28,-31 -42,-73 -42,-126 V 0 H 91 v 547 h 90 v -85 c 21,32 46,57 76,73 29,16 63,25 101,25 62,0 110,-20 142,-59 32,-39 49,-96 49,-171 z" id="path5546" style="fill:currentColor"/>
      </g>
      <g id="use570" transform="matrix(8.3112,0,0,-8.3112,339.7846,124.92348)" style="fill:currentColor" color="rgb(209, 209, 209)">
        <path transform="matrix(0.001,0,0,0.001,0,0)" d="M 183,702 V 547 H 368 V 477 H 183 V 180 c 0,-45 6,-74 18,-86 12,-13 37,-19 75,-19 h 92 V 0 H 276 C 206,0 158,13 132,39 106,65 93,112 93,180 V 477 H 27 v 70 h 66 v 155 z" id="path5470" style="fill:currentColor"/>
      </g>
      <g id="use572" transform="matrix(8.3112,0,0,-8.3112,343.0426,124.92348)" style="fill:currentColor" color="rgb(209, 209, 209)">
        <path transform="matrix(0.001,0,0,0.001,0,0)" d="m 94,547 h 90 V 0 H 94 Z m 0,213 h 90 V 646 H 94 Z" id="path5342" style="fill:currentColor"/>
      </g>
      <g id="use574" transform="matrix(8.3112,0,0,-8.3112,345.3531,124.92348)" style="fill:currentColor" color="rgb(209, 209, 209)">
        <path transform="matrix(0.001,0,0,0.001,0,0)" d="m 306,484 c -48,0 -86,-19 -114,-57 -28,-38 -42,-89 -42,-154 0,-66 13,-117 41,-155 28,-38 66,-56 115,-56 48,0 86,18 114,56 28,38 42,89 42,155 0,64 -14,116 -42,154 -28,38 -66,57 -114,57 z m 0,76 c 78,0 139,-26 184,-76 44,-51 67,-121 67,-211 C 557,183 534,113 490,63 445,12 384,-13 306,-13 227,-13 165,12 121,63 77,113 55,183 55,273 c 0,90 22,160 66,211 44,50 106,76 185,76 z" id="path5230" style="fill:currentColor"/>
      </g>
      <g id="use576" transform="matrix(8.3112,0,0,-8.3112,350.43959,124.92348)" style="fill:currentColor" color="rgb(209, 209, 209)">
        <path transform="matrix(0.001,0,0,0.001,0,0)" d="M 549,330 V 0 h -90 v 327 c 0,52 -11,90 -31,116 -20,26 -50,39 -90,39 -49,0 -87,-16 -115,-47 -28,-31 -42,-73 -42,-126 V 0 H 91 v 547 h 90 v -85 c 21,32 46,57 76,73 29,16 63,25 101,25 62,0 110,-20 142,-59 32,-39 49,-96 49,-171 z" id="path5550" style="fill:currentColor"/>
      </g>
      <g id="use578" transform="matrix(8.3112,0,0,-8.3112,355.70887,124.92348)" color="rgb(209, 209, 209)"/>
      <g id="use580" transform="matrix(8.3112,0,0,-8.3112,358.3518,124.92348)" style="fill:currentColor" color="rgb(209, 209, 209)">
        <path transform="matrix(0.001,0,0,0.001,0,0)" d="m 42,547 h 90 L 244,120 356,547 H 462 L 574,120 686,547 h 90 L 633,0 H 527 L 409,448 291,0 H 185 Z" id="path5218" style="fill:currentColor"/>
      </g>
      <g id="use582" transform="matrix(8.3112,0,0,-8.3112,365.1504,124.92348)" style="fill:currentColor" color="rgb(209, 209, 209)">
        <path transform="matrix(0.001,0,0,0.001,0,0)" d="m 254,729 h 83 L 83,-92 H 0 Z" id="path5210" style="fill:currentColor"/>
      </g>
      <g id="use584" transform="matrix(8.3112,0,0,-8.3112,367.95127,124.92348)" color="rgb(209, 209, 209)"/>
      <g id="use586" transform="matrix(8.3112,0,0,-8.3112,370.5942,124.92348)" style="fill:currentColor" color="rgb(209, 209, 209)">
        <path transform="matrix(0.001,0,0,0.001,0,0)" d="M 98,729 H 517 V 646 H 197 V 431 H 486 V 348 H 197 V 0 H 98 Z" id="path5202" style="fill:currentColor"/>
      </g>
      <g id="use588" transform="matrix(8.3112,0,0,-8.3112,375.37318,124.92348)" style="fill:currentColor" color="rgb(209, 209, 209)">
        <path transform="matrix(0.001,0,0,0.001,0,0)" d="m 94,760 h 90 V 0 H 94 Z" id="path5286" style="fill:currentColor"/>
      </g>
      <g id="use590" transform="matrix(8.3112,0,0,-8.3112,377.68367,124.92348)" style="fill:currentColor" color="rgb(209, 209, 209)">
        <path transform="matrix(0.001,0,0,0.001,0,0)" d="m 343,275 c -73,0 -123,-9 -151,-25 -28,-17 -42,-45 -42,-85 0,-32 10,-58 31,-76 21,-19 50,-28 86,-28 50,0 90,17 120,53 30,35 45,82 45,141 v 20 z m 179,37 V 0 H 432 V 83 C 411,49 385,25 355,10 325,-5 287,-13 243,-13 187,-13 142,2 109,33 76,64 60,106 60,159 c 0,61 20,107 62,139 41,31 102,47 184,47 h 126 v 9 c 0,41 -14,73 -41,96 -27,22 -65,34 -114,34 -32,0 -62,-4 -92,-12 -30,-8 -58,-19 -85,-33 v 83 c 32,12 64,22 95,28 31,6 61,10 91,10 79,0 138,-21 177,-62 39,-41 59,-103 59,-186 z" id="path5266" style="fill:currentColor"/>
      </g>
      <g id="use592" transform="matrix(8.3112,0,0,-8.3112,382.77845,124.92348)" style="fill:currentColor" color="rgb(209, 209, 209)">
        <path transform="matrix(0.001,0,0,0.001,0,0)" d="m 443,531 v -85 c -26,12 -52,22 -79,29 -28,6 -56,10 -85,10 -45,0 -79,-7 -101,-21 -22,-14 -33,-34 -33,-61 0,-21 8,-37 24,-49 16,-12 48,-24 96,-34 l 31,-7 c 64,-14 109,-34 136,-58 26,-25 40,-60 40,-104 0,-51 -20,-91 -60,-120 -40,-30 -96,-44 -166,-44 -30,0 -60,3 -92,8 C 122,0 89,8 54,20 v 93 c 33,-18 66,-31 98,-39 32,-9 64,-13 96,-13 42,0 75,7 98,21 22,14 34,35 34,62 0,24 -9,43 -25,56 -16,13 -52,26 -108,38 l -31,7 c -56,12 -97,30 -121,54 -25,24 -37,57 -37,100 0,51 18,91 54,119 36,28 88,42 156,42 33,0 64,-3 94,-8 29,-5 56,-12 81,-21 z" id="path5306" style="fill:currentColor"/>
      </g>
      <g id="use594" transform="matrix(8.3112,0,0,-8.3112,387.10859,124.92348)" style="fill:currentColor" color="rgb(209, 209, 209)">
        <path transform="matrix(0.001,0,0,0.001,0,0)" d="M 549,330 V 0 h -90 v 327 c 0,52 -11,90 -31,116 -20,26 -50,39 -90,39 -49,0 -87,-16 -115,-47 -28,-31 -42,-73 -42,-126 V 0 H 91 v 760 h 90 V 462 c 21,32 46,57 76,73 29,16 63,25 101,25 62,0 110,-20 142,-59 32,-39 49,-96 49,-171 z" id="path5422" style="fill:currentColor"/>
      </g>
      <g id="use596" transform="matrix(8.3112,0,0,-8.3112,392.37788,124.92348)" style="fill:currentColor" color="rgb(209, 209, 209)">
        <path transform="matrix(0.001,0,0,0.001,0,0)" d="M 342,632 208,269 h 268 z m -56,97 H 398 L 676,0 H 573 L 507,187 H 178 L 112,0 H 8 Z" id="path5194" style="fill:currentColor"/>
      </g>
      <g id="use598" transform="matrix(8.3112,0,0,-8.3112,397.91664,124.92348)" style="fill:currentColor" color="rgb(209, 209, 209)">
        <path transform="matrix(0.001,0,0,0.001,0,0)" d="M 183,702 V 547 H 368 V 477 H 183 V 180 c 0,-45 6,-74 18,-86 12,-13 37,-19 75,-19 h 92 V 0 H 276 C 206,0 158,13 132,39 106,65 93,112 93,180 V 477 H 27 v 70 h 66 v 155 z" id="path5474" style="fill:currentColor"/>
      </g>
      <g id="use600" transform="matrix(8.3112,0,0,-8.3112,401.17463,124.92348)" style="fill:currentColor" color="rgb(209, 209, 209)">
        <path transform="matrix(0.001,0,0,0.001,0,0)" d="M 183,702 V 547 H 368 V 477 H 183 V 180 c 0,-45 6,-74 18,-86 12,-13 37,-19 75,-19 h 92 V 0 H 276 C 206,0 158,13 132,39 106,65 93,112 93,180 V 477 H 27 v 70 h 66 v 155 z" id="path5478" style="fill:currentColor"/>
      </g>
      <g id="use602" transform="matrix(8.3112,0,0,-8.3112,404.43263,124.92348)" style="fill:currentColor" color="rgb(209, 209, 209)">
        <path transform="matrix(0.001,0,0,0.001,0,0)" d="M 562,296 V 252 H 149 c 4,-62 22,-110 56,-142 33,-32 79,-48 139,-48 34,0 68,4 100,12 32,8 65,21 97,39 V 28 C 509,14 476,3 442,-3 408,-9 373,-13 339,-13 251,-13 182,12 131,62 80,112 55,181 55,268 c 0,89 24,160 72,213 48,52 114,79 196,79 74,0 132,-24 175,-71 42,-48 64,-112 64,-193 z m -90,26 c -1,49 -15,88 -41,118 -27,29 -63,44 -107,44 -50,0 -90,-15 -120,-43 -30,-28 -48,-68 -52,-119 z" id="path5610" style="fill:currentColor"/>
      </g>
      <g id="use604" transform="matrix(8.3112,0,0,-8.3112,409.544,124.92348)" style="fill:currentColor" color="rgb(209, 209, 209)">
        <path transform="matrix(0.001,0,0,0.001,0,0)" d="M 549,330 V 0 h -90 v 327 c 0,52 -11,90 -31,116 -20,26 -50,39 -90,39 -49,0 -87,-16 -115,-47 -28,-31 -42,-73 -42,-126 V 0 H 91 v 547 h 90 v -85 c 21,32 46,57 76,73 29,16 63,25 101,25 62,0 110,-20 142,-59 32,-39 49,-96 49,-171 z" id="path5554" style="fill:currentColor"/>
      </g>
      <g id="use606" transform="matrix(8.3112,0,0,-8.3112,414.8133,124.92348)" style="fill:currentColor" color="rgb(209, 209, 209)">
        <path transform="matrix(0.001,0,0,0.001,0,0)" d="M 183,702 V 547 H 368 V 477 H 183 V 180 c 0,-45 6,-74 18,-86 12,-13 37,-19 75,-19 h 92 V 0 H 276 C 206,0 158,13 132,39 106,65 93,112 93,180 V 477 H 27 v 70 h 66 v 155 z" id="path5482" style="fill:currentColor"/>
      </g>
      <g id="use608" transform="matrix(8.3112,0,0,-8.3112,418.0713,124.92348)" style="fill:currentColor" color="rgb(209, 209, 209)">
        <path transform="matrix(0.001,0,0,0.001,0,0)" d="m 94,547 h 90 V 0 H 94 Z m 0,213 h 90 V 646 H 94 Z" id="path5346" style="fill:currentColor"/>
      </g>
      <g id="use610" transform="matrix(8.3112,0,0,-8.3112,420.3818,124.92348)" style="fill:currentColor" color="rgb(209, 209, 209)">
        <path transform="matrix(0.001,0,0,0.001,0,0)" d="m 306,484 c -48,0 -86,-19 -114,-57 -28,-38 -42,-89 -42,-154 0,-66 13,-117 41,-155 28,-38 66,-56 115,-56 48,0 86,18 114,56 28,38 42,89 42,155 0,64 -14,116 -42,154 -28,38 -66,57 -114,57 z m 0,76 c 78,0 139,-26 184,-76 44,-51 67,-121 67,-211 C 557,183 534,113 490,63 445,12 384,-13 306,-13 227,-13 165,12 121,63 77,113 55,183 55,273 c 0,90 22,160 66,211 44,50 106,76 185,76 z" id="path5234" style="fill:currentColor"/>
      </g>
      <g id="use612" transform="matrix(8.3112,0,0,-8.3112,425.46827,124.92348)" style="fill:currentColor" color="rgb(209, 209, 209)">
        <path transform="matrix(0.001,0,0,0.001,0,0)" d="M 549,330 V 0 h -90 v 327 c 0,52 -11,90 -31,116 -20,26 -50,39 -90,39 -49,0 -87,-16 -115,-47 -28,-31 -42,-73 -42,-126 V 0 H 91 v 547 h 90 v -85 c 21,32 46,57 76,73 29,16 63,25 101,25 62,0 110,-20 142,-59 32,-39 49,-96 49,-171 z" id="path5558" style="fill:currentColor"/>
      </g>
    </g>
  </g>
</svg>