<?xml version="1.0" encoding="UTF-8" standalone="no"?>
<!-- Created with Inkscape (http://www.inkscape.org/) -->

<svg
   width="62.370552mm"
   height="45.9617mm"
   viewBox="0 0 62.370552 45.9617"
   version="1.1"
   id="svg16891"
   inkscape:version="1.2.2 (b0a84865, 2022-12-01)"
   sodipodi:docname="figure2.svg"
   xmlns:inkscape="http://www.inkscape.org/namespaces/inkscape"
   xmlns:sodipodi="http://sodipodi.sourceforge.net/DTD/sodipodi-0.dtd"
   xmlns="http://www.w3.org/2000/svg"
   xmlns:svg="http://www.w3.org/2000/svg">
  <sodipodi:namedview
     id="namedview16893"
     pagecolor="#ffffff"
     bordercolor="#999999"
     borderopacity="1"
     inkscape:showpageshadow="0"
     inkscape:pageopacity="0"
     inkscape:pagecheckerboard="0"
     inkscape:deskcolor="#d1d1d1"
     inkscape:document-units="mm"
     showgrid="false"
     inkscape:zoom="0.914906"
     inkscape:cx="137.17256"
     inkscape:cy="265.05455"
     inkscape:window-width="1390"
     inkscape:window-height="1205"
     inkscape:window-x="0"
     inkscape:window-y="25"
     inkscape:window-maximized="0"
     inkscape:current-layer="g10862" />
  <defs
     id="defs16888">
    <clipPath
       id="clip_5">
      <path
         transform="matrix(0.33852,0,0,-0.33852,90.238,483.35704)"
         d="M 0,0 H 522.26876 V 384.86689 H 0 Z"
         id="path8768" />
    </clipPath>
    <clipPath
       id="clip_6">
      <path
         transform="matrix(0.33852,0,0,-0.33852,90.238,483.35704)"
         d="M 68.66875,64.15312 H 515.0687 V 369.07313 H 68.66875 Z"
         id="path8771" />
    </clipPath>
    <clipPath
       id="clip_8">
      <path
         transform="matrix(0.33852,0,0,-0.33852,90.238,483.35704)"
         d="M 68.66875,64.15312 H 515.0687 V 369.07313 H 68.66875 Z"
         id="path8780" />
    </clipPath>
    <clipPath
       id="clip_9">
      <path
         transform="matrix(0.33852,0,0,-0.33852,90.238,483.35704)"
         d="M 68.66875,64.15312 H 515.0687 V 369.07313 H 68.66875 Z"
         id="path8786" />
    </clipPath>
    <clipPath
       id="clip_10">
      <path
         transform="matrix(0.33852,0,0,-0.33852,90.238,483.35704)"
         d="M 68.66875,64.15312 H 515.0687 V 369.07313 H 68.66875 Z"
         id="path8795" />
    </clipPath>
    <clipPath
       id="clip_12">
      <path
         transform="matrix(0.33852,0,0,-0.33852,90.238,483.35704)"
         d="M 68.66875,64.15312 H 515.0687 V 369.07313 H 68.66875 Z"
         id="path8847" />
    </clipPath>
    <clipPath
       id="clip_13">
      <path
         transform="matrix(0.33852,0,0,-0.33852,90.238,483.35704)"
         d="M 68.66875,64.15312 H 515.0687 V 369.07313 H 68.66875 Z"
         id="path8853" />
    </clipPath>
    <clipPath
       id="clip_14">
      <path
         transform="matrix(0.33852,0,0,-0.33852,90.238,483.35704)"
         d="M 68.66875,64.15312 H 515.0687 V 369.07313 H 68.66875 Z"
         id="path8856" />
    </clipPath>
    <clipPath
       id="clip_15">
      <path
         transform="matrix(0.33852,0,0,-0.33852,90.238,483.35704)"
         d="M 68.66875,64.15312 H 515.0687 V 369.07313 H 68.66875 Z"
         id="path8859" />
    </clipPath>
    <clipPath
       id="clip_16">
      <path
         transform="matrix(0.33852,0,0,-0.33852,90.238,483.35704)"
         d="M 68.66875,64.15312 H 515.0687 V 369.07313 H 68.66875 Z"
         id="path8862" />
    </clipPath>
    <clipPath
       id="clip_17">
      <path
         transform="matrix(0.33852,0,0,-0.33852,90.238,483.35704)"
         d="M 68.66875,64.15312 H 515.0687 V 369.07313 H 68.66875 Z"
         id="path8865" />
    </clipPath>
    <clipPath
       id="clip_18">
      <path
         transform="matrix(0.33852,0,0,-0.33852,90.238,483.35704)"
         d="M 68.66875,64.15312 H 515.0687 V 369.07313 H 68.66875 Z"
         id="path8868" />
    </clipPath>
    <clipPath
       id="clip_19">
      <path
         transform="matrix(0.33852,0,0,-0.33852,90.238,483.35704)"
         d="M 68.66875,64.15312 H 515.0687 V 369.07313 H 68.66875 Z"
         id="path8880" />
    </clipPath>
    <clipPath
       id="clip_20">
      <path
         transform="matrix(0.33852,0,0,-0.33852,90.238,483.35704)"
         d="M 68.66875,64.15312 H 515.0687 V 369.07313 H 68.66875 Z"
         id="path8883" />
    </clipPath>
    <clipPath
       id="clip_21">
      <path
         transform="matrix(0.33852,0,0,-0.33852,120.35262,378.06938)"
         d="M -17.132924,-16.067627 H 17.132924 V 17.5 h -34.265848 z"
         id="path8886" />
    </clipPath>
    <clipPath
       id="clip_22">
      <path
         transform="matrix(0.33852,0,0,-0.33852,257.7302,378.06938)"
         d="M -17.132924,-16.067627 H 17.132924 V 17.5 h -34.265848 z"
         id="path8889" />
    </clipPath>
    <clipPath
       id="clip_23">
      <path
         transform="matrix(0.33852,0,0,-0.33852,90.238,483.35704)"
         d="M 68.66875,64.15312 H 515.0687 V 369.07313 H 68.66875 Z"
         id="path8892" />
    </clipPath>
    <clipPath
       id="clip_24">
      <path
         transform="matrix(0.33852,0,0,-0.33852,120.35262,406.4062)"
         d="m -17.5,-17.5 h 35 v 35 h -35 z"
         id="path8895" />
    </clipPath>
    <clipPath
       id="clip_25">
      <path
         transform="matrix(0.33852,0,0,-0.33852,257.7302,406.4062)"
         d="m -17.5,-17.5 h 35 v 35 h -35 z"
         id="path8898" />
    </clipPath>
    <clipPath
       id="clip_26">
      <path
         transform="matrix(0.33852,0,0,-0.33852,90.238,483.35704)"
         d="M 68.66875,64.15312 H 515.0687 V 369.07313 H 68.66875 Z"
         id="path8901" />
    </clipPath>
    <clipPath
       id="clip_27">
      <path
         transform="matrix(0.33852,0,0,-0.33852,120.35262,444.5993)"
         d="M -16.36396,-20.606602 H 16.36396 V 20.606602 H -16.36396 Z"
         id="path8904" />
    </clipPath>
    <clipPath
       id="clip_28">
      <path
         transform="matrix(0.33852,0,0,-0.33852,166.14514,444.4761)"
         d="M -16.36396,-20.606602 H 16.36396 V 20.606602 H -16.36396 Z"
         id="path8907" />
    </clipPath>
    <clipPath
       id="clip_29">
      <path
         transform="matrix(0.33852,0,0,-0.33852,211.93766,432.09416)"
         d="M -16.36396,-20.606602 H 16.36396 V 20.606602 H -16.36396 Z"
         id="path8910" />
    </clipPath>
    <clipPath
       id="clip_30">
      <path
         transform="matrix(0.33852,0,0,-0.33852,257.73017,381.11866)"
         d="M -16.36396,-20.606602 H 16.36396 V 20.606602 H -16.36396 Z"
         id="path8913" />
    </clipPath>
  </defs>
  <g
     inkscape:label="Layer 1"
     inkscape:groupmode="layer"
     id="layer1"
     transform="translate(-7.8556196,-78.236287)">
    <g
       id="g10862"
       transform="matrix(0.35277777,0,0,0.35277777,-23.978341,-46.319631)">
      <g
         clip-path="url(#clip_5)"
         id="g10860">
        <path
           transform="matrix(0.33852,0,0,-0.33852,90.238,483.35704)"
           d="M 0,0 H 522.26876 V 384.86689 H 0 Z"
           fill="#ffffff"
           id="path10566" />
        <path
           transform="matrix(0.33852,0,0,-0.33852,90.238,483.35704)"
           d="M 68.66875,64.15312 H 515.0687 V 369.07313 H 68.66875 Z"
           fill="#eaeaf2"
           id="path10568" />
        <g
           clip-path="url(#clip_6)"
           id="g10572">
          <path
             transform="matrix(0.33852,0,0,-0.33852,90.238,483.35704)"
             stroke-width="1"
             stroke-linecap="round"
             stroke-linejoin="round"
             fill="none"
             stroke="#ffffff"
             d="M 88.959659,64.15312 V 369.07313"
             id="path10570" />
        </g>
        <g
           id="use10574"
           style="fill:#333333"
           transform="matrix(8.124479,0,0,-8.124479,115.8355,469.82786)">
          <path
             transform="matrix(0.001,0,0,0.001,0,0)"
             d="M 323,0 V 171 H 13 v 81 l 326,464 h 72 V 252 h 97 V 171 H 411 V 0 h -88 m 0,252 V 575 L 99,252 h 224"
             id="path17988" />
        </g>
        <g
           id="use10576"
           style="fill:#333333"
           transform="matrix(8.124479,0,0,-8.124479,120.35271,469.82786)">
          <path
             transform="matrix(0.001,0,0,0.001,0,0)"
             d="m 177,388 c -37,13 -64,32 -82,57 -18,24 -26,54 -26,89 0,52 18,95 56,131 38,36 88,54 150,54 62,0 113,-19 151,-55 38,-36 57,-80 57,-132 0,-34 -9,-63 -26,-87 -18,-25 -44,-44 -80,-57 44,-14 77,-37 100,-69 23,-32 35,-70 35,-114 C 512,143 490,92 447,51 403,9 346,-11 276,-11 205,-11 148,9 105,51 62,92 41,144 41,207 c 0,46 11,85 35,117 23,31 57,52 101,64 m -18,149 c 0,-34 11,-62 33,-83 22,-22 50,-32 85,-32 34,0 61,10 83,32 22,21 33,47 33,78 0,32 -12,59 -34,81 -22,22 -50,33 -83,33 -34,0 -62,-11 -84,-32 -22,-22 -33,-47 -33,-77 M 131,207 c 0,-26 6,-50 18,-73 12,-24 29,-42 53,-55 23,-13 48,-19 75,-19 42,0 76,13 104,40 27,27 41,62 41,104 0,42 -14,76 -42,104 -28,28 -64,42 -106,42 -42,0 -76,-14 -103,-41 -27,-28 -40,-62 -40,-102"
             id="path17980" />
        </g>
        <g
           clip-path="url(#clip_8)"
           id="g10580">
          <path
             transform="matrix(0.33852,0,0,-0.33852,90.238,483.35704)"
             stroke-width="1"
             stroke-linecap="round"
             stroke-linejoin="round"
             fill="none"
             stroke="#ffffff"
             d="M 224.23239,64.15312 V 369.07313"
             id="path10578" />
        </g>
        <g
           id="use10582"
           style="fill:#333333"
           transform="matrix(8.124479,0,0,-8.124479,161.62802,469.82786)">
          <path
             transform="matrix(0.001,0,0,0.001,0,0)"
             d="m 498,541 -88,-7 c -8,34 -19,59 -33,75 -24,24 -54,37 -88,37 -28,0 -53,-8 -74,-23 -28,-20 -49,-50 -65,-88 -16,-39 -25,-94 -25,-166 21,32 47,55 78,71 30,16 62,24 96,24 58,0 108,-22 149,-65 41,-43 62,-99 62,-167 0,-45 -10,-87 -29,-125 C 461,68 435,39 401,19 367,-1 329,-11 286,-11 212,-11 153,15 107,69 61,122 38,211 38,335 c 0,138 25,238 76,302 44,54 104,82 180,82 56,0 103,-16 139,-48 36,-32 57,-75 65,-130 M 139,232 c 0,-30 6,-59 19,-87 12,-28 30,-49 54,-63 23,-15 47,-22 73,-22 36,0 68,15 95,45 26,30 40,70 40,122 0,49 -14,88 -40,117 -26,28 -59,43 -99,43 -40,0 -73,-15 -101,-43 -28,-29 -41,-66 -41,-112"
             id="path17972" />
        </g>
        <g
           id="use10584"
           style="fill:#333333"
           transform="matrix(8.124479,0,0,-8.124479,166.14524,469.82786)">
          <path
             transform="matrix(0.001,0,0,0.001,0,0)"
             d="M 323,0 V 171 H 13 v 81 l 326,464 h 72 V 252 h 97 V 171 H 411 V 0 h -88 m 0,252 V 575 L 99,252 h 224"
             id="path17992" />
        </g>
        <g
           clip-path="url(#clip_9)"
           id="g10588">
          <path
             transform="matrix(0.33852,0,0,-0.33852,90.238,483.35704)"
             stroke-width="1"
             stroke-linecap="round"
             stroke-linejoin="round"
             fill="none"
             stroke="#ffffff"
             d="M 359.50514,64.15312 V 369.07313"
             id="path10586" />
        </g>
        <g
           id="use10590"
           style="fill:#333333"
           transform="matrix(8.124479,0,0,-8.124479,205.16199,469.82786)">
          <path
             transform="matrix(0.001,0,0,0.001,0,0)"
             d="m 373,0 h -88 v 560 c -22,-20 -50,-41 -84,-61 -34,-20 -65,-35 -92,-45 v 85 c 49,23 92,51 129,84 36,32 62,64 78,96 h 57 V 0"
             id="path17960" />
        </g>
        <g
           id="use10592"
           style="fill:#333333"
           transform="matrix(8.124479,0,0,-8.124479,209.6792,469.82786)">
          <path
             transform="matrix(0.001,0,0,0.001,0,0)"
             d="M 503,84 V 0 H 30 c -1,21 3,41 11,61 12,32 31,63 57,95 26,31 65,67 115,109 78,63 130,113 158,151 27,37 41,72 41,106 0,34 -13,64 -38,88 -25,24 -57,36 -97,36 -42,0 -76,-13 -101,-38 -26,-26 -39,-61 -39,-106 l -90,10 c 6,67 29,118 69,154 40,35 95,53 163,53 68,0 123,-20 163,-58 40,-38 60,-85 60,-141 0,-29 -6,-57 -18,-85 C 472,407 453,378 426,348 399,317 354,275 291,222 238,178 204,148 189,132 174,116 162,100 152,84 h 351"
             id="path17944" />
        </g>
        <g
           id="use10594"
           style="fill:#333333"
           transform="matrix(8.124479,0,0,-8.124479,214.1964,469.82786)">
          <path
             transform="matrix(0.001,0,0,0.001,0,0)"
             d="m 177,388 c -37,13 -64,32 -82,57 -18,24 -26,54 -26,89 0,52 18,95 56,131 38,36 88,54 150,54 62,0 113,-19 151,-55 38,-36 57,-80 57,-132 0,-34 -9,-63 -26,-87 -18,-25 -44,-44 -80,-57 44,-14 77,-37 100,-69 23,-32 35,-70 35,-114 C 512,143 490,92 447,51 403,9 346,-11 276,-11 205,-11 148,9 105,51 62,92 41,144 41,207 c 0,46 11,85 35,117 23,31 57,52 101,64 m -18,149 c 0,-34 11,-62 33,-83 22,-22 50,-32 85,-32 34,0 61,10 83,32 22,21 33,47 33,78 0,32 -12,59 -34,81 -22,22 -50,33 -83,33 -34,0 -62,-11 -84,-32 -22,-22 -33,-47 -33,-77 M 131,207 c 0,-26 6,-50 18,-73 12,-24 29,-42 53,-55 23,-13 48,-19 75,-19 42,0 76,13 104,40 27,27 41,62 41,104 0,42 -14,76 -42,104 -28,28 -64,42 -106,42 -42,0 -76,-14 -103,-41 -27,-28 -40,-62 -40,-102"
             id="path17984" />
        </g>
        <g
           clip-path="url(#clip_10)"
           id="g10598">
          <path
             transform="matrix(0.33852,0,0,-0.33852,90.238,483.35704)"
             stroke-width="1"
             stroke-linecap="round"
             stroke-linejoin="round"
             fill="none"
             stroke="#ffffff"
             d="M 494.77784,64.15312 V 369.07313"
             id="path10596" />
        </g>
        <g
           id="use10600"
           style="fill:#333333"
           transform="matrix(8.124479,0,0,-8.124479,250.9545,469.82786)">
          <path
             transform="matrix(0.001,0,0,0.001,0,0)"
             d="M 503,84 V 0 H 30 c -1,21 3,41 11,61 12,32 31,63 57,95 26,31 65,67 115,109 78,63 130,113 158,151 27,37 41,72 41,106 0,34 -13,64 -38,88 -25,24 -57,36 -97,36 -42,0 -76,-13 -101,-38 -26,-26 -39,-61 -39,-106 l -90,10 c 6,67 29,118 69,154 40,35 95,53 163,53 68,0 123,-20 163,-58 40,-38 60,-85 60,-141 0,-29 -6,-57 -18,-85 C 472,407 453,378 426,348 399,317 354,275 291,222 238,178 204,148 189,132 174,116 162,100 152,84 h 351"
             id="path17948" />
        </g>
        <g
           id="use10602"
           style="fill:#333333"
           transform="matrix(8.124479,0,0,-8.124479,255.47171,469.82786)">
          <path
             transform="matrix(0.001,0,0,0.001,0,0)"
             d="m 42,188 92,7 c 6,-45 22,-79 47,-101 25,-23 55,-34 90,-34 42,0 78,16 108,48 29,32 44,74 44,127 0,50 -15,89 -43,118 -28,29 -65,44 -110,44 -28,0 -54,-7 -77,-20 -23,-13 -41,-29 -53,-49 l -83,10 69,368 H 482 V 622 H 197 L 158,430 c 43,30 88,45 135,45 62,0 115,-22 158,-65 43,-44 65,-99 65,-167 C 516,178 497,122 459,75 413,17 351,-11 271,-11 206,-11 153,7 112,43 70,79 47,127 42,188"
             id="path17928" />
        </g>
        <g
           id="use10604"
           style="fill:#333333"
           transform="matrix(8.124479,0,0,-8.124479,259.98893,469.82786)">
          <path
             transform="matrix(0.001,0,0,0.001,0,0)"
             d="m 498,541 -88,-7 c -8,34 -19,59 -33,75 -24,24 -54,37 -88,37 -28,0 -53,-8 -74,-23 -28,-20 -49,-50 -65,-88 -16,-39 -25,-94 -25,-166 21,32 47,55 78,71 30,16 62,24 96,24 58,0 108,-22 149,-65 41,-43 62,-99 62,-167 0,-45 -10,-87 -29,-125 C 461,68 435,39 401,19 367,-1 329,-11 286,-11 212,-11 153,15 107,69 61,122 38,211 38,335 c 0,138 25,238 76,302 44,54 104,82 180,82 56,0 103,-16 139,-48 36,-32 57,-75 65,-130 M 139,232 c 0,-30 6,-59 19,-87 12,-28 30,-49 54,-63 23,-15 47,-22 73,-22 36,0 68,15 95,45 26,30 40,70 40,122 0,49 -14,88 -40,117 -26,28 -59,43 -99,43 -40,0 -73,-15 -101,-43 -28,-29 -41,-66 -41,-112"
             id="path17976" />
        </g>
        <g
           id="use10606"
           style="fill:#333333"
           transform="matrix(8.801519,0,0,-8.801519,148.75753,479.153)">
          <path
             transform="matrix(0.001,0,0,0.001,0,0)"
             d="m 73,0 v 716 h 269 c 54,0 98,-8 131,-22 33,-15 59,-37 78,-67 18,-30 28,-62 28,-94 0,-31 -9,-60 -25,-87 -17,-27 -42,-49 -75,-65 43,-13 76,-35 100,-65 23,-31 35,-67 35,-108 0,-34 -8,-66 -22,-94 C 578,85 560,63 540,47 519,31 493,20 462,12 430,4 392,0 346,0 H 73 m 95,415 h 155 c 42,0 72,2 90,8 24,7 42,19 54,36 12,16 19,37 19,62 0,24 -6,45 -17,63 -12,18 -28,30 -49,37 -22,6 -58,10 -109,10 H 168 V 415 m 0,-331 h 178 c 30,0 52,1 65,4 21,4 39,10 54,19 14,9 26,22 36,40 10,17 15,37 15,61 0,26 -7,49 -21,69 -14,20 -33,34 -57,42 -24,8 -59,12 -105,12 H 168 V 84"
             id="path17924" />
        </g>
        <g
           id="use10608"
           style="fill:#333333"
           transform="matrix(8.801519,0,0,-8.801519,154.62807,479.153)">
          <path
             transform="matrix(0.001,0,0,0.001,0,0)"
             d="m 33,259 c 0,96 26,167 80,214 44,38 99,57 163,57 71,0 129,-24 175,-70 45,-47 68,-111 68,-193 C 519,200 509,147 489,109 469,71 439,41 401,20 363,0 321,-11 276,-11 203,-11 144,12 100,58 55,104 33,171 33,259 m 91,0 c 0,-66 14,-116 43,-149 28,-33 65,-49 109,-49 44,0 80,16 109,49 29,33 44,84 44,152 0,64 -15,112 -44,146 -30,33 -66,50 -109,50 -44,0 -81,-17 -109,-50 -29,-33 -43,-83 -43,-149"
             id="path17916" />
        </g>
        <g
           id="use10610"
           style="fill:#333333"
           transform="matrix(8.801519,0,0,-8.801519,159.52306,479.153)">
          <path
             transform="matrix(0.001,0,0,0.001,0,0)"
             d="M 258,79 271,1 C 245,-3 223,-6 204,-6 172,-6 147,-1 130,8 112,18 100,31 93,48 85,64 82,99 82,152 V 450 H 18 v 69 h 64 v 128 l 87,53 V 519 h 89 V 450 H 169 V 147 c 0,-26 1,-42 5,-49 3,-7 8,-13 15,-17 7,-4 17,-6 30,-6 10,0 23,1 39,4"
             id="path17904" />
        </g>
        <g
           id="use10612"
           style="fill:#333333"
           transform="matrix(8.801519,0,0,-8.801519,161.9684,479.153)">
          <path
             transform="matrix(0.001,0,0,0.001,0,0)"
             d="M 258,79 271,1 C 245,-3 223,-6 204,-6 172,-6 147,-1 130,8 112,18 100,31 93,48 85,64 82,99 82,152 V 450 H 18 v 69 h 64 v 128 l 87,53 V 519 h 89 V 450 H 169 V 147 c 0,-26 1,-42 5,-49 3,-7 8,-13 15,-17 7,-4 17,-6 30,-6 10,0 23,1 39,4"
             id="path17908" />
        </g>
        <g
           id="use10614"
           style="fill:#333333"
           transform="matrix(8.801519,0,0,-8.801519,164.41374,479.153)">
          <path
             transform="matrix(0.001,0,0,0.001,0,0)"
             d="m 64,0 v 716 h 88 V 0 H 64"
             id="path17900" />
        </g>
        <g
           id="use10616"
           style="fill:#333333"
           transform="matrix(8.801519,0,0,-8.801519,166.36916,479.153)">
          <path
             transform="matrix(0.001,0,0,0.001,0,0)"
             d="m 421,167 91,-11 C 497,102 470,61 432,32 393,3 344,-11 284,-11 208,-11 147,12 103,58 59,104 37,170 37,255 c 0,87 22,155 67,203 44,48 103,72 175,72 69,0 126,-24 170,-71 44,-47 66,-113 66,-199 0,-6 -1,-13 -1,-23 H 127 c 3,-58 19,-101 48,-131 29,-30 65,-45 109,-45 32,0 60,8 83,25 22,16 40,43 54,81 M 132,309 h 290 c -4,44 -15,76 -33,98 -28,34 -65,51 -109,51 -41,0 -75,-14 -102,-41 -28,-27 -43,-63 -46,-108"
             id="path17880" />
        </g>
        <g
           id="use10618"
           style="fill:#333333"
           transform="matrix(8.801519,0,0,-8.801519,171.26415,479.153)">
          <path
             transform="matrix(0.001,0,0,0.001,0,0)"
             d="m 66,0 v 519 h 79 v -74 c 38,56 93,85 165,85 31,0 60,-6 86,-17 26,-11 46,-26 59,-44 13,-18 22,-40 27,-65 3,-16 5,-45 5,-85 V 0 h -88 v 315 c 0,36 -4,62 -10,80 -7,18 -19,32 -36,43 -18,10 -38,16 -61,16 -38,0 -71,-12 -98,-36 -27,-24 -40,-69 -40,-135 V 0 H 66"
             id="path17868" />
        </g>
        <g
           id="use10620"
           style="fill:#333333"
           transform="matrix(8.801519,0,0,-8.801519,176.15914,479.153)">
          <path
             transform="matrix(0.001,0,0,0.001,0,0)"
             d="m 421,167 91,-11 C 497,102 470,61 432,32 393,3 344,-11 284,-11 208,-11 147,12 103,58 59,104 37,170 37,255 c 0,87 22,155 67,203 44,48 103,72 175,72 69,0 126,-24 170,-71 44,-47 66,-113 66,-199 0,-6 -1,-13 -1,-23 H 127 c 3,-58 19,-101 48,-131 29,-30 65,-45 109,-45 32,0 60,8 83,25 22,16 40,43 54,81 M 132,309 h 290 c -4,44 -15,76 -33,98 -28,34 -65,51 -109,51 -41,0 -75,-14 -102,-41 -28,-27 -43,-63 -46,-108"
             id="path17884" />
        </g>
        <g
           id="use10622"
           style="fill:#333333"
           transform="matrix(8.801519,0,0,-8.801519,181.05411,479.153)">
          <path
             transform="matrix(0.001,0,0,0.001,0,0)"
             d="m 404,190 87,-11 C 481,119 457,72 418,39 379,5 331,-11 275,-11 203,-11 146,12 103,58 60,104 39,170 39,257 c 0,56 9,105 28,147 18,42 46,73 84,94 38,21 79,32 124,32 56,0 102,-15 138,-43 36,-28 59,-69 69,-121 l -85,-13 c -8,34 -23,60 -43,78 -21,18 -46,27 -75,27 -45,0 -81,-16 -109,-48 -28,-32 -41,-82 -41,-150 0,-70 13,-121 40,-152 26,-32 61,-47 105,-47 34,0 63,10 86,31 23,21 38,54 44,98"
             id="path17860" />
        </g>
        <g
           id="use10624"
           style="fill:#333333"
           transform="matrix(8.801519,0,0,-8.801519,185.45488,479.153)">
          <path
             transform="matrix(0.001,0,0,0.001,0,0)"
             d="m 66,0 v 716 h 88 V 308 L 362,519 H 476 L 278,326 496,0 H 388 L 216,265 154,206 V 0 H 66"
             id="path17856" />
        </g>
        <g
           id="use10626"
           style="fill:#333333"
           transform="matrix(8.801519,0,0,-8.801519,189.85564,479.153)" />
        <g
           id="use10628"
           style="fill:#333333"
           transform="matrix(8.801519,0,0,-8.801519,192.30098,479.153)">
          <path
             transform="matrix(0.001,0,0,0.001,0,0)"
             d="m 31,155 87,13 c 4,-35 18,-62 40,-80 22,-18 54,-27 94,-27 40,0 70,8 90,24 19,16 29,36 29,58 0,20 -9,35 -26,47 -12,8 -42,18 -90,30 -64,16 -109,30 -134,42 -25,12 -44,28 -57,49 -13,21 -19,44 -19,70 0,23 5,44 16,64 10,20 25,36 43,49 14,10 32,18 56,25 24,7 49,11 76,11 40,0 76,-6 107,-18 31,-12 54,-27 69,-47 14,-20 24,-47 30,-80 l -86,-12 c -4,26 -16,47 -34,62 -19,15 -45,23 -79,23 -41,0 -70,-7 -87,-20 -18,-14 -26,-29 -26,-47 0,-12 3,-22 11,-31 7,-10 18,-17 34,-23 8,-4 34,-11 77,-23 62,-16 106,-30 130,-40 24,-11 44,-27 58,-47 14,-20 21,-45 21,-75 0,-30 -9,-57 -26,-83 C 418,43 393,24 361,10 329,-4 292,-11 252,-11 184,-11 133,2 98,30 62,58 40,99 31,155"
             id="path17844" />
        </g>
        <g
           id="use10630"
           style="fill:#333333"
           transform="matrix(8.801519,0,0,-8.801519,196.70174,479.153)">
          <path
             transform="matrix(0.001,0,0,0.001,0,0)"
             d="m 66,615 v 101 h 88 V 615 H 66 M 66,0 v 519 h 88 V 0 H 66"
             id="path17832" />
        </g>
        <g
           id="use10632"
           style="fill:#333333"
           transform="matrix(8.801519,0,0,-8.801519,198.65715,479.153)">
          <path
             transform="matrix(0.001,0,0,0.001,0,0)"
             d="m 20,0 v 71 l 330,379 c -38,-2 -72,-3 -100,-3 H 39 v 72 H 463 V 460 L 182,131 128,71 c 39,3 76,5 111,5 H 479 V 0 H 20"
             id="path17828" />
        </g>
        <g
           id="use10634"
           style="fill:#333333"
           transform="matrix(8.801519,0,0,-8.801519,203.05792,479.153)">
          <path
             transform="matrix(0.001,0,0,0.001,0,0)"
             d="m 421,167 91,-11 C 497,102 470,61 432,32 393,3 344,-11 284,-11 208,-11 147,12 103,58 59,104 37,170 37,255 c 0,87 22,155 67,203 44,48 103,72 175,72 69,0 126,-24 170,-71 44,-47 66,-113 66,-199 0,-6 -1,-13 -1,-23 H 127 c 3,-58 19,-101 48,-131 29,-30 65,-45 109,-45 32,0 60,8 83,25 22,16 40,43 54,81 M 132,309 h 290 c -4,44 -15,76 -33,98 -28,34 -65,51 -109,51 -41,0 -75,-14 -102,-41 -28,-27 -43,-63 -46,-108"
             id="path17888" />
        </g>
        <g
           id="use10636"
           style="fill:#333333"
           transform="matrix(8.801519,0,0,-8.801519,207.9529,479.153)" />
        <g
           id="use10638"
           style="fill:#333333"
           transform="matrix(8.801519,0,0,-8.801519,210.39824,479.153)">
          <path
             transform="matrix(0.001,0,0,0.001,0,0)"
             d="m 169,729 h 212 c 112,0 197,-24 255,-72 57,-48 86,-118 86,-212 C 722,383 711,323 689,265 667,207 637,159 599,120 560,80 511,50 451,30 391,10 321,0 240,0 H 27 L 169,729 M 252,648 142,81 h 129 c 110,0 196,31 256,95 60,63 91,153 91,269 0,70 -20,121 -59,154 -39,32 -100,49 -183,49 H 252"
             id="path17824" />
        </g>
        <g
           id="use10640"
           style="fill:#333333"
           transform="matrix(6.161064,0,0,-6.161064,217.17559,480.59703)">
          <path
             transform="matrix(0.001,0,0,0.001,0,0)"
             d="M 898,330 834,0 h -90 l 63,327 c 2,14 4,26 6,36 1,10 2,18 2,26 0,29 -9,52 -25,68 -16,16 -39,25 -68,25 -44,0 -83,-17 -117,-49 -34,-33 -56,-76 -66,-128 L 479,0 h -90 l 64,327 c 2,12 4,23 6,33 1,10 2,20 2,28 0,30 -9,53 -25,69 -16,16 -39,25 -67,25 -44,0 -84,-17 -118,-49 -34,-33 -56,-76 -66,-128 L 125,0 H 35 l 107,547 h 90 l -17,-85 c 24,32 52,56 85,73 33,16 68,25 106,25 39,0 71,-11 97,-31 26,-21 41,-50 47,-87 27,38 59,68 95,88 36,20 74,30 114,30 46,0 82,-14 108,-41 26,-27 39,-65 39,-114 0,-11 -1,-23 -2,-36 -2,-13 -4,-26 -6,-39"
             id="path17820" />
        </g>
        <g
           id="use10642"
           style="fill:#333333"
           transform="matrix(6.161064,0,0,-6.161064,223.17722,480.59703)">
          <path
             transform="matrix(0.001,0,0,0.001,0,0)"
             d="m 183,760 h 90 L 251,646 h -90 l 22,114 M 142,547 h 90 L 125,0 H 35 l 107,547"
             id="path17816" />
        </g>
        <g
           id="use10644"
           style="fill:#333333"
           transform="matrix(6.161064,0,0,-6.161064,224.88895,480.59703)">
          <path
             transform="matrix(0.001,0,0,0.001,0,0)"
             d="M 418,82 C 394,50 365,27 332,11 299,-5 263,-13 223,-13 168,-13 125,5 93,42 61,79 46,130 46,195 c 0,54 9,105 29,154 19,49 47,93 83,132 24,26 51,45 81,59 30,13 62,20 96,20 35,0 66,-9 93,-26 26,-17 47,-41 62,-72 l 59,298 h 90 L 491,0 h -90 l 17,82 M 139,211 c 0,-48 10,-85 32,-111 21,-26 51,-39 89,-39 28,0 54,6 78,20 24,14 45,34 63,60 19,27 34,59 45,95 11,36 17,71 17,106 0,45 -11,80 -32,106 -22,25 -51,38 -88,38 -29,0 -56,-7 -80,-20 -24,-14 -45,-33 -62,-58 -19,-27 -34,-58 -45,-94 -12,-36 -17,-71 -17,-103"
             id="path17812" />
        </g>
        <g
           clip-path="url(#clip_12)"
           id="g10648">
          <path
             transform="matrix(0.33852,0,0,-0.33852,90.238,483.35704)"
             stroke-width="1"
             stroke-linecap="round"
             stroke-linejoin="round"
             fill="none"
             stroke="#ffffff"
             d="M 68.66875,96.11229 H 515.0687"
             id="path10646" />
        </g>
        <g
           id="use10650"
           style="fill:#333333"
           transform="matrix(8.124479,0,0,-8.124479,106.59698,453.73027)">
          <path
             transform="matrix(0.001,0,0,0.001,0,0)"
             d="m 42,353 c 0,84 8,152 26,204 17,52 43,92 77,120 34,28 78,42 130,42 38,0 72,-8 101,-24 28,-16 52,-38 71,-67 19,-29 34,-64 45,-106 10,-42 16,-99 16,-169 0,-84 -9,-152 -26,-204 C 465,97 439,58 405,30 371,2 327,-11 275,-11 205,-11 151,13 112,62 65,121 42,218 42,353 m 90,0 c 0,-118 13,-196 41,-235 27,-39 61,-58 102,-58 40,0 73,19 101,58 28,39 42,117 42,235 0,118 -14,196 -42,235 -28,38 -62,58 -102,58 -41,0 -73,-17 -97,-51 -30,-44 -45,-125 -45,-242"
             id="path17796" />
        </g>
        <g
           clip-path="url(#clip_13)"
           id="g10654">
          <path
             transform="matrix(0.33852,0,0,-0.33852,90.238,483.35704)"
             stroke-width="1"
             stroke-linecap="round"
             stroke-linejoin="round"
             fill="none"
             stroke="#ffffff"
             d="M 68.66875,141.60576 H 515.0687"
             id="path10652" />
        </g>
        <g
           id="use10656"
           style="fill:#333333"
           transform="matrix(8.124479,0,0,-8.124479,106.59698,438.3298)">
          <path
             transform="matrix(0.001,0,0,0.001,0,0)"
             d="m 42,188 92,7 c 6,-45 22,-79 47,-101 25,-23 55,-34 90,-34 42,0 78,16 108,48 29,32 44,74 44,127 0,50 -15,89 -43,118 -28,29 -65,44 -110,44 -28,0 -54,-7 -77,-20 -23,-13 -41,-29 -53,-49 l -83,10 69,368 H 482 V 622 H 197 L 158,430 c 43,30 88,45 135,45 62,0 115,-22 158,-65 43,-44 65,-99 65,-167 C 516,178 497,122 459,75 413,17 351,-11 271,-11 206,-11 153,7 112,43 70,79 47,127 42,188"
             id="path17932" />
        </g>
        <g
           clip-path="url(#clip_14)"
           id="g10660">
          <path
             transform="matrix(0.33852,0,0,-0.33852,90.238,483.35704)"
             stroke-width="1"
             stroke-linecap="round"
             stroke-linejoin="round"
             fill="none"
             stroke="#ffffff"
             d="M 68.66875,187.09923 H 515.0687"
             id="path10658" />
        </g>
        <g
           id="use10662"
           style="fill:#333333"
           transform="matrix(8.124479,0,0,-8.124479,102.07985,422.92936)">
          <path
             transform="matrix(0.001,0,0,0.001,0,0)"
             d="m 373,0 h -88 v 560 c -22,-20 -50,-41 -84,-61 -34,-20 -65,-35 -92,-45 v 85 c 49,23 92,51 129,84 36,32 62,64 78,96 h 57 V 0"
             id="path17964" />
        </g>
        <g
           id="use10664"
           style="fill:#333333"
           transform="matrix(8.124479,0,0,-8.124479,106.59706,422.92936)">
          <path
             transform="matrix(0.001,0,0,0.001,0,0)"
             d="m 42,353 c 0,84 8,152 26,204 17,52 43,92 77,120 34,28 78,42 130,42 38,0 72,-8 101,-24 28,-16 52,-38 71,-67 19,-29 34,-64 45,-106 10,-42 16,-99 16,-169 0,-84 -9,-152 -26,-204 C 465,97 439,58 405,30 371,2 327,-11 275,-11 205,-11 151,13 112,62 65,121 42,218 42,353 m 90,0 c 0,-118 13,-196 41,-235 27,-39 61,-58 102,-58 40,0 73,19 101,58 28,39 42,117 42,235 0,118 -14,196 -42,235 -28,38 -62,58 -102,58 -41,0 -73,-17 -97,-51 -30,-44 -45,-125 -45,-242"
             id="path17800" />
        </g>
        <g
           clip-path="url(#clip_15)"
           id="g10668">
          <path
             transform="matrix(0.33852,0,0,-0.33852,90.238,483.35704)"
             stroke-width="1"
             stroke-linecap="round"
             stroke-linejoin="round"
             fill="none"
             stroke="#ffffff"
             d="M 68.66875,232.59272 H 515.0687"
             id="path10666" />
        </g>
        <g
           id="use10670"
           style="fill:#333333"
           transform="matrix(8.124479,0,0,-8.124479,102.07985,407.5289)">
          <path
             transform="matrix(0.001,0,0,0.001,0,0)"
             d="m 373,0 h -88 v 560 c -22,-20 -50,-41 -84,-61 -34,-20 -65,-35 -92,-45 v 85 c 49,23 92,51 129,84 36,32 62,64 78,96 h 57 V 0"
             id="path17968" />
        </g>
        <g
           id="use10672"
           style="fill:#333333"
           transform="matrix(8.124479,0,0,-8.124479,106.59706,407.5289)">
          <path
             transform="matrix(0.001,0,0,0.001,0,0)"
             d="m 42,188 92,7 c 6,-45 22,-79 47,-101 25,-23 55,-34 90,-34 42,0 78,16 108,48 29,32 44,74 44,127 0,50 -15,89 -43,118 -28,29 -65,44 -110,44 -28,0 -54,-7 -77,-20 -23,-13 -41,-29 -53,-49 l -83,10 69,368 H 482 V 622 H 197 L 158,430 c 43,30 88,45 135,45 62,0 115,-22 158,-65 43,-44 65,-99 65,-167 C 516,178 497,122 459,75 413,17 351,-11 271,-11 206,-11 153,7 112,43 70,79 47,127 42,188"
             id="path17936" />
        </g>
        <g
           clip-path="url(#clip_16)"
           id="g10676">
          <path
             transform="matrix(0.33852,0,0,-0.33852,90.238,483.35704)"
             stroke-width="1"
             stroke-linecap="round"
             stroke-linejoin="round"
             fill="none"
             stroke="#ffffff"
             d="M 68.66875,278.08619 H 515.0687"
             id="path10674" />
        </g>
        <g
           id="use10678"
           style="fill:#333333"
           transform="matrix(8.124479,0,0,-8.124479,102.07985,392.12846)">
          <path
             transform="matrix(0.001,0,0,0.001,0,0)"
             d="M 503,84 V 0 H 30 c -1,21 3,41 11,61 12,32 31,63 57,95 26,31 65,67 115,109 78,63 130,113 158,151 27,37 41,72 41,106 0,34 -13,64 -38,88 -25,24 -57,36 -97,36 -42,0 -76,-13 -101,-38 -26,-26 -39,-61 -39,-106 l -90,10 c 6,67 29,118 69,154 40,35 95,53 163,53 68,0 123,-20 163,-58 40,-38 60,-85 60,-141 0,-29 -6,-57 -18,-85 C 472,407 453,378 426,348 399,317 354,275 291,222 238,178 204,148 189,132 174,116 162,100 152,84 h 351"
             id="path17952" />
        </g>
        <g
           id="use10680"
           style="fill:#333333"
           transform="matrix(8.124479,0,0,-8.124479,106.59706,392.12846)">
          <path
             transform="matrix(0.001,0,0,0.001,0,0)"
             d="m 42,353 c 0,84 8,152 26,204 17,52 43,92 77,120 34,28 78,42 130,42 38,0 72,-8 101,-24 28,-16 52,-38 71,-67 19,-29 34,-64 45,-106 10,-42 16,-99 16,-169 0,-84 -9,-152 -26,-204 C 465,97 439,58 405,30 371,2 327,-11 275,-11 205,-11 151,13 112,62 65,121 42,218 42,353 m 90,0 c 0,-118 13,-196 41,-235 27,-39 61,-58 102,-58 40,0 73,19 101,58 28,39 42,117 42,235 0,118 -14,196 -42,235 -28,38 -62,58 -102,58 -41,0 -73,-17 -97,-51 -30,-44 -45,-125 -45,-242"
             id="path17804" />
        </g>
        <g
           clip-path="url(#clip_17)"
           id="g10684">
          <path
             transform="matrix(0.33852,0,0,-0.33852,90.238,483.35704)"
             stroke-width="1"
             stroke-linecap="round"
             stroke-linejoin="round"
             fill="none"
             stroke="#ffffff"
             d="M 68.66875,323.57966 H 515.0687"
             id="path10682" />
        </g>
        <g
           id="use10686"
           style="fill:#333333"
           transform="matrix(8.124479,0,0,-8.124479,102.07985,376.728)">
          <path
             transform="matrix(0.001,0,0,0.001,0,0)"
             d="M 503,84 V 0 H 30 c -1,21 3,41 11,61 12,32 31,63 57,95 26,31 65,67 115,109 78,63 130,113 158,151 27,37 41,72 41,106 0,34 -13,64 -38,88 -25,24 -57,36 -97,36 -42,0 -76,-13 -101,-38 -26,-26 -39,-61 -39,-106 l -90,10 c 6,67 29,118 69,154 40,35 95,53 163,53 68,0 123,-20 163,-58 40,-38 60,-85 60,-141 0,-29 -6,-57 -18,-85 C 472,407 453,378 426,348 399,317 354,275 291,222 238,178 204,148 189,132 174,116 162,100 152,84 h 351"
             id="path17956" />
        </g>
        <g
           id="use10688"
           style="fill:#333333"
           transform="matrix(8.124479,0,0,-8.124479,106.59706,376.728)">
          <path
             transform="matrix(0.001,0,0,0.001,0,0)"
             d="m 42,188 92,7 c 6,-45 22,-79 47,-101 25,-23 55,-34 90,-34 42,0 78,16 108,48 29,32 44,74 44,127 0,50 -15,89 -43,118 -28,29 -65,44 -110,44 -28,0 -54,-7 -77,-20 -23,-13 -41,-29 -53,-49 l -83,10 69,368 H 482 V 622 H 197 L 158,430 c 43,30 88,45 135,45 62,0 115,-22 158,-65 43,-44 65,-99 65,-167 C 516,178 497,122 459,75 413,17 351,-11 271,-11 206,-11 153,7 112,43 70,79 47,127 42,188"
             id="path17940" />
        </g>
        <g
           clip-path="url(#clip_18)"
           id="g10692">
          <path
             transform="matrix(0.33852,0,0,-0.33852,90.238,483.35704)"
             stroke-width="1"
             stroke-linecap="round"
             stroke-linejoin="round"
             fill="none"
             stroke="#ffffff"
             d="M 68.66875,369.07313 H 515.0687"
             id="path10690" />
        </g>
        <g
           id="use10694"
           style="fill:#333333"
           transform="matrix(8.124479,0,0,-8.124479,102.07985,361.32756)">
          <path
             transform="matrix(0.001,0,0,0.001,0,0)"
             d="m 42,189 88,12 c 10,-50 27,-86 51,-108 24,-22 54,-33 89,-33 41,0 76,14 104,43 28,28 43,64 43,106 0,40 -14,74 -40,100 -26,26 -60,40 -100,40 -17,0 -38,-4 -62,-10 l 10,77 c 6,-1 10,-1 14,-1 37,0 71,9 101,29 30,20 45,50 45,91 0,32 -11,58 -33,79 -22,21 -50,32 -84,32 -34,0 -63,-11 -86,-32 -23,-22 -37,-54 -43,-96 l -88,15 c 10,59 35,105 73,137 38,32 85,49 142,49 39,0 75,-9 108,-26 32,-17 57,-40 75,-68 18,-29 27,-60 27,-92 0,-32 -9,-60 -25,-85 -17,-26 -42,-46 -74,-60 42,-10 74,-31 98,-61 24,-31 36,-70 36,-116 C 511,149 488,96 442,53 396,9 339,-12 270,-12 206,-12 154,6 113,44 71,81 48,129 42,189"
             id="path17792" />
        </g>
        <g
           id="use10696"
           style="fill:#333333"
           transform="matrix(8.124479,0,0,-8.124479,106.59706,361.32756)">
          <path
             transform="matrix(0.001,0,0,0.001,0,0)"
             d="m 42,353 c 0,84 8,152 26,204 17,52 43,92 77,120 34,28 78,42 130,42 38,0 72,-8 101,-24 28,-16 52,-38 71,-67 19,-29 34,-64 45,-106 10,-42 16,-99 16,-169 0,-84 -9,-152 -26,-204 C 465,97 439,58 405,30 371,2 327,-11 275,-11 205,-11 151,13 112,62 65,121 42,218 42,353 m 90,0 c 0,-118 13,-196 41,-235 27,-39 61,-58 102,-58 40,0 73,19 101,58 28,39 42,117 42,235 0,118 -14,196 -42,235 -28,38 -62,58 -102,58 -41,0 -73,-17 -97,-51 -30,-44 -45,-125 -45,-242"
             id="path17808" />
        </g>
        <g
           id="use10698"
           style="fill:#333333"
           transform="matrix(0,-8.801519,-8.801519,0,98.97499,421.52827)">
          <path
             transform="matrix(0.001,0,0,0.001,0,0)"
             d="m 45,230 89,8 c 4,-36 14,-66 30,-89 15,-23 39,-41 72,-55 32,-14 69,-21 110,-21 36,0 67,5 95,16 28,10 48,25 62,44 13,18 20,39 20,61 0,22 -7,42 -20,59 -13,16 -34,30 -64,42 -19,8 -61,19 -127,35 -66,16 -112,31 -138,45 -34,18 -60,40 -77,66 -17,26 -25,56 -25,90 0,36 10,69 31,101 20,31 50,55 90,71 39,16 83,25 131,25 53,0 100,-9 140,-26 40,-17 72,-42 94,-75 22,-34 33,-71 35,-113 l -91,-7 c -5,45 -21,79 -49,103 -28,23 -70,35 -125,35 -58,0 -99,-11 -125,-32 -26,-21 -39,-46 -39,-76 0,-26 9,-47 27,-63 18,-17 66,-34 143,-52 77,-18 130,-33 159,-45 41,-20 72,-44 92,-73 20,-30 30,-64 30,-102 C 615,164 604,128 582,94 560,60 528,34 488,16 447,-2 401,-11 350,-11 285,-11 231,-2 187,16 143,34 109,63 84,101 59,139 46,182 45,230"
             id="path17788" />
        </g>
        <g
           id="use10700"
           style="fill:#333333"
           transform="matrix(0,-8.801519,-8.801519,0,98.97499,415.65766)">
          <path
             transform="matrix(0.001,0,0,0.001,0,0)"
             d="m 404,190 87,-11 C 481,119 457,72 418,39 379,5 331,-11 275,-11 203,-11 146,12 103,58 60,104 39,170 39,257 c 0,56 9,105 28,147 18,42 46,73 84,94 38,21 79,32 124,32 56,0 102,-15 138,-43 36,-28 59,-69 69,-121 l -85,-13 c -8,34 -23,60 -43,78 -21,18 -46,27 -75,27 -45,0 -81,-16 -109,-48 -28,-32 -41,-82 -41,-150 0,-70 13,-121 40,-152 26,-32 61,-47 105,-47 34,0 63,10 86,31 23,21 38,54 44,98"
             id="path17864" />
        </g>
        <g
           id="use10702"
           style="fill:#333333"
           transform="matrix(0,-8.801519,-8.801519,0,98.97499,411.2569)">
          <path
             transform="matrix(0.001,0,0,0.001,0,0)"
             d="m 33,259 c 0,96 26,167 80,214 44,38 99,57 163,57 71,0 129,-24 175,-70 45,-47 68,-111 68,-193 C 519,200 509,147 489,109 469,71 439,41 401,20 363,0 321,-11 276,-11 203,-11 144,12 100,58 55,104 33,171 33,259 m 91,0 c 0,-66 14,-116 43,-149 28,-33 65,-49 109,-49 44,0 80,16 109,49 29,33 44,84 44,152 0,64 -15,112 -44,146 -30,33 -66,50 -109,50 -44,0 -81,-17 -109,-50 -29,-33 -43,-83 -43,-149"
             id="path17920" />
        </g>
        <g
           id="use10704"
           style="fill:#333333"
           transform="matrix(0,-8.801519,-8.801519,0,98.97499,406.36323)">
          <path
             transform="matrix(0.001,0,0,0.001,0,0)"
             d="m 65,0 v 519 h 79 v -79 c 20,36 38,60 56,72 17,12 36,18 56,18 30,0 60,-10 91,-28 l -31,-82 c -22,12 -43,19 -64,19 -20,0 -37,-6 -52,-17 -16,-12 -27,-28 -33,-48 -10,-32 -14,-66 -14,-103 V 0 H 65"
             id="path17780" />
        </g>
        <g
           id="use10706"
           style="fill:#333333"
           transform="matrix(0,-8.801519,-8.801519,0,98.97499,403.4323)">
          <path
             transform="matrix(0.001,0,0,0.001,0,0)"
             d="m 421,167 91,-11 C 497,102 470,61 432,32 393,3 344,-11 284,-11 208,-11 147,12 103,58 59,104 37,170 37,255 c 0,87 22,155 67,203 44,48 103,72 175,72 69,0 126,-24 170,-71 44,-47 66,-113 66,-199 0,-6 -1,-13 -1,-23 H 127 c 3,-58 19,-101 48,-131 29,-30 65,-45 109,-45 32,0 60,8 83,25 22,16 40,43 54,81 M 132,309 h 290 c -4,44 -15,76 -33,98 -28,34 -65,51 -109,51 -41,0 -75,-14 -102,-41 -28,-27 -43,-63 -46,-108"
             id="path17892" />
        </g>
        <g
           clip-path="url(#clip_19)"
           id="g10710">
          <path
             transform="matrix(0.33852,0,0,-0.33852,90.238,483.35704)"
             d="M 88.959659,151.25038 V 77.732929 l 135.272731,11.73732 135.27275,7.278951 135.2727,157.95333 v 94.62643 L 359.50514,206.11551 224.23239,140.24095 Z"
             fill="#4c72b0"
             fill-opacity="0.5"
             id="path10708" />
        </g>
        <g
           clip-path="url(#clip_20)"
           id="g10726">
          <path
             transform="matrix(0.33852,0,0,-0.33852,90.238,483.35704)"
             stroke-width="3"
             stroke-linecap="round"
             stroke-linejoin="round"
             fill="none"
             stroke="#00b3e6"
             d="M 88.959659,311.02348 H 494.77784"
             id="path10712" />
          <g
             clip-path="url(#clip_21)"
             id="g10718">
            <path
               transform="matrix(0.33852,0,0,-0.33852,120.35262,378.06938)"
               d="M 0,7.5 -1.683855,2.317627 H -7.132924 L -2.724534,-0.885255 -4.408389,-6.067627 0,-2.864745 4.408389,-6.067627 2.724534,-0.885255 7.132924,2.317627 H 1.683855 Z"
               fill="#00b3e6"
               id="path10714" />
            <path
               transform="matrix(0.33852,0,0,-0.33852,120.35262,378.06938)"
               stroke-width="2"
               stroke-linecap="butt"
               stroke-linejoin="bevel"
               fill="none"
               stroke="#00b3e6"
               d="M 0,7.5 -1.683855,2.317627 H -7.132924 L -2.724534,-0.885255 -4.408389,-6.067627 0,-2.864745 4.408389,-6.067627 2.724534,-0.885255 7.132924,2.317627 H 1.683855 Z"
               id="path10716" />
          </g>
          <g
             clip-path="url(#clip_22)"
             id="g10724">
            <path
               transform="matrix(0.33852,0,0,-0.33852,257.7302,378.06938)"
               d="M 0,7.5 -1.683855,2.317627 H -7.132924 L -2.724534,-0.885255 -4.408389,-6.067627 0,-2.864745 4.408389,-6.067627 2.724534,-0.885255 7.132924,2.317627 H 1.683855 Z"
               fill="#00b3e6"
               id="path10720" />
            <path
               transform="matrix(0.33852,0,0,-0.33852,257.7302,378.06938)"
               stroke-width="2"
               stroke-linecap="butt"
               stroke-linejoin="bevel"
               fill="none"
               stroke="#00b3e6"
               d="M 0,7.5 -1.683855,2.317627 H -7.132924 L -2.724534,-0.885255 -4.408389,-6.067627 0,-2.864745 4.408389,-6.067627 2.724534,-0.885255 7.132924,2.317627 H 1.683855 Z"
               id="path10722" />
          </g>
        </g>
        <g
           clip-path="url(#clip_23)"
           id="g10742">
          <path
             transform="matrix(0.33852,0,0,-0.33852,90.238,483.35704)"
             stroke-width="3"
             stroke-linecap="round"
             stroke-linejoin="round"
             fill="none"
             stroke="#008cbf"
             d="M 88.959659,227.31546 H 494.77784"
             id="path10728" />
          <g
             clip-path="url(#clip_24)"
             id="g10734">
            <path
               transform="matrix(0.33852,0,0,-0.33852,120.35262,406.4062)"
               d="m -2.5,-7.5 h 5 v 5 h 5 v 5 h -5 v 5 h -5 v -5 h -5 v -5 h 5 z"
               fill="#008cbf"
               id="path10730" />
            <path
               transform="matrix(0.33852,0,0,-0.33852,120.35262,406.4062)"
               stroke-width="2"
               stroke-linecap="butt"
               stroke-miterlimit="10"
               stroke-linejoin="miter"
               fill="none"
               stroke="#008cbf"
               d="m -2.5,-7.5 h 5 v 5 h 5 v 5 h -5 v 5 h -5 v -5 h -5 v -5 h 5 z"
               id="path10732" />
          </g>
          <g
             clip-path="url(#clip_25)"
             id="g10740">
            <path
               transform="matrix(0.33852,0,0,-0.33852,257.7302,406.4062)"
               d="m -2.5,-7.5 h 5 v 5 h 5 v 5 h -5 v 5 h -5 v -5 h -5 v -5 h 5 z"
               fill="#008cbf"
               id="path10736" />
            <path
               transform="matrix(0.33852,0,0,-0.33852,257.7302,406.4062)"
               stroke-width="2"
               stroke-linecap="butt"
               stroke-miterlimit="10"
               stroke-linejoin="miter"
               fill="none"
               stroke="#008cbf"
               d="m -2.5,-7.5 h 5 v 5 h 5 v 5 h -5 v 5 h -5 v -5 h -5 v -5 h 5 z"
               id="path10738" />
          </g>
        </g>
        <g
           clip-path="url(#clip_26)"
           id="g10770">
          <path
             transform="matrix(0.33852,0,0,-0.33852,90.238,483.35704)"
             stroke-width="3"
             stroke-linecap="round"
             stroke-linejoin="round"
             fill="none"
             stroke="#006699"
             d="m 88.959659,114.49165 135.272731,0.36395 135.27275,36.57676 135.2727,150.5834"
             id="path10744" />
          <g
             clip-path="url(#clip_27)"
             id="g10750">
            <path
               transform="matrix(0.33852,0,0,-0.33852,120.35262,444.5993)"
               d="M 0,-10.606602 6.363961,0 0,10.606602 -6.363961,0 Z"
               fill="#006699"
               id="path10746" />
            <path
               transform="matrix(0.33852,0,0,-0.33852,120.35262,444.5993)"
               stroke-width="2"
               stroke-linecap="butt"
               stroke-miterlimit="10"
               stroke-linejoin="miter"
               fill="none"
               stroke="#006699"
               d="M 0,-10.606602 6.363961,0 0,10.606602 -6.363961,0 Z"
               id="path10748" />
          </g>
          <g
             clip-path="url(#clip_28)"
             id="g10756">
            <path
               transform="matrix(0.33852,0,0,-0.33852,166.14514,444.4761)"
               d="M 0,-10.606602 6.363961,0 0,10.606602 -6.363961,0 Z"
               fill="#006699"
               id="path10752" />
            <path
               transform="matrix(0.33852,0,0,-0.33852,166.14514,444.4761)"
               stroke-width="2"
               stroke-linecap="butt"
               stroke-miterlimit="10"
               stroke-linejoin="miter"
               fill="none"
               stroke="#006699"
               d="M 0,-10.606602 6.363961,0 0,10.606602 -6.363961,0 Z"
               id="path10754" />
          </g>
          <g
             clip-path="url(#clip_29)"
             id="g10762">
            <path
               transform="matrix(0.33852,0,0,-0.33852,211.93766,432.09416)"
               d="M 0,-10.606602 6.363961,0 0,10.606602 -6.363961,0 Z"
               fill="#006699"
               id="path10758" />
            <path
               transform="matrix(0.33852,0,0,-0.33852,211.93766,432.09416)"
               stroke-width="2"
               stroke-linecap="butt"
               stroke-miterlimit="10"
               stroke-linejoin="miter"
               fill="none"
               stroke="#006699"
               d="M 0,-10.606602 6.363961,0 0,10.606602 -6.363961,0 Z"
               id="path10760" />
          </g>
          <g
             clip-path="url(#clip_30)"
             id="g10768">
            <path
               transform="matrix(0.33852,0,0,-0.33852,257.73017,381.11866)"
               d="M 0,-10.606602 6.363961,0 0,10.606602 -6.363961,0 Z"
               fill="#006699"
               id="path10764" />
            <path
               transform="matrix(0.33852,0,0,-0.33852,257.73017,381.11866)"
               stroke-width="2"
               stroke-linecap="butt"
               stroke-miterlimit="10"
               stroke-linejoin="miter"
               fill="none"
               stroke="#006699"
               d="M 0,-10.606602 6.363961,0 0,10.606602 -6.363961,0 Z"
               id="path10766" />
          </g>
        </g>
        <g
           id="g10776">
          <path
             transform="matrix(0.33852,0,0,-0.33852,90.238,483.35704)"
             d="M 172.49219,246.88875 H 411.2453 c 3.2,0 4.80003,1.60001 4.80003,4.8 v 100.58439 c 0,3.19996 -1.60003,4.79999 -4.80003,4.79999 H 172.49219 c -3.2,0 -4.8,-1.60003 -4.8,-4.79999 V 251.68875 c 0,-3.19999 1.6,-4.8 4.8,-4.8 z"
             fill="#eaeaf2"
             fill-opacity="0.85"
             id="path10772" />
          <path
             transform="matrix(0.33852,0,0,-0.33852,90.238,483.35704)"
             stroke-width="0.3"
             stroke-linecap="butt"
             stroke-miterlimit="10"
             stroke-linejoin="miter"
             fill="none"
             stroke="#d5d6d5"
             stroke-opacity="0.85"
             d="M 172.49219,246.88875 H 411.2453 c 3.2,0 4.80003,1.60001 4.80003,4.8 v 100.58439 c 0,3.19996 -1.60003,4.79999 -4.80003,4.79999 H 172.49219 c -3.2,0 -4.8,-1.60003 -4.8,-4.79999 V 251.68875 c 0,-3.19999 1.6,-4.8 4.8,-4.8 z"
             id="path10774" />
        </g>
        <path
           transform="matrix(0.33852,0,0,-0.33852,90.238,483.35704)"
           stroke-width="3"
           stroke-linecap="round"
           stroke-linejoin="round"
           fill="none"
           stroke="#00b3e6"
           d="m 177.29219,338.4044 h 48"
           id="path10778" />
        <path
           transform="matrix(0.33852,0,0,-0.33852,90.238,483.35704)"
           d="m 201.29219,345.9044 -1.68385,-5.18237 h -5.44907 l 4.40839,-3.20289 -1.68386,-5.18237 4.40839,3.20288 4.40839,-3.20288 -1.68385,5.18237 4.40838,3.20289 h -5.44906 z"
           fill="#00b3e6"
           id="path10780" />
        <path
           transform="matrix(0.33852,0,0,-0.33852,90.238,483.35704)"
           stroke-width="2"
           stroke-linecap="butt"
           stroke-linejoin="bevel"
           fill="none"
           stroke="#00b3e6"
           d="m 201.29219,345.9044 -1.68385,-5.18237 h -5.44907 l 4.40839,-3.20289 -1.68386,-5.18237 4.40839,3.20288 4.40839,-3.20288 -1.68385,5.18237 4.40838,3.20289 h -5.44906 z"
           id="path10782" />
        <g
           id="use10784"
           style="fill:#333333"
           transform="matrix(8.124479,0,0,-8.124479,173.0035,371.64396)">
          <path
             transform="matrix(0.001,0,0,0.001,0,0)"
             d="m 547,716 h 95 V 302 C 642,230 633,172 617,130 601,88 571,54 529,28 486,2 430,-11 362,-11 294,-11 239,0 197,23 154,45 124,78 106,122 88,166 79,226 79,302 v 414 h 94 V 303 c 0,-63 5,-109 17,-138 12,-30 32,-52 60,-68 28,-16 62,-24 104,-24 69,0 118,15 148,47 30,32 45,93 45,183 v 413"
             id="path17772" />
        </g>
        <g
           id="use10786"
           style="fill:#333333"
           transform="matrix(8.124479,0,0,-8.124479,178.86937,371.64396)">
          <path
             transform="matrix(0.001,0,0,0.001,0,0)"
             d="m 66,0 v 519 h 79 v -74 c 38,56 93,85 165,85 31,0 60,-6 86,-17 26,-11 46,-26 59,-44 13,-18 22,-40 27,-65 3,-16 5,-45 5,-85 V 0 h -88 v 315 c 0,36 -4,62 -10,80 -7,18 -19,32 -36,43 -18,10 -38,16 -61,16 -38,0 -71,-12 -98,-36 -27,-24 -40,-69 -40,-135 V 0 H 66"
             id="path17872" />
        </g>
        <g
           id="use10788"
           style="fill:#333333"
           transform="matrix(8.124479,0,0,-8.124479,183.38657,371.64396)">
          <path
             transform="matrix(0.001,0,0,0.001,0,0)"
             d="m 66,615 v 101 h 88 V 615 H 66 M 66,0 v 519 h 88 V 0 H 66"
             id="path17836" />
        </g>
        <g
           id="use10790"
           style="fill:#333333"
           transform="matrix(8.124479,0,0,-8.124479,185.19022,371.64396)">
          <path
             transform="matrix(0.001,0,0,0.001,0,0)"
             d="m 77,0 v 716 h 270 c 47,0 83,-3 109,-7 35,-6 64,-18 88,-34 24,-16 43,-39 58,-69 14,-30 22,-62 22,-97 C 624,447 604,396 565,354 526,312 456,291 355,291 H 172 V 0 H 77 m 95,375 h 185 c 61,0 104,11 130,34 26,23 39,55 39,97 0,30 -8,55 -23,77 -16,21 -36,35 -60,42 -16,4 -46,6 -88,6 H 172 V 375"
             id="path17756" />
        </g>
        <g
           id="use10792"
           style="fill:#333333"
           transform="matrix(8.124479,0,0,-8.124479,190.60924,371.64396)">
          <path
             transform="matrix(0.001,0,0,0.001,0,0)"
             d="M 79,0 V 716 H 597 V 631 H 174 V 412 H 570 V 328 H 174 V 84 H 613 V 0 H 79"
             id="path17748" />
        </g>
        <g
           id="use10794"
           style="fill:#333333"
           transform="matrix(8.124479,0,0,-8.124479,196.02826,371.64396)">
          <path
             transform="matrix(0.001,0,0,0.001,0,0)"
             d="m 73,0 v 716 h 95 V 84 H 521 V 0 H 73"
             id="path17736" />
        </g>
        <g
           id="use10796"
           style="fill:#333333"
           transform="matrix(8.124479,0,0,-8.124479,200.54547,371.64396)">
          <path
             transform="matrix(0.001,0,0,0.001,0,0)"
             d="M 259,0 V 631 H 23 v 85 H 591 V 631 H 354 V 0 h -95"
             id="path17728" />
        </g>
        <g
           id="use10798"
           style="fill:#333333"
           transform="matrix(8.124479,0,0,-8.124479,205.50952,371.64396)" />
        <g
           id="use10800"
           style="fill:#333333"
           transform="matrix(8.124479,0,0,-8.124479,207.76813,371.64396)">
          <path
             transform="matrix(0.001,0,0,0.001,0,0)"
             d="M 234,-209 C 185,-148 144,-77 111,4 77,86 61,171 61,259 c 0,77 12,151 37,223 29,82 74,164 136,246 h 63 C 257,660 231,611 219,583 199,538 183,491 172,442 158,381 151,320 151,259 151,102 199,-53 297,-209 h -63"
             id="path17720" />
        </g>
        <g
           id="use10802"
           style="fill:#333333"
           transform="matrix(8.124479,0,0,-8.124479,210.47359,371.64396)">
          <path
             transform="matrix(0.001,0,0,0.001,0,0)"
             d="M 0,0 273,716 H 375 L 668,0 H 561 L 477,217 H 178 L 99,0 H 0 m 205,294 h 243 l -75,198 c -23,60 -40,110 -51,149 -9,-46 -22,-92 -38,-137 L 205,294"
             id="path17708" />
        </g>
        <g
           id="use10804"
           style="fill:#333333"
           transform="matrix(8.124479,0,0,-8.124479,215.89261,371.64396)">
          <path
             transform="matrix(0.001,0,0,0.001,0,0)"
             d="m 77,0 v 716 h 270 c 47,0 83,-3 109,-7 35,-6 64,-18 88,-34 24,-16 43,-39 58,-69 14,-30 22,-62 22,-97 C 624,447 604,396 565,354 526,312 456,291 355,291 H 172 V 0 H 77 m 95,375 h 185 c 61,0 104,11 130,34 26,23 39,55 39,97 0,30 -8,55 -23,77 -16,21 -36,35 -60,42 -16,4 -46,6 -88,6 H 172 V 375"
             id="path17760" />
        </g>
        <g
           id="use10806"
           style="fill:#333333"
           transform="matrix(8.124479,0,0,-8.124479,221.31165,371.64396)">
          <path
             transform="matrix(0.001,0,0,0.001,0,0)"
             d="m 73,0 v 716 h 95 V 84 H 521 V 0 H 73"
             id="path17740" />
        </g>
        <g
           id="use10808"
           style="fill:#333333"
           transform="matrix(8.124479,0,0,-8.124479,225.82886,371.64396)">
          <path
             transform="matrix(0.001,0,0,0.001,0,0)"
             d="M 124,-209 H 61 c 97,156 146,311 146,468 0,61 -7,122 -21,182 -12,48 -27,95 -47,141 -13,28 -39,77 -78,146 h 63 C 184,646 229,564 259,482 284,410 297,336 297,259 297,171 280,86 246,4 212,-77 172,-148 124,-209"
             id="path17700" />
        </g>
        <path
           transform="matrix(0.33852,0,0,-0.33852,90.238,483.35704)"
           stroke-width="3"
           stroke-linecap="round"
           stroke-linejoin="round"
           fill="none"
           stroke="#008cbf"
           d="m 177.29219,303.88877 h 48"
           id="path10810" />
        <path
           transform="matrix(0.33852,0,0,-0.33852,90.238,483.35704)"
           d="m 198.79219,296.38877 h 5 v 5 h 5 v 5 h -5 v 5 h -5 v -5 h -5 v -5 h 5 z"
           fill="#008cbf"
           id="path10812" />
        <path
           transform="matrix(0.33852,0,0,-0.33852,90.238,483.35704)"
           stroke-width="2"
           stroke-linecap="butt"
           stroke-miterlimit="10"
           stroke-linejoin="miter"
           fill="none"
           stroke="#008cbf"
           d="m 198.79219,296.38877 h 5 v 5 h 5 v 5 h -5 v 5 h -5 v -5 h -5 v -5 h 5 z"
           id="path10814" />
        <g
           id="use10816"
           style="fill:#333333"
           transform="matrix(8.124479,0,0,-8.124479,173.0035,383.3282)">
          <path
             transform="matrix(0.001,0,0,0.001,0,0)"
             d="m 547,716 h 95 V 302 C 642,230 633,172 617,130 601,88 571,54 529,28 486,2 430,-11 362,-11 294,-11 239,0 197,23 154,45 124,78 106,122 88,166 79,226 79,302 v 414 h 94 V 303 c 0,-63 5,-109 17,-138 12,-30 32,-52 60,-68 28,-16 62,-24 104,-24 69,0 118,15 148,47 30,32 45,93 45,183 v 413"
             id="path17776" />
        </g>
        <g
           id="use10818"
           style="fill:#333333"
           transform="matrix(8.124479,0,0,-8.124479,178.86937,383.3282)">
          <path
             transform="matrix(0.001,0,0,0.001,0,0)"
             d="m 66,0 v 519 h 79 v -74 c 38,56 93,85 165,85 31,0 60,-6 86,-17 26,-11 46,-26 59,-44 13,-18 22,-40 27,-65 3,-16 5,-45 5,-85 V 0 h -88 v 315 c 0,36 -4,62 -10,80 -7,18 -19,32 -36,43 -18,10 -38,16 -61,16 -38,0 -71,-12 -98,-36 -27,-24 -40,-69 -40,-135 V 0 H 66"
             id="path17876" />
        </g>
        <g
           id="use10820"
           style="fill:#333333"
           transform="matrix(8.124479,0,0,-8.124479,183.38657,383.3282)">
          <path
             transform="matrix(0.001,0,0,0.001,0,0)"
             d="m 66,615 v 101 h 88 V 615 H 66 M 66,0 v 519 h 88 V 0 H 66"
             id="path17840" />
        </g>
        <g
           id="use10822"
           style="fill:#333333"
           transform="matrix(8.124479,0,0,-8.124479,185.19022,383.3282)">
          <path
             transform="matrix(0.001,0,0,0.001,0,0)"
             d="m 77,0 v 716 h 270 c 47,0 83,-3 109,-7 35,-6 64,-18 88,-34 24,-16 43,-39 58,-69 14,-30 22,-62 22,-97 C 624,447 604,396 565,354 526,312 456,291 355,291 H 172 V 0 H 77 m 95,375 h 185 c 61,0 104,11 130,34 26,23 39,55 39,97 0,30 -8,55 -23,77 -16,21 -36,35 -60,42 -16,4 -46,6 -88,6 H 172 V 375"
             id="path17764" />
        </g>
        <g
           id="use10824"
           style="fill:#333333"
           transform="matrix(8.124479,0,0,-8.124479,190.60924,383.3282)">
          <path
             transform="matrix(0.001,0,0,0.001,0,0)"
             d="M 79,0 V 716 H 597 V 631 H 174 V 412 H 570 V 328 H 174 V 84 H 613 V 0 H 79"
             id="path17752" />
        </g>
        <g
           id="use10826"
           style="fill:#333333"
           transform="matrix(8.124479,0,0,-8.124479,196.02826,383.3282)">
          <path
             transform="matrix(0.001,0,0,0.001,0,0)"
             d="m 73,0 v 716 h 95 V 84 H 521 V 0 H 73"
             id="path17744" />
        </g>
        <g
           id="use10828"
           style="fill:#333333"
           transform="matrix(8.124479,0,0,-8.124479,200.54547,383.3282)">
          <path
             transform="matrix(0.001,0,0,0.001,0,0)"
             d="M 259,0 V 631 H 23 v 85 H 591 V 631 H 354 V 0 h -95"
             id="path17732" />
        </g>
        <g
           id="use10830"
           style="fill:#333333"
           transform="matrix(8.124479,0,0,-8.124479,205.50952,383.3282)" />
        <g
           id="use10832"
           style="fill:#333333"
           transform="matrix(8.124479,0,0,-8.124479,207.76813,383.3282)">
          <path
             transform="matrix(0.001,0,0,0.001,0,0)"
             d="M 234,-209 C 185,-148 144,-77 111,4 77,86 61,171 61,259 c 0,77 12,151 37,223 29,82 74,164 136,246 h 63 C 257,660 231,611 219,583 199,538 183,491 172,442 158,381 151,320 151,259 151,102 199,-53 297,-209 h -63"
             id="path17724" />
        </g>
        <g
           id="use10834"
           style="fill:#333333"
           transform="matrix(8.124479,0,0,-8.124479,210.47359,383.3282)">
          <path
             transform="matrix(0.001,0,0,0.001,0,0)"
             d="M 0,0 273,716 H 375 L 668,0 H 561 L 477,217 H 178 L 99,0 H 0 m 205,294 h 243 l -75,198 c -23,60 -40,110 -51,149 -9,-46 -22,-92 -38,-137 L 205,294"
             id="path17712" />
        </g>
        <g
           id="use10836"
           style="fill:#333333"
           transform="matrix(8.124479,0,0,-8.124479,215.89261,383.3282)">
          <path
             transform="matrix(0.001,0,0,0.001,0,0)"
             d="m 77,0 v 716 h 270 c 47,0 83,-3 109,-7 35,-6 64,-18 88,-34 24,-16 43,-39 58,-69 14,-30 22,-62 22,-97 C 624,447 604,396 565,354 526,312 456,291 355,291 H 172 V 0 H 77 m 95,375 h 185 c 61,0 104,11 130,34 26,23 39,55 39,97 0,30 -8,55 -23,77 -16,21 -36,35 -60,42 -16,4 -46,6 -88,6 H 172 V 375"
             id="path17768" />
        </g>
        <g
           id="use10838"
           style="fill:#333333"
           transform="matrix(8.124479,0,0,-8.124479,221.31165,383.3282)">
          <path
             transform="matrix(0.001,0,0,0.001,0,0)"
             d="M 124,-209 H 61 c 97,156 146,311 146,468 0,61 -7,122 -21,182 -12,48 -27,95 -47,141 -13,28 -39,77 -78,146 h 63 C 184,646 229,564 259,482 284,410 297,336 297,259 297,171 280,86 246,4 212,-77 172,-148 124,-209"
             id="path17704" />
        </g>
        <path
           transform="matrix(0.33852,0,0,-0.33852,90.238,483.35704)"
           stroke-width="3"
           stroke-linecap="round"
           stroke-linejoin="round"
           fill="none"
           stroke="#006699"
           d="m 177.29219,269.6544 h 48"
           id="path10840" />
        <path
           transform="matrix(0.33852,0,0,-0.33852,90.238,483.35704)"
           d="m 201.29219,259.04777 6.36396,10.60663 -6.36396,10.6066 -6.36396,-10.6066 z"
           fill="#006699"
           id="path10842" />
        <path
           transform="matrix(0.33852,0,0,-0.33852,90.238,483.35704)"
           stroke-width="2"
           stroke-linecap="butt"
           stroke-miterlimit="10"
           stroke-linejoin="miter"
           fill="none"
           stroke="#006699"
           d="m 201.29219,259.04777 6.36396,10.60663 -6.36396,10.6066 -6.36396,-10.6066 z"
           id="path10844" />
        <g
           id="use10846"
           style="fill:#333333"
           transform="matrix(8.124479,0,0,-8.124479,173.0035,394.9172)">
          <path
             transform="matrix(0.001,0,0,0.001,0,0)"
             d="M 0,0 273,716 H 375 L 668,0 H 561 L 477,217 H 178 L 99,0 H 0 m 205,294 h 243 l -75,198 c -23,60 -40,110 -51,149 -9,-46 -22,-92 -38,-137 L 205,294"
             id="path17716" />
        </g>
        <g
           id="use10848"
           style="fill:#333333"
           transform="matrix(8.124479,0,0,-8.124479,178.42252,394.9172)">
          <path
             transform="matrix(0.001,0,0,0.001,0,0)"
             d="M 402,0 V 65 C 369,14 321,-11 257,-11 215,-11 177,0 143,23 108,45 81,77 62,118 43,158 34,205 34,259 c 0,51 8,98 26,140 17,42 43,75 77,97 34,22 73,34 116,34 31,0 59,-7 84,-20 24,-13 44,-30 59,-51 v 257 h 88 V 0 H 402 M 125,259 c 0,-67 13,-117 41,-149 28,-33 61,-49 100,-49 38,0 70,15 97,47 27,31 41,79 41,143 0,71 -14,123 -41,157 -28,33 -61,50 -101,50 -40,0 -72,-16 -98,-48 -26,-32 -39,-83 -39,-151"
             id="path17696" />
        </g>
        <g
           id="use10850"
           style="fill:#333333"
           transform="matrix(8.124479,0,0,-8.124479,182.93973,394.9172)">
          <path
             transform="matrix(0.001,0,0,0.001,0,0)"
             d="M 404,64 C 371,36 340,16 310,5 280,-5 247,-11 213,-11 156,-11 112,2 82,30 51,58 36,93 36,137 c 0,25 5,48 17,69 12,21 27,38 46,51 18,12 39,22 63,29 17,4 43,8 78,13 71,8 123,18 157,30 0,12 0,19 0,23 0,36 -8,61 -24,76 -23,20 -57,30 -101,30 -42,0 -72,-8 -92,-22 -20,-15 -34,-41 -43,-77 l -86,12 c 8,36 21,66 39,89 18,22 43,40 77,52 34,12 73,18 118,18 44,0 80,-6 108,-16 28,-10 48,-23 61,-39 13,-16 22,-35 27,-59 3,-16 5,-43 5,-82 V 217 c 0,-82 1,-133 5,-155 4,-22 11,-42 23,-62 h -92 c -10,18 -16,39 -18,64 m -7,196 c -32,-13 -80,-24 -144,-33 -36,-6 -62,-12 -77,-18 -15,-6 -26,-16 -34,-28 -8,-13 -12,-27 -12,-42 0,-24 8,-43 26,-59 18,-16 44,-23 78,-23 34,0 64,7 90,22 26,15 46,35 59,61 9,20 14,49 14,88 v 32"
             id="path17692" />
        </g>
        <g
           id="use10852"
           style="fill:#333333"
           transform="matrix(8.124479,0,0,-8.124479,187.45694,394.9172)">
          <path
             transform="matrix(0.001,0,0,0.001,0,0)"
             d="m 66,-198 v 717 h 80 v -68 c 18,26 40,46 64,59 24,13 52,20 86,20 44,0 83,-12 117,-34 34,-23 59,-55 77,-97 17,-42 26,-87 26,-136 C 516,210 506,162 487,120 468,77 440,44 404,22 368,0 330,-11 290,-11 260,-11 234,-5 211,7 187,19 168,34 154,54 V -198 H 66 m 80,454 c 0,-67 13,-116 40,-148 27,-32 60,-47 98,-47 39,0 72,16 100,49 28,33 42,84 42,154 0,66 -14,115 -41,148 -27,32 -59,49 -97,49 -38,0 -71,-18 -99,-53 -29,-35 -43,-86 -43,-152"
             id="path17688" />
        </g>
        <g
           id="use10854"
           style="fill:#333333"
           transform="matrix(8.124479,0,0,-8.124479,191.97415,394.9172)">
          <path
             transform="matrix(0.001,0,0,0.001,0,0)"
             d="M 258,79 271,1 C 245,-3 223,-6 204,-6 172,-6 147,-1 130,8 112,18 100,31 93,48 85,64 82,99 82,152 V 450 H 18 v 69 h 64 v 128 l 87,53 V 519 h 89 V 450 H 169 V 147 c 0,-26 1,-42 5,-49 3,-7 8,-13 15,-17 7,-4 17,-6 30,-6 10,0 23,1 39,4"
             id="path17912" />
        </g>
        <g
           id="use10856"
           style="fill:#333333"
           transform="matrix(8.124479,0,0,-8.124479,194.23276,394.9172)">
          <path
             transform="matrix(0.001,0,0,0.001,0,0)"
             d="m 421,167 91,-11 C 497,102 470,61 432,32 393,3 344,-11 284,-11 208,-11 147,12 103,58 59,104 37,170 37,255 c 0,87 22,155 67,203 44,48 103,72 175,72 69,0 126,-24 170,-71 44,-47 66,-113 66,-199 0,-6 -1,-13 -1,-23 H 127 c 3,-58 19,-101 48,-131 29,-30 65,-45 109,-45 32,0 60,8 83,25 22,16 40,43 54,81 M 132,309 h 290 c -4,44 -15,76 -33,98 -28,34 -65,51 -109,51 -41,0 -75,-14 -102,-41 -28,-27 -43,-63 -46,-108"
             id="path17896" />
        </g>
        <g
           id="use10858"
           style="fill:#333333"
           transform="matrix(8.124479,0,0,-8.124479,198.74996,394.9172)">
          <path
             transform="matrix(0.001,0,0,0.001,0,0)"
             d="m 65,0 v 519 h 79 v -79 c 20,36 38,60 56,72 17,12 36,18 56,18 30,0 60,-10 91,-28 l -31,-82 c -22,12 -43,19 -64,19 -20,0 -37,-6 -52,-17 -16,-12 -27,-28 -33,-48 -10,-32 -14,-66 -14,-103 V 0 H 65"
             id="path17784" />
        </g>
      </g>
    </g>
  </g>
</svg>
