<!-- Created with Inkscape (http://www.inkscape.org/) -->
<svg xmlns:inkscape="http://www.inkscape.org/namespaces/inkscape"
    xmlns:sodipodi="http://sodipodi.sourceforge.net/DTD/sodipodi-0.dtd"
    xmlns="http://www.w3.org/2000/svg" xmlns:svg="http://www.w3.org/2000/svg" version="1.1"
    id="svg1" width="304.49066" height="326.34933" viewBox="0 0 304.49066 326.34933"
    sodipodi:docname="unit_circle.svg" inkscape:version="1.3 (0e150ed, 2023-07-21)">
    <style type="text/css">
        .fill-red {fill:#BF616A;}
        .stroke-red {stroke:#BF616A;}
        .fill-orange {fill:#D08770;}
        .stroke-orange {stroke:#D08770;}
        .fill-yellow {fill:#EBCB8B;}
        .stroke-yellow {stroke:#EBCB8B;}
        .fill-green {fill:#A3BE8C;}
        .stroke-green {stroke:#A3BE8C;}
        .fill-cyan {fill:#88C0D0;}
        .stroke-cyan {stroke:#88C0D0;}
        .fill-blue {fill:#81A1C1;}
        .stroke-blue {stroke:#81A1C1;}
        .fill-purple {fill:#B48EAD;}
        .stroke-purple {stroke:#B48EAD;}
        .fill-pink {fill:#B48EAD;}
        .stroke-pink {stroke:#B48EAD;}
        .fill-bg1 {fill:#2E3440;}
        .stroke-bg1 {stroke:#2E3440;}
        .fill-bg2 {fill:#3B4252;}
        .stroke-bg2 {stroke:#3B4252;}
        .fill-bg3 {fill:#434C5E;}
        .stroke-bg3 {stroke:#434C5E;}
        .fill-tx1 {fill:#D8DEE9;}
        .stroke-tx1 {stroke:#D8DEE9;}
        .fill-tx2 {fill:#9EAFCC;}
        .stroke-tx2 {stroke:#9EAFCC;}
        .fill-tx3 {fill:#4C566A;}
        .stroke-tx3 {stroke:#4C566A;}</style>
    <defs id="defs1" />
    <sodipodi:namedview id="namedview1" pagecolor="#ffffff" bordercolor="#999999" borderopacity="1"
        inkscape:showpageshadow="0" inkscape:pageopacity="0" inkscape:pagecheckerboard="0"
        inkscape:deskcolor="#d1d1d1" inkscape:zoom="5.6848948" inkscape:cx="290.94646"
        inkscape:cy="211.52546" inkscape:window-width="1504" inkscape:window-height="800"
        inkscape:window-x="1504" inkscape:window-y="1649" inkscape:window-maximized="0"
        inkscape:current-layer="g1">
        <inkscape:page x="0" y="0" inkscape:label="1" id="page1" width="304.49066"
            height="326.34933" margin="0" bleed="0" />
    </sodipodi:namedview>
    <g id="g1" inkscape:groupmode="layer" inkscape:label="1">
        <path id="path1" d="M -97.79594,0 H 95.20567"
            style="fill:none;stroke:currentColor;stroke-width:0.79701;stroke-linecap:butt;stroke-linejoin:miter;stroke-miterlimit:10;stroke-dasharray:none;stroke-opacity:1"
            transform="matrix(1.3333333,0,0,-1.3333333,153.21867,161.75333)" />
        <path id="path2" d="M 2.59026,0 -1.55415,2.0722 0,0 -1.55415,-2.0722"
            style="fill:currentColor;fill-opacity:1;fill-rule:nonzero;stroke:none"
            transform="matrix(1.3333333,0,0,-1.3333333,280.15956,161.75333)" />
        <path id="path3" d="M 0,-97.79594 V 95.20567"
            style="fill:none;stroke:currentColor;stroke-width:0.79701;stroke-linecap:butt;stroke-linejoin:miter;stroke-miterlimit:10;stroke-dasharray:none;stroke-opacity:1"
            transform="matrix(1.3333333,0,0,-1.3333333,153.21867,161.75333)" />
        <path id="path4" d="M 2.59026,0 -1.55415,2.0722 0,0 -1.55415,-2.0722"
            style="fill:currentColor;fill-opacity:1;fill-rule:nonzero;stroke:none"
            transform="matrix(0,-1.3333333,-1.3333333,0,153.21867,34.81244)" />
        <path id="path5"
            d="M 85.04042,0 C 85.04042,46.96713 46.96713,85.04042 0,85.04042 -46.96713,85.04042 -85.04042,46.96713 -85.04042,0 c 0,-46.96713 38.07329,-85.04042 85.04042,-85.04042 46.96713,0 85.04042,38.07329 85.04042,85.04042 z"
            style="fill:none;stroke:currentColor;stroke-width:0.79701;stroke-linecap:butt;stroke-linejoin:miter;stroke-miterlimit:10;stroke-dasharray:none;stroke-opacity:1"
            transform="matrix(1.3333333,0,0,-1.3333333,153.21867,161.75333)" />
        <path id="path6"
            d="m 83.33923,-4.25224 c -0.74717,-1.49443 -2.49069,-2.4907 -4.98138,-2.4907 H 47.50157 c -2.49069,0 -4.23421,-0.99626 -4.98138,-2.49069 -0.74718,1.49443 -2.49069,2.49069 -4.98139,2.49069 H 6.68253 c -2.4907,0 -4.23421,0.99627 -4.98139,2.4907"
            style="fill:none;stroke:currentColor;stroke-width:0.79701;stroke-linecap:butt;stroke-linejoin:miter;stroke-miterlimit:10;stroke-dasharray:none;stroke-opacity:1"
            transform="matrix(1.3333333,0,0,-1.3333333,153.21867,161.75333)" />
        <path id="path7"
            d="m 4.1356406,-9.1985469 c 0,-0.328125 0,-0.3398437 -0.2929687,-0.3398437 -0.3398438,0.3867187 -1.0664063,0.9140625 -2.5429688,0.9140625 v 0.421875 c 0.3398438,0 1.0546875,0 1.8398438,-0.375 v 7.4765625 c 0,0.51562498 -0.046875,0.69140623 -1.3007813,0.69140623 H 1.3934531 V 6.71875e-4 c 0.3867188,-0.023437495 1.78125,-0.023437495 2.25,-0.023437495 0.46875,0 1.8515625,0 2.2382813,0.023437495 V -0.40948437 H 5.4364219 c -1.265625,0 -1.3007813,-0.17578125 -1.3007813,-0.69140623 z m 0,0"
            style="fill:currentColor;fill-opacity:1;fill-rule:nonzero;stroke:none" aria-label="1"
            transform="matrix(1.3333333,0,0,1.3333333,205.228,191.35067)" />
        <path id="path8" d="M 2.98883,42.52019 H -2.98883"
            style="fill:none;stroke:currentColor;stroke-width:0.79701;stroke-linecap:butt;stroke-linejoin:miter;stroke-miterlimit:10;stroke-dasharray:none;stroke-opacity:1"
            transform="matrix(1.3333333,0,0,-1.3333333,153.21867,161.75333)" />
        <path id="path9"
            d="m 2.9299844,-6.3749922 c 0,-0.234375 0,-0.2578125 -0.234375,-0.2578125 -0.609375,0.6328125 -1.4882813,0.6328125 -1.80468752,0.6328125 v 0.3164063 c 0.19921872,0 0.78515622,0 1.30078122,-0.2578125 v 5.15624996 c 0,0.3515625 -0.035156,0.48046875 -0.9257812,0.48046875 H 0.94951563 V 7.8125e-6 C 1.3010781,-0.03514844 2.1565469,-0.03514844 2.5549844,-0.03514844 c 0.3984375,0 1.265625,0 1.6171875,0.0351562525 V -0.30467969 H 3.8557656 c -0.9023437,0 -0.9257812,-0.1171875 -0.9257812,-0.48046875 z m 0,0"
            style="fill:currentColor;fill-opacity:1;fill-rule:nonzero;stroke:none" aria-label="1"
            transform="matrix(1.3333333,0,0,1.3333333,136.03867,102.27733)" />
        <path id="path10" d="M 0,0 H 4.981"
            style="fill:currentColor;stroke:currentColor;stroke-width:0.398;stroke-linecap:butt;stroke-linejoin:miter;stroke-miterlimit:10;stroke-dasharray:none;stroke-opacity:1"
            transform="matrix(1.3333333,0,0,-1.3333333,136.03867,105.02667)" />
        <path id="path11"
            d="M 1.2659219,-0.76103125 2.3206094,-1.7922812 c 1.5585937,-1.3710938 2.15625,-1.9101563 2.15625,-2.90625 0,-1.1367188 -0.9023438,-1.9335938 -2.1210938,-1.9335938 -1.125,0 -1.85156247,0.9140625 -1.85156247,1.8046875 0,0.5507813 0.4921875,0.5507813 0.52734377,0.5507813 0.1640625,0 0.515625,-0.1171875 0.515625,-0.5273438 0,-0.2578125 -0.1875,-0.515625 -0.5273438,-0.515625 -0.0820312,0 -0.10546872,0 -0.12890622,0.011719 0.22265622,-0.6445313 0.76171872,-1.0195313 1.33593752,-1.0195313 0.9140625,0 1.3359375,0.8085938 1.3359375,1.6289063 0,0.796875 -0.4921875,1.5820312 -1.0429688,2.203125 L 0.60967188,-0.36259375 C 0.50420313,-0.257125 0.50420313,-0.2336875 0.50420313,6.875e-4 H 4.1956094 l 0.28125,-1.734375 H 4.2190469 C 4.1721719,-1.429 4.1018594,-0.99540625 4.0081094,-0.8430625 3.9377964,-0.7610312 3.2815469,-0.7610312 3.0588906,-0.7610312 Z m 0,0"
            style="fill:currentColor;fill-opacity:1;fill-rule:nonzero;stroke:none" aria-label="2"
            transform="matrix(1.3333333,0,0,1.3333333,136.03867,116.40533)" />
        <path id="path12" d="M 85.04042,0 H 76.53587"
            style="fill:none;stroke:currentColor;stroke-width:0.79701;stroke-linecap:butt;stroke-linejoin:miter;stroke-miterlimit:10;stroke-dasharray:none;stroke-opacity:1"
            transform="matrix(1.3333333,0,0,-1.3333333,153.21867,161.75333)" />
        <path id="path14"
            d="m 6.4214375,-4.5932734 c 0,-1.1835938 -0.070312,-2.34375 -0.5859375,-3.4335938 -0.5859375,-1.1953125 -1.6171875,-1.5117187 -2.3203125,-1.5117187 -0.8320313,0 -1.8515625,0.421875 -2.3789063,1.6054687 C 0.726125,-7.0307734 0.5855,-6.1401484 0.5855,-4.5932734 c 0,1.3945312 0.10546875,2.4375 0.6210937,3.4570312 0.5625,1.08984376 1.546875,1.44140626 2.296875,1.44140626 1.2421875,0 1.9570313,-0.75 2.3789063,-1.58203126 0.515625,-1.078125 0.5390625,-2.484375 0.5390625,-3.3164062 z M 3.5034687,0.01219531 c -0.46875,0 -1.3945312,-0.2578125 -1.6640625,-1.81640621 -0.1640625,-0.8671875 -0.1640625,-1.9570313 -0.1640625,-2.953125 0,-1.1835938 0,-2.2382813 0.234375,-3.09375 0.2460938,-0.9609375 0.9726563,-1.3945313 1.59375,-1.3945313 0.5390625,0 1.3710938,0.328125 1.640625,1.5585938 0.1875,0.8203125 0.1875,1.9453125 0.1875,2.9296875 0,0.9609375 0,2.0507812 -0.1523437,2.9179687 -0.2695313,1.58203126 -1.1835938,1.85156251 -1.6757813,1.85156251 z m 0,0"
            style="fill:currentColor;fill-opacity:1;fill-rule:nonzero;stroke:none" aria-label="0"
            transform="matrix(1.3333333,0,0,1.3333333,292.46933,167.91733)" />
        <path id="path15"
            d="m 86.74156,0 c 0,0.93951 -0.76161,1.70114 -1.70114,1.70114 -0.93953,0 -1.70114,-0.76163 -1.70114,-1.70114 0,-0.93951 0.76161,-1.70114 1.70114,-1.70114 0.93953,0 1.70114,0.76163 1.70114,1.70114 z"
            style="fill:currentColor;fill-opacity:1;fill-rule:nonzero;stroke:none"
            transform="matrix(1.3333333,0,0,-1.3333333,153.21867,161.75333)" />
        <path id="path16" d="M 73.64732,42.52019 66.28215,38.26793"
            style="fill:none;stroke:currentColor;stroke-width:0.79701;stroke-linecap:butt;stroke-linejoin:miter;stroke-miterlimit:10;stroke-dasharray:none;stroke-opacity:1"
            transform="matrix(1.3333333,0,0,-1.3333333,153.21867,161.75333)" />
        <path id="path18"
            d="m 2.6364375,-3.7161797 h 1.125 c -0.328125,1.4765625 -0.4101562,1.8984375 -0.4101562,2.5664063 0,0.15234371 0,0.42187496 0.070312,0.76171871 0.1054687,0.43359375 0.2109375,0.4921875 0.3632812,0.4921875 0.1992188,0 0.4101563,-0.17578125 0.4101563,-0.375 0,-0.0585938 0,-0.0820313 -0.058594,-0.22265625 -0.292968,-0.71484376 -0.292968,-1.35937496 -0.292968,-1.64062496 0,-0.5273438 0.070312,-1.0664063 0.1757812,-1.5820313 h 1.1367188 c 0.1289062,0 0.4921875,0 0.4921875,-0.3398437 0,-0.234375 -0.2109375,-0.234375 -0.3984375,-0.234375 H 1.909875 c -0.2109375,0 -0.5976562,0 -1.03125,0.46875 -0.3515625,0.3867187 -0.609375,0.84375 -0.609375,0.890625 0,0.011719 0,0.1054687 0.1171875,0.1054687 0.0820313,0 0.10546875,-0.046875 0.1640625,-0.1289062 0.4804688,-0.7617188 1.0664063,-0.7617188 1.265625,-0.7617188 h 0.5625 c -0.3164062,1.2070313 -0.8554687,2.4140625 -1.2773437,3.31640626 -0.070312,0.15234375 -0.070312,0.1640625 -0.070312,0.234375 0,0.19921875 0.1523437,0.26953125 0.28125,0.26953125 0.3046875,0 0.3867187,-0.26953125 0.5039062,-0.64453125 C 1.95675,-0.99742969 1.95675,-1.0208672 2.0856563,-1.5130547 Z m 0,0"
            style="fill:currentColor;fill-opacity:1;fill-rule:nonzero;stroke:none"
            aria-label="&#960;" transform="matrix(1.3333333,0,0,1.3333333,266.016,82.076)" />
        <path id="path19" d="M 0,0 H 6.036"
            style="fill:currentColor;stroke:currentColor;stroke-width:0.398;stroke-linecap:butt;stroke-linejoin:miter;stroke-miterlimit:10;stroke-dasharray:none;stroke-opacity:1"
            transform="matrix(1.3333333,0,0,-1.3333333,266.016,84.825333)" />
        <path id="path20"
            d="m 1.3125625,-3.2691875 v -0.234375 c 0,-2.5195313 1.2421875,-2.8828125 1.7460938,-2.8828125 0.234375,0 0.65625,0.058594 0.8789062,0.3984375 -0.1523437,0 -0.5507812,0 -0.5507812,0.4453125 0,0.3164062 0.234375,0.4570312 0.4570312,0.4570312 0.1640625,0 0.4570313,-0.082031 0.4570313,-0.46875 0,-0.5976562 -0.4335938,-1.078125 -1.265625,-1.078125 -1.2773438,0 -2.6132813,1.2890625 -2.6132813,3.4804688 0,2.66015625 1.1484375,3.375 2.0742188,3.375 1.1132812,0 2.0507812,-0.9375 2.0507812,-2.25 0,-1.265625 -0.8789062,-2.2265625 -1.9921875,-2.2265625 -0.6679687,0 -1.0429687,0.5039062 -1.2421875,0.984375 z M 2.4961563,-0.05825 c -0.6210938,0 -0.9257813,-0.59765625 -0.984375,-0.75 C 1.336,-1.277 1.336,-2.073875 1.336,-2.2496563 c 0,-0.7734375 0.3164063,-1.7695312 1.21875,-1.7695312 0.1523438,0 0.609375,0 0.9257813,0.609375 0.1757812,0.375 0.1757812,0.8789062 0.1757812,1.3710937 0,0.4804688 0,0.9726563 -0.1640625,1.33593755 C 3.1875625,-0.105125 2.7305313,-0.05825 2.4961563,-0.05825 Z m 0,0"
            style="fill:currentColor;fill-opacity:1;fill-rule:nonzero;stroke:none" aria-label="6"
            transform="matrix(1.3333333,0,0,1.3333333,266.71867,96.202667)" />
        <path id="path21"
            d="m 75.34848,42.52019 c 0,0.93953 -0.76163,1.70114 -1.70116,1.70114 -0.93952,0 -1.70114,-0.76161 -1.70114,-1.70114 0,-0.93953 0.76162,-1.70116 1.70114,-1.70116 0.93953,0 1.70116,0.76163 1.70116,1.70116 z"
            style="fill:currentColor;fill-opacity:1;fill-rule:nonzero;stroke:none"
            transform="matrix(1.3333333,0,0,-1.3333333,153.21867,161.75333)" />
        <path id="path22" d="M 60.13269,60.13269 54.11905,54.11905"
            style="fill:none;stroke:currentColor;stroke-width:0.79701;stroke-linecap:butt;stroke-linejoin:miter;stroke-miterlimit:10;stroke-dasharray:none;stroke-opacity:1"
            transform="matrix(1.3333333,0,0,-1.3333333,153.21867,161.75333)" />
        <path id="path24"
            d="m 2.6372031,-3.7162031 h 1.125 c -0.328125,1.4765625 -0.4101562,1.8984375 -0.4101562,2.5664062 0,0.15234377 0,0.42187502 0.070312,0.76171877 0.1054687,0.43359375 0.2109375,0.4921875 0.3632812,0.4921875 0.1992188,0 0.4101563,-0.17578125 0.4101563,-0.375 0,-0.0585938 0,-0.0820313 -0.058594,-0.22265625 -0.292968,-0.71484372 -0.292968,-1.35937502 -0.292968,-1.64062502 0,-0.5273437 0.070312,-1.0664062 0.1757812,-1.5820312 h 1.1367188 c 0.1289062,0 0.4921875,0 0.4921875,-0.3398438 0,-0.234375 -0.2109375,-0.234375 -0.3984375,-0.234375 H 1.9106406 c -0.2109375,0 -0.5976562,0 -1.03124997,0.46875 -0.3515625,0.3867188 -0.609375,0.84375 -0.609375,0.890625 0,0.011719 0,0.1054688 0.1171875,0.1054688 0.0820313,0 0.10546875,-0.046875 0.1640625,-0.1289063 C 1.0317344,-3.7162031 1.6176719,-3.7162031 1.8168906,-3.7162031 h 0.5625 c -0.3164062,1.2070312 -0.8554687,2.4140625 -1.2773437,3.31640622 -0.070312,0.15234375 -0.070312,0.1640625 -0.070312,0.234375 0,0.19921875 0.1523437,0.26953125 0.28125,0.26953125 0.3046875,0 0.3867187,-0.26953125 0.5039062,-0.64453125 0.140625,-0.45703125 0.140625,-0.48046872 0.2695313,-0.97265622 z m 0,0"
            style="fill:currentColor;fill-opacity:1;fill-rule:nonzero;stroke:none"
            aria-label="&#960;" transform="matrix(1.3333333,0,0,1.3333333,246.19467,56.244)" />
        <path id="path25" d="M 0,0 H 6.036"
            style="fill:currentColor;stroke:currentColor;stroke-width:0.398;stroke-linecap:butt;stroke-linejoin:miter;stroke-miterlimit:10;stroke-dasharray:none;stroke-opacity:1"
            transform="matrix(1.3333333,0,0,-1.3333333,246.19467,58.993333)" />
        <path id="path26"
            d="m 2.9305156,-1.6413047 v 0.86718751 c 0,0.3515625 -0.023437,0.46875 -0.7617187,0.46875 H 1.9578594 V -6.796875e-4 C 2.3680156,-0.03583594 2.8953594,-0.03583594 3.3055156,-0.03583594 c 0.421875,0 0.9492188,0 1.359375,0.0351562525 V -0.30536719 H 4.4539531 c -0.7382812,0 -0.7617187,-0.1171875 -0.7617187,-0.46875 V -1.6413047 H 4.6883281 V -1.9577109 H 3.6922344 v -4.5234375 c 0,-0.1992188 0,-0.2578125 -0.1523438,-0.2578125 -0.09375,0 -0.1171875,0 -0.1992187,0.1171875 l -3.05859377,4.6640625 v 0.3164062 z m 0.058594,-0.3164062 H 0.56332813 L 2.9891094,-5.6725547 Z m 0,0"
            style="fill:currentColor;fill-opacity:1;fill-rule:nonzero;stroke:none" aria-label="4"
            transform="matrix(1.3333333,0,0,1.3333333,246.89733,70.372)" />
        <path id="path27"
            d="m 61.83385,60.13269 c 0,0.93953 -0.76163,1.70116 -1.70116,1.70116 -0.93953,0 -1.70114,-0.76163 -1.70114,-1.70116 0,-0.93953 0.76161,-1.70114 1.70114,-1.70114 0.93953,0 1.70116,0.76161 1.70116,1.70114 z"
            style="fill:currentColor;fill-opacity:1;fill-rule:nonzero;stroke:none"
            transform="matrix(1.3333333,0,0,-1.3333333,153.21867,161.75333)" />
        <path id="path28" d="M 42.52019,73.64732 38.26793,66.28215"
            style="fill:none;stroke:currentColor;stroke-width:0.79701;stroke-linecap:butt;stroke-linejoin:miter;stroke-miterlimit:10;stroke-dasharray:none;stroke-opacity:1"
            transform="matrix(1.3333333,0,0,-1.3333333,153.21867,161.75333)" />
        <path id="path30"
            d="m 2.6371797,-3.7154375 h 1.125 C 3.4340547,-2.238875 3.3520234,-1.817 3.3520234,-1.1490313 c 0,0.1523438 0,0.42187505 0.070312,0.7617188 0.1054688,0.43359375 0.2109375,0.4921875 0.3632813,0.4921875 0.1992187,0 0.4101562,-0.17578125 0.4101562,-0.375 0,-0.0585938 0,-0.0820313 -0.058594,-0.22265625 -0.292968,-0.71484375 -0.292968,-1.35937505 -0.292968,-1.64062505 0,-0.5273437 0.070312,-1.0664062 0.1757813,-1.5820312 h 1.1367187 c 0.1289063,0 0.4921875,0 0.4921875,-0.3398438 0,-0.234375 -0.2109375,-0.234375 -0.3984375,-0.234375 H 1.9106172 c -0.2109375,0 -0.5976563,0 -1.03125001,0.46875 -0.3515625,0.3867188 -0.609375,0.84375 -0.609375,0.890625 0,0.011719 0,0.1054688 0.1171875,0.1054688 0.0820313,0 0.10546875,-0.046875 0.1640625,-0.1289063 C 1.0317109,-3.7154375 1.6176484,-3.7154375 1.8168672,-3.7154375 h 0.5625 c -0.3164063,1.2070312 -0.8554688,2.4140625 -1.2773438,3.31640625 -0.070312,0.15234375 -0.070312,0.1640625 -0.070312,0.234375 0,0.19921875 0.1523438,0.26953125 0.28125,0.26953125 0.3046875,0 0.3867188,-0.26953125 0.5039063,-0.64453125 0.140625,-0.45703125 0.140625,-0.48046875 0.2695312,-0.97265625 z m 0,0"
            style="fill:currentColor;fill-opacity:1;fill-rule:nonzero;stroke:none"
            aria-label="&#960;" transform="matrix(1.3333333,0,0,1.3333333,220.36267,36.422667)" />
        <path id="path31" d="M 0,0 H 6.036"
            style="fill:currentColor;stroke:currentColor;stroke-width:0.398;stroke-linecap:butt;stroke-linejoin:miter;stroke-miterlimit:10;stroke-dasharray:none;stroke-opacity:1"
            transform="matrix(1.3333333,0,0,-1.3333333,220.36267,39.172)" />
        <path id="path32"
            d="m 2.8943359,-3.5038203 c 0.8085938,-0.2695313 1.3945313,-0.9726563 1.3945313,-1.7578125 0,-0.8203125 -0.8789063,-1.3710938 -1.8398438,-1.3710938 -1.0078125,0 -1.75781246,0.5976563 -1.75781246,1.3476563 0,0.3398437 0.2109375,0.5273437 0.50390626,0.5273437 0.3046875,0 0.5039062,-0.2226562 0.5039062,-0.515625 0,-0.4921875 -0.46875,-0.4921875 -0.609375,-0.4921875 0.3046875,-0.4921875 0.9609375,-0.6210937 1.3242188,-0.6210937 0.4101562,0 0.9492187,0.2226562 0.9492187,1.1132812 0,0.1289063 -0.011719,0.703125 -0.2695312,1.1367188 -0.3046875,0.4804687 -0.6445313,0.515625 -0.890625,0.515625 -0.082031,0.011719 -0.3164063,0.035156 -0.3867188,0.035156 -0.082031,0.011719 -0.1523437,0.023437 -0.1523437,0.1171875 0,0.1171875 0.070312,0.1171875 0.234375,0.1171875 h 0.4453125 c 0.8085937,0 1.1835937,0.6679688 1.1835937,1.6523438 0,1.34765624 -0.6914062,1.64062499 -1.125,1.64062499 -0.4335937,0 -1.171875,-0.17578125 -1.52343746,-0.76171875 0.35156246,0.0585938 0.65624996,-0.1640625 0.65624996,-0.53906254 0,-0.3632812 -0.2695312,-0.5625 -0.56249996,-0.5625 -0.234375,0 -0.55078125,0.140625 -0.55078125,0.5742188 0,0.91406249 0.92578121,1.57031249 2.00390621,1.57031249 1.21875,0 2.1210938,-0.9140625 2.1210938,-1.92187499 0,-0.8203125 -0.6210938,-1.59375 -1.6523438,-1.8046873 z m 0,0"
            style="fill:currentColor;fill-opacity:1;fill-rule:nonzero;stroke:none" aria-label="3"
            transform="matrix(1.3333333,0,0,1.3333333,221.06667,50.550667)" />
        <path id="path33"
            d="m 44.22133,73.64732 c 0,0.93953 -0.76161,1.70116 -1.70114,1.70116 -0.93953,0 -1.70116,-0.76163 -1.70116,-1.70116 0,-0.93952 0.76163,-1.70114 1.70116,-1.70114 0.93953,0 1.70114,0.76162 1.70114,1.70114 z"
            style="fill:currentColor;fill-opacity:1;fill-rule:nonzero;stroke:none"
            transform="matrix(1.3333333,0,0,-1.3333333,153.21867,161.75333)" />
        <path id="path34" d="M 0,85.04042 V 76.53587"
            style="fill:none;stroke:currentColor;stroke-width:0.79701;stroke-linecap:butt;stroke-linejoin:miter;stroke-miterlimit:10;stroke-dasharray:none;stroke-opacity:1"
            transform="matrix(1.3333333,0,0,-1.3333333,153.21867,161.75333)" />
        <path id="path36"
            d="m 2.6352734,-3.7155938 h 1.125 c -0.328125,1.4765625 -0.4101562,1.8984375 -0.4101562,2.5664063 0,0.15234375 0,0.421875 0.070312,0.76171875 0.1054687,0.43359375 0.2109375,0.4921875 0.3632812,0.4921875 0.1992188,0 0.4101563,-0.17578125 0.4101563,-0.375 0,-0.0585938 0,-0.0820313 -0.058594,-0.22265625 -0.2929687,-0.7148438 -0.2929687,-1.359375 -0.2929687,-1.640625 0,-0.5273438 0.070312,-1.0664063 0.1757812,-1.5820313 H 5.154804 c 0.1289062,0 0.4921875,0 0.4921875,-0.3398437 0,-0.234375 -0.2109375,-0.234375 -0.3984375,-0.234375 H 1.9087109 c -0.2109375,0 -0.5976562,0 -1.03124996,0.46875 -0.3515625,0.3867187 -0.609375,0.84375 -0.609375,0.890625 0,0.011719 0,0.1054687 0.1171875,0.1054687 0.0820313,0 0.10546875,-0.046875 0.1640625,-0.1289062 C 1.0298047,-3.7155938 1.6157422,-3.7155938 1.8149609,-3.7155938 h 0.5625 c -0.3164062,1.2070313 -0.8554687,2.4140625 -1.2773437,3.3164063 -0.070312,0.15234375 -0.070312,0.1640625 -0.070312,0.234375 0,0.19921875 0.1523437,0.26953125 0.28125,0.26953125 0.3046875,0 0.3867187,-0.26953125 0.5039062,-0.64453125 0.140625,-0.45703125 0.140625,-0.4804688 0.2695313,-0.9726563 z m 0,0"
            style="fill:currentColor;fill-opacity:1;fill-rule:nonzero;stroke:none"
            aria-label="&#960;" transform="matrix(1.3333333,0,0,1.3333333,149.19333,8.376)" />
        <path id="path37" d="M 0,0 H 6.036"
            style="fill:currentColor;stroke:currentColor;stroke-width:0.398;stroke-linecap:butt;stroke-linejoin:miter;stroke-miterlimit:10;stroke-dasharray:none;stroke-opacity:1"
            transform="matrix(1.3333333,0,0,-1.3333333,149.19333,11.125333)" />
        <path id="path38"
            d="M 1.2664531,-0.76078906 2.3211406,-1.7920391 c 1.5585938,-1.3710937 2.15625,-1.9101562 2.15625,-2.90625 0,-1.1367187 -0.9023437,-1.9335937 -2.1210937,-1.9335937 -1.125,0 -1.85156253,0.9140625 -1.85156253,1.8046875 0,0.5507812 0.4921875,0.5507812 0.52734373,0.5507812 0.1640625,0 0.515625,-0.1171875 0.515625,-0.5273437 0,-0.2578125 -0.1875,-0.515625 -0.5273437,-0.515625 -0.0820313,0 -0.10546878,0 -0.12890628,0.011719 C 1.1141094,-5.952195 1.6531719,-6.327195 2.2273906,-6.327195 c 0.9140625,0 1.3359375,0.8085937 1.3359375,1.6289062 0,0.796875 -0.4921875,1.5820313 -1.0429687,2.203125 L 0.61020312,-0.36235156 C 0.50473437,-0.25688281 0.50473437,-0.23344531 0.50473437,9.296875e-4 H 4.1961406 L 4.4773906,-1.7334453 H 4.2195781 c -0.046875,0.3046875 -0.1171875,0.73828124 -0.2109375,0.89062499 -0.070312,0.0820313 -0.7265625,0.0820313 -0.9492187,0.0820313 z m 0,0"
            style="fill:currentColor;fill-opacity:1;fill-rule:nonzero;stroke:none" aria-label="2"
            transform="matrix(1.3333333,0,0,1.3333333,149.89733,22.502667)" />
        <path id="path39"
            d="m 1.70114,85.04042 c 0,0.93953 -0.76163,1.70114 -1.70114,1.70114 -0.93951,0 -1.70114,-0.76161 -1.70114,-1.70114 0,-0.93953 0.76163,-1.70114 1.70114,-1.70114 0.93951,0 1.70114,0.76161 1.70114,1.70114 z"
            style="fill:currentColor;fill-opacity:1;fill-rule:nonzero;stroke:none"
            transform="matrix(1.3333333,0,0,-1.3333333,153.21867,161.75333)" />
        <path id="path40" d="m -42.52019,73.64732 4.25226,-7.36517"
            style="fill:none;stroke:currentColor;stroke-width:0.79701;stroke-linecap:butt;stroke-linejoin:miter;stroke-miterlimit:10;stroke-dasharray:none;stroke-opacity:1"
            transform="matrix(1.3333333,0,0,-1.3333333,153.21867,161.75333)" />
        <g id="g41" aria-label="2&#960;"
            transform="matrix(1.3333333,0,0,1.3333333,71.384,36.422667)" style="fill:currentColor">
            <path id="path42"
                d="m 1.2647344,-0.7623125 1.0546875,-1.03125 c 1.5585937,-1.3710938 2.15625,-1.9101563 2.15625,-2.90625 0,-1.1367188 -0.9023438,-1.9335938 -2.1210938,-1.9335938 -1.125,0 -1.85156248,0.9140625 -1.85156248,1.8046875 0,0.5507813 0.4921875,0.5507813 0.52734378,0.5507813 0.1640625,0 0.515625,-0.1171875 0.515625,-0.5273438 0,-0.2578125 -0.1875,-0.515625 -0.5273438,-0.515625 -0.0820312,0 -0.10546873,0 -0.12890623,0.011719 0.22265623,-0.6445313 0.76171873,-1.0195313 1.33593753,-1.0195313 0.9140625,0 1.3359375,0.8085938 1.3359375,1.6289063 0,0.796875 -0.4921875,1.5820312 -1.0429688,2.203125 L 0.60848437,-0.363875 C 0.50301562,-0.25840625 0.50301562,-0.23496875 0.50301562,-5.9375e-4 H 4.1944219 l 0.28125,-1.73437505 H 4.2178594 c -0.046875,0.3046875 -0.1171875,0.7382813 -0.2109375,0.89062505 -0.070312,0.0820313 -0.7265625,0.0820313 -0.9492188,0.0820313 z m 0,0"
                style="fill:currentColor;fill-opacity:1;fill-rule:nonzero;stroke:none" />
            <path id="path43"
                d="m 7.6162969,-3.7154375 h 1.125 C 8.4131719,-2.238875 8.3311406,-1.817 8.3311406,-1.1490313 c 0,0.1523438 0,0.42187505 0.070312,0.7617188 0.1054688,0.43359375 0.2109375,0.4921875 0.3632813,0.4921875 0.1992187,0 0.4101562,-0.17578125 0.4101562,-0.375 0,-0.0585938 0,-0.0820313 -0.058594,-0.22265625 -0.292968,-0.71484375 -0.292968,-1.35937505 -0.292968,-1.64062505 0,-0.5273437 0.070312,-1.0664062 0.1757813,-1.5820312 h 1.1367186 c 0.128906,0 0.492188,0 0.492188,-0.3398438 0,-0.234375 -0.210938,-0.234375 -0.398438,-0.234375 H 6.8897344 c -0.2109375,0 -0.5976563,0 -1.03125,0.46875 -0.3515625,0.3867188 -0.609375,0.84375 -0.609375,0.890625 0,0.011719 0,0.1054688 0.1171875,0.1054688 0.082031,0 0.1054687,-0.046875 0.1640625,-0.1289063 0.4804687,-0.7617187 1.0664062,-0.7617187 1.265625,-0.7617187 h 0.5625 c -0.3164063,1.2070312 -0.8554688,2.4140625 -1.2773438,3.31640625 -0.070312,0.15234375 -0.070312,0.1640625 -0.070312,0.234375 0,0.19921875 0.1523438,0.26953125 0.28125,0.26953125 0.3046875,0 0.3867188,-0.26953125 0.5039063,-0.64453125 0.140625,-0.45703125 0.140625,-0.48046875 0.2695312,-0.97265625 z m 0,0"
                style="fill:currentColor;fill-opacity:1;fill-rule:nonzero;stroke:none" />
        </g>
        <path id="path44" d="M 0,0 H 11.018"
            style="fill:currentColor;stroke:currentColor;stroke-width:0.398;stroke-linecap:butt;stroke-linejoin:miter;stroke-miterlimit:10;stroke-dasharray:none;stroke-opacity:1"
            transform="matrix(1.3333333,0,0,-1.3333333,71.384,39.172)" />
        <path id="path45"
            d="M 2.8932188,-3.5038203 C 3.7018125,-3.7733516 4.28775,-4.4764766 4.28775,-5.2616328 c 0,-0.8203125 -0.8789062,-1.3710938 -1.8398437,-1.3710938 -1.0078125,0 -1.75781255,0.5976563 -1.75781255,1.3476563 0,0.3398437 0.2109375,0.5273437 0.50390625,0.5273437 0.3046875,0 0.5039063,-0.2226562 0.5039063,-0.515625 0,-0.4921875 -0.46875,-0.4921875 -0.609375,-0.4921875 0.3046875,-0.4921875 0.9609375,-0.6210937 1.3242187,-0.6210937 0.4101563,0 0.9492188,0.2226562 0.9492188,1.1132812 0,0.1289063 -0.011719,0.703125 -0.2695313,1.1367188 -0.3046875,0.4804687 -0.6445312,0.515625 -0.890625,0.515625 -0.082031,0.011719 -0.3164062,0.035156 -0.3867187,0.035156 -0.082031,0.011719 -0.1523438,0.023437 -0.1523438,0.1171875 0,0.1171875 0.070312,0.1171875 0.234375,0.1171875 h 0.4453125 c 0.8085938,0 1.1835938,0.6679688 1.1835938,1.6523438 0,1.34765624 -0.6914063,1.64062499 -1.125,1.64062499 -0.4335938,0 -1.171875,-0.17578125 -1.52343755,-0.76171875 0.35156255,0.0585938 0.65625005,-0.1640625 0.65625005,-0.53906254 0,-0.3632812 -0.2695313,-0.5625 -0.56250005,-0.5625 -0.234375,0 -0.55078125,0.140625 -0.55078125,0.5742188 0,0.91406249 0.9257813,1.57031249 2.0039063,1.57031249 1.21875,0 2.1210937,-0.9140625 2.1210937,-1.92187499 0,-0.8203125 -0.6210937,-1.59375 -1.6523437,-1.8046873 z m 0,0"
            style="fill:currentColor;fill-opacity:1;fill-rule:nonzero;stroke:none" aria-label="3"
            transform="matrix(1.3333333,0,0,1.3333333,75.408,50.550667)" />
        <path id="path46"
            d="m -40.81903,73.64732 c 0,0.93953 -0.76163,1.70116 -1.70116,1.70116 -0.93953,0 -1.70114,-0.76163 -1.70114,-1.70116 0,-0.93952 0.76161,-1.70114 1.70114,-1.70114 0.93953,0 1.70116,0.76162 1.70116,1.70114 z"
            style="fill:currentColor;fill-opacity:1;fill-rule:nonzero;stroke:none"
            transform="matrix(1.3333333,0,0,-1.3333333,153.21867,161.75333)" />
        <path id="path47" d="m -60.13269,60.13269 6.01364,-6.01364"
            style="fill:none;stroke:currentColor;stroke-width:0.79701;stroke-linecap:butt;stroke-linejoin:miter;stroke-miterlimit:10;stroke-dasharray:none;stroke-opacity:1"
            transform="matrix(1.3333333,0,0,-1.3333333,153.21867,161.75333)" />
        <g id="g48" aria-label="3&#960;" transform="matrix(1.3333333,0,0,1.3333333,45.552,56.244)"
            style="fill:currentColor">
            <path id="path49"
                d="m 2.8936172,-3.5052656 c 0.8085937,-0.2695313 1.3945312,-0.9726563 1.3945312,-1.7578125 0,-0.8203125 -0.8789062,-1.3710938 -1.8398437,-1.3710938 -1.0078125,0 -1.75781251,0.5976563 -1.75781251,1.3476563 0,0.3398437 0.2109375,0.5273437 0.50390621,0.5273437 0.3046875,0 0.5039063,-0.2226562 0.5039063,-0.515625 0,-0.4921875 -0.46875,-0.4921875 -0.609375,-0.4921875 0.3046875,-0.4921875 0.9609375,-0.6210937 1.3242187,-0.6210937 0.4101563,0 0.9492188,0.2226562 0.9492188,1.1132812 0,0.1289063 -0.011719,0.703125 -0.2695313,1.1367188 -0.3046875,0.4804687 -0.6445312,0.515625 -0.890625,0.515625 -0.082031,0.011719 -0.3164062,0.035156 -0.3867187,0.035156 -0.082031,0.011719 -0.1523438,0.023437 -0.1523438,0.1171875 0,0.1171875 0.070312,0.1171875 0.234375,0.1171875 h 0.4453125 c 0.8085938,0 1.1835938,0.6679688 1.1835938,1.6523438 0,1.34765622 -0.6914063,1.64062497 -1.125,1.64062497 -0.4335938,0 -1.171875,-0.17578125 -1.52343751,-0.76171875 0.35156251,0.0585938 0.65625001,-0.1640625 0.65625001,-0.53906252 0,-0.3632812 -0.2695313,-0.5625 -0.56250001,-0.5625 -0.234375,0 -0.55078125,0.140625 -0.55078125,0.5742188 0,0.91406247 0.92578126,1.57031247 2.00390626,1.57031247 1.21875,0 2.1210937,-0.9140625 2.1210937,-1.92187497 0,-0.8203125 -0.6210937,-1.59375 -1.6523437,-1.8046873 z m 0,0"
                style="fill:currentColor;fill-opacity:1;fill-rule:nonzero;stroke:none" />
            <path id="path50"
                d="m 7.6162734,-3.7162031 h 1.125 c -0.328125,1.4765625 -0.4101562,1.8984375 -0.4101562,2.5664062 0,0.15234377 0,0.42187502 0.070312,0.76171877 0.1054687,0.43359375 0.2109375,0.4921875 0.3632812,0.4921875 0.1992188,0 0.4101563,-0.17578125 0.4101563,-0.375 0,-0.0585938 0,-0.0820313 -0.058594,-0.22265625 -0.292968,-0.71484372 -0.292968,-1.35937502 -0.292968,-1.64062502 0,-0.5273437 0.070312,-1.0664062 0.1757812,-1.5820312 h 1.1367191 c 0.128906,0 0.492187,0 0.492187,-0.3398438 0,-0.234375 -0.210937,-0.234375 -0.398437,-0.234375 H 6.8897109 c -0.2109375,0 -0.5976562,0 -1.03125,0.46875 -0.3515625,0.3867188 -0.609375,0.84375 -0.609375,0.890625 0,0.011719 0,0.1054688 0.1171875,0.1054688 0.082031,0 0.1054688,-0.046875 0.1640625,-0.1289063 0.4804688,-0.7617187 1.0664063,-0.7617187 1.265625,-0.7617187 h 0.5625 c -0.3164062,1.2070312 -0.8554687,2.4140625 -1.2773437,3.31640622 -0.070312,0.15234375 -0.070312,0.1640625 -0.070312,0.234375 0,0.19921875 0.1523437,0.26953125 0.28125,0.26953125 0.3046875,0 0.3867187,-0.26953125 0.5039062,-0.64453125 0.140625,-0.45703125 0.140625,-0.48046872 0.2695313,-0.97265622 z m 0,0"
                style="fill:currentColor;fill-opacity:1;fill-rule:nonzero;stroke:none" />
        </g>
        <path id="path51" d="M 0,0 H 11.018"
            style="fill:currentColor;stroke:currentColor;stroke-width:0.398;stroke-linecap:butt;stroke-linejoin:miter;stroke-miterlimit:10;stroke-dasharray:none;stroke-opacity:1"
            transform="matrix(1.3333333,0,0,-1.3333333,45.552,58.993333)" />
        <path id="path52"
            d="m 2.9283516,-1.6413047 v 0.86718751 c 0,0.3515625 -0.023437,0.46875 -0.7617188,0.46875 H 1.9556953 V -6.796875e-4 C 2.3658516,-0.03583594 2.8931953,-0.03583594 3.3033516,-0.03583594 c 0.421875,0 0.9492187,0 1.359375,0.0351562525 V -0.30536719 H 4.4517891 c -0.7382813,0 -0.7617188,-0.1171875 -0.7617188,-0.46875 V -1.6413047 H 4.6861641 V -1.9577109 H 3.6900703 v -4.5234375 c 0,-0.1992188 0,-0.2578125 -0.1523437,-0.2578125 -0.09375,0 -0.1171875,0 -0.1992188,0.1171875 l -3.05859374,4.6640625 v 0.3164062 z m 0.058594,-0.3164062 H 0.56116406 L 2.9869453,-5.6725547 Z m 0,0"
            style="fill:currentColor;fill-opacity:1;fill-rule:nonzero;stroke:none" aria-label="4"
            transform="matrix(1.3333333,0,0,1.3333333,49.576,70.372)" />
        <path id="path53"
            d="m -58.43155,60.13269 c 0,0.93953 -0.76161,1.70116 -1.70114,1.70116 -0.93953,0 -1.70116,-0.76163 -1.70116,-1.70116 0,-0.93953 0.76163,-1.70114 1.70116,-1.70114 0.93953,0 1.70114,0.76161 1.70114,1.70114 z"
            style="fill:currentColor;fill-opacity:1;fill-rule:nonzero;stroke:none"
            transform="matrix(1.3333333,0,0,-1.3333333,153.21867,161.75333)" />
        <path id="path54" d="m -73.64732,42.52019 7.36517,-4.25226"
            style="fill:none;stroke:currentColor;stroke-width:0.79701;stroke-linecap:butt;stroke-linejoin:miter;stroke-miterlimit:10;stroke-dasharray:none;stroke-opacity:1"
            transform="matrix(1.3333333,0,0,-1.3333333,153.21867,161.75333)" />
        <g id="g55" aria-label="5&#960;"
            transform="matrix(1.3333333,0,0,1.3333333,25.730667,82.076)" style="fill:currentColor">
            <path id="path56"
                d="m 4.4764141,-2.0052422 c 0,-1.1835937 -0.8203125,-2.1796875 -1.8984375,-2.1796875 -0.4804688,0 -0.9023438,0.1640625 -1.265625,0.5039063 v -1.9335938 c 0.1992187,0.058594 0.5273437,0.1289063 0.84375,0.1289063 1.2304687,0 1.9335937,-0.9140625 1.9335937,-1.0429688 0,-0.058594 -0.035156,-0.1054687 -0.1054687,-0.1054687 -0.011719,0 -0.035156,0 -0.082031,0.023437 -0.1992187,0.09375 -0.6796875,0.2929687 -1.3476562,0.2929687 -0.3984375,0 -0.8554688,-0.070312 -1.3242188,-0.28125 -0.082031,-0.023437 -0.1054687,-0.023437 -0.1289062,-0.023437 -0.09375,0 -0.09375,0.082031 -0.09375,0.234375 v 2.953125 c 0,0.1757813 0,0.2578125 0.140625,0.2578125 0.070312,0 0.082031,-0.035156 0.1289062,-0.09375 0.1054688,-0.1523437 0.4804688,-0.6914062 1.2773438,-0.6914062 0.5273437,0 0.7734375,0.4570312 0.8554687,0.6328125 0.1523438,0.375 0.1757813,0.7617187 0.1757813,1.2539062 0,0.3515625 0,0.9492188 -0.234375,1.37109376 -0.2460938,0.38671875 -0.609375,0.64453125 -1.0664063,0.64453125 -0.7265625,0 -1.30078124,-0.52734375 -1.46484374,-1.11328121 0.0234375,0.011719 0.0585938,0.011719 0.1640625,0.011719 0.32812504,0 0.50390624,-0.2460937 0.50390624,-0.4804687 0,-0.2460938 -0.1757812,-0.4921875 -0.50390624,-0.4921875 -0.140625,0 -0.48046875,0.070312 -0.48046875,0.5273437 0,0.85546876 0.67968749,1.82812501 1.79296879,1.82812501 1.1601562,0 2.1796875,-0.9609375 2.1796872,-2.22656281 z m 0,0"
                style="fill:currentColor;fill-opacity:1;fill-rule:nonzero;stroke:none" />
            <path id="path57"
                d="m 7.6170391,-3.7161797 h 1.125 c -0.328125,1.4765625 -0.4101563,1.8984375 -0.4101563,2.5664063 0,0.15234371 0,0.42187496 0.070312,0.76171871 0.1054688,0.43359375 0.2109375,0.4921875 0.3632813,0.4921875 0.1992187,0 0.4101562,-0.17578125 0.4101562,-0.375 0,-0.0585938 0,-0.0820313 -0.058594,-0.22265625 -0.292968,-0.71484376 -0.292968,-1.35937496 -0.292968,-1.64062496 0,-0.5273438 0.070312,-1.0664063 0.1757813,-1.5820313 H 10.13657 c 0.128907,0 0.492188,0 0.492188,-0.3398437 0,-0.234375 -0.210938,-0.234375 -0.398438,-0.234375 H 6.8904766 c -0.2109375,0 -0.5976563,0 -1.03125,0.46875 -0.3515625,0.3867187 -0.609375,0.84375 -0.609375,0.890625 0,0.011719 0,0.1054687 0.1171875,0.1054687 0.082031,0 0.1054687,-0.046875 0.1640625,-0.1289062 0.4804687,-0.7617188 1.0664062,-0.7617188 1.265625,-0.7617188 h 0.5625 c -0.3164063,1.2070313 -0.8554688,2.4140625 -1.2773438,3.31640626 -0.070312,0.15234375 -0.070312,0.1640625 -0.070312,0.234375 0,0.19921875 0.1523438,0.26953125 0.28125,0.26953125 0.3046875,0 0.3867188,-0.26953125 0.5039063,-0.64453125 0.140625,-0.45703125 0.140625,-0.48046876 0.2695312,-0.97265626 z m 0,0"
                style="fill:currentColor;fill-opacity:1;fill-rule:nonzero;stroke:none" />
        </g>
        <path id="path58" d="M 0,0 H 11.018"
            style="fill:currentColor;stroke:currentColor;stroke-width:0.398;stroke-linecap:butt;stroke-linejoin:miter;stroke-miterlimit:10;stroke-dasharray:none;stroke-opacity:1"
            transform="matrix(1.3333333,0,0,-1.3333333,25.730667,84.825333)" />
        <path id="path59"
            d="m 1.3119297,-3.2691875 v -0.234375 c 0,-2.5195313 1.2421875,-2.8828125 1.7460937,-2.8828125 0.234375,0 0.65625,0.058594 0.8789063,0.3984375 -0.1523438,0 -0.5507813,0 -0.5507813,0.4453125 0,0.3164062 0.234375,0.4570312 0.4570313,0.4570312 0.1640625,0 0.4570312,-0.082031 0.4570312,-0.46875 0,-0.5976562 -0.4335937,-1.078125 -1.265625,-1.078125 -1.2773437,0 -2.61328121,1.2890625 -2.61328121,3.4804688 0,2.66015625 1.14843751,3.375 2.07421871,3.375 1.1132813,0 2.0507813,-0.9375 2.0507813,-2.25 0,-1.265625 -0.8789063,-2.2265625 -1.9921875,-2.2265625 -0.6679688,0 -1.0429688,0.5039062 -1.2421875,0.984375 z M 2.4955234,-0.05825 c -0.6210937,0 -0.9257812,-0.59765625 -0.984375,-0.75 C 1.3353672,-1.277 1.3353672,-2.073875 1.3353672,-2.2496563 c 0,-0.7734375 0.3164062,-1.7695312 1.21875,-1.7695312 0.1523437,0 0.609375,0 0.9257812,0.609375 0.1757813,0.375 0.1757813,0.8789062 0.1757813,1.3710937 0,0.4804688 0,0.9726563 -0.1640625,1.33593755 C 3.1869297,-0.105125 2.7298984,-0.05825 2.4955234,-0.05825 Z m 0,0"
            style="fill:currentColor;fill-opacity:1;fill-rule:nonzero;stroke:none" aria-label="6"
            transform="matrix(1.3333333,0,0,1.3333333,29.754667,96.202667)" />
        <path id="path60"
            d="m -71.94618,42.52019 c 0,0.93953 -0.76162,1.70114 -1.70114,1.70114 -0.93953,0 -1.70116,-0.76161 -1.70116,-1.70114 0,-0.93953 0.76163,-1.70116 1.70116,-1.70116 0.93952,0 1.70114,0.76163 1.70114,1.70116 z"
            style="fill:currentColor;fill-opacity:1;fill-rule:nonzero;stroke:none"
            transform="matrix(1.3333333,0,0,-1.3333333,153.21867,161.75333)" />
        <path id="path61" d="m -85.04042,0 h 8.50455"
            style="fill:none;stroke:currentColor;stroke-width:0.79701;stroke-linecap:butt;stroke-linejoin:miter;stroke-miterlimit:10;stroke-dasharray:none;stroke-opacity:1"
            transform="matrix(1.3333333,0,0,-1.3333333,153.21867,161.75333)" />
        <path id="path63"
            d="m 3.7140312,-5.4030234 h 1.6171875 c -0.3867187,1.6054687 -0.6328125,2.6484375 -0.6328125,3.796875 0,0.1992187 0,1.74609371 0.5976563,1.74609371 0.2929687,0 0.5507812,-0.26953125 0.5507812,-0.515625 0,-0.0703125 0,-0.09375 -0.09375,-0.31640625 C 5.366375,-1.6764609 5.366375,-2.9069297 5.366375,-3.0123984 c 0,-0.082031 0,-1.1015625 0.2929687,-2.390625 h 1.6171875 c 0.1757813,0 0.65625,0 0.65625,-0.46875 0,-0.3164063 -0.2695312,-0.3164063 -0.5273437,-0.3164063 H 2.6827812 c -0.328125,0 -0.8203125,0 -1.4765625,0.703125 -0.37499995,0.421875 -0.8320312,1.1835938 -0.8320312,1.265625 0,0.082031 0.0703125,0.1171875 0.15234375,0.1171875 0.10546875,0 0.1171875,-0.046875 0.1875,-0.1289062 0.74999995,-1.171875 1.48828125,-1.171875 1.85156245,-1.171875 H 3.3859062 C 3.0695,-4.3366172 2.7062187,-3.0827109 1.5343437,-0.57489844 c -0.1171875,0.234375 -0.1171875,0.2578125 -0.1171875,0.33984375 0,0.3046875 0.2578125,0.375 0.3867188,0.375 0.421875,0 0.5390625,-0.375 0.703125,-0.97265625 C 2.741375,-1.5592734 2.741375,-1.5944297 2.882,-2.1686484 Z m 0,0"
            style="fill:currentColor;fill-opacity:1;fill-rule:nonzero;stroke:none"
            aria-label="&#960;" transform="matrix(1.3333333,0,0,1.3333333,2.6573333,165.872)" />
        <path id="path64"
            d="m -83.33928,0 c 0,0.93951 -0.76161,1.70114 -1.70114,1.70114 -0.93953,0 -1.70114,-0.76163 -1.70114,-1.70114 0,-0.93951 0.76161,-1.70114 1.70114,-1.70114 0.93953,0 1.70114,0.76163 1.70114,1.70114 z"
            style="fill:currentColor;fill-opacity:1;fill-rule:nonzero;stroke:none"
            transform="matrix(1.3333333,0,0,-1.3333333,153.21867,161.75333)" />
        <path id="path65" d="m -73.64732,-42.52019 7.36517,4.25226"
            style="fill:none;stroke:currentColor;stroke-width:0.79701;stroke-linecap:butt;stroke-linejoin:miter;stroke-miterlimit:10;stroke-dasharray:none;stroke-opacity:1"
            transform="matrix(1.3333333,0,0,-1.3333333,153.21867,161.75333)" />
        <g id="g66" aria-label="7&#960;"
            transform="matrix(1.3333333,0,0,1.3333333,25.730667,235.86533)"
            style="fill:currentColor">
            <path id="path67"
                d="m 4.7459453,-6.0689219 c 0.082031,-0.1171875 0.082031,-0.140625 0.082031,-0.3398437 H 2.4139141 c -1.21875,0 -1.2421875,-0.1289063 -1.2773438,-0.328125 H 0.89047656 l -0.328125,2.0507812 h 0.24609375 c 0.0234375,-0.1523437 0.1171875,-0.7851562 0.24609379,-0.9023437 0.070312,-0.058594 0.84375,-0.058594 0.9726562,-0.058594 h 2.0625 c -0.1054687,0.1640625 -0.890625,1.2421875 -1.1132812,1.5703125 -0.890625,1.3476563 -1.21875,2.7304688 -1.21875,3.75000002 0,0.09375 0,0.55078125 0.4570312,0.55078125 0.4570313,0 0.4570313,-0.45703125 0.4570313,-0.55078125 v -0.50390625 c 0,-0.55078127 0.023437,-1.10156247 0.1054687,-1.64062497 0.046875,-0.2226563 0.1757813,-1.078125 0.6210938,-1.6992188 z m 0,0"
                style="fill:currentColor;fill-opacity:1;fill-rule:nonzero;stroke:none" />
            <path id="path68"
                d="m 7.6170391,-3.7134531 h 1.125 c -0.328125,1.4765625 -0.4101563,1.8984375 -0.4101563,2.5664062 0,0.15234377 0,0.42187502 0.070312,0.76171877 0.1054688,0.43359375 0.2109375,0.4921875 0.3632813,0.4921875 0.1992187,0 0.4101562,-0.17578125 0.4101562,-0.375 0,-0.0585938 0,-0.0820313 -0.058594,-0.22265625 -0.292968,-0.71484372 -0.292968,-1.35937502 -0.292968,-1.64062502 0,-0.5273437 0.070312,-1.0664062 0.1757813,-1.5820312 H 10.13657 c 0.128907,0 0.492188,0 0.492188,-0.3398438 0,-0.234375 -0.210938,-0.234375 -0.398438,-0.234375 H 6.8904766 c -0.2109375,0 -0.5976563,0 -1.03125,0.46875 -0.3515625,0.3867188 -0.609375,0.84375 -0.609375,0.890625 0,0.011719 0,0.1054688 0.1171875,0.1054688 0.082031,0 0.1054687,-0.046875 0.1640625,-0.1289063 0.4804687,-0.7617187 1.0664062,-0.7617187 1.265625,-0.7617187 h 0.5625 c -0.3164063,1.2070312 -0.8554688,2.4140625 -1.2773438,3.31640622 -0.070312,0.15234375 -0.070312,0.1640625 -0.070312,0.234375 0,0.19921875 0.1523438,0.26953125 0.28125,0.26953125 0.3046875,0 0.3867188,-0.26953125 0.5039063,-0.64453125 0.140625,-0.45703125 0.140625,-0.48046872 0.2695312,-0.97265622 z m 0,0"
                style="fill:currentColor;fill-opacity:1;fill-rule:nonzero;stroke:none" />
        </g>
        <path id="path69" d="M 0,0 H 11.018"
            style="fill:currentColor;stroke:currentColor;stroke-width:0.398;stroke-linecap:butt;stroke-linejoin:miter;stroke-miterlimit:10;stroke-dasharray:none;stroke-opacity:1"
            transform="matrix(1.3333333,0,0,-1.3333333,25.730667,238.61467)" />
        <path id="path70"
            d="m 1.3119297,-3.2693906 v -0.234375 c 0,-2.5195313 1.2421875,-2.8828125 1.7460937,-2.8828125 0.234375,0 0.65625,0.058594 0.8789063,0.3984375 -0.1523438,0 -0.5507813,0 -0.5507813,0.4453125 0,0.3164062 0.234375,0.4570312 0.4570313,0.4570312 0.1640625,0 0.4570312,-0.082031 0.4570312,-0.46875 0,-0.5976562 -0.4335937,-1.078125 -1.265625,-1.078125 -1.2773437,0 -2.61328121,1.2890625 -2.61328121,3.4804688 0,2.66015623 1.14843751,3.37499998 2.07421871,3.37499998 1.1132813,0 2.0507813,-0.9375 2.0507813,-2.24999998 0,-1.265625 -0.8789063,-2.2265625 -1.9921875,-2.2265625 -0.6679688,0 -1.0429688,0.5039062 -1.2421875,0.984375 z m 1.1835937,3.21093748 c -0.6210937,0 -0.9257812,-0.59765625 -0.984375,-0.75 C 1.3353672,-1.2772031 1.3353672,-2.0740781 1.3353672,-2.2498594 c 0,-0.7734375 0.3164062,-1.7695312 1.21875,-1.7695312 0.1523437,0 0.609375,0 0.9257812,0.609375 0.1757813,0.375 0.1757813,0.8789062 0.1757813,1.3710937 0,0.4804688 0,0.9726563 -0.1640625,1.33593753 -0.3046875,0.59765625 -0.7617188,0.64453125 -0.9960938,0.64453125 z m 0,0"
            style="fill:currentColor;fill-opacity:1;fill-rule:nonzero;stroke:none" aria-label="6"
            transform="matrix(1.3333333,0,0,1.3333333,29.754667,249.992)" />
        <path id="path71"
            d="m -71.94618,-42.52019 c 0,0.93953 -0.76162,1.70116 -1.70114,1.70116 -0.93953,0 -1.70116,-0.76163 -1.70116,-1.70116 0,-0.93953 0.76163,-1.70114 1.70116,-1.70114 0.93952,0 1.70114,0.76161 1.70114,1.70114 z"
            style="fill:currentColor;fill-opacity:1;fill-rule:nonzero;stroke:none"
            transform="matrix(1.3333333,0,0,-1.3333333,153.21867,161.75333)" />
        <path id="path72" d="m -60.13269,-60.13269 6.01364,6.01364"
            style="fill:none;stroke:currentColor;stroke-width:0.79701;stroke-linecap:butt;stroke-linejoin:miter;stroke-miterlimit:10;stroke-dasharray:none;stroke-opacity:1"
            transform="matrix(1.3333333,0,0,-1.3333333,153.21867,161.75333)" />
        <g id="g73" aria-label="5&#960;" transform="matrix(1.3333333,0,0,1.3333333,45.552,261.696)"
            style="fill:currentColor">
            <path id="path74"
                d="m 4.4756484,-2.0044219 c 0,-1.1835937 -0.8203125,-2.1796875 -1.8984375,-2.1796875 -0.4804687,0 -0.9023437,0.1640625 -1.265625,0.5039063 v -1.9335938 c 0.1992188,0.058594 0.5273438,0.1289063 0.84375,0.1289063 1.2304688,0 1.9335938,-0.9140625 1.9335938,-1.0429688 0,-0.058594 -0.035156,-0.1054687 -0.1054688,-0.1054687 -0.011719,0 -0.035156,0 -0.082031,0.023437 -0.1992188,0.09375 -0.6796875,0.2929687 -1.3476563,0.2929687 -0.3984375,0 -0.8554687,-0.070312 -1.3242187,-0.28125 -0.082031,-0.023437 -0.1054688,-0.023437 -0.1289063,-0.023437 -0.09375,0 -0.09375,0.082031 -0.09375,0.234375 v 2.953125 c 0,0.1757813 0,0.2578125 0.140625,0.2578125 0.070312,0 0.082031,-0.035156 0.1289063,-0.09375 0.1054687,-0.1523437 0.4804687,-0.6914062 1.2773437,-0.6914062 0.5273438,0 0.7734375,0.4570312 0.8554688,0.6328125 0.1523437,0.375 0.1757812,0.7617187 0.1757812,1.2539062 0,0.3515625 0,0.9492188 -0.234375,1.37109378 -0.2460937,0.38671875 -0.609375,0.64453125 -1.0664062,0.64453125 -0.7265625,0 -1.30078126,-0.52734375 -1.46484376,-1.11328123 0.0234375,0.011719 0.0585938,0.011719 0.1640625,0.011719 0.32812496,0 0.50390626,-0.2460937 0.50390626,-0.4804687 0,-0.2460938 -0.1757813,-0.4921875 -0.50390626,-0.4921875 -0.140625,0 -0.48046875,0.070312 -0.48046875,0.5273437 0,0.85546878 0.67968751,1.82812503 1.79296871,1.82812503 1.1601563,0 2.1796875,-0.9609375 2.1796873,-2.22656283 z m 0,0"
                style="fill:currentColor;fill-opacity:1;fill-rule:nonzero;stroke:none" />
            <path id="path75"
                d="m 7.6162734,-3.7153594 h 1.125 c -0.328125,1.4765625 -0.4101562,1.8984375 -0.4101562,2.5664063 0,0.15234373 0,0.42187498 0.070312,0.76171873 0.1054687,0.43359375 0.2109375,0.4921875 0.3632812,0.4921875 0.1992188,0 0.4101563,-0.17578125 0.4101563,-0.375 0,-0.0585938 0,-0.0820313 -0.058594,-0.22265625 -0.292968,-0.71484378 -0.292968,-1.35937498 -0.292968,-1.64062498 0,-0.5273438 0.070312,-1.0664063 0.1757812,-1.5820313 h 1.1367191 c 0.128906,0 0.492187,0 0.492187,-0.3398437 0,-0.234375 -0.210937,-0.234375 -0.398437,-0.234375 H 6.8897109 c -0.2109375,0 -0.5976562,0 -1.03125,0.46875 -0.3515625,0.3867187 -0.609375,0.84375 -0.609375,0.890625 0,0.011719 0,0.1054687 0.1171875,0.1054687 0.082031,0 0.1054688,-0.046875 0.1640625,-0.1289062 0.4804688,-0.7617188 1.0664063,-0.7617188 1.265625,-0.7617188 h 0.5625 c -0.3164062,1.2070313 -0.8554687,2.4140625 -1.2773437,3.31640628 -0.070312,0.15234375 -0.070312,0.1640625 -0.070312,0.234375 0,0.19921875 0.1523437,0.26953125 0.28125,0.26953125 0.3046875,0 0.3867187,-0.26953125 0.5039062,-0.64453125 0.140625,-0.45703125 0.140625,-0.48046878 0.2695313,-0.97265628 z m 0,0"
                style="fill:currentColor;fill-opacity:1;fill-rule:nonzero;stroke:none" />
        </g>
        <path id="path76" d="M 0,0 H 11.018"
            style="fill:currentColor;stroke:currentColor;stroke-width:0.398;stroke-linecap:butt;stroke-linejoin:miter;stroke-miterlimit:10;stroke-dasharray:none;stroke-opacity:1"
            transform="matrix(1.3333333,0,0,-1.3333333,45.552,264.44533)" />
        <path id="path77"
            d="m 2.9283516,-1.6404609 v 0.86718746 c 0,0.3515625 -0.023437,0.46875 -0.7617188,0.46875 H 1.9556953 V 1.640625e-4 C 2.3658516,-0.03499219 2.8931953,-0.03499219 3.3033516,-0.03499219 c 0.421875,0 0.9492187,0 1.359375,0.0351562525 V -0.30452344 H 4.4517891 c -0.7382813,0 -0.7617188,-0.1171875 -0.7617188,-0.46875 V -1.6404609 H 4.6861641 V -1.9568672 H 3.6900703 v -4.5234375 c 0,-0.1992187 0,-0.2578125 -0.1523437,-0.2578125 -0.09375,0 -0.1171875,0 -0.1992188,0.1171875 l -3.05859374,4.6640625 v 0.3164063 z m 0.058594,-0.3164063 H 0.56116406 L 2.9869453,-5.6717109 Z m 0,0"
            style="fill:currentColor;fill-opacity:1;fill-rule:nonzero;stroke:none" aria-label="4"
            transform="matrix(1.3333333,0,0,1.3333333,49.576,275.824)" />
        <path id="path78"
            d="m -58.43155,-60.13269 c 0,0.93953 -0.76161,1.70114 -1.70114,1.70114 -0.93953,0 -1.70116,-0.76161 -1.70116,-1.70114 0,-0.93953 0.76163,-1.70116 1.70116,-1.70116 0.93953,0 1.70114,0.76163 1.70114,1.70116 z"
            style="fill:currentColor;fill-opacity:1;fill-rule:nonzero;stroke:none"
            transform="matrix(1.3333333,0,0,-1.3333333,153.21867,161.75333)" />
        <path id="path79" d="m -42.52019,-73.64732 4.25226,7.36517"
            style="fill:none;stroke:currentColor;stroke-width:0.79701;stroke-linecap:butt;stroke-linejoin:miter;stroke-miterlimit:10;stroke-dasharray:none;stroke-opacity:1"
            transform="matrix(1.3333333,0,0,-1.3333333,153.21867,161.75333)" />
        <g id="g80" aria-label="4&#960;"
            transform="matrix(1.3333333,0,0,1.3333333,71.382667,281.51733)"
            style="fill:currentColor">
            <path id="path81"
                d="m 2.9297969,-1.6419063 v 0.86718755 c 0,0.3515625 -0.023437,0.46875 -0.7617188,0.46875 H 1.9571406 v 0.3046875 c 0.4101563,-0.03515625 0.9375,-0.03515625 1.3476563,-0.03515625 0.421875,0 0.9492187,0 1.359375,0.03515625 v -0.3046875 H 4.4532344 c -0.7382813,0 -0.7617188,-0.1171875 -0.7617188,-0.46875 V -1.6419063 H 4.6876094 V -1.9583125 H 3.6915156 V -6.48175 c 0,-0.1992188 0,-0.2578125 -0.1523437,-0.2578125 -0.09375,0 -0.1171875,0 -0.1992188,0.1171875 l -3.05859373,4.6640625 v 0.3164062 z m 0.058594,-0.3164062 H 0.56260937 L 2.9883906,-5.6731563 Z m 0,0"
                style="fill:currentColor;fill-opacity:1;fill-rule:nonzero;stroke:none" />
            <path id="path82"
                d="m 7.6172969,-3.716125 h 1.125 c -0.328125,1.4765625 -0.4101563,1.8984375 -0.4101563,2.5664062 0,0.1523438 0,0.42187505 0.070312,0.7617188 0.1054688,0.43359375 0.2109375,0.4921875 0.3632813,0.4921875 0.1992187,0 0.4101562,-0.17578125 0.4101562,-0.375 0,-0.0585938 0,-0.0820313 -0.058594,-0.22265625 -0.292968,-0.71484375 -0.292968,-1.35937505 -0.292968,-1.64062505 0,-0.5273437 0.070312,-1.0664062 0.1757813,-1.5820312 h 1.1367186 c 0.128906,0 0.492188,0 0.492188,-0.3398438 0,-0.234375 -0.210938,-0.234375 -0.398438,-0.234375 H 6.8907344 c -0.2109375,0 -0.5976563,0 -1.03125,0.46875 -0.3515625,0.3867188 -0.609375,0.84375 -0.609375,0.890625 0,0.011719 0,0.1054688 0.1171875,0.1054688 0.082031,0 0.1054687,-0.046875 0.1640625,-0.1289063 0.4804687,-0.7617187 1.0664062,-0.7617187 1.265625,-0.7617187 h 0.5625 c -0.3164063,1.2070312 -0.8554688,2.4140625 -1.2773438,3.31640625 -0.070312,0.15234375 -0.070312,0.1640625 -0.070312,0.234375 0,0.19921875 0.1523438,0.26953125 0.28125,0.26953125 0.3046875,0 0.3867188,-0.26953125 0.5039063,-0.64453125 C 6.9376094,-0.997375 6.9376094,-1.0208125 7.0665156,-1.513 Z m 0,0"
                style="fill:currentColor;fill-opacity:1;fill-rule:nonzero;stroke:none" />
        </g>
        <path id="path83" d="M 0,0 H 11.018"
            style="fill:currentColor;stroke:currentColor;stroke-width:0.398;stroke-linecap:butt;stroke-linejoin:miter;stroke-miterlimit:10;stroke-dasharray:none;stroke-opacity:1"
            transform="matrix(1.3333333,0,0,-1.3333333,71.382667,284.26667)" />
        <path id="path84"
            d="M 2.8932188,-3.5045078 C 3.7018125,-3.7740391 4.28775,-4.4771641 4.28775,-5.2623203 c 0,-0.8203125 -0.8789062,-1.3710938 -1.8398437,-1.3710938 -1.0078125,0 -1.75781255,0.5976563 -1.75781255,1.3476563 0,0.3398437 0.2109375,0.5273437 0.50390625,0.5273437 0.3046875,0 0.5039063,-0.2226562 0.5039063,-0.515625 0,-0.4921875 -0.46875,-0.4921875 -0.609375,-0.4921875 0.3046875,-0.4921875 0.9609375,-0.6210937 1.3242187,-0.6210937 0.4101563,0 0.9492188,0.2226562 0.9492188,1.1132812 0,0.1289063 -0.011719,0.703125 -0.2695313,1.1367188 -0.3046875,0.4804687 -0.6445312,0.515625 -0.890625,0.515625 -0.082031,0.011719 -0.3164062,0.035156 -0.3867187,0.035156 -0.082031,0.011719 -0.1523438,0.023437 -0.1523438,0.1171875 0,0.1171875 0.070312,0.1171875 0.234375,0.1171875 h 0.4453125 c 0.8085938,0 1.1835938,0.6679688 1.1835938,1.6523438 0,1.34765624 -0.6914063,1.64062499 -1.125,1.64062499 -0.4335938,0 -1.171875,-0.17578125 -1.52343755,-0.76171875 0.35156255,0.0585938 0.65625005,-0.1640625 0.65625005,-0.53906254 0,-0.3632812 -0.2695313,-0.5625 -0.56250005,-0.5625 -0.234375,0 -0.55078125,0.140625 -0.55078125,0.5742188 0,0.91406249 0.9257813,1.57031249 2.0039063,1.57031249 1.21875,0 2.1210937,-0.9140625 2.1210937,-1.92187499 0,-0.8203125 -0.6210937,-1.59375 -1.6523437,-1.8046873 z m 0,0"
            style="fill:currentColor;fill-opacity:1;fill-rule:nonzero;stroke:none" aria-label="3"
            transform="matrix(1.3333333,0,0,1.3333333,75.408,295.64533)" />
        <path id="path85"
            d="m -40.81903,-73.64732 c 0,0.93952 -0.76163,1.70114 -1.70116,1.70114 -0.93953,0 -1.70114,-0.76162 -1.70114,-1.70114 0,-0.93953 0.76161,-1.70116 1.70114,-1.70116 0.93953,0 1.70116,0.76163 1.70116,1.70116 z"
            style="fill:currentColor;fill-opacity:1;fill-rule:nonzero;stroke:none"
            transform="matrix(1.3333333,0,0,-1.3333333,153.21867,161.75333)" />
        <path id="path86" d="m 0,-85.04042 v 8.50455"
            style="fill:none;stroke:currentColor;stroke-width:0.79701;stroke-linecap:butt;stroke-linejoin:miter;stroke-miterlimit:10;stroke-dasharray:none;stroke-opacity:1"
            transform="matrix(1.3333333,0,0,-1.3333333,153.21867,161.75333)" />
        <g id="g87" aria-label="3&#960;"
            transform="matrix(1.3333333,0,0,1.3333333,145.87333,309.56533)"
            style="fill:currentColor">
            <path id="path88"
                d="m 2.8957812,-3.5031016 c 0.8085938,-0.2695312 1.3945313,-0.9726562 1.3945313,-1.7578125 0,-0.8203125 -0.8789063,-1.3710937 -1.8398438,-1.3710937 -1.0078125,0 -1.75781245,0.5976562 -1.75781245,1.3476562 0,0.3398438 0.2109375,0.5273438 0.50390625,0.5273438 0.3046875,0 0.5039062,-0.2226563 0.5039062,-0.515625 0,-0.4921875 -0.46875,-0.4921875 -0.609375,-0.4921875 0.3046875,-0.4921875 0.9609375,-0.6210938 1.3242188,-0.6210938 0.4101562,0 0.9492187,0.2226563 0.9492187,1.1132813 0,0.1289062 -0.011719,0.703125 -0.2695312,1.1367187 -0.3046875,0.4804688 -0.6445313,0.515625 -0.890625,0.515625 -0.082031,0.011719 -0.3164063,0.035156 -0.3867188,0.035156 -0.082031,0.011719 -0.1523437,0.023437 -0.1523437,0.1171875 0,0.1171875 0.070312,0.1171875 0.234375,0.1171875 H 2.345 c 0.8085937,0 1.1835937,0.6679687 1.1835937,1.6523437 0,1.34765629 -0.6914062,1.64062504 -1.125,1.64062504 -0.4335937,0 -1.171875,-0.17578125 -1.52343745,-0.76171875 0.35156245,0.0585938 0.65624995,-0.1640625 0.65624995,-0.53906249 0,-0.3632813 -0.2695312,-0.5625 -0.56249995,-0.5625 -0.234375,0 -0.55078125,0.140625 -0.55078125,0.5742187 0,0.91406254 0.9257812,1.57031254 2.0039062,1.57031254 1.21875,0 2.1210938,-0.9140625 2.1210938,-1.92187504 0,-0.8203125 -0.6210938,-1.59375 -1.6523438,-1.8046872 z m 0,0"
                style="fill:currentColor;fill-opacity:1;fill-rule:nonzero;stroke:none" />
            <path id="path89"
                d="m 7.6184375,-3.7140391 h 1.125 c -0.328125,1.4765625 -0.4101563,1.8984375 -0.4101563,2.5664063 0,0.15234374 0,0.42187499 0.070312,0.76171874 0.1054688,0.43359375 0.2109375,0.4921875 0.3632813,0.4921875 0.1992187,0 0.4101562,-0.17578125 0.4101562,-0.375 0,-0.0585938 0,-0.0820313 -0.058594,-0.22265625 -0.292968,-0.71484379 -0.292968,-1.35937499 -0.292968,-1.64062499 0,-0.5273438 0.070312,-1.0664063 0.1757813,-1.5820313 h 1.136719 c 0.128906,0 0.492187,0 0.492187,-0.3398437 0,-0.234375 -0.210937,-0.234375 -0.398437,-0.234375 H 6.891875 c -0.2109375,0 -0.5976563,0 -1.03125,0.46875 -0.3515625,0.3867187 -0.609375,0.84375 -0.609375,0.890625 0,0.011719 0,0.1054687 0.1171875,0.1054687 0.082031,0 0.1054687,-0.046875 0.1640625,-0.1289062 0.4804687,-0.7617188 1.0664062,-0.7617188 1.265625,-0.7617188 h 0.5625 c -0.3164063,1.2070313 -0.8554688,2.4140625 -1.2773438,3.31640629 -0.070312,0.15234375 -0.070312,0.1640625 -0.070312,0.234375 0,0.19921875 0.1523438,0.26953125 0.28125,0.26953125 0.3046875,0 0.3867188,-0.26953125 0.5039063,-0.64453125 C 6.93875,-0.99528906 6.93875,-1.0187266 7.0676562,-1.5109141 Z m 0,0"
                style="fill:currentColor;fill-opacity:1;fill-rule:nonzero;stroke:none" />
        </g>
        <path id="path90" d="M 0,0 H 11.018"
            style="fill:currentColor;stroke:currentColor;stroke-width:0.398;stroke-linecap:butt;stroke-linejoin:miter;stroke-miterlimit:10;stroke-dasharray:none;stroke-opacity:1"
            transform="matrix(1.3333333,0,0,-1.3333333,145.87333,312.31467)" />
        <path id="path91"
            d="M 1.2664531,-0.76216406 2.3211406,-1.7934141 c 1.5585938,-1.3710937 2.15625,-1.9101562 2.15625,-2.90625 0,-1.1367187 -0.9023437,-1.9335937 -2.1210937,-1.9335937 -1.125,0 -1.85156253,0.9140625 -1.85156253,1.8046875 0,0.5507812 0.4921875,0.5507812 0.52734373,0.5507812 0.1640625,0 0.515625,-0.1171875 0.515625,-0.5273437 0,-0.2578125 -0.1875,-0.515625 -0.5273437,-0.515625 -0.0820313,0 -0.10546878,0 -0.12890628,0.011719 C 1.1141094,-5.95357 1.6531719,-6.32857 2.2273906,-6.32857 c 0.9140625,0 1.3359375,0.8085937 1.3359375,1.6289062 0,0.796875 -0.4921875,1.5820313 -1.0429687,2.203125 L 0.61020312,-0.36372656 C 0.50473437,-0.25825781 0.50473437,-0.23482031 0.50473437,-4.453125e-4 H 4.1961406 L 4.4773906,-1.7348203 H 4.2195781 c -0.046875,0.3046875 -0.1171875,0.73828124 -0.2109375,0.89062499 -0.070312,0.0820313 -0.7265625,0.0820313 -0.9492187,0.0820313 z m 0,0"
            style="fill:currentColor;fill-opacity:1;fill-rule:nonzero;stroke:none" aria-label="2"
            transform="matrix(1.3333333,0,0,1.3333333,149.89733,323.692)" />
        <path id="path92"
            d="m 1.70114,-85.04042 c 0,0.93953 -0.76163,1.70114 -1.70114,1.70114 -0.93951,0 -1.70114,-0.76161 -1.70114,-1.70114 0,-0.93953 0.76163,-1.70114 1.70114,-1.70114 0.93951,0 1.70114,0.76161 1.70114,1.70114 z"
            style="fill:currentColor;fill-opacity:1;fill-rule:nonzero;stroke:none"
            transform="matrix(1.3333333,0,0,-1.3333333,153.21867,161.75333)" />
        <path id="path93" d="m 42.52019,-73.64732 -4.25226,7.36517"
            style="fill:none;stroke:currentColor;stroke-width:0.79701;stroke-linecap:butt;stroke-linejoin:miter;stroke-miterlimit:10;stroke-dasharray:none;stroke-opacity:1"
            transform="matrix(1.3333333,0,0,-1.3333333,153.21867,161.75333)" />
        <g id="g94" aria-label="5&#960;"
            transform="matrix(1.3333333,0,0,1.3333333,220.36267,281.51733)"
            style="fill:currentColor">
            <path id="path95"
                d="m 4.4770234,-2.0051875 c 0,-1.1835938 -0.8203125,-2.1796875 -1.8984375,-2.1796875 -0.4804687,0 -0.9023437,0.1640625 -1.265625,0.5039062 v -1.9335937 c 0.1992188,0.058594 0.5273438,0.1289062 0.84375,0.1289062 1.2304688,0 1.9335938,-0.9140625 1.9335938,-1.0429687 0,-0.058594 -0.035156,-0.1054688 -0.1054688,-0.1054688 -0.011719,0 -0.035156,0 -0.082031,0.023437 -0.1992188,0.09375 -0.6796875,0.2929688 -1.3476563,0.2929688 -0.3984375,0 -0.8554687,-0.070312 -1.3242187,-0.28125 -0.082031,-0.023437 -0.1054688,-0.023437 -0.1289063,-0.023437 -0.09375,0 -0.09375,0.082031 -0.09375,0.234375 v 2.953125 c 0,0.1757812 0,0.2578125 0.140625,0.2578125 0.070312,0 0.082031,-0.035156 0.1289063,-0.09375 0.1054687,-0.1523438 0.4804687,-0.6914063 1.2773437,-0.6914063 0.5273438,0 0.7734375,0.4570313 0.8554688,0.6328125 0.1523437,0.375 0.1757812,0.7617188 0.1757812,1.2539063 0,0.3515625 0,0.9492187 -0.234375,1.37109375 -0.2460937,0.38671875 -0.609375,0.64453125 -1.0664062,0.64453125 -0.7265625,0 -1.30078126,-0.52734375 -1.46484376,-1.1132813 0.0234375,0.011719 0.0585938,0.011719 0.1640625,0.011719 0.32812496,0 0.50390626,-0.2460938 0.50390626,-0.4804688 0,-0.2460937 -0.1757813,-0.4921875 -0.50390626,-0.4921875 -0.140625,0 -0.48046875,0.070312 -0.48046875,0.5273438 0,0.85546875 0.67968751,1.828125 1.79296871,1.828125 1.1601563,0 2.1796875,-0.9609375 2.1796873,-2.2265627 z m 0,0"
                style="fill:currentColor;fill-opacity:1;fill-rule:nonzero;stroke:none" />
            <path id="path96"
                d="m 7.6176484,-3.716125 h 1.125 c -0.328125,1.4765625 -0.4101562,1.8984375 -0.4101562,2.5664062 0,0.1523438 0,0.42187505 0.070312,0.7617188 0.1054687,0.43359375 0.2109375,0.4921875 0.3632812,0.4921875 0.1992188,0 0.4101563,-0.17578125 0.4101563,-0.375 0,-0.0585938 0,-0.0820313 -0.058594,-0.22265625 -0.292968,-0.71484375 -0.292968,-1.35937505 -0.292968,-1.64062505 0,-0.5273437 0.070312,-1.0664062 0.1757812,-1.5820312 H 10.13718 c 0.128906,0 0.492187,0 0.492187,-0.3398438 0,-0.234375 -0.210937,-0.234375 -0.398437,-0.234375 H 6.8910859 c -0.2109375,0 -0.5976562,0 -1.03125,0.46875 -0.3515625,0.3867188 -0.609375,0.84375 -0.609375,0.890625 0,0.011719 0,0.1054688 0.1171875,0.1054688 0.082031,0 0.1054688,-0.046875 0.1640625,-0.1289063 0.4804688,-0.7617187 1.0664063,-0.7617187 1.265625,-0.7617187 h 0.5625 c -0.3164062,1.2070312 -0.8554687,2.4140625 -1.2773437,3.31640625 -0.070312,0.15234375 -0.070312,0.1640625 -0.070312,0.234375 0,0.19921875 0.1523437,0.26953125 0.28125,0.26953125 0.3046875,0 0.3867187,-0.26953125 0.5039062,-0.64453125 C 6.9379609,-0.997375 6.9379609,-1.0208125 7.0668672,-1.513 Z m 0,0"
                style="fill:currentColor;fill-opacity:1;fill-rule:nonzero;stroke:none" />
        </g>
        <path id="path97" d="M 0,0 H 11.018"
            style="fill:currentColor;stroke:currentColor;stroke-width:0.398;stroke-linecap:butt;stroke-linejoin:miter;stroke-miterlimit:10;stroke-dasharray:none;stroke-opacity:1"
            transform="matrix(1.3333333,0,0,-1.3333333,220.36267,284.26667)" />
        <path id="path98"
            d="m 2.8945703,-3.5045078 c 0.8085938,-0.2695313 1.3945313,-0.9726563 1.3945313,-1.7578125 0,-0.8203125 -0.8789063,-1.3710938 -1.8398438,-1.3710938 -1.0078125,0 -1.75781249,0.5976563 -1.75781249,1.3476563 0,0.3398437 0.2109375,0.5273437 0.50390629,0.5273437 0.3046875,0 0.5039062,-0.2226562 0.5039062,-0.515625 0,-0.4921875 -0.46875,-0.4921875 -0.609375,-0.4921875 0.3046875,-0.4921875 0.9609375,-0.6210937 1.3242188,-0.6210937 0.4101562,0 0.9492187,0.2226562 0.9492187,1.1132812 0,0.1289063 -0.011719,0.703125 -0.2695312,1.1367188 -0.3046875,0.4804687 -0.6445313,0.515625 -0.890625,0.515625 -0.082031,0.011719 -0.3164063,0.035156 -0.3867188,0.035156 -0.082031,0.011719 -0.1523437,0.023437 -0.1523437,0.1171875 0,0.1171875 0.070312,0.1171875 0.234375,0.1171875 h 0.4453125 c 0.8085937,0 1.1835937,0.6679688 1.1835937,1.6523438 0,1.34765624 -0.6914062,1.64062499 -1.125,1.64062499 -0.4335937,0 -1.171875,-0.17578125 -1.52343749,-0.76171875 0.35156249,0.0585938 0.65624999,-0.1640625 0.65624999,-0.53906254 0,-0.3632812 -0.2695312,-0.5625 -0.56249999,-0.5625 -0.234375,0 -0.55078125,0.140625 -0.55078125,0.5742188 0,0.91406249 0.92578124,1.57031249 2.00390624,1.57031249 1.21875,0 2.1210938,-0.9140625 2.1210938,-1.92187499 0,-0.8203125 -0.6210938,-1.59375 -1.6523438,-1.8046873 z m 0,0"
            style="fill:currentColor;fill-opacity:1;fill-rule:nonzero;stroke:none" aria-label="3"
            transform="matrix(1.3333333,0,0,1.3333333,224.38667,295.64533)" />
        <path id="path99"
            d="m 44.22133,-73.64732 c 0,0.93952 -0.76161,1.70114 -1.70114,1.70114 -0.93953,0 -1.70116,-0.76162 -1.70116,-1.70114 0,-0.93953 0.76163,-1.70116 1.70116,-1.70116 0.93953,0 1.70114,0.76163 1.70114,1.70116 z"
            style="fill:currentColor;fill-opacity:1;fill-rule:nonzero;stroke:none"
            transform="matrix(1.3333333,0,0,-1.3333333,153.21867,161.75333)" />
        <path id="path100" d="m 60.13269,-60.13269 -6.01364,6.01364"
            style="fill:none;stroke:currentColor;stroke-width:0.79701;stroke-linecap:butt;stroke-linejoin:miter;stroke-miterlimit:10;stroke-dasharray:none;stroke-opacity:1"
            transform="matrix(1.3333333,0,0,-1.3333333,153.21867,161.75333)" />
        <g id="g101" aria-label="7&#960;"
            transform="matrix(1.3333333,0,0,1.3333333,246.19467,261.696)" style="fill:currentColor">
            <path id="path102"
                d="m 4.7465781,-6.0708281 c 0.082031,-0.1171875 0.082031,-0.140625 0.082031,-0.3398438 H 2.4145469 c -1.21875,0 -1.2421875,-0.1289062 -1.2773438,-0.328125 H 0.89110938 l -0.328125,2.0507813 h 0.24609375 c 0.0234375,-0.1523438 0.1171875,-0.7851563 0.24609377,-0.9023438 0.070312,-0.058594 0.84375,-0.058594 0.9726562,-0.058594 h 2.0625 c -0.1054687,0.1640625 -0.890625,1.2421875 -1.1132812,1.5703125 -0.890625,1.3476562 -1.21875,2.7304687 -1.21875,3.74999998 0,0.09375 0,0.55078125 0.4570312,0.55078125 0.4570313,0 0.4570313,-0.45703125 0.4570313,-0.55078125 v -0.50390625 c 0,-0.55078123 0.023437,-1.10156253 0.1054687,-1.64062503 0.046875,-0.2226562 0.1757813,-1.078125 0.6210938,-1.6992187 z m 0,0"
                style="fill:currentColor;fill-opacity:1;fill-rule:nonzero;stroke:none" />
            <path id="path103"
                d="m 7.6176719,-3.7153594 h 1.125 c -0.328125,1.4765625 -0.4101563,1.8984375 -0.4101563,2.5664063 0,0.15234373 0,0.42187498 0.070312,0.76171873 0.1054688,0.43359375 0.2109375,0.4921875 0.3632813,0.4921875 0.1992187,0 0.4101562,-0.17578125 0.4101562,-0.375 0,-0.0585938 0,-0.0820313 -0.058594,-0.22265625 -0.292968,-0.71484378 -0.292968,-1.35937498 -0.292968,-1.64062498 0,-0.5273438 0.070312,-1.0664063 0.1757813,-1.5820313 h 1.1367186 c 0.128906,0 0.492188,0 0.492188,-0.3398437 0,-0.234375 -0.210938,-0.234375 -0.398438,-0.234375 H 6.8911094 c -0.2109375,0 -0.5976563,0 -1.03125,0.46875 -0.3515625,0.3867187 -0.609375,0.84375 -0.609375,0.890625 0,0.011719 0,0.1054687 0.1171875,0.1054687 0.082031,0 0.1054687,-0.046875 0.1640625,-0.1289062 0.4804687,-0.7617188 1.0664062,-0.7617188 1.265625,-0.7617188 h 0.5625 c -0.3164063,1.2070313 -0.8554688,2.4140625 -1.2773438,3.31640628 -0.070312,0.15234375 -0.070312,0.1640625 -0.070312,0.234375 0,0.19921875 0.1523438,0.26953125 0.28125,0.26953125 0.3046875,0 0.3867188,-0.26953125 0.5039063,-0.64453125 0.140625,-0.45703125 0.140625,-0.48046878 0.2695312,-0.97265628 z m 0,0"
                style="fill:currentColor;fill-opacity:1;fill-rule:nonzero;stroke:none" />
        </g>
        <path id="path104" d="M 0,0 H 11.018"
            style="fill:currentColor;stroke:currentColor;stroke-width:0.398;stroke-linecap:butt;stroke-linejoin:miter;stroke-miterlimit:10;stroke-dasharray:none;stroke-opacity:1"
            transform="matrix(1.3333333,0,0,-1.3333333,246.19467,264.44533)" />
        <path id="path105"
            d="m 2.92975,-1.6404609 v 0.86718746 c 0,0.3515625 -0.023437,0.46875 -0.7617187,0.46875 H 1.9570938 V 1.640625e-4 C 2.36725,-0.03499219 2.8945938,-0.03499219 3.30475,-0.03499219 c 0.421875,0 0.9492188,0 1.359375,0.0351562525 V -0.30452344 H 4.4531875 c -0.7382812,0 -0.7617187,-0.1171875 -0.7617187,-0.46875 V -1.6404609 H 4.6875625 V -1.9568672 H 3.6914688 v -4.5234375 c 0,-0.1992187 0,-0.2578125 -0.1523438,-0.2578125 -0.09375,0 -0.1171875,0 -0.1992187,0.1171875 l -3.0585938,4.6640625 v 0.3164063 z M 2.988344,-1.9568672 H 0.5625625 l 2.4257813,-3.7148437 z m 0,0"
            style="fill:currentColor;fill-opacity:1;fill-rule:nonzero;stroke:none" aria-label="4"
            transform="matrix(1.3333333,0,0,1.3333333,250.21867,275.824)" />
        <path id="path106"
            d="m 61.83385,-60.13269 c 0,0.93953 -0.76163,1.70114 -1.70116,1.70114 -0.93953,0 -1.70114,-0.76161 -1.70114,-1.70114 0,-0.93953 0.76161,-1.70116 1.70114,-1.70116 0.93953,0 1.70116,0.76163 1.70116,1.70116 z"
            style="fill:currentColor;fill-opacity:1;fill-rule:nonzero;stroke:none"
            transform="matrix(1.3333333,0,0,-1.3333333,153.21867,161.75333)" />
        <path id="path107" d="m 73.64732,-42.52019 -7.36517,4.25226"
            style="fill:none;stroke:currentColor;stroke-width:0.79701;stroke-linecap:butt;stroke-linejoin:miter;stroke-miterlimit:10;stroke-dasharray:none;stroke-opacity:1"
            transform="matrix(1.3333333,0,0,-1.3333333,153.21867,161.75333)" />
        <g id="g108" aria-label="11&#960;"
            transform="matrix(1.3333333,0,0,1.3333333,266.016,235.86533)" style="fill:currentColor">
            <path id="path109"
                d="m 2.9294063,-6.3736094 c 0,-0.234375 0,-0.2578125 -0.234375,-0.2578125 -0.609375,0.6328125 -1.4882813,0.6328125 -1.80468755,0.6328125 v 0.3164063 c 0.19921875,0 0.78515625,0 1.30078125,-0.2578125 v 5.15624997 c 0,0.3515625 -0.035156,0.48046875 -0.9257812,0.48046875 H 0.9489375 v 0.3046875 C 1.3005,-0.03376563 2.1559688,-0.03376563 2.5544063,-0.03376563 c 0.3984375,0 1.265625,0 1.6171875,0.03515625 v -0.3046875 H 3.8551875 c -0.9023437,0 -0.9257812,-0.1171875 -0.9257812,-0.48046875 z m 4.9804687,0 c 0,-0.234375 0,-0.2578125 -0.234375,-0.2578125 -0.609375,0.6328125 -1.4882812,0.6328125 -1.8046875,0.6328125 v 0.3164063 c 0.1992188,0 0.7851563,0 1.3007813,-0.2578125 v 5.15624997 c 0,0.3515625 -0.035156,0.48046875 -0.9257813,0.48046875 H 5.9294063 v 0.3046875 c 0.3515625,-0.03515625 1.2070312,-0.03515625 1.6054687,-0.03515625 0.3984375,0 1.265625,0 1.6171875,0.03515625 v -0.3046875 H 8.8356563 c -0.9023438,0 -0.9257813,-0.1171875 -0.9257813,-0.48046875 z m 0,0"
                style="fill:currentColor;fill-opacity:1;fill-rule:nonzero;stroke:none" />
            <path id="path110"
                d="m 12.597375,-3.7134531 h 1.125 c -0.328125,1.4765625 -0.410156,1.8984375 -0.410156,2.5664062 0,0.15234377 0,0.42187502 0.07031,0.76171877 0.105469,0.43359375 0.210938,0.4921875 0.363282,0.4921875 0.199218,0 0.410156,-0.17578125 0.410156,-0.375 0,-0.0585938 0,-0.0820313 -0.05859,-0.22265625 -0.292969,-0.71484372 -0.292969,-1.35937502 -0.292969,-1.64062502 0,-0.5273437 0.07031,-1.0664062 0.175782,-1.5820312 h 1.136718 c 0.128907,0 0.492188,0 0.492188,-0.3398438 0,-0.234375 -0.210938,-0.234375 -0.398438,-0.234375 h -3.339843 c -0.210938,0 -0.597657,0 -1.03125,0.46875 -0.351563,0.3867188 -0.609375,0.84375 -0.609375,0.890625 0,0.011719 0,0.1054688 0.117187,0.1054688 0.08203,0 0.105469,-0.046875 0.164063,-0.1289063 0.480468,-0.7617187 1.066406,-0.7617187 1.265625,-0.7617187 h 0.5625 c -0.316407,1.2070312 -0.855469,2.4140625 -1.277344,3.31640622 -0.07031,0.15234375 -0.07031,0.1640625 -0.07031,0.234375 0,0.19921875 0.152344,0.26953125 0.28125,0.26953125 0.304688,0 0.386719,-0.26953125 0.503907,-0.64453125 0.140625,-0.45703125 0.140625,-0.48046872 0.269531,-0.97265622 z m 0,0"
                style="fill:currentColor;fill-opacity:1;fill-rule:nonzero;stroke:none" />
        </g>
        <path id="path111" d="M 0,0 H 15.999"
            style="fill:currentColor;stroke:currentColor;stroke-width:0.398;stroke-linecap:butt;stroke-linejoin:miter;stroke-miterlimit:10;stroke-dasharray:none;stroke-opacity:1"
            transform="matrix(1.3333333,0,0,-1.3333333,266.016,238.61467)" />
        <path id="path112"
            d="m 1.3139609,-3.2693906 v -0.234375 c 0,-2.5195313 1.2421875,-2.8828125 1.7460938,-2.8828125 0.234375,0 0.65625,0.058594 0.8789062,0.3984375 -0.1523437,0 -0.5507812,0 -0.5507812,0.4453125 0,0.3164062 0.234375,0.4570312 0.4570312,0.4570312 0.1640625,0 0.4570313,-0.082031 0.4570313,-0.46875 0,-0.5976562 -0.4335938,-1.078125 -1.265625,-1.078125 -1.2773438,0 -2.61328126,1.2890625 -2.61328126,3.4804688 0,2.66015623 1.14843746,3.37499998 2.07421876,3.37499998 1.1132812,0 2.0507812,-0.9375 2.0507812,-2.24999998 0,-1.265625 -0.8789062,-2.2265625 -1.9921875,-2.2265625 -0.6679687,0 -1.0429687,0.5039062 -1.2421875,0.984375 z m 1.1835938,3.21093748 c -0.6210938,0 -0.9257813,-0.59765625 -0.984375,-0.75 C 1.3373984,-1.2772031 1.3373984,-2.0740781 1.3373984,-2.2498594 c 0,-0.7734375 0.3164063,-1.7695312 1.21875,-1.7695312 0.1523438,0 0.609375,0 0.9257813,0.609375 0.1757812,0.375 0.1757812,0.8789062 0.1757812,1.3710937 0,0.4804688 0,0.9726563 -0.1640625,1.33593753 -0.3046875,0.59765625 -0.7617187,0.64453125 -0.9960937,0.64453125 z m 0,0"
            style="fill:currentColor;fill-opacity:1;fill-rule:nonzero;stroke:none" aria-label="6"
            transform="matrix(1.3333333,0,0,1.3333333,273.36133,249.992)" />
        <path id="path113"
            d="m 75.34848,-42.52019 c 0,0.93953 -0.76163,1.70116 -1.70116,1.70116 -0.93952,0 -1.70114,-0.76163 -1.70114,-1.70116 0,-0.93953 0.76162,-1.70114 1.70114,-1.70114 0.93953,0 1.70116,0.76161 1.70116,1.70114 z"
            style="fill:currentColor;fill-opacity:1;fill-rule:nonzero;stroke:none"
            transform="matrix(1.3333333,0,0,-1.3333333,153.21867,161.75333)" />
    </g>
</svg>
