<?xml version="1.0" encoding="UTF-8" standalone="no"?>
<svg
   width="576pt"
   height="432pt"
   viewBox="0 0 576 432"
   version="1.1"
   id="svg52"
   sodipodi:docname="plane_with_wind_at_angle.svg"
   inkscape:version="1.3 (0e150ed, 2023-07-21)"
   xmlns:inkscape="http://www.inkscape.org/namespaces/inkscape"
   xmlns:sodipodi="http://sodipodi.sourceforge.net/DTD/sodipodi-0.dtd"
   xmlns:xlink="http://www.w3.org/1999/xlink"
   xmlns="http://www.w3.org/2000/svg"
   xmlns:svg="http://www.w3.org/2000/svg"
   xmlns:rdf="http://www.w3.org/1999/02/22-rdf-syntax-ns#"
   xmlns:cc="http://creativecommons.org/ns#"
   xmlns:dc="http://purl.org/dc/elements/1.1/">
  <sodipodi:namedview
     id="namedview52"
     pagecolor="#ffffff"
     bordercolor="#999999"
     borderopacity="1"
     inkscape:showpageshadow="0"
     inkscape:pageopacity="0"
     inkscape:pagecheckerboard="0"
     inkscape:deskcolor="#d1d1d1"
     inkscape:document-units="pt"
     inkscape:zoom="0.77604167"
     inkscape:cx="384"
     inkscape:cy="288"
     inkscape:window-width="1392"
     inkscape:window-height="1212"
     inkscape:window-x="0"
     inkscape:window-y="841"
     inkscape:window-maximized="0"
     inkscape:current-layer="figure_1" />
  <metadata
     id="metadata1">
    <rdf:RDF>
      <cc:Work>
        <dc:type
           rdf:resource="http://purl.org/dc/dcmitype/StillImage" />
        <dc:date>2023-10-01T17:36:38.570303</dc:date>
        <dc:format>image/svg+xml</dc:format>
        <dc:creator>
          <cc:Agent>
            <dc:title>Matplotlib v3.5.2, https://matplotlib.org/</dc:title>
          </cc:Agent>
        </dc:creator>
      </cc:Work>
    </rdf:RDF>
  </metadata>
  <defs
     id="defs1">
    <style
       type="text/css"
       id="style1">*{stroke-linejoin: round; stroke-linecap: butt}</style>
  </defs>
  <g
     id="figure_1"
     color="rgb(209, 209, 209)">
    <g
       id="axes_1"
       color="rgb(209, 209, 209)">
      <g
         id="patch_2"
         color="rgb(209, 209, 209)">
        <path
           d="M 72 384.48  L 518.4 384.48  L 518.4 51.84  L 72 51.84  z "
           style="fill: #eaeaf2"
           id="path2" />
      </g>
      <g
         id="matplotlib.axis_1"
         color="rgb(209, 209, 209)">
        <g
           id="xtick_1"
           color="rgb(209, 209, 209)">
          <g
             id="line2d_1"
             color="rgb(209, 209, 209)">
            <path
               d="M 72 384.48  L 72 51.84  "
               clip-path="url(#p09bdad3624)"
               style="fill: none; stroke: #ffffff; stroke-width: 0.8; stroke-linecap: round"
               id="path3" />
          </g>
          <g
             id="line2d_2"
             color="rgb(209, 209, 209)" />
          <g
             id="text_1"
             color="rgb(209, 209, 209)">
            <!-- 0 -->
            <g
               style="fill: currentColor"
               transform="translate(68.107344 398.000938)scale(0.14 -0.14)"
               color="rgb(209, 209, 209)"
               id="g3">
              <defs
                 id="defs3">
                <path
                   id="ArialMT-30"
                   d="M 266 2259  Q 266 3072 433 3567  Q 600 4063 929 4331  Q 1259 4600 1759 4600  Q 2128 4600 2406 4451  Q 2684 4303 2865 4023  Q 3047 3744 3150 3342  Q 3253 2941 3253 2259  Q 3253 1453 3087 958  Q 2922 463 2592 192  Q 2263 -78 1759 -78  Q 1097 -78 719 397  Q 266 969 266 2259  z M 844 2259  Q 844 1131 1108 757  Q 1372 384 1759 384  Q 2147 384 2411 759  Q 2675 1134 2675 2259  Q 2675 3391 2411 3762  Q 2147 4134 1753 4134  Q 1366 4134 1134 3806  Q 844 3388 844 2259  z "
                   transform="scale(0.015625)" />
              </defs>
              <use
                 xlink:href="#ArialMT-30"
                 id="use3" />
            </g>
          </g>
        </g>
        <g
           id="xtick_2"
           color="rgb(209, 209, 209)">
          <g
             id="line2d_3"
             color="rgb(209, 209, 209)">
            <path
               d="M 161.28 384.48  L 161.28 51.84  "
               clip-path="url(#p09bdad3624)"
               style="fill: none; stroke: #ffffff; stroke-width: 0.8; stroke-linecap: round"
               id="path4" />
          </g>
          <g
             id="line2d_4"
             color="rgb(209, 209, 209)" />
          <g
             id="text_2"
             color="rgb(209, 209, 209)">
            <!-- 500 -->
            <g
               style="fill: currentColor"
               transform="translate(149.602031 398.000938)scale(0.14 -0.14)"
               color="rgb(209, 209, 209)"
               id="g6">
              <defs
                 id="defs4">
                <path
                   id="ArialMT-35"
                   d="M 266 1200  L 856 1250  Q 922 819 1161 601  Q 1400 384 1738 384  Q 2144 384 2425 690  Q 2706 997 2706 1503  Q 2706 1984 2436 2262  Q 2166 2541 1728 2541  Q 1456 2541 1237 2417  Q 1019 2294 894 2097  L 366 2166  L 809 4519  L 3088 4519  L 3088 3981  L 1259 3981  L 1013 2750  Q 1425 3038 1878 3038  Q 2478 3038 2890 2622  Q 3303 2206 3303 1553  Q 3303 931 2941 478  Q 2500 -78 1738 -78  Q 1113 -78 717 272  Q 322 622 266 1200  z "
                   transform="scale(0.015625)" />
              </defs>
              <use
                 xlink:href="#ArialMT-35"
                 id="use4" />
              <use
                 xlink:href="#ArialMT-30"
                 x="55.615234"
                 id="use5" />
              <use
                 xlink:href="#ArialMT-30"
                 x="111.230469"
                 id="use6" />
            </g>
          </g>
        </g>
        <g
           id="xtick_3"
           color="rgb(209, 209, 209)">
          <g
             id="line2d_5"
             color="rgb(209, 209, 209)">
            <path
               d="M 250.56 384.48  L 250.56 51.84  "
               clip-path="url(#p09bdad3624)"
               style="fill: none; stroke: #ffffff; stroke-width: 0.8; stroke-linecap: round"
               id="path6" />
          </g>
          <g
             id="line2d_6"
             color="rgb(209, 209, 209)" />
          <g
             id="text_3"
             color="rgb(209, 209, 209)">
            <!-- 1000 -->
            <g
               style="fill: currentColor"
               transform="translate(234.989375 398.000938)scale(0.14 -0.14)"
               color="rgb(209, 209, 209)"
               id="g10">
              <defs
                 id="defs6">
                <path
                   id="ArialMT-31"
                   d="M 2384 0  L 1822 0  L 1822 3584  Q 1619 3391 1289 3197  Q 959 3003 697 2906  L 697 3450  Q 1169 3672 1522 3987  Q 1875 4303 2022 4600  L 2384 4600  L 2384 0  z "
                   transform="scale(0.015625)" />
              </defs>
              <use
                 xlink:href="#ArialMT-31"
                 id="use7" />
              <use
                 xlink:href="#ArialMT-30"
                 x="55.615234"
                 id="use8" />
              <use
                 xlink:href="#ArialMT-30"
                 x="111.230469"
                 id="use9" />
              <use
                 xlink:href="#ArialMT-30"
                 x="166.845703"
                 id="use10" />
            </g>
          </g>
        </g>
        <g
           id="xtick_4"
           color="rgb(209, 209, 209)">
          <g
             id="line2d_7"
             color="rgb(209, 209, 209)">
            <path
               d="M 339.84 384.48  L 339.84 51.84  "
               clip-path="url(#p09bdad3624)"
               style="fill: none; stroke: #ffffff; stroke-width: 0.8; stroke-linecap: round"
               id="path10" />
          </g>
          <g
             id="line2d_8"
             color="rgb(209, 209, 209)" />
          <g
             id="text_4"
             color="rgb(209, 209, 209)">
            <!-- 1500 -->
            <g
               style="fill: currentColor"
               transform="translate(324.269375 398.000938)scale(0.14 -0.14)"
               color="rgb(209, 209, 209)"
               id="g14">
              <use
                 xlink:href="#ArialMT-31"
                 id="use11" />
              <use
                 xlink:href="#ArialMT-35"
                 x="55.615234"
                 id="use12" />
              <use
                 xlink:href="#ArialMT-30"
                 x="111.230469"
                 id="use13" />
              <use
                 xlink:href="#ArialMT-30"
                 x="166.845703"
                 id="use14" />
            </g>
          </g>
        </g>
        <g
           id="xtick_5"
           color="rgb(209, 209, 209)">
          <g
             id="line2d_9"
             color="rgb(209, 209, 209)">
            <path
               d="M 429.12 384.48  L 429.12 51.84  "
               clip-path="url(#p09bdad3624)"
               style="fill: none; stroke: #ffffff; stroke-width: 0.8; stroke-linecap: round"
               id="path14" />
          </g>
          <g
             id="line2d_10"
             color="rgb(209, 209, 209)" />
          <g
             id="text_5"
             color="rgb(209, 209, 209)">
            <!-- 2000 -->
            <g
               style="fill: currentColor"
               transform="translate(413.549375 398.000938)scale(0.14 -0.14)"
               color="rgb(209, 209, 209)"
               id="g18">
              <defs
                 id="defs14">
                <path
                   id="ArialMT-32"
                   d="M 3222 541  L 3222 0  L 194 0  Q 188 203 259 391  Q 375 700 629 1000  Q 884 1300 1366 1694  Q 2113 2306 2375 2664  Q 2638 3022 2638 3341  Q 2638 3675 2398 3904  Q 2159 4134 1775 4134  Q 1369 4134 1125 3890  Q 881 3647 878 3216  L 300 3275  Q 359 3922 746 4261  Q 1134 4600 1788 4600  Q 2447 4600 2831 4234  Q 3216 3869 3216 3328  Q 3216 3053 3103 2787  Q 2991 2522 2730 2228  Q 2469 1934 1863 1422  Q 1356 997 1212 845  Q 1069 694 975 541  L 3222 541  z "
                   transform="scale(0.015625)" />
              </defs>
              <use
                 xlink:href="#ArialMT-32"
                 id="use15" />
              <use
                 xlink:href="#ArialMT-30"
                 x="55.615234"
                 id="use16" />
              <use
                 xlink:href="#ArialMT-30"
                 x="111.230469"
                 id="use17" />
              <use
                 xlink:href="#ArialMT-30"
                 x="166.845703"
                 id="use18" />
            </g>
          </g>
        </g>
        <g
           id="xtick_6"
           color="rgb(209, 209, 209)">
          <g
             id="line2d_11"
             color="rgb(209, 209, 209)">
            <path
               d="M 518.4 384.48  L 518.4 51.84  "
               clip-path="url(#p09bdad3624)"
               style="fill: none; stroke: #ffffff; stroke-width: 0.8; stroke-linecap: round"
               id="path18" />
          </g>
          <g
             id="line2d_12"
             color="rgb(209, 209, 209)" />
          <g
             id="text_6"
             color="rgb(209, 209, 209)">
            <!-- 2500 -->
            <g
               style="fill: currentColor"
               transform="translate(502.829375 398.000938)scale(0.14 -0.14)"
               color="rgb(209, 209, 209)"
               id="g22">
              <use
                 xlink:href="#ArialMT-32"
                 id="use19" />
              <use
                 xlink:href="#ArialMT-35"
                 x="55.615234"
                 id="use20" />
              <use
                 xlink:href="#ArialMT-30"
                 x="111.230469"
                 id="use21" />
              <use
                 xlink:href="#ArialMT-30"
                 x="166.845703"
                 id="use22" />
            </g>
          </g>
        </g>
        <g
           id="text_7"
           color="rgb(209, 209, 209)">
          <!-- x -->
          <g
             style="fill: currentColor"
             transform="translate(291.2 416.235937)scale(0.16 -0.16)"
             color="rgb(209, 209, 209)"
             id="g23">
            <defs
               id="defs22">
              <path
                 id="ArialMT-78"
                 d="M 47 0  L 1259 1725  L 138 3319  L 841 3319  L 1350 2541  Q 1494 2319 1581 2169  Q 1719 2375 1834 2534  L 2394 3319  L 3066 3319  L 1919 1756  L 3153 0  L 2463 0  L 1781 1031  L 1600 1309  L 728 0  L 47 0  z "
                 transform="scale(0.015625)" />
            </defs>
            <use
               xlink:href="#ArialMT-78"
               id="use23" />
          </g>
        </g>
      </g>
      <g
         id="matplotlib.axis_2"
         color="rgb(209, 209, 209)">
        <g
           id="ytick_1"
           color="rgb(209, 209, 209)">
          <g
             id="line2d_13"
             color="rgb(209, 209, 209)">
            <path
               d="M 72 384.48  L 518.4 384.48  "
               clip-path="url(#p09bdad3624)"
               style="fill: none; stroke: #ffffff; stroke-width: 0.8; stroke-linecap: round"
               id="path23" />
          </g>
          <g
             id="line2d_14"
             color="rgb(209, 209, 209)" />
          <g
             id="text_8"
             color="rgb(209, 209, 209)">
            <!-- 0 -->
            <g
               style="fill: currentColor"
               transform="translate(60.714687 389.490469)scale(0.14 -0.14)"
               color="rgb(209, 209, 209)"
               id="g24">
              <use
                 xlink:href="#ArialMT-30"
                 id="use24" />
            </g>
          </g>
        </g>
        <g
           id="ytick_2"
           color="rgb(209, 209, 209)">
          <g
             id="line2d_15"
             color="rgb(209, 209, 209)">
            <path
               d="M 72 317.952  L 518.4 317.952  "
               clip-path="url(#p09bdad3624)"
               style="fill: none; stroke: #ffffff; stroke-width: 0.8; stroke-linecap: round"
               id="path24" />
          </g>
          <g
             id="line2d_16"
             color="rgb(209, 209, 209)" />
          <g
             id="text_9"
             color="rgb(209, 209, 209)">
            <!-- 50 -->
            <g
               style="fill: currentColor"
               transform="translate(52.929375 322.962469)scale(0.14 -0.14)"
               color="rgb(209, 209, 209)"
               id="g26">
              <use
                 xlink:href="#ArialMT-35"
                 id="use25" />
              <use
                 xlink:href="#ArialMT-30"
                 x="55.615234"
                 id="use26" />
            </g>
          </g>
        </g>
        <g
           id="ytick_3"
           color="rgb(209, 209, 209)">
          <g
             id="line2d_17"
             color="rgb(209, 209, 209)">
            <path
               d="M 72 251.424  L 518.4 251.424  "
               clip-path="url(#p09bdad3624)"
               style="fill: none; stroke: #ffffff; stroke-width: 0.8; stroke-linecap: round"
               id="path26" />
          </g>
          <g
             id="line2d_18"
             color="rgb(209, 209, 209)" />
          <g
             id="text_10"
             color="rgb(209, 209, 209)">
            <!-- 100 -->
            <g
               style="fill: currentColor"
               transform="translate(45.144062 256.434469)scale(0.14 -0.14)"
               color="rgb(209, 209, 209)"
               id="g29">
              <use
                 xlink:href="#ArialMT-31"
                 id="use27" />
              <use
                 xlink:href="#ArialMT-30"
                 x="55.615234"
                 id="use28" />
              <use
                 xlink:href="#ArialMT-30"
                 x="111.230469"
                 id="use29" />
            </g>
          </g>
        </g>
        <g
           id="ytick_4"
           color="rgb(209, 209, 209)">
          <g
             id="line2d_19"
             color="rgb(209, 209, 209)">
            <path
               d="M 72 184.896  L 518.4 184.896  "
               clip-path="url(#p09bdad3624)"
               style="fill: none; stroke: #ffffff; stroke-width: 0.8; stroke-linecap: round"
               id="path29" />
          </g>
          <g
             id="line2d_20"
             color="rgb(209, 209, 209)" />
          <g
             id="text_11"
             color="rgb(209, 209, 209)">
            <!-- 150 -->
            <g
               style="fill: currentColor"
               transform="translate(45.144062 189.906469)scale(0.14 -0.14)"
               color="rgb(209, 209, 209)"
               id="g32">
              <use
                 xlink:href="#ArialMT-31"
                 id="use30" />
              <use
                 xlink:href="#ArialMT-35"
                 x="55.615234"
                 id="use31" />
              <use
                 xlink:href="#ArialMT-30"
                 x="111.230469"
                 id="use32" />
            </g>
          </g>
        </g>
        <g
           id="ytick_5"
           color="rgb(209, 209, 209)">
          <g
             id="line2d_21"
             color="rgb(209, 209, 209)">
            <path
               d="M 72 118.368  L 518.4 118.368  "
               clip-path="url(#p09bdad3624)"
               style="fill: none; stroke: #ffffff; stroke-width: 0.8; stroke-linecap: round"
               id="path32" />
          </g>
          <g
             id="line2d_22"
             color="rgb(209, 209, 209)" />
          <g
             id="text_12"
             color="rgb(209, 209, 209)">
            <!-- 200 -->
            <g
               style="fill: currentColor"
               transform="translate(45.144062 123.378469)scale(0.14 -0.14)"
               color="rgb(209, 209, 209)"
               id="g35">
              <use
                 xlink:href="#ArialMT-32"
                 id="use33" />
              <use
                 xlink:href="#ArialMT-30"
                 x="55.615234"
                 id="use34" />
              <use
                 xlink:href="#ArialMT-30"
                 x="111.230469"
                 id="use35" />
            </g>
          </g>
        </g>
        <g
           id="ytick_6"
           color="rgb(209, 209, 209)">
          <g
             id="line2d_23"
             color="rgb(209, 209, 209)">
            <path
               d="M 72 51.84  L 518.4 51.84  "
               clip-path="url(#p09bdad3624)"
               style="fill: none; stroke: #ffffff; stroke-width: 0.8; stroke-linecap: round"
               id="path35" />
          </g>
          <g
             id="line2d_24"
             color="rgb(209, 209, 209)" />
          <g
             id="text_13"
             color="rgb(209, 209, 209)">
            <!-- 250 -->
            <g
               style="fill: currentColor"
               transform="translate(45.144062 56.850469)scale(0.14 -0.14)"
               color="rgb(209, 209, 209)"
               id="g38">
              <use
                 xlink:href="#ArialMT-32"
                 id="use36" />
              <use
                 xlink:href="#ArialMT-35"
                 x="55.615234"
                 id="use37" />
              <use
                 xlink:href="#ArialMT-30"
                 x="111.230469"
                 id="use38" />
            </g>
          </g>
        </g>
        <g
           id="text_14"
           color="rgb(209, 209, 209)">
          <!-- y -->
          <g
             style="fill: currentColor"
             transform="translate(37.776562 222.16)rotate(-90)scale(0.16 -0.16)"
             color="rgb(209, 209, 209)"
             id="g39">
            <defs
               id="defs38">
              <path
                 id="ArialMT-79"
                 d="M 397 -1278  L 334 -750  Q 519 -800 656 -800  Q 844 -800 956 -737  Q 1069 -675 1141 -563  Q 1194 -478 1313 -144  Q 1328 -97 1363 -6  L 103 3319  L 709 3319  L 1400 1397  Q 1534 1031 1641 628  Q 1738 1016 1872 1384  L 2581 3319  L 3144 3319  L 1881 -56  Q 1678 -603 1566 -809  Q 1416 -1088 1222 -1217  Q 1028 -1347 759 -1347  Q 597 -1347 397 -1278  z "
                 transform="scale(0.015625)" />
            </defs>
            <use
               xlink:href="#ArialMT-79"
               id="use39" />
          </g>
        </g>
      </g>
      <g
         id="PathCollection_1"
         color="rgb(209, 209, 209)">
        <path
           d="M 72.111628 382.374869  L 72.206125 381.402311  L 72.433477 378.490983  L 72.737991 375.413293  L 73.499319 368.842011  L 74.835258 359.276219  L 76.528732 348.9618  L 78.263131 339.645551  L 80.84314 327.334794  L 83.497674 316.032719  L 86.643843 303.96099  L 89.696501 293.313848  L 92.593627 283.997599  L 95.665116 274.826733  L 99.2675 264.866017  L 102.740726 255.965671  L 106.224391 247.647592  L 109.651844 239.994959  L 113.3556 232.259145  L 117.017504 225.105596  L 120.839614 218.11841  L 124.581655 211.713488  L 128.635052 205.225386  L 132.585258 199.31955  L 136.450171 193.912798  L 140.455749 188.672408  L 144.55814 183.665388  L 148.8 178.848969  L 153.055061 174.365311  L 157.283721 170.235847  L 161.649034 166.296774  L 165.952079 162.72  L 170.12093 159.531008  L 174.474419 156.478206  L 178.827907 153.696695  L 183.213006 151.157869  L 187.534884 148.903435  L 192 146.822783  L 196.465116 144.985231  L 201.04186 143.344805  L 205.678863 141.924801  L 210.22759 140.76027  L 214.883721 139.794706  L 219.572093 139.046432  L 224.372093 138.50569  L 229.266946 138.181665  L 234.083721 138.080038  L 239.106977 138.196655  L 244.130233 138.533801  L 249.265116 139.099685  L 254.511628 139.902225  L 259.869767 140.949194  L 265.339535 142.248229  L 270.809302 143.773398  L 276.502326 145.594338  L 282.306977 147.689504  L 288.223256 150.066014  L 294.139535 152.67933  L 300.308321 155.649632  L 306.532154 158.893683  L 312.912732 162.470458  L 319.47907 166.409784  L 326.176744 170.690916  L 332.986047 175.308653  L 339.909722 180.271148  L 347.068074 185.677899  L 354.401537 191.500555  L 361.79715 197.655934  L 369.44206 204.310398  L 377.22376 211.380765  L 385.227907 218.957878  L 393.376744 226.981431  L 401.637209 235.425727  L 410.12093 244.416023  L 418.753141 253.886152  L 427.646512 263.97474  L 436.688372 274.568797  L 445.866099 285.661215  L 455.349039 297.472888  L 465.04186 309.90522  L 474.865116 322.866572  L 484.911628 336.490265  L 495.181395 350.792078  L 505.674419 365.787603  L 516.330082 381.402311  L 518.4 384.48  L 518.4 384.48  "
           clip-path="url(#p09bdad3624)"
           style="fill: none; stroke: #808000; stroke-width: 1.5"
           id="path39" />
      </g>
      <g
         id="PathCollection_2"
         color="rgb(209, 209, 209)">
        <path
           d="M 72.111628 383.488356  L 72.1173 383.48183  L 72.177606 383.39865  L 72.203681 383.315469  L 72.215912 383.232288  L 72.221367 383.149107  L 72.223165 383.065926  L 72.223174 382.982807  "
           clip-path="url(#p09bdad3624)"
           style="fill: none; stroke: #ee82ee; stroke-width: 1.5"
           id="path40" />
        <path
           d="M 72.223256 382.615941  L 72.325592 382.150938  L 72.509608 380.736864  L 74.022086 371.586977  L 78.089382 352.538575  L 80.166073 344.220495  L 83.387403 332.492003  L 87.059226 320.430788  L 89.583132 312.778155  L 92.65532 304.044171  L 96.497381 293.896114  L 99.949103 285.411673  L 103.599272 277.010413  L 107.620793 268.35961  L 111.720834 260.124711  L 115.383547 253.220705  L 119.17676 246.483061  L 123.055456 239.994959  L 127.144186 233.563221  L 131.526852 227.101935  L 135.806022 221.196099  L 139.98443 215.789347  L 144.448986 210.382596  L 148.939517 205.308567  L 153.278899 200.733623  L 157.766295 196.325041  L 162.195349 192.279765  L 166.772093 188.404456  L 171.348837 184.825318  L 175.941496 181.51886  L 180.502326 178.506483  L 185.163648 175.696204  L 189.72176 173.20078  L 194.344186 170.91611  L 199.032558 168.843221  L 203.72093 167.008174  L 208.52093 165.367801  L 213.32093 163.960962  L 218.232558 162.755652  L 223.144186 161.780125  L 228.055814 161.027631  L 233.07907 160.482124  L 238.213953 160.152131  L 243.348837 160.045917  L 248.595349 160.162251  L 253.84186 160.499838  L 259.2 161.067022  L 264.669767 161.871909  L 270.139535 162.899254  L 275.72093 164.171188  L 281.479731 165.714509  L 287.218605 167.480185  L 293.157064 169.540825  L 299.185479 171.869887  L 305.302326 174.47164  L 311.553488 177.372974  L 317.97732 180.603871  L 324.502326 184.13853  L 331.088372 187.958806  L 337.786047 192.098202  L 344.706977 196.639044  L 351.684724 201.482251  L 358.883721 206.751842  L 366.192393 212.378935  L 373.618605 218.376404  L 381.209302 224.791969  L 388.915345 231.593698  L 396.870176 238.913608  L 404.986047 246.687678  L 413.22034 254.884321  L 421.675757 263.618305  L 430.300461 272.851373  L 439.083582 282.583526  L 448.074419 292.883097  L 457.116279 303.578152  L 466.381395 314.880755  L 475.825694 326.752528  L 485.530316 339.312828  L 495.404651 352.461103  L 505.428049 366.180225  L 515.722902 380.653683  L 518.4 384.48  L 518.4 384.48  "
           clip-path="url(#p09bdad3624)"
           style="fill: none; stroke: #ee82ee; stroke-width: 1.5"
           id="path41" />
      </g>
      <g
         id="PathCollection_3"
         color="rgb(209, 209, 209)">
        <path
           d="M 72.111628 383.825585  L 72.126849 383.814554  L 72.211297 383.731373  L 72.211484 383.656964  "
           clip-path="url(#p09bdad3624)"
           style="fill: none; stroke: #000080; stroke-width: 1.5"
           id="path42" />
        <path
           d="M 72.223256 383.221367  L 72.278652 383.149107  L 72.311951 383.065926  L 72.327263 382.982746  L 72.333459 382.899565  L 72.33374 382.817236  "
           clip-path="url(#p09bdad3624)"
           style="fill: none; stroke: #000080; stroke-width: 1.5"
           id="path43" />
        <path
           d="M 72.334884 382.64208  L 72.443173 382.234119  L 72.55814 381.540588  L 72.707992 380.903226  L 73.087463 379.156429  L 73.562791 377.047499  L 74.044822 375.08057  L 77.134884 363.706089  L 82.018013 348.545896  L 84.168059 342.556879  L 88.269488 331.992918  L 91.059853 325.338455  L 94.05571 318.60081  L 97.35268 311.613623  L 101.460535 303.461905  L 104.900419 297.056984  L 108.542423 290.652063  L 112.610888 283.914419  L 116.45112 277.925401  L 120.781395 271.569178  L 125.415097 265.19874  L 129.673235 259.708807  L 133.953488 254.518651  L 138.681509 249.144846  L 143.219576 244.32036  L 147.906977 239.660915  L 152.706977 235.212266  L 157.581771 231.011433  L 162.256863 227.268297  L 166.995349 223.746757  L 171.921059 220.364291  L 176.818605 217.270473  L 181.730233 214.426653  L 186.753488 211.775983  L 191.776744 209.376285  L 196.8 207.218547  L 201.934884 205.25428  L 207.069767 203.525899  L 212.316279 201.995622  L 217.562791 200.696024  L 222.92093 199.599508  L 228.27907 198.729164  L 233.748837 198.06714  L 239.218605 197.627385  L 244.8 197.401373  L 250.493023 197.396274  L 256.186047 197.612739  L 261.990698 198.055572  L 267.906977 198.731769  L 273.823256 199.629215  L 279.851163 200.765491  L 285.991817 202.147697  L 292.24186 203.781775  L 298.604651 205.675214  L 305.07907 207.834348  L 311.665116 210.265714  L 318.362791 212.975776  L 325.172093 215.970937  L 332.14463 219.282941  L 339.237209 222.900687  L 346.381395 226.792753  L 353.748837 231.061448  L 361.227907 235.653937  L 368.820165 240.577224  L 376.632558 245.912233  L 384.55814 251.597421  L 392.595349 257.63748  L 400.744186 264.038099  L 409.116279 270.898254  L 417.6 278.137701  L 426.195349 285.761912  L 435.030132 293.896114  L 444.055814 302.511426  L 453.18221 311.530443  L 462.543148 321.096234  L 472.077848 331.16111  L 481.77614 341.725071  L 491.7021 352.871298  L 501.770748 364.516609  L 511.975565 376.661005  L 518.4 384.48  L 518.4 384.48  "
           clip-path="url(#p09bdad3624)"
           style="fill: none; stroke: #000080; stroke-width: 1.5"
           id="path44" />
      </g>
      <g
         id="PathCollection_4"
         color="rgb(209, 209, 209)">
        <path
           d="M 72.111628 384.095335  L 72.16144 384.064096  L 72.161235 384.027131  "
           clip-path="url(#p09bdad3624)"
           style="fill: none; stroke: #ffa500; stroke-width: 1.5"
           id="path45" />
        <path
           d="M 72.223256 383.712043  L 72.295457 383.648192  L 72.331792 383.565011  L 72.332226 383.483811  "
           clip-path="url(#p09bdad3624)"
           style="fill: none; stroke: #ffa500; stroke-width: 1.5"
           id="path46" />
        <path
           d="M 72.334884 383.338367  L 72.356165 383.315469  L 72.418284 383.232288  L 72.440586 383.149107  L 72.446315 383.065926  L 72.446492 382.98276  "
           clip-path="url(#p09bdad3624)"
           style="fill: none; stroke: #ffa500; stroke-width: 1.5"
           id="path47" />
        <path
           d="M 72.446512 382.978144  L 72.557838 382.650023  L 72.669767 382.29056  L 72.849179 381.818215  L 73.623478 379.572333  L 74.67907 376.744097  L 75.750016 374.082401  L 77.134884 370.807982  L 82.62119 359.276219  L 86.515516 352.03949  L 90.813753 344.71958  L 94.12092 339.47919  L 98.266242 333.323811  L 102.340232 327.667517  L 106.162389 322.676669  L 110.775513 317.020375  L 115.117885 312.029527  L 119.665116 307.120487  L 124.600761 302.131013  L 129.43973 297.556069  L 134.231198 293.313848  L 139.149999 289.237989  L 144.111628 285.396104  L 149.395865 281.585356  L 154.612898 278.091763  L 159.975756 274.764531  L 165.432558 271.640173  L 171.037469 268.692333  L 176.595349 266.018836  L 182.288372 263.526928  L 188.093023 261.232416  L 193.897674 259.176591  L 199.813953 257.317379  L 205.84186 255.659154  L 211.923692 254.218875  L 218.009302 253.003553  L 224.260465 251.982495  L 230.623256 251.172024  L 236.986047 250.585014  L 243.460465 250.209962  L 250.046512 250.051521  L 256.744186 250.114314  L 263.553488 250.402924  L 270.474419 250.921917  L 277.506977 251.675818  L 284.651163 252.669129  L 291.906977 253.906319  L 299.274419 255.391832  L 306.753981 257.130203  L 314.348105 259.126542  L 322.046512 261.382305  L 329.860465 263.90497  L 337.786047 266.697745  L 345.845388 269.773683  L 354.083721 273.158195  L 362.344186 276.790074  L 370.827907 280.762845  L 379.51288 285.07895  L 388.24186 289.66524  L 397.172093 294.609247  L 406.240858 299.885131  L 415.516055 305.541425  L 424.906414 311.530443  L 434.455814 317.886094  L 444.167442 324.618319  L 453.990698 331.697859  L 463.949299 339.146467  L 474.195349 347.089721  L 484.509708 355.366722  L 495.069767 364.127049  L 505.786047 373.307194  L 516.613953 382.874199  L 518.4 384.48  L 518.4 384.48  "
           clip-path="url(#p09bdad3624)"
           style="fill: none; stroke: #ffa500; stroke-width: 1.5"
           id="path48" />
      </g>
      <g
         id="patch_3"
         color="rgb(209, 209, 209)">
        <path
           d="M 72 384.48  L 72 51.84  "
           style="fill: none"
           id="path49" />
      </g>
      <g
         id="patch_4"
         color="rgb(209, 209, 209)">
        <path
           d="M 518.4 384.48  L 518.4 51.84  "
           style="fill: none"
           id="path50" />
      </g>
      <g
         id="patch_5"
         color="rgb(209, 209, 209)">
        <path
           d="M 72 384.48  L 518.4 384.48  "
           style="fill: none"
           id="path51" />
      </g>
      <g
         id="patch_6"
         color="rgb(209, 209, 209)">
        <path
           d="M 72 51.84  L 518.4 51.84  "
           style="fill: none"
           id="path52" />
      </g>
    </g>
  </g>
  <defs
     id="defs52">
    <clipPath
       id="p09bdad3624">
      <rect
         x="72"
         y="51.84"
         width="446.4"
         height="332.64"
         id="rect52" />
    </clipPath>
  </defs>
</svg>
