<?xml version="1.0" encoding="UTF-8" standalone="no"?>
<svg
   version="1.1"
   width="2936"
   height="1523"
   id="svg119"
   xmlns="http://www.w3.org/2000/svg"
   xmlns:svg="http://www.w3.org/2000/svg">
  <defs
     id="defs5">
    <clipPath
       id="OUKxzOeodSXT">
      <path
         fill="none"
         stroke="none"
         d="M 0,0 H 2936 V 1523 H 0 Z"
         id="path2" />
    </clipPath>
  </defs>
  <g
     clip-path="url(#OUKxzOeodSXT)"
     id="g117">
    <g
       id="g115">
      <path
         fill="none"
         stroke="#c0c0c0"
         paint-order="fill stroke markers"
         d="m 0.5,0.5 v 1523 m 0,-1523 v 1523 m 489,-1523 v 1523 m 489,-1523 v 1523 m 489,-1523 v 1523 m 490,-1523 v 1523 m 489,-1523 v 1523 m 489,-1523 v 1523"
         stroke-opacity="1"
         stroke-linecap="round"
         stroke-linejoin="round"
         stroke-miterlimit="10"
         id="path9" />
      <path
         fill="none"
         stroke="#c0c0c0"
         paint-order="fill stroke markers"
         d="m 97.5,0.5 v 1523 m 98,-1523 v 1523 m 98,-1523 v 1523 m 98,-1523 v 1523 m 196,-1523 v 1523 m 98,-1523 v 1523 m 97,-1523 v 1523 m 98,-1523 v 1523 m 196,-1523 v 1523 m 98,-1523 v 1523 m 98,-1523 v 1523 m 98,-1523 v 1523 m 195,-1523 v 1523 m 98,-1523 v 1523 m 98,-1523 v 1523 m 98,-1523 v 1523 m 196,-1523 v 1523 m 98,-1523 v 1523 m 97,-1523 v 1523 m 98,-1523 v 1523 m 196,-1523 v 1523 m 98,-1523 v 1523 m 98,-1523 v 1523 m 98,-1523 v 1523"
         stroke-opacity="0.235294"
         stroke-linecap="round"
         stroke-linejoin="round"
         stroke-miterlimit="10"
         id="path11" />
      <path
         fill="none"
         stroke="#c0c0c0"
         paint-order="fill stroke markers"
         d="m 0.5,304.5 h 2936 m -2936,0 h 2936 m -2936,305 h 2936 m -2936,304 h 2936 m -2936,305 h 2936 m -2936,304 h 2936"
         stroke-opacity="1"
         stroke-linecap="round"
         stroke-linejoin="round"
         stroke-miterlimit="10"
         id="path13" />
      <path
         fill="none"
         stroke="#c0c0c0"
         paint-order="fill stroke markers"
         d="m 0.5,60.5 h 2936 m -2936,61 h 2936 m -2936,61 h 2936 m -2936,61 h 2936 m -2936,122 h 2936 m -2936,61 h 2936 m -2936,61 h 2936 m -2936,61 h 2936 m -2936,122 h 2936 m -2936,61 h 2936 m -2936,60 h 2936 m -2936,61 h 2936 m -2936,122 h 2936 m -2936,61 h 2936 m -2936,61 h 2936 m -2936,61 h 2936 m -2936,122 h 2936 m -2936,61 h 2936 m -2936,61 h 2936 m -2936,61 h 2936"
         stroke-opacity="0.235294"
         stroke-linecap="round"
         stroke-linejoin="round"
         stroke-miterlimit="10"
         id="path15" />
      <path
         fill="none"
         stroke="#a0a0a0"
         paint-order="fill stroke markers"
         d="m 51.609375,1534.3614 5.734375,-9.5018 5.734375,-9.455 5.734375,-9.4083 5.734375,-9.3618 5.734375,-9.3152 5.734375,-9.2689 5.734375,-9.2225 5.734375,-9.1762 5.734375,-9.13 5.73438,-9.084 5.73437,-9.0379 5.73438,-8.9921 5.73437,-8.9461 5.73437,-8.9004 5.73438,-8.8548 5.73437,-8.8091 5.73438,-8.7636 5.73437,-8.7182 5.73438,-8.6729 5.73437,-8.6275 5.73438,-8.5824 5.73437,-8.5373 5.73438,-8.4923 5.73437,-8.4473 5.73438,-8.4025 5.73437,-8.3578 5.73438,-8.313 5.73437,-8.2684 5.73438,-8.2239 5.73437,-8.1795 5.73438,-8.1351 5.73437,-8.0908 5.73438,-8.0467 5.73438,-8.0025 5.73437,-7.9585 5.73437,-7.9146 5.73438,-7.8707 5.73437,-7.8269 5.73438,-7.7833 5.73437,-7.7396 5.73438,-7.6961 5.73437,-7.6527 5.73438,-7.6093 5.73437,-7.566 5.73438,-7.5228 5.73437,-7.4797 5.73438,-7.4366 5.73437,-7.3938 5.73438,-7.3508 5.73437,-7.3081 5.73438,-7.2653 5.73437,-7.2228 5.73438,-7.1802 5.73437,-7.1377 5.73438,-7.0954 5.73437,-7.0531 5.73438,-7.0109 5.73437,-6.9688 5.73438,-6.9267 5.73437,-6.8848 5.73438,-6.8429 5.73437,-6.8011 5.73438,-6.7594 5.73437,-6.7177 5.73438,-6.6763 5.73437,-6.6347 5.73438,-6.59342 5.73437,-6.55209 5.73438,-6.51088 5.73437,-6.46975 5.73438,-6.4287 5.73437,-6.38774 5.73438,-6.34685 5.73437,-6.30606 5.73438,-6.26534 5.73437,-6.22471 5.73438,-6.18415 5.73438,-6.14369 5.73437,-6.10331 5.73438,-6.063 5.73437,-6.02278 5.73437,-5.98264 5.73438,-5.94259 5.73437,-5.90262 5.73438,-5.86272 5.73437,-5.82293 5.73438,-5.78319 5.73437,-5.74356 5.73438,-5.704 5.73437,-5.66452 5.73438,-5.62513 5.73437,-5.58582 5.73438,-5.5466 5.73437,-5.50745 5.73438,-5.46838 5.73437,-5.42941 5.73438,-5.39051 5.73437,-5.3517 5.73438,-5.31297 5.73437,-5.27432 5.73438,-5.23575 5.73437,-5.19727 5.73438,-5.15887 5.73437,-5.12055 5.73438,-5.08232 5.73437,-5.04417 5.73438,-5.0061 5.73437,-4.96811 5.73438,-4.93021 5.73437,-4.89238 5.73438,-4.85465 5.73437,-4.81699 5.73438,-4.77942 5.73437,-4.74193 5.73438,-4.70452 5.73437,-4.6672 5.73438,-4.62996 5.73437,-4.59279 5.73438,-4.55572 5.73437,-4.51873 5.73438,-4.48181 5.73437,-4.44499 5.73438,-4.40824 5.73437,-4.37158 5.73438,-4.33499 5.73437,-4.2985 5.73438,-4.26209 5.73437,-4.22575 5.73438,-4.18951 5.73437,-4.15333 5.73438,-4.11726 5.73437,-4.08125 5.73438,-4.04533 5.73437,-4.0095 5.73438,-3.97375 5.73437,-3.93807 5.73438,-3.90249 5.73437,-3.86698 5.73438,-3.83156 5.73437,-3.79622 5.73438,-3.76097 5.73437,-3.72579 5.73438,-3.6907 5.73437,-3.65569 5.73438,-3.62077 5.73437,-3.58592 5.73438,-3.55116 5.73437,-3.51648 5.73438,-3.48189 5.73437,-3.44738 5.73438,-3.41295 5.73437,-3.3786 5.73438,-3.34434 5.73437,-3.31015 5.73438,-3.27606 5.73437,-3.24204 5.73438,-3.20811 5.73437,-3.17426 5.73438,-3.14049 5.73437,-3.1068 5.73438,-3.07321 5.73438,-3.03968 5.73437,-3.00625 5.73438,-2.97289 5.73437,-2.93962 5.73435,-2.90643 5.7344,-2.87333 5.7344,-2.8403 5.7344,-2.80737 5.7343,-2.7745 5.7344,-2.74173 5.7344,-2.70904 5.7344,-2.67643 5.7343,-2.6439 5.7344,-2.61146 5.7344,-2.57909 5.7344,-2.54682 5.7343,-2.51462 5.7344,-2.48251 5.7344,-2.45048 5.7344,-2.41853 5.7343,-2.38666 5.7344,-2.35489 5.7344,-2.32318 5.7344,-2.29157 5.7343,-2.26003 5.7344,-2.22858 5.7344,-2.19721 5.7344,-2.16593 5.7343,-2.13472 5.7344,-2.1036 5.7344,-2.07256 5.7344,-2.04161 5.7343,-2.01074 5.7344,-1.97995 5.7344,-1.94924 5.7344,-1.91861 5.7343,-1.88807 5.7344,-1.85762 5.7344,-1.82724 5.7344,-1.79694 5.7343,-1.76674 5.7344,-1.73661 5.7344,-1.70656 5.7344,-1.6766 5.7343,-1.64672 5.7344,-1.61692 5.7344,-1.58721 5.7344,-1.55757 5.7343,-1.52803 5.7344,-1.49856 5.7344,-1.46918 5.7344,-1.43988 5.7343,-1.41066 5.7344,-1.38152 5.7344,-1.35247 5.7344,-1.32351 5.7343,-1.29461 5.7344,-1.26581 5.7344,-1.23709 5.7344,-1.20845 5.7343,-1.17989 5.7344,-1.15142 5.7344,-1.12303 5.7344,-1.09472 5.7343,-1.0665 5.7344,-1.03835 5.7344,-1.01029 5.7344,-0.98232 5.7343,-0.95442 5.7344,-0.92661 5.7344,-0.89888 5.7344,-0.87124 5.7343,-0.84367 5.7344,-0.81619 5.7344,-0.78879 5.7344,-0.76148 5.7343,-0.73424 5.7344,-0.7071 5.7344,-0.68002 5.7344,-0.65304 5.7343,-0.62614 5.7344,-0.59933 5.7344,-0.57258 5.7344,-0.54593 5.7343,-0.51936 5.7344,-0.49288 5.7344,-0.46646 5.7344,-0.44015 5.7343,-0.4139 5.7344,-0.38775 5.7344,-0.36167 5.7344,-0.33568 5.7343,-0.30977 5.7344,-0.28395 5.7344,-0.2582 5.7344,-0.23254 5.7343,-0.20696 5.7344,-0.18146 5.7344,-0.15606 5.7344,-0.13072 5.7343,-0.10548 5.7344,-0.0803 5.7344,-0.0552 5.7344,-0.0302 5.7343,-0.005 5.7344,0.0195 5.7344,0.0443 5.7344,0.0689 5.7343,0.0935 5.7344,0.11803 5.7344,0.14245 5.7344,0.16679 5.7343,0.19104 5.7344,0.21521 5.7344,0.2393 5.7344,0.26331 5.7343,0.28723 5.7344,0.31107 5.7344,0.33483 5.7344,0.35851 5.7343,0.3821 5.7344,0.40561 5.7344,0.42904 5.7344,0.45238 5.7343,0.47564 5.7344,0.49883 5.7344,0.52192 5.7344,0.54493 5.7343,0.56787 5.7344,0.59071 5.7344,0.61348 5.7344,0.63616 5.7343,0.65877 5.7344,0.68128 5.7344,0.70371 5.7344,0.72607 5.7343,0.74834 5.7344,0.77052 5.7344,0.79263 5.7344,0.81465 5.7343,0.83658 5.7344,0.85845 5.7344,0.88021 5.7344,0.90191 5.7343,0.92351 5.7344,0.94504 5.7344,0.96648 5.7344,0.98785 5.7343,1.00911 5.7344,1.03031 5.7344,1.05143 5.7344,1.07245 5.7343,1.0934 5.7344,1.11426 5.7344,1.13504 5.7344,1.15574 5.7343,1.17635 5.7344,1.19688 5.7344,1.21734 5.7344,1.2377 5.7343,1.25799 5.7344,1.27819 5.7344,1.2983 5.7344,1.31834 5.7343,1.3383 5.7344,1.35816 5.7344,1.37796 5.7344,1.39766 5.7343,1.41728 5.7344,1.43682 5.7344,1.45627 5.7344,1.47566 5.7343,1.49494 5.7344,1.51415 5.7344,1.53328 5.7344,1.55232 5.7343,1.57128 5.7344,1.59016 5.7344,1.60895 5.7344,1.62767 5.7343,1.6463 5.7344,1.66484 5.7344,1.68331 5.7344,1.70169 5.7343,1.71999 5.7344,1.7382 5.7344,1.75634 5.7344,1.77438 5.7343,1.79236 5.7344,1.81024 5.7344,1.82804 5.7344,1.84577 5.7343,1.8634 5.7344,1.88095 5.7344,1.89843 5.7344,1.91581 5.7343,1.93312 5.7344,1.95035 5.7344,1.96748 5.7344,1.98455 5.7343,2.00151 5.7344,2.01841 5.7344,2.03522 5.7344,2.05195 5.7343,2.06859 5.7344,2.08516 5.7344,2.10163 5.7344,2.11803 5.7343,2.13434 5.7344,2.15057 5.7344,2.16672 5.7344,2.18279 5.7343,2.19877 5.7344,2.21467 5.7344,2.23048 5.7344,2.24622 5.7343,2.26188 5.7344,2.27744 5.7344,2.29292 5.7344,2.30833 5.7343,2.32366 5.7344,2.33889 5.7344,2.35404 5.7344,2.36912 5.7343,2.3841 5.7344,2.39902 5.7344,2.41384 5.7344,2.42858 5.7343,2.44324 5.7344,2.45782 5.7344,2.47231 5.7344,2.48672 5.7343,2.50104 5.7344,2.5153 5.7344,2.52946 5.7344,2.54353 5.7343,2.55754 5.7344,2.57145 5.7344,2.58528 5.7344,2.59903 5.7343,2.61269 5.7344,2.62628 5.7344,2.63978 5.7344,2.6532 5.7343,2.66654 5.7344,2.67978 5.7344,2.69296 5.7344,2.70605 5.7343,2.71904 5.7344,2.73198 5.7344,2.74481 5.7344,2.75756 5.7343,2.77024 5.7344,2.78283 5.7344,2.79534 5.7344,2.80777 5.7343,2.82011 5.7344,2.83237 5.7344,2.84454 5.7344,2.85664 5.7343,2.86865 5.7344,2.88059 5.7344,2.89242 5.7344,2.90419 5.7343,2.91588 5.7344,2.92747 5.7344,2.93899 5.7344,2.95042 5.7343,2.96177 5.7344,2.97303 5.7344,2.98423 5.7344,2.99532 5.7343,3.00634 5.7344,3.01728 5.7344,3.02814 5.7344,3.0389 5.7343,3.0496 5.7344,3.06019 5.7344,3.07073 5.7344,3.08116 5.7343,3.09152 5.7344,3.10179 5.7344,3.11199 5.7344,3.1221 5.7343,3.13212 5.7344,3.14207 5.7344,3.15192 5.7344,3.16171 5.7343,3.1714 5.7344,3.18102 5.7344,3.19054 5.7344,3.2 5.7343,3.20935 5.7344,3.21864 5.7344,3.22784 5.7344,3.23696 5.7343,3.24599 5.7344,3.25494 5.7344,3.26381 5.7344,3.2726 5.7343,3.2813 5.7344,3.28992 5.7344,3.29845 5.7344,3.30691 5.7343,3.31529 5.7344,3.32357 5.7344,3.33178 5.7344,3.33991 5.7343,3.34794 5.7344,3.35591 5.7344,3.36378 5.7344,3.37157 5.7343,3.37928 5.7344,3.38692 5.7344,3.39445 5.7344,3.40192 5.7343,3.4093 5.7344,3.4166 5.7344,3.42381 5.7344,3.43094 5.7343,3.43799 5.7344,3.44495 5.7344,3.45184 5.7344,3.45864 5.7343,3.46536 5.7344,3.47199 5.7344,3.47854 5.7344,3.48502 5.7343,3.4914 5.7344,3.4977 5.7344,3.50393 5.7344,3.51006 5.7343,3.51613 5.7344,3.52209 5.7344,3.52799 5.7344,3.53379 5.7343,3.53952 5.7344,3.54516 5.7344,3.55072 5.7344,3.5562 5.7343,3.56159 L 2936,913.8"
         stroke-opacity="0.8"
         stroke-linecap="round"
         stroke-linejoin="round"
         stroke-miterlimit="10"
         stroke-width="6.5"
         id="path17" />
      <path
         fill="none"
         stroke="#1565c0"
         paint-order="fill stroke markers"
         d="M -5,839.81207 2845.5045,-5"
         stroke-opacity="0.698039"
         stroke-linecap="round"
         stroke-linejoin="round"
         stroke-miterlimit="10"
         stroke-width="6.5"
         id="path19" />
      <path
         fill="none"
         stroke="#6557d2"
         paint-order="fill stroke markers"
         d="M -5,1207.3857 2217.8072,-5"
         stroke-opacity="0.698039"
         stroke-linecap="round"
         stroke-linejoin="round"
         stroke-miterlimit="10"
         stroke-width="6.5"
         id="path21" />
      <path
         fill="none"
         stroke="#db6114"
         paint-order="fill stroke markers"
         d="M -5,1331.0676 1673.9295,-5"
         stroke-opacity="0.698039"
         stroke-linecap="round"
         stroke-linejoin="round"
         stroke-miterlimit="10"
         stroke-width="6.5"
         id="path23" />
      <path
         fill="#a0a0a0"
         stroke="none"
         paint-order="stroke fill markers"
         d="m 987.66667,548.28 c 0,4.97056 -4.02944,9 -9,9 -4.97057,0 -9,-4.02944 -9,-9 0,-4.97056 4.02943,-9 9,-9 4.97056,0 9,4.02944 9,9 z"
         fill-opacity="1"
         id="path25" />
      <path
         fill="none"
         stroke="#000000"
         paint-order="fill stroke markers"
         d="m 987.66667,548.28 c 0,4.97056 -4.02944,9 -9,9 -4.97057,0 -9,-4.02944 -9,-9 0,-4.97056 4.02943,-9 9,-9 4.97056,0 9,4.02944 9,9 z"
         stroke-opacity="1"
         stroke-linecap="round"
         stroke-linejoin="round"
         stroke-miterlimit="10"
         id="path27" />
      <path
         fill="#a0a0a0"
         stroke="none"
         paint-order="stroke fill markers"
         d="m 1479.8604,402.40715 c 0,4.97056 -4.0294,9 -9,9 -4.9705,0 -9,-4.02944 -9,-9 0,-4.97057 4.0295,-9 9,-9 4.9706,0 9,4.02943 9,9 z"
         fill-opacity="1"
         id="path29" />
      <path
         fill="none"
         stroke="#000000"
         paint-order="fill stroke markers"
         d="m 1479.8604,402.40715 c 0,4.97056 -4.0294,9 -9,9 -4.9705,0 -9,-4.02944 -9,-9 0,-4.97057 4.0295,-9 9,-9 4.9706,0 9,4.02943 9,9 z"
         stroke-opacity="1"
         stroke-linecap="round"
         stroke-linejoin="round"
         stroke-miterlimit="10"
         id="path31" />
      <path
         fill="#a0a0a0"
         stroke="none"
         paint-order="stroke fill markers"
         d="m 498.02537,937.92941 c 0,4.97057 -4.02944,9 -9,9 -4.97056,0 -9,-4.02943 -9,-9 0,-4.97056 4.02944,-9 9,-9 4.97056,0 9,4.02944 9,9 z"
         fill-opacity="1"
         id="path33" />
      <path
         fill="none"
         stroke="#000000"
         paint-order="fill stroke markers"
         d="m 498.02537,937.92941 c 0,4.97057 -4.02944,9 -9,9 -4.97056,0 -9,-4.02943 -9,-9 0,-4.97056 4.02944,-9 9,-9 4.97056,0 9,4.02944 9,9 z"
         stroke-opacity="1"
         stroke-linecap="round"
         stroke-linejoin="round"
         stroke-miterlimit="10"
         id="path35" />
      <g
         transform="scale(67)"
         id="g65">
        <g
           transform="translate(7.9253731,14.884328)"
           id="g39">
          <path
             fill="#a0a0a0"
             stroke="none"
             paint-order="stroke fill markers"
             d="M 0.429,-0.397 0.375,-0.095 Q 0.35,0.048 0.306,0.115 0.298,0.128 0.284,0.1445 0.27,0.161 0.2375,0.1815 0.205,0.202 0.171,0.202 0.128,0.202 0.095,0.181 0.062,0.16 0.062,0.122 0.062,0.093 0.083,0.0705 0.104,0.048 0.134,0.048 q 0.02,0 0.0345,0.0125 Q 0.183,0.073 0.183,0.094 0.183,0.115 0.1705,0.133 0.158,0.151 0.139,0.16 q 0.014,0.006 0.034,0.006 0.03,0 0.05,-0.051 Q 0.225,0.109 0.229,0.09 0.233,0.071 0.237,0.051 0.241,0.031 0.241,0.029 L 0.317,-0.397 H 0.225 q -0.033,0 -0.033,-0.018 0,-0.014 0.006,-0.0205 Q 0.204,-0.442 0.21,-0.443 0.216,-0.444 0.228,-0.444 h 0.098 q 0.012,-0.069 0.0165,-0.091 0.0045,-0.022 0.0125,-0.048 0.008,-0.026 0.019,-0.044 0.047,-0.075 0.138,-0.075 0.048,0 0.081,0.0215 0.033,0.0215 0.033,0.0585 0,0.029 -0.021,0.0515 -0.021,0.0225 -0.051,0.0225 -0.02,0 -0.0345,-0.0125 Q 0.505,-0.573 0.505,-0.594 q 0,-0.02 0.012,-0.038 0.012,-0.018 0.03,-0.027 -0.017,-0.007 -0.035,-0.007 -0.016,0 -0.029,0.012 -0.01,0.009 -0.013,0.029 l -0.033,0.181 h 0.112 q 0.034,0 0.034,0.018 0,0.014 -0.006,0.0205 -0.006,0.0065 -0.012,0.0075 -0.006,0.001 -0.019,0.001 z"
             id="path37" />
        </g>
        <g
           transform="translate(8.6033731,14.884328)"
           id="g43">
          <path
             fill="#a0a0a0"
             stroke="none"
             paint-order="stroke fill markers"
             d="M 0.379,0.225 0.38,0.228 q 0.002,0.004 0.002,0.007 0,0.014 -0.018,0.014 -0.019,0 -0.0755,-0.0525 Q 0.232,0.144 0.188,0.067 q -0.08,-0.141 -0.08,-0.318 0,-0.267 0.179,-0.445 0.057,-0.054 0.077,-0.054 0.018,0 0.018,0.014 0,0.005 -0.016,0.021 -0.161,0.162 -0.161,0.465 0,0.144 0.038,0.259 0.042,0.129 0.136,0.216 z"
             id="path41" />
        </g>
        <g
           transform="translate(9.0503731,14.884328)"
           id="g47">
          <path
             fill="#a0a0a0"
             stroke="none"
             paint-order="stroke fill markers"
             d="m 0.252,-0.397 -0.073,0.289 q -0.006,0.026 -0.006,0.043 0,0.013 0.002,0.021 0.002,0.008 0.0065,0.0115 0.0045,0.0035 0.0075,0.004 0.003,5e-4 0.008,5e-4 0.033,0 0.07,-0.029 Q 0.304,-0.086 0.33,-0.146 0.335,-0.157 0.3385,-0.1595 0.342,-0.162 0.355,-0.162 q 0.024,0 0.024,0.014 0,0.008 -0.013,0.032 -0.013,0.024 -0.0355,0.0525 -0.0225,0.0285 -0.06,0.05 Q 0.233,0.008 0.192,0.008 0.141,0.008 0.1035,-0.018 0.066,-0.044 0.066,-0.09 q 0,-0.016 0.017,-0.079 L 0.14,-0.397 H 0.059 q -0.012,0 -0.0175,-5e-4 Q 0.036,-0.398 0.0305,-0.4025 0.025,-0.407 0.025,-0.415 q 0,-0.014 0.006,-0.0205 0.006,-0.0065 0.012,-0.0075 0.006,-0.001 0.019,-0.001 h 0.09 l 0.02,-0.082 q 0.018,-0.072 0.023,-0.082 0.02,-0.035 0.058,-0.035 0.018,0 0.0325,0.011 0.0145,0.011 0.0145,0.033 0,0.01 -0.004,0.026 l -0.032,0.129 h 0.08 q 0.033,0 0.033,0.018 0,0.018 -0.009,0.024 -0.005,0.005 -0.027,0.005 z"
             id="path45" />
        </g>
        <g
           transform="translate(9.6875954,14.884328)"
           id="g51">
          <path
             fill="#a0a0a0"
             stroke="none"
             paint-order="stroke fill markers"
             d="M 0.752,-0.22 H 0.141 q -0.045,0 -0.045,-0.031 0,-0.03 0.045,-0.03 h 0.611 q 0.045,0 0.045,0.031 0,0.03 -0.045,0.03 z"
             id="path49" />
        </g>
        <g
           transform="translate(10.803818,14.884328)"
           id="g55">
          <path
             fill="#a0a0a0"
             stroke="none"
             paint-order="stroke fill markers"
             d="m 0.524,-0.673 0.369,0.646 Q 0.9,-0.016 0.9,-0.012 0.9,-0.004 0.8945,-0.002 0.889,0 0.874,0 H 0.083 Q 0.073,0 0.0685,-5e-4 0.064,-0.001 0.0605,-0.0035 0.057,-0.006 0.057,-0.012 q 0,-0.004 0.007,-0.015 l 0.369,-0.646 q 0.009,-0.017 0.019,-0.021 0.01,-0.004 0.027,-0.004 0.011,0 0.0165,0.001 0.0055,0.001 0.0135,0.0065 0.008,0.0055 0.015,0.0175 m -0.097,0.118 -0.249,0.434 h 0.498 z"
             id="path53" />
        </g>
        <g
           transform="translate(11.761818,14.884328)"
           id="g59">
          <path
             fill="#a0a0a0"
             stroke="none"
             paint-order="stroke fill markers"
             d="m 0.252,-0.397 -0.073,0.289 q -0.006,0.026 -0.006,0.043 0,0.013 0.002,0.021 0.002,0.008 0.0065,0.0115 0.0045,0.0035 0.0075,0.004 0.003,5e-4 0.008,5e-4 0.033,0 0.07,-0.029 Q 0.304,-0.086 0.33,-0.146 0.335,-0.157 0.3385,-0.1595 0.342,-0.162 0.355,-0.162 q 0.024,0 0.024,0.014 0,0.008 -0.013,0.032 -0.013,0.024 -0.0355,0.0525 -0.0225,0.0285 -0.06,0.05 Q 0.233,0.008 0.192,0.008 0.141,0.008 0.1035,-0.018 0.066,-0.044 0.066,-0.09 q 0,-0.016 0.017,-0.079 L 0.14,-0.397 H 0.059 q -0.012,0 -0.0175,-5e-4 Q 0.036,-0.398 0.0305,-0.4025 0.025,-0.407 0.025,-0.415 q 0,-0.014 0.006,-0.0205 0.006,-0.0065 0.012,-0.0075 0.006,-0.001 0.019,-0.001 h 0.09 l 0.02,-0.082 q 0.018,-0.072 0.023,-0.082 0.02,-0.035 0.058,-0.035 0.018,0 0.0325,0.011 0.0145,0.011 0.0145,0.033 0,0.01 -0.004,0.026 l -0.032,0.129 h 0.08 q 0.033,0 0.033,0.018 0,0.018 -0.009,0.024 -0.005,0.005 -0.027,0.005 z"
             id="path57" />
        </g>
        <g
           transform="translate(12.176818,14.884328)"
           id="g63">
          <path
             fill="#a0a0a0"
             stroke="none"
             paint-order="stroke fill markers"
             d="m 0.338,-0.25 q 0,0.267 -0.179,0.445 -0.057,0.054 -0.077,0.054 -0.018,0 -0.018,-0.014 0,-0.005 0.016,-0.021 0.161,-0.162 0.161,-0.465 0,-0.299 -0.16,-0.462 -0.017,-0.016 -0.017,-0.023 0,-0.014 0.018,-0.014 0.019,0 0.0755,0.0525 0.0565,0.0525 0.1005,0.1295 0.08,0.141 0.08,0.318 z"
             id="path61" />
        </g>
      </g>
      <g
         transform="scale(67)"
         id="g83">
        <g
           transform="translate(12.044776,7.7350746)"
           id="g69">
          <path
             fill="#a0a0a0"
             stroke="none"
             paint-order="stroke fill markers"
             d="M 0.429,-0.397 0.375,-0.095 Q 0.35,0.048 0.306,0.115 0.298,0.128 0.284,0.1445 0.27,0.161 0.2375,0.1815 0.205,0.202 0.171,0.202 0.128,0.202 0.095,0.181 0.062,0.16 0.062,0.122 0.062,0.093 0.083,0.0705 0.104,0.048 0.134,0.048 q 0.02,0 0.0345,0.0125 Q 0.183,0.073 0.183,0.094 0.183,0.115 0.1705,0.133 0.158,0.151 0.139,0.16 q 0.014,0.006 0.034,0.006 0.03,0 0.05,-0.051 Q 0.225,0.109 0.229,0.09 0.233,0.071 0.237,0.051 0.241,0.031 0.241,0.029 L 0.317,-0.397 H 0.225 q -0.033,0 -0.033,-0.018 0,-0.014 0.006,-0.0205 Q 0.204,-0.442 0.21,-0.443 0.216,-0.444 0.228,-0.444 h 0.098 q 0.012,-0.069 0.0165,-0.091 0.0045,-0.022 0.0125,-0.048 0.008,-0.026 0.019,-0.044 0.047,-0.075 0.138,-0.075 0.048,0 0.081,0.0215 0.033,0.0215 0.033,0.0585 0,0.029 -0.021,0.0515 -0.021,0.0225 -0.051,0.0225 -0.02,0 -0.0345,-0.0125 Q 0.505,-0.573 0.505,-0.594 q 0,-0.02 0.012,-0.038 0.012,-0.018 0.03,-0.027 -0.017,-0.007 -0.035,-0.007 -0.016,0 -0.029,0.012 -0.01,0.009 -0.013,0.029 l -0.033,0.181 h 0.112 q 0.034,0 0.034,0.018 0,0.014 -0.006,0.0205 -0.006,0.0065 -0.012,0.0075 -0.006,0.001 -0.019,0.001 z"
             id="path67" />
        </g>
        <g
           transform="translate(12.722776,7.7350746)"
           id="g73">
          <path
             fill="#a0a0a0"
             stroke="none"
             paint-order="stroke fill markers"
             d="M 0.379,0.225 0.38,0.228 q 0.002,0.004 0.002,0.007 0,0.014 -0.018,0.014 -0.019,0 -0.0755,-0.0525 Q 0.232,0.144 0.188,0.067 q -0.08,-0.141 -0.08,-0.318 0,-0.267 0.179,-0.445 0.057,-0.054 0.077,-0.054 0.018,0 0.018,0.014 0,0.005 -0.016,0.021 -0.161,0.162 -0.161,0.465 0,0.144 0.038,0.259 0.042,0.129 0.136,0.216 z"
             id="path71" />
        </g>
        <g
           transform="translate(13.169776,7.7350746)"
           id="g77">
          <path
             fill="#a0a0a0"
             stroke="none"
             paint-order="stroke fill markers"
             d="m 0.252,-0.397 -0.073,0.289 q -0.006,0.026 -0.006,0.043 0,0.013 0.002,0.021 0.002,0.008 0.0065,0.0115 0.0045,0.0035 0.0075,0.004 0.003,5e-4 0.008,5e-4 0.033,0 0.07,-0.029 Q 0.304,-0.086 0.33,-0.146 0.335,-0.157 0.3385,-0.1595 0.342,-0.162 0.355,-0.162 q 0.024,0 0.024,0.014 0,0.008 -0.013,0.032 -0.013,0.024 -0.0355,0.0525 -0.0225,0.0285 -0.06,0.05 Q 0.233,0.008 0.192,0.008 0.141,0.008 0.1035,-0.018 0.066,-0.044 0.066,-0.09 q 0,-0.016 0.017,-0.079 L 0.14,-0.397 H 0.059 q -0.012,0 -0.0175,-5e-4 Q 0.036,-0.398 0.0305,-0.4025 0.025,-0.407 0.025,-0.415 q 0,-0.014 0.006,-0.0205 0.006,-0.0065 0.012,-0.0075 0.006,-0.001 0.019,-0.001 h 0.09 l 0.02,-0.082 q 0.018,-0.072 0.023,-0.082 0.02,-0.035 0.058,-0.035 0.018,0 0.0325,0.011 0.0145,0.011 0.0145,0.033 0,0.01 -0.004,0.026 l -0.032,0.129 h 0.08 q 0.033,0 0.033,0.018 0,0.018 -0.009,0.024 -0.005,0.005 -0.027,0.005 z"
             id="path75" />
        </g>
        <g
           transform="translate(13.584776,7.7350746)"
           id="g81">
          <path
             fill="#a0a0a0"
             stroke="none"
             paint-order="stroke fill markers"
             d="m 0.338,-0.25 q 0,0.267 -0.179,0.445 -0.057,0.054 -0.077,0.054 -0.018,0 -0.018,-0.014 0,-0.005 0.016,-0.021 0.161,-0.162 0.161,-0.465 0,-0.299 -0.16,-0.462 -0.017,-0.016 -0.017,-0.023 0,-0.014 0.018,-0.014 0.019,0 0.0755,0.0525 0.0565,0.0525 0.1005,0.1295 0.08,0.141 0.08,0.318 z"
             id="path79" />
        </g>
      </g>
      <g
         transform="scale(67)"
         id="g113">
        <g
           transform="translate(22.298507,7.4813433)"
           id="g87">
          <path
             fill="#a0a0a0"
             stroke="none"
             paint-order="stroke fill markers"
             d="M 0.429,-0.397 0.375,-0.095 Q 0.35,0.048 0.306,0.115 0.298,0.128 0.284,0.1445 0.27,0.161 0.2375,0.1815 0.205,0.202 0.171,0.202 0.128,0.202 0.095,0.181 0.062,0.16 0.062,0.122 0.062,0.093 0.083,0.0705 0.104,0.048 0.134,0.048 q 0.02,0 0.0345,0.0125 Q 0.183,0.073 0.183,0.094 0.183,0.115 0.1705,0.133 0.158,0.151 0.139,0.16 q 0.014,0.006 0.034,0.006 0.03,0 0.05,-0.051 Q 0.225,0.109 0.229,0.09 0.233,0.071 0.237,0.051 0.241,0.031 0.241,0.029 L 0.317,-0.397 H 0.225 q -0.033,0 -0.033,-0.018 0,-0.014 0.006,-0.0205 Q 0.204,-0.442 0.21,-0.443 0.216,-0.444 0.228,-0.444 h 0.098 q 0.012,-0.069 0.0165,-0.091 0.0045,-0.022 0.0125,-0.048 0.008,-0.026 0.019,-0.044 0.047,-0.075 0.138,-0.075 0.048,0 0.081,0.0215 0.033,0.0215 0.033,0.0585 0,0.029 -0.021,0.0515 -0.021,0.0225 -0.051,0.0225 -0.02,0 -0.0345,-0.0125 Q 0.505,-0.573 0.505,-0.594 q 0,-0.02 0.012,-0.038 0.012,-0.018 0.03,-0.027 -0.017,-0.007 -0.035,-0.007 -0.016,0 -0.029,0.012 -0.01,0.009 -0.013,0.029 l -0.033,0.181 h 0.112 q 0.034,0 0.034,0.018 0,0.014 -0.006,0.0205 -0.006,0.0065 -0.012,0.0075 -0.006,0.001 -0.019,0.001 z"
             id="path85" />
        </g>
        <g
           transform="translate(22.976507,7.4813433)"
           id="g91">
          <path
             fill="#a0a0a0"
             stroke="none"
             paint-order="stroke fill markers"
             d="M 0.379,0.225 0.38,0.228 q 0.002,0.004 0.002,0.007 0,0.014 -0.018,0.014 -0.019,0 -0.0755,-0.0525 Q 0.232,0.144 0.188,0.067 q -0.08,-0.141 -0.08,-0.318 0,-0.267 0.179,-0.445 0.057,-0.054 0.077,-0.054 0.018,0 0.018,0.014 0,0.005 -0.016,0.021 -0.161,0.162 -0.161,0.465 0,0.144 0.038,0.259 0.042,0.129 0.136,0.216 z"
             id="path89" />
        </g>
        <g
           transform="translate(23.423507,7.4813433)"
           id="g95">
          <path
             fill="#a0a0a0"
             stroke="none"
             paint-order="stroke fill markers"
             d="m 0.252,-0.397 -0.073,0.289 q -0.006,0.026 -0.006,0.043 0,0.013 0.002,0.021 0.002,0.008 0.0065,0.0115 0.0045,0.0035 0.0075,0.004 0.003,5e-4 0.008,5e-4 0.033,0 0.07,-0.029 Q 0.304,-0.086 0.33,-0.146 0.335,-0.157 0.3385,-0.1595 0.342,-0.162 0.355,-0.162 q 0.024,0 0.024,0.014 0,0.008 -0.013,0.032 -0.013,0.024 -0.0355,0.0525 -0.0225,0.0285 -0.06,0.05 Q 0.233,0.008 0.192,0.008 0.141,0.008 0.1035,-0.018 0.066,-0.044 0.066,-0.09 q 0,-0.016 0.017,-0.079 L 0.14,-0.397 H 0.059 q -0.012,0 -0.0175,-5e-4 Q 0.036,-0.398 0.0305,-0.4025 0.025,-0.407 0.025,-0.415 q 0,-0.014 0.006,-0.0205 0.006,-0.0065 0.012,-0.0075 0.006,-0.001 0.019,-0.001 h 0.09 l 0.02,-0.082 q 0.018,-0.072 0.023,-0.082 0.02,-0.035 0.058,-0.035 0.018,0 0.0325,0.011 0.0145,0.011 0.0145,0.033 0,0.01 -0.004,0.026 l -0.032,0.129 h 0.08 q 0.033,0 0.033,0.018 0,0.018 -0.009,0.024 -0.005,0.005 -0.027,0.005 z"
             id="path93" />
        </g>
        <g
           transform="translate(24.06073,7.4813433)"
           id="g99">
          <path
             fill="#a0a0a0"
             stroke="none"
             paint-order="stroke fill markers"
             d="m 0.477,-0.22 v 0.31 q 0,0.042 -0.031,0.042 -0.03,0 -0.03,-0.042 V -0.22 H 0.107 q -0.043,0 -0.043,-0.03 0,-0.031 0.043,-0.031 h 0.309 v -0.31 q 0,-0.042 0.031,-0.042 0.03,0 0.03,0.042 v 0.31 h 0.309 q 0.043,0 0.043,0.031 0,0.03 -0.043,0.03 z"
             id="path97" />
        </g>
        <g
           transform="translate(25.176952,7.4813433)"
           id="g103">
          <path
             fill="#a0a0a0"
             stroke="none"
             paint-order="stroke fill markers"
             d="m 0.524,-0.673 0.369,0.646 Q 0.9,-0.016 0.9,-0.012 0.9,-0.004 0.8945,-0.002 0.889,0 0.874,0 H 0.083 Q 0.073,0 0.0685,-5e-4 0.064,-0.001 0.0605,-0.0035 0.057,-0.006 0.057,-0.012 q 0,-0.004 0.007,-0.015 l 0.369,-0.646 q 0.009,-0.017 0.019,-0.021 0.01,-0.004 0.027,-0.004 0.011,0 0.0165,0.001 0.0055,0.001 0.0135,0.0065 0.008,0.0055 0.015,0.0175 m -0.097,0.118 -0.249,0.434 h 0.498 z"
             id="path101" />
        </g>
        <g
           transform="translate(26.134952,7.4813433)"
           id="g107">
          <path
             fill="#a0a0a0"
             stroke="none"
             paint-order="stroke fill markers"
             d="m 0.252,-0.397 -0.073,0.289 q -0.006,0.026 -0.006,0.043 0,0.013 0.002,0.021 0.002,0.008 0.0065,0.0115 0.0045,0.0035 0.0075,0.004 0.003,5e-4 0.008,5e-4 0.033,0 0.07,-0.029 Q 0.304,-0.086 0.33,-0.146 0.335,-0.157 0.3385,-0.1595 0.342,-0.162 0.355,-0.162 q 0.024,0 0.024,0.014 0,0.008 -0.013,0.032 -0.013,0.024 -0.0355,0.0525 -0.0225,0.0285 -0.06,0.05 Q 0.233,0.008 0.192,0.008 0.141,0.008 0.1035,-0.018 0.066,-0.044 0.066,-0.09 q 0,-0.016 0.017,-0.079 L 0.14,-0.397 H 0.059 q -0.012,0 -0.0175,-5e-4 Q 0.036,-0.398 0.0305,-0.4025 0.025,-0.407 0.025,-0.415 q 0,-0.014 0.006,-0.0205 0.006,-0.0065 0.012,-0.0075 0.006,-0.001 0.019,-0.001 h 0.09 l 0.02,-0.082 q 0.018,-0.072 0.023,-0.082 0.02,-0.035 0.058,-0.035 0.018,0 0.0325,0.011 0.0145,0.011 0.0145,0.033 0,0.01 -0.004,0.026 l -0.032,0.129 h 0.08 q 0.033,0 0.033,0.018 0,0.018 -0.009,0.024 -0.005,0.005 -0.027,0.005 z"
             id="path105" />
        </g>
        <g
           transform="translate(26.549952,7.4813433)"
           id="g111">
          <path
             fill="#a0a0a0"
             stroke="none"
             paint-order="stroke fill markers"
             d="m 0.338,-0.25 q 0,0.267 -0.179,0.445 -0.057,0.054 -0.077,0.054 -0.018,0 -0.018,-0.014 0,-0.005 0.016,-0.021 0.161,-0.162 0.161,-0.465 0,-0.299 -0.16,-0.462 -0.017,-0.016 -0.017,-0.023 0,-0.014 0.018,-0.014 0.019,0 0.0755,0.0525 0.0565,0.0525 0.1005,0.1295 0.08,0.141 0.08,0.318 z"
             id="path109" />
        </g>
      </g>
    </g>
  </g>
</svg>
