<?xml version="1.0" encoding="UTF-8" standalone="no"?>
<!DOCTYPE svg PUBLIC "-//W3C//DTD SVG 1.1//EN" "http://www.w3.org/Graphics/SVG/1.1/DTD/svg11.dtd">
<!-- Created with Vectornator (http://vectornator.io/) -->
<svg height="100%" stroke-miterlimit="10" style="fill-rule:nonzero;clip-rule:evenodd;stroke-linecap:round;stroke-linejoin:round;" version="1.1" viewBox="0 0 510.3 396.9" width="100%" xml:space="preserve" xmlns="http://www.w3.org/2000/svg" xmlns:vectornator="http://vectornator.io" xmlns:xlink="http://www.w3.org/1999/xlink">
<defs>
<clipPath id="TextBounds">
<rect height="29.5409" width="66.8963" x="401.871" y="360.009"/>
</clipPath>
<clipPath id="TextBounds_2">
<rect height="29.2318" width="12.611" x="7.56989" y="350.099"/>
</clipPath>
<clipPath id="TextBounds_3">
<rect height="14.6661" width="21.0747" x="124.383" y="317.254"/>
</clipPath>
<clipPath id="TextBounds_4">
<rect height="16.5267" width="21.0726" x="164.838" y="273.099"/>
</clipPath>
<clipPath id="TextBounds_5">
<rect height="19" width="20.0448" x="288.208" y="183.455"/>
</clipPath>
<clipPath id="TextBounds_6">
<rect height="19" width="25.872" x="449.175" y="289.6"/>
</clipPath>
<clipPath id="TextBounds_7">
<rect height="19" width="9.432" x="293.515" y="356.852"/>
</clipPath>
<clipPath id="TextBounds_8">
<rect height="19" width="9.648" x="13.8754" y="192.955"/>
</clipPath>
</defs>
<clipPath id="ArtboardFrame">
<rect height="396.9" width="510.3" x="0" y="0"/>
</clipPath>
<g clip-path="url(#ArtboardFrame)" id="Calque-1" vectornator:layerName="Calque 1">
<path d="M0.442343 0.96112L506.452 0.96112L506.452 389.548L0.442343 389.548L0.442343 0.96112Z" fill="#ffffff" fill-rule="nonzero" opacity="1" stroke="none"/>
<g fill="#000000" opacity="1" stroke="none">
<path clip-path="url(#TextBounds)" d="M412.378 370.522C412.307 370.114 412.284 369.742 412.286 369.166L412.291 366.802L414.967 366.809C416.839 366.813 417.922 365.796 417.926 364.032C417.93 362.364 416.889 361.413 415.041 361.409L412.593 361.403C412.041 361.402 411.705 361.389 411.273 361.364C411.343 361.868 411.366 362.24 411.365 362.732L411.35 369.176C411.348 369.74 411.323 370.088 411.25 370.52L412.378 370.522ZM412.293 365.974L412.302 362.23L414.978 362.237C416.274 362.24 416.969 362.878 416.966 364.078C416.963 365.302 416.241 365.984 414.969 365.981L412.293 365.974Z"/>
<path clip-path="url(#TextBounds)" d="M422.038 370.702C423.97 370.707 425.221 369.366 425.226 367.314C425.231 365.25 423.998 363.927 422.042 363.922C420.086 363.917 418.835 365.234 418.83 367.31C418.825 369.386 420.07 370.697 422.038 370.702ZM422.065 364.678C423.445 364.681 424.306 365.691 424.302 367.311C424.298 368.931 423.432 369.925 422.028 369.922C420.624 369.918 419.75 368.92 419.754 367.288C419.758 365.668 420.637 364.675 422.065 364.678Z"/>
<path clip-path="url(#TextBounds)" d="M426.644 361.437C426.703 361.869 426.727 362.193 426.725 362.781L426.71 369.213C426.708 369.753 426.683 370.125 426.622 370.557L427.702 370.56C427.643 370.08 427.62 369.756 427.622 369.216L427.637 362.796C427.639 362.196 427.663 361.872 427.724 361.44L426.644 361.437Z"/>
<path clip-path="url(#TextBounds)" d="M433.678 370.574L434.65 370.577C434.579 370.096 434.556 369.796 434.557 369.256L434.566 365.884C434.569 364.588 433.754 363.914 432.17 363.911C431.27 363.908 430.55 364.135 430.057 364.589C429.756 364.853 429.6 365.104 429.382 365.656L430.318 365.862C430.439 365.502 430.535 365.335 430.691 365.167C431.028 364.82 431.521 364.653 432.181 364.655C433.177 364.657 433.692 365.078 433.69 365.894L433.688 366.59C432.212 366.623 431.636 366.693 430.927 366.896C429.81 367.205 429.209 367.899 429.206 368.859C429.204 369.999 430.006 370.685 431.326 370.689C431.734 370.69 432.166 370.607 432.575 370.452C432.983 370.297 433.211 370.141 433.68 369.722L433.678 370.574ZM433.684 368.078C433.683 368.558 433.587 368.81 433.31 369.109C432.841 369.624 432.084 369.958 431.388 369.957C430.608 369.955 430.117 369.534 430.118 368.874C430.12 368.298 430.421 367.89 431.033 367.64C431.574 367.413 432.258 367.331 433.686 367.298L433.684 368.078Z"/>
<path clip-path="url(#TextBounds)" d="M440.474 364.123C439.97 364.038 439.766 364.013 439.406 364.012C438.83 364.011 438.422 364.13 437.965 364.429C437.713 364.596 437.532 364.788 437.303 365.159C437.316 365.075 437.316 364.895 437.316 364.799L437.318 364.115L436.322 364.113C436.381 364.545 436.404 364.869 436.403 365.469L436.394 369.225C436.392 369.717 436.368 370.029 436.306 370.581L437.386 370.583C437.327 370.115 437.304 369.779 437.306 369.239L437.311 366.791C437.361 366.251 437.469 365.963 437.758 365.592C438.12 365.113 438.624 364.862 439.236 364.864C439.536 364.865 439.752 364.901 440.208 365.046L440.474 364.123Z"/>
<path clip-path="url(#TextBounds)" d="M449.734 370.613L450.706 370.616C450.635 370.136 450.612 369.835 450.613 369.295L450.622 365.924C450.625 364.628 449.81 363.954 448.226 363.95C447.326 363.947 446.606 364.174 446.113 364.629C445.812 364.892 445.656 365.143 445.438 365.695L446.374 365.901C446.495 365.541 446.591 365.374 446.747 365.206C447.084 364.859 447.577 364.692 448.237 364.694C449.233 364.696 449.748 365.117 449.746 365.933L449.744 366.629C448.268 366.662 447.692 366.732 446.983 366.935C445.866 367.244 445.265 367.938 445.262 368.898C445.26 370.038 446.062 370.724 447.382 370.728C447.79 370.729 448.222 370.646 448.63 370.491C449.039 370.336 449.267 370.18 449.736 369.761L449.734 370.613ZM449.74 368.117C449.739 368.597 449.642 368.849 449.366 369.148C448.897 369.663 448.14 369.997 447.444 369.996C446.664 369.994 446.173 369.573 446.174 368.913C446.176 368.337 446.477 367.929 447.089 367.679C447.63 367.452 448.314 367.37 449.742 367.337L449.74 368.117Z"/>
<path clip-path="url(#TextBounds)" d="M457.726 370.633C456.985 369.647 456.985 369.647 456.865 369.491L455.286 367.279L456.804 365.159C457.008 364.871 457.261 364.548 457.538 364.164L456.386 364.162C456.277 364.401 456.121 364.665 455.916 364.964L454.748 366.654L453.576 364.959C453.349 364.634 453.229 364.43 453.11 364.154L451.934 364.151C452.484 364.884 452.58 365.004 452.652 365.112L454.194 367.276L452.521 369.576C452.256 369.959 451.931 370.379 451.738 370.618L452.926 370.621C453.107 370.286 453.203 370.106 453.396 369.842L454.733 367.902L456 369.741C456.251 370.125 456.371 370.318 456.538 370.63L457.726 370.633Z"/>
<path clip-path="url(#TextBounds)" d="M458.804 361.515L458.802 362.583L459.966 362.586L459.968 361.518L458.804 361.515ZM458.834 364.167C458.893 364.588 458.916 364.948 458.915 365.524L458.905 369.28C458.904 369.784 458.879 370.12 458.818 370.635L459.898 370.638C459.839 370.17 459.816 369.834 459.817 369.282L459.827 365.526C459.828 364.926 459.853 364.59 459.914 364.17L458.834 364.167Z"/>
<path clip-path="url(#TextBounds)" d="M461.306 368.89C461.425 369.382 461.509 369.586 461.688 369.838C462.131 370.452 462.97 370.778 464.062 370.78C465.706 370.784 466.728 370.043 466.731 368.843C466.732 368.351 466.529 367.894 466.158 367.593C465.798 367.316 465.415 367.172 464.251 366.905C463.508 366.747 463.196 366.65 462.92 366.493C462.657 366.349 462.513 366.108 462.514 365.832C462.515 365.196 463.141 364.754 464.017 364.756C464.557 364.757 464.988 364.914 465.263 365.215C465.431 365.384 465.491 365.528 465.562 365.852L466.51 365.698C466.356 365.146 466.188 364.869 465.877 364.605C465.446 364.22 464.81 364.026 463.994 364.024C463.19 364.022 462.542 364.237 462.121 364.643C461.784 364.967 461.603 365.374 461.602 365.806C461.601 366.334 461.828 366.779 462.247 367.068C462.654 367.345 463.062 367.49 464.021 367.696C464.909 367.878 465.149 367.951 465.436 368.132C465.688 368.288 465.807 368.54 465.806 368.876C465.805 369.584 465.144 370.027 464.1 370.024C463.488 370.023 463.008 369.878 462.709 369.601C462.469 369.384 462.374 369.168 462.291 368.724L461.306 368.89Z"/>
</g>
<path clip-path="url(#TextBounds_2)" d="M13.9141 351.302C11.3941 351.296 9.75754 353.152 9.75053 356.032C9.74349 358.924 11.347 360.776 13.879 360.782C16.411 360.788 18.0355 358.944 18.0425 356.052C18.0495 353.16 16.446 351.308 13.9141 351.302ZM13.9051 359.93C11.9851 359.925 10.7168 358.374 10.7226 356.022C10.7283 353.67 11.992 352.137 13.912 352.142C14.74 352.144 15.4593 352.434 16.01 352.975C16.7043 353.673 17.0617 354.73 17.0585 356.05C17.0554 357.334 16.6687 358.449 15.983 359.119C15.4417 359.658 14.7331 359.932 13.9051 359.93Z" fill="#000000" opacity="1" stroke="none"/>
<g opacity="1">
<path d="M116.277 306.579C136.882 328.445 128.544 351.906 128.544 351.906" fill="none" stroke="#231122" stroke-linecap="butt" stroke-linejoin="miter" stroke-width="1.15628"/>
<g fill="#231122" stroke="none">
<path d="M116.994 307.293L122 306.564L113.408 303.725L116.291 312.302L116.994 307.293Z" fill="#231122"/>
</g>
</g>
<path clip-path="url(#TextBounds_3)" d="M138.71 318.573C138.398 318.572 138.086 318.619 137.786 318.727C137.101 318.965 136.428 319.599 135.994 320.402C135.331 321.649 134.943 323.28 134.939 324.804C134.934 326.856 135.748 327.986 137.211 327.989C138.291 327.992 139.241 327.358 139.868 326.208C140.555 324.973 140.955 323.354 140.959 321.758C140.964 319.706 140.162 318.576 138.71 318.573ZM136.072 322.694C136.363 321.543 136.653 320.86 137.122 320.213C137.544 319.662 138.085 319.339 138.625 319.341C139.573 319.343 140.087 320.136 140.083 321.612C140.082 321.876 140.07 322.044 139.984 322.704L136.072 322.694ZM139.862 323.484C139.401 325.834 138.425 327.224 137.261 327.221C136.793 327.22 136.434 327.015 136.219 326.607C135.956 326.138 135.825 325.538 135.827 324.77C135.828 324.422 135.865 324.062 135.938 323.474L139.862 323.484Z" fill="#000000" opacity="1" stroke="none"/>
<path clip-path="url(#TextBounds_4)" d="M175.782 282.523C175.92 282.964 176.02 283.153 176.246 283.405C176.747 283.985 177.439 284.276 178.319 284.278C180.483 284.283 181.884 282.626 181.89 280.072C181.891 279.355 181.642 278.65 181.19 278.145C180.713 277.578 179.972 277.262 179.129 277.26C177.204 277.255 176.006 278.296 175.397 280.484L174.331 284.281C174.141 284.972 174.039 285.286 173.862 285.689L175.045 285.691C175.071 285.251 175.122 284.962 175.3 284.308L175.782 282.523ZM179.014 278.065C180.196 278.068 180.949 278.887 180.946 280.183C180.944 281.026 180.665 281.906 180.198 282.521C179.731 283.136 179.051 283.462 178.271 283.46C177.063 283.457 176.285 282.6 176.288 281.279C176.29 280.675 176.506 279.946 176.847 279.355C177.314 278.526 178.108 278.063 179.014 278.065Z" fill="#e94420" opacity="1" stroke="none"/>
<path d="M28.1075 351.047L299.741 201.351" fill="none" opacity="1" stroke="#e94420" stroke-linecap="butt" stroke-linejoin="miter" stroke-width="1.15628"/>
<path d="M97.3471 119.33C266.806 69.2651 190.04 150.969 272.836 194.414C298.639 207.953 338.299 197.21 360.772 216.549C392.545 243.89 392.692 297.967 446.62 297.967" fill="none" opacity="1" stroke="#231122" stroke-linecap="butt" stroke-linejoin="miter" stroke-width="2"/>
<path clip-path="url(#TextBounds_5)" d="M300.861 193.943C300.789 193.535 300.765 193.163 300.765 192.587L300.765 190.223L303.441 190.223C305.313 190.223 306.393 189.203 306.393 187.439C306.393 185.771 305.349 184.823 303.501 184.823L301.053 184.823C300.501 184.823 300.165 184.811 299.733 184.787C299.805 185.291 299.829 185.663 299.829 186.155L299.829 192.599C299.829 193.163 299.805 193.511 299.733 193.943L300.861 193.943ZM300.765 189.395L300.765 185.651L303.441 185.651C304.737 185.651 305.433 186.287 305.433 187.487C305.433 188.711 304.713 189.395 303.441 189.395L300.765 189.395Z" fill="#000000" opacity="1" stroke="none"/>
<g fill="#000000" opacity="1" stroke="none">
<path clip-path="url(#TextBounds_6)" d="M452.415 294.676L452.415 298.744C452.415 299.368 452.391 299.74 452.331 300.304L454.047 300.304C453.987 299.776 453.963 299.428 453.963 298.744L453.963 294.676L454.551 294.676C455.139 294.676 455.463 294.7 455.883 294.748L455.883 293.344C455.379 293.392 455.007 293.416 454.527 293.416L453.963 293.416L453.963 292.924C453.963 292.096 454.203 291.808 454.899 291.808C455.307 291.808 455.607 291.892 455.967 292.096L456.291 290.836C455.739 290.656 455.343 290.596 454.803 290.596C453.171 290.596 452.415 291.292 452.415 292.78L452.415 293.416L451.923 293.416C451.491 293.416 451.131 293.392 450.795 293.344L450.795 294.748C451.167 294.7 451.479 294.676 451.935 294.676L452.415 294.676Z"/>
<path clip-path="url(#TextBounds_6)" d="M460.959 301.42C460.263 300.4 459.975 299.86 459.711 299.044C459.459 298.252 459.327 297.376 459.327 296.44C459.327 295.492 459.459 294.616 459.735 293.788C459.999 292.948 460.287 292.408 460.983 291.4L459.711 290.584C458.883 291.772 458.535 292.432 458.211 293.428C457.899 294.352 457.743 295.372 457.743 296.416C457.743 297.676 457.959 298.828 458.439 299.992C458.763 300.808 459.039 301.3 459.711 302.272L460.959 301.42Z"/>
<path clip-path="url(#TextBounds_6)" d="M468.507 300.304C468.183 299.908 467.787 299.392 467.619 299.152L465.867 296.704L467.487 294.448C467.679 294.172 467.871 293.908 468.255 293.416L466.395 293.416C466.275 293.692 466.107 294.004 465.891 294.328L464.979 295.672L464.055 294.328C463.851 294.028 463.695 293.74 463.551 293.416L461.679 293.416C462.219 294.112 462.315 294.244 462.447 294.424L464.079 296.704L462.279 299.224C462.075 299.5 461.703 299.98 461.439 300.304L463.371 300.304C463.587 299.86 463.695 299.68 463.887 299.392L464.967 297.784L466.011 299.32C466.251 299.668 466.371 299.884 466.575 300.304L468.507 300.304Z"/>
<path clip-path="url(#TextBounds_6)" d="M470.235 302.272C470.907 301.3 471.183 300.808 471.519 299.992C471.987 298.828 472.203 297.688 472.203 296.416C472.203 295.36 472.047 294.364 471.747 293.428C471.411 292.432 471.063 291.772 470.235 290.584L468.963 291.4C469.659 292.408 469.947 292.948 470.211 293.788C470.487 294.616 470.619 295.492 470.619 296.44C470.619 297.388 470.487 298.24 470.235 299.044C469.971 299.86 469.683 300.4 468.987 301.42L470.235 302.272Z"/>
</g>
<path d="M295.692 201.536C295.692 200.134 296.828 198.997 298.231 198.997C299.633 198.997 300.77 200.134 300.77 201.536C300.77 202.938 299.633 204.075 298.231 204.075C296.828 204.075 295.692 202.938 295.692 201.536Z" fill="#000000" fill-rule="nonzero" opacity="1" stroke="none"/>
<path d="M28.1075 352.667L28.1075 58.6199" fill="none" opacity="1" stroke="#231122" stroke-linecap="butt" stroke-linejoin="miter" stroke-width="2.34"/>
<path d="M28.1075 351.586L472.344 352.667" fill="none" opacity="1" stroke="#231122" stroke-linecap="square" stroke-linejoin="miter" stroke-width="2.34284"/>
<path d="M299.741 201.535L28.1075 200.789" fill="#231122" fill-rule="nonzero" opacity="1" stroke="#231122" stroke-dasharray="3.0,3.0" stroke-linecap="butt" stroke-linejoin="miter" stroke-width="1"/>
<path d="M298.231 202.455L298.231 351.047" fill="none" opacity="1" stroke="#231122" stroke-dasharray="3.0,3.0" stroke-linecap="butt" stroke-linejoin="miter" stroke-width="1"/>
<path d="M20.1809 450.349L20.1809 458.53" fill="none" opacity="1" stroke="#231122" stroke-dasharray="3.0,3.0" stroke-linecap="butt" stroke-linejoin="miter" stroke-width="1"/>
<path clip-path="url(#TextBounds_7)" d="M301.231 367.34C300.487 366.356 300.487 366.356 300.367 366.2L298.783 363.992L300.295 361.868C300.499 361.58 300.751 361.256 301.027 360.872L299.875 360.872C299.767 361.112 299.611 361.376 299.407 361.676L298.243 363.368L297.067 361.676C296.839 361.352 296.719 361.148 296.599 360.872L295.423 360.872C295.975 361.604 296.071 361.724 296.143 361.832L297.691 363.992L296.023 366.296C295.759 366.68 295.435 367.1 295.243 367.34L296.431 367.34C296.611 367.004 296.707 366.824 296.899 366.56L298.231 364.616L299.503 366.452C299.755 366.836 299.875 367.028 300.043 367.34L301.231 367.34Z" fill="#000000" opacity="1" stroke="none"/>
<path clip-path="url(#TextBounds_8)" d="M18.3514 203.251L17.7994 204.571C17.6074 205.015 17.3194 205.231 16.9114 205.231C16.6834 205.231 16.5154 205.183 16.1794 205.027L15.9274 205.915C16.3834 206.011 16.6474 206.047 16.9114 206.047C17.7634 206.047 18.2914 205.699 18.6034 204.931L21.2914 198.379C21.6034 197.623 21.8074 197.155 21.8794 196.975L20.7634 196.975C20.7154 197.311 20.6074 197.635 20.3674 198.247L18.8194 202.279L17.0794 198.247C16.8874 197.791 16.7314 197.311 16.6714 196.975L15.4954 196.975C15.6154 197.191 15.6154 197.191 16.1554 198.379L18.3514 203.251Z" fill="#000000" opacity="1" stroke="none"/>
</g>
<g id="Calque-2" vectornator:layerName="Calque 2"/>
</svg>
