<?xml version="1.0" encoding="UTF-8" standalone="no"?>
<!-- Created with Vectornator (http://vectornator.io/) -->

<svg
   height="100%"
   stroke-miterlimit="10"
   style="fill-rule:nonzero;clip-rule:evenodd;stroke-linecap:round;stroke-linejoin:round;"
   version="1.1"
   viewBox="0 0 510.3 396.9"
   width="100%"
   xml:space="preserve"
   id="svg219"
   sodipodi:docname="Polar coordinate derivative.svg"
   inkscape:version="1.2.1 (9c6d41e, 2022-07-14)"
   xmlns:inkscape="http://www.inkscape.org/namespaces/inkscape"
   xmlns:sodipodi="http://sodipodi.sourceforge.net/DTD/sodipodi-0.dtd"
   xmlns:xlink="http://www.w3.org/1999/xlink"
   xmlns="http://www.w3.org/2000/svg"
   xmlns:svg="http://www.w3.org/2000/svg"
   xmlns:vectornator="http://vectornator.io"
   xmlns:ns2="http://www.iki.fi/pav/software/textext/"><sodipodi:namedview
   id="namedview221"
   pagecolor="#ffffff"
   bordercolor="#999999"
   borderopacity="1"
   inkscape:showpageshadow="0"
   inkscape:pageopacity="0"
   inkscape:pagecheckerboard="0"
   inkscape:deskcolor="#d1d1d1"
   showgrid="false"
   inkscape:zoom="1.7265433"
   inkscape:cx="308.70931"
   inkscape:cy="198.66284"
   inkscape:window-width="1489"
   inkscape:window-height="956"
   inkscape:window-x="1509"
   inkscape:window-y="699"
   inkscape:window-maximized="0"
   inkscape:current-layer="svg219" />
<defs
   id="defs58">
<clipPath
   id="TextBounds">
<rect
   height="2.45562"
   width="254.476"
   x="251.866"
   y="103.932"
   id="rect2" />
</clipPath>
<clipPath
   id="TextBounds_2">
<rect
   height="17.5471"
   width="20.1684"
   x="357.627"
   y="91.2703"
   id="rect5" />
</clipPath>
<clipPath
   id="TextBounds_3">
<rect
   height="19.435"
   width="20.1543"
   x="332.281"
   y="228.019"
   id="rect8" />
</clipPath>
<clipPath
   id="TextBounds_4">
<rect
   height="29.9156"
   width="220.828"
   x="247.94"
   y="359.634"
   id="rect11" />
</clipPath>
<clipPath
   id="TextBounds_5">
<rect
   height="29.2318"
   width="12.611"
   x="7.56989"
   y="350.099"
   id="rect14" />
</clipPath>
<path
   d="M327.457 652.165C327.457 630.55 334.911 613.027 344.105 613.027C353.3 613.027 360.753 630.55 360.753 652.165C360.753 673.781 353.3 691.304 344.105 691.304C334.911 691.304 327.457 673.781 327.457 652.165Z"
   id="Fill" />
<clipPath
   id="TextBounds_6">
<rect
   height="13.0932"
   width="20.047"
   x="127.786"
   y="325.276"
   id="rect18" />
</clipPath>
<clipPath
   id="TextBounds_7">
<rect
   height="13.5263"
   width="22.7714"
   x="135.971"
   y="281.009"
   id="rect21" />
</clipPath>
<clipPath
   id="TextBounds_8">
<rect
   height="16.9145"
   width="20.3242"
   x="215.936"
   y="277.749"
   id="rect24" />
</clipPath>
<path
   d="M283.647 163.573L286.594 167.578L282.59 170.525L279.643 166.521L283.647 163.573Z"
   id="Fill_2" />
<clipPath
   id="TextBounds_9">
<rect
   height="14.4573"
   width="20.0763"
   x="269.417"
   y="277.318"
   id="rect28" />
</clipPath>
<clipPath
   id="TextBounds_10">
<rect
   height="14.8464"
   width="23.6904"
   x="303.853"
   y="114.029"
   id="rect31" />
</clipPath>
<clipPath
   id="TextBounds_11">
<rect
   height="14.2951"
   width="20.1418"
   x="263.363"
   y="148.693"
   id="rect34" />
</clipPath>
<clipPath
   id="TextBounds_12">
<rect
   height="14.2951"
   width="20.1418"
   x="279.006"
   y="140.952"
   id="rect37" />
</clipPath>
<clipPath
   id="TextBounds_13">
<rect
   height="14.1187"
   width="20.2266"
   x="328.641"
   y="128.598"
   id="rect40" />
</clipPath>
<clipPath
   id="TextBounds_14">
<rect
   height="30.1762"
   width="22.6149"
   x="310.144"
   y="159.136"
   id="rect43" />
</clipPath>
<clipPath
   id="TextBounds_15">
<rect
   height="19"
   width="37.5"
   x="305.829"
   y="17.8814"
   id="rect46" />
</clipPath>
<clipPath
   id="TextBounds_16">
<rect
   height="1"
   width="0"
   x="411.412"
   y="92.8685"
   id="rect49" />
</clipPath>
<clipPath
   id="TextBounds_17">
<rect
   height="1"
   width="0"
   x="414.84"
   y="118.605"
   id="rect52" />
</clipPath>
<clipPath
   id="TextBounds_18">
<rect
   height="19"
   width="50.9126"
   x="387.321"
   y="98.6436"
   id="rect55" />
</clipPath>
</defs>
<clipPath
   id="ArtboardFrame">
<rect
   height="396.9"
   width="510.3"
   x="0"
   y="0"
   id="rect60" />
</clipPath>
<g
   clip-path="url(#ArtboardFrame)"
   id="Calque-1"
   vectornator:layerName="Calque 1">
<path
   d="M0.333064 0.963004L506.342 0.963004L506.342 389.55L0.333064 389.55L0.333064 0.963004Z"
   fill="#ffffff"
   fill-rule="nonzero"
   opacity="1"
   stroke="none"
   id="path63" />
<path
   d="M28.1075 351.586L472.344 352.667"
   fill="none"
   opacity="1"
   stroke="#231122"
   stroke-linecap="round"
   stroke-linejoin="miter"
   stroke-width="2.34284"
   id="path65" />
<path
   d="M340.262 119.692C340.262 119.692 343.275 130.714 354.075 131.169"
   fill="none"
   opacity="1"
   stroke="#f5891d"
   stroke-linecap="round"
   stroke-linejoin="round"
   stroke-width="1.15628"
   id="path67" />
<g
   fill="#000000"
   opacity="1"
   stroke="none"
   id="g69" />
<path
   clip-path="url(#TextBounds_2)"
   d="M375.298 101.873C374.962 101.608 374.807 101.464 374.256 100.923C374.785 100.36 374.99 100.072 375.219 99.533C375.509 98.8617 375.655 98.0941 375.657 97.2301C375.664 94.3501 374.048 92.4982 371.528 92.492C369.008 92.4859 367.372 94.3419 367.365 97.2339C367.358 100.114 368.973 101.966 371.493 101.972C372.321 101.974 372.934 101.807 373.607 101.413C374.301 102.099 374.433 102.243 374.648 102.544L375.298 101.873ZM371.99 99.9212C372.35 100.186 372.565 100.379 372.972 100.776C372.528 101.026 372.095 101.133 371.555 101.132C369.587 101.127 368.331 99.6003 368.337 97.2243C368.343 94.8603 369.606 93.3273 371.538 93.332C373.458 93.3367 374.679 94.8517 374.673 97.2157C374.671 98.0077 374.537 98.6914 374.284 99.3147C374.115 99.6983 373.982 99.902 373.609 100.297C373.011 99.6956 372.855 99.5153 372.652 99.2748L371.99 99.9212Z"
   fill="#000000"
   opacity="1"
   stroke="none"
   id="path71" />
<path
   clip-path="url(#TextBounds_3)"
   d="M345.018 238.538C344.947 238.13 344.924 237.758 344.926 237.182L344.931 234.818L347.607 234.824C349.479 234.829 350.562 233.812 350.566 232.048C350.57 230.38 349.528 229.429 347.68 229.425L345.232 229.419C344.68 229.417 344.344 229.404 343.913 229.379C343.983 229.884 344.006 230.256 344.005 230.748L343.99 237.192C343.988 237.756 343.963 238.104 343.89 238.535L345.018 238.538ZM344.933 233.99L344.942 230.246L347.618 230.252C348.914 230.256 349.609 230.893 349.606 232.093C349.603 233.317 348.881 234 347.609 233.996L344.933 233.99Z"
   fill="#000000"
   opacity="1"
   stroke="none"
   id="path73" />
<g
   fill="#000000"
   opacity="1"
   stroke="none"
   id="g93">
<path
   clip-path="url(#TextBounds_4)"
   d="M412.378 370.522C412.307 370.114 412.284 369.742 412.286 369.166L412.291 366.802L414.967 366.809C416.839 366.813 417.922 365.796 417.926 364.032C417.93 362.364 416.889 361.413 415.041 361.409L412.593 361.403C412.041 361.402 411.705 361.389 411.273 361.364C411.343 361.868 411.366 362.24 411.365 362.732L411.35 369.176C411.348 369.74 411.323 370.088 411.25 370.52L412.378 370.522ZM412.293 365.974L412.302 362.23L414.978 362.237C416.274 362.24 416.969 362.878 416.966 364.078C416.963 365.302 416.241 365.984 414.969 365.981L412.293 365.974Z"
   id="path75" />
<path
   clip-path="url(#TextBounds_4)"
   d="M422.038 370.702C423.97 370.707 425.221 369.366 425.226 367.314C425.231 365.25 423.998 363.927 422.042 363.922C420.086 363.917 418.835 365.234 418.83 367.31C418.825 369.386 420.07 370.697 422.038 370.702ZM422.065 364.678C423.445 364.681 424.306 365.691 424.302 367.311C424.298 368.931 423.432 369.925 422.028 369.922C420.624 369.918 419.75 368.92 419.754 367.288C419.758 365.668 420.637 364.675 422.065 364.678Z"
   id="path77" />
<path
   clip-path="url(#TextBounds_4)"
   d="M426.644 361.437C426.703 361.869 426.727 362.193 426.725 362.781L426.71 369.213C426.708 369.753 426.683 370.125 426.622 370.557L427.702 370.56C427.643 370.08 427.62 369.756 427.622 369.216L427.637 362.796C427.639 362.196 427.663 361.872 427.724 361.44L426.644 361.437Z"
   id="path79" />
<path
   clip-path="url(#TextBounds_4)"
   d="M433.678 370.574L434.65 370.577C434.579 370.096 434.556 369.796 434.557 369.256L434.566 365.884C434.569 364.588 433.754 363.914 432.17 363.911C431.27 363.908 430.55 364.135 430.057 364.589C429.756 364.853 429.6 365.104 429.382 365.656L430.318 365.862C430.439 365.502 430.535 365.335 430.691 365.167C431.028 364.82 431.521 364.653 432.181 364.655C433.177 364.657 433.692 365.078 433.69 365.894L433.688 366.59C432.212 366.623 431.636 366.693 430.927 366.896C429.81 367.205 429.209 367.899 429.206 368.859C429.204 369.999 430.006 370.685 431.326 370.689C431.734 370.69 432.166 370.607 432.575 370.452C432.983 370.297 433.211 370.141 433.68 369.722L433.678 370.574ZM433.684 368.078C433.683 368.558 433.587 368.81 433.31 369.109C432.841 369.624 432.084 369.958 431.388 369.957C430.608 369.955 430.117 369.534 430.118 368.874C430.12 368.298 430.421 367.89 431.033 367.64C431.574 367.413 432.258 367.331 433.686 367.298L433.684 368.078Z"
   id="path81" />
<path
   clip-path="url(#TextBounds_4)"
   d="M440.474 364.123C439.97 364.038 439.766 364.013 439.406 364.012C438.83 364.011 438.422 364.13 437.965 364.429C437.713 364.596 437.532 364.788 437.303 365.159C437.316 365.075 437.316 364.895 437.316 364.799L437.318 364.115L436.322 364.113C436.381 364.545 436.404 364.869 436.403 365.469L436.394 369.225C436.392 369.717 436.368 370.029 436.306 370.581L437.386 370.583C437.327 370.115 437.304 369.779 437.306 369.239L437.311 366.791C437.361 366.251 437.469 365.963 437.758 365.592C438.12 365.113 438.624 364.862 439.236 364.864C439.536 364.865 439.752 364.901 440.208 365.046L440.474 364.123Z"
   id="path83" />
<path
   clip-path="url(#TextBounds_4)"
   d="M449.734 370.613L450.706 370.616C450.635 370.136 450.612 369.835 450.613 369.295L450.622 365.924C450.625 364.628 449.81 363.954 448.226 363.95C447.326 363.947 446.606 364.174 446.113 364.629C445.812 364.892 445.656 365.143 445.438 365.695L446.374 365.901C446.495 365.541 446.591 365.374 446.747 365.206C447.084 364.859 447.577 364.692 448.237 364.694C449.233 364.696 449.748 365.117 449.746 365.933L449.744 366.629C448.268 366.662 447.692 366.732 446.983 366.935C445.866 367.244 445.265 367.938 445.262 368.898C445.26 370.038 446.062 370.724 447.382 370.728C447.79 370.729 448.222 370.646 448.63 370.491C449.039 370.336 449.267 370.18 449.736 369.761L449.734 370.613ZM449.74 368.117C449.739 368.597 449.642 368.849 449.366 369.148C448.897 369.663 448.14 369.997 447.444 369.996C446.664 369.994 446.173 369.573 446.174 368.913C446.176 368.337 446.477 367.929 447.089 367.679C447.63 367.452 448.314 367.37 449.742 367.337L449.74 368.117Z"
   id="path85" />
<path
   clip-path="url(#TextBounds_4)"
   d="M457.726 370.633C456.985 369.647 456.985 369.647 456.865 369.491L455.286 367.279L456.804 365.159C457.008 364.871 457.261 364.548 457.538 364.164L456.386 364.162C456.277 364.401 456.121 364.665 455.916 364.964L454.748 366.654L453.576 364.959C453.349 364.634 453.229 364.43 453.11 364.154L451.934 364.151C452.484 364.884 452.58 365.004 452.652 365.112L454.194 367.276L452.521 369.576C452.256 369.959 451.931 370.379 451.738 370.618L452.926 370.621C453.107 370.286 453.203 370.106 453.396 369.842L454.733 367.902L456 369.741C456.251 370.125 456.371 370.318 456.538 370.63L457.726 370.633Z"
   id="path87" />
<path
   clip-path="url(#TextBounds_4)"
   d="M458.804 361.515L458.802 362.583L459.966 362.586L459.968 361.518L458.804 361.515ZM458.834 364.167C458.893 364.588 458.916 364.948 458.915 365.524L458.905 369.28C458.904 369.784 458.879 370.12 458.818 370.635L459.898 370.638C459.839 370.17 459.816 369.834 459.817 369.282L459.827 365.526C459.828 364.926 459.853 364.59 459.914 364.17L458.834 364.167Z"
   id="path89" />
<path
   clip-path="url(#TextBounds_4)"
   d="M461.306 368.89C461.425 369.382 461.509 369.586 461.688 369.838C462.131 370.452 462.97 370.778 464.062 370.78C465.706 370.784 466.728 370.043 466.731 368.843C466.732 368.351 466.529 367.894 466.158 367.593C465.798 367.316 465.415 367.172 464.251 366.905C463.508 366.747 463.196 366.65 462.92 366.493C462.657 366.349 462.513 366.108 462.514 365.832C462.515 365.196 463.141 364.754 464.017 364.756C464.557 364.757 464.988 364.914 465.263 365.215C465.431 365.384 465.491 365.528 465.562 365.852L466.51 365.698C466.356 365.146 466.188 364.869 465.877 364.605C465.446 364.22 464.81 364.026 463.994 364.024C463.19 364.022 462.542 364.237 462.121 364.643C461.784 364.967 461.603 365.374 461.602 365.806C461.601 366.334 461.828 366.779 462.247 367.068C462.654 367.345 463.062 367.49 464.021 367.696C464.909 367.878 465.149 367.951 465.436 368.132C465.688 368.288 465.807 368.54 465.806 368.876C465.805 369.584 465.144 370.027 464.1 370.024C463.488 370.023 463.008 369.878 462.709 369.601C462.469 369.384 462.374 369.168 462.291 368.724L461.306 368.89Z"
   id="path91" />
</g>
<path
   clip-path="url(#TextBounds_5)"
   d="M13.9141 351.302C11.3941 351.296 9.75754 353.152 9.75053 356.032C9.74349 358.924 11.347 360.776 13.879 360.782C16.411 360.788 18.0355 358.944 18.0425 356.052C18.0495 353.16 16.446 351.308 13.9141 351.302ZM13.9051 359.93C11.9851 359.925 10.7168 358.374 10.7226 356.022C10.7283 353.67 11.992 352.137 13.912 352.142C14.74 352.144 15.4593 352.434 16.01 352.975C16.7043 353.673 17.0617 354.73 17.0585 356.05C17.0554 357.334 16.6687 358.449 15.983 359.119C15.4417 359.658 14.7331 359.932 13.9051 359.93Z"
   fill="#000000"
   opacity="1"
   stroke="none"
   id="path95" />
<g
   opacity="1"
   id="g103">
<path
   d="M123.622 319.747C133.802 334.518 129.47 349.889 129.47 349.889"
   fill="none"
   stroke="#231122"
   stroke-linecap="butt"
   stroke-linejoin="miter"
   stroke-width="1.15628"
   id="path97" />
<g
   fill="#231122"
   stroke="none"
   id="g101">
<path
   d="M124.238 320.55L129.296 320.496L121.16 316.535L122.872 325.421L124.238 320.55Z"
   fill="#231122"
   id="path99" />
</g>
</g>
<g
   opacity="1"
   id="g111">
<path
   d="M125.516 284.082C137.462 297.743 135.43 309.557 135.43 309.557"
   fill="none"
   stroke="#231122"
   stroke-linecap="butt"
   stroke-linejoin="miter"
   stroke-width="1.15628"
   id="path105" />
<g
   fill="#231122"
   stroke="none"
   id="g109">
<path
   d="M126.21 284.819L131.237 284.255L122.742 281.136L125.344 289.803L126.21 284.819Z"
   fill="#231122"
   id="path107" />
</g>
</g>
<g
   opacity="1"
   id="g120">
<mask
   height="80.5894"
   id="StrokeMask"
   maskUnits="userSpaceOnUse"
   width="35.6087"
   x="326.301"
   y="611.871">
<rect
   fill="#ffffff"
   height="80.5894"
   stroke="none"
   width="35.6087"
   x="326.301"
   y="611.871"
   id="rect113" />
<use
   fill="#000000"
   fill-rule="evenodd"
   stroke="none"
   xlink:href="#Fill"
   id="use115" />
</mask>
<use
   fill="none"
   mask="url(#StrokeMask)"
   stroke="#231122"
   stroke-linecap="butt"
   stroke-linejoin="miter"
   stroke-width="2.31255"
   xlink:href="#Fill"
   id="use118" />
</g>
<path
   d="M293.585 154.029L358.763 105.318"
   fill="none"
   opacity="1"
   stroke="#60cf4d"
   stroke-linecap="round"
   stroke-linejoin="round"
   stroke-width="1.15628"
   id="path122" />
<path
   clip-path="url(#TextBounds_6)"
   d="M141.085 326.592C140.773 326.591 140.461 326.639 140.161 326.746C139.476 326.984 138.803 327.619 138.369 328.421C137.706 329.668 137.318 331.299 137.314 332.823C137.309 334.875 138.122 336.005 139.586 336.008C140.666 336.011 141.616 335.377 142.243 334.227C142.93 332.993 143.33 331.374 143.334 329.778C143.339 327.726 142.537 326.596 141.085 326.592ZM138.447 330.714C138.738 329.562 139.028 328.879 139.497 328.232C139.919 327.681 140.46 327.359 141 327.36C141.948 327.362 142.462 328.155 142.458 329.631C142.457 329.895 142.445 330.063 142.359 330.723L138.447 330.714ZM142.237 331.503C141.776 333.854 140.8 335.243 139.636 335.241C139.168 335.239 138.809 335.035 138.594 334.626C138.331 334.157 138.2 333.557 138.202 332.789C138.203 332.441 138.24 332.081 138.313 331.493L142.237 331.503Z"
   fill="#000000"
   opacity="1"
   stroke="none"
   id="path124" />
<g
   fill="#000000"
   opacity="1"
   stroke="none"
   id="g130">
<path
   clip-path="url(#TextBounds_7)"
   d="M145.884 292.073L138.536 292.055L141.574 283.455L142.834 283.458L145.884 292.073ZM144.427 291.115L142.181 284.582L139.997 291.104L144.427 291.115Z"
   id="path126" />
<path
   clip-path="url(#TextBounds_7)"
   d="M151.994 282.812C151.682 282.811 151.37 282.859 151.07 282.966C150.385 283.204 149.712 283.839 149.278 284.642C148.615 285.888 148.227 287.519 148.223 289.043C148.218 291.095 149.031 292.225 150.495 292.229C151.575 292.231 152.525 291.597 153.152 290.447C153.839 289.213 154.239 287.594 154.242 285.998C154.247 283.946 153.446 282.816 151.994 282.812ZM149.356 286.934C149.647 285.782 149.937 285.099 150.406 284.452C150.827 283.901 151.368 283.579 151.908 283.58C152.856 283.582 153.37 284.375 153.367 285.851C153.366 286.115 153.354 286.283 153.268 286.943L149.356 286.934ZM153.146 287.723C152.684 290.074 151.709 291.463 150.545 291.461C150.077 291.459 149.718 291.255 149.503 290.846C149.24 290.377 149.109 289.777 149.111 289.009C149.112 288.661 149.149 288.301 149.222 287.713L153.146 287.723Z"
   id="path128" />
</g>
<path
   clip-path="url(#TextBounds_8)"
   d="M226.133 287.172C226.27 287.612 226.37 287.801 226.596 288.053C227.098 288.633 227.789 288.924 228.67 288.927C230.834 288.932 232.234 287.275 232.24 284.721C232.242 284.004 231.992 283.299 231.54 282.794C231.064 282.227 230.322 281.911 229.479 281.909C227.555 281.904 226.357 282.945 225.748 285.133L224.682 288.929C224.491 289.621 224.39 289.935 224.213 290.337L225.395 290.34C225.422 289.9 225.473 289.611 225.65 288.957L226.133 287.172ZM229.364 282.714C230.547 282.716 231.3 283.536 231.296 284.832C231.294 285.675 231.015 286.555 230.549 287.17C230.082 287.785 229.401 288.111 228.621 288.109C227.414 288.106 226.636 287.248 226.639 285.927C226.64 285.324 226.856 284.594 227.197 284.004C227.665 283.175 228.458 282.711 229.364 282.714Z"
   fill="#e94420"
   opacity="1"
   stroke="none"
   id="path132" />
<path
   d="M336.282 233.539L282.815 161.404"
   fill="none"
   opacity="1"
   stroke="#231122"
   stroke-linecap="butt"
   stroke-linejoin="miter"
   stroke-width="1.15628"
   id="path134" />
<g
   opacity="1"
   id="g145">
<use
   fill="#000000"
   fill-rule="nonzero"
   stroke="none"
   xlink:href="#Fill_2"
   id="use136" />
<mask
   height="10.1851"
   id="StrokeMask_2"
   maskUnits="userSpaceOnUse"
   width="10.1851"
   x="278.026"
   y="161.957">
<rect
   fill="#ffffff"
   height="10.1851"
   stroke="none"
   width="10.1851"
   x="278.026"
   y="161.957"
   id="rect138" />
<use
   fill="#000000"
   fill-rule="evenodd"
   stroke="none"
   xlink:href="#Fill_2"
   id="use140" />
</mask>
<use
   fill="none"
   mask="url(#StrokeMask_2)"
   stroke="#231122"
   stroke-linecap="butt"
   stroke-linejoin="miter"
   stroke-width="2.31255"
   xlink:href="#Fill_2"
   id="use143" />
</g>
<path
   d="M297.552 340.339L391.451 82.2802"
   fill="none"
   opacity="1"
   stroke="#231122"
   stroke-linecap="butt"
   stroke-linejoin="miter"
   stroke-width="1.15628"
   id="path147" />
<path
   d="M358.763 105.318L336.282 233.539"
   fill="none"
   opacity="1"
   stroke="#000000"
   stroke-linecap="round"
   stroke-linejoin="miter"
   stroke-width="1.15628"
   id="path149" />
<path
   d="M281.915 254.449C281.915 254.449 280.61 284.688 309.978 303.332"
   fill="none"
   opacity="1"
   stroke="#00b9ab"
   stroke-linecap="butt"
   stroke-linejoin="miter"
   stroke-width="1.15628"
   id="path151" />
<path
   clip-path="url(#TextBounds_9)"
   d="M277.841 282.706C278.189 282.49 278.429 282.382 278.633 282.382C278.753 282.382 278.825 282.466 278.825 282.634C278.825 282.718 278.801 282.886 278.753 283.018L278.225 284.746C278.129 285.046 278.081 285.358 278.081 285.67C278.081 286.51 278.453 287.206 279.161 287.674C279.437 287.854 279.701 287.938 280.241 288.034L280.169 288.298C279.965 288.958 279.941 289.042 279.797 289.306L281.501 289.306C281.513 289.15 281.573 288.814 281.669 288.31L281.741 288.046C282.677 287.938 283.097 287.83 283.625 287.554C284.717 287.002 285.473 286.066 285.929 284.686C286.229 283.774 286.349 282.91 286.349 281.626C286.349 281.542 286.349 281.41 286.337 281.23L284.813 281.23C284.861 281.626 284.873 281.794 284.873 282.142C284.873 283.726 284.357 285.19 283.517 285.994C283.085 286.414 282.773 286.57 282.089 286.726L283.853 280.114C284.081 279.286 284.165 278.998 284.357 278.566L282.665 278.566C282.629 279.07 282.581 279.322 282.365 280.114L280.577 286.714C280.205 286.666 280.001 286.57 279.809 286.378C279.605 286.174 279.497 285.886 279.497 285.574C279.497 285.346 279.533 285.106 279.617 284.866L280.241 282.898C280.337 282.598 280.385 282.334 280.385 282.094C280.385 281.41 279.929 281.038 279.101 281.038C278.525 281.038 278.021 281.17 277.409 281.482L277.841 282.706Z"
   fill="#00b9ab"
   opacity="1"
   stroke="none"
   id="path153" />
<path
   d="M293.585 154.029L28.1075 351.586L28.1075 351.586L336.282 233.539"
   fill="none"
   opacity="1"
   stroke="#e94420"
   stroke-linecap="round"
   stroke-linejoin="round"
   stroke-width="1.15628"
   id="path155" />
<path
   d="M336.282 233.539C325.593 204.654 311.318 178.433 293.585 154.029"
   fill="none"
   opacity="1"
   stroke="#3e68ff"
   stroke-linecap="round"
   stroke-linejoin="round"
   stroke-width="1.15628"
   id="path157" />
<g
   opacity="1"
   id="g161">
<path
   d="M349.406 21.7188C348.873 21.8747 348.563 22.4358 348.719 22.9688C349.822 26.7376 350.676 30.5944 351.469 34.4375C352.6 39.9197 353.528 45.4311 354.344 50.9688C356.752 67.3237 357.915 83.8794 358.031 100.406C358.38 150.106 348.914 199.786 330.219 245.844C321.066 268.392 309.678 289.89 296.562 310.375C296.246 310.869 296.412 311.528 296.906 311.844C297.4 312.16 298.028 312.025 298.344 311.531C311.525 290.935 322.993 269.296 332.188 246.625C350.972 200.306 360.428 150.378 360.062 100.406C359.936 83.1222 358.669 65.8091 356.062 48.7188C355.184 42.9574 354.147 37.2261 352.906 31.5312C352.241 28.4749 351.535 25.4101 350.656 22.4062C350.5 21.8733 349.939 21.5628 349.406 21.7188Z"
   fill="#231122"
   stroke="none"
   id="path159" />
</g>

<path
   clip-path="url(#TextBounds_11)"
   d="M281.535 159.225C281.368 158.937 281.201 158.577 280.998 158.108C280.628 157.279 280.342 156.654 280.055 156.09C279.625 155.237 279.326 154.912 278.834 154.767C279.483 154.624 279.783 154.481 280.132 154.17C280.625 153.751 280.854 153.176 280.856 152.408C280.86 150.92 279.902 150.101 278.162 150.097L275.522 150.091C274.97 150.089 274.634 150.077 274.214 150.051C274.285 150.532 274.308 150.916 274.306 151.432L274.291 157.864C274.289 158.452 274.264 158.776 274.191 159.207L275.307 159.21C275.236 158.778 275.213 158.466 275.215 157.854L275.222 155.046L277.442 155.051C278.402 155.054 278.868 155.523 279.56 157.169C280.061 158.37 280.228 158.862 280.263 159.222L281.535 159.225ZM275.224 154.218L275.232 150.918L278.148 150.925C279.288 150.928 279.886 151.481 279.884 152.501C279.882 153.017 279.738 153.413 279.425 153.712C279.1 154.035 278.608 154.226 278.068 154.225L275.224 154.218Z"
   fill="#000000"
   opacity="1"
   stroke="none"
   id="path169" />
<g
   fill="#000000"
   opacity="1"
   stroke="none"
   id="g175">
<path
   clip-path="url(#TextBounds_12)"
   d="M288.85 151.464C288.779 151.056 288.756 150.684 288.757 150.108L288.763 147.744L291.439 147.751C293.311 147.755 294.393 146.738 294.398 144.974C294.402 143.306 293.36 142.355 291.512 142.351L289.064 142.345C288.512 142.344 288.176 142.331 287.744 142.306C287.815 142.81 287.838 143.182 287.837 143.674L287.821 150.118C287.82 150.682 287.795 151.03 287.722 151.462L288.85 151.464ZM288.765 146.916L288.774 143.172L291.45 143.179C292.746 143.182 293.441 143.82 293.438 145.02C293.435 146.244 292.713 146.926 291.441 146.923L288.765 146.916Z"
   id="path171" />
<path
   clip-path="url(#TextBounds_12)"
   d="M296.804 142.364L295.604 142.361L295.601 143.549L296.297 143.551C296.295 144.307 296.211 144.486 295.718 144.701L296.041 145.11C296.654 144.739 296.799 144.452 296.801 143.552L296.804 142.364Z"
   id="path173" />
</g>
<path
   clip-path="url(#TextBounds_13)"
   d="M344.688 134.234C344.927 133.781 345.166 133.341 345.43 132.888L344.31 132.888C344.197 133.278 344.046 133.655 343.807 134.108L343.165 135.379L343.165 135.052C343.165 134.347 343.09 133.92 342.889 133.592C342.549 133.051 341.895 132.75 341.014 132.75C338.875 132.75 337.19 134.624 337.19 137.014C337.19 138.738 338.184 139.845 339.731 139.845C340.423 139.845 341.052 139.631 341.555 139.241C341.882 138.989 342.083 138.75 342.436 138.184C342.461 138.776 342.511 139.052 342.675 139.317C342.889 139.644 343.216 139.795 343.681 139.795C344.222 139.795 344.587 139.631 345.027 139.178L344.612 138.499C344.373 138.826 344.109 138.989 343.794 138.989C343.367 138.989 343.241 138.688 343.241 137.606C343.241 137.518 343.241 137.354 343.253 136.951L344.688 134.234ZM342.348 136.889C342.348 136.914 342.071 137.392 341.958 137.58C341.782 137.87 341.593 138.121 341.442 138.285C340.989 138.776 340.461 139.027 339.869 139.027C338.825 139.027 338.171 138.272 338.171 137.065C338.171 135.127 339.442 133.542 340.976 133.542C341.48 133.542 341.857 133.706 342.096 134.033C342.297 134.297 342.385 134.725 342.385 135.391C342.385 135.882 342.373 136.486 342.348 136.889Z"
   fill="#f5891d"
   opacity="1"
   stroke="none"
   id="path177" />
<g
   fill="#3e68ff"
   opacity="1"
   stroke="none"
   id="g185">
<path
   clip-path="url(#TextBounds_14)"
   d="M313.529 171.569C313.868 172.176 314.329 172.481 314.912 172.481C315.467 172.482 316.02 172.329 316.57 172.021C317.107 171.73 317.522 171.353 317.816 170.89C317.956 170.66 318.025 170.408 318.021 170.136C318.026 169.862 317.945 169.571 317.777 169.262C317.442 168.679 316.997 168.378 316.441 168.358C315.883 168.335 315.338 168.473 314.806 168.771C314.248 169.065 313.821 169.45 313.525 169.928C313.206 170.413 313.208 170.96 313.529 171.569ZM314.174 167.828C316.183 166.746 317.67 167.069 318.635 168.795C319.097 169.663 319.173 170.468 318.863 171.209C318.556 171.949 317.964 172.557 317.086 173.034C316.276 173.474 315.463 173.638 314.648 173.526C313.829 173.416 313.169 172.919 312.67 172.035C312.502 171.725 312.403 171.388 312.372 171.022C312.345 170.655 312.426 170.31 312.615 169.989L312.603 169.967L309.731 171.527L309.192 170.533L314.174 167.828Z"
   id="path179" />
<path
   clip-path="url(#TextBounds_14)"
   d="M318.533 182.573L314.857 175.803L324.296 174.277L324.927 175.438L318.533 182.573ZM318.683 180.751L323.565 175.401L316.467 176.67L318.683 180.751Z"
   id="path181" />
<path
   clip-path="url(#TextBounds_14)"
   d="M325.296 184.485C326.106 184.045 326.712 183.579 327.115 183.085C327.512 182.571 327.554 182.019 327.243 181.429C326.915 180.842 326.43 180.579 325.787 180.639C325.146 180.694 324.422 180.945 323.616 181.392L325.296 184.485ZM322.564 180.586C323.104 180.293 323.637 180.062 324.165 179.892C324.682 179.704 325.187 179.607 325.678 179.601C326.17 179.59 326.618 179.694 327.021 179.913C327.421 180.134 327.761 180.495 328.042 180.995C328.31 181.506 328.428 181.989 328.396 182.445C328.36 182.903 328.203 183.333 327.923 183.736C327.649 184.142 327.296 184.517 326.865 184.864C326.427 185.199 325.938 185.513 325.398 185.806C324.927 186.062 324.444 186.297 323.949 186.51C323.444 186.705 322.944 186.822 322.449 186.863C321.969 186.905 321.51 186.816 321.074 186.596C320.632 186.375 320.25 185.976 319.929 185.401C319.619 184.814 319.495 184.28 319.555 183.8C319.611 183.318 319.785 182.883 320.078 182.496C320.381 182.102 320.755 181.753 321.199 181.446C321.637 181.129 322.092 180.842 322.564 180.586ZM322.823 181.823C321.934 182.296 321.282 182.783 320.868 183.283C320.442 183.784 320.393 184.347 320.722 184.97C321.065 185.585 321.565 185.852 322.22 185.771C322.86 185.689 323.621 185.404 324.502 184.916L322.823 181.823Z"
   id="path183" />
</g>
<g
   fill="#000000"
   opacity="1"
   stroke="none"
   id="g199">
<path
   clip-path="url(#TextBounds_15)"
   d="M310.305 28.1774L309.753 29.4974C309.561 29.9414 309.273 30.1574 308.865 30.1574C308.637 30.1574 308.469 30.1094 308.133 29.9534L307.881 30.8414C308.337 30.9374 308.601 30.9734 308.865 30.9734C309.717 30.9734 310.245 30.6254 310.557 29.8574L313.245 23.3054C313.557 22.5494 313.761 22.0814 313.833 21.9014L312.717 21.9014C312.669 22.2374 312.561 22.5614 312.321 23.1734L310.773 27.2054L309.033 23.1734C308.841 22.7174 308.685 22.2374 308.625 21.9014L307.449 21.9014C307.569 22.1174 307.569 22.1174 308.109 23.3054L310.305 28.1774Z"
   id="path187" />
<path
   clip-path="url(#TextBounds_15)"
   d="M314.613 23.4614L314.613 24.2774L321.213 24.2774L321.213 23.4614L314.613 23.4614ZM314.613 25.8854L314.613 26.7014L321.213 26.7014L321.213 25.8854L314.613 25.8854Z"
   id="path189" />
<path
   clip-path="url(#TextBounds_15)"
   d="M323.565 22.6694L323.565 27.0134C323.565 27.5174 323.541 27.9254 323.481 28.3694L324.561 28.3694C324.501 27.9254 324.477 27.5894 324.477 27.0254L324.477 22.6694L325.077 22.6694C325.665 22.6694 325.941 22.6814 326.349 22.7414L326.349 21.8294C325.905 21.8894 325.593 21.9014 325.077 21.9014L324.477 21.9014L324.477 21.2414C324.477 20.6774 324.525 20.4254 324.657 20.2334C324.813 20.0174 325.089 19.9094 325.473 19.9094C325.845 19.9094 326.145 19.9934 326.469 20.1854L326.721 19.3814C326.289 19.2134 325.917 19.1414 325.449 19.1414C324.777 19.1414 324.225 19.3574 323.937 19.7294C323.661 20.0774 323.565 20.4614 323.565 21.1934L323.565 21.9014L323.073 21.9014C322.593 21.9014 322.305 21.8774 321.981 21.8294L321.981 22.7414C322.353 22.6934 322.653 22.6694 323.073 22.6694L323.565 22.6694Z"
   id="path191" />
<path
   clip-path="url(#TextBounds_15)"
   d="M330.777 29.8694C330.105 28.8374 329.841 28.2974 329.577 27.4454C329.301 26.5814 329.169 25.6694 329.169 24.7214C329.169 23.7734 329.301 22.8734 329.577 22.0094C329.841 21.1574 330.105 20.6174 330.777 19.5854L330.021 19.1054C329.325 20.1734 329.037 20.7494 328.749 21.6014C328.425 22.5734 328.257 23.6054 328.257 24.7214C328.257 25.8374 328.425 26.8694 328.749 27.8414C329.037 28.7054 329.325 29.2814 330.021 30.3494L330.777 29.8694Z"
   id="path193" />
<path
   clip-path="url(#TextBounds_15)"
   d="M337.341 28.3694C336.597 27.3854 336.597 27.3854 336.477 27.2294L334.893 25.0214L336.405 22.8974C336.609 22.6094 336.861 22.2854 337.137 21.9014L335.985 21.9014C335.877 22.1414 335.721 22.4054 335.517 22.7054L334.353 24.3974L333.177 22.7054C332.949 22.3814 332.829 22.1774 332.709 21.9014L331.533 21.9014C332.085 22.6334 332.181 22.7534 332.253 22.8614L333.801 25.0214L332.133 27.3254C331.869 27.7094 331.545 28.1294 331.353 28.3694L332.541 28.3694C332.721 28.0334 332.817 27.8534 333.009 27.5894L334.341 25.6454L335.613 27.4814C335.865 27.8654 335.985 28.0574 336.153 28.3694L337.341 28.3694Z"
   id="path195" />
<path
   clip-path="url(#TextBounds_15)"
   d="M337.893 19.5854C338.565 20.6174 338.829 21.1574 339.093 22.0094C339.369 22.8734 339.501 23.7614 339.501 24.7214C339.501 25.6814 339.369 26.5814 339.093 27.4454C338.829 28.2974 338.565 28.8374 337.893 29.8694L338.649 30.3494C339.345 29.2814 339.633 28.7054 339.921 27.8414C340.257 26.8694 340.413 25.8494 340.413 24.7214C340.413 23.6054 340.257 22.5734 339.921 21.6014C339.633 20.7494 339.345 20.1734 338.649 19.1054L337.893 19.5854Z"
   id="path197" />
</g>
<g
   fill="#000000"
   opacity="1"
   stroke="none"
   id="g201" />
<g
   fill="#000000"
   opacity="1"
   stroke="none"
   id="g203" />

</g>
<g
   id="Calque-2"
   vectornator:layerName="Calque 2" />
<g
   transform="matrix(1.6,0,0,1.6,298.51532,110.5549)"
   ns2:version="1.8.2"
   ns2:texconverter="pdflatex"
   ns2:pdfconverter="inkscape"
   ns2:text="$\\Delta \\rho$"
   ns2:preamble="/Users/alexis/Library/Application Support/org.inkscape.Inkscape/config/inkscape/extensions/textext/default_packages.tex"
   ns2:scale="1.2"
   ns2:alignment="middle center"
   ns2:stroke-to-path="0"
   ns2:jacobian_sqrt="1.6"
   id="g759"
   style="fill:#7dd86d;fill-opacity:1;stroke:none;stroke-opacity:1"><defs
   id="id-b7418296-85b9-4341-9063-78066eb18f0e">
    <g
   id="id-cc465a45-1204-4ea0-801a-c7375d774b65">
      <g
   id="id-b633eb33-de04-4f6b-9911-dce5c1d2ae16" />
      <g
   id="id-7474ea1f-5962-4660-9617-dced4e270f2c">
        <path
   d="m 4.40625,-6.953125 c -0.0625,-0.140625 -0.09375,-0.1875 -0.265625,-0.1875 -0.15625,0 -0.1875,0.046875 -0.25,0.1875 l -3.375,6.75 C 0.46875,-0.109375 0.46875,-0.09375 0.46875,-0.078125 0.46875,0 0.53125,0 0.6875,0 h 6.921875 c 0.15625,0 0.21875,0 0.21875,-0.078125 0,-0.015625 0,-0.03125 -0.046875,-0.125 z m -0.578125,0.8125 2.6875,5.390625 h -5.375 z m 0,0"
   id="id-bd31a43a-6af7-41b6-a178-0f217460f5d2" />
      </g>
      <g
   id="id-f06ef361-bfd6-412b-889b-9e8515eb900b" />
      <g
   id="id-e04bfa11-9186-4d21-9d53-fd4c352f373e">
        <path
   d="m 0.328125,1.71875 c -0.03125,0.125 -0.03125,0.140625 -0.03125,0.171875 0,0.140625 0.109375,0.265625 0.28125,0.265625 0.203125,0 0.328125,-0.1875 0.34375,-0.21875 0.0625,-0.078125 0.375,-1.421875 0.640625,-2.5 0.203125,0.40625 0.515625,0.671875 0.984375,0.671875 C 3.71875,0.109375 5,-1.296875 5,-2.78125 c 0,-1.0625 -0.65625,-1.625 -1.375,-1.625 -0.96875,0 -2.015625,1 -2.3125,2.21875 z m 2.21875,-1.828125 C 1.84375,-0.109375 1.6875,-0.90625 1.6875,-1 c 0,-0.03125 0.046875,-0.234375 0.078125,-0.359375 0.28125,-1.125 0.375,-1.484375 0.59375,-1.875 0.4375,-0.734375 0.9375,-0.953125 1.234375,-0.953125 0.375,0 0.6875,0.296875 0.6875,0.984375 0,0.546875 -0.28125,1.65625 -0.546875,2.140625 -0.328125,0.640625 -0.8125,0.953125 -1.1875,0.953125 z m 0,0"
   id="id-3fb19465-3700-442b-8ffc-1e80332705fe" />
      </g>
    </g>
  </defs>
  <g
   fill="#000000"
   fill-opacity="1"
   id="id-c1a313f9-887b-433d-94c5-5d544eca56ff"
   transform="translate(-149.181,-127.624)"
   style="fill:#7dd86d;fill-opacity:1;stroke:none;stroke-opacity:1">
    <g
   transform="translate(148.712,134.765)"
   id="g752"
   style="fill:#7dd86d;fill-opacity:1;stroke:none;stroke-opacity:1"><path
   d="m 4.40625,-6.953125 c -0.0625,-0.140625 -0.09375,-0.1875 -0.265625,-0.1875 -0.15625,0 -0.1875,0.046875 -0.25,0.1875 l -3.375,6.75 C 0.46875,-0.109375 0.46875,-0.09375 0.46875,-0.078125 0.46875,0 0.53125,0 0.6875,0 h 6.921875 c 0.15625,0 0.21875,0 0.21875,-0.078125 0,-0.015625 0,-0.03125 -0.046875,-0.125 z m -0.578125,0.8125 2.6875,5.390625 h -5.375 z m 0,0"
   id="id-78fab9ac-3b93-4bd8-8879-df56f7f1a59f"
   style="fill:#7dd86d;fill-opacity:1;stroke:none;stroke-opacity:1" />
      </g></g>
  <g
   fill="#000000"
   fill-opacity="1"
   id="id-d5c76470-539d-49fa-b29e-d7b460e24605"
   transform="translate(-149.181,-127.624)"
   style="fill:#7dd86d;fill-opacity:1;stroke:none;stroke-opacity:1">
    <g
   transform="translate(157.015,134.765)"
   id="g756"
   style="fill:#7dd86d;fill-opacity:1;stroke:none;stroke-opacity:1"><path
   d="m 0.328125,1.71875 c -0.03125,0.125 -0.03125,0.140625 -0.03125,0.171875 0,0.140625 0.109375,0.265625 0.28125,0.265625 0.203125,0 0.328125,-0.1875 0.34375,-0.21875 0.0625,-0.078125 0.375,-1.421875 0.640625,-2.5 0.203125,0.40625 0.515625,0.671875 0.984375,0.671875 C 3.71875,0.109375 5,-1.296875 5,-2.78125 c 0,-1.0625 -0.65625,-1.625 -1.375,-1.625 -0.96875,0 -2.015625,1 -2.3125,2.21875 z m 2.21875,-1.828125 C 1.84375,-0.109375 1.6875,-0.90625 1.6875,-1 c 0,-0.03125 0.046875,-0.234375 0.078125,-0.359375 0.28125,-1.125 0.375,-1.484375 0.59375,-1.875 0.4375,-0.734375 0.9375,-0.953125 1.234375,-0.953125 0.375,0 0.6875,0.296875 0.6875,0.984375 0,0.546875 -0.28125,1.65625 -0.546875,2.140625 -0.328125,0.640625 -0.8125,0.953125 -1.1875,0.953125 z m 0,0"
   id="id-49510b53-8dea-4c73-8bb7-516ed184b989"
   style="fill:#7dd86d;fill-opacity:1;stroke:none;stroke-opacity:1" />
      </g></g>
</g><g
   transform="matrix(1.6,0,0,1.6,395.451,67.404712)"
   ns2:version="1.8.2"
   ns2:texconverter="pdflatex"
   ns2:pdfconverter="inkscape"
   ns2:text="$\\frac {\\mathrm{d} \\rho}{\\mathrm{d} \\theta}$"
   ns2:preamble="/Users/alexis/Library/Application Support/org.inkscape.Inkscape/config/inkscape/extensions/textext/default_packages.tex"
   ns2:scale="1.2"
   ns2:alignment="middle center"
   ns2:stroke-to-path="0"
   ns2:jacobian_sqrt="1.6"
   id="g2167"><defs
   id="id-d41859aa-6c18-42f9-b46b-7d97343819f7">
    <g
   id="id-60d49e1f-bb4a-4680-b661-474ad0b704d2">
      <g
   id="id-9735cf92-357e-4929-92c9-f8b4825d67ea" />
      <g
   id="id-54ef06f7-b693-4513-83de-ea37d4e4b8bb">
        <path
   d="m 2.484375,-4.765625 v 0.25 C 2.953125,-4.515625 3,-4.453125 3,-4.125 v 1.453125 c -0.25,-0.25 -0.59375,-0.40625 -0.96875,-0.40625 -0.9375,0 -1.703125,0.703125 -1.703125,1.578125 0,0.875 0.734375,1.5625 1.609375,1.5625 0.578125,0 0.921875,-0.296875 1.03125,-0.421875 V 0.0625 L 4.046875,0 V -0.25 C 3.578125,-0.25 3.53125,-0.296875 3.53125,-0.640625 V -4.84375 Z m 0.484375,4.03125 C 2.796875,-0.40625 2.4375,-0.125 1.984375,-0.125 1.59375,-0.125 1.3125,-0.359375 1.171875,-0.5625 1.03125,-0.765625 0.953125,-1.046875 0.953125,-1.484375 c 0,-0.171875 0,-0.6875 0.28125,-1.015625 0.28125,-0.3125 0.625,-0.375 0.828125,-0.375 0.328125,0 0.640625,0.15625 0.828125,0.40625 0.078125,0.109375 0.078125,0.109375 0.078125,0.25 z m 0,0"
   id="id-8c4e26b4-2156-48db-92e3-c75818af4558" />
      </g>
      <g
   id="id-b6741a28-1478-48e2-a2ae-b944f9f8698f" />
      <g
   id="id-33a2bde0-11c8-4d4f-b9bf-4efd1e342904">
        <path
   d="M 0.375,1.125 C 0.34375,1.21875 0.34375,1.265625 0.34375,1.265625 c 0,0.15625 0.125,0.21875 0.234375,0.21875 0.265625,0 0.3125,-0.203125 0.359375,-0.421875 0.09375,-0.359375 0.296875,-1.15625 0.359375,-1.421875 0.0625,0.09375 0.296875,0.421875 0.765625,0.421875 0.90625,0 1.84375,-0.9375 1.84375,-1.953125 0,-0.75 -0.484375,-1.1875 -1.109375,-1.1875 -0.671875,0 -1.515625,0.609375 -1.765625,1.59375 z m 1.6875,-1.25 c -0.515625,0 -0.671875,-0.515625 -0.671875,-0.609375 0,-0.015625 0.046875,-0.171875 0.0625,-0.25 C 1.671875,-1.84375 1.703125,-2 1.90625,-2.3125 c 0.25,-0.359375 0.609375,-0.5625 0.875,-0.5625 0.296875,0 0.5625,0.203125 0.5625,0.703125 0,0.3125 -0.1875,1.09375 -0.390625,1.4375 C 2.625,-0.234375 2.28125,-0.125 2.0625,-0.125 Z m 0,0"
   id="id-efc77108-c8d3-40ba-af3a-fa93a970639c" />
      </g>
      <g
   id="id-6a67020b-2bc0-43d9-a3c3-5c6d0e45c4dc">
        <path
   d="m 3.5625,-3.390625 c 0,-0.734375 -0.28125,-1.515625 -0.96875,-1.515625 -1.046875,0 -2.15625,1.875 -2.15625,3.46875 0,0.828125 0.328125,1.5 0.96875,1.5 1.046875,0 2.15625,-1.890625 2.15625,-3.453125 z m -2.34375,0.84375 c 0.359375,-1.5 0.96875,-2.15625 1.375,-2.15625 0.4375,0 0.4375,0.765625 0.4375,0.890625 0,0.28125 -0.046875,0.6875 -0.1875,1.265625 z m 1.5625,0.25 C 2.578125,-1.53125 2.421875,-1.15625 2.203125,-0.8125 2,-0.453125 1.71875,-0.125 1.40625,-0.125 c -0.375,0 -0.4375,-0.53125 -0.4375,-0.90625 0,-0.453125 0.125,-1 0.1875,-1.265625 z m 0,0"
   id="id-5480aaed-1012-4a89-8cf2-3e9686957ac4" />
      </g>
    </g>
  </defs>
  <g
   fill="#000000"
   fill-opacity="1"
   id="id-5dc96400-ac47-4f4d-aa0f-c3667eea9604"
   transform="translate(-149.906,-125.476)">
    <g
   transform="translate(149.908,130.32)"
   id="g2151"><path
   d="m 2.484375,-4.765625 v 0.25 C 2.953125,-4.515625 3,-4.453125 3,-4.125 v 1.453125 c -0.25,-0.25 -0.59375,-0.40625 -0.96875,-0.40625 -0.9375,0 -1.703125,0.703125 -1.703125,1.578125 0,0.875 0.734375,1.5625 1.609375,1.5625 0.578125,0 0.921875,-0.296875 1.03125,-0.421875 V 0.0625 L 4.046875,0 V -0.25 C 3.578125,-0.25 3.53125,-0.296875 3.53125,-0.640625 V -4.84375 Z m 0.484375,4.03125 C 2.796875,-0.40625 2.4375,-0.125 1.984375,-0.125 1.59375,-0.125 1.3125,-0.359375 1.171875,-0.5625 1.03125,-0.765625 0.953125,-1.046875 0.953125,-1.484375 c 0,-0.171875 0,-0.6875 0.28125,-1.015625 0.28125,-0.3125 0.625,-0.375 0.828125,-0.375 0.328125,0 0.640625,0.15625 0.828125,0.40625 0.078125,0.109375 0.078125,0.109375 0.078125,0.25 z m 0,0"
   id="id-4521f14b-c384-4829-998f-82ada54e3cf1" />
      </g></g>
  <g
   fill="#000000"
   fill-opacity="1"
   id="id-f7ae3c5e-acb7-4719-a1ba-178e8ebc959f"
   transform="translate(-149.906,-125.476)">
    <g
   transform="translate(154.308,130.32)"
   id="g2155"><path
   d="M 0.375,1.125 C 0.34375,1.21875 0.34375,1.265625 0.34375,1.265625 c 0,0.15625 0.125,0.21875 0.234375,0.21875 0.265625,0 0.3125,-0.203125 0.359375,-0.421875 0.09375,-0.359375 0.296875,-1.15625 0.359375,-1.421875 0.0625,0.09375 0.296875,0.421875 0.765625,0.421875 0.90625,0 1.84375,-0.9375 1.84375,-1.953125 0,-0.75 -0.484375,-1.1875 -1.109375,-1.1875 -0.671875,0 -1.515625,0.609375 -1.765625,1.59375 z m 1.6875,-1.25 c -0.515625,0 -0.671875,-0.515625 -0.671875,-0.609375 0,-0.015625 0.046875,-0.171875 0.0625,-0.25 C 1.671875,-1.84375 1.703125,-2 1.90625,-2.3125 c 0.25,-0.359375 0.609375,-0.5625 0.875,-0.5625 0.296875,0 0.5625,0.203125 0.5625,0.703125 0,0.3125 -0.1875,1.09375 -0.390625,1.4375 C 2.625,-0.234375 2.28125,-0.125 2.0625,-0.125 Z m 0,0"
   id="id-8422dca0-d096-46bd-9699-8cd9d69f1890" />
      </g></g>
  <path
   fill="none"
   stroke-width="0.398"
   stroke-linecap="butt"
   stroke-linejoin="miter"
   stroke="#000000"
   stroke-opacity="1"
   stroke-miterlimit="10"
   d="M 0,6.7971802 H 8.535156"
   id="id-bd8eb05c-6c6f-4a45-81ac-c800846c9d22" />
  <g
   fill="#000000"
   fill-opacity="1"
   id="id-404e29aa-4963-4efd-80f0-3e33edc15c28"
   transform="translate(-149.906,-125.476)">
    <g
   transform="translate(149.97,138.2)"
   id="g2160"><path
   d="m 2.484375,-4.765625 v 0.25 C 2.953125,-4.515625 3,-4.453125 3,-4.125 v 1.453125 c -0.25,-0.25 -0.59375,-0.40625 -0.96875,-0.40625 -0.9375,0 -1.703125,0.703125 -1.703125,1.578125 0,0.875 0.734375,1.5625 1.609375,1.5625 0.578125,0 0.921875,-0.296875 1.03125,-0.421875 V 0.0625 L 4.046875,0 V -0.25 C 3.578125,-0.25 3.53125,-0.296875 3.53125,-0.640625 V -4.84375 Z m 0.484375,4.03125 C 2.796875,-0.40625 2.4375,-0.125 1.984375,-0.125 1.59375,-0.125 1.3125,-0.359375 1.171875,-0.5625 1.03125,-0.765625 0.953125,-1.046875 0.953125,-1.484375 c 0,-0.171875 0,-0.6875 0.28125,-1.015625 0.28125,-0.3125 0.625,-0.375 0.828125,-0.375 0.328125,0 0.640625,0.15625 0.828125,0.40625 0.078125,0.109375 0.078125,0.109375 0.078125,0.25 z m 0,0"
   id="id-5f37b05e-1516-4a34-a0a4-a1d58525647e" />
      </g></g>
  <g
   fill="#000000"
   fill-opacity="1"
   id="id-3c6810e0-6eee-4470-8f00-cef1c01ed496"
   transform="translate(-149.906,-125.476)">
    <g
   transform="translate(154.37,138.2)"
   id="g2164"><path
   d="m 3.5625,-3.390625 c 0,-0.734375 -0.28125,-1.515625 -0.96875,-1.515625 -1.046875,0 -2.15625,1.875 -2.15625,3.46875 0,0.828125 0.328125,1.5 0.96875,1.5 1.046875,0 2.15625,-1.890625 2.15625,-3.453125 z m -2.34375,0.84375 c 0.359375,-1.5 0.96875,-2.15625 1.375,-2.15625 0.4375,0 0.4375,0.765625 0.4375,0.890625 0,0.28125 -0.046875,0.6875 -0.1875,1.265625 z m 1.5625,0.25 C 2.578125,-1.53125 2.421875,-1.15625 2.203125,-0.8125 2,-0.453125 1.71875,-0.125 1.40625,-0.125 c -0.375,0 -0.4375,-0.53125 -0.4375,-0.90625 0,-0.453125 0.125,-1 0.1875,-1.265625 z m 0,0"
   id="id-69dac2ef-554c-4c32-8bff-7f17933eafaf" />
      </g></g>
</g></svg>
