<?xml version="1.0" encoding="UTF-8" standalone="no"?>
<!DOCTYPE svg PUBLIC "-//W3C//DTD SVG 1.1//EN" "http://www.w3.org/Graphics/SVG/1.1/DTD/svg11.dtd">
<!-- Created with Vectornator (http://vectornator.io/) -->
<svg height="100%" stroke-miterlimit="10" style="fill-rule:nonzero;clip-rule:evenodd;stroke-linecap:round;stroke-linejoin:round;" version="1.1" viewBox="0 0 510.3 396.9" width="100%" xml:space="preserve" xmlns="http://www.w3.org/2000/svg" xmlns:vectornator="http://vectornator.io" xmlns:xlink="http://www.w3.org/1999/xlink">
<defs>
<clipPath id="TextBounds">
<rect height="2.45562" width="254.476" x="251.866" y="103.932"/>
</clipPath>
<clipPath id="TextBounds_2">
<rect height="29.5444" width="141.332" x="236.464" y="90.9754"/>
</clipPath>
<clipPath id="TextBounds_3">
<rect height="29.5801" width="143.398" x="216.441" y="228.225"/>
</clipPath>
<clipPath id="TextBounds_4">
<rect height="29.9156" width="220.828" x="247.94" y="359.634"/>
</clipPath>
<clipPath id="TextBounds_5">
<rect height="29.2318" width="12.611" x="7.56989" y="350.099"/>
</clipPath>
<path d="M327.457 652.165C327.457 630.55 334.911 613.027 344.105 613.027C353.3 613.027 360.753 630.55 360.753 652.165C360.753 673.781 353.3 691.304 344.105 691.304C334.911 691.304 327.457 673.781 327.457 652.165Z" id="Fill"/>
<clipPath id="TextBounds_6">
<rect height="29.4143" width="75.7989" x="90.7033" y="319.303"/>
</clipPath>
<clipPath id="TextBounds_7">
<rect height="29.4475" width="82.349" x="89.8079" y="271.206"/>
</clipPath>
<clipPath id="TextBounds_8">
<rect height="30.8203" width="102.442" x="136.648" y="284.221"/>
</clipPath>
<path d="M283.647 163.573L286.594 167.578L282.59 170.525L279.643 166.521L283.647 163.573Z" id="Fill_2"/>
<clipPath id="TextBounds_9">
<rect height="29.1547" width="113.316" x="176.827" y="277.318"/>
</clipPath>
<clipPath id="TextBounds_10">
<rect height="30.4907" width="139.493" x="184.327" y="114.428"/>
</clipPath>
</defs>
<clipPath id="ArtboardFrame">
<rect height="396.9" width="510.3" x="0" y="0"/>
</clipPath>
<g clip-path="url(#ArtboardFrame)" id="Calque-1" vectornator:layerName="Calque 1">
<path d="M0.333064 0.963004L506.342 0.963004L506.342 389.55L0.333064 389.55L0.333064 0.963004Z" fill="#ffffff" fill-rule="nonzero" opacity="1" stroke="none"/>
<path d="M293.585 154.029L358.763 105.318" fill="none" opacity="1" stroke="#60cf4d" stroke-linecap="butt" stroke-linejoin="miter" stroke-width="1.15628"/>
<path d="M28.1075 351.586L472.344 352.667" fill="none" opacity="1" stroke="#231122" stroke-linecap="round" stroke-linejoin="miter" stroke-width="2.34284"/>
<g opacity="1">
<path d="M349.406 21.7188C348.873 21.8747 348.563 22.4358 348.719 22.9688C349.822 26.7376 350.676 30.5944 351.469 34.4375C352.6 39.9197 353.528 45.4311 354.344 50.9688C356.752 67.3237 357.915 83.8794 358.031 100.406C358.38 150.106 348.914 199.786 330.219 245.844C321.066 268.392 309.678 289.89 296.562 310.375C296.246 310.869 296.412 311.528 296.906 311.844C297.4 312.16 298.028 312.025 298.344 311.531C311.525 290.935 322.993 269.296 332.188 246.625C350.972 200.306 360.428 150.378 360.062 100.406C359.936 83.1222 358.669 65.8091 356.062 48.7188C355.184 42.9574 354.147 37.2261 352.906 31.5312C352.241 28.4749 351.535 25.4101 350.656 22.4062C350.5 21.8733 349.939 21.5628 349.406 21.7188Z" fill="#231122" stroke="none"/>
</g>
<g fill="#000000" opacity="1" stroke="none"/>
<path clip-path="url(#TextBounds_2)" d="M375.55 101.85C375.274 101.633 375.047 101.441 374.771 101.176L374.436 100.851C374.929 100.276 375.122 99.9768 375.339 99.4373C375.593 98.7659 375.727 98.0463 375.729 97.2183C375.736 94.2063 374.001 92.27 371.289 92.2634C368.565 92.2568 366.772 94.2324 366.765 97.2564C366.761 98.7924 367.226 100.102 368.112 101.004C368.89 101.798 369.957 102.208 371.229 102.211C372.105 102.213 372.741 102.047 373.438 101.653C374.228 102.447 374.336 102.555 374.575 102.867L375.55 101.85ZM371.379 99.7397C371.726 100.005 371.966 100.221 372.337 100.582C372 100.749 371.664 100.82 371.256 100.819C369.528 100.815 368.416 99.4085 368.421 97.2365C368.424 96.0005 368.762 95.0053 369.388 94.3828C369.881 93.904 370.518 93.6536 371.25 93.6553C371.982 93.6571 372.617 93.9107 373.096 94.3918C373.718 95.0174 374.052 96.0022 374.049 97.1902C374.046 98.3902 373.828 99.1096 373.299 99.7563C372.808 99.2752 372.568 99.0346 372.365 98.7821L371.379 99.7397Z" fill="#000000" opacity="1" stroke="none"/>
<path clip-path="url(#TextBounds_3)" d="M352.409 239.26C352.338 238.804 352.315 238.348 352.317 237.7L352.322 235.696L354.614 235.701C355.766 235.704 356.582 235.43 357.172 234.844C357.701 234.293 357.979 233.55 357.981 232.638C357.983 231.774 357.733 231.053 357.242 230.572C356.667 229.994 355.852 229.716 354.688 229.714L352.18 229.708C351.544 229.706 351.172 229.693 350.656 229.668C350.727 230.208 350.75 230.64 350.748 231.216L350.733 237.708C350.731 238.356 350.706 238.776 350.633 239.256L352.409 239.26ZM352.325 234.316L352.333 231.088L354.625 231.093C355.261 231.095 355.656 231.228 355.932 231.529C356.195 231.805 356.326 232.202 356.325 232.682C356.322 233.738 355.721 234.324 354.617 234.321L352.325 234.316Z" fill="#000000" opacity="1" stroke="none"/>
<g fill="#000000" opacity="1" stroke="none">
<path clip-path="url(#TextBounds_4)" d="M412.378 370.522C412.307 370.114 412.284 369.742 412.286 369.166L412.291 366.802L414.967 366.809C416.839 366.813 417.922 365.796 417.926 364.032C417.93 362.364 416.889 361.413 415.041 361.409L412.593 361.403C412.041 361.402 411.705 361.389 411.273 361.364C411.343 361.868 411.366 362.24 411.365 362.732L411.35 369.176C411.348 369.74 411.323 370.088 411.25 370.52L412.378 370.522ZM412.293 365.974L412.302 362.23L414.978 362.237C416.274 362.24 416.969 362.878 416.966 364.078C416.963 365.302 416.241 365.984 414.969 365.981L412.293 365.974Z"/>
<path clip-path="url(#TextBounds_4)" d="M422.038 370.702C423.97 370.707 425.221 369.366 425.226 367.314C425.231 365.25 423.998 363.927 422.042 363.922C420.086 363.917 418.835 365.234 418.83 367.31C418.825 369.386 420.07 370.697 422.038 370.702ZM422.065 364.678C423.445 364.681 424.306 365.691 424.302 367.311C424.298 368.931 423.432 369.925 422.028 369.922C420.624 369.918 419.75 368.92 419.754 367.288C419.758 365.668 420.637 364.675 422.065 364.678Z"/>
<path clip-path="url(#TextBounds_4)" d="M426.644 361.437C426.703 361.869 426.727 362.193 426.725 362.781L426.71 369.213C426.708 369.753 426.683 370.125 426.622 370.557L427.702 370.56C427.643 370.08 427.62 369.756 427.622 369.216L427.637 362.796C427.639 362.196 427.663 361.872 427.724 361.44L426.644 361.437Z"/>
<path clip-path="url(#TextBounds_4)" d="M433.678 370.574L434.65 370.577C434.579 370.096 434.556 369.796 434.557 369.256L434.566 365.884C434.569 364.588 433.754 363.914 432.17 363.911C431.27 363.908 430.55 364.135 430.057 364.589C429.756 364.853 429.6 365.104 429.382 365.656L430.318 365.862C430.439 365.502 430.535 365.335 430.691 365.167C431.028 364.82 431.521 364.653 432.181 364.655C433.177 364.657 433.692 365.078 433.69 365.894L433.688 366.59C432.212 366.623 431.636 366.693 430.927 366.896C429.81 367.205 429.209 367.899 429.206 368.859C429.204 369.999 430.006 370.685 431.326 370.689C431.734 370.69 432.166 370.607 432.575 370.452C432.983 370.297 433.211 370.141 433.68 369.722L433.678 370.574ZM433.684 368.078C433.683 368.558 433.587 368.81 433.31 369.109C432.841 369.624 432.084 369.958 431.388 369.957C430.608 369.955 430.117 369.534 430.118 368.874C430.12 368.298 430.421 367.89 431.033 367.64C431.574 367.413 432.258 367.331 433.686 367.298L433.684 368.078Z"/>
<path clip-path="url(#TextBounds_4)" d="M440.474 364.123C439.97 364.038 439.766 364.013 439.406 364.012C438.83 364.011 438.422 364.13 437.965 364.429C437.713 364.596 437.532 364.788 437.303 365.159C437.316 365.075 437.316 364.895 437.316 364.799L437.318 364.115L436.322 364.113C436.381 364.545 436.404 364.869 436.403 365.469L436.394 369.225C436.392 369.717 436.368 370.029 436.306 370.581L437.386 370.583C437.327 370.115 437.304 369.779 437.306 369.239L437.311 366.791C437.361 366.251 437.469 365.963 437.758 365.592C438.12 365.113 438.624 364.862 439.236 364.864C439.536 364.865 439.752 364.901 440.208 365.046L440.474 364.123Z"/>
<path clip-path="url(#TextBounds_4)" d="M449.734 370.613L450.706 370.616C450.635 370.136 450.612 369.835 450.613 369.295L450.622 365.924C450.625 364.628 449.81 363.954 448.226 363.95C447.326 363.947 446.606 364.174 446.113 364.629C445.812 364.892 445.656 365.143 445.438 365.695L446.374 365.901C446.495 365.541 446.591 365.374 446.747 365.206C447.084 364.859 447.577 364.692 448.237 364.694C449.233 364.696 449.748 365.117 449.746 365.933L449.744 366.629C448.268 366.662 447.692 366.732 446.983 366.935C445.866 367.244 445.265 367.938 445.262 368.898C445.26 370.038 446.062 370.724 447.382 370.728C447.79 370.729 448.222 370.646 448.63 370.491C449.039 370.336 449.267 370.18 449.736 369.761L449.734 370.613ZM449.74 368.117C449.739 368.597 449.642 368.849 449.366 369.148C448.897 369.663 448.14 369.997 447.444 369.996C446.664 369.994 446.173 369.573 446.174 368.913C446.176 368.337 446.477 367.929 447.089 367.679C447.63 367.452 448.314 367.37 449.742 367.337L449.74 368.117Z"/>
<path clip-path="url(#TextBounds_4)" d="M457.726 370.633C456.985 369.647 456.985 369.647 456.865 369.491L455.286 367.279L456.804 365.159C457.008 364.871 457.261 364.548 457.538 364.164L456.386 364.162C456.277 364.401 456.121 364.665 455.916 364.964L454.748 366.654L453.576 364.959C453.349 364.634 453.229 364.43 453.11 364.154L451.934 364.151C452.484 364.884 452.58 365.004 452.652 365.112L454.194 367.276L452.521 369.576C452.256 369.959 451.931 370.379 451.738 370.618L452.926 370.621C453.107 370.286 453.203 370.106 453.396 369.842L454.733 367.902L456 369.741C456.251 370.125 456.371 370.318 456.538 370.63L457.726 370.633Z"/>
<path clip-path="url(#TextBounds_4)" d="M458.804 361.515L458.802 362.583L459.966 362.586L459.968 361.518L458.804 361.515ZM458.834 364.167C458.893 364.588 458.916 364.948 458.915 365.524L458.905 369.28C458.904 369.784 458.879 370.12 458.818 370.635L459.898 370.638C459.839 370.17 459.816 369.834 459.817 369.282L459.827 365.526C459.828 364.926 459.853 364.59 459.914 364.17L458.834 364.167Z"/>
<path clip-path="url(#TextBounds_4)" d="M461.306 368.89C461.425 369.382 461.509 369.586 461.688 369.838C462.131 370.452 462.97 370.778 464.062 370.78C465.706 370.784 466.728 370.043 466.731 368.843C466.732 368.351 466.529 367.894 466.158 367.593C465.798 367.316 465.415 367.172 464.251 366.905C463.508 366.747 463.196 366.65 462.92 366.493C462.657 366.349 462.513 366.108 462.514 365.832C462.515 365.196 463.141 364.754 464.017 364.756C464.557 364.757 464.988 364.914 465.263 365.215C465.431 365.384 465.491 365.528 465.562 365.852L466.51 365.698C466.356 365.146 466.188 364.869 465.877 364.605C465.446 364.22 464.81 364.026 463.994 364.024C463.19 364.022 462.542 364.237 462.121 364.643C461.784 364.967 461.603 365.374 461.602 365.806C461.601 366.334 461.828 366.779 462.247 367.068C462.654 367.345 463.062 367.49 464.021 367.696C464.909 367.878 465.149 367.951 465.436 368.132C465.688 368.288 465.807 368.54 465.806 368.876C465.805 369.584 465.144 370.027 464.1 370.024C463.488 370.023 463.008 369.878 462.709 369.601C462.469 369.384 462.374 369.168 462.291 368.724L461.306 368.89Z"/>
</g>
<path clip-path="url(#TextBounds_5)" d="M13.9141 351.302C11.3941 351.296 9.75754 353.152 9.75053 356.032C9.74349 358.924 11.347 360.776 13.879 360.782C16.411 360.788 18.0355 358.944 18.0425 356.052C18.0495 353.16 16.446 351.308 13.9141 351.302ZM13.9051 359.93C11.9851 359.925 10.7168 358.374 10.7226 356.022C10.7283 353.67 11.992 352.137 13.912 352.142C14.74 352.144 15.4593 352.434 16.01 352.975C16.7043 353.673 17.0617 354.73 17.0585 356.05C17.0554 357.334 16.6687 358.449 15.983 359.119C15.4417 359.658 14.7331 359.932 13.9051 359.93Z" fill="#000000" opacity="1" stroke="none"/>
<g opacity="1">
<path d="M123.622 319.747C133.802 334.518 129.47 349.889 129.47 349.889" fill="none" stroke="#231122" stroke-linecap="butt" stroke-linejoin="miter" stroke-width="1.15628"/>
<g fill="#231122" stroke="none">
<path d="M124.238 320.55L129.296 320.496L121.16 316.535L122.872 325.421L124.238 320.55Z" fill="#231122"/>
</g>
</g>
<g opacity="1">
<path d="M125.516 284.082C137.462 297.743 135.43 309.557 135.43 309.557" fill="none" stroke="#231122" stroke-linecap="butt" stroke-linejoin="miter" stroke-width="1.15628"/>
<g fill="#231122" stroke="none">
<path d="M126.21 284.819L131.237 284.255L122.742 281.136L125.344 289.803L126.21 284.819Z" fill="#231122"/>
</g>
</g>
<g opacity="1">
<mask height="80.5894" id="StrokeMask" maskUnits="userSpaceOnUse" width="35.6087" x="326.301" y="611.871">
<rect fill="#ffffff" height="80.5894" stroke="none" width="35.6087" x="326.301" y="611.871"/>
<use fill="#000000" fill-rule="evenodd" stroke="none" xlink:href="#Fill"/>
</mask>
<use fill="none" mask="url(#StrokeMask)" stroke="#231122" stroke-linecap="butt" stroke-linejoin="miter" stroke-width="2.31255" xlink:href="#Fill"/>
</g>
<g fill="#000000" opacity="1" stroke="none">
<path clip-path="url(#TextBounds_6)" d="M154.692 320.503C154.308 320.502 153.936 320.561 153.575 320.68C152.831 320.942 152.121 321.588 151.663 322.427C150.964 323.722 150.576 325.377 150.572 327.009C150.566 329.241 151.476 330.407 153.228 330.411C154.452 330.414 155.485 329.757 156.136 328.57C156.835 327.312 157.26 325.513 157.264 323.833C157.269 321.685 156.36 320.507 154.692 320.503ZM152.329 324.697C152.475 324.157 152.62 323.738 152.704 323.498C152.91 322.994 153.199 322.539 153.487 322.264C153.848 321.905 154.185 321.749 154.569 321.75C155.361 321.752 155.827 322.401 155.824 323.517C155.824 323.757 155.799 324.129 155.737 324.705L152.329 324.697ZM155.542 325.941C155.227 327.212 154.986 327.823 154.54 328.398C154.131 328.925 153.723 329.164 153.243 329.163C152.403 329.161 152.008 328.5 152.012 327.108C152.012 326.748 152.037 326.484 152.11 325.932L155.542 325.941Z"/>
<path clip-path="url(#TextBounds_6)" d="M162.432 330.314C163.02 330.315 163.548 330.112 163.921 329.729C164.39 329.262 164.632 328.483 164.635 327.487C164.637 326.503 164.399 325.734 163.932 325.253C163.561 324.868 163.046 324.663 162.446 324.662C161.846 324.66 161.329 324.863 160.956 325.246C160.487 325.725 160.245 326.492 160.243 327.476C160.24 328.472 160.49 329.253 160.945 329.722C161.316 330.107 161.832 330.312 162.432 330.314ZM162.443 325.682C163.103 325.683 163.438 326.296 163.435 327.484C163.432 328.684 163.094 329.295 162.434 329.294C161.774 329.292 161.44 328.667 161.443 327.479C161.446 326.291 161.783 325.68 162.443 325.682Z"/>
</g>
<g fill="#000000" opacity="1" stroke="none">
<path clip-path="url(#TextBounds_7)" d="M151.254 281.915L154.475 273.286L156.267 273.291L159.446 281.935L151.254 281.915ZM157.059 280.376L155.367 275.134L153.649 280.368L157.059 280.376Z"/>
<path clip-path="url(#TextBounds_7)" d="M165.422 272.434C165.038 272.433 164.666 272.492 164.306 272.611C163.561 272.873 162.852 273.519 162.394 274.358C161.695 275.652 161.306 277.307 161.303 278.939C161.297 281.171 162.206 282.338 163.958 282.342C165.182 282.345 166.216 281.687 166.867 280.501C167.566 279.243 167.99 277.444 167.994 275.764C168 273.616 167.09 272.438 165.422 272.434ZM163.06 276.628C163.205 276.088 163.35 275.668 163.435 275.429C163.64 274.925 163.929 274.47 164.218 274.195C164.579 273.835 164.915 273.68 165.299 273.681C166.091 273.683 166.558 274.332 166.555 275.448C166.554 275.688 166.53 276.06 166.468 276.636L163.06 276.628ZM166.273 277.872C165.958 279.143 165.717 279.754 165.271 280.329C164.862 280.856 164.453 281.095 163.973 281.094C163.133 281.092 162.739 280.431 162.742 279.039C162.743 278.679 162.768 278.415 162.841 277.863L166.273 277.872Z"/>
</g>
<g fill="#e94420" opacity="1" stroke="none">
<path clip-path="url(#TextBounds_8)" d="M223.879 294.17C224.041 294.662 224.216 294.901 224.618 295.191C225.058 295.494 225.686 295.672 226.353 295.674C227.473 295.676 228.48 295.226 229.124 294.447C229.742 293.707 230.097 292.626 230.1 291.468C230.102 290.512 229.865 289.794 229.338 289.202C228.773 288.584 227.982 288.255 227.038 288.253C224.862 288.247 223.601 289.326 222.928 291.778L221.926 295.386C221.697 296.216 221.596 296.505 221.393 296.995L223.293 297C223.332 296.421 223.396 296.019 223.536 295.44L223.879 294.17ZM228.553 291.351C228.551 292.106 228.297 292.911 227.893 293.463C227.502 294.028 226.897 294.341 226.243 294.34C225.199 294.337 224.522 293.581 224.524 292.411C224.526 291.87 224.703 291.229 225.007 290.688C225.411 289.972 226.079 289.571 226.859 289.573C227.286 289.574 227.651 289.676 227.915 289.878C228.329 290.193 228.554 290.722 228.553 291.351Z"/>
<path clip-path="url(#TextBounds_8)" d="M234.895 295.82C235.511 295.822 236.065 295.609 236.456 295.208C236.948 294.718 237.202 293.901 237.204 292.857C237.207 291.825 236.957 291.019 236.468 290.515C236.079 290.112 235.538 289.896 234.909 289.895C234.28 289.893 233.739 290.106 233.348 290.507C232.856 291.009 232.603 291.814 232.6 292.846C232.597 293.89 232.86 294.708 233.337 295.2C233.726 295.603 234.266 295.819 234.895 295.82ZM234.907 290.964C235.599 290.966 235.949 291.608 235.946 292.854C235.943 294.112 235.59 294.753 234.898 294.751C234.206 294.749 233.855 294.094 233.858 292.849C233.861 291.603 234.215 290.962 234.907 290.964Z"/>
</g>
<path d="M336.282 233.539L282.815 161.404" fill="none" opacity="1" stroke="#231122" stroke-linecap="butt" stroke-linejoin="miter" stroke-width="1.15628"/>
<g opacity="1">
<use fill="#000000" fill-rule="nonzero" stroke="none" xlink:href="#Fill_2"/>
<mask height="10.1851" id="StrokeMask_2" maskUnits="userSpaceOnUse" width="10.1851" x="278.026" y="161.957">
<rect fill="#ffffff" height="10.1851" stroke="none" width="10.1851" x="278.026" y="161.957"/>
<use fill="#000000" fill-rule="evenodd" stroke="none" xlink:href="#Fill_2"/>
</mask>
<use fill="none" mask="url(#StrokeMask_2)" stroke="#231122" stroke-linecap="butt" stroke-linejoin="miter" stroke-width="2.31255" xlink:href="#Fill_2"/>
</g>
<path d="M297.552 340.339L391.451 82.2802" fill="none" opacity="1" stroke="#231122" stroke-linecap="butt" stroke-linejoin="miter" stroke-width="1.15628"/>
<path d="M281.915 254.449C281.915 254.449 280.61 284.688 309.978 303.332" fill="none" opacity="1" stroke="#00b9ab" stroke-linecap="butt" stroke-linejoin="miter" stroke-width="1.15628"/>
<path clip-path="url(#TextBounds_9)" d="M278.491 282.706C278.839 282.49 279.079 282.382 279.283 282.382C279.403 282.382 279.475 282.466 279.475 282.634C279.475 282.718 279.451 282.886 279.403 283.018L278.875 284.746C278.779 285.046 278.731 285.358 278.731 285.67C278.731 286.51 279.103 287.206 279.811 287.674C280.087 287.854 280.351 287.938 280.891 288.034L280.819 288.298C280.615 288.958 280.591 289.042 280.447 289.306L282.151 289.306C282.163 289.15 282.223 288.814 282.319 288.31L282.391 288.046C283.327 287.938 283.747 287.83 284.275 287.554C285.367 287.002 286.123 286.066 286.579 284.686C286.879 283.774 286.999 282.91 286.999 281.626C286.999 281.542 286.999 281.41 286.987 281.23L285.463 281.23C285.511 281.626 285.523 281.794 285.523 282.142C285.523 283.726 285.007 285.19 284.167 285.994C283.735 286.414 283.423 286.57 282.739 286.726L284.503 280.114C284.731 279.286 284.815 278.998 285.007 278.566L283.315 278.566C283.279 279.07 283.231 279.322 283.015 280.114L281.227 286.714C280.855 286.666 280.651 286.57 280.459 286.378C280.255 286.174 280.147 285.886 280.147 285.574C280.147 285.346 280.183 285.106 280.267 284.866L280.891 282.898C280.987 282.598 281.035 282.334 281.035 282.094C281.035 281.41 280.579 281.038 279.751 281.038C279.175 281.038 278.671 281.17 278.059 281.482L278.491 282.706Z" fill="#00b9ab" opacity="1" stroke="none"/>
<path d="M26.5173 351.586L336.282 233.539" fill="none" opacity="1" stroke="#e94420" stroke-linecap="butt" stroke-linejoin="miter" stroke-width="1.15628"/>
<path d="M27.3201 351.495L293.585 154.029" fill="none" opacity="1" stroke="#e94420" stroke-linecap="butt" stroke-linejoin="miter" stroke-width="1.15628"/>
<g fill="#60cf4d" opacity="1" stroke="none">
<path clip-path="url(#TextBounds_10)" d="M302.006 125.499L305.36 116.445L307.24 116.445L310.594 125.499L302.006 125.499ZM308.087 123.871L306.3 118.38L304.512 123.871L308.087 123.871Z"/>
<path clip-path="url(#TextBounds_10)" d="M313.954 124.166C314.118 124.656 314.294 124.895 314.696 125.185C315.137 125.487 315.766 125.663 316.433 125.663C317.552 125.663 318.559 125.21 319.2 124.43C319.817 123.688 320.169 122.606 320.169 121.448C320.169 120.492 319.93 119.775 319.401 119.184C318.835 118.567 318.043 118.24 317.099 118.24C314.923 118.24 313.665 119.322 312.998 121.775L312.004 125.386C311.778 126.216 311.677 126.506 311.476 126.996L313.375 126.996C313.413 126.417 313.476 126.015 313.614 125.436L313.954 124.166ZM318.622 121.335C318.622 122.09 318.37 122.895 317.967 123.448C317.577 124.015 316.973 124.329 316.319 124.329C315.275 124.329 314.596 123.574 314.596 122.404C314.596 121.863 314.772 121.222 315.074 120.681C315.476 119.964 316.143 119.561 316.923 119.561C317.351 119.561 317.716 119.662 317.98 119.863C318.395 120.178 318.622 120.706 318.622 121.335Z"/>
</g>
</g>
<g id="Calque-2" vectornator:layerName="Calque 2"/>
</svg>
