<svg xmlns:inkscape="http://www.inkscape.org/namespaces/inkscape" xmlns:sodipodi="http://sodipodi.sourceforge.net/DTD/sodipodi-0.dtd" xmlns="http://www.w3.org/2000/svg" xmlns:svg="http://www.w3.org/2000/svg" width="97.796097mm" height="73.347069mm" viewBox="0 0 97.796097 73.347069" version="1.1" id="svg22553" inkscape:version="1.2.2 (b0a84865, 2022-12-01)" sodipodi:docname="figure5.svg">
  <sodipodi:namedview id="namedview22555" pagecolor="#ffffff" bordercolor="#999999" borderopacity="1" inkscape:showpageshadow="0" inkscape:pageopacity="0" inkscape:pagecheckerboard="0" inkscape:deskcolor="#d1d1d1" inkscape:document-units="mm" showgrid="false" inkscape:zoom="2.587745" inkscape:cx="181.81853" inkscape:cy="157.85945" inkscape:window-width="1753" inkscape:window-height="1205" inkscape:window-x="0" inkscape:window-y="25" inkscape:window-maximized="0" inkscape:current-layer="g17666"/>
  <defs id="defs22550">
    <clipPath id="clip_1">
      <path transform="matrix(0.6016,0,0,-0.6016,167.401,279.90998)" d="M 0,0 H 460.8 V 345.6 H 0 Z" id="path17053"/>
    </clipPath>
    <clipPath id="clip_2">
      <path transform="matrix(0.6016,0,0,-0.6016,167.401,279.90998)" d="m 66.8,50.96 h 379.96 v 280.6 H 66.8 Z" id="path17056"/>
    </clipPath>
    <clipPath id="clip_3">
      <path transform="matrix(0.6016,0,0,-0.6016,167.401,279.90998)" d="m 66.8,50.96 h 379.96 v 280.6 H 66.8 Z" id="path17059"/>
    </clipPath>
    <clipPath id="clip_4">
      <path transform="matrix(0.6016,0,0,-0.6016,167.401,279.90998)" d="m 66.8,50.96 h 379.96 v 280.6 H 66.8 Z" id="path17062"/>
    </clipPath>
    <clipPath id="clip_5">
      <path transform="matrix(0.6016,0,0,-0.6016,167.401,279.90998)" d="m 66.8,50.96 h 379.96 v 280.6 H 66.8 Z" id="path17065"/>
    </clipPath>
    <clipPath id="clip_6">
      <path transform="matrix(0.6016,0,0,-0.6016,167.401,279.90998)" d="m 66.8,50.96 h 379.96 v 280.6 H 66.8 Z" id="path17068"/>
    </clipPath>
    <clipPath id="clip_7">
      <path transform="matrix(0.6016,0,0,-0.6016,167.401,279.90998)" d="m 66.8,50.96 h 379.96 v 280.6 H 66.8 Z" id="path17071"/>
    </clipPath>
    <clipPath id="clip_8">
      <path transform="matrix(0.6016,0,0,-0.6016,167.401,279.90998)" d="m 66.8,50.96 h 379.96 v 280.6 H 66.8 Z" id="path17074"/>
    </clipPath>
    <clipPath id="clip_9">
      <path transform="matrix(0.6016,0,0,-0.6016,167.401,279.90998)" d="m 66.8,50.96 h 379.96 v 280.6 H 66.8 Z" id="path17077"/>
    </clipPath>
    <clipPath id="clip_10">
      <path transform="matrix(0.6016,0,0,-0.6016,167.401,279.90998)" d="m 66.8,50.96 h 379.96 v 280.6 H 66.8 Z" id="path17080"/>
    </clipPath>
    <clipPath id="clip_11">
      <path transform="matrix(0.6016,0,0,-0.6016,167.401,279.90998)" d="m 66.8,50.96 h 379.96 v 280.6 H 66.8 Z" id="path17083"/>
    </clipPath>
    <clipPath id="clip_12">
      <path transform="matrix(0.6016,0,0,-0.6016,167.401,279.90998)" d="m 66.8,50.96 h 379.96 v 280.6 H 66.8 Z" id="path17086"/>
    </clipPath>
    <clipPath id="clip_13">
      <path transform="matrix(0.6016,0,0,-0.6016,167.401,279.90998)" d="m 66.8,50.96 h 379.96 v 280.6 H 66.8 Z" id="path17089"/>
    </clipPath>
    <clipPath id="clip_14">
      <path transform="matrix(0.6016,0,0,-0.6016,167.401,279.90998)" d="m 66.8,50.96 h 379.96 v 280.6 H 66.8 Z" id="path17092"/>
    </clipPath>
    <clipPath id="clip_15">
      <path transform="matrix(0.6016,0,0,-0.6016,167.401,279.90998)" d="m 66.8,50.96 h 379.96 v 280.6 H 66.8 Z" id="path17095"/>
    </clipPath>
    <clipPath id="clip_16">
      <path transform="matrix(0.6016,0,0,-0.6016,167.401,279.90998)" d="m 66.8,50.96 h 379.96 v 280.6 H 66.8 Z" id="path17098"/>
    </clipPath>
    <clipPath id="clip_17">
      <path transform="matrix(0.6016,0,0,-0.6016,167.401,279.90998)" d="m 66.8,50.96 h 379.96 v 280.6 H 66.8 Z" id="path17101"/>
    </clipPath>
    <clipPath id="clip_18">
      <path transform="matrix(0.6016,0,0,-0.6016,167.401,279.90998)" d="m 66.8,50.96 h 379.96 v 280.6 H 66.8 Z" id="path17104"/>
    </clipPath>
    <clipPath id="clip_19">
      <path transform="matrix(0.6016,0,0,-0.6016,167.401,279.90998)" d="m 66.8,50.96 h 379.96 v 280.6 H 66.8 Z" id="path17107"/>
    </clipPath>
    <clipPath id="clip_20">
      <path transform="matrix(0.6016,0,0,-0.6016,167.401,279.90998)" d="m 66.8,50.96 h 379.96 v 280.6 H 66.8 Z" id="path17110"/>
    </clipPath>
    <clipPath id="clip_21">
      <path transform="matrix(0.6016,0,0,-0.6016,167.401,279.90998)" d="m 66.8,50.96 h 379.96 v 280.6 H 66.8 Z" id="path17113"/>
    </clipPath>
    <clipPath id="clip_22">
      <path transform="matrix(0.6016,0,0,-0.6016,167.401,279.90998)" d="m 66.8,50.96 h 379.96 v 280.6 H 66.8 Z" id="path17116"/>
    </clipPath>
    <clipPath id="clip_23">
      <path transform="matrix(0.6016,0,0,-0.6016,167.401,279.90998)" d="m 66.8,50.96 h 379.96 v 280.6 H 66.8 Z" id="path17119"/>
    </clipPath>
    <clipPath id="clip_24">
      <path transform="matrix(0.6016,0,0,-0.6016,167.401,279.90998)" d="m 66.8,50.96 h 379.96 v 280.6 H 66.8 Z" id="path17122"/>
    </clipPath>
    <clipPath id="clip_25">
      <path transform="matrix(0.6016,0,0,-0.6016,167.401,279.90998)" d="m 66.8,50.96 h 379.96 v 280.6 H 66.8 Z" id="path17125"/>
    </clipPath>
    <clipPath id="clip_26">
      <path transform="matrix(0.6016,0,0,-0.6016,167.401,279.90998)" d="m 66.8,50.96 h 379.96 v 280.6 H 66.8 Z" id="path17128"/>
    </clipPath>
    <clipPath id="clip_27">
      <path transform="matrix(0.6016,0,0,-0.6016,167.401,279.90998)" d="m 66.8,50.96 h 379.96 v 280.6 H 66.8 Z" id="path17131"/>
    </clipPath>
    <clipPath id="clip_28">
      <path transform="matrix(0.6016,0,0,-0.6016,167.401,279.90998)" d="m 66.8,50.96 h 379.96 v 280.6 H 66.8 Z" id="path17134"/>
    </clipPath>
    <clipPath id="clip_29">
      <path transform="matrix(0.6016,0,0,-0.6016,167.401,279.90998)" d="m 66.8,50.96 h 379.96 v 280.6 H 66.8 Z" id="path17137"/>
    </clipPath>
    <clipPath id="clip_30">
      <path transform="matrix(0.6016,0,0,-0.6016,167.401,279.90998)" d="m 66.8,50.96 h 379.96 v 280.6 H 66.8 Z" id="path17140"/>
    </clipPath>
    <clipPath id="clip_31">
      <path transform="matrix(0.6016,0,0,-0.6016,167.401,279.90998)" d="m 66.8,50.96 h 379.96 v 280.6 H 66.8 Z" id="path17143"/>
    </clipPath>
  </defs>
  <g inkscape:label="Layer 1" inkscape:groupmode="layer" id="layer1" transform="translate(-24.267483,-50.084011)" color="rgb(209, 209, 209)">
    <g clip-path="url(#clip_1)" id="g17666" transform="matrix(0.35277777,0,0,0.35277777,-34.787868,24.685063)" color="rgb(209, 209, 209)">
      <g clip-path="url(#clip_2)" id="g17256" color="rgb(209, 209, 209)">
        <path transform="matrix(0.6016,0,0,-0.6016,167.401,279.90998)" d="m 84.07091,50.96 h 9.39913 z" fill="#1f77b4" id="path17254"/>
      </g>
      <g clip-path="url(#clip_3)" id="g17260" color="rgb(209, 209, 209)">
        <path transform="matrix(0.6016,0,0,-0.6016,167.401,279.90998)" d="m 119.31767,50.96 h 9.39913 v 24.3759 h -9.39913 z" fill="#1f77b4" id="path17258"/>
      </g>
      <g clip-path="url(#clip_4)" id="g17264" color="rgb(209, 209, 209)">
        <path transform="matrix(0.6016,0,0,-0.6016,167.401,279.90998)" d="m 154.56443,50.96 h 9.39912 z" fill="#1f77b4" id="path17262"/>
      </g>
      <g clip-path="url(#clip_5)" id="g17268" color="rgb(209, 209, 209)">
        <path transform="matrix(0.6016,0,0,-0.6016,167.401,279.90998)" d="m 189.81118,50.96 h 9.39912 v 0.01081 h -9.39912 z" fill="#1f77b4" id="path17266"/>
      </g>
      <g clip-path="url(#clip_6)" id="g17272" color="rgb(209, 209, 209)">
        <path transform="matrix(0.6016,0,0,-0.6016,167.401,279.90998)" d="m 225.05792,50.96 h 9.39914 z" fill="#1f77b4" id="path17270"/>
      </g>
      <g clip-path="url(#clip_7)" id="g17276" color="rgb(209, 209, 209)">
        <path transform="matrix(0.6016,0,0,-0.6016,167.401,279.90998)" d="m 260.3047,50.96 h 9.3991 v 0.04322 h -9.3991 z" fill="#1f77b4" id="path17274"/>
      </g>
      <g clip-path="url(#clip_8)" id="g17280" color="rgb(209, 209, 209)">
        <path transform="matrix(0.6016,0,0,-0.6016,167.401,279.90998)" d="m 295.55143,50.96 h 9.39914 v 0.07563 h -9.39914 z" fill="#1f77b4" id="path17278"/>
      </g>
      <g clip-path="url(#clip_9)" id="g17284" color="rgb(209, 209, 209)">
        <path transform="matrix(0.6016,0,0,-0.6016,167.401,279.90998)" d="m 330.7982,50.96 h 9.39914 v 0.140465 h -9.39914 z" fill="#1f77b4" id="path17282"/>
      </g>
      <g clip-path="url(#clip_10)" id="g17288" color="rgb(209, 209, 209)">
        <path transform="matrix(0.6016,0,0,-0.6016,167.401,279.90998)" d="m 366.04493,50.96 h 9.39914 v 0.626687 h -9.39914 z" fill="#1f77b4" id="path17286"/>
      </g>
      <g clip-path="url(#clip_11)" id="g17292" color="rgb(209, 209, 209)">
        <path transform="matrix(0.6016,0,0,-0.6016,167.401,279.90998)" d="m 401.2917,50.96 h 9.39914 v 267.2381 h -9.39914 z" fill="#1f77b4" id="path17290"/>
      </g>
      <g clip-path="url(#clip_12)" id="g17296" color="rgb(209, 209, 209)">
        <path transform="matrix(0.6016,0,0,-0.6016,167.401,279.90998)" d="m 93.47004,50.96 h 9.39914 v 193.73222 h -9.39914 z" fill="#ff7f0e" id="path17294"/>
      </g>
      <g clip-path="url(#clip_13)" id="g17300" color="rgb(209, 209, 209)">
        <path transform="matrix(0.6016,0,0,-0.6016,167.401,279.90998)" d="m 128.7168,50.96 h 9.39914 v 91.71217 h -9.39914 z" fill="#ff7f0e" id="path17298"/>
      </g>
      <g clip-path="url(#clip_14)" id="g17304" color="rgb(209, 209, 209)">
        <path transform="matrix(0.6016,0,0,-0.6016,167.401,279.90998)" d="m 163.96355,50.96 h 9.39914 v 7.034005 h -9.39914 z" fill="#ff7f0e" id="path17302"/>
      </g>
      <g clip-path="url(#clip_15)" id="g17308" color="rgb(209, 209, 209)">
        <path transform="matrix(0.6016,0,0,-0.6016,167.401,279.90998)" d="m 199.2103,50.96 h 9.39914 v 0.03242 h -9.39914 z" fill="#ff7f0e" id="path17306"/>
      </g>
      <g clip-path="url(#clip_16)" id="g17312" color="rgb(209, 209, 209)">
        <path transform="matrix(0.6016,0,0,-0.6016,167.401,279.90998)" d="m 234.45706,50.96 h 9.39913 z" fill="#ff7f0e" id="path17310"/>
      </g>
      <g clip-path="url(#clip_17)" id="g17316" color="rgb(209, 209, 209)">
        <path transform="matrix(0.6016,0,0,-0.6016,167.401,279.90998)" d="m 269.7038,50.96 h 9.39915 z" fill="#ff7f0e" id="path17314"/>
      </g>
      <g clip-path="url(#clip_18)" id="g17320" color="rgb(209, 209, 209)">
        <path transform="matrix(0.6016,0,0,-0.6016,167.401,279.90998)" d="m 304.95057,50.96 h 9.39913 z" fill="#ff7f0e" id="path17318"/>
      </g>
      <g clip-path="url(#clip_19)" id="g17324" color="rgb(209, 209, 209)">
        <path transform="matrix(0.6016,0,0,-0.6016,167.401,279.90998)" d="m 340.19734,50.96 h 9.39911 z" fill="#ff7f0e" id="path17322"/>
      </g>
      <g clip-path="url(#clip_20)" id="g17328" color="rgb(209, 209, 209)">
        <path transform="matrix(0.6016,0,0,-0.6016,167.401,279.90998)" d="m 375.44407,50.96 h 9.39913 z" fill="#ff7f0e" id="path17326"/>
      </g>
      <g clip-path="url(#clip_21)" id="g17332" color="rgb(209, 209, 209)">
        <path transform="matrix(0.6016,0,0,-0.6016,167.401,279.90998)" d="m 410.69084,50.96 h 9.39914 z" fill="#ff7f0e" id="path17330"/>
      </g>
      <g clip-path="url(#clip_22)" id="g17336" color="rgb(209, 209, 209)">
        <path transform="matrix(0.6016,0,0,-0.6016,167.401,279.90998)" d="m 102.86918,50.96 h 9.39913 v 25.11063 h -9.39913 z" fill="#2ca02c" id="path17334"/>
      </g>
      <g clip-path="url(#clip_23)" id="g17340" color="rgb(209, 209, 209)">
        <path transform="matrix(0.6016,0,0,-0.6016,167.401,279.90998)" d="m 138.11594,50.96 h 9.39912 v 8.87084 h -9.39912 z" fill="#2ca02c" id="path17338"/>
      </g>
      <g clip-path="url(#clip_24)" id="g17344" color="rgb(209, 209, 209)">
        <path transform="matrix(0.6016,0,0,-0.6016,167.401,279.90998)" d="m 173.36269,50.96 h 9.39914 v 32.43637 h -9.39914 z" fill="#2ca02c" id="path17342"/>
      </g>
      <g clip-path="url(#clip_25)" id="g17348" color="rgb(209, 209, 209)">
        <path transform="matrix(0.6016,0,0,-0.6016,167.401,279.90998)" d="m 208.60944,50.96 h 9.39914 v 43.42497 h -9.39914 z" fill="#2ca02c" id="path17346"/>
      </g>
      <g clip-path="url(#clip_26)" id="g17352" color="rgb(209, 209, 209)">
        <path transform="matrix(0.6016,0,0,-0.6016,167.401,279.90998)" d="m 243.85619,50.96 h 9.39914 v 41.20997 h -9.39914 z" fill="#2ca02c" id="path17350"/>
      </g>
      <g clip-path="url(#clip_27)" id="g17356" color="rgb(209, 209, 209)">
        <path transform="matrix(0.6016,0,0,-0.6016,167.401,279.90998)" d="m 279.10295,50.96 h 9.39914 v 39.25428 h -9.39914 z" fill="#2ca02c" id="path17354"/>
      </g>
      <g clip-path="url(#clip_28)" id="g17360" color="rgb(209, 209, 209)">
        <path transform="matrix(0.6016,0,0,-0.6016,167.401,279.90998)" d="m 314.3497,50.96 h 9.39915 v 42.20402 h -9.39915 z" fill="#2ca02c" id="path17358"/>
      </g>
      <g clip-path="url(#clip_29)" id="g17364" color="rgb(209, 209, 209)">
        <path transform="matrix(0.6016,0,0,-0.6016,167.401,279.90998)" d="m 349.59645,50.96 h 9.39914 v 36.6719 h -9.39914 z" fill="#2ca02c" id="path17362"/>
      </g>
      <g clip-path="url(#clip_30)" id="g17368" color="rgb(209, 209, 209)">
        <path transform="matrix(0.6016,0,0,-0.6016,167.401,279.90998)" d="m 384.8432,50.96 h 9.39915 v 19.29759 h -9.39915 z" fill="#2ca02c" id="path17366"/>
      </g>
      <g clip-path="url(#clip_31)" id="g17372" color="rgb(209, 209, 209)">
        <path transform="matrix(0.6016,0,0,-0.6016,167.401,279.90998)" d="m 420.08998,50.96 h 9.39912 v 4.030236 h -9.39912 z" fill="#2ca02c" id="path17370"/>
      </g>
      <path transform="matrix(0.6016,0,0,-0.6016,167.401,279.90998)" d="m 91.91615,50.96 v -3.5" id="path17374"/>
      <path transform="matrix(0.6016,0,0,-0.6016,167.401,279.90998)" stroke-width="0.8" stroke-linecap="butt" stroke-linejoin="round" fill="none" stroke="currentColor" d="m 91.91615,50.96 v -3.5" id="path17376"/>
      <path id="use17378" d="m 221.0554,253.69925 h 3.02827 v 0.64918 h -2.3218 v 1.39767 c 0.11202,-0.0382 0.22404,-0.0668 0.33605,-0.0859 0.11202,-0.0191 0.22404,-0.0286 0.33605,-0.0286 0.63646,0 1.14054,0.17474 1.51223,0.52424 0.37169,0.34941 0.55753,0.82258 0.55753,1.4195 0,0.61474 -0.19093,1.0924 -0.57281,1.43299 -0.38187,0.3405 -0.92032,0.51075 -1.61533,0.51075 -0.23931,0 -0.48307,-0.0204 -0.73129,-0.0611 -0.24822,-0.0407 -0.50471,-0.10183 -0.76948,-0.1833 v -0.77902 c 0.22913,0.12602 0.46589,0.21989 0.71029,0.28163 0.2444,0.0617 0.5028,0.0926 0.77521,0.0926 0.44043,0 0.7892,-0.11615 1.04633,-0.34846 0.25713,-0.23238 0.3857,-0.54775 0.3857,-0.94609 0,-0.39834 -0.12857,-0.71367 -0.3857,-0.94598 -0.25713,-0.23238 -0.6059,-0.34858 -1.04633,-0.34858 -0.20622,0 -0.41179,0.0229 -0.61673,0.0687 -0.20494,0.0458 -0.41434,0.11711 -0.62819,0.21385 z" style="stroke-width:7.8208;fill:currentColor;fill-opacity:1"/>
      <path transform="matrix(0.6016,0,0,-0.6016,167.401,279.90998)" d="m 148.76576,50.96 v -3.5" id="path17380"/>
      <path transform="matrix(0.6016,0,0,-0.6016,167.401,279.90998)" stroke-width="0.8" stroke-linecap="butt" stroke-linejoin="round" fill="none" stroke="currentColor" d="m 148.76576,50.96 v -3.5" id="path17382"/>
      <path id="use17384" d="m 252.89584,258.75527 h 1.26019 v -4.35337 l -1.37093,0.27495 v -0.70265 l 1.36329,-0.27495 h 0.77139 v 5.05602 h 1.26019 v 0.64919 h -3.28413 z" style="stroke-width:7.8208;fill:currentColor;fill-opacity:1"/>
      <path id="use17386" d="m 259.38591,254.21096 c -0.39715,0 -0.69565,0.19555 -0.8955,0.58666 -0.19985,0.3911 -0.29977,0.97903 -0.29977,1.76378 0,0.78221 0.0999,1.36886 0.29977,1.75997 0.19985,0.3911 0.49835,0.58665 0.8955,0.58665 0.39969,0 0.69946,-0.19555 0.89931,-0.58665 0.19985,-0.39111 0.29977,-0.97776 0.29977,-1.75997 0,-0.78475 -0.0999,-1.37268 -0.29977,-1.76378 -0.19985,-0.39111 -0.49962,-0.58666 -0.89931,-0.58666 m 0,-0.611 c 0.639,0 1.12716,0.25283 1.46449,0.7585 0.33732,0.50567 0.50598,1.23998 0.50598,2.20294 0,0.96042 -0.16866,1.69346 -0.50598,2.19912 -0.33733,0.50567 -0.82549,0.7585 -1.46449,0.7585 -0.63901,0 -1.12717,-0.25283 -1.46449,-0.7585 -0.33733,-0.50566 -0.50599,-1.2387 -0.50599,-2.19912 0,-0.96296 0.16866,-1.69727 0.50599,-2.20294 0.33732,-0.50567 0.82548,-0.7585 1.46449,-0.7585 z" style="stroke-width:7.8208;fill:currentColor;fill-opacity:1"/>
      <path transform="matrix(0.6016,0,0,-0.6016,167.401,279.90998)" d="m 205.61536,50.96 v -3.5" id="path17388"/>
      <path transform="matrix(0.6016,0,0,-0.6016,167.401,279.90998)" stroke-width="0.8" stroke-linecap="butt" stroke-linejoin="round" fill="none" stroke="currentColor" d="m 205.61536,50.96 v -3.5" id="path17390"/>
      <path id="use17392" d="m 287.09656,258.75527 h 1.26019 v -4.35337 l -1.37093,0.27495 v -0.70265 l 1.36329,-0.27495 h 0.77139 v 5.05602 h 1.26019 v 0.64919 h -3.28413 z" style="stroke-width:7.8208;fill:currentColor;fill-opacity:1"/>
      <path id="use17394" d="m 291.94457,253.69925 h 3.02827 v 0.64918 h -2.3218 v 1.39767 c 0.11202,-0.0382 0.22404,-0.0668 0.33605,-0.0859 0.11202,-0.0191 0.22404,-0.0286 0.33605,-0.0286 0.63646,0 1.14054,0.17474 1.51223,0.52424 0.37169,0.34941 0.55753,0.82258 0.55753,1.4195 0,0.61474 -0.19093,1.0924 -0.57281,1.43299 -0.38187,0.3405 -0.92032,0.51075 -1.61533,0.51075 -0.23931,0 -0.48307,-0.0204 -0.73129,-0.0611 -0.24822,-0.0407 -0.50471,-0.10183 -0.76948,-0.1833 v -0.77902 c 0.22913,0.12602 0.46589,0.21989 0.71029,0.28163 0.2444,0.0617 0.5028,0.0926 0.77521,0.0926 0.44043,0 0.7892,-0.11615 1.04633,-0.34846 0.25713,-0.23238 0.3857,-0.54775 0.3857,-0.94609 0,-0.39834 -0.12857,-0.71367 -0.3857,-0.94598 -0.25713,-0.23238 -0.6059,-0.34858 -1.04633,-0.34858 -0.20622,0 -0.41179,0.0229 -0.61673,0.0687 -0.20494,0.0458 -0.41434,0.11711 -0.62819,0.21385 z" style="stroke-width:7.8208;fill:currentColor;fill-opacity:1"/>
      <path transform="matrix(0.6016,0,0,-0.6016,167.401,279.90998)" d="m 262.46498,50.96 v -3.5" id="path17396"/>
      <path transform="matrix(0.6016,0,0,-0.6016,167.401,279.90998)" stroke-width="0.8" stroke-linecap="butt" stroke-linejoin="round" fill="none" stroke="currentColor" d="m 262.46498,50.96 v -3.5" id="path17398"/>
      <path id="use17400" d="m 321.82811,258.75527 h 2.69222 v 0.64919 h -3.62018 v -0.64919 c 0.29277,-0.30295 0.69183,-0.70965 1.19718,-1.22009 0.50535,-0.51044 0.82294,-0.83949 0.95278,-0.98715 0.24694,-0.27749 0.41942,-0.51234 0.51744,-0.70455 0.098,-0.19221 0.14702,-0.38124 0.14702,-0.56709 0,-0.30295 -0.10629,-0.5499 -0.31886,-0.74084 -0.21258,-0.19093 -0.48944,-0.2864 -0.83058,-0.2864 -0.24186,0 -0.49708,0.0423 -0.76566,0.12697 -0.26859,0.0847 -0.55563,0.2129 -0.86113,0.38474 v -0.77903 c 0.31059,-0.12601 0.60082,-0.22116 0.87068,-0.28545 0.26985,-0.0643 0.5168,-0.0964 0.74083,-0.0964 0.59064,0 1.06162,0.14766 1.41294,0.44297 0.35132,0.29532 0.52699,0.68993 0.52699,1.18382 0,0.23421 -0.0439,0.45634 -0.13175,0.66637 -0.0878,0.21003 -0.24758,0.45761 -0.47925,0.74275 -0.0636,0.0738 -0.26604,0.28704 -0.60718,0.63964 -0.34115,0.35259 -0.82231,0.84585 -1.44349,1.47976 z" style="stroke-width:7.8208;fill:currentColor;fill-opacity:1"/>
      <path id="use17402" d="m 327.78738,254.21096 c -0.39715,0 -0.69565,0.19555 -0.8955,0.58666 -0.19985,0.3911 -0.29977,0.97903 -0.29977,1.76378 0,0.78221 0.0999,1.36886 0.29977,1.75997 0.19985,0.3911 0.49835,0.58665 0.8955,0.58665 0.39969,0 0.69946,-0.19555 0.89931,-0.58665 0.19985,-0.39111 0.29977,-0.97776 0.29977,-1.75997 0,-0.78475 -0.0999,-1.37268 -0.29977,-1.76378 -0.19985,-0.39111 -0.49962,-0.58666 -0.89931,-0.58666 m 0,-0.611 c 0.639,0 1.12716,0.25283 1.46449,0.7585 0.33732,0.50567 0.50598,1.23998 0.50598,2.20294 0,0.96042 -0.16866,1.69346 -0.50598,2.19912 -0.33733,0.50567 -0.82549,0.7585 -1.46449,0.7585 -0.63901,0 -1.12717,-0.25283 -1.46449,-0.7585 -0.33733,-0.50566 -0.50599,-1.2387 -0.50599,-2.19912 0,-0.96296 0.16866,-1.69727 0.50599,-2.20294 0.33732,-0.50567 0.82548,-0.7585 1.46449,-0.7585 z" style="stroke-width:7.8208;fill:currentColor;fill-opacity:1"/>
      <path transform="matrix(0.6016,0,0,-0.6016,167.401,279.90998)" d="m 319.31459,50.96 v -3.5" id="path17404"/>
      <path transform="matrix(0.6016,0,0,-0.6016,167.401,279.90998)" stroke-width="0.8" stroke-linecap="butt" stroke-linejoin="round" fill="none" stroke="currentColor" d="m 319.31459,50.96 v -3.5" id="path17406"/>
      <path id="use17408" d="m 356.02883,258.75527 h 2.69222 v 0.64919 h -3.62018 v -0.64919 c 0.29277,-0.30295 0.69183,-0.70965 1.19718,-1.22009 0.50535,-0.51044 0.82294,-0.83949 0.95278,-0.98715 0.24694,-0.27749 0.41942,-0.51234 0.51744,-0.70455 0.098,-0.19221 0.14702,-0.38124 0.14702,-0.56709 0,-0.30295 -0.10629,-0.5499 -0.31886,-0.74084 -0.21258,-0.19093 -0.48944,-0.2864 -0.83058,-0.2864 -0.24186,0 -0.49708,0.0423 -0.76566,0.12697 -0.26859,0.0847 -0.55563,0.2129 -0.86113,0.38474 v -0.77903 c 0.31059,-0.12601 0.60082,-0.22116 0.87068,-0.28545 0.26985,-0.0643 0.5168,-0.0964 0.74083,-0.0964 0.59064,0 1.06162,0.14766 1.41294,0.44297 0.35132,0.29532 0.52699,0.68993 0.52699,1.18382 0,0.23421 -0.0439,0.45634 -0.13175,0.66637 -0.0878,0.21003 -0.24758,0.45761 -0.47925,0.74275 -0.0636,0.0738 -0.26604,0.28704 -0.60718,0.63964 -0.34115,0.35259 -0.82231,0.84585 -1.44349,1.47976 z" style="stroke-width:7.8208;fill:currentColor;fill-opacity:1"/>
      <path id="use17410" d="m 360.34603,253.69925 h 3.02827 v 0.64918 h -2.3218 v 1.39767 c 0.11202,-0.0382 0.22404,-0.0668 0.33605,-0.0859 0.11202,-0.0191 0.22404,-0.0286 0.33605,-0.0286 0.63646,0 1.14054,0.17474 1.51223,0.52424 0.37169,0.34941 0.55753,0.82258 0.55753,1.4195 0,0.61474 -0.19093,1.0924 -0.57281,1.43299 -0.38187,0.3405 -0.92032,0.51075 -1.61533,0.51075 -0.23931,0 -0.48307,-0.0204 -0.73129,-0.0611 -0.24822,-0.0407 -0.50471,-0.10183 -0.76948,-0.1833 v -0.77902 c 0.22913,0.12602 0.46589,0.21989 0.71029,0.28163 0.2444,0.0617 0.5028,0.0926 0.77521,0.0926 0.44043,0 0.7892,-0.11615 1.04633,-0.34846 0.25713,-0.23238 0.3857,-0.54775 0.3857,-0.94609 0,-0.39834 -0.12857,-0.71367 -0.3857,-0.94598 -0.25713,-0.23238 -0.6059,-0.34858 -1.04633,-0.34858 -0.20622,0 -0.41179,0.0229 -0.61673,0.0687 -0.20494,0.0458 -0.41434,0.11711 -0.62819,0.21385 z" style="stroke-width:7.8208;fill:currentColor;fill-opacity:1"/>
      <path transform="matrix(0.6016,0,0,-0.6016,167.401,279.90998)" d="m 376.16416,50.96 v -3.5" id="path17412"/>
      <path transform="matrix(0.6016,0,0,-0.6016,167.401,279.90998)" stroke-width="0.8" stroke-linecap="butt" stroke-linejoin="round" fill="none" stroke="currentColor" d="m 376.16416,50.96 v -3.5" id="path17414"/>
      <path id="use17416" d="m 391.90215,256.32655 c 0.36915,0.0791 0.65746,0.24368 0.86495,0.49381 0.20748,0.25005 0.31123,0.55881 0.31123,0.92629 0,0.56398 -0.19349,1.00039 -0.58045,1.30923 -0.38697,0.30876 -0.93687,0.46314 -1.6497,0.46314 -0.23931,0 -0.48562,-0.0236 -0.73893,-0.0706 -0.25331,-0.0471 -0.5149,-0.11775 -0.78475,-0.21194 V 258.488 c 0.21385,0.12602 0.44806,0.22117 0.70265,0.28545 0.25458,0.0643 0.52062,0.0964 0.79811,0.0964 0.48371,0 0.85222,-0.0958 1.10553,-0.28736 0.25331,-0.19165 0.37997,-0.47014 0.37997,-0.83547 0,-0.33716 -0.11775,-0.60089 -0.35324,-0.79119 -0.23549,-0.19039 -0.56326,-0.28558 -0.98332,-0.28558 h -0.66447 v -0.63391 h 0.69502 c 0.37933,0 0.66955,-0.0756 0.87067,-0.22674 0.20112,-0.15115 0.30168,-0.36898 0.30168,-0.65348 0,-0.29213 -0.10374,-0.51633 -0.31123,-0.67258 -0.20748,-0.15625 -0.50471,-0.23437 -0.89167,-0.23437 -0.21131,0 -0.43789,0.0229 -0.67974,0.0687 -0.24186,0.0458 -0.5079,0.11711 -0.79812,0.21385 v -0.68737 c 0.29277,-0.0815 0.56708,-0.14257 0.82294,-0.1833 0.25586,-0.0407 0.49707,-0.0611 0.72365,-0.0611 0.58554,0 1.04889,0.13286 1.39003,0.39858 0.34114,0.26564 0.51171,0.62472 0.51171,1.07724 0,0.31521 -0.0904,0.58149 -0.27113,0.79884 -0.18076,0.21735 -0.43788,0.36799 -0.77139,0.45193 z" style="stroke-width:7.8208;fill:currentColor;fill-opacity:1"/>
      <path id="use17418" d="m 396.18881,254.21096 c -0.39715,0 -0.69565,0.19555 -0.8955,0.58666 -0.19985,0.3911 -0.29977,0.97903 -0.29977,1.76378 0,0.78221 0.0999,1.36886 0.29977,1.75997 0.19985,0.3911 0.49835,0.58665 0.8955,0.58665 0.39969,0 0.69946,-0.19555 0.89931,-0.58665 0.19985,-0.39111 0.29977,-0.97776 0.29977,-1.75997 0,-0.78475 -0.0999,-1.37268 -0.29977,-1.76378 -0.19985,-0.39111 -0.49962,-0.58666 -0.89931,-0.58666 m 0,-0.611 c 0.639,0 1.12716,0.25283 1.46449,0.7585 0.33732,0.50567 0.50598,1.23998 0.50598,2.20294 0,0.96042 -0.16866,1.69346 -0.50598,2.19912 -0.33733,0.50567 -0.82549,0.7585 -1.46449,0.7585 -0.63901,0 -1.12717,-0.25283 -1.46449,-0.7585 -0.33733,-0.50566 -0.50599,-1.2387 -0.50599,-2.19912 0,-0.96296 0.16866,-1.69727 0.50599,-2.20294 0.33732,-0.50567 0.82548,-0.7585 1.46449,-0.7585 z" style="stroke-width:7.8208;fill:currentColor;fill-opacity:1"/>
      <path transform="matrix(0.6016,0,0,-0.6016,167.401,279.90998)" d="m 433.01377,50.96 v -3.5" id="path17420"/>
      <path transform="matrix(0.6016,0,0,-0.6016,167.401,279.90998)" stroke-width="0.8" stroke-linecap="butt" stroke-linejoin="round" fill="none" stroke="currentColor" d="m 433.01377,50.96 v -3.5" id="path17422"/>
      <path id="use17424" d="m 426.10286,256.32655 c 0.36915,0.0791 0.65746,0.24368 0.86495,0.49381 0.20748,0.25005 0.31123,0.55881 0.31123,0.92629 0,0.56398 -0.19349,1.00039 -0.58045,1.30923 -0.38697,0.30876 -0.93687,0.46314 -1.6497,0.46314 -0.23931,0 -0.48562,-0.0236 -0.73893,-0.0706 -0.25331,-0.0471 -0.5149,-0.11775 -0.78475,-0.21194 V 258.488 c 0.21385,0.12602 0.44806,0.22117 0.70265,0.28545 0.25458,0.0643 0.52062,0.0964 0.79811,0.0964 0.48371,0 0.85222,-0.0958 1.10553,-0.28736 0.25331,-0.19165 0.37997,-0.47014 0.37997,-0.83547 0,-0.33716 -0.11775,-0.60089 -0.35324,-0.79119 -0.23549,-0.19039 -0.56326,-0.28558 -0.98332,-0.28558 h -0.66447 v -0.63391 h 0.69502 c 0.37933,0 0.66955,-0.0756 0.87067,-0.22674 0.20112,-0.15115 0.30168,-0.36898 0.30168,-0.65348 0,-0.29213 -0.10374,-0.51633 -0.31123,-0.67258 -0.20748,-0.15625 -0.50471,-0.23437 -0.89167,-0.23437 -0.21131,0 -0.43789,0.0229 -0.67974,0.0687 -0.24186,0.0458 -0.5079,0.11711 -0.79812,0.21385 v -0.68737 c 0.29277,-0.0815 0.56708,-0.14257 0.82294,-0.1833 0.25586,-0.0407 0.49707,-0.0611 0.72365,-0.0611 0.58554,0 1.04889,0.13286 1.39003,0.39858 0.34114,0.26564 0.51171,0.62472 0.51171,1.07724 0,0.31521 -0.0904,0.58149 -0.27113,0.79884 -0.18076,0.21735 -0.43788,0.36799 -0.77139,0.45193 z" style="stroke-width:7.8208;fill:currentColor;fill-opacity:1"/>
      <path id="use17426" d="m 428.74744,253.69925 h 3.02827 v 0.64918 h -2.3218 v 1.39767 c 0.11202,-0.0382 0.22404,-0.0668 0.33605,-0.0859 0.11202,-0.0191 0.22404,-0.0286 0.33605,-0.0286 0.63646,0 1.14054,0.17474 1.51223,0.52424 0.37169,0.34941 0.55753,0.82258 0.55753,1.4195 0,0.61474 -0.19093,1.0924 -0.57281,1.43299 -0.38187,0.3405 -0.92032,0.51075 -1.61533,0.51075 -0.23931,0 -0.48307,-0.0204 -0.73129,-0.0611 -0.24822,-0.0407 -0.50471,-0.10183 -0.76948,-0.1833 v -0.77902 c 0.22913,0.12602 0.46589,0.21989 0.71029,0.28163 0.2444,0.0617 0.5028,0.0926 0.77521,0.0926 0.44043,0 0.7892,-0.11615 1.04633,-0.34846 0.25713,-0.23238 0.3857,-0.54775 0.3857,-0.94609 0,-0.39834 -0.12857,-0.71367 -0.3857,-0.94598 -0.25713,-0.23238 -0.6059,-0.34858 -1.04633,-0.34858 -0.20622,0 -0.41179,0.0229 -0.61673,0.0687 -0.20494,0.0458 -0.41434,0.11711 -0.62819,0.21385 z" style="stroke-width:7.8208;fill:currentColor;fill-opacity:1"/>
      <path id="use17428" d="m 265.25749,265.93334 h -1.11125 l -0.32078,1.27546 h 1.11889 l 0.31314,-1.27546 m -0.57281,-2.17669 -0.39715,1.5886 h 1.11507 l 0.40097,-1.5886 h 0.611 l -0.39333,1.5886 h 1.19145 v 0.58809 h -1.34038 l -0.31314,1.27546 h 1.21436 v 0.58809 h -1.36329 l -0.39715,1.58096 h -0.611 l 0.39333,-1.58096 h -1.11889 l -0.39333,1.58096 h -0.61482 l 0.39715,-1.58096 h -1.20291 v -0.58809 h 1.3442 l 0.32078,-1.27546 h -1.22964 v -0.58809 h 1.37857 l 0.38951,-1.5886 z" style="stroke-width:7.8208;fill:currentColor;fill-opacity:1"/>
      <path id="use17430" d="M 267.81309,269.37785 Z" style="stroke-width:7.8208;fill:currentColor;fill-opacity:1"/>
      <path id="use17432" d="m 272.69445,265.58965 c -0.37679,0 -0.67465,0.14738 -0.89359,0.44214 -0.21894,0.29468 -0.32841,0.69847 -0.32841,1.21138 0,0.5129 0.10883,0.91674 0.3265,1.2115 0.21767,0.29468 0.51617,0.44202 0.8955,0.44202 0.37423,0 0.67082,-0.14798 0.88976,-0.44393 0.21895,-0.29604 0.32842,-0.69923 0.32842,-1.20959 0,-0.50782 -0.10947,-0.91034 -0.32842,-1.20756 -0.21894,-0.29731 -0.51553,-0.44596 -0.88976,-0.44596 m 0,-0.59573 c 0.611,0 1.09089,0.19894 1.43967,0.5968 0.34877,0.39779 0.52316,0.94861 0.52316,1.65245 0,0.7013 -0.17439,1.25151 -0.52316,1.65065 -0.34878,0.39906 -0.82867,0.59859 -1.43967,0.59859 -0.61355,0 -1.09408,-0.19953 -1.44158,-0.59859 -0.34751,-0.39914 -0.52126,-0.94935 -0.52126,-1.65065 0,-0.70384 0.17375,-1.25466 0.52126,-1.65245 0.3475,-0.39786 0.82803,-0.5968 1.44158,-0.5968 z" style="stroke-width:7.8208;fill:currentColor;fill-opacity:1"/>
      <path id="use17434" d="m 277.98869,263.43588 v 0.58808 h -0.6721 c -0.25204,0 -0.42706,0.0508 -0.52508,0.15228 -0.098,0.10143 -0.14702,0.28405 -0.14702,0.54787 v 0.37674 h 1.15708 v 0.5499 h -1.15708 v 3.7271 h -0.70647 v -3.7271 h -0.6721 v -0.5499 h 0.6721 v -0.29679 c 0,-0.47647 0.11075,-0.82362 0.33223,-1.04144 0.22149,-0.21783 0.57282,-0.32674 1.05398,-0.32674 z" style="stroke-width:7.8208;fill:currentColor;fill-opacity:1"/>
      <path id="use17436" d="M 277.83937,269.37785 Z" style="stroke-width:7.8208;fill:currentColor;fill-opacity:1"/>
      <path id="use17438" d="m 281.86533,264.30655 v 4.43739 h 0.93177 c 0.78666,0 1.36266,-0.17837 1.72799,-0.5351 0.36532,-0.35674 0.54799,-0.91985 0.54799,-1.68932 0,-0.76439 -0.18267,-1.32432 -0.54799,-1.67978 -0.36533,-0.35546 -0.94133,-0.53319 -1.72799,-0.53319 h -0.93177 m -0.77139,-0.63391 h 1.58478 c 1.10489,0 1.91574,0.22992 2.43254,0.68976 0.51681,0.45984 0.77521,1.17888 0.77521,2.15712 0,0.98332 -0.25967,1.70554 -0.77903,2.16666 -0.51934,0.46111 -1.32892,0.69167 -2.42872,0.69167 h -1.58478 z" style="stroke-width:7.8208;fill:currentColor;fill-opacity:1"/>
      <path id="use17440" d="m 287.08542,265.10085 h 0.70265 v 4.277 h -0.70265 v -4.277 m 0,-1.66497 h 0.70265 v 0.89358 h -0.70265 z" style="stroke-width:7.8208;fill:currentColor;fill-opacity:1"/>
      <path id="use17442" d="m 291.42481,263.43588 v 0.58808 h -0.6721 c -0.25204,0 -0.42706,0.0508 -0.52508,0.15228 -0.098,0.10143 -0.14702,0.28405 -0.14702,0.54787 v 0.37674 h 1.15708 v 0.5499 h -1.15708 v 3.7271 h -0.70647 v -3.7271 h -0.6721 v -0.5499 h 0.6721 v -0.29679 c 0,-0.47647 0.11075,-0.82362 0.33223,-1.04144 0.22149,-0.21783 0.57282,-0.32674 1.05398,-0.32674 z" style="stroke-width:7.8208;fill:currentColor;fill-opacity:1"/>
      <path id="use17444" d="m 294.17774,263.43588 v 0.58808 h -0.6721 c -0.25204,0 -0.42706,0.0508 -0.52508,0.15228 -0.098,0.10143 -0.14702,0.28405 -0.14702,0.54787 v 0.37674 h 1.15708 v 0.5499 h -1.15708 v 3.7271 h -0.70647 v -3.7271 h -0.6721 v -0.5499 h 0.6721 v -0.29679 c 0,-0.47647 0.11075,-0.82362 0.33223,-1.04144 0.22149,-0.21783 0.57282,-0.32674 1.05398,-0.32674 z" style="stroke-width:7.8208;fill:currentColor;fill-opacity:1"/>
      <path id="use17446" d="m 298.42378,267.06369 v 0.34368 h -3.23066 c 0.0306,0.48499 0.1763,0.85445 0.43725,1.1084 0.26094,0.25394 0.62436,0.38092 1.09025,0.38092 0.26986,0 0.53144,-0.0331 0.78475,-0.0993 0.25331,-0.0662 0.50471,-0.16548 0.7542,-0.29786 v 0.66446 c -0.25203,0.10692 -0.51043,0.18839 -0.7752,0.2444 -0.26477,0.056 -0.53335,0.084 -0.80576,0.084 -0.68228,0 -1.22263,-0.19889 -1.62106,-0.59668 -0.39842,-0.39786 -0.59763,-0.93595 -0.59763,-1.61425 0,-0.7013 0.18903,-1.25788 0.56708,-1.66975 0.37806,-0.41187 0.88786,-0.61781 1.52941,-0.61781 0.57536,0 1.03043,0.18557 1.36521,0.55671 0.33477,0.37105 0.50216,0.87541 0.50216,1.51306 m -0.70265,-0.20622 c -0.005,-0.38561 -0.11265,-0.6933 -0.32268,-0.92306 -0.21003,-0.22984 -0.48817,-0.34476 -0.8344,-0.34476 -0.39206,0 -0.70583,0.1111 -0.94132,0.33331 -0.23549,0.22212 -0.37106,0.5349 -0.4067,0.93833 z" style="stroke-width:7.8208;fill:currentColor;fill-opacity:1"/>
      <path id="use17448" d="m 302.05359,265.75767 c -0.0789,-0.0471 -0.16485,-0.0818 -0.25777,-0.10406 -0.0929,-0.0223 -0.19539,-0.0334 -0.30741,-0.0334 -0.39715,0 -0.70201,0.12956 -0.91459,0.38868 -0.21258,0.25904 -0.31886,0.63101 -0.31886,1.11591 v 2.25306 h -0.70647 v -4.277 h 0.70647 v 0.66446 c 0.14765,-0.26095 0.33986,-0.45475 0.57663,-0.5814 0.23676,-0.12666 0.52444,-0.18999 0.86304,-0.18999 0.0484,0 0.10183,0.003 0.16038,0.01 0.0586,0.006 0.12348,0.0159 0.19476,0.0286 z" style="stroke-width:7.8208;fill:currentColor;fill-opacity:1"/>
      <path id="use17450" d="m 306.27872,267.06369 v 0.34368 h -3.23066 c 0.0306,0.48499 0.1763,0.85445 0.43725,1.1084 0.26094,0.25394 0.62436,0.38092 1.09025,0.38092 0.26986,0 0.53144,-0.0331 0.78475,-0.0993 0.25331,-0.0662 0.50471,-0.16548 0.7542,-0.29786 v 0.66446 c -0.25203,0.10692 -0.51043,0.18839 -0.7752,0.2444 -0.26477,0.056 -0.53335,0.084 -0.80576,0.084 -0.68228,0 -1.22263,-0.19889 -1.62106,-0.59668 -0.39842,-0.39786 -0.59763,-0.93595 -0.59763,-1.61425 0,-0.7013 0.18903,-1.25788 0.56708,-1.66975 0.37806,-0.41187 0.88786,-0.61781 1.52941,-0.61781 0.57536,0 1.03043,0.18557 1.36521,0.55671 0.33477,0.37105 0.50216,0.87541 0.50216,1.51306 m -0.70265,-0.20622 c -0.005,-0.38561 -0.11265,-0.6933 -0.32268,-0.92306 -0.21003,-0.22984 -0.48817,-0.34476 -0.8344,-0.34476 -0.39206,0 -0.70583,0.1111 -0.94132,0.33331 -0.23549,0.22212 -0.37106,0.5349 -0.4067,0.93833 z" style="stroke-width:7.8208;fill:currentColor;fill-opacity:1"/>
      <path id="use17452" d="m 310.98537,266.79637 v 2.58148 h -0.70264 v -2.55856 c 0,-0.40606 -0.0789,-0.70997 -0.23677,-0.91173 -0.15784,-0.20176 -0.3946,-0.30264 -0.71028,-0.30264 -0.37933,0 -0.67847,0.12129 -0.89741,0.36386 -0.21894,0.24249 -0.32841,0.57309 -0.32841,0.9918 v 2.41727 h -0.70647 v -4.277 h 0.70647 v 0.66446 c 0.16802,-0.2584 0.36596,-0.45156 0.59381,-0.57949 0.22785,-0.12793 0.49071,-0.1919 0.78857,-0.1919 0.49135,0 0.86304,0.15244 1.11508,0.4573 0.25204,0.30486 0.37805,0.75325 0.37805,1.34515 z" style="stroke-width:7.8208;fill:currentColor;fill-opacity:1"/>
      <path id="use17454" d="m 313.08356,263.88649 v 1.21436 h 1.44731 v 0.5499 h -1.44731 v 2.31894 c 0,0.34838 0.0477,0.57217 0.1432,0.67138 0.0955,0.0991 0.28959,0.14869 0.58236,0.14869 h 0.72175 v 0.58809 h -0.72175 c -0.54226,0 -0.9165,-0.10112 -1.12271,-0.30335 -0.20621,-0.20232 -0.30932,-0.57059 -0.30932,-1.10481 v -2.31894 h -0.51553 v -0.5499 h 0.51553 v -1.21436 z" style="stroke-width:7.8208;fill:currentColor;fill-opacity:1"/>
      <path id="use17456" d="M 314.7173,269.37785 Z" style="stroke-width:7.8208;fill:currentColor;fill-opacity:1"/>
      <path id="use17458" d="m 320.67553,266.70091 c 0.16548,0.0561 0.32651,0.1759 0.48308,0.35944 0.15656,0.18346 0.31377,0.43577 0.47161,0.75694 l 0.78284,1.56056 h -0.82866 l -0.72938,-1.46485 c -0.1884,-0.38251 -0.37106,-0.63622 -0.548,-0.76112 -0.17693,-0.12499 -0.41815,-0.18748 -0.72365,-0.18748 h -0.84012 v 2.41345 h -0.77139 v -5.70521 h 1.74135 c 0.65173,0 1.13799,0.1362 1.45876,0.4086 0.32078,0.27241 0.48116,0.68356 0.48116,1.23346 0,0.35896 -0.0834,0.65683 -0.25012,0.89359 -0.16676,0.23676 -0.40925,0.40097 -0.72748,0.49262 m -1.93228,-2.39436 v 2.02394 h 0.96996 c 0.37169,0 0.65237,-0.0859 0.84203,-0.25777 0.18967,-0.17184 0.2845,-0.42452 0.2845,-0.75802 0,-0.3335 -0.0948,-0.58491 -0.2845,-0.7542 -0.18966,-0.1693 -0.47034,-0.25395 -0.84203,-0.25395 z" style="stroke-width:7.8208;fill:currentColor;fill-opacity:1"/>
      <path id="use17460" d="m 326.68732,267.06369 v 0.34368 h -3.23066 c 0.0306,0.48499 0.1763,0.85445 0.43725,1.1084 0.26094,0.25394 0.62436,0.38092 1.09025,0.38092 0.26986,0 0.53144,-0.0331 0.78475,-0.0993 0.25331,-0.0662 0.50471,-0.16548 0.7542,-0.29786 v 0.66446 c -0.25203,0.10692 -0.51043,0.18839 -0.7752,0.2444 -0.26477,0.056 -0.53335,0.084 -0.80576,0.084 -0.68228,0 -1.22263,-0.19889 -1.62106,-0.59668 -0.39842,-0.39786 -0.59763,-0.93595 -0.59763,-1.61425 0,-0.7013 0.18903,-1.25788 0.56708,-1.66975 0.37806,-0.41187 0.88786,-0.61781 1.52941,-0.61781 0.57536,0 1.03043,0.18557 1.36521,0.55671 0.33477,0.37105 0.50216,0.87541 0.50216,1.51306 m -0.70265,-0.20622 c -0.005,-0.38561 -0.11265,-0.6933 -0.32268,-0.92306 -0.21003,-0.22984 -0.48817,-0.34476 -0.8344,-0.34476 -0.39206,0 -0.70583,0.1111 -0.94132,0.33331 -0.23549,0.22212 -0.37106,0.5349 -0.4067,0.93833 z" style="stroke-width:7.8208;fill:currentColor;fill-opacity:1"/>
      <path id="use17462" d="m 328.53379,263.88649 v 1.21436 h 1.44731 v 0.5499 h -1.44731 v 2.31894 c 0,0.34838 0.0477,0.57217 0.1432,0.67138 0.0955,0.0991 0.28959,0.14869 0.58236,0.14869 h 0.72175 v 0.58809 h -0.72175 c -0.54226,0 -0.9165,-0.10112 -1.12271,-0.30335 -0.20621,-0.20232 -0.30932,-0.57059 -0.30932,-1.10481 v -2.31894 h -0.51553 v -0.5499 h 0.51553 v -1.21436 z" style="stroke-width:7.8208;fill:currentColor;fill-opacity:1"/>
      <path id="use17464" d="m 333.38288,265.75767 c -0.0789,-0.0471 -0.16485,-0.0818 -0.25777,-0.10406 -0.0929,-0.0223 -0.19539,-0.0334 -0.30741,-0.0334 -0.39715,0 -0.70201,0.12956 -0.91459,0.38868 -0.21258,0.25904 -0.31886,0.63101 -0.31886,1.11591 v 2.25306 h -0.70647 v -4.277 h 0.70647 v 0.66446 c 0.14765,-0.26095 0.33986,-0.45475 0.57663,-0.5814 0.23676,-0.12666 0.52444,-0.18999 0.86304,-0.18999 0.0484,0 0.10183,0.003 0.16038,0.01 0.0586,0.006 0.12348,0.0159 0.19476,0.0286 z" style="stroke-width:7.8208;fill:currentColor;fill-opacity:1"/>
      <path id="use17466" d="m 334.11887,265.10085 h 0.70265 v 4.277 h -0.70265 v -4.277 m 0,-1.66497 h 0.70265 v 0.89358 h -0.70265 z" style="stroke-width:7.8208;fill:currentColor;fill-opacity:1"/>
      <path id="use17468" d="m 339.95142,267.06369 v 0.34368 h -3.23066 c 0.0306,0.48499 0.1763,0.85445 0.43725,1.1084 0.26094,0.25394 0.62436,0.38092 1.09025,0.38092 0.26986,0 0.53144,-0.0331 0.78475,-0.0993 0.25331,-0.0662 0.50471,-0.16548 0.7542,-0.29786 v 0.66446 c -0.25203,0.10692 -0.51043,0.18839 -0.7752,0.2444 -0.26477,0.056 -0.53335,0.084 -0.80576,0.084 -0.68228,0 -1.22263,-0.19889 -1.62106,-0.59668 -0.39842,-0.39786 -0.59763,-0.93595 -0.59763,-1.61425 0,-0.7013 0.18903,-1.25788 0.56708,-1.66975 0.37806,-0.41187 0.88786,-0.61781 1.52941,-0.61781 0.57536,0 1.03043,0.18557 1.36521,0.55671 0.33477,0.37105 0.50216,0.87541 0.50216,1.51306 m -0.70265,-0.20622 c -0.005,-0.38561 -0.11265,-0.6933 -0.32268,-0.92306 -0.21003,-0.22984 -0.48817,-0.34476 -0.8344,-0.34476 -0.39206,0 -0.70583,0.1111 -0.94132,0.33331 -0.23549,0.22212 -0.37106,0.5349 -0.4067,0.93833 z" style="stroke-width:7.8208;fill:currentColor;fill-opacity:1"/>
      <path id="use17470" d="m 340.59874,265.10085 h 0.74466 l 1.33656,3.58962 1.33657,-3.58962 h 0.74465 l -1.60387,4.277 h -0.95469 z" style="stroke-width:7.8208;fill:currentColor;fill-opacity:1"/>
      <path id="use17472" d="m 349.39112,267.06369 v 0.34368 h -3.23066 c 0.0306,0.48499 0.1763,0.85445 0.43725,1.1084 0.26094,0.25394 0.62436,0.38092 1.09025,0.38092 0.26986,0 0.53144,-0.0331 0.78475,-0.0993 0.25331,-0.0662 0.50471,-0.16548 0.7542,-0.29786 v 0.66446 c -0.25203,0.10692 -0.51043,0.18839 -0.7752,0.2444 -0.26477,0.056 -0.53335,0.084 -0.80576,0.084 -0.68228,0 -1.22263,-0.19889 -1.62106,-0.59668 -0.39842,-0.39786 -0.59763,-0.93595 -0.59763,-1.61425 0,-0.7013 0.18903,-1.25788 0.56708,-1.66975 0.37806,-0.41187 0.88786,-0.61781 1.52941,-0.61781 0.57536,0 1.03043,0.18557 1.36521,0.55671 0.33477,0.37105 0.50216,0.87541 0.50216,1.51306 m -0.70265,-0.20622 c -0.005,-0.38561 -0.11265,-0.6933 -0.32268,-0.92306 -0.21003,-0.22984 -0.48817,-0.34476 -0.8344,-0.34476 -0.39206,0 -0.70583,0.1111 -0.94132,0.33331 -0.23549,0.22212 -0.37106,0.5349 -0.4067,0.93833 z" style="stroke-width:7.8208;fill:currentColor;fill-opacity:1"/>
      <path id="use17474" d="m 353.35694,265.75004 v -2.31416 h 0.70265 v 5.94197 h -0.70265 v -0.64155 c -0.14766,0.25586 -0.33414,0.44584 -0.55945,0.56995 -0.22531,0.12411 -0.4958,0.18616 -0.81148,0.18616 -0.51681,0 -0.93751,-0.20657 -1.2621,-0.61971 -0.32459,-0.41314 -0.48689,-0.95632 -0.48689,-1.62953 0,-0.67322 0.1623,-1.21639 0.48689,-1.62953 0.32459,-0.41314 0.74529,-0.61972 1.2621,-0.61972 0.31568,0 0.58617,0.0621 0.81148,0.18617 0.22531,0.12411 0.41179,0.31409 0.55945,0.56995 m -2.39436,1.49313 c 0,0.518 0.10629,0.92437 0.31887,1.21913 0.21257,0.29468 0.50471,0.44202 0.8764,0.44202 0.37169,0 0.66446,-0.14734 0.87831,-0.44202 0.21385,-0.29476 0.32078,-0.70113 0.32078,-1.21913 0,-0.518 -0.10693,-0.92434 -0.32078,-1.21902 -0.21385,-0.29476 -0.50662,-0.44214 -0.87831,-0.44214 -0.37169,0 -0.66383,0.14738 -0.8764,0.44214 -0.21258,0.29468 -0.31887,0.70102 -0.31887,1.21902 z" style="stroke-width:7.8208;fill:currentColor;fill-opacity:1"/>
      <path id="use17476" d="M 354.77174,269.37785 Z" style="stroke-width:7.8208;fill:currentColor;fill-opacity:1"/>
      <path id="use17478" d="m 358.7977,266.65126 v 2.09268 h 1.23727 c 0.41497,0 0.72238,-0.0861 0.92223,-0.25825 0.19985,-0.17216 0.29977,-0.43549 0.29977,-0.79 0,-0.35705 -0.0999,-0.62039 -0.29977,-0.79 -0.19985,-0.16962 -0.50726,-0.25443 -0.92223,-0.25443 h -1.23727 m 0,-2.34471 v 1.71844 h 1.1418 c 0.37679,0 0.65746,-0.0707 0.84204,-0.21194 0.18457,-0.1413 0.27686,-0.35706 0.27686,-0.64728 0,-0.28768 -0.0923,-0.5028 -0.27686,-0.64537 -0.18458,-0.14257 -0.46525,-0.21385 -0.84204,-0.21385 h -1.1418 m -0.77139,-0.63391 h 1.97047 c 0.58809,0 1.04125,0.1222 1.35948,0.3666 0.31823,0.2444 0.47734,0.5919 0.47734,1.04252 0,0.34878 -0.0815,0.62627 -0.2444,0.83248 -0.16293,0.20622 -0.40224,0.33478 -0.71792,0.3857 0.37933,0.0815 0.67401,0.25168 0.88404,0.5104 0.21003,0.25872 0.31505,0.5818 0.31505,0.96924 0,0.50981 -0.17312,0.90366 -0.51936,1.18155 -0.34623,0.27781 -0.83885,0.41672 -1.47785,0.41672 h -2.04685 z" style="stroke-width:7.8208;fill:currentColor;fill-opacity:1"/>
      <path id="use17480" d="m 363.36082,263.43588 h 0.70265 v 5.94197 h -0.70265 z" style="stroke-width:7.8208;fill:currentColor;fill-opacity:1"/>
      <path id="use17482" d="m 367.19236,265.58965 c -0.37679,0 -0.67465,0.14738 -0.89359,0.44214 -0.21894,0.29468 -0.32841,0.69847 -0.32841,1.21138 0,0.5129 0.10883,0.91674 0.3265,1.2115 0.21767,0.29468 0.51617,0.44202 0.8955,0.44202 0.37423,0 0.67082,-0.14798 0.88976,-0.44393 0.21895,-0.29604 0.32842,-0.69923 0.32842,-1.20959 0,-0.50782 -0.10947,-0.91034 -0.32842,-1.20756 -0.21894,-0.29731 -0.51553,-0.44596 -0.88976,-0.44596 m 0,-0.59573 c 0.611,0 1.09089,0.19894 1.43967,0.5968 0.34877,0.39779 0.52316,0.94861 0.52316,1.65245 0,0.7013 -0.17439,1.25151 -0.52316,1.65065 -0.34878,0.39906 -0.82867,0.59859 -1.43967,0.59859 -0.61355,0 -1.09408,-0.19953 -1.44158,-0.59859 -0.34751,-0.39914 -0.52126,-0.94935 -0.52126,-1.65065 0,-0.70384 0.17375,-1.25466 0.52126,-1.65245 0.3475,-0.39786 0.82803,-0.5968 1.44158,-0.5968 z" style="stroke-width:7.8208;fill:currentColor;fill-opacity:1"/>
      <path id="use17484" d="m 373.39926,265.26124 v 0.65682 c -0.19857,-0.10947 -0.39778,-0.19157 -0.59763,-0.24631 -0.19985,-0.0547 -0.40161,-0.0821 -0.60527,-0.0821 -0.45571,0 -0.80958,0.14483 -1.06162,0.4345 -0.25204,0.28959 -0.37805,0.69593 -0.37805,1.21902 0,0.52309 0.12602,0.92947 0.37805,1.21913 0.25204,0.28959 0.60591,0.43439 1.06162,0.43439 0.20366,0 0.40542,-0.0274 0.60527,-0.0821 0.19985,-0.0547 0.39906,-0.13683 0.59763,-0.24631 v 0.64919 c -0.19603,0.0916 -0.39906,0.16039 -0.60909,0.20622 -0.21003,0.0458 -0.43343,0.0687 -0.67019,0.0687 -0.6441,0 -1.15581,-0.20271 -1.53514,-0.60813 -0.37933,-0.40551 -0.56899,-0.95254 -0.56899,-1.64111 0,-0.69875 0.19157,-1.2483 0.57472,-1.64863 0.38315,-0.40041 0.90823,-0.60062 1.57524,-0.60062 0.21639,0 0.4277,0.0223 0.63391,0.0668 0.20621,0.0446 0.40606,0.11138 0.59954,0.20049 z" style="stroke-width:7.8208;fill:currentColor;fill-opacity:1"/>
      <path id="use17486" d="m 374.59604,263.43588 h 0.70647 v 3.50943 l 2.09649,-1.84446 h 0.89741 l -2.26834,2.00102 2.36381,2.27598 h -0.9165 l -2.17287,-2.08886 v 2.08886 h -0.70647 z" style="stroke-width:7.8208;fill:currentColor;fill-opacity:1"/>
      <path id="use17488" d="m 381.87761,265.22305 v 0.66446 c -0.19858,-0.10183 -0.40479,-0.17821 -0.61864,-0.22912 -0.21385,-0.0509 -0.43534,-0.0764 -0.66446,-0.0764 -0.34878,0 -0.61037,0.0536 -0.78476,0.16074 -0.17439,0.10717 -0.26158,0.26791 -0.26158,0.48224 0,0.16325 0.0624,0.29146 0.18712,0.38462 0.12474,0.0932 0.37551,0.18183 0.75229,0.266 l 0.24058,0.0537 c 0.49899,0.10709 0.85349,0.25821 1.06352,0.45336 0.21004,0.19508 0.31505,0.46732 0.31505,0.81674 0,0.39786 -0.1572,0.71283 -0.47161,0.9449 -0.31441,0.23207 -0.74657,0.3481 -1.29647,0.3481 -0.22912,0 -0.4678,-0.0223 -0.71602,-0.0668 -0.24821,-0.0446 -0.5098,-0.11138 -0.78475,-0.20048 v -0.72556 c 0.25968,0.13493 0.51553,0.23612 0.76757,0.30359 0.25204,0.0675 0.50153,0.10119 0.74848,0.10119 0.33095,0 0.58554,-0.0568 0.76375,-0.17029 0.1782,-0.11353 0.26731,-0.27359 0.26731,-0.48021 0,-0.19133 -0.0643,-0.33803 -0.19285,-0.44011 -0.12856,-0.10207 -0.41051,-0.20028 -0.84585,-0.29464 l -0.2444,-0.0574 c -0.43534,-0.0918 -0.74975,-0.23271 -0.94323,-0.42269 -0.19349,-0.19007 -0.29023,-0.4509 -0.29023,-0.78249 0,-0.40304 0.14257,-0.71423 0.4277,-0.93357 0.28513,-0.21934 0.68992,-0.32901 1.21436,-0.32901 0.25968,0 0.50408,0.0191 0.7332,0.0573 0.22913,0.0382 0.44043,0.0955 0.63392,0.17185 z" style="stroke-width:7.8208;fill:currentColor;fill-opacity:1"/>
      <path transform="matrix(0.6016,0,0,-0.6016,167.401,279.90998)" d="M 66.8,50.96 H 63.3" id="path17490"/>
      <path transform="matrix(0.6016,0,0,-0.6016,167.401,279.90998)" stroke-width="0.8" stroke-linecap="butt" stroke-linejoin="round" fill="none" stroke="currentColor" d="M 66.8,50.96 H 63.3" id="path17492"/>
      <path id="use17494" d="m 188.45389,247.02934 c -0.39715,0 -0.69565,0.19555 -0.8955,0.58666 -0.19985,0.3911 -0.29977,0.97903 -0.29977,1.76378 0,0.78221 0.0999,1.36886 0.29977,1.75997 0.19985,0.3911 0.49835,0.58665 0.8955,0.58665 0.39969,0 0.69946,-0.19555 0.89931,-0.58665 0.19985,-0.39111 0.29977,-0.97776 0.29977,-1.75997 0,-0.78475 -0.0999,-1.37268 -0.29977,-1.76378 -0.19985,-0.39111 -0.49962,-0.58666 -0.89931,-0.58666 m 0,-0.611 c 0.639,0 1.12716,0.25283 1.46449,0.7585 0.33732,0.50567 0.50598,1.23998 0.50598,2.20294 0,0.96042 -0.16866,1.69346 -0.50598,2.19912 -0.33733,0.50567 -0.82549,0.7585 -1.46449,0.7585 -0.63901,0 -1.12717,-0.25283 -1.46449,-0.7585 -0.33733,-0.50566 -0.50599,-1.2387 -0.50599,-2.19912 0,-0.96296 0.16866,-1.69727 0.50599,-2.20294 0.33732,-0.50567 0.82548,-0.7585 1.46449,-0.7585 z" style="stroke-width:7.8208;fill:currentColor;fill-opacity:1"/>
      <path id="use17496" d="m 191.77822,251.25288 h 0.80575 v 0.96996 h -0.80575 z" style="stroke-width:7.8208;fill:currentColor;fill-opacity:1"/>
      <path id="use17498" d="m 195.91494,247.02934 c -0.39715,0 -0.69565,0.19555 -0.8955,0.58666 -0.19985,0.3911 -0.29977,0.97903 -0.29977,1.76378 0,0.78221 0.0999,1.36886 0.29977,1.75997 0.19985,0.3911 0.49835,0.58665 0.8955,0.58665 0.39969,0 0.69946,-0.19555 0.89931,-0.58665 0.19985,-0.39111 0.29977,-0.97776 0.29977,-1.75997 0,-0.78475 -0.0999,-1.37268 -0.29977,-1.76378 -0.19985,-0.39111 -0.49962,-0.58666 -0.89931,-0.58666 m 0,-0.611 c 0.639,0 1.12716,0.25283 1.46449,0.7585 0.33732,0.50567 0.50598,1.23998 0.50598,2.20294 0,0.96042 -0.16866,1.69346 -0.50598,2.19912 -0.33733,0.50567 -0.82549,0.7585 -1.46449,0.7585 -0.63901,0 -1.12717,-0.25283 -1.46449,-0.7585 -0.33733,-0.50566 -0.50599,-1.2387 -0.50599,-2.19912 0,-0.96296 0.16866,-1.69727 0.50599,-2.20294 0.33732,-0.50567 0.82548,-0.7585 1.46449,-0.7585 z" style="stroke-width:7.8208;fill:currentColor;fill-opacity:1"/>
      <path id="use17500" d="m 200.88897,247.02934 c -0.39715,0 -0.69565,0.19555 -0.8955,0.58666 -0.19985,0.3911 -0.29977,0.97903 -0.29977,1.76378 0,0.78221 0.0999,1.36886 0.29977,1.75997 0.19985,0.3911 0.49835,0.58665 0.8955,0.58665 0.39969,0 0.69946,-0.19555 0.89931,-0.58665 0.19985,-0.39111 0.29977,-0.97776 0.29977,-1.75997 0,-0.78475 -0.0999,-1.37268 -0.29977,-1.76378 -0.19985,-0.39111 -0.49962,-0.58666 -0.89931,-0.58666 m 0,-0.611 c 0.639,0 1.12716,0.25283 1.46449,0.7585 0.33732,0.50567 0.50598,1.23998 0.50598,2.20294 0,0.96042 -0.16866,1.69346 -0.50598,2.19912 -0.33733,0.50567 -0.82549,0.7585 -1.46449,0.7585 -0.63901,0 -1.12717,-0.25283 -1.46449,-0.7585 -0.33733,-0.50566 -0.50599,-1.2387 -0.50599,-2.19912 0,-0.96296 0.16866,-1.69727 0.50599,-2.20294 0.33732,-0.50567 0.82548,-0.7585 1.46449,-0.7585 z" style="stroke-width:7.8208;fill:currentColor;fill-opacity:1"/>
      <path transform="matrix(0.6016,0,0,-0.6016,167.401,279.90998)" d="M 66.8,96.29917 H 63.3" id="path17502"/>
      <path transform="matrix(0.6016,0,0,-0.6016,167.401,279.90998)" stroke-width="0.8" stroke-linecap="butt" stroke-linejoin="round" fill="none" stroke="currentColor" d="M 66.8,96.29917 H 63.3" id="path17504"/>
      <path id="use17506" d="m 188.45389,219.7533 c -0.39715,0 -0.69565,0.19555 -0.8955,0.58666 -0.19985,0.3911 -0.29977,0.97903 -0.29977,1.76378 0,0.78221 0.0999,1.36886 0.29977,1.75997 0.19985,0.3911 0.49835,0.58665 0.8955,0.58665 0.39969,0 0.69946,-0.19555 0.89931,-0.58665 0.19985,-0.39111 0.29977,-0.97776 0.29977,-1.75997 0,-0.78475 -0.0999,-1.37268 -0.29977,-1.76378 -0.19985,-0.39111 -0.49962,-0.58666 -0.89931,-0.58666 m 0,-0.611 c 0.639,0 1.12716,0.25283 1.46449,0.7585 0.33732,0.50567 0.50598,1.23998 0.50598,2.20294 0,0.96042 -0.16866,1.69346 -0.50598,2.19912 -0.33733,0.50567 -0.82549,0.7585 -1.46449,0.7585 -0.63901,0 -1.12717,-0.25283 -1.46449,-0.7585 -0.33733,-0.50566 -0.50599,-1.2387 -0.50599,-2.19912 0,-0.96296 0.16866,-1.69727 0.50599,-2.20294 0.33732,-0.50567 0.82548,-0.7585 1.46449,-0.7585 z" style="stroke-width:7.8208;fill:currentColor;fill-opacity:1"/>
      <path id="use17508" d="m 191.77822,223.97684 h 0.80575 v 0.96996 h -0.80575 z" style="stroke-width:7.8208;fill:currentColor;fill-opacity:1"/>
      <path id="use17510" d="m 195.91494,219.7533 c -0.39715,0 -0.69565,0.19555 -0.8955,0.58666 -0.19985,0.3911 -0.29977,0.97903 -0.29977,1.76378 0,0.78221 0.0999,1.36886 0.29977,1.75997 0.19985,0.3911 0.49835,0.58665 0.8955,0.58665 0.39969,0 0.69946,-0.19555 0.89931,-0.58665 0.19985,-0.39111 0.29977,-0.97776 0.29977,-1.75997 0,-0.78475 -0.0999,-1.37268 -0.29977,-1.76378 -0.19985,-0.39111 -0.49962,-0.58666 -0.89931,-0.58666 m 0,-0.611 c 0.639,0 1.12716,0.25283 1.46449,0.7585 0.33732,0.50567 0.50598,1.23998 0.50598,2.20294 0,0.96042 -0.16866,1.69346 -0.50598,2.19912 -0.33733,0.50567 -0.82549,0.7585 -1.46449,0.7585 -0.63901,0 -1.12717,-0.25283 -1.46449,-0.7585 -0.33733,-0.50566 -0.50599,-1.2387 -0.50599,-2.19912 0,-0.96296 0.16866,-1.69727 0.50599,-2.20294 0.33732,-0.50567 0.82548,-0.7585 1.46449,-0.7585 z" style="stroke-width:7.8208;fill:currentColor;fill-opacity:1"/>
      <path id="use17512" d="m 199.2469,219.24159 h 3.02827 v 0.64918 h -2.3218 v 1.39767 c 0.11202,-0.0382 0.22404,-0.0668 0.33605,-0.0859 0.11202,-0.0191 0.22404,-0.0286 0.33605,-0.0286 0.63646,0 1.14054,0.17474 1.51223,0.52424 0.37169,0.34941 0.55753,0.82258 0.55753,1.4195 0,0.61474 -0.19093,1.0924 -0.57281,1.43299 -0.38187,0.3405 -0.92032,0.51075 -1.61533,0.51075 -0.23931,0 -0.48307,-0.0204 -0.73129,-0.0611 -0.24822,-0.0407 -0.50471,-0.10183 -0.76948,-0.1833 V 224.038 c 0.22913,0.12602 0.46589,0.21989 0.71029,0.28163 0.2444,0.0617 0.5028,0.0926 0.77521,0.0926 0.44043,0 0.7892,-0.11615 1.04633,-0.34846 0.25713,-0.23238 0.3857,-0.54775 0.3857,-0.94609 0,-0.39834 -0.12857,-0.71367 -0.3857,-0.94598 -0.25713,-0.23238 -0.6059,-0.34858 -1.04633,-0.34858 -0.20622,0 -0.41179,0.0229 -0.61673,0.0687 -0.20494,0.0458 -0.41434,0.11711 -0.62819,0.21385 z" style="stroke-width:7.8208;fill:currentColor;fill-opacity:1"/>
      <path transform="matrix(0.6016,0,0,-0.6016,167.401,279.90998)" d="M 66.8,141.63835 H 63.3" id="path17514"/>
      <path transform="matrix(0.6016,0,0,-0.6016,167.401,279.90998)" stroke-width="0.8" stroke-linecap="butt" stroke-linejoin="round" fill="none" stroke="currentColor" d="M 66.8,141.63835 H 63.3" id="path17516"/>
      <path id="use17518" d="m 188.45389,192.47725 c -0.39715,0 -0.69565,0.19555 -0.8955,0.58666 -0.19985,0.3911 -0.29977,0.97903 -0.29977,1.76378 0,0.78221 0.0999,1.36886 0.29977,1.75997 0.19985,0.3911 0.49835,0.58665 0.8955,0.58665 0.39969,0 0.69946,-0.19555 0.89931,-0.58665 0.19985,-0.39111 0.29977,-0.97776 0.29977,-1.75997 0,-0.78475 -0.0999,-1.37268 -0.29977,-1.76378 -0.19985,-0.39111 -0.49962,-0.58666 -0.89931,-0.58666 m 0,-0.611 c 0.639,0 1.12716,0.25283 1.46449,0.7585 0.33732,0.50567 0.50598,1.23998 0.50598,2.20294 0,0.96042 -0.16866,1.69346 -0.50598,2.19912 -0.33733,0.50567 -0.82549,0.7585 -1.46449,0.7585 -0.63901,0 -1.12717,-0.25283 -1.46449,-0.7585 -0.33733,-0.50566 -0.50599,-1.2387 -0.50599,-2.19912 0,-0.96296 0.16866,-1.69727 0.50599,-2.20294 0.33732,-0.50567 0.82548,-0.7585 1.46449,-0.7585 z" style="stroke-width:7.8208;fill:currentColor;fill-opacity:1"/>
      <path id="use17520" d="m 191.77822,196.70079 h 0.80575 v 0.96996 h -0.80575 z" style="stroke-width:7.8208;fill:currentColor;fill-opacity:1"/>
      <path id="use17522" d="m 194.39889,197.02156 h 1.26019 v -4.35337 l -1.37093,0.27495 v -0.70265 l 1.36329,-0.27495 h 0.77139 v 5.05602 h 1.26019 v 0.64919 h -3.28413 z" style="stroke-width:7.8208;fill:currentColor;fill-opacity:1"/>
      <path id="use17524" d="m 200.88897,192.47725 c -0.39715,0 -0.69565,0.19555 -0.8955,0.58666 -0.19985,0.3911 -0.29977,0.97903 -0.29977,1.76378 0,0.78221 0.0999,1.36886 0.29977,1.75997 0.19985,0.3911 0.49835,0.58665 0.8955,0.58665 0.39969,0 0.69946,-0.19555 0.89931,-0.58665 0.19985,-0.39111 0.29977,-0.97776 0.29977,-1.75997 0,-0.78475 -0.0999,-1.37268 -0.29977,-1.76378 -0.19985,-0.39111 -0.49962,-0.58666 -0.89931,-0.58666 m 0,-0.611 c 0.639,0 1.12716,0.25283 1.46449,0.7585 0.33732,0.50567 0.50598,1.23998 0.50598,2.20294 0,0.96042 -0.16866,1.69346 -0.50598,2.19912 -0.33733,0.50567 -0.82549,0.7585 -1.46449,0.7585 -0.63901,0 -1.12717,-0.25283 -1.46449,-0.7585 -0.33733,-0.50566 -0.50599,-1.2387 -0.50599,-2.19912 0,-0.96296 0.16866,-1.69727 0.50599,-2.20294 0.33732,-0.50567 0.82548,-0.7585 1.46449,-0.7585 z" style="stroke-width:7.8208;fill:currentColor;fill-opacity:1"/>
      <path transform="matrix(0.6016,0,0,-0.6016,167.401,279.90998)" d="M 66.8,186.97753 H 63.3" id="path17526"/>
      <path transform="matrix(0.6016,0,0,-0.6016,167.401,279.90998)" stroke-width="0.8" stroke-linecap="butt" stroke-linejoin="round" fill="none" stroke="currentColor" d="M 66.8,186.97753 H 63.3" id="path17528"/>
      <path id="use17530" d="m 188.45389,165.2012 c -0.39715,0 -0.69565,0.19555 -0.8955,0.58666 -0.19985,0.3911 -0.29977,0.97903 -0.29977,1.76378 0,0.78221 0.0999,1.36886 0.29977,1.75997 0.19985,0.3911 0.49835,0.58665 0.8955,0.58665 0.39969,0 0.69946,-0.19555 0.89931,-0.58665 0.19985,-0.39111 0.29977,-0.97776 0.29977,-1.75997 0,-0.78475 -0.0999,-1.37268 -0.29977,-1.76378 -0.19985,-0.39111 -0.49962,-0.58666 -0.89931,-0.58666 m 0,-0.611 c 0.639,0 1.12716,0.25283 1.46449,0.7585 0.33732,0.50567 0.50598,1.23998 0.50598,2.20294 0,0.96042 -0.16866,1.69346 -0.50598,2.19912 -0.33733,0.50567 -0.82549,0.7585 -1.46449,0.7585 -0.63901,0 -1.12717,-0.25283 -1.46449,-0.7585 -0.33733,-0.50566 -0.50599,-1.2387 -0.50599,-2.19912 0,-0.96296 0.16866,-1.69727 0.50599,-2.20294 0.33732,-0.50567 0.82548,-0.7585 1.46449,-0.7585 z" style="stroke-width:7.8208;fill:currentColor;fill-opacity:1"/>
      <path id="use17532" d="m 191.77822,169.42474 h 0.80575 v 0.96996 h -0.80575 z" style="stroke-width:7.8208;fill:currentColor;fill-opacity:1"/>
      <path id="use17534" d="m 194.39889,169.74551 h 1.26019 v -4.35337 l -1.37093,0.27495 v -0.70265 l 1.36329,-0.27495 h 0.77139 v 5.05602 h 1.26019 v 0.64919 h -3.28413 z" style="stroke-width:7.8208;fill:currentColor;fill-opacity:1"/>
      <path id="use17536" d="m 199.2469,164.68949 h 3.02827 v 0.64918 h -2.3218 v 1.39767 c 0.11202,-0.0382 0.22404,-0.0668 0.33605,-0.0859 0.11202,-0.0191 0.22404,-0.0286 0.33605,-0.0286 0.63646,0 1.14054,0.17474 1.51223,0.52424 0.37169,0.34941 0.55753,0.82258 0.55753,1.4195 0,0.61474 -0.19093,1.0924 -0.57281,1.43299 -0.38187,0.3405 -0.92032,0.51075 -1.61533,0.51075 -0.23931,0 -0.48307,-0.0204 -0.73129,-0.0611 -0.24822,-0.0407 -0.50471,-0.10183 -0.76948,-0.1833 v -0.77902 c 0.22913,0.12602 0.46589,0.21989 0.71029,0.28163 0.2444,0.0617 0.5028,0.0926 0.77521,0.0926 0.44043,0 0.7892,-0.11615 1.04633,-0.34846 0.25713,-0.23238 0.3857,-0.54775 0.3857,-0.94609 0,-0.39834 -0.12857,-0.71367 -0.3857,-0.94598 -0.25713,-0.23238 -0.6059,-0.34858 -1.04633,-0.34858 -0.20622,0 -0.41179,0.0229 -0.61673,0.0687 -0.20494,0.0458 -0.41434,0.11711 -0.62819,0.21385 z" style="stroke-width:7.8208;fill:currentColor;fill-opacity:1"/>
      <path transform="matrix(0.6016,0,0,-0.6016,167.401,279.90998)" d="M 66.8,232.3167 H 63.3" id="path17538"/>
      <path transform="matrix(0.6016,0,0,-0.6016,167.401,279.90998)" stroke-width="0.8" stroke-linecap="butt" stroke-linejoin="round" fill="none" stroke="currentColor" d="M 66.8,232.3167 H 63.3" id="path17540"/>
      <path id="use17542" d="m 188.45389,137.92515 c -0.39715,0 -0.69565,0.19555 -0.8955,0.58666 -0.19985,0.3911 -0.29977,0.97903 -0.29977,1.76378 0,0.78221 0.0999,1.36886 0.29977,1.75997 0.19985,0.3911 0.49835,0.58665 0.8955,0.58665 0.39969,0 0.69946,-0.19555 0.89931,-0.58665 0.19985,-0.39111 0.29977,-0.97776 0.29977,-1.75997 0,-0.78475 -0.0999,-1.37268 -0.29977,-1.76378 -0.19985,-0.39111 -0.49962,-0.58666 -0.89931,-0.58666 m 0,-0.611 c 0.639,0 1.12716,0.25283 1.46449,0.7585 0.33732,0.50567 0.50598,1.23998 0.50598,2.20294 0,0.96042 -0.16866,1.69346 -0.50598,2.19912 -0.33733,0.50567 -0.82549,0.7585 -1.46449,0.7585 -0.63901,0 -1.12717,-0.25283 -1.46449,-0.7585 -0.33733,-0.50566 -0.50599,-1.2387 -0.50599,-2.19912 0,-0.96296 0.16866,-1.69727 0.50599,-2.20294 0.33732,-0.50567 0.82548,-0.7585 1.46449,-0.7585 z" style="stroke-width:7.8208;fill:currentColor;fill-opacity:1"/>
      <path id="use17544" d="m 191.77822,142.14869 h 0.80575 v 0.96996 h -0.80575 z" style="stroke-width:7.8208;fill:currentColor;fill-opacity:1"/>
      <path id="use17546" d="m 194.9297,142.46946 h 2.69222 v 0.64919 h -3.62018 v -0.64919 c 0.29277,-0.30295 0.69183,-0.70965 1.19718,-1.22009 0.50535,-0.51044 0.82294,-0.83949 0.95278,-0.98715 0.24694,-0.27749 0.41942,-0.51234 0.51744,-0.70455 0.098,-0.19221 0.14702,-0.38124 0.14702,-0.56709 0,-0.30295 -0.10629,-0.5499 -0.31886,-0.74084 -0.21258,-0.19093 -0.48944,-0.2864 -0.83058,-0.2864 -0.24186,0 -0.49708,0.0423 -0.76566,0.12697 -0.26859,0.0847 -0.55563,0.2129 -0.86113,0.38474 v -0.77903 c 0.31059,-0.12601 0.60082,-0.22116 0.87068,-0.28545 0.26985,-0.0643 0.5168,-0.0964 0.74083,-0.0964 0.59064,0 1.06162,0.14766 1.41294,0.44297 0.35132,0.29532 0.52699,0.68993 0.52699,1.18382 0,0.23421 -0.0439,0.45634 -0.13175,0.66637 -0.0878,0.21003 -0.24758,0.45761 -0.47925,0.74275 -0.0636,0.0738 -0.26604,0.28704 -0.60718,0.63964 -0.34115,0.35259 -0.82231,0.84585 -1.44349,1.47976 z" style="stroke-width:7.8208;fill:currentColor;fill-opacity:1"/>
      <path id="use17548" d="m 200.88897,137.92515 c -0.39715,0 -0.69565,0.19555 -0.8955,0.58666 -0.19985,0.3911 -0.29977,0.97903 -0.29977,1.76378 0,0.78221 0.0999,1.36886 0.29977,1.75997 0.19985,0.3911 0.49835,0.58665 0.8955,0.58665 0.39969,0 0.69946,-0.19555 0.89931,-0.58665 0.19985,-0.39111 0.29977,-0.97776 0.29977,-1.75997 0,-0.78475 -0.0999,-1.37268 -0.29977,-1.76378 -0.19985,-0.39111 -0.49962,-0.58666 -0.89931,-0.58666 m 0,-0.611 c 0.639,0 1.12716,0.25283 1.46449,0.7585 0.33732,0.50567 0.50598,1.23998 0.50598,2.20294 0,0.96042 -0.16866,1.69346 -0.50598,2.19912 -0.33733,0.50567 -0.82549,0.7585 -1.46449,0.7585 -0.63901,0 -1.12717,-0.25283 -1.46449,-0.7585 -0.33733,-0.50566 -0.50599,-1.2387 -0.50599,-2.19912 0,-0.96296 0.16866,-1.69727 0.50599,-2.20294 0.33732,-0.50567 0.82548,-0.7585 1.46449,-0.7585 z" style="stroke-width:7.8208;fill:currentColor;fill-opacity:1"/>
      <path transform="matrix(0.6016,0,0,-0.6016,167.401,279.90998)" d="M 66.8,277.65589 H 63.3" id="path17550"/>
      <path transform="matrix(0.6016,0,0,-0.6016,167.401,279.90998)" stroke-width="0.8" stroke-linecap="butt" stroke-linejoin="round" fill="none" stroke="currentColor" d="M 66.8,277.65589 H 63.3" id="path17552"/>
      <path id="use17554" d="m 188.45389,110.64909 c -0.39715,0 -0.69565,0.19555 -0.8955,0.58666 -0.19985,0.3911 -0.29977,0.97903 -0.29977,1.76378 0,0.78221 0.0999,1.36886 0.29977,1.75997 0.19985,0.3911 0.49835,0.58665 0.8955,0.58665 0.39969,0 0.69946,-0.19555 0.89931,-0.58665 0.19985,-0.39111 0.29977,-0.97776 0.29977,-1.75997 0,-0.78475 -0.0999,-1.37268 -0.29977,-1.76378 -0.19985,-0.39111 -0.49962,-0.58666 -0.89931,-0.58666 m 0,-0.611 c 0.639,0 1.12716,0.25283 1.46449,0.7585 0.33732,0.50567 0.50598,1.23998 0.50598,2.20294 0,0.96042 -0.16866,1.69346 -0.50598,2.19912 -0.33733,0.50567 -0.82549,0.7585 -1.46449,0.7585 -0.63901,0 -1.12717,-0.25283 -1.46449,-0.7585 -0.33733,-0.50566 -0.50599,-1.2387 -0.50599,-2.19912 0,-0.96296 0.16866,-1.69727 0.50599,-2.20294 0.33732,-0.50567 0.82548,-0.7585 1.46449,-0.7585 z" style="stroke-width:7.8208;fill:currentColor;fill-opacity:1"/>
      <path id="use17556" d="m 191.77822,114.87263 h 0.80575 v 0.96996 h -0.80575 z" style="stroke-width:7.8208;fill:currentColor;fill-opacity:1"/>
      <path id="use17558" d="m 194.9297,115.1934 h 2.69222 v 0.64919 h -3.62018 v -0.64919 c 0.29277,-0.30295 0.69183,-0.70965 1.19718,-1.22009 0.50535,-0.51044 0.82294,-0.83949 0.95278,-0.98715 0.24694,-0.27749 0.41942,-0.51234 0.51744,-0.70455 0.098,-0.19221 0.14702,-0.38124 0.14702,-0.56709 0,-0.30295 -0.10629,-0.5499 -0.31886,-0.74084 -0.21258,-0.19093 -0.48944,-0.2864 -0.83058,-0.2864 -0.24186,0 -0.49708,0.0423 -0.76566,0.12697 -0.26859,0.0846 -0.55563,0.2129 -0.86113,0.38474 v -0.77903 c 0.31059,-0.12601 0.60082,-0.22116 0.87068,-0.28545 0.26985,-0.0643 0.5168,-0.0964 0.74083,-0.0964 0.59064,0 1.06162,0.14766 1.41294,0.44297 0.35132,0.29532 0.52699,0.68993 0.52699,1.18382 0,0.23421 -0.0439,0.45634 -0.13175,0.66637 -0.0878,0.21003 -0.24758,0.45761 -0.47925,0.74275 -0.0636,0.0738 -0.26604,0.28704 -0.60718,0.63964 -0.34115,0.35259 -0.82231,0.84585 -1.44349,1.47976 z" style="stroke-width:7.8208;fill:currentColor;fill-opacity:1"/>
      <path id="use17560" d="m 199.2469,110.13738 h 3.02827 v 0.64918 h -2.3218 v 1.39767 c 0.11202,-0.0382 0.22404,-0.0668 0.33605,-0.0859 0.11202,-0.0191 0.22404,-0.0286 0.33605,-0.0286 0.63646,0 1.14054,0.17474 1.51223,0.52424 0.37169,0.34941 0.55753,0.82258 0.55753,1.4195 0,0.61474 -0.19093,1.0924 -0.57281,1.43299 -0.38187,0.3405 -0.92032,0.51075 -1.61533,0.51075 -0.23931,0 -0.48307,-0.0204 -0.73129,-0.0611 -0.24822,-0.0407 -0.50471,-0.10183 -0.76948,-0.1833 v -0.77902 c 0.22913,0.12602 0.46589,0.21989 0.71029,0.28163 0.2444,0.0617 0.5028,0.0926 0.77521,0.0926 0.44043,0 0.7892,-0.11615 1.04633,-0.34846 0.25713,-0.23238 0.3857,-0.54775 0.3857,-0.94609 0,-0.39834 -0.12857,-0.71367 -0.3857,-0.94598 -0.25713,-0.23238 -0.6059,-0.34858 -1.04633,-0.34858 -0.20622,0 -0.41179,0.0229 -0.61673,0.0687 -0.20494,0.0458 -0.41434,0.11711 -0.62819,0.21385 z" style="stroke-width:7.8208;fill:currentColor;fill-opacity:1"/>
      <path transform="matrix(0.6016,0,0,-0.6016,167.401,279.90998)" d="M 66.8,322.99507 H 63.3" id="path17562"/>
      <path transform="matrix(0.6016,0,0,-0.6016,167.401,279.90998)" stroke-width="0.8" stroke-linecap="butt" stroke-linejoin="round" fill="none" stroke="currentColor" d="M 66.8,322.99507 H 63.3" id="path17564"/>
      <path id="use17566" d="m 188.45389,83.37304 c -0.39715,0 -0.69565,0.195552 -0.8955,0.586655 -0.19985,0.391104 -0.29977,0.979032 -0.29977,1.763786 0,0.782207 0.0999,1.368862 0.29977,1.759966 0.19985,0.391104 0.49835,0.586656 0.8955,0.586656 0.39969,0 0.69946,-0.195552 0.89931,-0.586656 0.19985,-0.391103 0.29977,-0.977759 0.29977,-1.759966 0,-0.784754 -0.0999,-1.372682 -0.29977,-1.763786 -0.19985,-0.391103 -0.49962,-0.586655 -0.89931,-0.586655 m 0,-0.611 c 0.639,0 1.12716,0.252833 1.46449,0.758499 0.33732,0.505666 0.50598,1.23998 0.50598,2.202942 0,0.960415 -0.16866,1.693456 -0.50598,2.199122 -0.33733,0.505666 -0.82549,0.7585 -1.46449,0.7585 -0.63901,0 -1.12717,-0.252834 -1.46449,-0.7585 -0.33733,-0.505666 -0.50599,-1.238707 -0.50599,-2.199122 0,-0.962962 0.16866,-1.697276 0.50599,-2.202942 0.33732,-0.505666 0.82548,-0.758499 1.46449,-0.758499 z" style="stroke-width:7.8208;fill:currentColor;fill-opacity:1"/>
      <path id="use17568" d="m 191.77822,87.596577 h 0.80575 v 0.969963 h -0.80575 z" style="stroke-width:7.8208;fill:currentColor;fill-opacity:1"/>
      <path id="use17570" d="m 196.60231,85.488627 c 0.36915,0.07908 0.65746,0.243685 0.86495,0.493813 0.20748,0.250049 0.31123,0.55881 0.31123,0.926285 0,0.563982 -0.19349,1.000394 -0.58045,1.309235 -0.38697,0.308762 -0.93687,0.463143 -1.6497,0.463143 -0.23931,0 -0.48562,-0.02355 -0.73893,-0.07065 -0.25331,-0.0471 -0.5149,-0.117745 -0.78475,-0.211941 V 87.65004 c 0.21385,0.126019 0.44806,0.221169 0.70265,0.285452 0.25458,0.06428 0.52062,0.09642 0.79811,0.09642 0.48371,0 0.85222,-0.09579 1.10553,-0.287361 0.25331,-0.191653 0.37997,-0.470144 0.37997,-0.835471 0,-0.337164 -0.11775,-0.600896 -0.35324,-0.791197 -0.23549,-0.190381 -0.56326,-0.285571 -0.98332,-0.285571 h -0.66447 v -0.633913 h 0.69502 c 0.37933,0 0.66955,-0.07558 0.87067,-0.226738 0.20112,-0.151159 0.30168,-0.368987 0.30168,-0.653483 0,-0.292135 -0.10374,-0.516327 -0.31123,-0.672578 -0.20748,-0.15625 -0.50471,-0.234376 -0.89167,-0.234376 -0.21131,0 -0.43789,0.02291 -0.67974,0.06874 -0.24186,0.04583 -0.5079,0.117109 -0.79812,0.213851 V 83.00644 c 0.29277,-0.08147 0.56708,-0.142567 0.82294,-0.1833 0.25586,-0.04073 0.49707,-0.0611 0.72365,-0.0611 0.58554,0 1.04889,0.132861 1.39003,0.398582 0.34114,0.265642 0.51171,0.624724 0.51171,1.077245 0,0.315207 -0.0904,0.581485 -0.27113,0.798835 -0.18076,0.21735 -0.43788,0.367992 -0.77139,0.451929 z" style="stroke-width:7.8208;fill:currentColor;fill-opacity:1"/>
      <path id="use17572" d="m 200.88897,83.37304 c -0.39715,0 -0.69565,0.195552 -0.8955,0.586655 -0.19985,0.391104 -0.29977,0.979032 -0.29977,1.763786 0,0.782207 0.0999,1.368862 0.29977,1.759966 0.19985,0.391104 0.49835,0.586656 0.8955,0.586656 0.39969,0 0.69946,-0.195552 0.89931,-0.586656 0.19985,-0.391103 0.29977,-0.977759 0.29977,-1.759966 0,-0.784754 -0.0999,-1.372682 -0.29977,-1.763786 -0.19985,-0.391103 -0.49962,-0.586655 -0.89931,-0.586655 m 0,-0.611 c 0.639,0 1.12716,0.252833 1.46449,0.758499 0.33732,0.505666 0.50598,1.23998 0.50598,2.202942 0,0.960415 -0.16866,1.693456 -0.50598,2.199122 -0.33733,0.505666 -0.82549,0.7585 -1.46449,0.7585 -0.63901,0 -1.12717,-0.252834 -1.46449,-0.7585 -0.33733,-0.505666 -0.50599,-1.238707 -0.50599,-2.199122 0,-0.962962 0.16866,-1.697276 0.50599,-2.202942 0.33732,-0.505666 0.82548,-0.758499 1.46449,-0.758499 z" style="stroke-width:7.8208;fill:currentColor;fill-opacity:1"/>
      <path id="use17574" d="m 176.86397,178.17511 h 4.43739 v -0.93177 c 0,-0.78666 -0.17837,-1.36266 -0.5351,-1.72799 -0.35674,-0.36532 -0.91985,-0.54799 -1.68932,-0.54799 -0.76439,0 -1.32432,0.18267 -1.67978,0.54799 -0.35546,0.36533 -0.53319,0.94133 -0.53319,1.72799 v 0.93177 m -0.63391,0.77139 v -1.58478 c 0,-1.10489 0.22992,-1.91574 0.68976,-2.43254 0.45984,-0.51681 1.17888,-0.77521 2.15712,-0.77521 0.98332,0 1.70554,0.25967 2.16666,0.77903 0.46111,0.51934 0.69167,1.32892 0.69167,2.42872 v 1.58478 z" style="stroke-width:7.8208;fill:currentColor;fill-opacity:1"/>
      <path id="use17576" d="m 179.62111,169.29667 h 0.34368 v 3.23066 c 0.48499,-0.0306 0.85445,-0.1763 1.1084,-0.43725 0.25394,-0.26094 0.38092,-0.62436 0.38092,-1.09025 0,-0.26986 -0.0331,-0.53144 -0.0993,-0.78475 -0.0662,-0.25331 -0.16548,-0.50471 -0.29786,-0.7542 h 0.66446 c 0.10692,0.25203 0.18839,0.51043 0.2444,0.7752 0.056,0.26477 0.084,0.53335 0.084,0.80576 0,0.68228 -0.19889,1.22263 -0.59668,1.62106 -0.39786,0.39842 -0.93595,0.59763 -1.61425,0.59763 -0.7013,0 -1.25788,-0.18903 -1.66975,-0.56708 -0.41187,-0.37806 -0.61781,-0.88786 -0.61781,-1.52941 0,-0.57536 0.18557,-1.03043 0.55671,-1.36521 0.37105,-0.33477 0.87541,-0.50216 1.51306,-0.50216 m -0.20622,0.70265 c -0.38561,0.005 -0.6933,0.11265 -0.92306,0.32268 -0.22984,0.21003 -0.34476,0.48817 -0.34476,0.8344 0,0.39206 0.1111,0.70583 0.33331,0.94132 0.22212,0.23549 0.5349,0.37106 0.93833,0.4067 z" style="stroke-width:7.8208;fill:currentColor;fill-opacity:1"/>
      <path id="use17578" d="m 179.35379,164.59 h 2.58148 v 0.70264 h -2.55856 c -0.40606,0 -0.70997,0.0789 -0.91173,0.23677 -0.20176,0.15784 -0.30264,0.3946 -0.30264,0.71028 0,0.37933 0.12129,0.67847 0.36386,0.89741 0.24249,0.21894 0.57309,0.32841 0.9918,0.32841 h 2.41727 v 0.70647 h -4.277 v -0.70647 h 0.66446 c -0.2584,-0.16802 -0.45156,-0.36596 -0.57949,-0.59381 -0.12793,-0.22785 -0.1919,-0.49071 -0.1919,-0.78857 0,-0.49135 0.15244,-0.86304 0.4573,-1.11508 0.30486,-0.25204 0.75325,-0.37805 1.34515,-0.37805 z" style="stroke-width:7.8208;fill:currentColor;fill-opacity:1"/>
      <path id="use17580" d="m 177.78047,160.46027 h 0.66446 c -0.10183,0.19858 -0.17821,0.40479 -0.22912,0.61864 -0.0509,0.21385 -0.0764,0.43534 -0.0764,0.66446 0,0.34878 0.0536,0.61037 0.16074,0.78476 0.10717,0.17439 0.26791,0.26158 0.48224,0.26158 0.16325,0 0.29146,-0.0624 0.38462,-0.18712 0.0932,-0.12474 0.18183,-0.37551 0.266,-0.75229 l 0.0537,-0.24058 c 0.10709,-0.49899 0.25821,-0.85349 0.45336,-1.06352 0.19508,-0.21004 0.46732,-0.31505 0.81674,-0.31505 0.39786,0 0.71283,0.1572 0.9449,0.47161 0.23207,0.31441 0.3481,0.74657 0.3481,1.29647 0,0.22912 -0.0223,0.4678 -0.0668,0.71602 -0.0446,0.24821 -0.11138,0.5098 -0.20048,0.78475 h -0.72556 c 0.13493,-0.25968 0.23612,-0.51553 0.30359,-0.76757 0.0675,-0.25204 0.10119,-0.50153 0.10119,-0.74848 0,-0.33095 -0.0568,-0.58554 -0.17029,-0.76375 -0.11353,-0.1782 -0.27359,-0.26731 -0.48021,-0.26731 -0.19133,0 -0.33803,0.0643 -0.44011,0.19285 -0.10207,0.12856 -0.20028,0.41051 -0.29464,0.84585 l -0.0574,0.2444 c -0.0918,0.43534 -0.23271,0.74975 -0.42269,0.94323 -0.19007,0.19349 -0.4509,0.29023 -0.78249,0.29023 -0.40304,0 -0.71423,-0.14257 -0.93357,-0.4277 -0.21934,-0.28513 -0.32901,-0.68992 -0.32901,-1.21436 0,-0.25968 0.0191,-0.50408 0.0573,-0.7332 0.0382,-0.22913 0.0955,-0.44043 0.17185,-0.63392 z" style="stroke-width:7.8208;fill:currentColor;fill-opacity:1"/>
      <path id="use17582" d="m 177.65827,159.11221 v -0.70265 h 4.277 v 0.70265 h -4.277 m -1.66497,0 v -0.70265 h 0.89358 v 0.70265 z" style="stroke-width:7.8208;fill:currentColor;fill-opacity:1"/>
      <path id="use17584" d="m 176.44391,156.24302 h 1.21436 v -1.44731 h 0.5499 v 1.44731 h 2.31894 c 0.34838,0 0.57217,-0.0477 0.67138,-0.1432 0.0991,-0.0955 0.14869,-0.28959 0.14869,-0.58236 v -0.72175 h 0.58809 v 0.72175 c 0,0.54226 -0.10112,0.9165 -0.30335,1.12271 -0.20232,0.20621 -0.57059,0.30932 -1.10481,0.30932 h -2.31894 v 0.51553 h -0.5499 v -0.51553 h -1.21436 z" style="stroke-width:7.8208;fill:currentColor;fill-opacity:1"/>
      <path id="use17586" d="m 182.33242,152.09274 c 0.50917,0.19858 0.8414,0.39206 0.99669,0.58045 0.1553,0.1884 0.23295,0.44043 0.23295,0.75612 v 0.56135 h -0.58809 v -0.41242 c 0,-0.19349 -0.0458,-0.34369 -0.13748,-0.45062 -0.0916,-0.10692 -0.30804,-0.2253 -0.64918,-0.35514 l -0.32078,-0.12602 -4.20826,1.7299 v -0.74466 l 3.34522,-1.33656 -3.34522,-1.33657 v -0.74465 z" style="stroke-width:7.8208;fill:currentColor;fill-opacity:1"/>
      <path transform="matrix(0.6016,0,0,-0.6016,167.401,279.90998)" stroke-width="0.8" stroke-linecap="square" stroke-miterlimit="10" stroke-linejoin="miter" fill="none" stroke="currentColor" d="m 66.8,50.96 v 280.6" id="path17588"/>
      <path transform="matrix(0.6016,0,0,-0.6016,167.401,279.90998)" stroke-width="0.8" stroke-linecap="square" stroke-miterlimit="10" stroke-linejoin="miter" fill="none" stroke="currentColor" d="m 446.76,50.96 v 280.6" id="path17590"/>
      <path transform="matrix(0.6016,0,0,-0.6016,167.401,279.90998)" stroke-width="0.8" stroke-linecap="square" stroke-miterlimit="10" stroke-linejoin="miter" fill="none" stroke="currentColor" d="M 66.8,50.96 H 446.76" id="path17592"/>
      <path transform="matrix(0.6016,0,0,-0.6016,167.401,279.90998)" stroke-width="0.8" stroke-linecap="square" stroke-miterlimit="10" stroke-linejoin="miter" fill="none" stroke="currentColor" d="M 66.8,331.56 H 446.76" id="path17594"/>
      <g id="g17600" style="fill:none" color="rgb(209, 209, 209)">
        <path transform="matrix(0.6016,0,0,-0.6016,167.401,279.90998)" d="m 75.9,263.92564 h 130.92813 c 1.73334,0 2.6,0.86666 2.6,2.60001 V 322.46 c 0,1.73334 -0.86666,2.6 -2.6,2.6 H 75.9 c -1.733333,0 -2.6,-0.86666 -2.6,-2.6 v -55.93435 c 0,-1.73335 0.866667,-2.60001 2.6,-2.60001 z" fill="#ffffff" fill-opacity="0.8" id="path17596" style="fill:none"/>
        <path transform="matrix(0.6016,0,0,-0.6016,167.401,279.90998)" stroke-width="1" stroke-linecap="butt" stroke-miterlimit="10" stroke-linejoin="miter" fill="none" stroke="#d5d6d5" stroke-opacity="0.8" d="m 75.9,263.92564 h 130.92813 c 1.73334,0 2.6,0.86666 2.6,2.60001 V 322.46 c 0,1.73334 -0.86666,2.6 -2.6,2.6 H 75.9 c -1.733333,0 -2.6,-0.86666 -2.6,-2.6 v -55.93435 c 0,-1.73335 0.866667,-2.60001 2.6,-2.60001 z" id="path17598" style="fill:none"/>
      </g>
      <path transform="matrix(0.6016,0,0,-0.6016,167.401,279.90998)" d="m 78.5,309.985 h 26 v 9.1 h -26 z" fill="#1f77b4" id="path17602"/>
      <path id="use17604" d="m 236.50193,87.717794 h 4.82308 v 0.649188 h -2.02394 v 5.056025 h -0.7752 v -5.056025 h -2.02394 z" style="stroke-width:7.8208;fill:currentColor;fill-opacity:1"/>
      <path id="use17606" d="m 242.37231,89.634807 c -0.37679,0 -0.67465,0.14738 -0.89359,0.44214 -0.21894,0.294679 -0.32841,0.698473 -0.32841,1.211379 0,0.512906 0.10883,0.916738 0.3265,1.211498 0.21767,0.29468 0.51617,0.44202 0.8955,0.44202 0.37423,0 0.67082,-0.147976 0.88976,-0.443929 0.21895,-0.296033 0.32842,-0.699229 0.32842,-1.209589 0,-0.507814 -0.10947,-0.910335 -0.32842,-1.207561 -0.21894,-0.297305 -0.51553,-0.445958 -0.88976,-0.445958 m 0,-0.595725 c 0.611,0 1.09089,0.198933 1.43967,0.596799 0.34877,0.397786 0.52316,0.948601 0.52316,1.652445 0,0.701297 -0.17439,1.251515 -0.52316,1.650654 -0.34878,0.39906 -0.82867,0.598589 -1.43967,0.598589 -0.61355,0 -1.09408,-0.199529 -1.44158,-0.598589 -0.34751,-0.399139 -0.52126,-0.949357 -0.52126,-1.650654 0,-0.703844 0.17375,-1.254659 0.52126,-1.652445 0.3475,-0.397866 0.82803,-0.596799 1.44158,-0.596799 z" style="stroke-width:7.8208;fill:currentColor;fill-opacity:1"/>
      <path id="use17608" d="m 245.47457,87.481032 h 0.70647 v 3.509431 l 2.09649,-1.844456 h 0.89741 l -2.26834,2.001025 2.36381,2.275975 h -0.9165 l -2.17287,-2.088856 v 2.088856 h -0.70647 z" style="stroke-width:7.8208;fill:currentColor;fill-opacity:1"/>
      <path id="use17610" d="m 253.41531,91.108844 v 0.343688 h -3.23066 c 0.0306,0.484981 0.1763,0.854445 0.43725,1.108392 0.26094,0.253947 0.62436,0.38092 1.09025,0.38092 0.26986,0 0.53144,-0.0331 0.78475,-0.09929 0.25331,-0.06619 0.50471,-0.165479 0.7542,-0.297863 v 0.664463 c -0.25203,0.106925 -0.51043,0.188392 -0.7752,0.2444 -0.26477,0.05601 -0.53335,0.08401 -0.80576,0.08401 -0.68228,0 -1.22263,-0.198894 -1.62106,-0.59668 -0.39842,-0.397866 -0.59763,-0.935952 -0.59763,-1.614258 0,-0.701297 0.18903,-1.25788 0.56708,-1.669748 0.37806,-0.411868 0.88786,-0.617802 1.52941,-0.617802 0.57536,0 1.03043,0.185567 1.36521,0.556702 0.33477,0.371056 0.50216,0.875409 0.50216,1.51306 m -0.70265,-0.206212 c -0.005,-0.385614 -0.11265,-0.693302 -0.32268,-0.923064 -0.21003,-0.229841 -0.48817,-0.344761 -0.8344,-0.344761 -0.39206,0 -0.70583,0.111102 -0.94132,0.333305 -0.23549,0.222124 -0.37106,0.534904 -0.4067,0.938339 z" style="stroke-width:7.8208;fill:currentColor;fill-opacity:1"/>
      <path id="use17612" d="m 258.12198,90.841532 v 2.581475 h -0.70264 v -2.558563 c 0,-0.40606 -0.0789,-0.709969 -0.23677,-0.911726 -0.15784,-0.201757 -0.3946,-0.302636 -0.71028,-0.302636 -0.37933,0 -0.67847,0.121285 -0.89741,0.363855 -0.21894,0.242491 -0.32841,0.573091 -0.32841,0.991801 v 2.417269 H 254.54 v -4.277 h 0.70647 v 0.664462 c 0.16802,-0.258402 0.36596,-0.451567 0.59381,-0.579495 0.22785,-0.127928 0.49071,-0.191892 0.78857,-0.191892 0.49135,0 0.86304,0.152431 1.11508,0.457295 0.25204,0.304864 0.37805,0.753249 0.37805,1.345155 z" style="stroke-width:7.8208;fill:currentColor;fill-opacity:1"/>
      <path id="use17614" d="M 258.78813,93.423007 Z" style="stroke-width:7.8208;fill:currentColor;fill-opacity:1"/>
      <path id="use17616" d="m 263.17687,90.352732 c -0.23167,0.206849 -0.40161,0.413062 -0.50981,0.618638 -0.10819,0.205496 -0.16229,0.420619 -0.16229,0.645368 0,0.372726 0.13493,0.68296 0.40478,0.930701 0.26986,0.247662 0.60846,0.371493 1.01579,0.371493 0.24186,0 0.46844,-0.04022 0.67974,-0.120649 0.2113,-0.08043 0.40988,-0.202354 0.59572,-0.365764 l -2.02393,-2.079787 m 0.53844,-0.426745 1.93993,1.989449 c 0.1502,-0.227295 0.26731,-0.470501 0.35132,-0.729619 0.084,-0.259198 0.13366,-0.534347 0.14893,-0.825447 h 0.71029 c -0.0305,0.337084 -0.11202,0.670309 -0.2444,0.999677 -0.13238,0.329367 -0.31696,0.654915 -0.55372,0.976645 l 1.06543,1.086315 h -0.96232 l -0.54608,-0.557657 c -0.26477,0.226659 -0.54227,0.39536 -0.83249,0.506104 -0.29023,0.110744 -0.60209,0.166116 -0.93559,0.166116 -0.61355,0 -1.11508,-0.175345 -1.50459,-0.526033 -0.38951,-0.350689 -0.58427,-0.800227 -0.58427,-1.348616 0,-0.326503 0.0853,-0.633196 0.25586,-0.92008 0.17057,-0.286963 0.42642,-0.556702 0.76756,-0.809217 -0.1222,-0.160229 -0.21512,-0.319781 -0.27876,-0.478656 -0.0636,-0.158956 -0.0955,-0.314689 -0.0955,-0.467201 0,-0.411947 0.14129,-0.743144 0.42388,-0.993591 0.28259,-0.250446 0.6581,-0.375669 1.12653,-0.375669 0.2113,0 0.42197,0.02292 0.632,0.06874 0.21003,0.04582 0.42325,0.114563 0.63964,0.206213 v 0.695012 c -0.22148,-0.119654 -0.43279,-0.210667 -0.63391,-0.27304 -0.20112,-0.06237 -0.38824,-0.09356 -0.56136,-0.09356 -0.26731,0 -0.48434,0.07053 -0.65109,0.211584 -0.16676,0.141054 -0.25013,0.3234 -0.25013,0.547035 0,0.129679 0.0376,0.259953 0.11265,0.390825 0.0751,0.130872 0.22849,0.315763 0.46016,0.554674 z" style="stroke-width:7.8208;fill:currentColor;fill-opacity:1"/>
      <path id="use17618" d="M 267.37535,93.423007 Z" style="stroke-width:7.8208;fill:currentColor;fill-opacity:1"/>
      <path id="use17620" d="m 270.62995,87.717794 h 0.77139 v 2.337075 h 2.80296 v -2.337075 h 0.77139 v 5.705213 h -0.77139 v -2.71895 h -2.80296 v 2.71895 h -0.77139 z" style="stroke-width:7.8208;fill:currentColor;fill-opacity:1"/>
      <path id="use17622" d="m 280.13898,91.108844 v 0.343688 h -3.23066 c 0.0306,0.484981 0.1763,0.854445 0.43725,1.108392 0.26094,0.253947 0.62436,0.38092 1.09025,0.38092 0.26986,0 0.53144,-0.0331 0.78475,-0.09929 0.25331,-0.06619 0.50471,-0.165479 0.7542,-0.297863 v 0.664463 c -0.25203,0.106925 -0.51043,0.188392 -0.7752,0.2444 -0.26477,0.05601 -0.53335,0.08401 -0.80576,0.08401 -0.68228,0 -1.22263,-0.198894 -1.62106,-0.59668 -0.39842,-0.397866 -0.59763,-0.935952 -0.59763,-1.614258 0,-0.701297 0.18903,-1.25788 0.56708,-1.669748 0.37806,-0.411868 0.88786,-0.617802 1.52941,-0.617802 0.57536,0 1.03043,0.185567 1.36521,0.556702 0.33477,0.371056 0.50216,0.875409 0.50216,1.51306 m -0.70265,-0.206212 c -0.005,-0.385614 -0.11265,-0.693302 -0.32268,-0.923064 -0.21003,-0.229841 -0.48817,-0.344761 -0.8344,-0.344761 -0.39206,0 -0.70583,0.111102 -0.94132,0.333305 -0.23549,0.222124 -0.37106,0.534904 -0.4067,0.938339 z" style="stroke-width:7.8208;fill:currentColor;fill-opacity:1"/>
      <path id="use17624" d="m 283.23416,91.269232 c -0.56772,0 -0.96105,0.06523 -1.17999,0.195711 -0.21894,0.130394 -0.32841,0.352876 -0.32841,0.667446 0,0.250605 0.0821,0.449459 0.24631,0.59656 0.1642,0.147022 0.3876,0.220533 0.67019,0.220533 0.38951,0 0.70201,-0.138748 0.9375,-0.416244 0.23549,-0.277576 0.35323,-0.646602 0.35323,-1.10708 v -0.156926 h -0.69883 m 1.40148,-0.290225 v 2.444 h -0.70265 V 92.77382 c -0.16038,0.260947 -0.36023,0.453476 -0.59954,0.577585 -0.23931,0.12411 -0.53208,0.186165 -0.87831,0.186165 -0.43789,0 -0.78603,-0.123155 -1.04443,-0.369465 -0.2584,-0.246389 -0.3876,-0.576352 -0.3876,-0.989891 0,-0.482436 0.16102,-0.846171 0.48307,-1.091208 0.32205,-0.245116 0.80257,-0.367674 1.44158,-0.367674 h 0.98523 v -0.06874 c 0,-0.32332 -0.10628,-0.573449 -0.31886,-0.750384 -0.21258,-0.176936 -0.51108,-0.265403 -0.8955,-0.265403 -0.2444,0 -0.48243,0.02928 -0.71411,0.08783 -0.23167,0.05855 -0.45443,0.146385 -0.66828,0.263494 v -0.649187 c 0.25713,-0.09929 0.50662,-0.173754 0.74848,-0.223397 0.24185,-0.04965 0.47734,-0.07446 0.70647,-0.07446 0.61863,0 1.0807,0.160388 1.3862,0.481162 0.3055,0.320771 0.45825,0.807025 0.45825,1.458758 z" style="stroke-width:7.8208;fill:currentColor;fill-opacity:1"/>
      <path id="use17626" d="m 288.89898,89.795194 v -2.314162 h 0.70265 v 5.941975 h -0.70265 v -0.64155 c -0.14766,0.255856 -0.33414,0.445839 -0.55945,0.569948 -0.22531,0.12411 -0.4958,0.186165 -0.81148,0.186165 -0.51681,0 -0.93751,-0.206571 -1.2621,-0.619712 -0.32459,-0.413141 -0.48689,-0.956318 -0.48689,-1.629532 0,-0.673214 0.1623,-1.216392 0.48689,-1.629533 0.32459,-0.41314 0.74529,-0.619711 1.2621,-0.619711 0.31568,0 0.58617,0.06206 0.81148,0.186164 0.22531,0.12411 0.41179,0.314093 0.55945,0.569948 m -2.39436,1.493132 c 0,0.517997 0.10629,0.924376 0.31887,1.219136 0.21257,0.29468 0.50471,0.44202 0.8764,0.44202 0.37169,0 0.66446,-0.14734 0.87831,-0.44202 0.21385,-0.29476 0.32078,-0.701139 0.32078,-1.219136 0,-0.517998 -0.10693,-0.924337 -0.32078,-1.219017 -0.21385,-0.29476 -0.50662,-0.442139 -0.87831,-0.442139 -0.37169,0 -0.66383,0.147379 -0.8764,0.442139 -0.21258,0.294681 -0.31887,0.701019 -0.31887,1.219017 z" style="stroke-width:7.8208;fill:currentColor;fill-opacity:1"/>
      <path transform="matrix(0.6016,0,0,-0.6016,167.401,279.90998)" d="m 78.5,290.90687 h 26 v 9.10001 h -26 z" fill="#ff7f0e" id="path17628"/>
      <path id="use17630" d="m 238.0638,99.82911 v 2.14614 h 0.96996 c 0.35896,0 0.63646,-0.0931 0.83249,-0.27925 0.19603,-0.18616 0.29404,-0.45141 0.29404,-0.79573 0,-0.34178 -0.098,-0.60575 -0.29404,-0.79191 -0.19603,-0.186168 -0.47353,-0.27925 -0.83249,-0.27925 h -0.96996 m -0.77139,-0.633913 h 1.74135 c 0.639,0 1.12207,0.144635 1.44921,0.433905 0.32714,0.289271 0.49071,0.712998 0.49071,1.271168 0,0.56326 -0.16357,0.9889 -0.49071,1.27689 -0.32714,0.288 -0.81021,0.432 -1.44921,0.432 h -0.96996 v 2.29125 h -0.77139 z" style="stroke-width:7.8208;fill:currentColor;fill-opacity:1"/>
      <path id="use17632" d="m 245.36357,102.58625 v 0.34368 h -3.23066 c 0.0305,0.48499 0.1763,0.85445 0.43725,1.1084 0.26094,0.25394 0.62436,0.38092 1.09025,0.38092 0.26986,0 0.53144,-0.0331 0.78475,-0.0993 0.25331,-0.0662 0.50471,-0.16548 0.7542,-0.29786 v 0.66446 c -0.25203,0.10692 -0.51043,0.18839 -0.7752,0.2444 -0.26477,0.056 -0.53335,0.084 -0.80576,0.084 -0.68228,0 -1.22263,-0.19889 -1.62106,-0.59668 -0.39842,-0.39786 -0.59763,-0.93595 -0.59763,-1.61425 0,-0.7013 0.18903,-1.25788 0.56708,-1.66975 0.37806,-0.41187 0.88786,-0.61781 1.52941,-0.61781 0.57536,0 1.03043,0.18557 1.36521,0.55671 0.33477,0.37105 0.50216,0.87541 0.50216,1.51306 m -0.70265,-0.20622 c -0.005,-0.38561 -0.11265,-0.6933 -0.32268,-0.92306 -0.21003,-0.22984 -0.48817,-0.34476 -0.8344,-0.34476 -0.39206,0 -0.70583,0.1111 -0.94132,0.33331 -0.23549,0.22212 -0.37106,0.5349 -0.4067,0.93833 z" style="stroke-width:7.8208;fill:currentColor;fill-opacity:1"/>
      <path id="use17634" d="m 248.99336,101.28023 c -0.0789,-0.0471 -0.16485,-0.0818 -0.25777,-0.10406 -0.0929,-0.0223 -0.19539,-0.0334 -0.30741,-0.0334 -0.39715,0 -0.70201,0.12956 -0.91459,0.38868 -0.21258,0.25904 -0.31886,0.63101 -0.31886,1.11591 v 2.25306 h -0.70647 v -4.277 h 0.70647 v 0.66446 c 0.14765,-0.26095 0.33986,-0.45475 0.57663,-0.5814 0.23676,-0.12666 0.52444,-0.18999 0.86304,-0.18999 0.0484,0 0.10183,0.003 0.16038,0.01 0.0586,0.006 0.12348,0.0159 0.19476,0.0286 z" style="stroke-width:7.8208;fill:currentColor;fill-opacity:1"/>
      <path id="use17636" d="M 248.99233,104.90041 Z" style="stroke-width:7.8208;fill:currentColor;fill-opacity:1"/>
      <path id="use17638" d="m 252.24691,99.195197 h 0.77139 v 2.337073 h 2.80296 v -2.337073 h 0.77139 v 5.705213 h -0.77139 v -2.71895 h -2.80296 v 2.71895 h -0.77139 z" style="stroke-width:7.8208;fill:currentColor;fill-opacity:1"/>
      <path id="use17640" d="m 261.75598,102.58625 v 0.34368 h -3.23066 c 0.0306,0.48499 0.1763,0.85445 0.43725,1.1084 0.26094,0.25394 0.62436,0.38092 1.09025,0.38092 0.26986,0 0.53144,-0.0331 0.78475,-0.0993 0.25331,-0.0662 0.50471,-0.16548 0.7542,-0.29786 v 0.66446 c -0.25203,0.10692 -0.51043,0.18839 -0.7752,0.2444 -0.26477,0.056 -0.53335,0.084 -0.80576,0.084 -0.68228,0 -1.22263,-0.19889 -1.62106,-0.59668 -0.39842,-0.39786 -0.59763,-0.93595 -0.59763,-1.61425 0,-0.7013 0.18903,-1.25788 0.56708,-1.66975 0.37806,-0.41187 0.88786,-0.61781 1.52941,-0.61781 0.57536,0 1.03043,0.18557 1.36521,0.55671 0.33477,0.37105 0.50216,0.87541 0.50216,1.51306 m -0.70265,-0.20622 c -0.005,-0.38561 -0.11265,-0.6933 -0.32268,-0.92306 -0.21003,-0.22984 -0.48817,-0.34476 -0.8344,-0.34476 -0.39206,0 -0.70583,0.1111 -0.94132,0.33331 -0.23549,0.22212 -0.37106,0.5349 -0.4067,0.93833 z" style="stroke-width:7.8208;fill:currentColor;fill-opacity:1"/>
      <path id="use17642" d="m 264.85115,102.74663 c -0.56772,0 -0.96105,0.0652 -1.17999,0.19572 -0.21894,0.13039 -0.32841,0.35287 -0.32841,0.66744 0,0.25061 0.0821,0.44946 0.24631,0.59656 0.1642,0.14702 0.3876,0.22053 0.67019,0.22053 0.38951,0 0.70201,-0.13874 0.9375,-0.41624 0.23549,-0.27757 0.35323,-0.6466 0.35323,-1.10708 v -0.15693 h -0.69883 m 1.40148,-0.29022 v 2.444 h -0.70265 v -0.64919 c -0.16038,0.26095 -0.36023,0.45348 -0.59954,0.57759 -0.23931,0.12411 -0.53208,0.18616 -0.87831,0.18616 -0.43789,0 -0.78603,-0.12315 -1.04443,-0.36946 -0.2584,-0.24639 -0.3876,-0.57635 -0.3876,-0.98989 0,-0.48244 0.16102,-0.84617 0.48307,-1.09121 0.32205,-0.24512 0.80257,-0.36767 1.44158,-0.36767 h 0.98523 v -0.0687 c 0,-0.32332 -0.10628,-0.57345 -0.31886,-0.75039 -0.21258,-0.17693 -0.51108,-0.2654 -0.8955,-0.2654 -0.2444,0 -0.48243,0.0293 -0.71411,0.0878 -0.23167,0.0586 -0.45443,0.14639 -0.66828,0.2635 v -0.64919 c 0.25713,-0.0993 0.50662,-0.17375 0.74848,-0.2234 0.24185,-0.0496 0.47734,-0.0745 0.70647,-0.0745 0.61863,0 1.0807,0.16039 1.3862,0.48116 0.3055,0.32077 0.45825,0.80703 0.45825,1.45876 z" style="stroke-width:7.8208;fill:currentColor;fill-opacity:1"/>
      <path id="use17644" d="m 270.51599,101.2726 v -2.314165 h 0.70265 v 5.941975 h -0.70265 v -0.64155 c -0.14766,0.25586 -0.33414,0.44584 -0.55945,0.56995 -0.22531,0.12411 -0.4958,0.18616 -0.81148,0.18616 -0.51681,0 -0.93751,-0.20657 -1.2621,-0.61971 -0.32459,-0.41314 -0.48689,-0.95632 -0.48689,-1.62953 0,-0.67322 0.1623,-1.21639 0.48689,-1.62953 0.32459,-0.41314 0.74529,-0.61972 1.2621,-0.61972 0.31568,0 0.58617,0.0621 0.81148,0.18617 0.22531,0.12411 0.41179,0.31409 0.55945,0.56995 m -2.39436,1.49313 c 0,0.518 0.10629,0.92437 0.31887,1.21913 0.21257,0.29468 0.50471,0.44202 0.8764,0.44202 0.37169,0 0.66446,-0.14734 0.87831,-0.44202 0.21385,-0.29476 0.32078,-0.70113 0.32078,-1.21913 0,-0.518 -0.10693,-0.92434 -0.32078,-1.21902 -0.21385,-0.29476 -0.50662,-0.44214 -0.87831,-0.44214 -0.37169,0 -0.66383,0.14738 -0.8764,0.44214 -0.21258,0.29468 -0.31887,0.70102 -0.31887,1.21902 z" style="stroke-width:7.8208;fill:currentColor;fill-opacity:1"/>
      <path transform="matrix(0.6016,0,0,-0.6016,167.401,279.90998)" d="m 78.5,271.82875 h 26 v 9.1 h -26 z" fill="#2ca02c" id="path17646"/>
      <path id="use17648" d="m 238.0638,111.30651 v 2.14614 h 0.96996 c 0.35896,0 0.63646,-0.0931 0.83249,-0.27925 0.19603,-0.18616 0.29404,-0.45141 0.29404,-0.79573 0,-0.34178 -0.098,-0.60575 -0.29404,-0.79191 -0.19603,-0.18617 -0.47353,-0.27925 -0.83249,-0.27925 h -0.96996 m -0.77139,-0.63391 h 1.74135 c 0.639,0 1.12207,0.14463 1.44921,0.4339 0.32714,0.28927 0.49071,0.713 0.49071,1.27117 0,0.56326 -0.16357,0.9889 -0.49071,1.27689 -0.32714,0.288 -0.81021,0.432 -1.44921,0.432 h -0.96996 v 2.29125 h -0.77139 z" style="stroke-width:7.8208;fill:currentColor;fill-opacity:1"/>
      <path id="use17650" d="m 245.36357,114.06365 v 0.34368 h -3.23066 c 0.0305,0.48499 0.1763,0.85445 0.43725,1.1084 0.26094,0.25394 0.62436,0.38092 1.09025,0.38092 0.26986,0 0.53144,-0.0331 0.78475,-0.0993 0.25331,-0.0662 0.50471,-0.16548 0.7542,-0.29786 v 0.66446 c -0.25203,0.10692 -0.51043,0.18839 -0.7752,0.2444 -0.26477,0.056 -0.53335,0.084 -0.80576,0.084 -0.68228,0 -1.22263,-0.19889 -1.62106,-0.59668 -0.39842,-0.39786 -0.59763,-0.93595 -0.59763,-1.61425 0,-0.7013 0.18903,-1.25788 0.56708,-1.66975 0.37806,-0.41187 0.88786,-0.61781 1.52941,-0.61781 0.57536,0 1.03043,0.18557 1.36521,0.55671 0.33477,0.37105 0.50216,0.87541 0.50216,1.51306 m -0.70265,-0.20622 c -0.005,-0.38561 -0.11265,-0.6933 -0.32268,-0.92306 -0.21003,-0.22984 -0.48817,-0.34476 -0.8344,-0.34476 -0.39206,0 -0.70583,0.1111 -0.94132,0.33331 -0.23549,0.22212 -0.37106,0.5349 -0.4067,0.93833 z" style="stroke-width:7.8208;fill:currentColor;fill-opacity:1"/>
      <path id="use17652" d="m 248.99336,112.75763 c -0.0789,-0.0471 -0.16485,-0.0818 -0.25777,-0.10406 -0.0929,-0.0223 -0.19539,-0.0334 -0.30741,-0.0334 -0.39715,0 -0.70201,0.12956 -0.91459,0.38868 -0.21258,0.25904 -0.31886,0.63101 -0.31886,1.11591 v 2.25306 h -0.70647 v -4.277 h 0.70647 v 0.66446 c 0.14765,-0.26095 0.33986,-0.45475 0.57663,-0.5814 0.23676,-0.12666 0.52444,-0.18999 0.86304,-0.18999 0.0484,0 0.10183,0.003 0.16038,0.01 0.0586,0.006 0.12348,0.0159 0.19476,0.0286 z" style="stroke-width:7.8208;fill:currentColor;fill-opacity:1"/>
      <path id="use17654" d="M 248.99233,116.37781 Z" style="stroke-width:7.8208;fill:currentColor;fill-opacity:1"/>
      <path id="use17656" d="m 251.45643,110.6726 h 4.82308 v 0.64918 h -2.02394 v 5.05603 h -0.7752 v -5.05603 h -2.02394 z" style="stroke-width:7.8208;fill:currentColor;fill-opacity:1"/>
      <path id="use17658" d="m 257.32681,112.58961 c -0.37679,0 -0.67465,0.14738 -0.89359,0.44214 -0.21894,0.29468 -0.32841,0.69847 -0.32841,1.21138 0,0.5129 0.10883,0.91674 0.3265,1.2115 0.21767,0.29468 0.51617,0.44202 0.8955,0.44202 0.37423,0 0.67082,-0.14798 0.88976,-0.44393 0.21895,-0.29604 0.32842,-0.69923 0.32842,-1.20959 0,-0.50782 -0.10947,-0.91034 -0.32842,-1.20756 -0.21894,-0.29731 -0.51553,-0.44596 -0.88976,-0.44596 m 0,-0.59573 c 0.611,0 1.09089,0.19894 1.43967,0.5968 0.34877,0.39779 0.52316,0.94861 0.52316,1.65245 0,0.7013 -0.17439,1.25151 -0.52316,1.65065 -0.34878,0.39906 -0.82867,0.59859 -1.43967,0.59859 -0.61355,0 -1.09408,-0.19953 -1.44158,-0.59859 -0.34751,-0.39914 -0.52126,-0.94935 -0.52126,-1.65065 0,-0.70384 0.17375,-1.25466 0.52126,-1.65245 0.3475,-0.39786 0.82803,-0.5968 1.44158,-0.5968 z" style="stroke-width:7.8208;fill:currentColor;fill-opacity:1"/>
      <path id="use17660" d="m 260.42908,110.43584 h 0.70647 v 3.50943 l 2.09649,-1.84446 h 0.89741 l -2.26834,2.00102 2.36381,2.27598 h -0.9165 l -2.17287,-2.08886 v 2.08886 h -0.70647 z" style="stroke-width:7.8208;fill:currentColor;fill-opacity:1"/>
      <path id="use17662" d="m 268.36982,114.06365 v 0.34368 h -3.23066 c 0.0306,0.48499 0.1763,0.85445 0.43725,1.1084 0.26094,0.25394 0.62436,0.38092 1.09025,0.38092 0.26986,0 0.53144,-0.0331 0.78475,-0.0993 0.25331,-0.0662 0.50471,-0.16548 0.7542,-0.29786 v 0.66446 c -0.25203,0.10692 -0.51043,0.18839 -0.7752,0.2444 -0.26477,0.056 -0.53335,0.084 -0.80576,0.084 -0.68228,0 -1.22263,-0.19889 -1.62106,-0.59668 -0.39842,-0.39786 -0.59763,-0.93595 -0.59763,-1.61425 0,-0.7013 0.18903,-1.25788 0.56708,-1.66975 0.37806,-0.41187 0.88786,-0.61781 1.52941,-0.61781 0.57536,0 1.03043,0.18557 1.36521,0.55671 0.33477,0.37105 0.50216,0.87541 0.50216,1.51306 m -0.70265,-0.20622 c -0.005,-0.38561 -0.11265,-0.6933 -0.32268,-0.92306 -0.21003,-0.22984 -0.48817,-0.34476 -0.8344,-0.34476 -0.39206,0 -0.70583,0.1111 -0.94132,0.33331 -0.23549,0.22212 -0.37106,0.5349 -0.4067,0.93833 z" style="stroke-width:7.8208;fill:currentColor;fill-opacity:1"/>
      <path id="use17664" d="m 273.07647,113.79633 v 2.58148 h -0.70264 v -2.55856 c 0,-0.40606 -0.0789,-0.70997 -0.23677,-0.91173 -0.15784,-0.20176 -0.3946,-0.30264 -0.71028,-0.30264 -0.37933,0 -0.67847,0.12129 -0.89741,0.36386 -0.21894,0.24249 -0.32841,0.57309 -0.32841,0.9918 v 2.41727 h -0.70647 v -4.277 h 0.70647 v 0.66446 c 0.16802,-0.2584 0.36596,-0.45156 0.59381,-0.57949 0.22785,-0.12793 0.49071,-0.1919 0.78857,-0.1919 0.49135,0 0.86304,0.15244 1.11508,0.4573 0.25204,0.30486 0.37805,0.75325 0.37805,1.34515 z" style="stroke-width:7.8208;fill:currentColor;fill-opacity:1"/>
    </g>
  </g>
</svg>